G04 #@! TF.GenerationSoftware,KiCad,Pcbnew,7.0.1*
G04 #@! TF.CreationDate,2023-10-11T18:56:37-05:00*
G04 #@! TF.ProjectId,Audio_Board,41756469-6f5f-4426-9f61-72642e6b6963,1*
G04 #@! TF.SameCoordinates,Original*
G04 #@! TF.FileFunction,Copper,L6,Bot*
G04 #@! TF.FilePolarity,Positive*
%FSLAX46Y46*%
G04 Gerber Fmt 4.6, Leading zero omitted, Abs format (unit mm)*
G04 Created by KiCad (PCBNEW 7.0.1) date 2023-10-11 18:56:37*
%MOMM*%
%LPD*%
G01*
G04 APERTURE LIST*
G04 Aperture macros list*
%AMRoundRect*
0 Rectangle with rounded corners*
0 $1 Rounding radius*
0 $2 $3 $4 $5 $6 $7 $8 $9 X,Y pos of 4 corners*
0 Add a 4 corners polygon primitive as box body*
4,1,4,$2,$3,$4,$5,$6,$7,$8,$9,$2,$3,0*
0 Add four circle primitives for the rounded corners*
1,1,$1+$1,$2,$3*
1,1,$1+$1,$4,$5*
1,1,$1+$1,$6,$7*
1,1,$1+$1,$8,$9*
0 Add four rect primitives between the rounded corners*
20,1,$1+$1,$2,$3,$4,$5,0*
20,1,$1+$1,$4,$5,$6,$7,0*
20,1,$1+$1,$6,$7,$8,$9,0*
20,1,$1+$1,$8,$9,$2,$3,0*%
G04 Aperture macros list end*
G04 #@! TA.AperFunction,ComponentPad*
%ADD10O,1.000000X2.100000*%
G04 #@! TD*
G04 #@! TA.AperFunction,ComponentPad*
%ADD11O,1.000000X1.800000*%
G04 #@! TD*
G04 #@! TA.AperFunction,ComponentPad*
%ADD12C,1.300000*%
G04 #@! TD*
G04 #@! TA.AperFunction,ComponentPad*
%ADD13C,2.250000*%
G04 #@! TD*
G04 #@! TA.AperFunction,ComponentPad*
%ADD14C,2.704000*%
G04 #@! TD*
G04 #@! TA.AperFunction,SMDPad,CuDef*
%ADD15RoundRect,0.155000X0.155000X-0.212500X0.155000X0.212500X-0.155000X0.212500X-0.155000X-0.212500X0*%
G04 #@! TD*
G04 #@! TA.AperFunction,SMDPad,CuDef*
%ADD16R,0.250000X0.725000*%
G04 #@! TD*
G04 #@! TA.AperFunction,SMDPad,CuDef*
%ADD17R,0.250000X0.775000*%
G04 #@! TD*
G04 #@! TA.AperFunction,ViaPad*
%ADD18C,0.500000*%
G04 #@! TD*
G04 #@! TA.AperFunction,Conductor*
%ADD19C,0.400000*%
G04 #@! TD*
G04 #@! TA.AperFunction,Conductor*
%ADD20C,0.300000*%
G04 #@! TD*
G04 #@! TA.AperFunction,Conductor*
%ADD21C,0.250000*%
G04 #@! TD*
G04 #@! TA.AperFunction,Conductor*
%ADD22C,0.130000*%
G04 #@! TD*
G04 APERTURE END LIST*
D10*
X249698954Y-112806000D03*
D11*
X249698954Y-116986000D03*
D10*
X258338954Y-112806000D03*
D11*
X258338954Y-116986000D03*
D12*
X256290335Y-66075000D03*
X256290335Y-68075000D03*
X256290335Y-70075000D03*
X256290335Y-72075000D03*
X256290335Y-74075000D03*
X256290335Y-76075000D03*
X256290335Y-78075000D03*
X256290335Y-80075000D03*
D13*
X211717126Y-85918503D03*
X226006545Y-94168503D03*
X205367126Y-96917026D03*
X219656545Y-105167026D03*
D14*
X171688954Y-29759000D03*
X166388954Y-28509000D03*
X171688954Y-24259000D03*
D15*
X256747535Y-115882000D03*
X256747535Y-114747000D03*
X251159535Y-115983600D03*
X251159535Y-114848600D03*
D16*
X252944135Y-114874000D03*
X253444135Y-114874000D03*
X253944135Y-114874000D03*
X254444135Y-114874000D03*
X254944135Y-114874000D03*
D17*
X254944135Y-115874000D03*
X254444135Y-115874000D03*
X253944135Y-115874000D03*
X253444135Y-115874000D03*
X252944135Y-115874000D03*
D18*
X253267735Y-113527800D03*
X254768954Y-113502400D03*
X172673535Y-67249000D03*
X183849535Y-77917000D03*
X241253535Y-77663000D03*
X249635535Y-75631000D03*
X250041935Y-111089400D03*
X205388735Y-36210200D03*
X257560335Y-34483000D03*
X203153535Y-69027000D03*
X171403535Y-56073000D03*
X235411535Y-73345000D03*
X187913535Y-85029000D03*
X245723935Y-22341800D03*
X226775535Y-77155000D03*
X169879535Y-52771000D03*
X163935935Y-20716200D03*
X197311535Y-75631000D03*
X250143535Y-81727000D03*
X236935535Y-80203000D03*
X240745535Y-62423000D03*
X218139535Y-98999000D03*
X195076335Y-28590200D03*
X252683535Y-28285400D03*
X251159535Y-66487000D03*
X183087535Y-55311000D03*
X246079535Y-98491000D03*
X232363535Y-98491000D03*
X178820335Y-22443400D03*
X236884735Y-21833800D03*
X213313535Y-51755000D03*
X208741535Y-89093000D03*
X202848735Y-62626200D03*
X202086735Y-25085000D03*
X238865935Y-31485800D03*
X174959535Y-58867000D03*
X190453535Y-69281000D03*
X249127535Y-118811000D03*
X220882735Y-39918600D03*
X243793535Y-84521000D03*
X219663535Y-56936600D03*
X212805535Y-21427400D03*
X210163935Y-45557400D03*
X217225135Y-33568600D03*
X189437535Y-72532200D03*
X251819935Y-21783000D03*
X187151535Y-64709000D03*
X246079535Y-84013000D03*
X187151535Y-55057000D03*
X198022735Y-54549000D03*
X250143535Y-84013000D03*
X186999135Y-21376600D03*
X256747535Y-105095000D03*
X171403535Y-36261000D03*
X184611535Y-50993000D03*
X213567535Y-48453000D03*
X254207535Y-76901000D03*
X256747535Y-94427000D03*
X177804335Y-30114200D03*
X179277535Y-45913000D03*
X256747535Y-99761000D03*
X175010335Y-30012600D03*
X231296735Y-47691000D03*
X259033535Y-118811000D03*
X259033535Y-84267000D03*
X259033535Y-93157000D03*
X199597535Y-65471000D03*
X221492335Y-35702200D03*
X194314335Y-39207400D03*
X215091535Y-102555000D03*
X193958735Y-47487800D03*
X226572335Y-47589400D03*
X246079535Y-100269000D03*
X189894735Y-35651400D03*
X188673535Y-24715000D03*
X241913935Y-37581800D03*
X220831935Y-44541400D03*
X203915535Y-101539000D03*
X230331535Y-111445000D03*
X205744335Y-43423800D03*
X163021535Y-41087000D03*
X246841535Y-78425000D03*
X243793535Y-93919000D03*
X183646335Y-28590200D03*
X197921135Y-35600600D03*
X181563535Y-68773000D03*
X179277535Y-50485000D03*
X243793535Y-115255000D03*
X247705135Y-44998600D03*
X241151935Y-26202600D03*
X259033535Y-80711000D03*
X231601535Y-86045000D03*
X163529535Y-31689000D03*
X206303135Y-24678600D03*
X250143535Y-95443000D03*
X234395535Y-75885000D03*
X239983535Y-89347000D03*
X256747535Y-87315000D03*
X188523135Y-46573400D03*
X257458735Y-26863000D03*
X227029535Y-103063000D03*
X186084735Y-32603400D03*
X194415935Y-32705000D03*
X215599535Y-42611000D03*
X245622335Y-25796200D03*
X250143535Y-91379000D03*
X184662335Y-25237400D03*
X239221535Y-107889000D03*
X214177135Y-61254600D03*
X202391535Y-95697000D03*
X240542335Y-53329800D03*
X214532735Y-55768200D03*
X258322335Y-55107800D03*
X229569535Y-88585000D03*
X194009535Y-72227400D03*
X180801535Y-65471000D03*
X241151935Y-47030600D03*
X209554335Y-21325800D03*
X224997535Y-85283000D03*
X250143535Y-98999000D03*
X226521535Y-57343000D03*
X250143535Y-102809000D03*
X203407535Y-74869000D03*
X179023535Y-27421800D03*
X210163935Y-28793400D03*
X257458735Y-64353400D03*
X208690735Y-58511400D03*
X246079535Y-85791000D03*
X243793535Y-89093000D03*
X228299535Y-98237000D03*
X174959535Y-32298600D03*
X246079535Y-91379000D03*
X243793535Y-80711000D03*
X217885535Y-108905000D03*
X194263535Y-35397400D03*
X225505535Y-88585000D03*
X246790735Y-70449400D03*
X216361535Y-53025000D03*
X196295535Y-44643000D03*
X239881935Y-69382600D03*
X244555535Y-65877400D03*
X173689535Y-46929000D03*
X218799935Y-21173400D03*
X242929935Y-30469800D03*
X234395535Y-103825000D03*
X259033535Y-91379000D03*
X242777535Y-59883000D03*
X205185535Y-93919000D03*
X246079535Y-96713000D03*
X255223535Y-118811000D03*
X247095535Y-64963000D03*
X163783535Y-45659000D03*
X211484735Y-32857400D03*
X243793535Y-110175000D03*
X198327535Y-32806600D03*
X254461535Y-60695800D03*
X246079535Y-94935000D03*
X243793535Y-99253000D03*
X185627535Y-69281000D03*
X250143535Y-89093000D03*
X178617135Y-33314600D03*
X203661535Y-47691000D03*
X227385135Y-39309000D03*
X200207135Y-28793400D03*
X256747535Y-89093000D03*
X235919535Y-94173000D03*
X259033535Y-109159000D03*
X245063535Y-74361000D03*
X210265535Y-91633000D03*
X253801135Y-114137400D03*
X253902735Y-49316600D03*
X165307535Y-48961000D03*
X211789535Y-89093000D03*
X233633535Y-109159000D03*
X209503535Y-78425000D03*
X259033535Y-77155000D03*
X176737535Y-62931000D03*
X192739535Y-77917000D03*
X202848735Y-57495400D03*
X249838735Y-23611800D03*
X231855535Y-115001000D03*
X236427535Y-88839000D03*
X210671935Y-40579000D03*
X243793535Y-104333000D03*
X208233535Y-85283000D03*
X252429535Y-72837000D03*
X251921535Y-78171000D03*
X204220335Y-51043800D03*
X259033535Y-75377000D03*
X233227135Y-69789000D03*
X226267535Y-74107000D03*
X195279535Y-61915000D03*
X237799135Y-38242200D03*
X194314335Y-51043800D03*
X198327535Y-92649000D03*
X192739535Y-58867000D03*
X259033535Y-94935000D03*
X231804735Y-65674200D03*
X177347135Y-26913800D03*
X246079535Y-109159000D03*
X199597535Y-46421000D03*
X244047535Y-63947000D03*
X175467535Y-40325000D03*
X231550735Y-52263000D03*
X230839535Y-105349000D03*
X216107535Y-89855000D03*
X246333535Y-112207000D03*
X234293935Y-32705000D03*
X251413535Y-117541000D03*
X250143535Y-100777000D03*
X239475535Y-101793000D03*
X198632335Y-49316600D03*
X168609535Y-57851000D03*
X196041535Y-94681000D03*
X211027535Y-50485000D03*
X203915535Y-91633000D03*
X161192735Y-21376600D03*
X257458735Y-42204600D03*
X246079535Y-105603000D03*
X165155135Y-24018200D03*
X257103135Y-110987800D03*
X193673535Y-82235000D03*
X256747535Y-85537000D03*
X229975935Y-30469800D03*
X256747535Y-118811000D03*
X256747535Y-83759000D03*
X251159535Y-74107000D03*
X225302335Y-58816200D03*
X226927935Y-32146200D03*
X223930735Y-63185000D03*
X246079535Y-103825000D03*
X252632735Y-43830200D03*
X246993935Y-49519800D03*
X215091535Y-75123000D03*
X246079535Y-87823000D03*
X202696335Y-71567000D03*
X176229535Y-42611000D03*
X222203535Y-107127000D03*
X188675535Y-28590200D03*
X248213135Y-36362600D03*
X256747535Y-92649000D03*
X223219535Y-55565000D03*
X168609535Y-27371000D03*
X228807535Y-63032600D03*
X195279535Y-69027000D03*
X256747535Y-117033000D03*
X226775535Y-107889000D03*
X176178735Y-73040200D03*
X221187535Y-76901000D03*
X217631535Y-95697000D03*
X222711535Y-100269000D03*
X205033135Y-28387000D03*
X226877135Y-43373000D03*
X200613535Y-69281000D03*
X162767535Y-28895000D03*
X250143535Y-105095000D03*
X233379535Y-81981000D03*
X211027535Y-101539000D03*
X224235535Y-111953000D03*
X197311535Y-85029000D03*
X170285935Y-21224200D03*
X175162735Y-23459400D03*
X167491935Y-21630600D03*
X167339535Y-36769000D03*
X236935535Y-116271000D03*
X225911935Y-65826600D03*
X201121535Y-42306200D03*
X216463135Y-28488600D03*
X247349535Y-118557000D03*
X225657935Y-70265000D03*
X247400335Y-29301400D03*
X250143535Y-93411000D03*
X179785535Y-77155000D03*
X219917535Y-85283000D03*
X175213535Y-55311000D03*
X239475535Y-112969000D03*
X259033535Y-89601000D03*
X213821535Y-82743000D03*
X219917535Y-110429000D03*
X246587535Y-61661000D03*
X216412335Y-36718200D03*
X197006735Y-24475400D03*
X211535535Y-82743000D03*
X168101535Y-24831000D03*
X219155535Y-50485000D03*
X171149535Y-42611000D03*
X246079535Y-107381000D03*
X258271535Y-115001000D03*
X205490335Y-40172600D03*
X213313535Y-77663000D03*
X167593535Y-41087000D03*
X250143535Y-86299000D03*
X240643935Y-66080600D03*
X203864735Y-21224200D03*
X250143535Y-97475000D03*
X259033535Y-96713000D03*
X246231935Y-59171800D03*
X210773535Y-98491000D03*
X259033535Y-102047000D03*
X184001935Y-72481400D03*
X246079535Y-80457000D03*
X179277535Y-37023000D03*
X240237535Y-95189000D03*
X242015535Y-72329000D03*
X259033535Y-73599000D03*
X201883535Y-88839000D03*
X221492335Y-48300600D03*
X218901535Y-73345000D03*
X240745535Y-84775000D03*
X220425535Y-54549000D03*
X256747535Y-90871000D03*
X201019935Y-39004200D03*
X222965535Y-87315000D03*
X201223135Y-35651400D03*
X253445535Y-118811000D03*
X246079535Y-102047000D03*
X219155535Y-80203000D03*
X214024735Y-65420200D03*
X192485535Y-88331000D03*
X185271935Y-35651400D03*
X237595935Y-63947000D03*
X167085535Y-53533000D03*
X190402735Y-32755800D03*
X210773535Y-105603000D03*
X211789535Y-24831000D03*
X203153535Y-83251000D03*
X233074735Y-61610200D03*
X187913535Y-79949000D03*
X251819935Y-56123800D03*
X217479135Y-25491400D03*
X201934335Y-32806600D03*
X236071935Y-65877400D03*
X259033535Y-105603000D03*
X211332335Y-36413400D03*
X230585535Y-58613000D03*
X259033535Y-86045000D03*
X222203535Y-94427000D03*
X170387535Y-62169000D03*
X167847535Y-45405000D03*
X175975535Y-68773000D03*
X236021135Y-26863000D03*
X203661535Y-78933000D03*
X202137535Y-98745000D03*
X218901535Y-64455000D03*
X259033535Y-103825000D03*
X219663535Y-92141000D03*
X259033535Y-87823000D03*
X259033535Y-82489000D03*
X210011535Y-74615000D03*
X256747535Y-101539000D03*
X251413535Y-118811000D03*
X232211135Y-37175400D03*
X222813135Y-26202600D03*
X259033535Y-100269000D03*
X235767135Y-49113400D03*
X198835535Y-20970200D03*
X168609535Y-49469000D03*
X259033535Y-107381000D03*
X259033535Y-110937000D03*
X215599535Y-107381000D03*
X228299535Y-54041000D03*
X206709535Y-87315000D03*
X181055535Y-58867000D03*
X182985935Y-21122600D03*
X228045535Y-112715000D03*
X161548335Y-24780200D03*
X230077535Y-91633000D03*
X162005535Y-35499000D03*
X232363535Y-23002200D03*
X194517535Y-65471000D03*
X224489535Y-81473000D03*
X187659535Y-61407000D03*
X207217535Y-100269000D03*
X217885535Y-83505000D03*
X209655935Y-53126600D03*
X190199535Y-38242200D03*
X207725535Y-92649000D03*
X256747535Y-96205000D03*
X206252335Y-32806600D03*
X242218735Y-57089000D03*
X248111535Y-77155000D03*
X249889535Y-63439000D03*
X208690735Y-62677000D03*
X193704735Y-20817800D03*
X189691535Y-42611000D03*
X246079535Y-93157000D03*
X256747535Y-48554600D03*
X197057535Y-79949000D03*
X236427535Y-60899000D03*
X259033535Y-78933000D03*
X238459535Y-58105000D03*
X256747535Y-97983000D03*
X219053935Y-61051400D03*
X252175535Y-36210200D03*
X259033535Y-98491000D03*
X228299535Y-26659800D03*
X216107535Y-46522600D03*
X256747535Y-103317000D03*
X168101535Y-33213000D03*
X175975535Y-20970200D03*
X213059535Y-96205000D03*
X250397535Y-79949000D03*
X173943535Y-50739000D03*
X236529135Y-53787000D03*
X197971935Y-40375800D03*
X184103535Y-39817000D03*
X206963535Y-49215000D03*
X219511135Y-70703400D03*
X246079535Y-89601000D03*
X179785535Y-71109800D03*
X250143535Y-107127000D03*
X223473535Y-52263000D03*
X257923535Y-22465000D03*
X236173535Y-98491000D03*
X246587535Y-115001000D03*
X234141535Y-56581000D03*
X226318335Y-22545000D03*
X210316335Y-71363800D03*
X246079535Y-82235000D03*
X252048535Y-114213600D03*
X255579135Y-113985000D03*
D19*
X253267735Y-113527800D02*
X252944135Y-113851400D01*
X252944135Y-113851400D02*
X252944135Y-114874000D01*
X254768954Y-113502400D02*
X254444135Y-113827219D01*
X254444135Y-113827219D02*
X254444135Y-114874000D01*
X256290335Y-72075000D02*
X257357135Y-71008200D01*
X256290335Y-72075000D02*
X255172735Y-70957400D01*
D20*
X257160335Y-69135000D02*
X255788735Y-69135000D01*
X255788735Y-69135000D02*
X255223535Y-68569800D01*
D19*
X258169935Y-72075000D02*
X259185935Y-71059000D01*
D21*
X253944135Y-114874000D02*
X253944135Y-114280400D01*
D19*
X257357135Y-71008200D02*
X257357135Y-69331800D01*
X257357135Y-69331800D02*
X257160335Y-69135000D01*
X255172735Y-70957400D02*
X255172735Y-69789000D01*
X256290335Y-72075000D02*
X258169935Y-72075000D01*
D21*
X253944135Y-114280400D02*
X253801135Y-114137400D01*
D19*
X255223535Y-68569800D02*
X255223535Y-67401400D01*
X259185935Y-71059000D02*
X259185935Y-66283800D01*
D22*
X251794535Y-114213600D02*
X251159535Y-114848600D01*
X252048535Y-114213600D02*
X251794535Y-114213600D01*
X256341135Y-114747000D02*
X256747535Y-114747000D01*
X255579135Y-113985000D02*
X256341135Y-114747000D01*
G04 #@! TA.AperFunction,Conductor*
G36*
X174808244Y-26240352D02*
G01*
X175599306Y-26251654D01*
X175660555Y-26268849D01*
X175705216Y-26314153D01*
X175721535Y-26375641D01*
X175721535Y-26445981D01*
X175706922Y-26504380D01*
X175666528Y-26549015D01*
X175609874Y-26569366D01*
X175213530Y-26609000D01*
X173435534Y-26863000D01*
X169879535Y-28894999D01*
X169879535Y-30927000D01*
X172165534Y-33213000D01*
X240067997Y-61020675D01*
X252175535Y-65979000D01*
X254477804Y-66864488D01*
X255398048Y-67218428D01*
X255439712Y-67245002D01*
X255467688Y-67285737D01*
X255477535Y-67334163D01*
X255477535Y-67628585D01*
X255460922Y-67690585D01*
X255453969Y-67702626D01*
X255394826Y-67884652D01*
X255394825Y-67884654D01*
X255394826Y-67884654D01*
X255374820Y-68075000D01*
X255394826Y-68265346D01*
X255394827Y-68265349D01*
X255444197Y-68417298D01*
X255449045Y-68472971D01*
X255428955Y-68525120D01*
X255388008Y-68563151D01*
X255334519Y-68579340D01*
X175744244Y-73888665D01*
X175680178Y-73875669D01*
X175631623Y-73831897D01*
X175228983Y-73204293D01*
X175150370Y-73081757D01*
X175149087Y-73079713D01*
X174834106Y-72566926D01*
X174126482Y-71414917D01*
X174125281Y-71412918D01*
X173135484Y-69728455D01*
X173134289Y-69726376D01*
X172177634Y-68022813D01*
X172176531Y-68020802D01*
X171253411Y-66298837D01*
X171252285Y-66296686D01*
X171138688Y-66074443D01*
X170363052Y-64556975D01*
X170362035Y-64554935D01*
X169507036Y-62798152D01*
X169506002Y-62795972D01*
X168685606Y-61022888D01*
X168684608Y-61020675D01*
X167899081Y-59231870D01*
X167898126Y-59229638D01*
X167147736Y-57425708D01*
X167146826Y-57423457D01*
X166431926Y-55605263D01*
X166431060Y-55602995D01*
X166170176Y-54899341D01*
X165751872Y-53771095D01*
X165751104Y-53768960D01*
X165107893Y-51924063D01*
X165107119Y-51921771D01*
X164865642Y-51182926D01*
X164500146Y-50064624D01*
X164499456Y-50062437D01*
X163928955Y-48193756D01*
X163928308Y-48191560D01*
X163394525Y-46312148D01*
X163393884Y-46309806D01*
X163316307Y-46014808D01*
X162896976Y-44420221D01*
X162896417Y-44418005D01*
X162436604Y-42519083D01*
X162436060Y-42516734D01*
X162254052Y-41695075D01*
X162013535Y-40609281D01*
X162013037Y-40606921D01*
X161627930Y-38691524D01*
X161627475Y-38689140D01*
X161280593Y-36770188D01*
X161279893Y-36765884D01*
X160546101Y-31676746D01*
X160544833Y-31659199D01*
X160541513Y-28508999D01*
X164771468Y-28508999D01*
X164791382Y-28762032D01*
X164850632Y-29008831D01*
X164911883Y-29156702D01*
X164947763Y-29243323D01*
X165080380Y-29459734D01*
X165245219Y-29652735D01*
X165438220Y-29817574D01*
X165654631Y-29950191D01*
X165803926Y-30012031D01*
X165889122Y-30047321D01*
X165967091Y-30066039D01*
X166135923Y-30106572D01*
X166388954Y-30126486D01*
X166641985Y-30106572D01*
X166888785Y-30047321D01*
X167123277Y-29950191D01*
X167339688Y-29817574D01*
X167532689Y-29652735D01*
X167697528Y-29459734D01*
X167830145Y-29243323D01*
X167927275Y-29008831D01*
X167986526Y-28762031D01*
X168006440Y-28509000D01*
X167986526Y-28255969D01*
X167927275Y-28009169D01*
X167830145Y-27774677D01*
X167697528Y-27558266D01*
X167532689Y-27365265D01*
X167339688Y-27200426D01*
X167123277Y-27067809D01*
X167036656Y-27031929D01*
X166888785Y-26970678D01*
X166641986Y-26911428D01*
X166388954Y-26891514D01*
X166135921Y-26911428D01*
X165889122Y-26970678D01*
X165654629Y-27067810D01*
X165438221Y-27200425D01*
X165245219Y-27365265D01*
X165080379Y-27558267D01*
X164947764Y-27774675D01*
X164850632Y-28009168D01*
X164791382Y-28255967D01*
X164771468Y-28508999D01*
X160541513Y-28508999D01*
X160539595Y-26688997D01*
X160556306Y-26626700D01*
X160602050Y-26581222D01*
X160664443Y-26564873D01*
X161466974Y-26570388D01*
X161522340Y-26583863D01*
X161565836Y-26620679D01*
X161588272Y-26673062D01*
X161584910Y-26729948D01*
X161540859Y-26877091D01*
X161530602Y-27053168D01*
X161546074Y-27140907D01*
X161561231Y-27226866D01*
X161620930Y-27365265D01*
X161631090Y-27388818D01*
X161736415Y-27530294D01*
X161871524Y-27643665D01*
X161871525Y-27643665D01*
X161871527Y-27643667D01*
X162029143Y-27722824D01*
X162029144Y-27722824D01*
X162029146Y-27722825D01*
X162200764Y-27763500D01*
X162200766Y-27763500D01*
X162332892Y-27763500D01*
X162332895Y-27763500D01*
X162464138Y-27748160D01*
X162629878Y-27687836D01*
X162777239Y-27590915D01*
X162898276Y-27462623D01*
X162986464Y-27309876D01*
X163037049Y-27140909D01*
X163047305Y-26964831D01*
X163016677Y-26791134D01*
X163001015Y-26754826D01*
X162991366Y-26694696D01*
X163011509Y-26637220D01*
X163056588Y-26596268D01*
X163115721Y-26581719D01*
X167085535Y-26609000D01*
X169013279Y-26454780D01*
X169078628Y-26467480D01*
X169127992Y-26512149D01*
X169147140Y-26575910D01*
X169130553Y-26640384D01*
X169091444Y-26708123D01*
X169040859Y-26877092D01*
X169030602Y-27053168D01*
X169046074Y-27140907D01*
X169061231Y-27226866D01*
X169120930Y-27365265D01*
X169131090Y-27388818D01*
X169236415Y-27530294D01*
X169371524Y-27643665D01*
X169371525Y-27643665D01*
X169371527Y-27643667D01*
X169529143Y-27722824D01*
X169529144Y-27722824D01*
X169529146Y-27722825D01*
X169700764Y-27763500D01*
X169700766Y-27763500D01*
X169832892Y-27763500D01*
X169832895Y-27763500D01*
X169964138Y-27748160D01*
X170129878Y-27687836D01*
X170277239Y-27590915D01*
X170398276Y-27462623D01*
X170486464Y-27309876D01*
X170537049Y-27140909D01*
X170547305Y-26964831D01*
X170516677Y-26791134D01*
X170446818Y-26629182D01*
X170377539Y-26536124D01*
X170353715Y-26475348D01*
X170364060Y-26410893D01*
X170405707Y-26360624D01*
X170467112Y-26338473D01*
X172159727Y-26203064D01*
X172171365Y-26202683D01*
X174808244Y-26240352D01*
G37*
G04 #@! TD.AperFunction*
G04 #@! TA.AperFunction,Conductor*
G36*
X259405321Y-20317120D02*
G01*
X259450710Y-20362524D01*
X259467308Y-20424540D01*
X259463492Y-31602491D01*
X259451521Y-66656725D01*
X259434680Y-66719076D01*
X259388769Y-66764501D01*
X259326243Y-66780676D01*
X257160648Y-66758351D01*
X257099097Y-66741262D01*
X257054220Y-66695803D01*
X257037926Y-66634038D01*
X257054538Y-66572360D01*
X257126700Y-66447373D01*
X257185844Y-66265346D01*
X257205850Y-66075000D01*
X257185844Y-65884654D01*
X257126700Y-65702627D01*
X257126700Y-65702626D01*
X257031004Y-65536876D01*
X257011361Y-65515061D01*
X256902934Y-65394640D01*
X256843459Y-65351429D01*
X256748094Y-65282141D01*
X256632140Y-65230515D01*
X256573245Y-65204293D01*
X256573244Y-65204292D01*
X256573240Y-65204291D01*
X256386034Y-65164500D01*
X256386032Y-65164500D01*
X256194638Y-65164500D01*
X256194636Y-65164500D01*
X256007425Y-65204292D01*
X255832577Y-65282140D01*
X255677736Y-65394638D01*
X255549667Y-65536873D01*
X255453969Y-65702626D01*
X255394826Y-65884652D01*
X255374820Y-66074999D01*
X255394826Y-66265347D01*
X255453969Y-66447373D01*
X255486089Y-66503006D01*
X255502663Y-66561881D01*
X255489077Y-66621516D01*
X255448637Y-66667403D01*
X255391182Y-66688376D01*
X255330691Y-66679334D01*
X171802382Y-31602491D01*
X171750942Y-31562227D01*
X171727103Y-31501409D01*
X171737479Y-31436914D01*
X171779192Y-31386643D01*
X171840661Y-31364546D01*
X171941985Y-31356572D01*
X172188785Y-31297321D01*
X172423277Y-31200191D01*
X172639688Y-31067574D01*
X172832689Y-30902735D01*
X172997528Y-30709734D01*
X173130145Y-30493323D01*
X173227275Y-30258831D01*
X173286526Y-30012031D01*
X173306440Y-29759000D01*
X173286526Y-29505969D01*
X173227275Y-29259169D01*
X173220711Y-29243323D01*
X173201903Y-29197917D01*
X173130145Y-29024677D01*
X172997528Y-28808266D01*
X172832689Y-28615265D01*
X172639688Y-28450426D01*
X172423277Y-28317809D01*
X172336656Y-28281929D01*
X172188785Y-28220678D01*
X172124866Y-28205333D01*
X172072233Y-28178144D01*
X172038221Y-28129641D01*
X172030591Y-28070895D01*
X172051084Y-28015313D01*
X172095021Y-27975584D01*
X173672880Y-27125967D01*
X173708099Y-27113406D01*
X175255893Y-26813833D01*
X175272920Y-26811748D01*
X176229535Y-26761400D01*
X176229535Y-25948600D01*
X175266145Y-25948600D01*
X175262499Y-25948546D01*
X172582560Y-25869723D01*
X172522253Y-25852012D01*
X172478377Y-25807005D01*
X172462207Y-25746266D01*
X172477898Y-25685401D01*
X172521413Y-25640053D01*
X172639688Y-25567574D01*
X172832689Y-25402735D01*
X172997528Y-25209734D01*
X173130145Y-24993323D01*
X173227275Y-24758831D01*
X173286526Y-24512031D01*
X173295035Y-24403910D01*
X191465314Y-24403910D01*
X191495004Y-24673745D01*
X191499972Y-24692747D01*
X191563667Y-24936384D01*
X191587864Y-24993323D01*
X191669838Y-25186224D01*
X191801971Y-25402734D01*
X191811254Y-25417944D01*
X191984903Y-25626604D01*
X192187081Y-25807757D01*
X192413482Y-25957542D01*
X192454015Y-25976543D01*
X192659273Y-26072765D01*
X192659275Y-26072765D01*
X192659278Y-26072767D01*
X192919232Y-26150975D01*
X193187803Y-26190500D01*
X193391316Y-26190500D01*
X193391319Y-26190500D01*
X193594276Y-26175645D01*
X193705027Y-26150974D01*
X193859244Y-26116621D01*
X194112796Y-26019646D01*
X194349526Y-25886786D01*
X194564388Y-25720875D01*
X194590547Y-25693743D01*
X194695764Y-25584610D01*
X194752804Y-25525447D01*
X194910758Y-25304668D01*
X195034883Y-25063244D01*
X195122533Y-24806320D01*
X195147021Y-24673747D01*
X195171841Y-24539371D01*
X195176097Y-24422910D01*
X253575314Y-24422910D01*
X253605004Y-24692745D01*
X253634695Y-24806315D01*
X253673667Y-24955384D01*
X253689790Y-24993324D01*
X253779838Y-25205224D01*
X253909658Y-25417944D01*
X253921254Y-25436944D01*
X254094903Y-25645604D01*
X254297081Y-25826757D01*
X254523482Y-25976542D01*
X254615431Y-26019646D01*
X254769273Y-26091765D01*
X254769275Y-26091765D01*
X254769278Y-26091767D01*
X255029232Y-26169975D01*
X255297803Y-26209500D01*
X255501316Y-26209500D01*
X255501319Y-26209500D01*
X255704276Y-26194645D01*
X255815027Y-26169974D01*
X255969244Y-26135621D01*
X256222796Y-26038646D01*
X256459526Y-25905786D01*
X256674388Y-25739875D01*
X256862804Y-25544447D01*
X257020758Y-25323668D01*
X257030530Y-25304663D01*
X257144880Y-25082249D01*
X257144883Y-25082244D01*
X257232533Y-24825320D01*
X257236043Y-24806320D01*
X257281841Y-24558371D01*
X257291755Y-24287089D01*
X257262065Y-24017254D01*
X257257098Y-23998254D01*
X257193403Y-23754616D01*
X257087232Y-23504776D01*
X256945816Y-23273056D01*
X256772167Y-23064396D01*
X256569989Y-22883243D01*
X256343588Y-22733458D01*
X256303058Y-22714458D01*
X256097796Y-22618234D01*
X255992932Y-22586685D01*
X255837838Y-22540025D01*
X255569267Y-22500500D01*
X255365754Y-22500500D01*
X255365751Y-22500500D01*
X255162793Y-22515354D01*
X254897827Y-22574378D01*
X254644275Y-22671353D01*
X254407544Y-22804214D01*
X254192680Y-22970125D01*
X254004268Y-23165549D01*
X253846308Y-23386336D01*
X253722189Y-23627750D01*
X253634535Y-23884684D01*
X253585228Y-24151628D01*
X253575314Y-24422910D01*
X195176097Y-24422910D01*
X195181755Y-24268089D01*
X195154156Y-24017254D01*
X195152065Y-23998253D01*
X195083403Y-23735616D01*
X194977232Y-23485776D01*
X194835816Y-23254056D01*
X194662167Y-23045396D01*
X194459989Y-22864243D01*
X194233588Y-22714458D01*
X194233584Y-22714456D01*
X193987796Y-22599234D01*
X193882932Y-22567685D01*
X193727838Y-22521025D01*
X193459267Y-22481500D01*
X193255754Y-22481500D01*
X193255751Y-22481500D01*
X193052793Y-22496354D01*
X192787827Y-22555378D01*
X192534275Y-22652353D01*
X192297544Y-22785214D01*
X192082680Y-22951125D01*
X191894268Y-23146549D01*
X191736308Y-23367336D01*
X191612189Y-23608750D01*
X191524535Y-23865684D01*
X191475228Y-24132628D01*
X191465314Y-24403910D01*
X173295035Y-24403910D01*
X173306440Y-24259000D01*
X173286526Y-24005969D01*
X173227275Y-23759169D01*
X173130145Y-23524677D01*
X172997528Y-23308266D01*
X172832689Y-23115265D01*
X172639688Y-22950426D01*
X172423277Y-22817809D01*
X172336656Y-22781929D01*
X172188785Y-22720678D01*
X171941986Y-22661428D01*
X171688954Y-22641514D01*
X171435921Y-22661428D01*
X171189122Y-22720678D01*
X170954629Y-22817810D01*
X170738221Y-22950425D01*
X170545219Y-23115265D01*
X170380379Y-23308267D01*
X170247764Y-23524675D01*
X170150632Y-23759168D01*
X170091382Y-24005967D01*
X170071468Y-24258999D01*
X170091382Y-24512032D01*
X170150632Y-24758831D01*
X170211883Y-24906702D01*
X170247763Y-24993323D01*
X170380380Y-25209734D01*
X170545219Y-25402735D01*
X170738220Y-25567574D01*
X170761581Y-25581890D01*
X170766020Y-25584610D01*
X170810241Y-25631240D01*
X170825183Y-25693743D01*
X170806832Y-25755331D01*
X170760117Y-25799463D01*
X170697585Y-25814283D01*
X170082741Y-25796199D01*
X160660535Y-25656265D01*
X160599353Y-25639069D01*
X160554726Y-25593822D01*
X160538376Y-25532413D01*
X160532993Y-20424631D01*
X160549563Y-20362575D01*
X160594956Y-20317135D01*
X160656994Y-20300500D01*
X259343309Y-20300500D01*
X259405321Y-20317120D01*
G37*
G04 #@! TD.AperFunction*
G04 #@! TA.AperFunction,Conductor*
G36*
X255394059Y-69548515D02*
G01*
X255438082Y-69586115D01*
X255460237Y-69639602D01*
X255455695Y-69697318D01*
X255394826Y-69884652D01*
X255374820Y-70075000D01*
X255394826Y-70265347D01*
X255453968Y-70447370D01*
X255453970Y-70447373D01*
X255477798Y-70488644D01*
X255494342Y-70554775D01*
X255481531Y-70939131D01*
X255463584Y-70999370D01*
X255418404Y-71043069D01*
X255357600Y-71059000D01*
X252683535Y-71059000D01*
X244301534Y-79186999D01*
X244371506Y-118525044D01*
X244360167Y-118577068D01*
X244328055Y-118619541D01*
X244281091Y-118644630D01*
X244227935Y-118647711D01*
X243034838Y-118457016D01*
X243032445Y-118456609D01*
X241109670Y-118110556D01*
X241107285Y-118110103D01*
X239191596Y-117726462D01*
X239189220Y-117725962D01*
X237281387Y-117304884D01*
X237279022Y-117304337D01*
X235379908Y-116846015D01*
X235377553Y-116845423D01*
X233487644Y-116349974D01*
X233485302Y-116349335D01*
X231605548Y-115817008D01*
X231603219Y-115816324D01*
X229734201Y-115247284D01*
X229731885Y-115246554D01*
X227874369Y-114641032D01*
X227872069Y-114640257D01*
X226026776Y-113998491D01*
X226024491Y-113997671D01*
X224192148Y-113319912D01*
X224189879Y-113319048D01*
X222371078Y-112605515D01*
X222368827Y-112604606D01*
X220564386Y-111855621D01*
X220562153Y-111854668D01*
X219510728Y-111393910D01*
X234895314Y-111393910D01*
X234925004Y-111663745D01*
X234925005Y-111663747D01*
X234993667Y-111926384D01*
X235099838Y-112176224D01*
X235241254Y-112407944D01*
X235414903Y-112616604D01*
X235617081Y-112797757D01*
X235843482Y-112947542D01*
X235938106Y-112991900D01*
X236089273Y-113062765D01*
X236089275Y-113062765D01*
X236089278Y-113062767D01*
X236349232Y-113140975D01*
X236617803Y-113180500D01*
X236821316Y-113180500D01*
X236821319Y-113180500D01*
X237024276Y-113165645D01*
X237148279Y-113138022D01*
X237289244Y-113106621D01*
X237542796Y-113009646D01*
X237779526Y-112876786D01*
X237994388Y-112710875D01*
X238182804Y-112515447D01*
X238340758Y-112294668D01*
X238464883Y-112053244D01*
X238552533Y-111796320D01*
X238577021Y-111663747D01*
X238601841Y-111529371D01*
X238611755Y-111258089D01*
X238582065Y-110988254D01*
X238582065Y-110988253D01*
X238513403Y-110725616D01*
X238407232Y-110475776D01*
X238265816Y-110244056D01*
X238092167Y-110035396D01*
X237889989Y-109854243D01*
X237663588Y-109704458D01*
X237663584Y-109704456D01*
X237417796Y-109589234D01*
X237312932Y-109557685D01*
X237157838Y-109511025D01*
X236889267Y-109471500D01*
X236685754Y-109471500D01*
X236685751Y-109471500D01*
X236482793Y-109486354D01*
X236217827Y-109545378D01*
X235964275Y-109642353D01*
X235727544Y-109775214D01*
X235512680Y-109941125D01*
X235324268Y-110136549D01*
X235166308Y-110357336D01*
X235042189Y-110598750D01*
X234954535Y-110855684D01*
X234905228Y-111122628D01*
X234895314Y-111393910D01*
X219510728Y-111393910D01*
X218772747Y-111070510D01*
X218770533Y-111069514D01*
X216996802Y-110250465D01*
X216994608Y-110249426D01*
X215545171Y-109545378D01*
X215237225Y-109395796D01*
X215235104Y-109394741D01*
X213494712Y-108506838D01*
X213492561Y-108505713D01*
X211770031Y-107583987D01*
X211767901Y-107582821D01*
X210063644Y-106627490D01*
X210061538Y-106626282D01*
X208694136Y-105824198D01*
X218169867Y-105824198D01*
X218204183Y-105907043D01*
X218337826Y-106125129D01*
X218503943Y-106319627D01*
X218698441Y-106485744D01*
X218916527Y-106619387D01*
X219152839Y-106717272D01*
X219401551Y-106776982D01*
X219656544Y-106797050D01*
X219830813Y-106783334D01*
X219479767Y-105473212D01*
X218169867Y-105824198D01*
X208694136Y-105824198D01*
X208376363Y-105637800D01*
X208374307Y-105636568D01*
X207896867Y-105343802D01*
X219962731Y-105343802D01*
X220313716Y-106653702D01*
X220396563Y-106619387D01*
X220614648Y-106485744D01*
X220809146Y-106319627D01*
X220975263Y-106125129D01*
X221108906Y-105907043D01*
X221206791Y-105670731D01*
X221266501Y-105422019D01*
X221286569Y-105167026D01*
X221272853Y-104992756D01*
X219962731Y-105343802D01*
X207896867Y-105343802D01*
X207608581Y-105167025D01*
X218026520Y-105167025D01*
X218040235Y-105341294D01*
X219350357Y-104990248D01*
X218999371Y-103680348D01*
X218916525Y-103714665D01*
X218698441Y-103848307D01*
X218503943Y-104014424D01*
X218337826Y-104208922D01*
X218204183Y-104427008D01*
X218106298Y-104663320D01*
X218046588Y-104912032D01*
X218026520Y-105167025D01*
X207608581Y-105167025D01*
X206708751Y-104615249D01*
X206706696Y-104613960D01*
X205061500Y-103560258D01*
X205059469Y-103558929D01*
X205047182Y-103550716D01*
X219482275Y-103550716D01*
X219833321Y-104860838D01*
X221143221Y-104509853D01*
X221108905Y-104427005D01*
X220975263Y-104208922D01*
X220809146Y-104014424D01*
X220614648Y-103848307D01*
X220396562Y-103714664D01*
X220160250Y-103616779D01*
X219911538Y-103557069D01*
X219656545Y-103537001D01*
X219482275Y-103550716D01*
X205047182Y-103550716D01*
X203435204Y-102473211D01*
X203433199Y-102471842D01*
X201830513Y-101354543D01*
X201828535Y-101353135D01*
X200248040Y-100204678D01*
X200246090Y-100203232D01*
X198688357Y-99024035D01*
X198686436Y-99022551D01*
X197152059Y-97813061D01*
X197150226Y-97811586D01*
X196860908Y-97574198D01*
X203880448Y-97574198D01*
X203914764Y-97657043D01*
X204048407Y-97875129D01*
X204214524Y-98069627D01*
X204409022Y-98235744D01*
X204627108Y-98369387D01*
X204863420Y-98467272D01*
X205112132Y-98526982D01*
X205367125Y-98547050D01*
X205541394Y-98533334D01*
X205190348Y-97223212D01*
X203880448Y-97574198D01*
X196860908Y-97574198D01*
X196275422Y-97093802D01*
X205673312Y-97093802D01*
X206024297Y-98403702D01*
X206107144Y-98369387D01*
X206325229Y-98235744D01*
X206519727Y-98069627D01*
X206685844Y-97875129D01*
X206819487Y-97657043D01*
X206917372Y-97420731D01*
X206977082Y-97172019D01*
X206997150Y-96917026D01*
X206983434Y-96742756D01*
X205673312Y-97093802D01*
X196275422Y-97093802D01*
X196059974Y-96917025D01*
X203737101Y-96917025D01*
X203750816Y-97091294D01*
X205060938Y-96740248D01*
X204709952Y-95430348D01*
X204627106Y-95464665D01*
X204409022Y-95598307D01*
X204214524Y-95764424D01*
X204048407Y-95958922D01*
X203914764Y-96177008D01*
X203816879Y-96413320D01*
X203757169Y-96662032D01*
X203737101Y-96917025D01*
X196059974Y-96917025D01*
X195639843Y-96572304D01*
X195637996Y-96570759D01*
X195438953Y-96400815D01*
X194302318Y-95430348D01*
X194152158Y-95302140D01*
X194150523Y-95300716D01*
X205192856Y-95300716D01*
X205543902Y-96610838D01*
X206853802Y-96259853D01*
X206819486Y-96177005D01*
X206685844Y-95958922D01*
X206519727Y-95764424D01*
X206325229Y-95598307D01*
X206107143Y-95464664D01*
X205870831Y-95366779D01*
X205622119Y-95307069D01*
X205367126Y-95287001D01*
X205192856Y-95300716D01*
X194150523Y-95300716D01*
X194150328Y-95300546D01*
X193384058Y-94619916D01*
X192875846Y-94168502D01*
X224616296Y-94168502D01*
X224635257Y-94397325D01*
X224635257Y-94397328D01*
X224635258Y-94397330D01*
X224691624Y-94619916D01*
X224783858Y-94830188D01*
X224909444Y-95022411D01*
X225064956Y-95191342D01*
X225246151Y-95332372D01*
X225448089Y-95441655D01*
X225552140Y-95477376D01*
X225665255Y-95516209D01*
X225665257Y-95516209D01*
X225665259Y-95516210D01*
X225891739Y-95554003D01*
X226121350Y-95554003D01*
X226121351Y-95554003D01*
X226347831Y-95516210D01*
X226565001Y-95441655D01*
X226766939Y-95332372D01*
X226948134Y-95191342D01*
X227103646Y-95022411D01*
X227229232Y-94830188D01*
X227321466Y-94619916D01*
X227377832Y-94397330D01*
X227396793Y-94168503D01*
X227377832Y-93939676D01*
X227321466Y-93717090D01*
X227229232Y-93506818D01*
X227103646Y-93314595D01*
X226948134Y-93145664D01*
X226766939Y-93004634D01*
X226565001Y-92895351D01*
X226565000Y-92895350D01*
X226564999Y-92895350D01*
X226347834Y-92820796D01*
X226177970Y-92792451D01*
X226121351Y-92783003D01*
X225891739Y-92783003D01*
X225846443Y-92790561D01*
X225665255Y-92820796D01*
X225448090Y-92895350D01*
X225337165Y-92955379D01*
X225246151Y-93004634D01*
X225246149Y-93004635D01*
X225246148Y-93004636D01*
X225064959Y-93145661D01*
X224909445Y-93314594D01*
X224783857Y-93506820D01*
X224691625Y-93717088D01*
X224635257Y-93939680D01*
X224616296Y-94168502D01*
X192875846Y-94168502D01*
X192689639Y-94003106D01*
X192687861Y-94001496D01*
X192620948Y-93939676D01*
X191761526Y-93145664D01*
X191252829Y-92675684D01*
X191251062Y-92674019D01*
X189842287Y-91320393D01*
X189840553Y-91318694D01*
X188458491Y-89937688D01*
X188456856Y-89936022D01*
X187102119Y-88528247D01*
X187100453Y-88526481D01*
X185773593Y-87092516D01*
X185771961Y-87090718D01*
X184729149Y-85918502D01*
X210326877Y-85918502D01*
X210345838Y-86147325D01*
X210345838Y-86147328D01*
X210345839Y-86147330D01*
X210402205Y-86369916D01*
X210494439Y-86580188D01*
X210620025Y-86772411D01*
X210775537Y-86941342D01*
X210956732Y-87082372D01*
X211158670Y-87191655D01*
X211262721Y-87227376D01*
X211375836Y-87266209D01*
X211375838Y-87266209D01*
X211375840Y-87266210D01*
X211602320Y-87304003D01*
X211831931Y-87304003D01*
X211831932Y-87304003D01*
X212058412Y-87266210D01*
X212275582Y-87191655D01*
X212477520Y-87082372D01*
X212658715Y-86941342D01*
X212814227Y-86772411D01*
X212939813Y-86580188D01*
X213032047Y-86369916D01*
X213088413Y-86147330D01*
X213107374Y-85918503D01*
X213088413Y-85689676D01*
X213032047Y-85467090D01*
X212939813Y-85256818D01*
X212814227Y-85064595D01*
X212658715Y-84895664D01*
X212477520Y-84754634D01*
X212275582Y-84645351D01*
X212275581Y-84645350D01*
X212275580Y-84645350D01*
X212058415Y-84570796D01*
X211888551Y-84542451D01*
X211831932Y-84533003D01*
X211602320Y-84533003D01*
X211557023Y-84540561D01*
X211375836Y-84570796D01*
X211158671Y-84645350D01*
X211047746Y-84705379D01*
X210956732Y-84754634D01*
X210956730Y-84754635D01*
X210956729Y-84754636D01*
X210775540Y-84895661D01*
X210775537Y-84895663D01*
X210775537Y-84895664D01*
X210620025Y-85064595D01*
X210539699Y-85187543D01*
X210494438Y-85256820D01*
X210402206Y-85467088D01*
X210345838Y-85689680D01*
X210326877Y-85918502D01*
X184729149Y-85918502D01*
X184473377Y-85630991D01*
X184471782Y-85629162D01*
X183202052Y-84144324D01*
X183200492Y-84142463D01*
X182782569Y-83633911D01*
X182782568Y-83633910D01*
X188865314Y-83633910D01*
X188895004Y-83903745D01*
X188963667Y-84166383D01*
X189069838Y-84416224D01*
X189209671Y-84645351D01*
X189211254Y-84647944D01*
X189384903Y-84856604D01*
X189587081Y-85037757D01*
X189813482Y-85187542D01*
X189945961Y-85249646D01*
X190059273Y-85302765D01*
X190059275Y-85302765D01*
X190059278Y-85302767D01*
X190319232Y-85380975D01*
X190587803Y-85420500D01*
X190791316Y-85420500D01*
X190791319Y-85420500D01*
X190994276Y-85405645D01*
X191105027Y-85380974D01*
X191259244Y-85346621D01*
X191512796Y-85249646D01*
X191749526Y-85116786D01*
X191964388Y-84950875D01*
X192152804Y-84755447D01*
X192310758Y-84534668D01*
X192434883Y-84293244D01*
X192522533Y-84036320D01*
X192547021Y-83903747D01*
X192571841Y-83769371D01*
X192581755Y-83498089D01*
X192552065Y-83228254D01*
X192552065Y-83228253D01*
X192483403Y-82965616D01*
X192377232Y-82715776D01*
X192235816Y-82484056D01*
X192062167Y-82275396D01*
X191859989Y-82094243D01*
X191633588Y-81944458D01*
X191633584Y-81944456D01*
X191387796Y-81829234D01*
X191282932Y-81797685D01*
X191127838Y-81751025D01*
X190859267Y-81711500D01*
X190655754Y-81711500D01*
X190655751Y-81711500D01*
X190452793Y-81726354D01*
X190187827Y-81785378D01*
X189934275Y-81882353D01*
X189697544Y-82015214D01*
X189482680Y-82181125D01*
X189294268Y-82376549D01*
X189136308Y-82597336D01*
X189012189Y-82838750D01*
X188924535Y-83095684D01*
X188875228Y-83362628D01*
X188865314Y-83633910D01*
X182782568Y-83633910D01*
X181960046Y-82633017D01*
X181958604Y-82631227D01*
X180747910Y-81097737D01*
X180746424Y-81095816D01*
X179566074Y-79539035D01*
X179564627Y-79537087D01*
X178414919Y-77957413D01*
X178413509Y-77955436D01*
X178364083Y-77884654D01*
X177294983Y-76353605D01*
X177293613Y-76351601D01*
X176977595Y-75879611D01*
X176438796Y-75074885D01*
X176418117Y-75014277D01*
X176430436Y-74951433D01*
X176472468Y-74903116D01*
X176532998Y-74882215D01*
X251409123Y-69535315D01*
X251417956Y-69535000D01*
X255337764Y-69535000D01*
X255394059Y-69548515D01*
G37*
G04 #@! TD.AperFunction*
G04 #@! TA.AperFunction,Conductor*
G36*
X252756237Y-72353234D02*
G01*
X254969535Y-73091000D01*
X255711433Y-73091000D01*
X255776719Y-73109578D01*
X255778119Y-73110445D01*
X255820032Y-73153543D01*
X255836748Y-73211290D01*
X255824338Y-73270112D01*
X255785719Y-73316185D01*
X255677735Y-73394640D01*
X255549667Y-73536873D01*
X255453969Y-73702626D01*
X255394826Y-73884652D01*
X255374820Y-74074999D01*
X255394826Y-74265347D01*
X255453969Y-74447373D01*
X255549665Y-74613123D01*
X255549668Y-74613126D01*
X255677736Y-74755360D01*
X255785720Y-74833815D01*
X255824339Y-74879889D01*
X255836748Y-74938715D01*
X255820028Y-74996463D01*
X255778110Y-75039559D01*
X255673327Y-75104437D01*
X255673326Y-75104438D01*
X256290335Y-75721446D01*
X256290336Y-75721446D01*
X256907342Y-75104438D01*
X256907341Y-75104437D01*
X256802559Y-75039559D01*
X256760641Y-74996463D01*
X256743921Y-74938714D01*
X256756330Y-74879889D01*
X256794949Y-74833815D01*
X256902934Y-74755360D01*
X257031002Y-74613126D01*
X257126700Y-74447373D01*
X257185844Y-74265346D01*
X257205850Y-74075000D01*
X257185844Y-73884654D01*
X257126700Y-73702627D01*
X257126700Y-73702626D01*
X257031004Y-73536876D01*
X257011361Y-73515061D01*
X256902934Y-73394640D01*
X256794949Y-73316184D01*
X256756326Y-73270103D01*
X256743921Y-73211270D01*
X256760652Y-73153517D01*
X256802584Y-73110424D01*
X256803985Y-73109557D01*
X256869237Y-73091000D01*
X259325283Y-73091000D01*
X259387295Y-73107620D01*
X259432684Y-73153024D01*
X259449282Y-73215040D01*
X259443189Y-91060141D01*
X259436030Y-112024110D01*
X259422105Y-112081159D01*
X259383493Y-112125404D01*
X259366351Y-112132154D01*
X258692507Y-112806000D01*
X259397540Y-113511034D01*
X259396192Y-113512381D01*
X259420861Y-113539604D01*
X259435492Y-113598080D01*
X259434593Y-116232689D01*
X259422079Y-116286931D01*
X259387097Y-116330233D01*
X259336697Y-116353868D01*
X259324806Y-116353698D01*
X258692507Y-116986000D01*
X259323350Y-117616844D01*
X259331576Y-117616362D01*
X259384119Y-117639015D01*
X259420897Y-117682848D01*
X259434079Y-117738526D01*
X259433599Y-119143540D01*
X259416972Y-119205522D01*
X259371587Y-119250892D01*
X259309599Y-119267498D01*
X248837191Y-119267498D01*
X248822429Y-119266616D01*
X246903818Y-119036568D01*
X246901410Y-119036256D01*
X245932365Y-118900772D01*
X245877870Y-118879160D01*
X245839393Y-118834929D01*
X245825535Y-118777966D01*
X245825535Y-118070162D01*
X248968343Y-118070162D01*
X249006434Y-118114531D01*
X249167261Y-118239021D01*
X249349854Y-118328586D01*
X249546746Y-118379565D01*
X249749865Y-118389867D01*
X249950899Y-118359069D01*
X250141618Y-118288435D01*
X250314214Y-118180856D01*
X250430098Y-118070697D01*
X250429563Y-118070162D01*
X257608343Y-118070162D01*
X257646434Y-118114531D01*
X257807261Y-118239021D01*
X257989854Y-118328586D01*
X258186746Y-118379565D01*
X258389865Y-118389867D01*
X258590899Y-118359069D01*
X258781618Y-118288435D01*
X258954214Y-118180856D01*
X259070098Y-118070697D01*
X258338954Y-117339553D01*
X257608343Y-118070162D01*
X250429563Y-118070162D01*
X249698954Y-117339553D01*
X248968343Y-118070162D01*
X245825535Y-118070162D01*
X245825535Y-117436710D01*
X248698954Y-117436710D01*
X248714373Y-117588338D01*
X248721224Y-117610175D01*
X248721224Y-117610176D01*
X249345401Y-116986001D01*
X249345401Y-116985999D01*
X248723630Y-116364229D01*
X248698954Y-116484310D01*
X248698954Y-117436710D01*
X245825535Y-117436710D01*
X245825535Y-115901300D01*
X248967807Y-115901300D01*
X250674276Y-117607769D01*
X250698954Y-117487689D01*
X250698954Y-116954556D01*
X250712031Y-116899130D01*
X250748502Y-116855395D01*
X250800677Y-116832574D01*
X250857550Y-116835480D01*
X250901256Y-116848178D01*
X250909535Y-116848830D01*
X250909535Y-116233600D01*
X251409535Y-116233600D01*
X251409535Y-116848830D01*
X251417814Y-116848178D01*
X251576733Y-116802007D01*
X251719180Y-116717764D01*
X251836199Y-116600745D01*
X251920442Y-116458298D01*
X251966612Y-116299382D01*
X251969535Y-116262248D01*
X251969535Y-116233600D01*
X251409535Y-116233600D01*
X250909535Y-116233600D01*
X250909535Y-115857600D01*
X250926148Y-115795600D01*
X250971535Y-115750213D01*
X251033535Y-115733600D01*
X251969535Y-115733600D01*
X251969535Y-115704952D01*
X251966612Y-115667817D01*
X251920442Y-115508901D01*
X251836199Y-115366454D01*
X251751947Y-115282202D01*
X251721697Y-115232839D01*
X251717155Y-115175123D01*
X251730035Y-115093802D01*
X251730035Y-114817777D01*
X251743151Y-114762273D01*
X251779724Y-114718510D01*
X251832018Y-114695747D01*
X251888969Y-114698800D01*
X251975135Y-114724100D01*
X251975136Y-114724100D01*
X252121934Y-114724100D01*
X252262785Y-114682743D01*
X252276475Y-114673944D01*
X252292596Y-114663585D01*
X252355209Y-114643979D01*
X252419062Y-114659068D01*
X252466277Y-114704627D01*
X252483635Y-114767900D01*
X252483635Y-114908513D01*
X252499123Y-115011269D01*
X252546355Y-115109347D01*
X252558635Y-115163148D01*
X252558635Y-115262154D01*
X252562623Y-115282202D01*
X252573584Y-115337310D01*
X252573584Y-115385690D01*
X252562862Y-115439590D01*
X252558636Y-115460844D01*
X252558635Y-115460847D01*
X252558635Y-116287155D01*
X252573749Y-116363140D01*
X252573749Y-116363141D01*
X252573750Y-116363142D01*
X252631325Y-116449310D01*
X252717493Y-116506885D01*
X252755487Y-116514442D01*
X252793480Y-116522000D01*
X252793481Y-116522000D01*
X253094789Y-116522000D01*
X253094791Y-116522000D01*
X253169944Y-116507051D01*
X253218326Y-116507051D01*
X253293479Y-116522000D01*
X253327495Y-116522000D01*
X253382999Y-116535116D01*
X253426762Y-116571689D01*
X253461945Y-116618688D01*
X253577045Y-116704852D01*
X253711759Y-116755097D01*
X253771311Y-116761500D01*
X253819135Y-116761500D01*
X253819135Y-116352152D01*
X253821518Y-116327959D01*
X253822518Y-116322932D01*
X253853080Y-116262953D01*
X253910477Y-116227780D01*
X253977793Y-116227780D01*
X254035190Y-116262953D01*
X254065752Y-116322932D01*
X254066752Y-116327959D01*
X254069135Y-116352152D01*
X254069135Y-116761500D01*
X254116959Y-116761500D01*
X254176510Y-116755097D01*
X254311224Y-116704852D01*
X254426324Y-116618688D01*
X254461508Y-116571689D01*
X254505271Y-116535116D01*
X254560775Y-116522000D01*
X254594791Y-116522000D01*
X254669944Y-116507051D01*
X254718326Y-116507051D01*
X254793479Y-116522000D01*
X254793481Y-116522000D01*
X255094789Y-116522000D01*
X255094790Y-116522000D01*
X255120118Y-116516961D01*
X255170777Y-116506885D01*
X255256945Y-116449310D01*
X255314520Y-116363142D01*
X255329635Y-116287154D01*
X255329635Y-116132000D01*
X255937535Y-116132000D01*
X255937535Y-116160648D01*
X255940457Y-116197782D01*
X255986627Y-116356698D01*
X256070870Y-116499145D01*
X256187889Y-116616164D01*
X256330336Y-116700407D01*
X256489255Y-116746578D01*
X256497535Y-116747230D01*
X256497535Y-116132000D01*
X255937535Y-116132000D01*
X255329635Y-116132000D01*
X255329635Y-115460846D01*
X255318984Y-115407301D01*
X255314686Y-115385691D01*
X255314686Y-115337309D01*
X255329635Y-115262156D01*
X255329635Y-114609437D01*
X255342751Y-114553933D01*
X255379324Y-114510170D01*
X255431617Y-114487407D01*
X255488567Y-114490458D01*
X255505736Y-114495500D01*
X255577947Y-114495500D01*
X255625400Y-114504939D01*
X255665628Y-114531819D01*
X256097085Y-114963276D01*
X256104393Y-114971250D01*
X256121972Y-114992200D01*
X256141091Y-115014984D01*
X256160972Y-115033606D01*
X256180807Y-115086311D01*
X256175287Y-115142353D01*
X256145550Y-115190175D01*
X256070869Y-115264856D01*
X255986627Y-115407301D01*
X255940457Y-115566217D01*
X255937535Y-115603352D01*
X255937535Y-115632000D01*
X256873535Y-115632000D01*
X256935535Y-115648613D01*
X256980922Y-115694000D01*
X256997535Y-115756000D01*
X256997535Y-116747230D01*
X257005814Y-116746578D01*
X257179777Y-116696037D01*
X257180915Y-116699956D01*
X257214003Y-116690773D01*
X257276404Y-116707066D01*
X257322182Y-116752495D01*
X257338954Y-116814769D01*
X257338954Y-117436710D01*
X257354373Y-117588338D01*
X257361224Y-117610175D01*
X257361224Y-117610176D01*
X258338954Y-116632447D01*
X259069562Y-115901837D01*
X259031470Y-115857466D01*
X258870646Y-115732978D01*
X258688053Y-115643413D01*
X258491161Y-115592434D01*
X258288042Y-115582132D01*
X258087008Y-115612930D01*
X257896289Y-115683564D01*
X257747126Y-115776538D01*
X257684676Y-115795266D01*
X257621357Y-115779725D01*
X257574675Y-115734211D01*
X257557535Y-115671306D01*
X257557535Y-115603352D01*
X257554612Y-115566217D01*
X257508442Y-115407301D01*
X257424199Y-115264854D01*
X257339947Y-115180602D01*
X257309697Y-115131239D01*
X257305155Y-115073523D01*
X257318035Y-114992202D01*
X257318035Y-114501798D01*
X257302625Y-114404503D01*
X257261448Y-114323690D01*
X257242871Y-114287231D01*
X257149804Y-114194164D01*
X257130408Y-114184281D01*
X257032531Y-114134409D01*
X256980158Y-114126114D01*
X256917068Y-114096223D01*
X256880125Y-114036986D01*
X256881039Y-113967179D01*
X256886145Y-113959450D01*
X257539055Y-113959450D01*
X257646433Y-114084531D01*
X257807261Y-114209021D01*
X257989854Y-114298586D01*
X258186746Y-114349565D01*
X258389865Y-114359867D01*
X258590899Y-114329069D01*
X258781618Y-114258435D01*
X258954217Y-114150854D01*
X259101624Y-114010732D01*
X259137947Y-113958545D01*
X259137946Y-113958544D01*
X258338954Y-113159553D01*
X257539055Y-113959449D01*
X257539055Y-113959450D01*
X256886145Y-113959450D01*
X256919521Y-113908930D01*
X256983370Y-113880703D01*
X257060234Y-113870584D01*
X257201204Y-113812192D01*
X257322258Y-113719304D01*
X257415146Y-113598250D01*
X257473538Y-113457280D01*
X257489181Y-113338455D01*
X257500908Y-113299797D01*
X257524439Y-113266959D01*
X257985401Y-112806000D01*
X257338954Y-112159552D01*
X257338954Y-112671287D01*
X257324312Y-112729740D01*
X257283845Y-112774389D01*
X257227108Y-112794690D01*
X257167502Y-112785848D01*
X257060234Y-112741416D01*
X256971545Y-112729740D01*
X256946935Y-112726500D01*
X256946934Y-112726500D01*
X256870974Y-112726500D01*
X256870973Y-112726500D01*
X256757673Y-112741416D01*
X256616704Y-112799807D01*
X256495649Y-112892695D01*
X256402761Y-113013750D01*
X256344370Y-113154719D01*
X256324453Y-113305999D01*
X256344370Y-113457280D01*
X256402761Y-113598249D01*
X256495649Y-113719304D01*
X256577345Y-113781991D01*
X256616704Y-113812192D01*
X256757674Y-113870584D01*
X256768895Y-113872061D01*
X256826032Y-113895001D01*
X256865091Y-113942596D01*
X256876443Y-114003110D01*
X256857289Y-114061625D01*
X256812352Y-114103714D01*
X256752709Y-114119000D01*
X256559833Y-114119000D01*
X256462537Y-114134409D01*
X256361515Y-114185883D01*
X256311710Y-114199228D01*
X256260783Y-114191162D01*
X256217540Y-114163079D01*
X256131808Y-114077347D01*
X256101834Y-114028824D01*
X256099465Y-114002352D01*
X256097422Y-114002646D01*
X256073994Y-113839695D01*
X256013667Y-113707599D01*
X256013012Y-113706164D01*
X256013011Y-113706163D01*
X256013011Y-113706162D01*
X255919502Y-113598249D01*
X255916879Y-113595222D01*
X255916878Y-113595221D01*
X255793386Y-113515857D01*
X255652534Y-113474500D01*
X255505736Y-113474500D01*
X255505735Y-113474500D01*
X255427115Y-113497584D01*
X255357245Y-113497584D01*
X255298467Y-113459809D01*
X255269443Y-113396253D01*
X255263813Y-113357095D01*
X255202830Y-113223562D01*
X255106697Y-113112621D01*
X254983205Y-113033257D01*
X254842353Y-112991900D01*
X254695555Y-112991900D01*
X254554702Y-113033257D01*
X254431211Y-113112620D01*
X254335076Y-113223564D01*
X254292702Y-113316349D01*
X254267589Y-113352518D01*
X254141730Y-113478377D01*
X254131364Y-113487641D01*
X254102750Y-113510460D01*
X254069798Y-113558793D01*
X254067115Y-113562575D01*
X254028921Y-113614325D01*
X254026277Y-113619563D01*
X254013231Y-113661855D01*
X253981421Y-113713974D01*
X253972514Y-113719136D01*
X253983635Y-113759111D01*
X253983635Y-113816296D01*
X253983548Y-113820932D01*
X253980884Y-113892136D01*
X253962779Y-113952158D01*
X253917628Y-113995652D01*
X253856971Y-114011500D01*
X253795618Y-114011500D01*
X253740906Y-113998777D01*
X253697422Y-113963220D01*
X253674087Y-113912124D01*
X253675692Y-113855975D01*
X253700872Y-113808255D01*
X253701610Y-113806637D01*
X253701612Y-113806636D01*
X253742417Y-113717286D01*
X253746841Y-113707599D01*
X253779091Y-113669287D01*
X253778461Y-113668373D01*
X253772003Y-113607658D01*
X253783485Y-113527800D01*
X253762594Y-113382496D01*
X253760502Y-113377916D01*
X253701611Y-113248962D01*
X253605478Y-113138021D01*
X253481986Y-113058657D01*
X253341134Y-113017300D01*
X253194336Y-113017300D01*
X253053483Y-113058657D01*
X252929991Y-113138021D01*
X252833858Y-113248963D01*
X252791485Y-113341746D01*
X252766372Y-113377916D01*
X252641726Y-113502561D01*
X252631362Y-113511823D01*
X252602750Y-113534642D01*
X252569798Y-113582974D01*
X252567115Y-113586756D01*
X252528921Y-113638506D01*
X252526276Y-113643745D01*
X252507315Y-113705214D01*
X252505867Y-113709615D01*
X252503183Y-113717286D01*
X252473600Y-113764237D01*
X252426500Y-113793582D01*
X252371316Y-113799445D01*
X252319102Y-113780650D01*
X252262785Y-113744457D01*
X252121934Y-113703100D01*
X251975136Y-113703100D01*
X251834283Y-113744457D01*
X251813520Y-113757801D01*
X251754443Y-113777228D01*
X251693364Y-113765530D01*
X251645646Y-113725650D01*
X251623291Y-113667618D01*
X251631922Y-113606031D01*
X251635143Y-113598252D01*
X251635146Y-113598250D01*
X251693538Y-113457280D01*
X251713454Y-113306000D01*
X251693538Y-113154720D01*
X251635146Y-113013750D01*
X251618380Y-112991900D01*
X251542258Y-112892695D01*
X251421203Y-112799807D01*
X251280234Y-112741416D01*
X251166935Y-112726500D01*
X251166934Y-112726500D01*
X251090974Y-112726500D01*
X251090973Y-112726500D01*
X251066363Y-112729740D01*
X250977674Y-112741416D01*
X250870405Y-112785848D01*
X250810800Y-112794690D01*
X250754063Y-112774389D01*
X250713596Y-112729740D01*
X250698954Y-112671287D01*
X250698954Y-112205291D01*
X250694731Y-112163774D01*
X250052507Y-112806000D01*
X250513468Y-113266961D01*
X250536999Y-113299798D01*
X250548726Y-113338456D01*
X250564370Y-113457280D01*
X250622761Y-113598249D01*
X250715649Y-113719304D01*
X250797345Y-113781991D01*
X250836704Y-113812192D01*
X250977674Y-113870584D01*
X251076057Y-113883536D01*
X251090973Y-113885500D01*
X251090974Y-113885500D01*
X251166934Y-113885500D01*
X251166935Y-113885500D01*
X251213565Y-113879361D01*
X251280234Y-113870584D01*
X251382005Y-113828428D01*
X251448852Y-113820517D01*
X251509986Y-113848699D01*
X251547386Y-113904671D01*
X251550029Y-113971936D01*
X251517136Y-114030671D01*
X251363525Y-114184283D01*
X251323300Y-114211161D01*
X251275847Y-114220600D01*
X250971833Y-114220600D01*
X250874538Y-114236009D01*
X250757265Y-114295764D01*
X250664199Y-114388830D01*
X250604444Y-114506103D01*
X250589038Y-114603378D01*
X250589035Y-114603400D01*
X250589035Y-115093800D01*
X250594965Y-115131239D01*
X250601915Y-115175124D01*
X250597372Y-115232839D01*
X250567123Y-115282202D01*
X250482869Y-115366456D01*
X250398627Y-115508901D01*
X250361870Y-115635419D01*
X250336118Y-115682472D01*
X250292904Y-115714247D01*
X250240312Y-115724798D01*
X250188186Y-115712151D01*
X250048053Y-115643413D01*
X249851161Y-115592434D01*
X249648042Y-115582132D01*
X249447008Y-115612930D01*
X249256289Y-115683564D01*
X249083690Y-115791145D01*
X248967807Y-115901300D01*
X245825535Y-115901300D01*
X245825535Y-113959450D01*
X248899055Y-113959450D01*
X249006433Y-114084531D01*
X249167261Y-114209021D01*
X249349854Y-114298586D01*
X249546746Y-114349565D01*
X249749865Y-114359867D01*
X249950899Y-114329069D01*
X250141618Y-114258435D01*
X250314217Y-114150854D01*
X250461624Y-114010732D01*
X250497947Y-113958545D01*
X250497946Y-113958544D01*
X249698954Y-113159553D01*
X248899055Y-113959449D01*
X248899055Y-113959450D01*
X245825535Y-113959450D01*
X245825535Y-112159552D01*
X248698954Y-112159552D01*
X248698954Y-113406712D01*
X248703174Y-113448225D01*
X249345401Y-112806001D01*
X249345401Y-112805999D01*
X248698954Y-112159552D01*
X245825535Y-112159552D01*
X245825535Y-111653451D01*
X248899959Y-111653451D01*
X248899960Y-111653453D01*
X249698954Y-112452447D01*
X249698955Y-112452447D01*
X250497948Y-111653451D01*
X257539959Y-111653451D01*
X257539960Y-111653453D01*
X258338954Y-112452447D01*
X258338955Y-112452447D01*
X259138851Y-111652548D01*
X259031474Y-111527468D01*
X258870646Y-111402978D01*
X258688053Y-111313413D01*
X258491161Y-111262434D01*
X258288042Y-111252132D01*
X258087008Y-111282930D01*
X257896289Y-111353564D01*
X257723690Y-111461145D01*
X257576281Y-111601268D01*
X257539959Y-111653451D01*
X250497948Y-111653451D01*
X250498851Y-111652548D01*
X250391474Y-111527468D01*
X250230646Y-111402978D01*
X250048053Y-111313413D01*
X249851161Y-111262434D01*
X249648042Y-111252132D01*
X249447008Y-111282930D01*
X249256289Y-111353564D01*
X249083690Y-111461145D01*
X248936281Y-111601268D01*
X248899959Y-111653451D01*
X245825535Y-111653451D01*
X245825535Y-80075000D01*
X255374820Y-80075000D01*
X255394826Y-80265347D01*
X255453969Y-80447373D01*
X255549665Y-80613123D01*
X255549668Y-80613126D01*
X255677736Y-80755360D01*
X255773102Y-80824648D01*
X255832575Y-80867858D01*
X255832576Y-80867858D01*
X255832577Y-80867859D01*
X256007425Y-80945707D01*
X256007428Y-80945707D01*
X256007429Y-80945708D01*
X256194636Y-80985500D01*
X256194638Y-80985500D01*
X256386032Y-80985500D01*
X256386034Y-80985500D01*
X256573240Y-80945708D01*
X256573239Y-80945708D01*
X256573245Y-80945707D01*
X256748093Y-80867859D01*
X256902934Y-80755360D01*
X257031002Y-80613126D01*
X257126700Y-80447373D01*
X257185844Y-80265346D01*
X257205850Y-80075000D01*
X257185844Y-79884654D01*
X257126700Y-79702627D01*
X257126700Y-79702626D01*
X257031004Y-79536876D01*
X257011361Y-79515061D01*
X256902934Y-79394640D01*
X256843459Y-79351429D01*
X256748094Y-79282141D01*
X256632140Y-79230515D01*
X256573245Y-79204293D01*
X256573244Y-79204292D01*
X256573240Y-79204291D01*
X256535596Y-79196290D01*
X256476493Y-79165392D01*
X256441945Y-79108346D01*
X256441945Y-79041654D01*
X256476493Y-78984608D01*
X256535596Y-78953710D01*
X256573240Y-78945708D01*
X256573239Y-78945708D01*
X256573245Y-78945707D01*
X256748093Y-78867859D01*
X256902934Y-78755360D01*
X257031002Y-78613126D01*
X257126700Y-78447373D01*
X257185844Y-78265346D01*
X257205850Y-78075000D01*
X257185844Y-77884654D01*
X257126700Y-77702627D01*
X257126700Y-77702626D01*
X257031004Y-77536876D01*
X257001505Y-77504114D01*
X256902934Y-77394640D01*
X256794949Y-77316184D01*
X256756330Y-77270110D01*
X256743921Y-77211285D01*
X256760640Y-77153536D01*
X256802558Y-77110440D01*
X256907342Y-77045560D01*
X256290336Y-76428553D01*
X256290335Y-76428553D01*
X255673326Y-77045560D01*
X255673327Y-77045561D01*
X255778110Y-77110440D01*
X255820028Y-77153536D01*
X255836748Y-77211284D01*
X255824339Y-77270110D01*
X255785719Y-77316185D01*
X255677735Y-77394640D01*
X255549667Y-77536873D01*
X255453969Y-77702626D01*
X255394826Y-77884652D01*
X255374820Y-78075000D01*
X255394826Y-78265347D01*
X255453969Y-78447373D01*
X255549665Y-78613123D01*
X255549668Y-78613126D01*
X255677736Y-78755360D01*
X255773102Y-78824648D01*
X255832575Y-78867858D01*
X255832576Y-78867858D01*
X255832577Y-78867859D01*
X256007425Y-78945707D01*
X256007428Y-78945707D01*
X256007429Y-78945708D01*
X256045073Y-78953710D01*
X256104176Y-78984608D01*
X256138724Y-79041654D01*
X256138724Y-79108346D01*
X256104176Y-79165392D01*
X256045073Y-79196290D01*
X256007425Y-79204292D01*
X255832577Y-79282140D01*
X255677736Y-79394638D01*
X255549667Y-79536873D01*
X255453969Y-79702626D01*
X255394826Y-79884652D01*
X255374820Y-80075000D01*
X245825535Y-80075000D01*
X245825535Y-79238362D01*
X245834974Y-79190909D01*
X245861854Y-79150681D01*
X248937536Y-76074999D01*
X255135408Y-76074999D01*
X255155072Y-76287219D01*
X255213397Y-76492208D01*
X255308395Y-76682990D01*
X255317169Y-76694609D01*
X255317170Y-76694609D01*
X255936781Y-76075001D01*
X256643888Y-76075001D01*
X257263498Y-76694610D01*
X257272275Y-76682988D01*
X257367272Y-76492208D01*
X257425597Y-76287219D01*
X257445261Y-76074999D01*
X257425597Y-75862780D01*
X257367272Y-75657791D01*
X257272276Y-75467011D01*
X257263498Y-75455388D01*
X256643888Y-76075000D01*
X256643888Y-76075001D01*
X255936781Y-76075001D01*
X255936781Y-76075000D01*
X255317170Y-75455389D01*
X255308393Y-75467013D01*
X255213397Y-75657791D01*
X255155072Y-75862780D01*
X255135408Y-76074999D01*
X248937536Y-76074999D01*
X249149755Y-75862780D01*
X252629346Y-72383188D01*
X252688536Y-72350188D01*
X252756237Y-72353234D01*
G37*
G04 #@! TD.AperFunction*
M02*
