M48
; DRILL file {KiCad 7.0.1} date Wed Oct 11 18:56:44 2023
; FORMAT={-:-/ absolute / metric / decimal}
; #@! TF.CreationDate,2023-10-11T18:56:44-05:00
; #@! TF.GenerationSoftware,Kicad,Pcbnew,7.0.1
; #@! TF.FileFunction,Plated,1,6,PTH
FMAT,2
METRIC
; #@! TA.AperFunction,Plated,PTH,ViaDrill
T1C0.300
; #@! TA.AperFunction,Plated,PTH,ComponentDrill
T2C0.600
; #@! TA.AperFunction,Plated,PTH,ComponentDrill
T3C0.750
; #@! TA.AperFunction,Plated,PTH,ComponentDrill
T4C1.500
; #@! TA.AperFunction,Plated,PTH,ComponentDrill
T5C1.800
%
G90
G05
T1
X161.193Y-21.377
X161.548Y-24.78
X162.006Y-35.499
X162.768Y-28.895
X163.022Y-41.087
X163.53Y-31.689
X163.784Y-45.659
X163.936Y-20.716
X165.155Y-24.018
X165.308Y-48.961
X167.086Y-53.533
X167.34Y-36.769
X167.492Y-21.631
X167.594Y-41.087
X167.848Y-45.405
X168.102Y-24.831
X168.102Y-33.213
X168.61Y-27.371
X168.61Y-49.469
X168.61Y-57.851
X169.88Y-52.771
X170.286Y-21.224
X170.388Y-62.169
X171.15Y-42.611
X171.404Y-36.261
X171.404Y-56.073
X172.674Y-67.249
X173.69Y-46.929
X173.944Y-50.739
X174.96Y-32.299
X174.96Y-58.867
X175.01Y-30.013
X175.163Y-23.459
X175.214Y-55.311
X175.468Y-40.325
X175.976Y-20.97
X175.976Y-68.773
X176.179Y-73.04
X176.23Y-42.611
X176.738Y-62.931
X177.347Y-26.914
X177.804Y-30.114
X178.617Y-33.315
X178.82Y-22.443
X179.024Y-27.422
X179.278Y-37.023
X179.278Y-45.913
X179.278Y-50.485
X179.786Y-71.11
X179.786Y-77.155
X180.802Y-65.471
X181.056Y-58.867
X181.564Y-68.773
X182.986Y-21.123
X183.088Y-55.311
X183.646Y-28.59
X183.85Y-77.917
X184.002Y-72.481
X184.104Y-39.817
X184.612Y-50.993
X184.662Y-25.237
X185.272Y-35.651
X185.628Y-69.281
X186.085Y-32.603
X186.999Y-21.377
X187.152Y-55.057
X187.152Y-64.709
X187.66Y-61.407
X187.914Y-79.949
X187.914Y-85.029
X188.523Y-46.573
X188.674Y-24.715
X188.676Y-28.59
X189.438Y-72.532
X189.692Y-42.611
X189.895Y-35.651
X190.2Y-38.242
X190.403Y-32.756
X190.454Y-69.281
X192.486Y-88.331
X192.74Y-58.867
X192.74Y-77.917
X193.674Y-82.235
X193.705Y-20.818
X193.959Y-47.488
X194.01Y-72.227
X194.264Y-35.397
X194.314Y-39.207
X194.314Y-51.044
X194.416Y-32.705
X194.518Y-65.471
X195.076Y-28.59
X195.28Y-61.915
X195.28Y-69.027
X196.042Y-94.681
X196.296Y-44.643
X197.007Y-24.475
X197.058Y-79.949
X197.312Y-75.631
X197.312Y-85.029
X197.921Y-35.601
X197.972Y-40.376
X198.023Y-54.549
X198.328Y-32.807
X198.328Y-92.649
X198.632Y-49.317
X198.836Y-20.97
X199.598Y-46.421
X199.598Y-65.471
X200.207Y-28.793
X200.614Y-69.281
X201.02Y-39.004
X201.122Y-42.306
X201.223Y-35.651
X201.884Y-88.839
X201.934Y-32.807
X202.087Y-25.085
X202.138Y-98.745
X202.392Y-95.697
X202.696Y-71.567
X202.849Y-57.495
X202.849Y-62.626
X203.154Y-69.027
X203.154Y-83.251
X203.408Y-74.869
X203.662Y-47.691
X203.662Y-78.933
X203.865Y-21.224
X203.916Y-91.633
X203.916Y-101.539
X204.22Y-51.044
X205.033Y-28.387
X205.186Y-93.919
X205.389Y-36.21
X205.49Y-40.173
X205.744Y-43.424
X206.252Y-32.807
X206.303Y-24.679
X206.71Y-87.315
X206.964Y-49.215
X207.218Y-100.269
X207.726Y-92.649
X208.234Y-85.283
X208.691Y-58.511
X208.691Y-62.677
X208.742Y-89.093
X209.504Y-78.425
X209.554Y-21.326
X209.656Y-53.127
X210.012Y-74.615
X210.164Y-28.793
X210.164Y-45.557
X210.266Y-91.633
X210.316Y-71.364
X210.672Y-40.579
X210.774Y-98.491
X210.774Y-105.603
X211.028Y-50.485
X211.028Y-101.539
X211.332Y-36.413
X211.485Y-32.857
X211.536Y-82.743
X211.79Y-24.831
X211.79Y-89.093
X212.806Y-21.427
X213.06Y-96.205
X213.314Y-51.755
X213.314Y-77.663
X213.568Y-48.453
X213.822Y-82.743
X214.025Y-65.42
X214.177Y-61.255
X214.533Y-55.768
X215.092Y-75.123
X215.092Y-102.555
X215.6Y-42.611
X215.6Y-107.381
X216.108Y-46.523
X216.108Y-89.855
X216.362Y-53.025
X216.412Y-36.718
X216.463Y-28.489
X217.225Y-33.569
X217.479Y-25.491
X217.632Y-95.697
X217.886Y-83.505
X217.886Y-108.905
X218.14Y-98.999
X218.8Y-21.173
X218.902Y-64.455
X218.902Y-73.345
X219.054Y-61.051
X219.156Y-50.485
X219.156Y-80.203
X219.511Y-70.703
X219.664Y-56.937
X219.664Y-92.141
X219.918Y-85.283
X219.918Y-110.429
X220.426Y-54.549
X220.832Y-44.541
X220.883Y-39.919
X221.188Y-76.901
X221.492Y-35.702
X221.492Y-48.301
X222.204Y-94.427
X222.204Y-107.127
X222.712Y-100.269
X222.813Y-26.203
X222.966Y-87.315
X223.22Y-55.565
X223.474Y-52.263
X223.931Y-63.185
X224.236Y-111.953
X224.49Y-81.473
X224.998Y-85.283
X225.302Y-58.816
X225.506Y-88.585
X225.658Y-70.265
X225.912Y-65.827
X226.268Y-74.107
X226.318Y-22.545
X226.522Y-57.343
X226.572Y-47.589
X226.776Y-77.155
X226.776Y-107.889
X226.877Y-43.373
X226.928Y-32.146
X227.03Y-103.063
X227.385Y-39.309
X228.046Y-112.715
X228.3Y-26.66
X228.3Y-54.041
X228.3Y-98.237
X228.808Y-63.033
X229.57Y-88.585
X229.976Y-30.47
X230.078Y-91.633
X230.332Y-111.445
X230.586Y-58.613
X230.84Y-105.349
X231.297Y-47.691
X231.551Y-52.263
X231.602Y-86.045
X231.805Y-65.674
X231.856Y-115.001
X232.211Y-37.175
X232.364Y-23.002
X232.364Y-98.491
X233.075Y-61.61
X233.227Y-69.789
X233.38Y-81.981
X233.634Y-109.159
X234.142Y-56.581
X234.294Y-32.705
X234.396Y-75.885
X234.396Y-103.825
X235.412Y-73.345
X235.767Y-49.113
X235.92Y-94.173
X236.021Y-26.863
X236.072Y-65.877
X236.174Y-98.491
X236.428Y-60.899
X236.428Y-88.839
X236.529Y-53.787
X236.885Y-21.834
X236.936Y-80.203
X236.936Y-116.271
X237.596Y-63.947
X237.799Y-38.242
X238.46Y-58.105
X238.866Y-31.486
X239.222Y-107.889
X239.476Y-101.793
X239.476Y-112.969
X239.882Y-69.383
X239.984Y-89.347
X240.238Y-95.189
X240.542Y-53.33
X240.644Y-66.081
X240.746Y-62.423
X240.746Y-84.775
X241.152Y-26.203
X241.152Y-47.031
X241.254Y-77.663
X241.914Y-37.582
X242.016Y-72.329
X242.219Y-57.089
X242.778Y-59.883
X242.93Y-30.47
X243.794Y-80.711
X243.794Y-84.521
X243.794Y-89.093
X243.794Y-93.919
X243.794Y-99.253
X243.794Y-104.333
X243.794Y-110.175
X243.794Y-115.255
X244.048Y-63.947
X244.556Y-65.877
X245.064Y-74.361
X245.622Y-25.796
X245.724Y-22.342
X246.08Y-80.457
X246.08Y-82.235
X246.08Y-84.013
X246.08Y-85.791
X246.08Y-87.823
X246.08Y-89.601
X246.08Y-91.379
X246.08Y-93.157
X246.08Y-94.935
X246.08Y-96.713
X246.08Y-98.491
X246.08Y-100.269
X246.08Y-102.047
X246.08Y-103.825
X246.08Y-105.603
X246.08Y-107.381
X246.08Y-109.159
X246.232Y-59.172
X246.334Y-112.207
X246.588Y-61.661
X246.588Y-115.001
X246.791Y-70.449
X246.842Y-78.425
X246.994Y-49.52
X247.096Y-64.963
X247.35Y-118.557
X247.4Y-29.301
X247.705Y-44.999
X248.112Y-77.155
X248.213Y-36.363
X249.128Y-118.811
X249.636Y-75.631
X249.839Y-23.612
X249.89Y-63.439
X250.042Y-111.089
X250.144Y-81.727
X250.144Y-84.013
X250.144Y-86.299
X250.144Y-89.093
X250.144Y-91.379
X250.144Y-93.411
X250.144Y-95.443
X250.144Y-97.475
X250.144Y-98.999
X250.144Y-100.777
X250.144Y-102.809
X250.144Y-105.095
X250.144Y-107.127
X250.398Y-79.949
X251.16Y-66.487
X251.16Y-74.107
X251.414Y-117.541
X251.414Y-118.811
X251.82Y-21.783
X251.82Y-56.124
X251.922Y-78.171
X252.049Y-114.214
X252.176Y-36.21
X252.43Y-72.837
X252.633Y-43.83
X252.684Y-28.285
X253.268Y-113.528
X253.446Y-118.811
X253.801Y-114.137
X253.903Y-49.317
X254.208Y-76.901
X254.462Y-60.696
X254.769Y-113.502
X255.224Y-118.811
X255.579Y-113.985
X256.748Y-48.555
X256.748Y-83.759
X256.748Y-85.537
X256.748Y-87.315
X256.748Y-89.093
X256.748Y-90.871
X256.748Y-92.649
X256.748Y-94.427
X256.748Y-96.205
X256.748Y-97.983
X256.748Y-99.761
X256.748Y-101.539
X256.748Y-103.317
X256.748Y-105.095
X256.748Y-117.033
X256.748Y-118.811
X257.103Y-110.988
X257.459Y-26.863
X257.459Y-42.205
X257.459Y-64.353
X257.56Y-34.483
X257.924Y-22.465
X258.272Y-115.001
X258.322Y-55.108
X259.034Y-73.599
X259.034Y-75.377
X259.034Y-77.155
X259.034Y-78.933
X259.034Y-80.711
X259.034Y-82.489
X259.034Y-84.267
X259.034Y-86.045
X259.034Y-87.823
X259.034Y-89.601
X259.034Y-91.379
X259.034Y-93.157
X259.034Y-94.935
X259.034Y-96.713
X259.034Y-98.491
X259.034Y-100.269
X259.034Y-102.047
X259.034Y-103.825
X259.034Y-105.603
X259.034Y-107.381
X259.034Y-109.159
X259.034Y-110.937
X259.034Y-118.811
T3
X256.29Y-66.075
X256.29Y-68.075
X256.29Y-70.075
X256.29Y-72.075
X256.29Y-74.075
X256.29Y-76.075
X256.29Y-78.075
X256.29Y-80.075
T4
X205.367Y-96.917
X211.717Y-85.919
X219.657Y-105.167
X226.007Y-94.169
T5
X166.389Y-28.509
X171.689Y-24.259
X171.689Y-29.759
T2
X249.699Y-112.256G85X249.699Y-113.356
G05
X249.699Y-116.586G85X249.699Y-117.386
G05
X258.339Y-112.256G85X258.339Y-113.356
G05
X258.339Y-116.586G85X258.339Y-117.386
G05
T0
M30
