%TF.GenerationSoftware,KiCad,Pcbnew,7.0.1*%
%TF.CreationDate,2023-10-11T18:56:45-05:00*%
%TF.ProjectId,Audio_Board,41756469-6f5f-4426-9f61-72642e6b6963,1*%
%TF.SameCoordinates,Original*%
%TF.FileFunction,Drillmap*%
%TF.FilePolarity,Positive*%
%FSLAX45Y45*%
G04 Gerber Fmt 4.5, Leading zero omitted, Abs format (unit mm)*
G04 Created by KiCad (PCBNEW 7.0.1) date 2023-10-11 18:56:45*
%MOMM*%
%LPD*%
G01*
G04 APERTURE LIST*
%ADD10C,0.100000*%
%ADD11C,0.200000*%
%ADD12C,0.030000*%
%ADD13C,0.060000*%
%ADD14C,0.075000*%
%ADD15C,0.150000*%
%ADD16C,0.180000*%
G04 APERTURE END LIST*
D10*
X16023205Y-2000000D02*
X25976795Y-2000000D01*
X25976795Y-2000000D02*
X25973395Y-11956800D01*
X24881195Y-11956800D02*
X24881195Y-11956800D01*
X16098351Y-3681596D02*
X16024437Y-3168973D01*
X16098351Y-3681595D02*
G75*
G03*
X24881195Y-11956800I9878414J1685987D01*
G01*
X16024437Y-3168973D02*
X16023205Y-2000000D01*
X25973395Y-11956800D02*
X24881195Y-11956800D01*
D11*
D12*
X16104273Y-2122660D02*
X16134273Y-2152660D01*
X16134273Y-2122660D02*
X16104273Y-2152660D01*
X16139833Y-2463020D02*
X16169833Y-2493020D01*
X16169833Y-2463020D02*
X16139833Y-2493020D01*
X16185553Y-3534900D02*
X16215553Y-3564900D01*
X16215553Y-3534900D02*
X16185553Y-3564900D01*
X16261753Y-2874500D02*
X16291753Y-2904500D01*
X16291753Y-2874500D02*
X16261753Y-2904500D01*
X16287153Y-4093700D02*
X16317153Y-4123700D01*
X16317153Y-4093700D02*
X16287153Y-4123700D01*
X16337953Y-3153900D02*
X16367953Y-3183900D01*
X16367953Y-3153900D02*
X16337953Y-3183900D01*
X16363353Y-4550900D02*
X16393353Y-4580900D01*
X16393353Y-4550900D02*
X16363353Y-4580900D01*
X16378593Y-2056620D02*
X16408593Y-2086620D01*
X16408593Y-2056620D02*
X16378593Y-2086620D01*
X16500513Y-2386820D02*
X16530513Y-2416820D01*
X16530513Y-2386820D02*
X16500513Y-2416820D01*
X16515753Y-4881100D02*
X16545753Y-4911100D01*
X16545753Y-4881100D02*
X16515753Y-4911100D01*
X16693553Y-5338300D02*
X16723553Y-5368300D01*
X16723553Y-5338300D02*
X16693553Y-5368300D01*
X16718953Y-3661900D02*
X16748953Y-3691900D01*
X16748953Y-3661900D02*
X16718953Y-3691900D01*
X16734193Y-2148060D02*
X16764193Y-2178060D01*
X16764193Y-2148060D02*
X16734193Y-2178060D01*
X16744353Y-4093700D02*
X16774353Y-4123700D01*
X16774353Y-4093700D02*
X16744353Y-4123700D01*
X16769753Y-4525500D02*
X16799754Y-4555500D01*
X16799754Y-4525500D02*
X16769753Y-4555500D01*
X16795154Y-2468100D02*
X16825154Y-2498100D01*
X16825154Y-2468100D02*
X16795154Y-2498100D01*
X16795154Y-3306300D02*
X16825154Y-3336300D01*
X16825154Y-3306300D02*
X16795154Y-3336300D01*
X16845954Y-2722100D02*
X16875954Y-2752100D01*
X16875954Y-2722100D02*
X16845954Y-2752100D01*
X16845954Y-4931900D02*
X16875954Y-4961900D01*
X16875954Y-4931900D02*
X16845954Y-4961900D01*
X16845954Y-5770100D02*
X16875954Y-5800100D01*
X16875954Y-5770100D02*
X16845954Y-5800100D01*
X16972954Y-5262100D02*
X17002954Y-5292100D01*
X17002954Y-5262100D02*
X16972954Y-5292100D01*
X17013594Y-2107420D02*
X17043594Y-2137420D01*
X17043594Y-2107420D02*
X17013594Y-2137420D01*
X17023754Y-6201900D02*
X17053754Y-6231900D01*
X17053754Y-6201900D02*
X17023754Y-6231900D01*
X17099954Y-4246100D02*
X17129954Y-4276100D01*
X17129954Y-4246100D02*
X17099954Y-4276100D01*
X17125354Y-3611100D02*
X17155354Y-3641100D01*
X17155354Y-3611100D02*
X17125354Y-3641100D01*
X17125354Y-5592300D02*
X17155354Y-5622300D01*
X17155354Y-5592300D02*
X17125354Y-5622300D01*
X17252354Y-6709900D02*
X17282354Y-6739900D01*
X17282354Y-6709900D02*
X17252354Y-6739900D01*
X17353954Y-4677900D02*
X17383954Y-4707900D01*
X17383954Y-4677900D02*
X17353954Y-4707900D01*
X17379354Y-5058900D02*
X17409354Y-5088900D01*
X17409354Y-5058900D02*
X17379354Y-5088900D01*
X17480954Y-3214860D02*
X17510954Y-3244860D01*
X17510954Y-3214860D02*
X17480954Y-3244860D01*
X17480954Y-5871700D02*
X17510954Y-5901700D01*
X17510954Y-5871700D02*
X17480954Y-5901700D01*
X17486034Y-2986260D02*
X17516034Y-3016260D01*
X17516034Y-2986260D02*
X17486034Y-3016260D01*
X17501274Y-2330940D02*
X17531274Y-2360940D01*
X17531274Y-2330940D02*
X17501274Y-2360940D01*
X17506354Y-5516100D02*
X17536354Y-5546100D01*
X17536354Y-5516100D02*
X17506354Y-5546100D01*
X17531754Y-4017500D02*
X17561754Y-4047500D01*
X17561754Y-4017500D02*
X17531754Y-4047500D01*
X17582554Y-2082020D02*
X17612554Y-2112020D01*
X17612554Y-2082020D02*
X17582554Y-2112020D01*
X17582554Y-6862300D02*
X17612554Y-6892300D01*
X17612554Y-6862300D02*
X17582554Y-6892300D01*
X17602874Y-7289020D02*
X17632874Y-7319020D01*
X17632874Y-7289020D02*
X17602874Y-7319020D01*
X17607954Y-4246100D02*
X17637954Y-4276100D01*
X17637954Y-4246100D02*
X17607954Y-4276100D01*
X17658754Y-6278100D02*
X17688754Y-6308100D01*
X17688754Y-6278100D02*
X17658754Y-6308100D01*
X17719714Y-2676380D02*
X17749714Y-2706380D01*
X17749714Y-2676380D02*
X17719714Y-2706380D01*
X17765434Y-2996420D02*
X17795434Y-3026420D01*
X17795434Y-2996420D02*
X17765434Y-3026420D01*
X17846714Y-3316460D02*
X17876714Y-3346460D01*
X17876714Y-3316460D02*
X17846714Y-3346460D01*
X17867034Y-2229340D02*
X17897034Y-2259340D01*
X17897034Y-2229340D02*
X17867034Y-2259340D01*
X17887354Y-2727180D02*
X17917354Y-2757180D01*
X17917354Y-2727180D02*
X17887354Y-2757180D01*
X17912754Y-3687300D02*
X17942754Y-3717300D01*
X17942754Y-3687300D02*
X17912754Y-3717300D01*
X17912754Y-4576300D02*
X17942754Y-4606300D01*
X17942754Y-4576300D02*
X17912754Y-4606300D01*
X17912754Y-5033500D02*
X17942754Y-5063500D01*
X17942754Y-5033500D02*
X17912754Y-5063500D01*
X17963554Y-7095980D02*
X17993554Y-7125980D01*
X17993554Y-7095980D02*
X17963554Y-7125980D01*
X17963554Y-7700500D02*
X17993554Y-7730500D01*
X17993554Y-7700500D02*
X17963554Y-7730500D01*
X18065154Y-6532100D02*
X18095154Y-6562100D01*
X18095154Y-6532100D02*
X18065154Y-6562100D01*
X18090554Y-5871700D02*
X18120554Y-5901700D01*
X18120554Y-5871700D02*
X18090554Y-5901700D01*
X18141354Y-6862300D02*
X18171354Y-6892300D01*
X18171354Y-6862300D02*
X18141354Y-6892300D01*
X18283594Y-2097260D02*
X18313594Y-2127260D01*
X18313594Y-2097260D02*
X18283594Y-2127260D01*
X18293754Y-5516100D02*
X18323754Y-5546100D01*
X18323754Y-5516100D02*
X18293754Y-5546100D01*
X18349634Y-2844020D02*
X18379634Y-2874020D01*
X18379634Y-2844020D02*
X18349634Y-2874020D01*
X18369954Y-7776700D02*
X18399954Y-7806700D01*
X18399954Y-7776700D02*
X18369954Y-7806700D01*
X18385194Y-7233140D02*
X18415194Y-7263140D01*
X18415194Y-7233140D02*
X18385194Y-7263140D01*
X18395354Y-3966700D02*
X18425354Y-3996700D01*
X18425354Y-3966700D02*
X18395354Y-3996700D01*
X18446154Y-5084300D02*
X18476154Y-5114300D01*
X18476154Y-5084300D02*
X18446154Y-5114300D01*
X18451234Y-2508740D02*
X18481234Y-2538740D01*
X18481234Y-2508740D02*
X18451234Y-2538740D01*
X18512194Y-3550140D02*
X18542194Y-3580140D01*
X18542194Y-3550140D02*
X18512194Y-3580140D01*
X18547754Y-6913100D02*
X18577754Y-6943100D01*
X18577754Y-6913100D02*
X18547754Y-6943100D01*
X18593474Y-3245340D02*
X18623474Y-3275340D01*
X18623474Y-3245340D02*
X18593474Y-3275340D01*
X18684914Y-2122660D02*
X18714914Y-2152660D01*
X18714914Y-2122660D02*
X18684914Y-2152660D01*
X18700154Y-5490700D02*
X18730154Y-5520700D01*
X18730154Y-5490700D02*
X18700154Y-5520700D01*
X18700154Y-6455900D02*
X18730154Y-6485900D01*
X18730154Y-6455900D02*
X18700154Y-6485900D01*
X18750954Y-6125700D02*
X18780954Y-6155700D01*
X18780954Y-6125700D02*
X18750954Y-6155700D01*
X18776354Y-7979900D02*
X18806354Y-8009900D01*
X18806354Y-7979900D02*
X18776354Y-8009900D01*
X18776354Y-8487900D02*
X18806354Y-8517900D01*
X18806354Y-8487900D02*
X18776354Y-8517900D01*
X18837314Y-4642340D02*
X18867314Y-4672340D01*
X18867314Y-4642340D02*
X18837314Y-4672340D01*
X18852354Y-2456500D02*
X18882354Y-2486500D01*
X18882354Y-2456500D02*
X18852354Y-2486500D01*
X18852554Y-2844020D02*
X18882554Y-2874020D01*
X18882554Y-2844020D02*
X18852554Y-2874020D01*
X18928754Y-7238220D02*
X18958754Y-7268220D01*
X18958754Y-7238220D02*
X18928754Y-7268220D01*
X18954154Y-4246100D02*
X18984154Y-4276100D01*
X18984154Y-4246100D02*
X18954154Y-4276100D01*
X18974474Y-3550140D02*
X19004474Y-3580140D01*
X19004474Y-3550140D02*
X18974474Y-3580140D01*
X19004954Y-3809220D02*
X19034954Y-3839220D01*
X19034954Y-3809220D02*
X19004954Y-3839220D01*
X19025274Y-3260580D02*
X19055274Y-3290580D01*
X19055274Y-3260580D02*
X19025274Y-3290580D01*
X19030354Y-6913100D02*
X19060354Y-6943100D01*
X19060354Y-6913100D02*
X19030354Y-6943100D01*
X19233554Y-8818100D02*
X19263554Y-8848100D01*
X19263554Y-8818100D02*
X19233554Y-8848100D01*
X19258954Y-5871700D02*
X19288954Y-5901700D01*
X19288954Y-5871700D02*
X19258954Y-5901700D01*
X19258954Y-7776700D02*
X19288954Y-7806700D01*
X19288954Y-7776700D02*
X19258954Y-7806700D01*
X19352354Y-8208500D02*
X19382354Y-8238500D01*
X19382354Y-8208500D02*
X19352354Y-8238500D01*
X19355474Y-2066780D02*
X19385474Y-2096780D01*
X19385474Y-2066780D02*
X19355474Y-2096780D01*
X19380874Y-4733780D02*
X19410874Y-4763780D01*
X19410874Y-4733780D02*
X19380874Y-4763780D01*
X19385954Y-7207740D02*
X19415954Y-7237740D01*
X19415954Y-7207740D02*
X19385954Y-7237740D01*
X19411354Y-3524740D02*
X19441354Y-3554740D01*
X19441354Y-3524740D02*
X19411354Y-3554740D01*
X19416434Y-3905740D02*
X19446434Y-3935740D01*
X19446434Y-3905740D02*
X19416434Y-3935740D01*
X19416434Y-5089380D02*
X19446434Y-5119380D01*
X19446434Y-5089380D02*
X19416434Y-5119380D01*
X19426594Y-3255500D02*
X19456594Y-3285500D01*
X19456594Y-3255500D02*
X19426594Y-3285500D01*
X19436754Y-6532100D02*
X19466754Y-6562100D01*
X19466754Y-6532100D02*
X19436754Y-6562100D01*
X19492634Y-2844020D02*
X19522634Y-2874020D01*
X19522634Y-2844020D02*
X19492634Y-2874020D01*
X19512954Y-6176500D02*
X19542954Y-6206500D01*
X19542954Y-6176500D02*
X19512954Y-6206500D01*
X19512954Y-6887700D02*
X19542954Y-6917700D01*
X19542954Y-6887700D02*
X19512954Y-6917700D01*
X19589154Y-9453100D02*
X19619154Y-9483100D01*
X19619154Y-9453100D02*
X19589154Y-9483100D01*
X19614554Y-4449300D02*
X19644554Y-4479300D01*
X19644554Y-4449300D02*
X19614554Y-4479300D01*
X19685674Y-2432540D02*
X19715674Y-2462540D01*
X19715674Y-2432540D02*
X19685674Y-2462540D01*
X19690754Y-7979900D02*
X19720754Y-8009900D01*
X19720754Y-7979900D02*
X19690754Y-8009900D01*
X19716154Y-7548100D02*
X19746154Y-7578100D01*
X19746154Y-7548100D02*
X19716154Y-7578100D01*
X19716154Y-8487900D02*
X19746154Y-8517900D01*
X19746154Y-8487900D02*
X19716154Y-8517900D01*
X19777114Y-3545060D02*
X19807114Y-3575060D01*
X19807114Y-3545060D02*
X19777114Y-3575060D01*
X19782194Y-4022580D02*
X19812194Y-4052580D01*
X19812194Y-4022580D02*
X19782194Y-4052580D01*
X19787274Y-5439900D02*
X19817274Y-5469900D01*
X19817274Y-5439900D02*
X19787274Y-5469900D01*
X19817754Y-3265660D02*
X19847754Y-3295660D01*
X19847754Y-3265660D02*
X19817754Y-3295660D01*
X19817754Y-9249900D02*
X19847754Y-9279900D01*
X19847754Y-9249900D02*
X19817754Y-9279900D01*
X19848234Y-4916660D02*
X19878234Y-4946660D01*
X19878234Y-4916660D02*
X19848234Y-4946660D01*
X19868554Y-2082020D02*
X19898554Y-2112020D01*
X19898554Y-2082020D02*
X19868554Y-2112020D01*
X19944754Y-4627100D02*
X19974754Y-4657100D01*
X19974754Y-4627100D02*
X19944754Y-4657100D01*
X19944754Y-6532100D02*
X19974754Y-6562100D01*
X19974754Y-6532100D02*
X19944754Y-6562100D01*
X20005714Y-2864340D02*
X20035714Y-2894340D01*
X20035714Y-2864340D02*
X20005714Y-2894340D01*
X20046354Y-6913100D02*
X20076354Y-6943100D01*
X20076354Y-6913100D02*
X20046354Y-6943100D01*
X20086994Y-3885420D02*
X20116994Y-3915420D01*
X20116994Y-3885420D02*
X20086994Y-3915420D01*
X20097154Y-4215620D02*
X20127154Y-4245620D01*
X20127154Y-4215620D02*
X20097154Y-4245620D01*
X20107314Y-3550140D02*
X20137314Y-3580140D01*
X20137314Y-3550140D02*
X20107314Y-3580140D01*
X20173354Y-8868900D02*
X20203354Y-8898900D01*
X20203354Y-8868900D02*
X20173354Y-8898900D01*
X20178434Y-3265660D02*
X20208434Y-3295660D01*
X20208434Y-3265660D02*
X20178434Y-3295660D01*
X20193674Y-2493500D02*
X20223674Y-2523500D01*
X20223674Y-2493500D02*
X20193674Y-2523500D01*
X20198754Y-9859500D02*
X20228754Y-9889500D01*
X20228754Y-9859500D02*
X20198754Y-9889500D01*
X20224154Y-9554700D02*
X20254154Y-9584700D01*
X20254154Y-9554700D02*
X20224154Y-9584700D01*
X20254634Y-7141700D02*
X20284634Y-7171700D01*
X20284634Y-7141700D02*
X20254634Y-7171700D01*
X20269874Y-5734540D02*
X20299874Y-5764540D01*
X20299874Y-5734540D02*
X20269874Y-5764540D01*
X20269874Y-6247620D02*
X20299874Y-6277620D01*
X20299874Y-6247620D02*
X20269874Y-6277620D01*
X20300354Y-6887700D02*
X20330354Y-6917700D01*
X20330354Y-6887700D02*
X20300354Y-6917700D01*
X20300354Y-8310100D02*
X20330354Y-8340100D01*
X20330354Y-8310100D02*
X20300354Y-8340100D01*
X20325754Y-7471900D02*
X20355754Y-7501900D01*
X20355754Y-7471900D02*
X20325754Y-7501900D01*
X20351154Y-4754100D02*
X20381154Y-4784100D01*
X20381154Y-4754100D02*
X20351154Y-4784100D01*
X20351154Y-7878300D02*
X20381154Y-7908300D01*
X20381154Y-7878300D02*
X20351154Y-7908300D01*
X20371474Y-2107420D02*
X20401474Y-2137420D01*
X20401474Y-2107420D02*
X20371474Y-2137420D01*
X20376554Y-9148300D02*
X20406554Y-9178300D01*
X20406554Y-9148300D02*
X20376554Y-9178300D01*
X20376554Y-10138900D02*
X20406554Y-10168900D01*
X20406554Y-10138900D02*
X20376554Y-10168900D01*
X20407034Y-5089380D02*
X20437034Y-5119380D01*
X20437034Y-5089380D02*
X20407034Y-5119380D01*
X20488314Y-2823700D02*
X20518314Y-2853700D01*
X20518314Y-2823700D02*
X20488314Y-2853700D01*
X20503554Y-9376900D02*
X20533554Y-9406900D01*
X20533554Y-9376900D02*
X20503554Y-9406900D01*
X20523874Y-3606020D02*
X20553874Y-3636020D01*
X20553874Y-3606020D02*
X20523874Y-3636020D01*
X20534034Y-4002260D02*
X20564034Y-4032260D01*
X20564034Y-4002260D02*
X20534034Y-4032260D01*
X20559434Y-4327380D02*
X20589434Y-4357380D01*
X20589434Y-4327380D02*
X20559434Y-4357380D01*
X20610234Y-3265660D02*
X20640234Y-3295660D01*
X20640234Y-3265660D02*
X20610234Y-3295660D01*
X20615314Y-2452860D02*
X20645314Y-2482860D01*
X20645314Y-2452860D02*
X20615314Y-2482860D01*
X20655954Y-8716500D02*
X20685954Y-8746500D01*
X20685954Y-8716500D02*
X20655954Y-8746500D01*
X20681354Y-4906500D02*
X20711354Y-4936500D01*
X20711354Y-4906500D02*
X20681354Y-4936500D01*
X20706754Y-10011900D02*
X20736754Y-10041900D01*
X20736754Y-10011900D02*
X20706754Y-10041900D01*
X20757554Y-9249900D02*
X20787554Y-9279900D01*
X20787554Y-9249900D02*
X20757554Y-9279900D01*
X20808354Y-8513300D02*
X20838354Y-8543300D01*
X20838354Y-8513300D02*
X20808354Y-8543300D01*
X20854074Y-5836140D02*
X20884074Y-5866140D01*
X20884074Y-5836140D02*
X20854074Y-5866140D01*
X20854074Y-6252700D02*
X20884074Y-6282700D01*
X20884074Y-6252700D02*
X20854074Y-6282700D01*
X20859154Y-8894300D02*
X20889154Y-8924300D01*
X20889154Y-8894300D02*
X20859154Y-8924300D01*
X20935354Y-7827500D02*
X20965354Y-7857500D01*
X20965354Y-7827500D02*
X20935354Y-7857500D01*
X20940434Y-2117580D02*
X20970434Y-2147580D01*
X20970434Y-2117580D02*
X20940434Y-2147580D01*
X20950594Y-5297660D02*
X20980594Y-5327660D01*
X20980594Y-5297660D02*
X20950594Y-5327660D01*
X20986154Y-7446500D02*
X21016154Y-7476500D01*
X21016154Y-7446500D02*
X20986154Y-7476500D01*
X21001394Y-2864340D02*
X21031394Y-2894340D01*
X21031394Y-2864340D02*
X21001394Y-2894340D01*
X21001394Y-4540740D02*
X21031394Y-4570740D01*
X21031394Y-4540740D02*
X21001394Y-4570740D01*
X21011554Y-9148300D02*
X21041554Y-9178300D01*
X21041554Y-9148300D02*
X21011554Y-9178300D01*
X21016634Y-7121380D02*
X21046634Y-7151380D01*
X21046634Y-7121380D02*
X21016634Y-7151380D01*
X21052194Y-4042900D02*
X21082194Y-4072900D01*
X21082194Y-4042900D02*
X21052194Y-4072900D01*
X21062354Y-9834100D02*
X21092354Y-9864100D01*
X21092354Y-9834100D02*
X21062354Y-9864100D01*
X21062354Y-10545300D02*
X21092354Y-10575300D01*
X21092354Y-10545300D02*
X21062354Y-10575300D01*
X21087754Y-5033500D02*
X21117754Y-5063500D01*
X21117754Y-5033500D02*
X21087754Y-5063500D01*
X21087754Y-10138900D02*
X21117754Y-10168900D01*
X21117754Y-10138900D02*
X21087754Y-10168900D01*
X21118234Y-3626340D02*
X21148234Y-3656340D01*
X21148234Y-3626340D02*
X21118234Y-3656340D01*
X21133474Y-3270740D02*
X21163474Y-3300740D01*
X21163474Y-3270740D02*
X21133474Y-3300740D01*
X21138554Y-8259300D02*
X21168554Y-8289300D01*
X21168554Y-8259300D02*
X21138554Y-8289300D01*
X21163954Y-2468100D02*
X21193954Y-2498100D01*
X21193954Y-2468100D02*
X21163954Y-2498100D01*
X21163954Y-8894300D02*
X21193954Y-8924300D01*
X21193954Y-8894300D02*
X21163954Y-8924300D01*
X21265554Y-2127740D02*
X21295554Y-2157740D01*
X21295554Y-2127740D02*
X21265554Y-2157740D01*
X21290954Y-9605500D02*
X21320954Y-9635500D01*
X21320954Y-9605500D02*
X21290954Y-9635500D01*
X21316354Y-5160500D02*
X21346354Y-5190500D01*
X21346354Y-5160500D02*
X21316354Y-5190500D01*
X21316354Y-7751300D02*
X21346354Y-7781300D01*
X21346354Y-7751300D02*
X21316354Y-7781300D01*
X21341754Y-4830300D02*
X21371754Y-4860300D01*
X21371754Y-4830300D02*
X21341754Y-4860300D01*
X21367154Y-8259300D02*
X21397154Y-8289300D01*
X21397154Y-8259300D02*
X21367154Y-8289300D01*
X21387474Y-6527020D02*
X21417474Y-6557020D01*
X21417474Y-6527020D02*
X21387474Y-6557020D01*
X21402714Y-6110460D02*
X21432714Y-6140460D01*
X21432714Y-6110460D02*
X21402714Y-6140460D01*
X21438274Y-5561820D02*
X21468274Y-5591820D01*
X21468274Y-5561820D02*
X21438274Y-5591820D01*
X21494154Y-7497300D02*
X21524154Y-7527300D01*
X21524154Y-7497300D02*
X21494154Y-7527300D01*
X21494154Y-10240500D02*
X21524154Y-10270500D01*
X21524154Y-10240500D02*
X21494154Y-10270500D01*
X21544954Y-4246100D02*
X21574954Y-4276100D01*
X21574954Y-4246100D02*
X21544954Y-4276100D01*
X21544954Y-10723100D02*
X21574954Y-10753100D01*
X21574954Y-10723100D02*
X21544954Y-10753100D01*
X21595754Y-4637260D02*
X21625754Y-4667260D01*
X21625754Y-4637260D02*
X21595754Y-4667260D01*
X21595754Y-8970500D02*
X21625754Y-9000500D01*
X21625754Y-8970500D02*
X21595754Y-9000500D01*
X21621154Y-5287500D02*
X21651154Y-5317500D01*
X21651154Y-5287500D02*
X21621154Y-5317500D01*
X21626234Y-3656820D02*
X21656234Y-3686820D01*
X21656234Y-3656820D02*
X21626234Y-3686820D01*
X21631314Y-2833860D02*
X21661314Y-2863860D01*
X21661314Y-2833860D02*
X21631314Y-2863860D01*
X21707514Y-3341860D02*
X21737514Y-3371860D01*
X21737514Y-3341860D02*
X21707514Y-3371860D01*
X21732914Y-2534140D02*
X21762914Y-2564140D01*
X21762914Y-2534140D02*
X21732914Y-2564140D01*
X21748154Y-9554700D02*
X21778154Y-9584700D01*
X21778154Y-9554700D02*
X21748154Y-9584700D01*
X21773554Y-8335500D02*
X21803554Y-8365500D01*
X21803554Y-8335500D02*
X21773554Y-8365500D01*
X21773554Y-10875500D02*
X21803554Y-10905500D01*
X21803554Y-10875500D02*
X21773554Y-10905500D01*
X21798954Y-9884900D02*
X21828954Y-9914900D01*
X21828954Y-9884900D02*
X21798954Y-9914900D01*
X21864994Y-2102340D02*
X21894994Y-2132340D01*
X21894994Y-2102340D02*
X21864994Y-2132340D01*
X21875154Y-6430500D02*
X21905154Y-6460500D01*
X21905154Y-6430500D02*
X21875154Y-6460500D01*
X21875154Y-7319500D02*
X21905154Y-7349500D01*
X21905154Y-7319500D02*
X21875154Y-7349500D01*
X21890394Y-6090140D02*
X21920394Y-6120140D01*
X21920394Y-6090140D02*
X21890394Y-6120140D01*
X21900554Y-5033500D02*
X21930554Y-5063500D01*
X21930554Y-5033500D02*
X21900554Y-5063500D01*
X21900554Y-8005300D02*
X21930554Y-8035300D01*
X21930554Y-8005300D02*
X21900554Y-8035300D01*
X21936114Y-7055340D02*
X21966114Y-7085340D01*
X21966114Y-7055340D02*
X21936114Y-7085340D01*
X21951354Y-5678660D02*
X21981354Y-5708660D01*
X21981354Y-5678660D02*
X21951354Y-5708660D01*
X21951354Y-9199100D02*
X21981354Y-9229100D01*
X21981354Y-9199100D02*
X21951354Y-9229100D01*
X21976754Y-8513300D02*
X22006754Y-8543300D01*
X22006754Y-8513300D02*
X21976754Y-8543300D01*
X21976754Y-11027900D02*
X22006754Y-11057900D01*
X22006754Y-11027900D02*
X21976754Y-11057900D01*
X22027554Y-5439900D02*
X22057554Y-5469900D01*
X22057554Y-5439900D02*
X22027554Y-5469900D01*
X22068194Y-4439140D02*
X22098194Y-4469140D01*
X22098194Y-4439140D02*
X22068194Y-4469140D01*
X22073274Y-3976860D02*
X22103274Y-4006860D01*
X22103274Y-3976860D02*
X22073274Y-4006860D01*
X22103754Y-7675100D02*
X22133754Y-7705100D01*
X22133754Y-7675100D02*
X22103754Y-7705100D01*
X22134234Y-3555220D02*
X22164234Y-3585220D01*
X22164234Y-3555220D02*
X22134234Y-3585220D01*
X22134234Y-4815060D02*
X22164234Y-4845060D01*
X22164234Y-4815060D02*
X22134234Y-4845060D01*
X22205354Y-9427700D02*
X22235354Y-9457700D01*
X22235354Y-9427700D02*
X22205354Y-9457700D01*
X22205354Y-10697700D02*
X22235354Y-10727700D01*
X22235354Y-10697700D02*
X22205354Y-10727700D01*
X22256154Y-10011900D02*
X22286154Y-10041900D01*
X22286154Y-10011900D02*
X22256154Y-10041900D01*
X22266314Y-2605260D02*
X22296314Y-2635260D01*
X22296314Y-2605260D02*
X22266314Y-2635260D01*
X22281554Y-8716500D02*
X22311554Y-8746500D01*
X22311554Y-8716500D02*
X22281554Y-8746500D01*
X22306954Y-5541500D02*
X22336954Y-5571500D01*
X22336954Y-5541500D02*
X22306954Y-5571500D01*
X22332354Y-5211300D02*
X22362354Y-5241300D01*
X22362354Y-5211300D02*
X22332354Y-5241300D01*
X22378073Y-6303500D02*
X22408073Y-6333500D01*
X22408073Y-6303500D02*
X22378073Y-6333500D01*
X22408553Y-11180300D02*
X22438553Y-11210300D01*
X22438553Y-11180300D02*
X22408553Y-11210300D01*
X22433953Y-8132300D02*
X22463953Y-8162300D01*
X22463953Y-8132300D02*
X22433953Y-8162300D01*
X22484753Y-8513300D02*
X22514753Y-8543300D01*
X22514753Y-8513300D02*
X22484753Y-8543300D01*
X22515233Y-5866620D02*
X22545233Y-5896620D01*
X22545233Y-5866620D02*
X22515233Y-5896620D01*
X22535553Y-8843500D02*
X22565553Y-8873500D01*
X22565553Y-8843500D02*
X22535553Y-8873500D01*
X22550793Y-7011500D02*
X22580793Y-7041500D01*
X22580793Y-7011500D02*
X22550793Y-7041500D01*
X22576193Y-6567660D02*
X22606193Y-6597660D01*
X22606193Y-6567660D02*
X22576193Y-6597660D01*
X22611753Y-7395700D02*
X22641753Y-7425700D01*
X22641753Y-7395700D02*
X22611753Y-7425700D01*
X22616833Y-2239500D02*
X22646833Y-2269500D01*
X22646833Y-2239500D02*
X22616833Y-2269500D01*
X22637153Y-5719300D02*
X22667153Y-5749300D01*
X22667153Y-5719300D02*
X22637153Y-5749300D01*
X22642233Y-4743940D02*
X22672233Y-4773940D01*
X22672233Y-4743940D02*
X22642233Y-4773940D01*
X22662553Y-7700500D02*
X22692553Y-7730500D01*
X22692553Y-7700500D02*
X22662553Y-7730500D01*
X22662553Y-10773900D02*
X22692553Y-10803900D01*
X22692553Y-10773900D02*
X22662553Y-10803900D01*
X22672713Y-4322300D02*
X22702713Y-4352300D01*
X22702713Y-4322300D02*
X22672713Y-4352300D01*
X22677793Y-3199620D02*
X22707793Y-3229620D01*
X22707793Y-3199620D02*
X22677793Y-3229620D01*
X22687953Y-10291300D02*
X22717953Y-10321300D01*
X22717953Y-10291300D02*
X22687953Y-10321300D01*
X22723513Y-3915900D02*
X22753513Y-3945900D01*
X22753513Y-3915900D02*
X22723513Y-3945900D01*
X22789553Y-11256500D02*
X22819553Y-11286500D01*
X22819553Y-11256500D02*
X22789553Y-11286500D01*
X22814953Y-2650980D02*
X22844953Y-2680980D01*
X22844953Y-2650980D02*
X22814953Y-2680980D01*
X22814953Y-5389100D02*
X22844953Y-5419100D01*
X22844953Y-5389100D02*
X22814953Y-5419100D01*
X22814953Y-9808700D02*
X22844953Y-9838700D01*
X22844953Y-9808700D02*
X22814953Y-9838700D01*
X22865753Y-6288260D02*
X22895753Y-6318260D01*
X22895753Y-6288260D02*
X22865753Y-6318260D01*
X22941953Y-8843500D02*
X22971953Y-8873500D01*
X22971953Y-8843500D02*
X22941953Y-8873500D01*
X22982593Y-3031980D02*
X23012593Y-3061980D01*
X23012593Y-3031980D02*
X22982593Y-3061980D01*
X22992753Y-9148300D02*
X23022753Y-9178300D01*
X23022753Y-9148300D02*
X22992753Y-9178300D01*
X23018153Y-11129500D02*
X23048153Y-11159500D01*
X23048153Y-11129500D02*
X23018153Y-11159500D01*
X23043553Y-5846300D02*
X23073553Y-5876300D01*
X23073553Y-5846300D02*
X23043553Y-5876300D01*
X23068953Y-10519900D02*
X23098953Y-10549900D01*
X23098953Y-10519900D02*
X23068953Y-10549900D01*
X23114673Y-4754100D02*
X23144673Y-4784100D01*
X23144673Y-4754100D02*
X23114673Y-4784100D01*
X23140073Y-5211300D02*
X23170073Y-5241300D01*
X23170073Y-5211300D02*
X23140073Y-5241300D01*
X23145153Y-8589500D02*
X23175153Y-8619500D01*
X23175153Y-8589500D02*
X23145153Y-8619500D01*
X23165473Y-6552420D02*
X23195473Y-6582420D01*
X23195473Y-6552420D02*
X23165473Y-6582420D01*
X23170553Y-11485100D02*
X23200553Y-11515100D01*
X23200553Y-11485100D02*
X23170553Y-11515100D01*
X23206113Y-3702540D02*
X23236113Y-3732540D01*
X23236113Y-3702540D02*
X23206113Y-3732540D01*
X23221353Y-2285220D02*
X23251353Y-2315220D01*
X23251353Y-2285220D02*
X23221353Y-2315220D01*
X23221353Y-9834100D02*
X23251353Y-9864100D01*
X23251353Y-9834100D02*
X23221353Y-9864100D01*
X23292473Y-6146020D02*
X23322473Y-6176020D01*
X23322473Y-6146020D02*
X23292473Y-6176020D01*
X23307713Y-6963900D02*
X23337713Y-6993900D01*
X23337713Y-6963900D02*
X23307713Y-6993900D01*
X23322953Y-8183100D02*
X23352953Y-8213100D01*
X23352953Y-8183100D02*
X23322953Y-8213100D01*
X23348353Y-10900900D02*
X23378353Y-10930900D01*
X23378353Y-10900900D02*
X23348353Y-10930900D01*
X23399153Y-5643100D02*
X23429153Y-5673100D01*
X23429153Y-5643100D02*
X23399153Y-5673100D01*
X23414393Y-3255500D02*
X23444393Y-3285500D01*
X23444393Y-3255500D02*
X23414393Y-3285500D01*
X23424553Y-7573500D02*
X23454553Y-7603500D01*
X23454553Y-7573500D02*
X23424553Y-7603500D01*
X23424553Y-10367500D02*
X23454553Y-10397500D01*
X23454553Y-10367500D02*
X23424553Y-10397500D01*
X23526153Y-7319500D02*
X23556153Y-7349500D01*
X23556153Y-7319500D02*
X23526153Y-7349500D01*
X23561713Y-4896340D02*
X23591713Y-4926340D01*
X23591713Y-4896340D02*
X23561713Y-4926340D01*
X23576953Y-9402300D02*
X23606953Y-9432300D01*
X23606953Y-9402300D02*
X23576953Y-9432300D01*
X23587113Y-2671300D02*
X23617113Y-2701300D01*
X23617113Y-2671300D02*
X23587113Y-2701300D01*
X23592193Y-6572740D02*
X23622193Y-6602740D01*
X23622193Y-6572740D02*
X23592193Y-6602740D01*
X23602353Y-9834100D02*
X23632353Y-9864100D01*
X23632353Y-9834100D02*
X23602353Y-9864100D01*
X23627753Y-6074900D02*
X23657753Y-6104900D01*
X23657753Y-6074900D02*
X23627753Y-6104900D01*
X23627753Y-8868900D02*
X23657753Y-8898900D01*
X23657753Y-8868900D02*
X23627753Y-8898900D01*
X23637913Y-5363700D02*
X23667913Y-5393700D01*
X23667913Y-5363700D02*
X23637913Y-5393700D01*
X23673473Y-2168380D02*
X23703473Y-2198380D01*
X23703473Y-2168380D02*
X23673473Y-2198380D01*
X23678553Y-8005300D02*
X23708553Y-8035300D01*
X23708553Y-8005300D02*
X23678553Y-8035300D01*
X23678553Y-11612100D02*
X23708553Y-11642100D01*
X23708553Y-11612100D02*
X23678553Y-11642100D01*
X23744593Y-6379700D02*
X23774593Y-6409700D01*
X23774593Y-6379700D02*
X23744593Y-6409700D01*
X23764913Y-3809220D02*
X23794913Y-3839220D01*
X23794913Y-3809220D02*
X23764913Y-3839220D01*
X23830953Y-5795500D02*
X23860953Y-5825500D01*
X23860953Y-5795500D02*
X23830953Y-5825500D01*
X23871593Y-3133580D02*
X23901593Y-3163580D01*
X23901593Y-3133580D02*
X23871593Y-3163580D01*
X23907153Y-10773900D02*
X23937153Y-10803900D01*
X23937153Y-10773900D02*
X23907153Y-10803900D01*
X23932553Y-10164300D02*
X23962553Y-10194300D01*
X23962553Y-10164300D02*
X23932553Y-10194300D01*
X23932553Y-11281900D02*
X23962553Y-11311900D01*
X23962553Y-11281900D02*
X23932553Y-11311900D01*
X23973193Y-6923260D02*
X24003193Y-6953260D01*
X24003193Y-6923260D02*
X23973193Y-6953260D01*
X23983353Y-8919700D02*
X24013353Y-8949700D01*
X24013353Y-8919700D02*
X23983353Y-8949700D01*
X24008753Y-9503900D02*
X24038753Y-9533900D01*
X24038753Y-9503900D02*
X24008753Y-9533900D01*
X24039233Y-5317980D02*
X24069233Y-5347980D01*
X24069233Y-5317980D02*
X24039233Y-5347980D01*
X24049393Y-6593060D02*
X24079393Y-6623060D01*
X24079393Y-6593060D02*
X24049393Y-6623060D01*
X24059553Y-6227300D02*
X24089553Y-6257300D01*
X24089553Y-6227300D02*
X24059553Y-6257300D01*
X24059553Y-8462500D02*
X24089553Y-8492500D01*
X24089553Y-8462500D02*
X24059553Y-8492500D01*
X24100193Y-2605260D02*
X24130193Y-2635260D01*
X24130193Y-2605260D02*
X24100193Y-2635260D01*
X24100193Y-4688060D02*
X24130193Y-4718060D01*
X24130193Y-4688060D02*
X24100193Y-4718060D01*
X24110353Y-7751300D02*
X24140353Y-7781300D01*
X24140353Y-7751300D02*
X24110353Y-7781300D01*
X24176393Y-3743180D02*
X24206393Y-3773180D01*
X24206393Y-3743180D02*
X24176393Y-3773180D01*
X24186553Y-7217900D02*
X24216553Y-7247900D01*
X24216553Y-7217900D02*
X24186553Y-7247900D01*
X24206873Y-5693900D02*
X24236873Y-5723900D01*
X24236873Y-5693900D02*
X24206873Y-5723900D01*
X24262753Y-5973300D02*
X24292753Y-6003300D01*
X24292753Y-5973300D02*
X24262753Y-6003300D01*
X24277993Y-3031980D02*
X24307993Y-3061980D01*
X24307993Y-3031980D02*
X24277993Y-3061980D01*
X24364353Y-8056100D02*
X24394353Y-8086100D01*
X24394353Y-8056100D02*
X24364353Y-8086100D01*
X24364353Y-8437100D02*
X24394353Y-8467100D01*
X24394353Y-8437100D02*
X24364353Y-8467100D01*
X24364353Y-8894300D02*
X24394353Y-8924300D01*
X24394353Y-8894300D02*
X24364353Y-8924300D01*
X24364353Y-9376900D02*
X24394353Y-9406900D01*
X24394353Y-9376900D02*
X24364353Y-9406900D01*
X24364353Y-9910300D02*
X24394353Y-9940300D01*
X24394353Y-9910300D02*
X24364353Y-9940300D01*
X24364353Y-10418300D02*
X24394353Y-10448300D01*
X24394353Y-10418300D02*
X24364353Y-10448300D01*
X24364353Y-11002500D02*
X24394353Y-11032500D01*
X24394353Y-11002500D02*
X24364353Y-11032500D01*
X24364353Y-11510500D02*
X24394353Y-11540500D01*
X24394353Y-11510500D02*
X24364353Y-11540500D01*
X24389753Y-6379700D02*
X24419753Y-6409700D01*
X24419753Y-6379700D02*
X24389753Y-6409700D01*
X24440553Y-6572740D02*
X24470553Y-6602740D01*
X24470553Y-6572740D02*
X24440553Y-6602740D01*
X24491353Y-7421100D02*
X24521353Y-7451100D01*
X24521353Y-7421100D02*
X24491353Y-7451100D01*
X24547233Y-2564620D02*
X24577233Y-2594620D01*
X24577233Y-2564620D02*
X24547233Y-2594620D01*
X24557393Y-2219180D02*
X24587393Y-2249180D01*
X24587393Y-2219180D02*
X24557393Y-2249180D01*
X24592953Y-8030700D02*
X24622953Y-8060700D01*
X24622953Y-8030700D02*
X24592953Y-8060700D01*
X24592953Y-8208500D02*
X24622953Y-8238500D01*
X24622953Y-8208500D02*
X24592953Y-8238500D01*
X24592953Y-8386300D02*
X24622953Y-8416300D01*
X24622953Y-8386300D02*
X24592953Y-8416300D01*
X24592953Y-8564100D02*
X24622953Y-8594100D01*
X24622953Y-8564100D02*
X24592953Y-8594100D01*
X24592953Y-8767300D02*
X24622953Y-8797300D01*
X24622953Y-8767300D02*
X24592953Y-8797300D01*
X24592953Y-8945100D02*
X24622953Y-8975100D01*
X24622953Y-8945100D02*
X24592953Y-8975100D01*
X24592953Y-9122900D02*
X24622953Y-9152900D01*
X24622953Y-9122900D02*
X24592953Y-9152900D01*
X24592953Y-9300700D02*
X24622953Y-9330700D01*
X24622953Y-9300700D02*
X24592953Y-9330700D01*
X24592953Y-9478500D02*
X24622953Y-9508500D01*
X24622953Y-9478500D02*
X24592953Y-9508500D01*
X24592953Y-9656300D02*
X24622953Y-9686300D01*
X24622953Y-9656300D02*
X24592953Y-9686300D01*
X24592953Y-9834100D02*
X24622953Y-9864100D01*
X24622953Y-9834100D02*
X24592953Y-9864100D01*
X24592953Y-10011900D02*
X24622953Y-10041900D01*
X24622953Y-10011900D02*
X24592953Y-10041900D01*
X24592953Y-10189700D02*
X24622953Y-10219700D01*
X24622953Y-10189700D02*
X24592953Y-10219700D01*
X24592953Y-10367500D02*
X24622953Y-10397500D01*
X24622953Y-10367500D02*
X24592953Y-10397500D01*
X24592953Y-10545300D02*
X24622953Y-10575300D01*
X24622953Y-10545300D02*
X24592953Y-10575300D01*
X24592953Y-10723100D02*
X24622953Y-10753100D01*
X24622953Y-10723100D02*
X24592953Y-10753100D01*
X24592953Y-10900900D02*
X24622953Y-10930900D01*
X24622953Y-10900900D02*
X24592953Y-10930900D01*
X24608193Y-5902180D02*
X24638193Y-5932180D01*
X24638193Y-5902180D02*
X24608193Y-5932180D01*
X24618353Y-11205700D02*
X24648353Y-11235700D01*
X24648353Y-11205700D02*
X24618353Y-11235700D01*
X24643753Y-6151100D02*
X24673753Y-6181100D01*
X24673753Y-6151100D02*
X24643753Y-6181100D01*
X24643753Y-11485100D02*
X24673753Y-11515100D01*
X24673753Y-11485100D02*
X24643753Y-11515100D01*
X24664073Y-7029940D02*
X24694073Y-7059940D01*
X24694073Y-7029940D02*
X24664073Y-7059940D01*
X24669153Y-7827500D02*
X24699153Y-7857500D01*
X24699153Y-7827500D02*
X24669153Y-7857500D01*
X24684393Y-4936980D02*
X24714393Y-4966980D01*
X24714393Y-4936980D02*
X24684393Y-4966980D01*
X24694553Y-6481300D02*
X24724553Y-6511300D01*
X24724553Y-6481300D02*
X24694553Y-6511300D01*
X24719953Y-11840700D02*
X24749953Y-11870700D01*
X24749953Y-11840700D02*
X24719953Y-11870700D01*
X24725033Y-2915140D02*
X24755033Y-2945140D01*
X24755033Y-2915140D02*
X24725033Y-2945140D01*
X24755513Y-4484860D02*
X24785513Y-4514860D01*
X24785513Y-4484860D02*
X24755513Y-4514860D01*
X24796153Y-7700500D02*
X24826153Y-7730500D01*
X24826153Y-7700500D02*
X24796153Y-7730500D01*
X24806313Y-3621260D02*
X24836313Y-3651260D01*
X24836313Y-3621260D02*
X24806313Y-3651260D01*
X24897753Y-11866100D02*
X24927753Y-11896100D01*
X24927753Y-11866100D02*
X24897753Y-11896100D01*
X24948553Y-7548100D02*
X24978553Y-7578100D01*
X24978553Y-7548100D02*
X24948553Y-7578100D01*
X24968873Y-2346180D02*
X24998873Y-2376180D01*
X24998873Y-2346180D02*
X24968873Y-2376180D01*
X24973953Y-6328900D02*
X25003953Y-6358900D01*
X25003953Y-6328900D02*
X24973953Y-6358900D01*
X24989193Y-11093940D02*
X25019193Y-11123940D01*
X25019193Y-11093940D02*
X24989193Y-11123940D01*
X24999353Y-8157700D02*
X25029353Y-8187700D01*
X25029353Y-8157700D02*
X24999353Y-8187700D01*
X24999353Y-8386300D02*
X25029353Y-8416300D01*
X25029353Y-8386300D02*
X24999353Y-8416300D01*
X24999353Y-8614900D02*
X25029353Y-8644900D01*
X25029353Y-8614900D02*
X24999353Y-8644900D01*
X24999353Y-8894300D02*
X25029353Y-8924300D01*
X25029353Y-8894300D02*
X24999353Y-8924300D01*
X24999353Y-9122900D02*
X25029353Y-9152900D01*
X25029353Y-9122900D02*
X24999353Y-9152900D01*
X24999353Y-9326100D02*
X25029353Y-9356100D01*
X25029353Y-9326100D02*
X24999353Y-9356100D01*
X24999353Y-9529300D02*
X25029353Y-9559300D01*
X25029353Y-9529300D02*
X24999353Y-9559300D01*
X24999353Y-9732500D02*
X25029353Y-9762500D01*
X25029353Y-9732500D02*
X24999353Y-9762500D01*
X24999353Y-9884900D02*
X25029353Y-9914900D01*
X25029353Y-9884900D02*
X24999353Y-9914900D01*
X24999353Y-10062700D02*
X25029353Y-10092700D01*
X25029353Y-10062700D02*
X24999353Y-10092700D01*
X24999353Y-10265900D02*
X25029353Y-10295900D01*
X25029353Y-10265900D02*
X24999353Y-10295900D01*
X24999353Y-10494500D02*
X25029353Y-10524500D01*
X25029353Y-10494500D02*
X24999353Y-10524500D01*
X24999353Y-10697700D02*
X25029353Y-10727700D01*
X25029353Y-10697700D02*
X24999353Y-10727700D01*
X25024753Y-7979900D02*
X25054753Y-8009900D01*
X25054753Y-7979900D02*
X25024753Y-8009900D01*
X25100953Y-6633700D02*
X25130953Y-6663700D01*
X25130953Y-6633700D02*
X25100953Y-6663700D01*
X25100953Y-7395700D02*
X25130953Y-7425700D01*
X25130953Y-7395700D02*
X25100953Y-7425700D01*
X25126353Y-11739100D02*
X25156353Y-11769100D01*
X25156353Y-11739100D02*
X25126353Y-11769100D01*
X25126353Y-11866100D02*
X25156353Y-11896100D01*
X25156353Y-11866100D02*
X25126353Y-11896100D01*
X25166993Y-2163300D02*
X25196993Y-2193300D01*
X25196993Y-2163300D02*
X25166993Y-2193300D01*
X25166993Y-5597380D02*
X25196993Y-5627380D01*
X25196993Y-5597380D02*
X25166993Y-5627380D01*
X25177153Y-7802100D02*
X25207153Y-7832100D01*
X25207153Y-7802100D02*
X25177153Y-7832100D01*
X25189853Y-11406360D02*
X25219853Y-11436360D01*
X25219853Y-11406360D02*
X25189853Y-11436360D01*
X25202553Y-3606020D02*
X25232553Y-3636020D01*
X25232553Y-3606020D02*
X25202553Y-3636020D01*
X25227953Y-7268700D02*
X25257953Y-7298700D01*
X25257953Y-7268700D02*
X25227953Y-7298700D01*
X25248273Y-4368020D02*
X25278273Y-4398020D01*
X25278273Y-4368020D02*
X25248273Y-4398020D01*
X25253353Y-2813540D02*
X25283353Y-2843540D01*
X25283353Y-2813540D02*
X25253353Y-2843540D01*
X25311773Y-11337780D02*
X25341773Y-11367780D01*
X25341773Y-11337780D02*
X25311773Y-11367780D01*
X25329553Y-11866100D02*
X25359553Y-11896100D01*
X25359553Y-11866100D02*
X25329553Y-11896100D01*
X25365113Y-11398740D02*
X25395113Y-11428740D01*
X25395113Y-11398740D02*
X25365113Y-11428740D01*
X25375273Y-4916660D02*
X25405273Y-4946660D01*
X25405273Y-4916660D02*
X25375273Y-4946660D01*
X25405753Y-7675100D02*
X25435753Y-7705100D01*
X25435753Y-7675100D02*
X25405753Y-7705100D01*
X25431153Y-6054580D02*
X25461153Y-6084580D01*
X25461153Y-6054580D02*
X25431153Y-6084580D01*
X25461895Y-11335240D02*
X25491895Y-11365240D01*
X25491895Y-11335240D02*
X25461895Y-11365240D01*
X25507353Y-11866100D02*
X25537353Y-11896100D01*
X25537353Y-11866100D02*
X25507353Y-11896100D01*
X25542913Y-11383500D02*
X25572913Y-11413500D01*
X25572913Y-11383500D02*
X25542913Y-11413500D01*
X25659753Y-4840460D02*
X25689753Y-4870460D01*
X25689753Y-4840460D02*
X25659753Y-4870460D01*
X25659753Y-8360900D02*
X25689753Y-8390900D01*
X25689753Y-8360900D02*
X25659753Y-8390900D01*
X25659753Y-8538700D02*
X25689753Y-8568700D01*
X25689753Y-8538700D02*
X25659753Y-8568700D01*
X25659753Y-8716500D02*
X25689753Y-8746500D01*
X25689753Y-8716500D02*
X25659753Y-8746500D01*
X25659753Y-8894300D02*
X25689753Y-8924300D01*
X25689753Y-8894300D02*
X25659753Y-8924300D01*
X25659753Y-9072100D02*
X25689753Y-9102100D01*
X25689753Y-9072100D02*
X25659753Y-9102100D01*
X25659753Y-9249900D02*
X25689753Y-9279900D01*
X25689753Y-9249900D02*
X25659753Y-9279900D01*
X25659753Y-9427700D02*
X25689753Y-9457700D01*
X25689753Y-9427700D02*
X25659753Y-9457700D01*
X25659753Y-9605500D02*
X25689753Y-9635500D01*
X25689753Y-9605500D02*
X25659753Y-9635500D01*
X25659753Y-9783300D02*
X25689753Y-9813300D01*
X25689753Y-9783300D02*
X25659753Y-9813300D01*
X25659753Y-9961100D02*
X25689753Y-9991100D01*
X25689753Y-9961100D02*
X25659753Y-9991100D01*
X25659753Y-10138900D02*
X25689753Y-10168900D01*
X25689753Y-10138900D02*
X25659753Y-10168900D01*
X25659753Y-10316700D02*
X25689753Y-10346700D01*
X25689753Y-10316700D02*
X25659753Y-10346700D01*
X25659753Y-10494500D02*
X25689753Y-10524500D01*
X25689753Y-10494500D02*
X25659753Y-10524500D01*
X25659753Y-11688300D02*
X25689753Y-11718300D01*
X25689753Y-11688300D02*
X25659753Y-11718300D01*
X25659753Y-11866100D02*
X25689753Y-11896100D01*
X25689753Y-11866100D02*
X25659753Y-11896100D01*
X25695313Y-11083780D02*
X25725313Y-11113780D01*
X25725313Y-11083780D02*
X25695313Y-11113780D01*
X25730873Y-2671300D02*
X25760873Y-2701300D01*
X25760873Y-2671300D02*
X25730873Y-2701300D01*
X25730873Y-4205460D02*
X25760873Y-4235460D01*
X25760873Y-4205460D02*
X25730873Y-4235460D01*
X25730873Y-6420340D02*
X25760873Y-6450340D01*
X25760873Y-6420340D02*
X25730873Y-6450340D01*
X25741033Y-3433300D02*
X25771033Y-3463300D01*
X25771033Y-3433300D02*
X25741033Y-3463300D01*
X25777353Y-2231500D02*
X25807353Y-2261500D01*
X25807353Y-2231500D02*
X25777353Y-2261500D01*
X25812153Y-11485100D02*
X25842153Y-11515100D01*
X25842153Y-11485100D02*
X25812153Y-11515100D01*
X25817233Y-5495780D02*
X25847233Y-5525780D01*
X25847233Y-5495780D02*
X25817233Y-5525780D01*
X25888353Y-7344900D02*
X25918353Y-7374900D01*
X25918353Y-7344900D02*
X25888353Y-7374900D01*
X25888353Y-7522700D02*
X25918353Y-7552700D01*
X25918353Y-7522700D02*
X25888353Y-7552700D01*
X25888353Y-7700500D02*
X25918353Y-7730500D01*
X25918353Y-7700500D02*
X25888353Y-7730500D01*
X25888353Y-7878300D02*
X25918353Y-7908300D01*
X25918353Y-7878300D02*
X25888353Y-7908300D01*
X25888353Y-8056100D02*
X25918353Y-8086100D01*
X25918353Y-8056100D02*
X25888353Y-8086100D01*
X25888353Y-8233900D02*
X25918353Y-8263900D01*
X25918353Y-8233900D02*
X25888353Y-8263900D01*
X25888353Y-8411700D02*
X25918353Y-8441700D01*
X25918353Y-8411700D02*
X25888353Y-8441700D01*
X25888353Y-8589500D02*
X25918353Y-8619500D01*
X25918353Y-8589500D02*
X25888353Y-8619500D01*
X25888353Y-8767300D02*
X25918353Y-8797300D01*
X25918353Y-8767300D02*
X25888353Y-8797300D01*
X25888353Y-8945100D02*
X25918353Y-8975100D01*
X25918353Y-8945100D02*
X25888353Y-8975100D01*
X25888353Y-9122900D02*
X25918353Y-9152900D01*
X25918353Y-9122900D02*
X25888353Y-9152900D01*
X25888353Y-9300700D02*
X25918353Y-9330700D01*
X25918353Y-9300700D02*
X25888353Y-9330700D01*
X25888353Y-9478500D02*
X25918353Y-9508500D01*
X25918353Y-9478500D02*
X25888353Y-9508500D01*
X25888353Y-9656300D02*
X25918353Y-9686300D01*
X25918353Y-9656300D02*
X25888353Y-9686300D01*
X25888353Y-9834100D02*
X25918353Y-9864100D01*
X25918353Y-9834100D02*
X25888353Y-9864100D01*
X25888353Y-10011900D02*
X25918353Y-10041900D01*
X25918353Y-10011900D02*
X25888353Y-10041900D01*
X25888353Y-10189700D02*
X25918353Y-10219700D01*
X25918353Y-10189700D02*
X25888353Y-10219700D01*
X25888353Y-10367500D02*
X25918353Y-10397500D01*
X25918353Y-10367500D02*
X25888353Y-10397500D01*
X25888353Y-10545300D02*
X25918353Y-10575300D01*
X25918353Y-10545300D02*
X25888353Y-10575300D01*
X25888353Y-10723100D02*
X25918353Y-10753100D01*
X25918353Y-10723100D02*
X25888353Y-10753100D01*
X25888353Y-10900900D02*
X25918353Y-10930900D01*
X25918353Y-10900900D02*
X25888353Y-10930900D01*
X25888353Y-11078700D02*
X25918353Y-11108700D01*
X25918353Y-11078700D02*
X25888353Y-11108700D01*
X25888353Y-11866100D02*
X25918353Y-11896100D01*
X25918353Y-11866100D02*
X25888353Y-11896100D01*
D13*
X24999895Y-11280600D02*
G75*
G03*
X24999895Y-11280600I-30000J0D01*
G01*
D11*
X24939895Y-11225600D02*
X24939895Y-11335600D01*
X24939895Y-11335600D02*
G75*
G03*
X24999895Y-11335600I30000J0D01*
G01*
X24999895Y-11335600D02*
X24999895Y-11225600D01*
X24999895Y-11225600D02*
G75*
G03*
X24939895Y-11225600I-30000J0D01*
G01*
D13*
X24999895Y-11698600D02*
G75*
G03*
X24999895Y-11698600I-30000J0D01*
G01*
D11*
X24939895Y-11658600D02*
X24939895Y-11738600D01*
X24939895Y-11738600D02*
G75*
G03*
X24999895Y-11738600I30000J0D01*
G01*
X24999895Y-11738600D02*
X24999895Y-11658600D01*
X24999895Y-11658600D02*
G75*
G03*
X24939895Y-11658600I-30000J0D01*
G01*
D13*
X25863895Y-11280600D02*
G75*
G03*
X25863895Y-11280600I-30000J0D01*
G01*
D11*
X25803895Y-11225600D02*
X25803895Y-11335600D01*
X25803895Y-11335600D02*
G75*
G03*
X25863895Y-11335600I30000J0D01*
G01*
X25863895Y-11335600D02*
X25863895Y-11225600D01*
X25863895Y-11225600D02*
G75*
G03*
X25803895Y-11225600I-30000J0D01*
G01*
D13*
X25863895Y-11698600D02*
G75*
G03*
X25863895Y-11698600I-30000J0D01*
G01*
D11*
X25803895Y-11658600D02*
X25803895Y-11738600D01*
X25803895Y-11738600D02*
G75*
G03*
X25863895Y-11738600I30000J0D01*
G01*
X25863895Y-11738600D02*
X25863895Y-11658600D01*
X25863895Y-11658600D02*
G75*
G03*
X25803895Y-11658600I-30000J0D01*
G01*
D14*
X25629033Y-6570000D02*
X25629033Y-6645000D01*
X25591533Y-6607500D02*
X25666533Y-6607500D01*
X25629033Y-6770000D02*
X25629033Y-6845000D01*
X25591533Y-6807500D02*
X25666533Y-6807500D01*
X25629033Y-6970000D02*
X25629033Y-7045000D01*
X25591533Y-7007500D02*
X25666533Y-7007500D01*
X25629033Y-7170000D02*
X25629033Y-7245000D01*
X25591533Y-7207500D02*
X25666533Y-7207500D01*
X25629033Y-7370000D02*
X25629033Y-7445000D01*
X25591533Y-7407500D02*
X25666533Y-7407500D01*
X25629033Y-7570000D02*
X25629033Y-7645000D01*
X25591533Y-7607500D02*
X25666533Y-7607500D01*
X25629033Y-7770000D02*
X25629033Y-7845000D01*
X25591533Y-7807500D02*
X25666533Y-7807500D01*
X25629033Y-7970000D02*
X25629033Y-8045000D01*
X25591533Y-8007500D02*
X25666533Y-8007500D01*
D15*
X20589746Y-9744736D02*
X20589746Y-9638669D01*
X20483679Y-9638669D01*
X20483679Y-9744736D01*
X20589746Y-9744736D01*
X21224746Y-8644884D02*
X21224746Y-8538817D01*
X21118679Y-8538817D01*
X21118679Y-8644884D01*
X21224746Y-8644884D01*
X22018688Y-10569736D02*
X22018688Y-10463669D01*
X21912621Y-10463669D01*
X21912621Y-10569736D01*
X22018688Y-10569736D01*
X22653688Y-9469884D02*
X22653688Y-9363817D01*
X22547621Y-9363817D01*
X22547621Y-9469884D01*
X22653688Y-9469884D01*
D16*
X16638895Y-2940900D02*
X16728895Y-2850900D01*
X16638895Y-2760900D01*
X16548895Y-2850900D01*
X16638895Y-2940900D01*
X17168895Y-2515900D02*
X17258895Y-2425900D01*
X17168895Y-2335900D01*
X17078895Y-2425900D01*
X17168895Y-2515900D01*
X17168895Y-3065900D02*
X17258895Y-2975900D01*
X17168895Y-2885900D01*
X17078895Y-2975900D01*
X17168895Y-3065900D01*
D11*
X16265824Y-12274324D02*
X16265824Y-12074324D01*
X16265824Y-12074324D02*
X16313443Y-12074324D01*
X16313443Y-12074324D02*
X16342014Y-12083848D01*
X16342014Y-12083848D02*
X16361062Y-12102895D01*
X16361062Y-12102895D02*
X16370586Y-12121943D01*
X16370586Y-12121943D02*
X16380109Y-12160038D01*
X16380109Y-12160038D02*
X16380109Y-12188609D01*
X16380109Y-12188609D02*
X16370586Y-12226705D01*
X16370586Y-12226705D02*
X16361062Y-12245752D01*
X16361062Y-12245752D02*
X16342014Y-12264800D01*
X16342014Y-12264800D02*
X16313443Y-12274324D01*
X16313443Y-12274324D02*
X16265824Y-12274324D01*
X16465824Y-12274324D02*
X16465824Y-12140990D01*
X16465824Y-12179086D02*
X16475347Y-12160038D01*
X16475347Y-12160038D02*
X16484871Y-12150514D01*
X16484871Y-12150514D02*
X16503919Y-12140990D01*
X16503919Y-12140990D02*
X16522967Y-12140990D01*
X16589633Y-12274324D02*
X16589633Y-12140990D01*
X16589633Y-12074324D02*
X16580109Y-12083848D01*
X16580109Y-12083848D02*
X16589633Y-12093371D01*
X16589633Y-12093371D02*
X16599157Y-12083848D01*
X16599157Y-12083848D02*
X16589633Y-12074324D01*
X16589633Y-12074324D02*
X16589633Y-12093371D01*
X16713443Y-12274324D02*
X16694395Y-12264800D01*
X16694395Y-12264800D02*
X16684871Y-12245752D01*
X16684871Y-12245752D02*
X16684871Y-12074324D01*
X16818205Y-12274324D02*
X16799157Y-12264800D01*
X16799157Y-12264800D02*
X16789633Y-12245752D01*
X16789633Y-12245752D02*
X16789633Y-12074324D01*
X17046776Y-12274324D02*
X17046776Y-12074324D01*
X17046776Y-12074324D02*
X17113443Y-12217181D01*
X17113443Y-12217181D02*
X17180109Y-12074324D01*
X17180109Y-12074324D02*
X17180109Y-12274324D01*
X17361062Y-12274324D02*
X17361062Y-12169562D01*
X17361062Y-12169562D02*
X17351538Y-12150514D01*
X17351538Y-12150514D02*
X17332490Y-12140990D01*
X17332490Y-12140990D02*
X17294395Y-12140990D01*
X17294395Y-12140990D02*
X17275348Y-12150514D01*
X17361062Y-12264800D02*
X17342014Y-12274324D01*
X17342014Y-12274324D02*
X17294395Y-12274324D01*
X17294395Y-12274324D02*
X17275348Y-12264800D01*
X17275348Y-12264800D02*
X17265824Y-12245752D01*
X17265824Y-12245752D02*
X17265824Y-12226705D01*
X17265824Y-12226705D02*
X17275348Y-12207657D01*
X17275348Y-12207657D02*
X17294395Y-12198133D01*
X17294395Y-12198133D02*
X17342014Y-12198133D01*
X17342014Y-12198133D02*
X17361062Y-12188609D01*
X17456300Y-12140990D02*
X17456300Y-12340990D01*
X17456300Y-12150514D02*
X17475348Y-12140990D01*
X17475348Y-12140990D02*
X17513443Y-12140990D01*
X17513443Y-12140990D02*
X17532490Y-12150514D01*
X17532490Y-12150514D02*
X17542014Y-12160038D01*
X17542014Y-12160038D02*
X17551538Y-12179086D01*
X17551538Y-12179086D02*
X17551538Y-12236228D01*
X17551538Y-12236228D02*
X17542014Y-12255276D01*
X17542014Y-12255276D02*
X17532490Y-12264800D01*
X17532490Y-12264800D02*
X17513443Y-12274324D01*
X17513443Y-12274324D02*
X17475348Y-12274324D01*
X17475348Y-12274324D02*
X17456300Y-12264800D01*
X17637252Y-12255276D02*
X17646776Y-12264800D01*
X17646776Y-12264800D02*
X17637252Y-12274324D01*
X17637252Y-12274324D02*
X17627729Y-12264800D01*
X17627729Y-12264800D02*
X17637252Y-12255276D01*
X17637252Y-12255276D02*
X17637252Y-12274324D01*
X17637252Y-12150514D02*
X17646776Y-12160038D01*
X17646776Y-12160038D02*
X17637252Y-12169562D01*
X17637252Y-12169562D02*
X17627729Y-12160038D01*
X17627729Y-12160038D02*
X17637252Y-12150514D01*
X17637252Y-12150514D02*
X17637252Y-12169562D01*
D12*
X15988205Y-12586800D02*
X16018205Y-12616800D01*
X16018205Y-12586800D02*
X15988205Y-12616800D01*
D11*
X16303919Y-12494324D02*
X16322967Y-12494324D01*
X16322967Y-12494324D02*
X16342014Y-12503848D01*
X16342014Y-12503848D02*
X16351538Y-12513371D01*
X16351538Y-12513371D02*
X16361062Y-12532419D01*
X16361062Y-12532419D02*
X16370586Y-12570514D01*
X16370586Y-12570514D02*
X16370586Y-12618133D01*
X16370586Y-12618133D02*
X16361062Y-12656228D01*
X16361062Y-12656228D02*
X16351538Y-12675276D01*
X16351538Y-12675276D02*
X16342014Y-12684800D01*
X16342014Y-12684800D02*
X16322967Y-12694324D01*
X16322967Y-12694324D02*
X16303919Y-12694324D01*
X16303919Y-12694324D02*
X16284871Y-12684800D01*
X16284871Y-12684800D02*
X16275347Y-12675276D01*
X16275347Y-12675276D02*
X16265824Y-12656228D01*
X16265824Y-12656228D02*
X16256300Y-12618133D01*
X16256300Y-12618133D02*
X16256300Y-12570514D01*
X16256300Y-12570514D02*
X16265824Y-12532419D01*
X16265824Y-12532419D02*
X16275347Y-12513371D01*
X16275347Y-12513371D02*
X16284871Y-12503848D01*
X16284871Y-12503848D02*
X16303919Y-12494324D01*
X16456300Y-12675276D02*
X16465824Y-12684800D01*
X16465824Y-12684800D02*
X16456300Y-12694324D01*
X16456300Y-12694324D02*
X16446776Y-12684800D01*
X16446776Y-12684800D02*
X16456300Y-12675276D01*
X16456300Y-12675276D02*
X16456300Y-12694324D01*
X16532490Y-12494324D02*
X16656300Y-12494324D01*
X16656300Y-12494324D02*
X16589633Y-12570514D01*
X16589633Y-12570514D02*
X16618205Y-12570514D01*
X16618205Y-12570514D02*
X16637252Y-12580038D01*
X16637252Y-12580038D02*
X16646776Y-12589562D01*
X16646776Y-12589562D02*
X16656300Y-12608609D01*
X16656300Y-12608609D02*
X16656300Y-12656228D01*
X16656300Y-12656228D02*
X16646776Y-12675276D01*
X16646776Y-12675276D02*
X16637252Y-12684800D01*
X16637252Y-12684800D02*
X16618205Y-12694324D01*
X16618205Y-12694324D02*
X16561062Y-12694324D01*
X16561062Y-12694324D02*
X16542014Y-12684800D01*
X16542014Y-12684800D02*
X16532490Y-12675276D01*
X16780109Y-12494324D02*
X16799157Y-12494324D01*
X16799157Y-12494324D02*
X16818205Y-12503848D01*
X16818205Y-12503848D02*
X16827729Y-12513371D01*
X16827729Y-12513371D02*
X16837252Y-12532419D01*
X16837252Y-12532419D02*
X16846776Y-12570514D01*
X16846776Y-12570514D02*
X16846776Y-12618133D01*
X16846776Y-12618133D02*
X16837252Y-12656228D01*
X16837252Y-12656228D02*
X16827729Y-12675276D01*
X16827729Y-12675276D02*
X16818205Y-12684800D01*
X16818205Y-12684800D02*
X16799157Y-12694324D01*
X16799157Y-12694324D02*
X16780109Y-12694324D01*
X16780109Y-12694324D02*
X16761062Y-12684800D01*
X16761062Y-12684800D02*
X16751538Y-12675276D01*
X16751538Y-12675276D02*
X16742014Y-12656228D01*
X16742014Y-12656228D02*
X16732490Y-12618133D01*
X16732490Y-12618133D02*
X16732490Y-12570514D01*
X16732490Y-12570514D02*
X16742014Y-12532419D01*
X16742014Y-12532419D02*
X16751538Y-12513371D01*
X16751538Y-12513371D02*
X16761062Y-12503848D01*
X16761062Y-12503848D02*
X16780109Y-12494324D01*
X16970586Y-12494324D02*
X16989633Y-12494324D01*
X16989633Y-12494324D02*
X17008681Y-12503848D01*
X17008681Y-12503848D02*
X17018205Y-12513371D01*
X17018205Y-12513371D02*
X17027729Y-12532419D01*
X17027729Y-12532419D02*
X17037252Y-12570514D01*
X17037252Y-12570514D02*
X17037252Y-12618133D01*
X17037252Y-12618133D02*
X17027729Y-12656228D01*
X17027729Y-12656228D02*
X17018205Y-12675276D01*
X17018205Y-12675276D02*
X17008681Y-12684800D01*
X17008681Y-12684800D02*
X16989633Y-12694324D01*
X16989633Y-12694324D02*
X16970586Y-12694324D01*
X16970586Y-12694324D02*
X16951538Y-12684800D01*
X16951538Y-12684800D02*
X16942014Y-12675276D01*
X16942014Y-12675276D02*
X16932490Y-12656228D01*
X16932490Y-12656228D02*
X16922967Y-12618133D01*
X16922967Y-12618133D02*
X16922967Y-12570514D01*
X16922967Y-12570514D02*
X16932490Y-12532419D01*
X16932490Y-12532419D02*
X16942014Y-12513371D01*
X16942014Y-12513371D02*
X16951538Y-12503848D01*
X16951538Y-12503848D02*
X16970586Y-12494324D01*
X17122967Y-12694324D02*
X17122967Y-12560990D01*
X17122967Y-12580038D02*
X17132490Y-12570514D01*
X17132490Y-12570514D02*
X17151538Y-12560990D01*
X17151538Y-12560990D02*
X17180110Y-12560990D01*
X17180110Y-12560990D02*
X17199157Y-12570514D01*
X17199157Y-12570514D02*
X17208681Y-12589562D01*
X17208681Y-12589562D02*
X17208681Y-12694324D01*
X17208681Y-12589562D02*
X17218205Y-12570514D01*
X17218205Y-12570514D02*
X17237252Y-12560990D01*
X17237252Y-12560990D02*
X17265824Y-12560990D01*
X17265824Y-12560990D02*
X17284871Y-12570514D01*
X17284871Y-12570514D02*
X17294395Y-12589562D01*
X17294395Y-12589562D02*
X17294395Y-12694324D01*
X17389633Y-12694324D02*
X17389633Y-12560990D01*
X17389633Y-12580038D02*
X17399157Y-12570514D01*
X17399157Y-12570514D02*
X17418205Y-12560990D01*
X17418205Y-12560990D02*
X17446776Y-12560990D01*
X17446776Y-12560990D02*
X17465824Y-12570514D01*
X17465824Y-12570514D02*
X17475348Y-12589562D01*
X17475348Y-12589562D02*
X17475348Y-12694324D01*
X17475348Y-12589562D02*
X17484871Y-12570514D01*
X17484871Y-12570514D02*
X17503919Y-12560990D01*
X17503919Y-12560990D02*
X17532490Y-12560990D01*
X17532490Y-12560990D02*
X17551538Y-12570514D01*
X17551538Y-12570514D02*
X17561062Y-12589562D01*
X17561062Y-12589562D02*
X17561062Y-12694324D01*
X17951538Y-12484800D02*
X17780110Y-12741943D01*
X18208681Y-12494324D02*
X18227729Y-12494324D01*
X18227729Y-12494324D02*
X18246776Y-12503848D01*
X18246776Y-12503848D02*
X18256300Y-12513371D01*
X18256300Y-12513371D02*
X18265824Y-12532419D01*
X18265824Y-12532419D02*
X18275348Y-12570514D01*
X18275348Y-12570514D02*
X18275348Y-12618133D01*
X18275348Y-12618133D02*
X18265824Y-12656228D01*
X18265824Y-12656228D02*
X18256300Y-12675276D01*
X18256300Y-12675276D02*
X18246776Y-12684800D01*
X18246776Y-12684800D02*
X18227729Y-12694324D01*
X18227729Y-12694324D02*
X18208681Y-12694324D01*
X18208681Y-12694324D02*
X18189633Y-12684800D01*
X18189633Y-12684800D02*
X18180110Y-12675276D01*
X18180110Y-12675276D02*
X18170586Y-12656228D01*
X18170586Y-12656228D02*
X18161062Y-12618133D01*
X18161062Y-12618133D02*
X18161062Y-12570514D01*
X18161062Y-12570514D02*
X18170586Y-12532419D01*
X18170586Y-12532419D02*
X18180110Y-12513371D01*
X18180110Y-12513371D02*
X18189633Y-12503848D01*
X18189633Y-12503848D02*
X18208681Y-12494324D01*
X18361062Y-12675276D02*
X18370586Y-12684800D01*
X18370586Y-12684800D02*
X18361062Y-12694324D01*
X18361062Y-12694324D02*
X18351538Y-12684800D01*
X18351538Y-12684800D02*
X18361062Y-12675276D01*
X18361062Y-12675276D02*
X18361062Y-12694324D01*
X18494395Y-12494324D02*
X18513443Y-12494324D01*
X18513443Y-12494324D02*
X18532491Y-12503848D01*
X18532491Y-12503848D02*
X18542014Y-12513371D01*
X18542014Y-12513371D02*
X18551538Y-12532419D01*
X18551538Y-12532419D02*
X18561062Y-12570514D01*
X18561062Y-12570514D02*
X18561062Y-12618133D01*
X18561062Y-12618133D02*
X18551538Y-12656228D01*
X18551538Y-12656228D02*
X18542014Y-12675276D01*
X18542014Y-12675276D02*
X18532491Y-12684800D01*
X18532491Y-12684800D02*
X18513443Y-12694324D01*
X18513443Y-12694324D02*
X18494395Y-12694324D01*
X18494395Y-12694324D02*
X18475348Y-12684800D01*
X18475348Y-12684800D02*
X18465824Y-12675276D01*
X18465824Y-12675276D02*
X18456300Y-12656228D01*
X18456300Y-12656228D02*
X18446776Y-12618133D01*
X18446776Y-12618133D02*
X18446776Y-12570514D01*
X18446776Y-12570514D02*
X18456300Y-12532419D01*
X18456300Y-12532419D02*
X18465824Y-12513371D01*
X18465824Y-12513371D02*
X18475348Y-12503848D01*
X18475348Y-12503848D02*
X18494395Y-12494324D01*
X18751538Y-12694324D02*
X18637253Y-12694324D01*
X18694395Y-12694324D02*
X18694395Y-12494324D01*
X18694395Y-12494324D02*
X18675348Y-12522895D01*
X18675348Y-12522895D02*
X18656300Y-12541943D01*
X18656300Y-12541943D02*
X18637253Y-12551467D01*
X18942014Y-12694324D02*
X18827729Y-12694324D01*
X18884872Y-12694324D02*
X18884872Y-12494324D01*
X18884872Y-12494324D02*
X18865824Y-12522895D01*
X18865824Y-12522895D02*
X18846776Y-12541943D01*
X18846776Y-12541943D02*
X18827729Y-12551467D01*
X19056300Y-12580038D02*
X19037253Y-12570514D01*
X19037253Y-12570514D02*
X19027729Y-12560990D01*
X19027729Y-12560990D02*
X19018205Y-12541943D01*
X19018205Y-12541943D02*
X19018205Y-12532419D01*
X19018205Y-12532419D02*
X19027729Y-12513371D01*
X19027729Y-12513371D02*
X19037253Y-12503848D01*
X19037253Y-12503848D02*
X19056300Y-12494324D01*
X19056300Y-12494324D02*
X19094395Y-12494324D01*
X19094395Y-12494324D02*
X19113443Y-12503848D01*
X19113443Y-12503848D02*
X19122967Y-12513371D01*
X19122967Y-12513371D02*
X19132491Y-12532419D01*
X19132491Y-12532419D02*
X19132491Y-12541943D01*
X19132491Y-12541943D02*
X19122967Y-12560990D01*
X19122967Y-12560990D02*
X19113443Y-12570514D01*
X19113443Y-12570514D02*
X19094395Y-12580038D01*
X19094395Y-12580038D02*
X19056300Y-12580038D01*
X19056300Y-12580038D02*
X19037253Y-12589562D01*
X19037253Y-12589562D02*
X19027729Y-12599086D01*
X19027729Y-12599086D02*
X19018205Y-12618133D01*
X19018205Y-12618133D02*
X19018205Y-12656228D01*
X19018205Y-12656228D02*
X19027729Y-12675276D01*
X19027729Y-12675276D02*
X19037253Y-12684800D01*
X19037253Y-12684800D02*
X19056300Y-12694324D01*
X19056300Y-12694324D02*
X19094395Y-12694324D01*
X19094395Y-12694324D02*
X19113443Y-12684800D01*
X19113443Y-12684800D02*
X19122967Y-12675276D01*
X19122967Y-12675276D02*
X19132491Y-12656228D01*
X19132491Y-12656228D02*
X19132491Y-12618133D01*
X19132491Y-12618133D02*
X19122967Y-12599086D01*
X19122967Y-12599086D02*
X19113443Y-12589562D01*
X19113443Y-12589562D02*
X19094395Y-12580038D01*
X19208681Y-12494324D02*
X19208681Y-12532419D01*
X19284872Y-12494324D02*
X19284872Y-12532419D01*
X19580110Y-12770514D02*
X19570586Y-12760990D01*
X19570586Y-12760990D02*
X19551538Y-12732419D01*
X19551538Y-12732419D02*
X19542015Y-12713371D01*
X19542015Y-12713371D02*
X19532491Y-12684800D01*
X19532491Y-12684800D02*
X19522967Y-12637181D01*
X19522967Y-12637181D02*
X19522967Y-12599086D01*
X19522967Y-12599086D02*
X19532491Y-12551467D01*
X19532491Y-12551467D02*
X19542015Y-12522895D01*
X19542015Y-12522895D02*
X19551538Y-12503848D01*
X19551538Y-12503848D02*
X19570586Y-12475276D01*
X19570586Y-12475276D02*
X19580110Y-12465752D01*
X19742015Y-12560990D02*
X19742015Y-12694324D01*
X19694395Y-12484800D02*
X19646776Y-12627657D01*
X19646776Y-12627657D02*
X19770586Y-12627657D01*
X19837253Y-12513371D02*
X19846776Y-12503848D01*
X19846776Y-12503848D02*
X19865824Y-12494324D01*
X19865824Y-12494324D02*
X19913443Y-12494324D01*
X19913443Y-12494324D02*
X19932491Y-12503848D01*
X19932491Y-12503848D02*
X19942015Y-12513371D01*
X19942015Y-12513371D02*
X19951538Y-12532419D01*
X19951538Y-12532419D02*
X19951538Y-12551467D01*
X19951538Y-12551467D02*
X19942015Y-12580038D01*
X19942015Y-12580038D02*
X19827729Y-12694324D01*
X19827729Y-12694324D02*
X19951538Y-12694324D01*
X20142015Y-12694324D02*
X20027729Y-12694324D01*
X20084872Y-12694324D02*
X20084872Y-12494324D01*
X20084872Y-12494324D02*
X20065824Y-12522895D01*
X20065824Y-12522895D02*
X20046776Y-12541943D01*
X20046776Y-12541943D02*
X20027729Y-12551467D01*
X20380110Y-12694324D02*
X20380110Y-12494324D01*
X20465824Y-12694324D02*
X20465824Y-12589562D01*
X20465824Y-12589562D02*
X20456300Y-12570514D01*
X20456300Y-12570514D02*
X20437253Y-12560990D01*
X20437253Y-12560990D02*
X20408681Y-12560990D01*
X20408681Y-12560990D02*
X20389634Y-12570514D01*
X20389634Y-12570514D02*
X20380110Y-12580038D01*
X20589634Y-12694324D02*
X20570586Y-12684800D01*
X20570586Y-12684800D02*
X20561062Y-12675276D01*
X20561062Y-12675276D02*
X20551538Y-12656228D01*
X20551538Y-12656228D02*
X20551538Y-12599086D01*
X20551538Y-12599086D02*
X20561062Y-12580038D01*
X20561062Y-12580038D02*
X20570586Y-12570514D01*
X20570586Y-12570514D02*
X20589634Y-12560990D01*
X20589634Y-12560990D02*
X20618205Y-12560990D01*
X20618205Y-12560990D02*
X20637253Y-12570514D01*
X20637253Y-12570514D02*
X20646777Y-12580038D01*
X20646777Y-12580038D02*
X20656300Y-12599086D01*
X20656300Y-12599086D02*
X20656300Y-12656228D01*
X20656300Y-12656228D02*
X20646777Y-12675276D01*
X20646777Y-12675276D02*
X20637253Y-12684800D01*
X20637253Y-12684800D02*
X20618205Y-12694324D01*
X20618205Y-12694324D02*
X20589634Y-12694324D01*
X20770586Y-12694324D02*
X20751538Y-12684800D01*
X20751538Y-12684800D02*
X20742015Y-12665752D01*
X20742015Y-12665752D02*
X20742015Y-12494324D01*
X20922967Y-12684800D02*
X20903919Y-12694324D01*
X20903919Y-12694324D02*
X20865824Y-12694324D01*
X20865824Y-12694324D02*
X20846777Y-12684800D01*
X20846777Y-12684800D02*
X20837253Y-12665752D01*
X20837253Y-12665752D02*
X20837253Y-12589562D01*
X20837253Y-12589562D02*
X20846777Y-12570514D01*
X20846777Y-12570514D02*
X20865824Y-12560990D01*
X20865824Y-12560990D02*
X20903919Y-12560990D01*
X20903919Y-12560990D02*
X20922967Y-12570514D01*
X20922967Y-12570514D02*
X20932491Y-12589562D01*
X20932491Y-12589562D02*
X20932491Y-12608609D01*
X20932491Y-12608609D02*
X20837253Y-12627657D01*
X21008681Y-12684800D02*
X21027729Y-12694324D01*
X21027729Y-12694324D02*
X21065824Y-12694324D01*
X21065824Y-12694324D02*
X21084872Y-12684800D01*
X21084872Y-12684800D02*
X21094396Y-12665752D01*
X21094396Y-12665752D02*
X21094396Y-12656228D01*
X21094396Y-12656228D02*
X21084872Y-12637181D01*
X21084872Y-12637181D02*
X21065824Y-12627657D01*
X21065824Y-12627657D02*
X21037253Y-12627657D01*
X21037253Y-12627657D02*
X21018205Y-12618133D01*
X21018205Y-12618133D02*
X21008681Y-12599086D01*
X21008681Y-12599086D02*
X21008681Y-12589562D01*
X21008681Y-12589562D02*
X21018205Y-12570514D01*
X21018205Y-12570514D02*
X21037253Y-12560990D01*
X21037253Y-12560990D02*
X21065824Y-12560990D01*
X21065824Y-12560990D02*
X21084872Y-12570514D01*
X21161062Y-12770514D02*
X21170586Y-12760990D01*
X21170586Y-12760990D02*
X21189634Y-12732419D01*
X21189634Y-12732419D02*
X21199158Y-12713371D01*
X21199158Y-12713371D02*
X21208681Y-12684800D01*
X21208681Y-12684800D02*
X21218205Y-12637181D01*
X21218205Y-12637181D02*
X21218205Y-12599086D01*
X21218205Y-12599086D02*
X21208681Y-12551467D01*
X21208681Y-12551467D02*
X21199158Y-12522895D01*
X21199158Y-12522895D02*
X21189634Y-12503848D01*
X21189634Y-12503848D02*
X21170586Y-12475276D01*
X21170586Y-12475276D02*
X21161062Y-12465752D01*
D13*
X16018205Y-12865800D02*
G75*
G03*
X16018205Y-12865800I-30000J0D01*
G01*
D11*
X16303919Y-12758324D02*
X16322967Y-12758324D01*
X16322967Y-12758324D02*
X16342014Y-12767848D01*
X16342014Y-12767848D02*
X16351538Y-12777371D01*
X16351538Y-12777371D02*
X16361062Y-12796419D01*
X16361062Y-12796419D02*
X16370586Y-12834514D01*
X16370586Y-12834514D02*
X16370586Y-12882133D01*
X16370586Y-12882133D02*
X16361062Y-12920228D01*
X16361062Y-12920228D02*
X16351538Y-12939276D01*
X16351538Y-12939276D02*
X16342014Y-12948800D01*
X16342014Y-12948800D02*
X16322967Y-12958324D01*
X16322967Y-12958324D02*
X16303919Y-12958324D01*
X16303919Y-12958324D02*
X16284871Y-12948800D01*
X16284871Y-12948800D02*
X16275347Y-12939276D01*
X16275347Y-12939276D02*
X16265824Y-12920228D01*
X16265824Y-12920228D02*
X16256300Y-12882133D01*
X16256300Y-12882133D02*
X16256300Y-12834514D01*
X16256300Y-12834514D02*
X16265824Y-12796419D01*
X16265824Y-12796419D02*
X16275347Y-12777371D01*
X16275347Y-12777371D02*
X16284871Y-12767848D01*
X16284871Y-12767848D02*
X16303919Y-12758324D01*
X16456300Y-12939276D02*
X16465824Y-12948800D01*
X16465824Y-12948800D02*
X16456300Y-12958324D01*
X16456300Y-12958324D02*
X16446776Y-12948800D01*
X16446776Y-12948800D02*
X16456300Y-12939276D01*
X16456300Y-12939276D02*
X16456300Y-12958324D01*
X16637252Y-12758324D02*
X16599157Y-12758324D01*
X16599157Y-12758324D02*
X16580109Y-12767848D01*
X16580109Y-12767848D02*
X16570586Y-12777371D01*
X16570586Y-12777371D02*
X16551538Y-12805943D01*
X16551538Y-12805943D02*
X16542014Y-12844038D01*
X16542014Y-12844038D02*
X16542014Y-12920228D01*
X16542014Y-12920228D02*
X16551538Y-12939276D01*
X16551538Y-12939276D02*
X16561062Y-12948800D01*
X16561062Y-12948800D02*
X16580109Y-12958324D01*
X16580109Y-12958324D02*
X16618205Y-12958324D01*
X16618205Y-12958324D02*
X16637252Y-12948800D01*
X16637252Y-12948800D02*
X16646776Y-12939276D01*
X16646776Y-12939276D02*
X16656300Y-12920228D01*
X16656300Y-12920228D02*
X16656300Y-12872609D01*
X16656300Y-12872609D02*
X16646776Y-12853562D01*
X16646776Y-12853562D02*
X16637252Y-12844038D01*
X16637252Y-12844038D02*
X16618205Y-12834514D01*
X16618205Y-12834514D02*
X16580109Y-12834514D01*
X16580109Y-12834514D02*
X16561062Y-12844038D01*
X16561062Y-12844038D02*
X16551538Y-12853562D01*
X16551538Y-12853562D02*
X16542014Y-12872609D01*
X16780109Y-12758324D02*
X16799157Y-12758324D01*
X16799157Y-12758324D02*
X16818205Y-12767848D01*
X16818205Y-12767848D02*
X16827729Y-12777371D01*
X16827729Y-12777371D02*
X16837252Y-12796419D01*
X16837252Y-12796419D02*
X16846776Y-12834514D01*
X16846776Y-12834514D02*
X16846776Y-12882133D01*
X16846776Y-12882133D02*
X16837252Y-12920228D01*
X16837252Y-12920228D02*
X16827729Y-12939276D01*
X16827729Y-12939276D02*
X16818205Y-12948800D01*
X16818205Y-12948800D02*
X16799157Y-12958324D01*
X16799157Y-12958324D02*
X16780109Y-12958324D01*
X16780109Y-12958324D02*
X16761062Y-12948800D01*
X16761062Y-12948800D02*
X16751538Y-12939276D01*
X16751538Y-12939276D02*
X16742014Y-12920228D01*
X16742014Y-12920228D02*
X16732490Y-12882133D01*
X16732490Y-12882133D02*
X16732490Y-12834514D01*
X16732490Y-12834514D02*
X16742014Y-12796419D01*
X16742014Y-12796419D02*
X16751538Y-12777371D01*
X16751538Y-12777371D02*
X16761062Y-12767848D01*
X16761062Y-12767848D02*
X16780109Y-12758324D01*
X16970586Y-12758324D02*
X16989633Y-12758324D01*
X16989633Y-12758324D02*
X17008681Y-12767848D01*
X17008681Y-12767848D02*
X17018205Y-12777371D01*
X17018205Y-12777371D02*
X17027729Y-12796419D01*
X17027729Y-12796419D02*
X17037252Y-12834514D01*
X17037252Y-12834514D02*
X17037252Y-12882133D01*
X17037252Y-12882133D02*
X17027729Y-12920228D01*
X17027729Y-12920228D02*
X17018205Y-12939276D01*
X17018205Y-12939276D02*
X17008681Y-12948800D01*
X17008681Y-12948800D02*
X16989633Y-12958324D01*
X16989633Y-12958324D02*
X16970586Y-12958324D01*
X16970586Y-12958324D02*
X16951538Y-12948800D01*
X16951538Y-12948800D02*
X16942014Y-12939276D01*
X16942014Y-12939276D02*
X16932490Y-12920228D01*
X16932490Y-12920228D02*
X16922967Y-12882133D01*
X16922967Y-12882133D02*
X16922967Y-12834514D01*
X16922967Y-12834514D02*
X16932490Y-12796419D01*
X16932490Y-12796419D02*
X16942014Y-12777371D01*
X16942014Y-12777371D02*
X16951538Y-12767848D01*
X16951538Y-12767848D02*
X16970586Y-12758324D01*
X17122967Y-12958324D02*
X17122967Y-12824990D01*
X17122967Y-12844038D02*
X17132490Y-12834514D01*
X17132490Y-12834514D02*
X17151538Y-12824990D01*
X17151538Y-12824990D02*
X17180110Y-12824990D01*
X17180110Y-12824990D02*
X17199157Y-12834514D01*
X17199157Y-12834514D02*
X17208681Y-12853562D01*
X17208681Y-12853562D02*
X17208681Y-12958324D01*
X17208681Y-12853562D02*
X17218205Y-12834514D01*
X17218205Y-12834514D02*
X17237252Y-12824990D01*
X17237252Y-12824990D02*
X17265824Y-12824990D01*
X17265824Y-12824990D02*
X17284871Y-12834514D01*
X17284871Y-12834514D02*
X17294395Y-12853562D01*
X17294395Y-12853562D02*
X17294395Y-12958324D01*
X17389633Y-12958324D02*
X17389633Y-12824990D01*
X17389633Y-12844038D02*
X17399157Y-12834514D01*
X17399157Y-12834514D02*
X17418205Y-12824990D01*
X17418205Y-12824990D02*
X17446776Y-12824990D01*
X17446776Y-12824990D02*
X17465824Y-12834514D01*
X17465824Y-12834514D02*
X17475348Y-12853562D01*
X17475348Y-12853562D02*
X17475348Y-12958324D01*
X17475348Y-12853562D02*
X17484871Y-12834514D01*
X17484871Y-12834514D02*
X17503919Y-12824990D01*
X17503919Y-12824990D02*
X17532490Y-12824990D01*
X17532490Y-12824990D02*
X17551538Y-12834514D01*
X17551538Y-12834514D02*
X17561062Y-12853562D01*
X17561062Y-12853562D02*
X17561062Y-12958324D01*
X17951538Y-12748800D02*
X17780110Y-13005943D01*
X18208681Y-12758324D02*
X18227729Y-12758324D01*
X18227729Y-12758324D02*
X18246776Y-12767848D01*
X18246776Y-12767848D02*
X18256300Y-12777371D01*
X18256300Y-12777371D02*
X18265824Y-12796419D01*
X18265824Y-12796419D02*
X18275348Y-12834514D01*
X18275348Y-12834514D02*
X18275348Y-12882133D01*
X18275348Y-12882133D02*
X18265824Y-12920228D01*
X18265824Y-12920228D02*
X18256300Y-12939276D01*
X18256300Y-12939276D02*
X18246776Y-12948800D01*
X18246776Y-12948800D02*
X18227729Y-12958324D01*
X18227729Y-12958324D02*
X18208681Y-12958324D01*
X18208681Y-12958324D02*
X18189633Y-12948800D01*
X18189633Y-12948800D02*
X18180110Y-12939276D01*
X18180110Y-12939276D02*
X18170586Y-12920228D01*
X18170586Y-12920228D02*
X18161062Y-12882133D01*
X18161062Y-12882133D02*
X18161062Y-12834514D01*
X18161062Y-12834514D02*
X18170586Y-12796419D01*
X18170586Y-12796419D02*
X18180110Y-12777371D01*
X18180110Y-12777371D02*
X18189633Y-12767848D01*
X18189633Y-12767848D02*
X18208681Y-12758324D01*
X18361062Y-12939276D02*
X18370586Y-12948800D01*
X18370586Y-12948800D02*
X18361062Y-12958324D01*
X18361062Y-12958324D02*
X18351538Y-12948800D01*
X18351538Y-12948800D02*
X18361062Y-12939276D01*
X18361062Y-12939276D02*
X18361062Y-12958324D01*
X18494395Y-12758324D02*
X18513443Y-12758324D01*
X18513443Y-12758324D02*
X18532491Y-12767848D01*
X18532491Y-12767848D02*
X18542014Y-12777371D01*
X18542014Y-12777371D02*
X18551538Y-12796419D01*
X18551538Y-12796419D02*
X18561062Y-12834514D01*
X18561062Y-12834514D02*
X18561062Y-12882133D01*
X18561062Y-12882133D02*
X18551538Y-12920228D01*
X18551538Y-12920228D02*
X18542014Y-12939276D01*
X18542014Y-12939276D02*
X18532491Y-12948800D01*
X18532491Y-12948800D02*
X18513443Y-12958324D01*
X18513443Y-12958324D02*
X18494395Y-12958324D01*
X18494395Y-12958324D02*
X18475348Y-12948800D01*
X18475348Y-12948800D02*
X18465824Y-12939276D01*
X18465824Y-12939276D02*
X18456300Y-12920228D01*
X18456300Y-12920228D02*
X18446776Y-12882133D01*
X18446776Y-12882133D02*
X18446776Y-12834514D01*
X18446776Y-12834514D02*
X18456300Y-12796419D01*
X18456300Y-12796419D02*
X18465824Y-12777371D01*
X18465824Y-12777371D02*
X18475348Y-12767848D01*
X18475348Y-12767848D02*
X18494395Y-12758324D01*
X18637253Y-12777371D02*
X18646776Y-12767848D01*
X18646776Y-12767848D02*
X18665824Y-12758324D01*
X18665824Y-12758324D02*
X18713443Y-12758324D01*
X18713443Y-12758324D02*
X18732491Y-12767848D01*
X18732491Y-12767848D02*
X18742014Y-12777371D01*
X18742014Y-12777371D02*
X18751538Y-12796419D01*
X18751538Y-12796419D02*
X18751538Y-12815467D01*
X18751538Y-12815467D02*
X18742014Y-12844038D01*
X18742014Y-12844038D02*
X18627729Y-12958324D01*
X18627729Y-12958324D02*
X18751538Y-12958324D01*
X18818205Y-12758324D02*
X18942014Y-12758324D01*
X18942014Y-12758324D02*
X18875348Y-12834514D01*
X18875348Y-12834514D02*
X18903919Y-12834514D01*
X18903919Y-12834514D02*
X18922967Y-12844038D01*
X18922967Y-12844038D02*
X18932491Y-12853562D01*
X18932491Y-12853562D02*
X18942014Y-12872609D01*
X18942014Y-12872609D02*
X18942014Y-12920228D01*
X18942014Y-12920228D02*
X18932491Y-12939276D01*
X18932491Y-12939276D02*
X18922967Y-12948800D01*
X18922967Y-12948800D02*
X18903919Y-12958324D01*
X18903919Y-12958324D02*
X18846776Y-12958324D01*
X18846776Y-12958324D02*
X18827729Y-12948800D01*
X18827729Y-12948800D02*
X18818205Y-12939276D01*
X19113443Y-12758324D02*
X19075348Y-12758324D01*
X19075348Y-12758324D02*
X19056300Y-12767848D01*
X19056300Y-12767848D02*
X19046776Y-12777371D01*
X19046776Y-12777371D02*
X19027729Y-12805943D01*
X19027729Y-12805943D02*
X19018205Y-12844038D01*
X19018205Y-12844038D02*
X19018205Y-12920228D01*
X19018205Y-12920228D02*
X19027729Y-12939276D01*
X19027729Y-12939276D02*
X19037253Y-12948800D01*
X19037253Y-12948800D02*
X19056300Y-12958324D01*
X19056300Y-12958324D02*
X19094395Y-12958324D01*
X19094395Y-12958324D02*
X19113443Y-12948800D01*
X19113443Y-12948800D02*
X19122967Y-12939276D01*
X19122967Y-12939276D02*
X19132491Y-12920228D01*
X19132491Y-12920228D02*
X19132491Y-12872609D01*
X19132491Y-12872609D02*
X19122967Y-12853562D01*
X19122967Y-12853562D02*
X19113443Y-12844038D01*
X19113443Y-12844038D02*
X19094395Y-12834514D01*
X19094395Y-12834514D02*
X19056300Y-12834514D01*
X19056300Y-12834514D02*
X19037253Y-12844038D01*
X19037253Y-12844038D02*
X19027729Y-12853562D01*
X19027729Y-12853562D02*
X19018205Y-12872609D01*
X19208681Y-12758324D02*
X19208681Y-12796419D01*
X19284872Y-12758324D02*
X19284872Y-12796419D01*
X19580110Y-13034514D02*
X19570586Y-13024990D01*
X19570586Y-13024990D02*
X19551538Y-12996419D01*
X19551538Y-12996419D02*
X19542015Y-12977371D01*
X19542015Y-12977371D02*
X19532491Y-12948800D01*
X19532491Y-12948800D02*
X19522967Y-12901181D01*
X19522967Y-12901181D02*
X19522967Y-12863086D01*
X19522967Y-12863086D02*
X19532491Y-12815467D01*
X19532491Y-12815467D02*
X19542015Y-12786895D01*
X19542015Y-12786895D02*
X19551538Y-12767848D01*
X19551538Y-12767848D02*
X19570586Y-12739276D01*
X19570586Y-12739276D02*
X19580110Y-12729752D01*
X19694395Y-12758324D02*
X19713443Y-12758324D01*
X19713443Y-12758324D02*
X19732491Y-12767848D01*
X19732491Y-12767848D02*
X19742015Y-12777371D01*
X19742015Y-12777371D02*
X19751538Y-12796419D01*
X19751538Y-12796419D02*
X19761062Y-12834514D01*
X19761062Y-12834514D02*
X19761062Y-12882133D01*
X19761062Y-12882133D02*
X19751538Y-12920228D01*
X19751538Y-12920228D02*
X19742015Y-12939276D01*
X19742015Y-12939276D02*
X19732491Y-12948800D01*
X19732491Y-12948800D02*
X19713443Y-12958324D01*
X19713443Y-12958324D02*
X19694395Y-12958324D01*
X19694395Y-12958324D02*
X19675348Y-12948800D01*
X19675348Y-12948800D02*
X19665824Y-12939276D01*
X19665824Y-12939276D02*
X19656300Y-12920228D01*
X19656300Y-12920228D02*
X19646776Y-12882133D01*
X19646776Y-12882133D02*
X19646776Y-12834514D01*
X19646776Y-12834514D02*
X19656300Y-12796419D01*
X19656300Y-12796419D02*
X19665824Y-12777371D01*
X19665824Y-12777371D02*
X19675348Y-12767848D01*
X19675348Y-12767848D02*
X19694395Y-12758324D01*
X19999157Y-12958324D02*
X19999157Y-12758324D01*
X20084872Y-12958324D02*
X20084872Y-12853562D01*
X20084872Y-12853562D02*
X20075348Y-12834514D01*
X20075348Y-12834514D02*
X20056300Y-12824990D01*
X20056300Y-12824990D02*
X20027729Y-12824990D01*
X20027729Y-12824990D02*
X20008681Y-12834514D01*
X20008681Y-12834514D02*
X19999157Y-12844038D01*
X20208681Y-12958324D02*
X20189634Y-12948800D01*
X20189634Y-12948800D02*
X20180110Y-12939276D01*
X20180110Y-12939276D02*
X20170586Y-12920228D01*
X20170586Y-12920228D02*
X20170586Y-12863086D01*
X20170586Y-12863086D02*
X20180110Y-12844038D01*
X20180110Y-12844038D02*
X20189634Y-12834514D01*
X20189634Y-12834514D02*
X20208681Y-12824990D01*
X20208681Y-12824990D02*
X20237253Y-12824990D01*
X20237253Y-12824990D02*
X20256300Y-12834514D01*
X20256300Y-12834514D02*
X20265824Y-12844038D01*
X20265824Y-12844038D02*
X20275348Y-12863086D01*
X20275348Y-12863086D02*
X20275348Y-12920228D01*
X20275348Y-12920228D02*
X20265824Y-12939276D01*
X20265824Y-12939276D02*
X20256300Y-12948800D01*
X20256300Y-12948800D02*
X20237253Y-12958324D01*
X20237253Y-12958324D02*
X20208681Y-12958324D01*
X20389634Y-12958324D02*
X20370586Y-12948800D01*
X20370586Y-12948800D02*
X20361062Y-12929752D01*
X20361062Y-12929752D02*
X20361062Y-12758324D01*
X20542015Y-12948800D02*
X20522967Y-12958324D01*
X20522967Y-12958324D02*
X20484872Y-12958324D01*
X20484872Y-12958324D02*
X20465824Y-12948800D01*
X20465824Y-12948800D02*
X20456300Y-12929752D01*
X20456300Y-12929752D02*
X20456300Y-12853562D01*
X20456300Y-12853562D02*
X20465824Y-12834514D01*
X20465824Y-12834514D02*
X20484872Y-12824990D01*
X20484872Y-12824990D02*
X20522967Y-12824990D01*
X20522967Y-12824990D02*
X20542015Y-12834514D01*
X20542015Y-12834514D02*
X20551538Y-12853562D01*
X20551538Y-12853562D02*
X20551538Y-12872609D01*
X20551538Y-12872609D02*
X20456300Y-12891657D01*
X20627729Y-12948800D02*
X20646777Y-12958324D01*
X20646777Y-12958324D02*
X20684872Y-12958324D01*
X20684872Y-12958324D02*
X20703919Y-12948800D01*
X20703919Y-12948800D02*
X20713443Y-12929752D01*
X20713443Y-12929752D02*
X20713443Y-12920228D01*
X20713443Y-12920228D02*
X20703919Y-12901181D01*
X20703919Y-12901181D02*
X20684872Y-12891657D01*
X20684872Y-12891657D02*
X20656300Y-12891657D01*
X20656300Y-12891657D02*
X20637253Y-12882133D01*
X20637253Y-12882133D02*
X20627729Y-12863086D01*
X20627729Y-12863086D02*
X20627729Y-12853562D01*
X20627729Y-12853562D02*
X20637253Y-12834514D01*
X20637253Y-12834514D02*
X20656300Y-12824990D01*
X20656300Y-12824990D02*
X20684872Y-12824990D01*
X20684872Y-12824990D02*
X20703919Y-12834514D01*
X20951539Y-12882133D02*
X21103920Y-12882133D01*
X21027729Y-12958324D02*
X21027729Y-12805943D01*
X21437253Y-12824990D02*
X21437253Y-12958324D01*
X21389634Y-12748800D02*
X21342015Y-12891657D01*
X21342015Y-12891657D02*
X21465824Y-12891657D01*
X21684872Y-12948800D02*
X21703920Y-12958324D01*
X21703920Y-12958324D02*
X21742015Y-12958324D01*
X21742015Y-12958324D02*
X21761062Y-12948800D01*
X21761062Y-12948800D02*
X21770586Y-12929752D01*
X21770586Y-12929752D02*
X21770586Y-12920228D01*
X21770586Y-12920228D02*
X21761062Y-12901181D01*
X21761062Y-12901181D02*
X21742015Y-12891657D01*
X21742015Y-12891657D02*
X21713443Y-12891657D01*
X21713443Y-12891657D02*
X21694396Y-12882133D01*
X21694396Y-12882133D02*
X21684872Y-12863086D01*
X21684872Y-12863086D02*
X21684872Y-12853562D01*
X21684872Y-12853562D02*
X21694396Y-12834514D01*
X21694396Y-12834514D02*
X21713443Y-12824990D01*
X21713443Y-12824990D02*
X21742015Y-12824990D01*
X21742015Y-12824990D02*
X21761062Y-12834514D01*
X21884872Y-12958324D02*
X21865824Y-12948800D01*
X21865824Y-12948800D02*
X21856301Y-12929752D01*
X21856301Y-12929752D02*
X21856301Y-12758324D01*
X21989634Y-12958324D02*
X21970586Y-12948800D01*
X21970586Y-12948800D02*
X21961062Y-12939276D01*
X21961062Y-12939276D02*
X21951539Y-12920228D01*
X21951539Y-12920228D02*
X21951539Y-12863086D01*
X21951539Y-12863086D02*
X21961062Y-12844038D01*
X21961062Y-12844038D02*
X21970586Y-12834514D01*
X21970586Y-12834514D02*
X21989634Y-12824990D01*
X21989634Y-12824990D02*
X22018205Y-12824990D01*
X22018205Y-12824990D02*
X22037253Y-12834514D01*
X22037253Y-12834514D02*
X22046777Y-12844038D01*
X22046777Y-12844038D02*
X22056301Y-12863086D01*
X22056301Y-12863086D02*
X22056301Y-12920228D01*
X22056301Y-12920228D02*
X22046777Y-12939276D01*
X22046777Y-12939276D02*
X22037253Y-12948800D01*
X22037253Y-12948800D02*
X22018205Y-12958324D01*
X22018205Y-12958324D02*
X21989634Y-12958324D01*
X22113443Y-12824990D02*
X22189634Y-12824990D01*
X22142015Y-12758324D02*
X22142015Y-12929752D01*
X22142015Y-12929752D02*
X22151539Y-12948800D01*
X22151539Y-12948800D02*
X22170586Y-12958324D01*
X22170586Y-12958324D02*
X22189634Y-12958324D01*
X22246777Y-12948800D02*
X22265824Y-12958324D01*
X22265824Y-12958324D02*
X22303920Y-12958324D01*
X22303920Y-12958324D02*
X22322967Y-12948800D01*
X22322967Y-12948800D02*
X22332491Y-12929752D01*
X22332491Y-12929752D02*
X22332491Y-12920228D01*
X22332491Y-12920228D02*
X22322967Y-12901181D01*
X22322967Y-12901181D02*
X22303920Y-12891657D01*
X22303920Y-12891657D02*
X22275348Y-12891657D01*
X22275348Y-12891657D02*
X22256301Y-12882133D01*
X22256301Y-12882133D02*
X22246777Y-12863086D01*
X22246777Y-12863086D02*
X22246777Y-12853562D01*
X22246777Y-12853562D02*
X22256301Y-12834514D01*
X22256301Y-12834514D02*
X22275348Y-12824990D01*
X22275348Y-12824990D02*
X22303920Y-12824990D01*
X22303920Y-12824990D02*
X22322967Y-12834514D01*
X22399158Y-13034514D02*
X22408681Y-13024990D01*
X22408681Y-13024990D02*
X22427729Y-12996419D01*
X22427729Y-12996419D02*
X22437253Y-12977371D01*
X22437253Y-12977371D02*
X22446777Y-12948800D01*
X22446777Y-12948800D02*
X22456300Y-12901181D01*
X22456300Y-12901181D02*
X22456300Y-12863086D01*
X22456300Y-12863086D02*
X22446777Y-12815467D01*
X22446777Y-12815467D02*
X22437253Y-12786895D01*
X22437253Y-12786895D02*
X22427729Y-12767848D01*
X22427729Y-12767848D02*
X22408681Y-12739276D01*
X22408681Y-12739276D02*
X22399158Y-12729752D01*
D14*
X15980705Y-13092300D02*
X15980705Y-13167300D01*
X15943205Y-13129800D02*
X16018205Y-13129800D01*
D11*
X16303919Y-13022324D02*
X16322967Y-13022324D01*
X16322967Y-13022324D02*
X16342014Y-13031848D01*
X16342014Y-13031848D02*
X16351538Y-13041371D01*
X16351538Y-13041371D02*
X16361062Y-13060419D01*
X16361062Y-13060419D02*
X16370586Y-13098514D01*
X16370586Y-13098514D02*
X16370586Y-13146133D01*
X16370586Y-13146133D02*
X16361062Y-13184228D01*
X16361062Y-13184228D02*
X16351538Y-13203276D01*
X16351538Y-13203276D02*
X16342014Y-13212800D01*
X16342014Y-13212800D02*
X16322967Y-13222324D01*
X16322967Y-13222324D02*
X16303919Y-13222324D01*
X16303919Y-13222324D02*
X16284871Y-13212800D01*
X16284871Y-13212800D02*
X16275347Y-13203276D01*
X16275347Y-13203276D02*
X16265824Y-13184228D01*
X16265824Y-13184228D02*
X16256300Y-13146133D01*
X16256300Y-13146133D02*
X16256300Y-13098514D01*
X16256300Y-13098514D02*
X16265824Y-13060419D01*
X16265824Y-13060419D02*
X16275347Y-13041371D01*
X16275347Y-13041371D02*
X16284871Y-13031848D01*
X16284871Y-13031848D02*
X16303919Y-13022324D01*
X16456300Y-13203276D02*
X16465824Y-13212800D01*
X16465824Y-13212800D02*
X16456300Y-13222324D01*
X16456300Y-13222324D02*
X16446776Y-13212800D01*
X16446776Y-13212800D02*
X16456300Y-13203276D01*
X16456300Y-13203276D02*
X16456300Y-13222324D01*
X16532490Y-13022324D02*
X16665824Y-13022324D01*
X16665824Y-13022324D02*
X16580109Y-13222324D01*
X16837252Y-13022324D02*
X16742014Y-13022324D01*
X16742014Y-13022324D02*
X16732490Y-13117562D01*
X16732490Y-13117562D02*
X16742014Y-13108038D01*
X16742014Y-13108038D02*
X16761062Y-13098514D01*
X16761062Y-13098514D02*
X16808681Y-13098514D01*
X16808681Y-13098514D02*
X16827729Y-13108038D01*
X16827729Y-13108038D02*
X16837252Y-13117562D01*
X16837252Y-13117562D02*
X16846776Y-13136609D01*
X16846776Y-13136609D02*
X16846776Y-13184228D01*
X16846776Y-13184228D02*
X16837252Y-13203276D01*
X16837252Y-13203276D02*
X16827729Y-13212800D01*
X16827729Y-13212800D02*
X16808681Y-13222324D01*
X16808681Y-13222324D02*
X16761062Y-13222324D01*
X16761062Y-13222324D02*
X16742014Y-13212800D01*
X16742014Y-13212800D02*
X16732490Y-13203276D01*
X16970586Y-13022324D02*
X16989633Y-13022324D01*
X16989633Y-13022324D02*
X17008681Y-13031848D01*
X17008681Y-13031848D02*
X17018205Y-13041371D01*
X17018205Y-13041371D02*
X17027729Y-13060419D01*
X17027729Y-13060419D02*
X17037252Y-13098514D01*
X17037252Y-13098514D02*
X17037252Y-13146133D01*
X17037252Y-13146133D02*
X17027729Y-13184228D01*
X17027729Y-13184228D02*
X17018205Y-13203276D01*
X17018205Y-13203276D02*
X17008681Y-13212800D01*
X17008681Y-13212800D02*
X16989633Y-13222324D01*
X16989633Y-13222324D02*
X16970586Y-13222324D01*
X16970586Y-13222324D02*
X16951538Y-13212800D01*
X16951538Y-13212800D02*
X16942014Y-13203276D01*
X16942014Y-13203276D02*
X16932490Y-13184228D01*
X16932490Y-13184228D02*
X16922967Y-13146133D01*
X16922967Y-13146133D02*
X16922967Y-13098514D01*
X16922967Y-13098514D02*
X16932490Y-13060419D01*
X16932490Y-13060419D02*
X16942014Y-13041371D01*
X16942014Y-13041371D02*
X16951538Y-13031848D01*
X16951538Y-13031848D02*
X16970586Y-13022324D01*
X17122967Y-13222324D02*
X17122967Y-13088990D01*
X17122967Y-13108038D02*
X17132490Y-13098514D01*
X17132490Y-13098514D02*
X17151538Y-13088990D01*
X17151538Y-13088990D02*
X17180110Y-13088990D01*
X17180110Y-13088990D02*
X17199157Y-13098514D01*
X17199157Y-13098514D02*
X17208681Y-13117562D01*
X17208681Y-13117562D02*
X17208681Y-13222324D01*
X17208681Y-13117562D02*
X17218205Y-13098514D01*
X17218205Y-13098514D02*
X17237252Y-13088990D01*
X17237252Y-13088990D02*
X17265824Y-13088990D01*
X17265824Y-13088990D02*
X17284871Y-13098514D01*
X17284871Y-13098514D02*
X17294395Y-13117562D01*
X17294395Y-13117562D02*
X17294395Y-13222324D01*
X17389633Y-13222324D02*
X17389633Y-13088990D01*
X17389633Y-13108038D02*
X17399157Y-13098514D01*
X17399157Y-13098514D02*
X17418205Y-13088990D01*
X17418205Y-13088990D02*
X17446776Y-13088990D01*
X17446776Y-13088990D02*
X17465824Y-13098514D01*
X17465824Y-13098514D02*
X17475348Y-13117562D01*
X17475348Y-13117562D02*
X17475348Y-13222324D01*
X17475348Y-13117562D02*
X17484871Y-13098514D01*
X17484871Y-13098514D02*
X17503919Y-13088990D01*
X17503919Y-13088990D02*
X17532490Y-13088990D01*
X17532490Y-13088990D02*
X17551538Y-13098514D01*
X17551538Y-13098514D02*
X17561062Y-13117562D01*
X17561062Y-13117562D02*
X17561062Y-13222324D01*
X17951538Y-13012800D02*
X17780110Y-13269943D01*
X18208681Y-13022324D02*
X18227729Y-13022324D01*
X18227729Y-13022324D02*
X18246776Y-13031848D01*
X18246776Y-13031848D02*
X18256300Y-13041371D01*
X18256300Y-13041371D02*
X18265824Y-13060419D01*
X18265824Y-13060419D02*
X18275348Y-13098514D01*
X18275348Y-13098514D02*
X18275348Y-13146133D01*
X18275348Y-13146133D02*
X18265824Y-13184228D01*
X18265824Y-13184228D02*
X18256300Y-13203276D01*
X18256300Y-13203276D02*
X18246776Y-13212800D01*
X18246776Y-13212800D02*
X18227729Y-13222324D01*
X18227729Y-13222324D02*
X18208681Y-13222324D01*
X18208681Y-13222324D02*
X18189633Y-13212800D01*
X18189633Y-13212800D02*
X18180110Y-13203276D01*
X18180110Y-13203276D02*
X18170586Y-13184228D01*
X18170586Y-13184228D02*
X18161062Y-13146133D01*
X18161062Y-13146133D02*
X18161062Y-13098514D01*
X18161062Y-13098514D02*
X18170586Y-13060419D01*
X18170586Y-13060419D02*
X18180110Y-13041371D01*
X18180110Y-13041371D02*
X18189633Y-13031848D01*
X18189633Y-13031848D02*
X18208681Y-13022324D01*
X18361062Y-13203276D02*
X18370586Y-13212800D01*
X18370586Y-13212800D02*
X18361062Y-13222324D01*
X18361062Y-13222324D02*
X18351538Y-13212800D01*
X18351538Y-13212800D02*
X18361062Y-13203276D01*
X18361062Y-13203276D02*
X18361062Y-13222324D01*
X18494395Y-13022324D02*
X18513443Y-13022324D01*
X18513443Y-13022324D02*
X18532491Y-13031848D01*
X18532491Y-13031848D02*
X18542014Y-13041371D01*
X18542014Y-13041371D02*
X18551538Y-13060419D01*
X18551538Y-13060419D02*
X18561062Y-13098514D01*
X18561062Y-13098514D02*
X18561062Y-13146133D01*
X18561062Y-13146133D02*
X18551538Y-13184228D01*
X18551538Y-13184228D02*
X18542014Y-13203276D01*
X18542014Y-13203276D02*
X18532491Y-13212800D01*
X18532491Y-13212800D02*
X18513443Y-13222324D01*
X18513443Y-13222324D02*
X18494395Y-13222324D01*
X18494395Y-13222324D02*
X18475348Y-13212800D01*
X18475348Y-13212800D02*
X18465824Y-13203276D01*
X18465824Y-13203276D02*
X18456300Y-13184228D01*
X18456300Y-13184228D02*
X18446776Y-13146133D01*
X18446776Y-13146133D02*
X18446776Y-13098514D01*
X18446776Y-13098514D02*
X18456300Y-13060419D01*
X18456300Y-13060419D02*
X18465824Y-13041371D01*
X18465824Y-13041371D02*
X18475348Y-13031848D01*
X18475348Y-13031848D02*
X18494395Y-13022324D01*
X18637253Y-13041371D02*
X18646776Y-13031848D01*
X18646776Y-13031848D02*
X18665824Y-13022324D01*
X18665824Y-13022324D02*
X18713443Y-13022324D01*
X18713443Y-13022324D02*
X18732491Y-13031848D01*
X18732491Y-13031848D02*
X18742014Y-13041371D01*
X18742014Y-13041371D02*
X18751538Y-13060419D01*
X18751538Y-13060419D02*
X18751538Y-13079467D01*
X18751538Y-13079467D02*
X18742014Y-13108038D01*
X18742014Y-13108038D02*
X18627729Y-13222324D01*
X18627729Y-13222324D02*
X18751538Y-13222324D01*
X18846776Y-13222324D02*
X18884872Y-13222324D01*
X18884872Y-13222324D02*
X18903919Y-13212800D01*
X18903919Y-13212800D02*
X18913443Y-13203276D01*
X18913443Y-13203276D02*
X18932491Y-13174705D01*
X18932491Y-13174705D02*
X18942014Y-13136609D01*
X18942014Y-13136609D02*
X18942014Y-13060419D01*
X18942014Y-13060419D02*
X18932491Y-13041371D01*
X18932491Y-13041371D02*
X18922967Y-13031848D01*
X18922967Y-13031848D02*
X18903919Y-13022324D01*
X18903919Y-13022324D02*
X18865824Y-13022324D01*
X18865824Y-13022324D02*
X18846776Y-13031848D01*
X18846776Y-13031848D02*
X18837253Y-13041371D01*
X18837253Y-13041371D02*
X18827729Y-13060419D01*
X18827729Y-13060419D02*
X18827729Y-13108038D01*
X18827729Y-13108038D02*
X18837253Y-13127086D01*
X18837253Y-13127086D02*
X18846776Y-13136609D01*
X18846776Y-13136609D02*
X18865824Y-13146133D01*
X18865824Y-13146133D02*
X18903919Y-13146133D01*
X18903919Y-13146133D02*
X18922967Y-13136609D01*
X18922967Y-13136609D02*
X18932491Y-13127086D01*
X18932491Y-13127086D02*
X18942014Y-13108038D01*
X19122967Y-13022324D02*
X19027729Y-13022324D01*
X19027729Y-13022324D02*
X19018205Y-13117562D01*
X19018205Y-13117562D02*
X19027729Y-13108038D01*
X19027729Y-13108038D02*
X19046776Y-13098514D01*
X19046776Y-13098514D02*
X19094395Y-13098514D01*
X19094395Y-13098514D02*
X19113443Y-13108038D01*
X19113443Y-13108038D02*
X19122967Y-13117562D01*
X19122967Y-13117562D02*
X19132491Y-13136609D01*
X19132491Y-13136609D02*
X19132491Y-13184228D01*
X19132491Y-13184228D02*
X19122967Y-13203276D01*
X19122967Y-13203276D02*
X19113443Y-13212800D01*
X19113443Y-13212800D02*
X19094395Y-13222324D01*
X19094395Y-13222324D02*
X19046776Y-13222324D01*
X19046776Y-13222324D02*
X19027729Y-13212800D01*
X19027729Y-13212800D02*
X19018205Y-13203276D01*
X19208681Y-13022324D02*
X19208681Y-13060419D01*
X19284872Y-13022324D02*
X19284872Y-13060419D01*
X19580110Y-13298514D02*
X19570586Y-13288990D01*
X19570586Y-13288990D02*
X19551538Y-13260419D01*
X19551538Y-13260419D02*
X19542015Y-13241371D01*
X19542015Y-13241371D02*
X19532491Y-13212800D01*
X19532491Y-13212800D02*
X19522967Y-13165181D01*
X19522967Y-13165181D02*
X19522967Y-13127086D01*
X19522967Y-13127086D02*
X19532491Y-13079467D01*
X19532491Y-13079467D02*
X19542015Y-13050895D01*
X19542015Y-13050895D02*
X19551538Y-13031848D01*
X19551538Y-13031848D02*
X19570586Y-13003276D01*
X19570586Y-13003276D02*
X19580110Y-12993752D01*
X19684872Y-13108038D02*
X19665824Y-13098514D01*
X19665824Y-13098514D02*
X19656300Y-13088990D01*
X19656300Y-13088990D02*
X19646776Y-13069943D01*
X19646776Y-13069943D02*
X19646776Y-13060419D01*
X19646776Y-13060419D02*
X19656300Y-13041371D01*
X19656300Y-13041371D02*
X19665824Y-13031848D01*
X19665824Y-13031848D02*
X19684872Y-13022324D01*
X19684872Y-13022324D02*
X19722967Y-13022324D01*
X19722967Y-13022324D02*
X19742015Y-13031848D01*
X19742015Y-13031848D02*
X19751538Y-13041371D01*
X19751538Y-13041371D02*
X19761062Y-13060419D01*
X19761062Y-13060419D02*
X19761062Y-13069943D01*
X19761062Y-13069943D02*
X19751538Y-13088990D01*
X19751538Y-13088990D02*
X19742015Y-13098514D01*
X19742015Y-13098514D02*
X19722967Y-13108038D01*
X19722967Y-13108038D02*
X19684872Y-13108038D01*
X19684872Y-13108038D02*
X19665824Y-13117562D01*
X19665824Y-13117562D02*
X19656300Y-13127086D01*
X19656300Y-13127086D02*
X19646776Y-13146133D01*
X19646776Y-13146133D02*
X19646776Y-13184228D01*
X19646776Y-13184228D02*
X19656300Y-13203276D01*
X19656300Y-13203276D02*
X19665824Y-13212800D01*
X19665824Y-13212800D02*
X19684872Y-13222324D01*
X19684872Y-13222324D02*
X19722967Y-13222324D01*
X19722967Y-13222324D02*
X19742015Y-13212800D01*
X19742015Y-13212800D02*
X19751538Y-13203276D01*
X19751538Y-13203276D02*
X19761062Y-13184228D01*
X19761062Y-13184228D02*
X19761062Y-13146133D01*
X19761062Y-13146133D02*
X19751538Y-13127086D01*
X19751538Y-13127086D02*
X19742015Y-13117562D01*
X19742015Y-13117562D02*
X19722967Y-13108038D01*
X19999157Y-13222324D02*
X19999157Y-13022324D01*
X20084872Y-13222324D02*
X20084872Y-13117562D01*
X20084872Y-13117562D02*
X20075348Y-13098514D01*
X20075348Y-13098514D02*
X20056300Y-13088990D01*
X20056300Y-13088990D02*
X20027729Y-13088990D01*
X20027729Y-13088990D02*
X20008681Y-13098514D01*
X20008681Y-13098514D02*
X19999157Y-13108038D01*
X20208681Y-13222324D02*
X20189634Y-13212800D01*
X20189634Y-13212800D02*
X20180110Y-13203276D01*
X20180110Y-13203276D02*
X20170586Y-13184228D01*
X20170586Y-13184228D02*
X20170586Y-13127086D01*
X20170586Y-13127086D02*
X20180110Y-13108038D01*
X20180110Y-13108038D02*
X20189634Y-13098514D01*
X20189634Y-13098514D02*
X20208681Y-13088990D01*
X20208681Y-13088990D02*
X20237253Y-13088990D01*
X20237253Y-13088990D02*
X20256300Y-13098514D01*
X20256300Y-13098514D02*
X20265824Y-13108038D01*
X20265824Y-13108038D02*
X20275348Y-13127086D01*
X20275348Y-13127086D02*
X20275348Y-13184228D01*
X20275348Y-13184228D02*
X20265824Y-13203276D01*
X20265824Y-13203276D02*
X20256300Y-13212800D01*
X20256300Y-13212800D02*
X20237253Y-13222324D01*
X20237253Y-13222324D02*
X20208681Y-13222324D01*
X20389634Y-13222324D02*
X20370586Y-13212800D01*
X20370586Y-13212800D02*
X20361062Y-13193752D01*
X20361062Y-13193752D02*
X20361062Y-13022324D01*
X20542015Y-13212800D02*
X20522967Y-13222324D01*
X20522967Y-13222324D02*
X20484872Y-13222324D01*
X20484872Y-13222324D02*
X20465824Y-13212800D01*
X20465824Y-13212800D02*
X20456300Y-13193752D01*
X20456300Y-13193752D02*
X20456300Y-13117562D01*
X20456300Y-13117562D02*
X20465824Y-13098514D01*
X20465824Y-13098514D02*
X20484872Y-13088990D01*
X20484872Y-13088990D02*
X20522967Y-13088990D01*
X20522967Y-13088990D02*
X20542015Y-13098514D01*
X20542015Y-13098514D02*
X20551538Y-13117562D01*
X20551538Y-13117562D02*
X20551538Y-13136609D01*
X20551538Y-13136609D02*
X20456300Y-13155657D01*
X20627729Y-13212800D02*
X20646777Y-13222324D01*
X20646777Y-13222324D02*
X20684872Y-13222324D01*
X20684872Y-13222324D02*
X20703919Y-13212800D01*
X20703919Y-13212800D02*
X20713443Y-13193752D01*
X20713443Y-13193752D02*
X20713443Y-13184228D01*
X20713443Y-13184228D02*
X20703919Y-13165181D01*
X20703919Y-13165181D02*
X20684872Y-13155657D01*
X20684872Y-13155657D02*
X20656300Y-13155657D01*
X20656300Y-13155657D02*
X20637253Y-13146133D01*
X20637253Y-13146133D02*
X20627729Y-13127086D01*
X20627729Y-13127086D02*
X20627729Y-13117562D01*
X20627729Y-13117562D02*
X20637253Y-13098514D01*
X20637253Y-13098514D02*
X20656300Y-13088990D01*
X20656300Y-13088990D02*
X20684872Y-13088990D01*
X20684872Y-13088990D02*
X20703919Y-13098514D01*
X20780110Y-13298514D02*
X20789634Y-13288990D01*
X20789634Y-13288990D02*
X20808681Y-13260419D01*
X20808681Y-13260419D02*
X20818205Y-13241371D01*
X20818205Y-13241371D02*
X20827729Y-13212800D01*
X20827729Y-13212800D02*
X20837253Y-13165181D01*
X20837253Y-13165181D02*
X20837253Y-13127086D01*
X20837253Y-13127086D02*
X20827729Y-13079467D01*
X20827729Y-13079467D02*
X20818205Y-13050895D01*
X20818205Y-13050895D02*
X20808681Y-13031848D01*
X20808681Y-13031848D02*
X20789634Y-13003276D01*
X20789634Y-13003276D02*
X20780110Y-12993752D01*
D15*
X15996238Y-13446833D02*
X15996238Y-13340766D01*
X15890171Y-13340766D01*
X15890171Y-13446833D01*
X15996238Y-13446833D01*
D11*
X16370586Y-13486324D02*
X16256300Y-13486324D01*
X16313443Y-13486324D02*
X16313443Y-13286324D01*
X16313443Y-13286324D02*
X16294395Y-13314895D01*
X16294395Y-13314895D02*
X16275347Y-13333943D01*
X16275347Y-13333943D02*
X16256300Y-13343467D01*
X16456300Y-13467276D02*
X16465824Y-13476800D01*
X16465824Y-13476800D02*
X16456300Y-13486324D01*
X16456300Y-13486324D02*
X16446776Y-13476800D01*
X16446776Y-13476800D02*
X16456300Y-13467276D01*
X16456300Y-13467276D02*
X16456300Y-13486324D01*
X16646776Y-13286324D02*
X16551538Y-13286324D01*
X16551538Y-13286324D02*
X16542014Y-13381562D01*
X16542014Y-13381562D02*
X16551538Y-13372038D01*
X16551538Y-13372038D02*
X16570586Y-13362514D01*
X16570586Y-13362514D02*
X16618205Y-13362514D01*
X16618205Y-13362514D02*
X16637252Y-13372038D01*
X16637252Y-13372038D02*
X16646776Y-13381562D01*
X16646776Y-13381562D02*
X16656300Y-13400609D01*
X16656300Y-13400609D02*
X16656300Y-13448228D01*
X16656300Y-13448228D02*
X16646776Y-13467276D01*
X16646776Y-13467276D02*
X16637252Y-13476800D01*
X16637252Y-13476800D02*
X16618205Y-13486324D01*
X16618205Y-13486324D02*
X16570586Y-13486324D01*
X16570586Y-13486324D02*
X16551538Y-13476800D01*
X16551538Y-13476800D02*
X16542014Y-13467276D01*
X16780109Y-13286324D02*
X16799157Y-13286324D01*
X16799157Y-13286324D02*
X16818205Y-13295848D01*
X16818205Y-13295848D02*
X16827729Y-13305371D01*
X16827729Y-13305371D02*
X16837252Y-13324419D01*
X16837252Y-13324419D02*
X16846776Y-13362514D01*
X16846776Y-13362514D02*
X16846776Y-13410133D01*
X16846776Y-13410133D02*
X16837252Y-13448228D01*
X16837252Y-13448228D02*
X16827729Y-13467276D01*
X16827729Y-13467276D02*
X16818205Y-13476800D01*
X16818205Y-13476800D02*
X16799157Y-13486324D01*
X16799157Y-13486324D02*
X16780109Y-13486324D01*
X16780109Y-13486324D02*
X16761062Y-13476800D01*
X16761062Y-13476800D02*
X16751538Y-13467276D01*
X16751538Y-13467276D02*
X16742014Y-13448228D01*
X16742014Y-13448228D02*
X16732490Y-13410133D01*
X16732490Y-13410133D02*
X16732490Y-13362514D01*
X16732490Y-13362514D02*
X16742014Y-13324419D01*
X16742014Y-13324419D02*
X16751538Y-13305371D01*
X16751538Y-13305371D02*
X16761062Y-13295848D01*
X16761062Y-13295848D02*
X16780109Y-13286324D01*
X16970586Y-13286324D02*
X16989633Y-13286324D01*
X16989633Y-13286324D02*
X17008681Y-13295848D01*
X17008681Y-13295848D02*
X17018205Y-13305371D01*
X17018205Y-13305371D02*
X17027729Y-13324419D01*
X17027729Y-13324419D02*
X17037252Y-13362514D01*
X17037252Y-13362514D02*
X17037252Y-13410133D01*
X17037252Y-13410133D02*
X17027729Y-13448228D01*
X17027729Y-13448228D02*
X17018205Y-13467276D01*
X17018205Y-13467276D02*
X17008681Y-13476800D01*
X17008681Y-13476800D02*
X16989633Y-13486324D01*
X16989633Y-13486324D02*
X16970586Y-13486324D01*
X16970586Y-13486324D02*
X16951538Y-13476800D01*
X16951538Y-13476800D02*
X16942014Y-13467276D01*
X16942014Y-13467276D02*
X16932490Y-13448228D01*
X16932490Y-13448228D02*
X16922967Y-13410133D01*
X16922967Y-13410133D02*
X16922967Y-13362514D01*
X16922967Y-13362514D02*
X16932490Y-13324419D01*
X16932490Y-13324419D02*
X16942014Y-13305371D01*
X16942014Y-13305371D02*
X16951538Y-13295848D01*
X16951538Y-13295848D02*
X16970586Y-13286324D01*
X17122967Y-13486324D02*
X17122967Y-13352990D01*
X17122967Y-13372038D02*
X17132490Y-13362514D01*
X17132490Y-13362514D02*
X17151538Y-13352990D01*
X17151538Y-13352990D02*
X17180110Y-13352990D01*
X17180110Y-13352990D02*
X17199157Y-13362514D01*
X17199157Y-13362514D02*
X17208681Y-13381562D01*
X17208681Y-13381562D02*
X17208681Y-13486324D01*
X17208681Y-13381562D02*
X17218205Y-13362514D01*
X17218205Y-13362514D02*
X17237252Y-13352990D01*
X17237252Y-13352990D02*
X17265824Y-13352990D01*
X17265824Y-13352990D02*
X17284871Y-13362514D01*
X17284871Y-13362514D02*
X17294395Y-13381562D01*
X17294395Y-13381562D02*
X17294395Y-13486324D01*
X17389633Y-13486324D02*
X17389633Y-13352990D01*
X17389633Y-13372038D02*
X17399157Y-13362514D01*
X17399157Y-13362514D02*
X17418205Y-13352990D01*
X17418205Y-13352990D02*
X17446776Y-13352990D01*
X17446776Y-13352990D02*
X17465824Y-13362514D01*
X17465824Y-13362514D02*
X17475348Y-13381562D01*
X17475348Y-13381562D02*
X17475348Y-13486324D01*
X17475348Y-13381562D02*
X17484871Y-13362514D01*
X17484871Y-13362514D02*
X17503919Y-13352990D01*
X17503919Y-13352990D02*
X17532490Y-13352990D01*
X17532490Y-13352990D02*
X17551538Y-13362514D01*
X17551538Y-13362514D02*
X17561062Y-13381562D01*
X17561062Y-13381562D02*
X17561062Y-13486324D01*
X17951538Y-13276800D02*
X17780110Y-13533943D01*
X18208681Y-13286324D02*
X18227729Y-13286324D01*
X18227729Y-13286324D02*
X18246776Y-13295848D01*
X18246776Y-13295848D02*
X18256300Y-13305371D01*
X18256300Y-13305371D02*
X18265824Y-13324419D01*
X18265824Y-13324419D02*
X18275348Y-13362514D01*
X18275348Y-13362514D02*
X18275348Y-13410133D01*
X18275348Y-13410133D02*
X18265824Y-13448228D01*
X18265824Y-13448228D02*
X18256300Y-13467276D01*
X18256300Y-13467276D02*
X18246776Y-13476800D01*
X18246776Y-13476800D02*
X18227729Y-13486324D01*
X18227729Y-13486324D02*
X18208681Y-13486324D01*
X18208681Y-13486324D02*
X18189633Y-13476800D01*
X18189633Y-13476800D02*
X18180110Y-13467276D01*
X18180110Y-13467276D02*
X18170586Y-13448228D01*
X18170586Y-13448228D02*
X18161062Y-13410133D01*
X18161062Y-13410133D02*
X18161062Y-13362514D01*
X18161062Y-13362514D02*
X18170586Y-13324419D01*
X18170586Y-13324419D02*
X18180110Y-13305371D01*
X18180110Y-13305371D02*
X18189633Y-13295848D01*
X18189633Y-13295848D02*
X18208681Y-13286324D01*
X18361062Y-13467276D02*
X18370586Y-13476800D01*
X18370586Y-13476800D02*
X18361062Y-13486324D01*
X18361062Y-13486324D02*
X18351538Y-13476800D01*
X18351538Y-13476800D02*
X18361062Y-13467276D01*
X18361062Y-13467276D02*
X18361062Y-13486324D01*
X18494395Y-13286324D02*
X18513443Y-13286324D01*
X18513443Y-13286324D02*
X18532491Y-13295848D01*
X18532491Y-13295848D02*
X18542014Y-13305371D01*
X18542014Y-13305371D02*
X18551538Y-13324419D01*
X18551538Y-13324419D02*
X18561062Y-13362514D01*
X18561062Y-13362514D02*
X18561062Y-13410133D01*
X18561062Y-13410133D02*
X18551538Y-13448228D01*
X18551538Y-13448228D02*
X18542014Y-13467276D01*
X18542014Y-13467276D02*
X18532491Y-13476800D01*
X18532491Y-13476800D02*
X18513443Y-13486324D01*
X18513443Y-13486324D02*
X18494395Y-13486324D01*
X18494395Y-13486324D02*
X18475348Y-13476800D01*
X18475348Y-13476800D02*
X18465824Y-13467276D01*
X18465824Y-13467276D02*
X18456300Y-13448228D01*
X18456300Y-13448228D02*
X18446776Y-13410133D01*
X18446776Y-13410133D02*
X18446776Y-13362514D01*
X18446776Y-13362514D02*
X18456300Y-13324419D01*
X18456300Y-13324419D02*
X18465824Y-13305371D01*
X18465824Y-13305371D02*
X18475348Y-13295848D01*
X18475348Y-13295848D02*
X18494395Y-13286324D01*
X18742014Y-13286324D02*
X18646776Y-13286324D01*
X18646776Y-13286324D02*
X18637253Y-13381562D01*
X18637253Y-13381562D02*
X18646776Y-13372038D01*
X18646776Y-13372038D02*
X18665824Y-13362514D01*
X18665824Y-13362514D02*
X18713443Y-13362514D01*
X18713443Y-13362514D02*
X18732491Y-13372038D01*
X18732491Y-13372038D02*
X18742014Y-13381562D01*
X18742014Y-13381562D02*
X18751538Y-13400609D01*
X18751538Y-13400609D02*
X18751538Y-13448228D01*
X18751538Y-13448228D02*
X18742014Y-13467276D01*
X18742014Y-13467276D02*
X18732491Y-13476800D01*
X18732491Y-13476800D02*
X18713443Y-13486324D01*
X18713443Y-13486324D02*
X18665824Y-13486324D01*
X18665824Y-13486324D02*
X18646776Y-13476800D01*
X18646776Y-13476800D02*
X18637253Y-13467276D01*
X18846776Y-13486324D02*
X18884872Y-13486324D01*
X18884872Y-13486324D02*
X18903919Y-13476800D01*
X18903919Y-13476800D02*
X18913443Y-13467276D01*
X18913443Y-13467276D02*
X18932491Y-13438705D01*
X18932491Y-13438705D02*
X18942014Y-13400609D01*
X18942014Y-13400609D02*
X18942014Y-13324419D01*
X18942014Y-13324419D02*
X18932491Y-13305371D01*
X18932491Y-13305371D02*
X18922967Y-13295848D01*
X18922967Y-13295848D02*
X18903919Y-13286324D01*
X18903919Y-13286324D02*
X18865824Y-13286324D01*
X18865824Y-13286324D02*
X18846776Y-13295848D01*
X18846776Y-13295848D02*
X18837253Y-13305371D01*
X18837253Y-13305371D02*
X18827729Y-13324419D01*
X18827729Y-13324419D02*
X18827729Y-13372038D01*
X18827729Y-13372038D02*
X18837253Y-13391086D01*
X18837253Y-13391086D02*
X18846776Y-13400609D01*
X18846776Y-13400609D02*
X18865824Y-13410133D01*
X18865824Y-13410133D02*
X18903919Y-13410133D01*
X18903919Y-13410133D02*
X18922967Y-13400609D01*
X18922967Y-13400609D02*
X18932491Y-13391086D01*
X18932491Y-13391086D02*
X18942014Y-13372038D01*
X19132491Y-13486324D02*
X19018205Y-13486324D01*
X19075348Y-13486324D02*
X19075348Y-13286324D01*
X19075348Y-13286324D02*
X19056300Y-13314895D01*
X19056300Y-13314895D02*
X19037253Y-13333943D01*
X19037253Y-13333943D02*
X19018205Y-13343467D01*
X19208681Y-13286324D02*
X19208681Y-13324419D01*
X19284872Y-13286324D02*
X19284872Y-13324419D01*
X19580110Y-13562514D02*
X19570586Y-13552990D01*
X19570586Y-13552990D02*
X19551538Y-13524419D01*
X19551538Y-13524419D02*
X19542015Y-13505371D01*
X19542015Y-13505371D02*
X19532491Y-13476800D01*
X19532491Y-13476800D02*
X19522967Y-13429181D01*
X19522967Y-13429181D02*
X19522967Y-13391086D01*
X19522967Y-13391086D02*
X19532491Y-13343467D01*
X19532491Y-13343467D02*
X19542015Y-13314895D01*
X19542015Y-13314895D02*
X19551538Y-13295848D01*
X19551538Y-13295848D02*
X19570586Y-13267276D01*
X19570586Y-13267276D02*
X19580110Y-13257752D01*
X19742015Y-13352990D02*
X19742015Y-13486324D01*
X19694395Y-13276800D02*
X19646776Y-13419657D01*
X19646776Y-13419657D02*
X19770586Y-13419657D01*
X19999157Y-13486324D02*
X19999157Y-13286324D01*
X20084872Y-13486324D02*
X20084872Y-13381562D01*
X20084872Y-13381562D02*
X20075348Y-13362514D01*
X20075348Y-13362514D02*
X20056300Y-13352990D01*
X20056300Y-13352990D02*
X20027729Y-13352990D01*
X20027729Y-13352990D02*
X20008681Y-13362514D01*
X20008681Y-13362514D02*
X19999157Y-13372038D01*
X20208681Y-13486324D02*
X20189634Y-13476800D01*
X20189634Y-13476800D02*
X20180110Y-13467276D01*
X20180110Y-13467276D02*
X20170586Y-13448228D01*
X20170586Y-13448228D02*
X20170586Y-13391086D01*
X20170586Y-13391086D02*
X20180110Y-13372038D01*
X20180110Y-13372038D02*
X20189634Y-13362514D01*
X20189634Y-13362514D02*
X20208681Y-13352990D01*
X20208681Y-13352990D02*
X20237253Y-13352990D01*
X20237253Y-13352990D02*
X20256300Y-13362514D01*
X20256300Y-13362514D02*
X20265824Y-13372038D01*
X20265824Y-13372038D02*
X20275348Y-13391086D01*
X20275348Y-13391086D02*
X20275348Y-13448228D01*
X20275348Y-13448228D02*
X20265824Y-13467276D01*
X20265824Y-13467276D02*
X20256300Y-13476800D01*
X20256300Y-13476800D02*
X20237253Y-13486324D01*
X20237253Y-13486324D02*
X20208681Y-13486324D01*
X20389634Y-13486324D02*
X20370586Y-13476800D01*
X20370586Y-13476800D02*
X20361062Y-13457752D01*
X20361062Y-13457752D02*
X20361062Y-13286324D01*
X20542015Y-13476800D02*
X20522967Y-13486324D01*
X20522967Y-13486324D02*
X20484872Y-13486324D01*
X20484872Y-13486324D02*
X20465824Y-13476800D01*
X20465824Y-13476800D02*
X20456300Y-13457752D01*
X20456300Y-13457752D02*
X20456300Y-13381562D01*
X20456300Y-13381562D02*
X20465824Y-13362514D01*
X20465824Y-13362514D02*
X20484872Y-13352990D01*
X20484872Y-13352990D02*
X20522967Y-13352990D01*
X20522967Y-13352990D02*
X20542015Y-13362514D01*
X20542015Y-13362514D02*
X20551538Y-13381562D01*
X20551538Y-13381562D02*
X20551538Y-13400609D01*
X20551538Y-13400609D02*
X20456300Y-13419657D01*
X20627729Y-13476800D02*
X20646777Y-13486324D01*
X20646777Y-13486324D02*
X20684872Y-13486324D01*
X20684872Y-13486324D02*
X20703919Y-13476800D01*
X20703919Y-13476800D02*
X20713443Y-13457752D01*
X20713443Y-13457752D02*
X20713443Y-13448228D01*
X20713443Y-13448228D02*
X20703919Y-13429181D01*
X20703919Y-13429181D02*
X20684872Y-13419657D01*
X20684872Y-13419657D02*
X20656300Y-13419657D01*
X20656300Y-13419657D02*
X20637253Y-13410133D01*
X20637253Y-13410133D02*
X20627729Y-13391086D01*
X20627729Y-13391086D02*
X20627729Y-13381562D01*
X20627729Y-13381562D02*
X20637253Y-13362514D01*
X20637253Y-13362514D02*
X20656300Y-13352990D01*
X20656300Y-13352990D02*
X20684872Y-13352990D01*
X20684872Y-13352990D02*
X20703919Y-13362514D01*
X20780110Y-13562514D02*
X20789634Y-13552990D01*
X20789634Y-13552990D02*
X20808681Y-13524419D01*
X20808681Y-13524419D02*
X20818205Y-13505371D01*
X20818205Y-13505371D02*
X20827729Y-13476800D01*
X20827729Y-13476800D02*
X20837253Y-13429181D01*
X20837253Y-13429181D02*
X20837253Y-13391086D01*
X20837253Y-13391086D02*
X20827729Y-13343467D01*
X20827729Y-13343467D02*
X20818205Y-13314895D01*
X20818205Y-13314895D02*
X20808681Y-13295848D01*
X20808681Y-13295848D02*
X20789634Y-13267276D01*
X20789634Y-13267276D02*
X20780110Y-13257752D01*
D16*
X15928205Y-13753800D02*
X16018205Y-13663800D01*
X15928205Y-13573800D01*
X15838205Y-13663800D01*
X15928205Y-13753800D01*
D11*
X16370586Y-13756324D02*
X16256300Y-13756324D01*
X16313443Y-13756324D02*
X16313443Y-13556324D01*
X16313443Y-13556324D02*
X16294395Y-13584895D01*
X16294395Y-13584895D02*
X16275347Y-13603943D01*
X16275347Y-13603943D02*
X16256300Y-13613467D01*
X16456300Y-13737276D02*
X16465824Y-13746800D01*
X16465824Y-13746800D02*
X16456300Y-13756324D01*
X16456300Y-13756324D02*
X16446776Y-13746800D01*
X16446776Y-13746800D02*
X16456300Y-13737276D01*
X16456300Y-13737276D02*
X16456300Y-13756324D01*
X16580109Y-13642038D02*
X16561062Y-13632514D01*
X16561062Y-13632514D02*
X16551538Y-13622990D01*
X16551538Y-13622990D02*
X16542014Y-13603943D01*
X16542014Y-13603943D02*
X16542014Y-13594419D01*
X16542014Y-13594419D02*
X16551538Y-13575371D01*
X16551538Y-13575371D02*
X16561062Y-13565848D01*
X16561062Y-13565848D02*
X16580109Y-13556324D01*
X16580109Y-13556324D02*
X16618205Y-13556324D01*
X16618205Y-13556324D02*
X16637252Y-13565848D01*
X16637252Y-13565848D02*
X16646776Y-13575371D01*
X16646776Y-13575371D02*
X16656300Y-13594419D01*
X16656300Y-13594419D02*
X16656300Y-13603943D01*
X16656300Y-13603943D02*
X16646776Y-13622990D01*
X16646776Y-13622990D02*
X16637252Y-13632514D01*
X16637252Y-13632514D02*
X16618205Y-13642038D01*
X16618205Y-13642038D02*
X16580109Y-13642038D01*
X16580109Y-13642038D02*
X16561062Y-13651562D01*
X16561062Y-13651562D02*
X16551538Y-13661086D01*
X16551538Y-13661086D02*
X16542014Y-13680133D01*
X16542014Y-13680133D02*
X16542014Y-13718228D01*
X16542014Y-13718228D02*
X16551538Y-13737276D01*
X16551538Y-13737276D02*
X16561062Y-13746800D01*
X16561062Y-13746800D02*
X16580109Y-13756324D01*
X16580109Y-13756324D02*
X16618205Y-13756324D01*
X16618205Y-13756324D02*
X16637252Y-13746800D01*
X16637252Y-13746800D02*
X16646776Y-13737276D01*
X16646776Y-13737276D02*
X16656300Y-13718228D01*
X16656300Y-13718228D02*
X16656300Y-13680133D01*
X16656300Y-13680133D02*
X16646776Y-13661086D01*
X16646776Y-13661086D02*
X16637252Y-13651562D01*
X16637252Y-13651562D02*
X16618205Y-13642038D01*
X16780109Y-13556324D02*
X16799157Y-13556324D01*
X16799157Y-13556324D02*
X16818205Y-13565848D01*
X16818205Y-13565848D02*
X16827729Y-13575371D01*
X16827729Y-13575371D02*
X16837252Y-13594419D01*
X16837252Y-13594419D02*
X16846776Y-13632514D01*
X16846776Y-13632514D02*
X16846776Y-13680133D01*
X16846776Y-13680133D02*
X16837252Y-13718228D01*
X16837252Y-13718228D02*
X16827729Y-13737276D01*
X16827729Y-13737276D02*
X16818205Y-13746800D01*
X16818205Y-13746800D02*
X16799157Y-13756324D01*
X16799157Y-13756324D02*
X16780109Y-13756324D01*
X16780109Y-13756324D02*
X16761062Y-13746800D01*
X16761062Y-13746800D02*
X16751538Y-13737276D01*
X16751538Y-13737276D02*
X16742014Y-13718228D01*
X16742014Y-13718228D02*
X16732490Y-13680133D01*
X16732490Y-13680133D02*
X16732490Y-13632514D01*
X16732490Y-13632514D02*
X16742014Y-13594419D01*
X16742014Y-13594419D02*
X16751538Y-13575371D01*
X16751538Y-13575371D02*
X16761062Y-13565848D01*
X16761062Y-13565848D02*
X16780109Y-13556324D01*
X16970586Y-13556324D02*
X16989633Y-13556324D01*
X16989633Y-13556324D02*
X17008681Y-13565848D01*
X17008681Y-13565848D02*
X17018205Y-13575371D01*
X17018205Y-13575371D02*
X17027729Y-13594419D01*
X17027729Y-13594419D02*
X17037252Y-13632514D01*
X17037252Y-13632514D02*
X17037252Y-13680133D01*
X17037252Y-13680133D02*
X17027729Y-13718228D01*
X17027729Y-13718228D02*
X17018205Y-13737276D01*
X17018205Y-13737276D02*
X17008681Y-13746800D01*
X17008681Y-13746800D02*
X16989633Y-13756324D01*
X16989633Y-13756324D02*
X16970586Y-13756324D01*
X16970586Y-13756324D02*
X16951538Y-13746800D01*
X16951538Y-13746800D02*
X16942014Y-13737276D01*
X16942014Y-13737276D02*
X16932490Y-13718228D01*
X16932490Y-13718228D02*
X16922967Y-13680133D01*
X16922967Y-13680133D02*
X16922967Y-13632514D01*
X16922967Y-13632514D02*
X16932490Y-13594419D01*
X16932490Y-13594419D02*
X16942014Y-13575371D01*
X16942014Y-13575371D02*
X16951538Y-13565848D01*
X16951538Y-13565848D02*
X16970586Y-13556324D01*
X17122967Y-13756324D02*
X17122967Y-13622990D01*
X17122967Y-13642038D02*
X17132490Y-13632514D01*
X17132490Y-13632514D02*
X17151538Y-13622990D01*
X17151538Y-13622990D02*
X17180110Y-13622990D01*
X17180110Y-13622990D02*
X17199157Y-13632514D01*
X17199157Y-13632514D02*
X17208681Y-13651562D01*
X17208681Y-13651562D02*
X17208681Y-13756324D01*
X17208681Y-13651562D02*
X17218205Y-13632514D01*
X17218205Y-13632514D02*
X17237252Y-13622990D01*
X17237252Y-13622990D02*
X17265824Y-13622990D01*
X17265824Y-13622990D02*
X17284871Y-13632514D01*
X17284871Y-13632514D02*
X17294395Y-13651562D01*
X17294395Y-13651562D02*
X17294395Y-13756324D01*
X17389633Y-13756324D02*
X17389633Y-13622990D01*
X17389633Y-13642038D02*
X17399157Y-13632514D01*
X17399157Y-13632514D02*
X17418205Y-13622990D01*
X17418205Y-13622990D02*
X17446776Y-13622990D01*
X17446776Y-13622990D02*
X17465824Y-13632514D01*
X17465824Y-13632514D02*
X17475348Y-13651562D01*
X17475348Y-13651562D02*
X17475348Y-13756324D01*
X17475348Y-13651562D02*
X17484871Y-13632514D01*
X17484871Y-13632514D02*
X17503919Y-13622990D01*
X17503919Y-13622990D02*
X17532490Y-13622990D01*
X17532490Y-13622990D02*
X17551538Y-13632514D01*
X17551538Y-13632514D02*
X17561062Y-13651562D01*
X17561062Y-13651562D02*
X17561062Y-13756324D01*
X17951538Y-13546800D02*
X17780110Y-13803943D01*
X18208681Y-13556324D02*
X18227729Y-13556324D01*
X18227729Y-13556324D02*
X18246776Y-13565848D01*
X18246776Y-13565848D02*
X18256300Y-13575371D01*
X18256300Y-13575371D02*
X18265824Y-13594419D01*
X18265824Y-13594419D02*
X18275348Y-13632514D01*
X18275348Y-13632514D02*
X18275348Y-13680133D01*
X18275348Y-13680133D02*
X18265824Y-13718228D01*
X18265824Y-13718228D02*
X18256300Y-13737276D01*
X18256300Y-13737276D02*
X18246776Y-13746800D01*
X18246776Y-13746800D02*
X18227729Y-13756324D01*
X18227729Y-13756324D02*
X18208681Y-13756324D01*
X18208681Y-13756324D02*
X18189633Y-13746800D01*
X18189633Y-13746800D02*
X18180110Y-13737276D01*
X18180110Y-13737276D02*
X18170586Y-13718228D01*
X18170586Y-13718228D02*
X18161062Y-13680133D01*
X18161062Y-13680133D02*
X18161062Y-13632514D01*
X18161062Y-13632514D02*
X18170586Y-13594419D01*
X18170586Y-13594419D02*
X18180110Y-13575371D01*
X18180110Y-13575371D02*
X18189633Y-13565848D01*
X18189633Y-13565848D02*
X18208681Y-13556324D01*
X18361062Y-13737276D02*
X18370586Y-13746800D01*
X18370586Y-13746800D02*
X18361062Y-13756324D01*
X18361062Y-13756324D02*
X18351538Y-13746800D01*
X18351538Y-13746800D02*
X18361062Y-13737276D01*
X18361062Y-13737276D02*
X18361062Y-13756324D01*
X18494395Y-13556324D02*
X18513443Y-13556324D01*
X18513443Y-13556324D02*
X18532491Y-13565848D01*
X18532491Y-13565848D02*
X18542014Y-13575371D01*
X18542014Y-13575371D02*
X18551538Y-13594419D01*
X18551538Y-13594419D02*
X18561062Y-13632514D01*
X18561062Y-13632514D02*
X18561062Y-13680133D01*
X18561062Y-13680133D02*
X18551538Y-13718228D01*
X18551538Y-13718228D02*
X18542014Y-13737276D01*
X18542014Y-13737276D02*
X18532491Y-13746800D01*
X18532491Y-13746800D02*
X18513443Y-13756324D01*
X18513443Y-13756324D02*
X18494395Y-13756324D01*
X18494395Y-13756324D02*
X18475348Y-13746800D01*
X18475348Y-13746800D02*
X18465824Y-13737276D01*
X18465824Y-13737276D02*
X18456300Y-13718228D01*
X18456300Y-13718228D02*
X18446776Y-13680133D01*
X18446776Y-13680133D02*
X18446776Y-13632514D01*
X18446776Y-13632514D02*
X18456300Y-13594419D01*
X18456300Y-13594419D02*
X18465824Y-13575371D01*
X18465824Y-13575371D02*
X18475348Y-13565848D01*
X18475348Y-13565848D02*
X18494395Y-13556324D01*
X18627729Y-13556324D02*
X18761062Y-13556324D01*
X18761062Y-13556324D02*
X18675348Y-13756324D01*
X18875348Y-13556324D02*
X18894395Y-13556324D01*
X18894395Y-13556324D02*
X18913443Y-13565848D01*
X18913443Y-13565848D02*
X18922967Y-13575371D01*
X18922967Y-13575371D02*
X18932491Y-13594419D01*
X18932491Y-13594419D02*
X18942014Y-13632514D01*
X18942014Y-13632514D02*
X18942014Y-13680133D01*
X18942014Y-13680133D02*
X18932491Y-13718228D01*
X18932491Y-13718228D02*
X18922967Y-13737276D01*
X18922967Y-13737276D02*
X18913443Y-13746800D01*
X18913443Y-13746800D02*
X18894395Y-13756324D01*
X18894395Y-13756324D02*
X18875348Y-13756324D01*
X18875348Y-13756324D02*
X18856300Y-13746800D01*
X18856300Y-13746800D02*
X18846776Y-13737276D01*
X18846776Y-13737276D02*
X18837253Y-13718228D01*
X18837253Y-13718228D02*
X18827729Y-13680133D01*
X18827729Y-13680133D02*
X18827729Y-13632514D01*
X18827729Y-13632514D02*
X18837253Y-13594419D01*
X18837253Y-13594419D02*
X18846776Y-13575371D01*
X18846776Y-13575371D02*
X18856300Y-13565848D01*
X18856300Y-13565848D02*
X18875348Y-13556324D01*
X19037253Y-13756324D02*
X19075348Y-13756324D01*
X19075348Y-13756324D02*
X19094395Y-13746800D01*
X19094395Y-13746800D02*
X19103919Y-13737276D01*
X19103919Y-13737276D02*
X19122967Y-13708705D01*
X19122967Y-13708705D02*
X19132491Y-13670609D01*
X19132491Y-13670609D02*
X19132491Y-13594419D01*
X19132491Y-13594419D02*
X19122967Y-13575371D01*
X19122967Y-13575371D02*
X19113443Y-13565848D01*
X19113443Y-13565848D02*
X19094395Y-13556324D01*
X19094395Y-13556324D02*
X19056300Y-13556324D01*
X19056300Y-13556324D02*
X19037253Y-13565848D01*
X19037253Y-13565848D02*
X19027729Y-13575371D01*
X19027729Y-13575371D02*
X19018205Y-13594419D01*
X19018205Y-13594419D02*
X19018205Y-13642038D01*
X19018205Y-13642038D02*
X19027729Y-13661086D01*
X19027729Y-13661086D02*
X19037253Y-13670609D01*
X19037253Y-13670609D02*
X19056300Y-13680133D01*
X19056300Y-13680133D02*
X19094395Y-13680133D01*
X19094395Y-13680133D02*
X19113443Y-13670609D01*
X19113443Y-13670609D02*
X19122967Y-13661086D01*
X19122967Y-13661086D02*
X19132491Y-13642038D01*
X19208681Y-13556324D02*
X19208681Y-13594419D01*
X19284872Y-13556324D02*
X19284872Y-13594419D01*
X19580110Y-13832514D02*
X19570586Y-13822990D01*
X19570586Y-13822990D02*
X19551538Y-13794419D01*
X19551538Y-13794419D02*
X19542015Y-13775371D01*
X19542015Y-13775371D02*
X19532491Y-13746800D01*
X19532491Y-13746800D02*
X19522967Y-13699181D01*
X19522967Y-13699181D02*
X19522967Y-13661086D01*
X19522967Y-13661086D02*
X19532491Y-13613467D01*
X19532491Y-13613467D02*
X19542015Y-13584895D01*
X19542015Y-13584895D02*
X19551538Y-13565848D01*
X19551538Y-13565848D02*
X19570586Y-13537276D01*
X19570586Y-13537276D02*
X19580110Y-13527752D01*
X19637253Y-13556324D02*
X19761062Y-13556324D01*
X19761062Y-13556324D02*
X19694395Y-13632514D01*
X19694395Y-13632514D02*
X19722967Y-13632514D01*
X19722967Y-13632514D02*
X19742015Y-13642038D01*
X19742015Y-13642038D02*
X19751538Y-13651562D01*
X19751538Y-13651562D02*
X19761062Y-13670609D01*
X19761062Y-13670609D02*
X19761062Y-13718228D01*
X19761062Y-13718228D02*
X19751538Y-13737276D01*
X19751538Y-13737276D02*
X19742015Y-13746800D01*
X19742015Y-13746800D02*
X19722967Y-13756324D01*
X19722967Y-13756324D02*
X19665824Y-13756324D01*
X19665824Y-13756324D02*
X19646776Y-13746800D01*
X19646776Y-13746800D02*
X19637253Y-13737276D01*
X19999157Y-13756324D02*
X19999157Y-13556324D01*
X20084872Y-13756324D02*
X20084872Y-13651562D01*
X20084872Y-13651562D02*
X20075348Y-13632514D01*
X20075348Y-13632514D02*
X20056300Y-13622990D01*
X20056300Y-13622990D02*
X20027729Y-13622990D01*
X20027729Y-13622990D02*
X20008681Y-13632514D01*
X20008681Y-13632514D02*
X19999157Y-13642038D01*
X20208681Y-13756324D02*
X20189634Y-13746800D01*
X20189634Y-13746800D02*
X20180110Y-13737276D01*
X20180110Y-13737276D02*
X20170586Y-13718228D01*
X20170586Y-13718228D02*
X20170586Y-13661086D01*
X20170586Y-13661086D02*
X20180110Y-13642038D01*
X20180110Y-13642038D02*
X20189634Y-13632514D01*
X20189634Y-13632514D02*
X20208681Y-13622990D01*
X20208681Y-13622990D02*
X20237253Y-13622990D01*
X20237253Y-13622990D02*
X20256300Y-13632514D01*
X20256300Y-13632514D02*
X20265824Y-13642038D01*
X20265824Y-13642038D02*
X20275348Y-13661086D01*
X20275348Y-13661086D02*
X20275348Y-13718228D01*
X20275348Y-13718228D02*
X20265824Y-13737276D01*
X20265824Y-13737276D02*
X20256300Y-13746800D01*
X20256300Y-13746800D02*
X20237253Y-13756324D01*
X20237253Y-13756324D02*
X20208681Y-13756324D01*
X20389634Y-13756324D02*
X20370586Y-13746800D01*
X20370586Y-13746800D02*
X20361062Y-13727752D01*
X20361062Y-13727752D02*
X20361062Y-13556324D01*
X20542015Y-13746800D02*
X20522967Y-13756324D01*
X20522967Y-13756324D02*
X20484872Y-13756324D01*
X20484872Y-13756324D02*
X20465824Y-13746800D01*
X20465824Y-13746800D02*
X20456300Y-13727752D01*
X20456300Y-13727752D02*
X20456300Y-13651562D01*
X20456300Y-13651562D02*
X20465824Y-13632514D01*
X20465824Y-13632514D02*
X20484872Y-13622990D01*
X20484872Y-13622990D02*
X20522967Y-13622990D01*
X20522967Y-13622990D02*
X20542015Y-13632514D01*
X20542015Y-13632514D02*
X20551538Y-13651562D01*
X20551538Y-13651562D02*
X20551538Y-13670609D01*
X20551538Y-13670609D02*
X20456300Y-13689657D01*
X20627729Y-13746800D02*
X20646777Y-13756324D01*
X20646777Y-13756324D02*
X20684872Y-13756324D01*
X20684872Y-13756324D02*
X20703919Y-13746800D01*
X20703919Y-13746800D02*
X20713443Y-13727752D01*
X20713443Y-13727752D02*
X20713443Y-13718228D01*
X20713443Y-13718228D02*
X20703919Y-13699181D01*
X20703919Y-13699181D02*
X20684872Y-13689657D01*
X20684872Y-13689657D02*
X20656300Y-13689657D01*
X20656300Y-13689657D02*
X20637253Y-13680133D01*
X20637253Y-13680133D02*
X20627729Y-13661086D01*
X20627729Y-13661086D02*
X20627729Y-13651562D01*
X20627729Y-13651562D02*
X20637253Y-13632514D01*
X20637253Y-13632514D02*
X20656300Y-13622990D01*
X20656300Y-13622990D02*
X20684872Y-13622990D01*
X20684872Y-13622990D02*
X20703919Y-13632514D01*
X20780110Y-13832514D02*
X20789634Y-13822990D01*
X20789634Y-13822990D02*
X20808681Y-13794419D01*
X20808681Y-13794419D02*
X20818205Y-13775371D01*
X20818205Y-13775371D02*
X20827729Y-13746800D01*
X20827729Y-13746800D02*
X20837253Y-13699181D01*
X20837253Y-13699181D02*
X20837253Y-13661086D01*
X20837253Y-13661086D02*
X20827729Y-13613467D01*
X20827729Y-13613467D02*
X20818205Y-13584895D01*
X20818205Y-13584895D02*
X20808681Y-13565848D01*
X20808681Y-13565848D02*
X20789634Y-13537276D01*
X20789634Y-13537276D02*
X20780110Y-13527752D01*
M02*
