%TF.GenerationSoftware,KiCad,Pcbnew,7.0.1*%
%TF.CreationDate,2023-10-11T19:34:36-05:00*%
%TF.ProjectId,Tactile_Board,54616374-696c-4655-9f42-6f6172642e6b,1*%
%TF.SameCoordinates,Original*%
%TF.FileFunction,Drillmap*%
%TF.FilePolarity,Positive*%
%FSLAX45Y45*%
G04 Gerber Fmt 4.5, Leading zero omitted, Abs format (unit mm)*
G04 Created by KiCad (PCBNEW 7.0.1) date 2023-10-11 19:34:36*
%MOMM*%
%LPD*%
G01*
G04 APERTURE LIST*
%ADD10C,0.100000*%
%ADD11C,0.200000*%
%ADD12C,0.185000*%
%ADD13C,0.320000*%
%ADD14C,0.410000*%
G04 APERTURE END LIST*
D10*
X16028000Y-2000000D02*
X16028000Y-2000000D01*
X25972000Y-2000000D02*
X25972000Y-11944000D01*
X25972000Y-11944000D02*
X16028000Y-11944000D01*
X16028000Y-2000000D02*
X25972000Y-2000000D01*
X16028000Y-11944000D02*
X16028000Y-2000000D01*
D11*
D12*
X20939580Y-3150340D02*
X21124580Y-3335340D01*
X21124580Y-3150340D02*
X20939580Y-3335340D01*
X21839580Y-3150340D02*
X22024580Y-3335340D01*
X22024580Y-3150340D02*
X21839580Y-3335340D01*
D13*
X16617200Y-6869700D02*
G75*
G03*
X16617200Y-6869700I-160000J0D01*
G01*
X17721200Y-11357600D02*
G75*
G03*
X17721200Y-11357600I-160000J0D01*
G01*
X19945200Y-2534700D02*
G75*
G03*
X19945200Y-2534700I-160000J0D01*
G01*
X22714200Y-11506600D02*
G75*
G03*
X22714200Y-11506600I-160000J0D01*
G01*
X25646200Y-6347600D02*
G75*
G03*
X25646200Y-6347600I-160000J0D01*
G01*
D14*
X25095080Y-10858560D02*
X25095080Y-11268560D01*
X24890080Y-11063560D02*
X25300080Y-11063560D01*
D11*
X16270619Y-12261524D02*
X16270619Y-12061524D01*
X16270619Y-12061524D02*
X16318238Y-12061524D01*
X16318238Y-12061524D02*
X16346809Y-12071048D01*
X16346809Y-12071048D02*
X16365857Y-12090095D01*
X16365857Y-12090095D02*
X16375381Y-12109143D01*
X16375381Y-12109143D02*
X16384905Y-12147238D01*
X16384905Y-12147238D02*
X16384905Y-12175809D01*
X16384905Y-12175809D02*
X16375381Y-12213905D01*
X16375381Y-12213905D02*
X16365857Y-12232952D01*
X16365857Y-12232952D02*
X16346809Y-12252000D01*
X16346809Y-12252000D02*
X16318238Y-12261524D01*
X16318238Y-12261524D02*
X16270619Y-12261524D01*
X16470619Y-12261524D02*
X16470619Y-12128190D01*
X16470619Y-12166286D02*
X16480143Y-12147238D01*
X16480143Y-12147238D02*
X16489667Y-12137714D01*
X16489667Y-12137714D02*
X16508714Y-12128190D01*
X16508714Y-12128190D02*
X16527762Y-12128190D01*
X16594428Y-12261524D02*
X16594428Y-12128190D01*
X16594428Y-12061524D02*
X16584905Y-12071048D01*
X16584905Y-12071048D02*
X16594428Y-12080571D01*
X16594428Y-12080571D02*
X16603952Y-12071048D01*
X16603952Y-12071048D02*
X16594428Y-12061524D01*
X16594428Y-12061524D02*
X16594428Y-12080571D01*
X16718238Y-12261524D02*
X16699190Y-12252000D01*
X16699190Y-12252000D02*
X16689667Y-12232952D01*
X16689667Y-12232952D02*
X16689667Y-12061524D01*
X16823000Y-12261524D02*
X16803952Y-12252000D01*
X16803952Y-12252000D02*
X16794429Y-12232952D01*
X16794429Y-12232952D02*
X16794429Y-12061524D01*
X17051571Y-12261524D02*
X17051571Y-12061524D01*
X17051571Y-12061524D02*
X17118238Y-12204381D01*
X17118238Y-12204381D02*
X17184905Y-12061524D01*
X17184905Y-12061524D02*
X17184905Y-12261524D01*
X17365857Y-12261524D02*
X17365857Y-12156762D01*
X17365857Y-12156762D02*
X17356333Y-12137714D01*
X17356333Y-12137714D02*
X17337286Y-12128190D01*
X17337286Y-12128190D02*
X17299190Y-12128190D01*
X17299190Y-12128190D02*
X17280143Y-12137714D01*
X17365857Y-12252000D02*
X17346810Y-12261524D01*
X17346810Y-12261524D02*
X17299190Y-12261524D01*
X17299190Y-12261524D02*
X17280143Y-12252000D01*
X17280143Y-12252000D02*
X17270619Y-12232952D01*
X17270619Y-12232952D02*
X17270619Y-12213905D01*
X17270619Y-12213905D02*
X17280143Y-12194857D01*
X17280143Y-12194857D02*
X17299190Y-12185333D01*
X17299190Y-12185333D02*
X17346810Y-12185333D01*
X17346810Y-12185333D02*
X17365857Y-12175809D01*
X17461095Y-12128190D02*
X17461095Y-12328190D01*
X17461095Y-12137714D02*
X17480143Y-12128190D01*
X17480143Y-12128190D02*
X17518238Y-12128190D01*
X17518238Y-12128190D02*
X17537286Y-12137714D01*
X17537286Y-12137714D02*
X17546810Y-12147238D01*
X17546810Y-12147238D02*
X17556333Y-12166286D01*
X17556333Y-12166286D02*
X17556333Y-12223428D01*
X17556333Y-12223428D02*
X17546810Y-12242476D01*
X17546810Y-12242476D02*
X17537286Y-12252000D01*
X17537286Y-12252000D02*
X17518238Y-12261524D01*
X17518238Y-12261524D02*
X17480143Y-12261524D01*
X17480143Y-12261524D02*
X17461095Y-12252000D01*
X17642048Y-12242476D02*
X17651571Y-12252000D01*
X17651571Y-12252000D02*
X17642048Y-12261524D01*
X17642048Y-12261524D02*
X17632524Y-12252000D01*
X17632524Y-12252000D02*
X17642048Y-12242476D01*
X17642048Y-12242476D02*
X17642048Y-12261524D01*
X17642048Y-12137714D02*
X17651571Y-12147238D01*
X17651571Y-12147238D02*
X17642048Y-12156762D01*
X17642048Y-12156762D02*
X17632524Y-12147238D01*
X17632524Y-12147238D02*
X17642048Y-12137714D01*
X17642048Y-12137714D02*
X17642048Y-12156762D01*
D12*
X15838000Y-12496500D02*
X16023000Y-12681500D01*
X16023000Y-12496500D02*
X15838000Y-12681500D01*
D11*
X16375381Y-12681524D02*
X16261095Y-12681524D01*
X16318238Y-12681524D02*
X16318238Y-12481524D01*
X16318238Y-12481524D02*
X16299190Y-12510095D01*
X16299190Y-12510095D02*
X16280143Y-12529143D01*
X16280143Y-12529143D02*
X16261095Y-12538667D01*
X16461095Y-12662476D02*
X16470619Y-12672000D01*
X16470619Y-12672000D02*
X16461095Y-12681524D01*
X16461095Y-12681524D02*
X16451571Y-12672000D01*
X16451571Y-12672000D02*
X16461095Y-12662476D01*
X16461095Y-12662476D02*
X16461095Y-12681524D01*
X16584905Y-12567238D02*
X16565857Y-12557714D01*
X16565857Y-12557714D02*
X16556333Y-12548190D01*
X16556333Y-12548190D02*
X16546809Y-12529143D01*
X16546809Y-12529143D02*
X16546809Y-12519619D01*
X16546809Y-12519619D02*
X16556333Y-12500571D01*
X16556333Y-12500571D02*
X16565857Y-12491048D01*
X16565857Y-12491048D02*
X16584905Y-12481524D01*
X16584905Y-12481524D02*
X16623000Y-12481524D01*
X16623000Y-12481524D02*
X16642048Y-12491048D01*
X16642048Y-12491048D02*
X16651571Y-12500571D01*
X16651571Y-12500571D02*
X16661095Y-12519619D01*
X16661095Y-12519619D02*
X16661095Y-12529143D01*
X16661095Y-12529143D02*
X16651571Y-12548190D01*
X16651571Y-12548190D02*
X16642048Y-12557714D01*
X16642048Y-12557714D02*
X16623000Y-12567238D01*
X16623000Y-12567238D02*
X16584905Y-12567238D01*
X16584905Y-12567238D02*
X16565857Y-12576762D01*
X16565857Y-12576762D02*
X16556333Y-12586286D01*
X16556333Y-12586286D02*
X16546809Y-12605333D01*
X16546809Y-12605333D02*
X16546809Y-12643428D01*
X16546809Y-12643428D02*
X16556333Y-12662476D01*
X16556333Y-12662476D02*
X16565857Y-12672000D01*
X16565857Y-12672000D02*
X16584905Y-12681524D01*
X16584905Y-12681524D02*
X16623000Y-12681524D01*
X16623000Y-12681524D02*
X16642048Y-12672000D01*
X16642048Y-12672000D02*
X16651571Y-12662476D01*
X16651571Y-12662476D02*
X16661095Y-12643428D01*
X16661095Y-12643428D02*
X16661095Y-12605333D01*
X16661095Y-12605333D02*
X16651571Y-12586286D01*
X16651571Y-12586286D02*
X16642048Y-12576762D01*
X16642048Y-12576762D02*
X16623000Y-12567238D01*
X16842048Y-12481524D02*
X16746809Y-12481524D01*
X16746809Y-12481524D02*
X16737286Y-12576762D01*
X16737286Y-12576762D02*
X16746809Y-12567238D01*
X16746809Y-12567238D02*
X16765857Y-12557714D01*
X16765857Y-12557714D02*
X16813476Y-12557714D01*
X16813476Y-12557714D02*
X16832524Y-12567238D01*
X16832524Y-12567238D02*
X16842048Y-12576762D01*
X16842048Y-12576762D02*
X16851571Y-12595809D01*
X16851571Y-12595809D02*
X16851571Y-12643428D01*
X16851571Y-12643428D02*
X16842048Y-12662476D01*
X16842048Y-12662476D02*
X16832524Y-12672000D01*
X16832524Y-12672000D02*
X16813476Y-12681524D01*
X16813476Y-12681524D02*
X16765857Y-12681524D01*
X16765857Y-12681524D02*
X16746809Y-12672000D01*
X16746809Y-12672000D02*
X16737286Y-12662476D01*
X16975381Y-12481524D02*
X16994429Y-12481524D01*
X16994429Y-12481524D02*
X17013476Y-12491048D01*
X17013476Y-12491048D02*
X17023000Y-12500571D01*
X17023000Y-12500571D02*
X17032524Y-12519619D01*
X17032524Y-12519619D02*
X17042048Y-12557714D01*
X17042048Y-12557714D02*
X17042048Y-12605333D01*
X17042048Y-12605333D02*
X17032524Y-12643428D01*
X17032524Y-12643428D02*
X17023000Y-12662476D01*
X17023000Y-12662476D02*
X17013476Y-12672000D01*
X17013476Y-12672000D02*
X16994429Y-12681524D01*
X16994429Y-12681524D02*
X16975381Y-12681524D01*
X16975381Y-12681524D02*
X16956333Y-12672000D01*
X16956333Y-12672000D02*
X16946810Y-12662476D01*
X16946810Y-12662476D02*
X16937286Y-12643428D01*
X16937286Y-12643428D02*
X16927762Y-12605333D01*
X16927762Y-12605333D02*
X16927762Y-12557714D01*
X16927762Y-12557714D02*
X16937286Y-12519619D01*
X16937286Y-12519619D02*
X16946810Y-12500571D01*
X16946810Y-12500571D02*
X16956333Y-12491048D01*
X16956333Y-12491048D02*
X16975381Y-12481524D01*
X17127762Y-12681524D02*
X17127762Y-12548190D01*
X17127762Y-12567238D02*
X17137286Y-12557714D01*
X17137286Y-12557714D02*
X17156333Y-12548190D01*
X17156333Y-12548190D02*
X17184905Y-12548190D01*
X17184905Y-12548190D02*
X17203952Y-12557714D01*
X17203952Y-12557714D02*
X17213476Y-12576762D01*
X17213476Y-12576762D02*
X17213476Y-12681524D01*
X17213476Y-12576762D02*
X17223000Y-12557714D01*
X17223000Y-12557714D02*
X17242048Y-12548190D01*
X17242048Y-12548190D02*
X17270619Y-12548190D01*
X17270619Y-12548190D02*
X17289667Y-12557714D01*
X17289667Y-12557714D02*
X17299191Y-12576762D01*
X17299191Y-12576762D02*
X17299191Y-12681524D01*
X17394429Y-12681524D02*
X17394429Y-12548190D01*
X17394429Y-12567238D02*
X17403952Y-12557714D01*
X17403952Y-12557714D02*
X17423000Y-12548190D01*
X17423000Y-12548190D02*
X17451572Y-12548190D01*
X17451572Y-12548190D02*
X17470619Y-12557714D01*
X17470619Y-12557714D02*
X17480143Y-12576762D01*
X17480143Y-12576762D02*
X17480143Y-12681524D01*
X17480143Y-12576762D02*
X17489667Y-12557714D01*
X17489667Y-12557714D02*
X17508714Y-12548190D01*
X17508714Y-12548190D02*
X17537286Y-12548190D01*
X17537286Y-12548190D02*
X17556333Y-12557714D01*
X17556333Y-12557714D02*
X17565857Y-12576762D01*
X17565857Y-12576762D02*
X17565857Y-12681524D01*
X17956333Y-12472000D02*
X17784905Y-12729143D01*
X18213476Y-12481524D02*
X18232524Y-12481524D01*
X18232524Y-12481524D02*
X18251572Y-12491048D01*
X18251572Y-12491048D02*
X18261095Y-12500571D01*
X18261095Y-12500571D02*
X18270619Y-12519619D01*
X18270619Y-12519619D02*
X18280143Y-12557714D01*
X18280143Y-12557714D02*
X18280143Y-12605333D01*
X18280143Y-12605333D02*
X18270619Y-12643428D01*
X18270619Y-12643428D02*
X18261095Y-12662476D01*
X18261095Y-12662476D02*
X18251572Y-12672000D01*
X18251572Y-12672000D02*
X18232524Y-12681524D01*
X18232524Y-12681524D02*
X18213476Y-12681524D01*
X18213476Y-12681524D02*
X18194429Y-12672000D01*
X18194429Y-12672000D02*
X18184905Y-12662476D01*
X18184905Y-12662476D02*
X18175381Y-12643428D01*
X18175381Y-12643428D02*
X18165857Y-12605333D01*
X18165857Y-12605333D02*
X18165857Y-12557714D01*
X18165857Y-12557714D02*
X18175381Y-12519619D01*
X18175381Y-12519619D02*
X18184905Y-12500571D01*
X18184905Y-12500571D02*
X18194429Y-12491048D01*
X18194429Y-12491048D02*
X18213476Y-12481524D01*
X18365857Y-12662476D02*
X18375381Y-12672000D01*
X18375381Y-12672000D02*
X18365857Y-12681524D01*
X18365857Y-12681524D02*
X18356334Y-12672000D01*
X18356334Y-12672000D02*
X18365857Y-12662476D01*
X18365857Y-12662476D02*
X18365857Y-12681524D01*
X18499191Y-12481524D02*
X18518238Y-12481524D01*
X18518238Y-12481524D02*
X18537286Y-12491048D01*
X18537286Y-12491048D02*
X18546810Y-12500571D01*
X18546810Y-12500571D02*
X18556334Y-12519619D01*
X18556334Y-12519619D02*
X18565857Y-12557714D01*
X18565857Y-12557714D02*
X18565857Y-12605333D01*
X18565857Y-12605333D02*
X18556334Y-12643428D01*
X18556334Y-12643428D02*
X18546810Y-12662476D01*
X18546810Y-12662476D02*
X18537286Y-12672000D01*
X18537286Y-12672000D02*
X18518238Y-12681524D01*
X18518238Y-12681524D02*
X18499191Y-12681524D01*
X18499191Y-12681524D02*
X18480143Y-12672000D01*
X18480143Y-12672000D02*
X18470619Y-12662476D01*
X18470619Y-12662476D02*
X18461095Y-12643428D01*
X18461095Y-12643428D02*
X18451572Y-12605333D01*
X18451572Y-12605333D02*
X18451572Y-12557714D01*
X18451572Y-12557714D02*
X18461095Y-12519619D01*
X18461095Y-12519619D02*
X18470619Y-12500571D01*
X18470619Y-12500571D02*
X18480143Y-12491048D01*
X18480143Y-12491048D02*
X18499191Y-12481524D01*
X18632524Y-12481524D02*
X18765857Y-12481524D01*
X18765857Y-12481524D02*
X18680143Y-12681524D01*
X18832524Y-12500571D02*
X18842048Y-12491048D01*
X18842048Y-12491048D02*
X18861095Y-12481524D01*
X18861095Y-12481524D02*
X18908715Y-12481524D01*
X18908715Y-12481524D02*
X18927762Y-12491048D01*
X18927762Y-12491048D02*
X18937286Y-12500571D01*
X18937286Y-12500571D02*
X18946810Y-12519619D01*
X18946810Y-12519619D02*
X18946810Y-12538667D01*
X18946810Y-12538667D02*
X18937286Y-12567238D01*
X18937286Y-12567238D02*
X18823000Y-12681524D01*
X18823000Y-12681524D02*
X18946810Y-12681524D01*
X19061095Y-12567238D02*
X19042048Y-12557714D01*
X19042048Y-12557714D02*
X19032524Y-12548190D01*
X19032524Y-12548190D02*
X19023000Y-12529143D01*
X19023000Y-12529143D02*
X19023000Y-12519619D01*
X19023000Y-12519619D02*
X19032524Y-12500571D01*
X19032524Y-12500571D02*
X19042048Y-12491048D01*
X19042048Y-12491048D02*
X19061095Y-12481524D01*
X19061095Y-12481524D02*
X19099191Y-12481524D01*
X19099191Y-12481524D02*
X19118238Y-12491048D01*
X19118238Y-12491048D02*
X19127762Y-12500571D01*
X19127762Y-12500571D02*
X19137286Y-12519619D01*
X19137286Y-12519619D02*
X19137286Y-12529143D01*
X19137286Y-12529143D02*
X19127762Y-12548190D01*
X19127762Y-12548190D02*
X19118238Y-12557714D01*
X19118238Y-12557714D02*
X19099191Y-12567238D01*
X19099191Y-12567238D02*
X19061095Y-12567238D01*
X19061095Y-12567238D02*
X19042048Y-12576762D01*
X19042048Y-12576762D02*
X19032524Y-12586286D01*
X19032524Y-12586286D02*
X19023000Y-12605333D01*
X19023000Y-12605333D02*
X19023000Y-12643428D01*
X19023000Y-12643428D02*
X19032524Y-12662476D01*
X19032524Y-12662476D02*
X19042048Y-12672000D01*
X19042048Y-12672000D02*
X19061095Y-12681524D01*
X19061095Y-12681524D02*
X19099191Y-12681524D01*
X19099191Y-12681524D02*
X19118238Y-12672000D01*
X19118238Y-12672000D02*
X19127762Y-12662476D01*
X19127762Y-12662476D02*
X19137286Y-12643428D01*
X19137286Y-12643428D02*
X19137286Y-12605333D01*
X19137286Y-12605333D02*
X19127762Y-12586286D01*
X19127762Y-12586286D02*
X19118238Y-12576762D01*
X19118238Y-12576762D02*
X19099191Y-12567238D01*
X19213476Y-12481524D02*
X19213476Y-12519619D01*
X19289667Y-12481524D02*
X19289667Y-12519619D01*
X19584905Y-12757714D02*
X19575381Y-12748190D01*
X19575381Y-12748190D02*
X19556334Y-12719619D01*
X19556334Y-12719619D02*
X19546810Y-12700571D01*
X19546810Y-12700571D02*
X19537286Y-12672000D01*
X19537286Y-12672000D02*
X19527762Y-12624381D01*
X19527762Y-12624381D02*
X19527762Y-12586286D01*
X19527762Y-12586286D02*
X19537286Y-12538667D01*
X19537286Y-12538667D02*
X19546810Y-12510095D01*
X19546810Y-12510095D02*
X19556334Y-12491048D01*
X19556334Y-12491048D02*
X19575381Y-12462476D01*
X19575381Y-12462476D02*
X19584905Y-12452952D01*
X19651572Y-12500571D02*
X19661096Y-12491048D01*
X19661096Y-12491048D02*
X19680143Y-12481524D01*
X19680143Y-12481524D02*
X19727762Y-12481524D01*
X19727762Y-12481524D02*
X19746810Y-12491048D01*
X19746810Y-12491048D02*
X19756334Y-12500571D01*
X19756334Y-12500571D02*
X19765857Y-12519619D01*
X19765857Y-12519619D02*
X19765857Y-12538667D01*
X19765857Y-12538667D02*
X19756334Y-12567238D01*
X19756334Y-12567238D02*
X19642048Y-12681524D01*
X19642048Y-12681524D02*
X19765857Y-12681524D01*
X20003953Y-12681524D02*
X20003953Y-12481524D01*
X20089667Y-12681524D02*
X20089667Y-12576762D01*
X20089667Y-12576762D02*
X20080143Y-12557714D01*
X20080143Y-12557714D02*
X20061096Y-12548190D01*
X20061096Y-12548190D02*
X20032524Y-12548190D01*
X20032524Y-12548190D02*
X20013477Y-12557714D01*
X20013477Y-12557714D02*
X20003953Y-12567238D01*
X20213477Y-12681524D02*
X20194429Y-12672000D01*
X20194429Y-12672000D02*
X20184905Y-12662476D01*
X20184905Y-12662476D02*
X20175381Y-12643428D01*
X20175381Y-12643428D02*
X20175381Y-12586286D01*
X20175381Y-12586286D02*
X20184905Y-12567238D01*
X20184905Y-12567238D02*
X20194429Y-12557714D01*
X20194429Y-12557714D02*
X20213477Y-12548190D01*
X20213477Y-12548190D02*
X20242048Y-12548190D01*
X20242048Y-12548190D02*
X20261096Y-12557714D01*
X20261096Y-12557714D02*
X20270619Y-12567238D01*
X20270619Y-12567238D02*
X20280143Y-12586286D01*
X20280143Y-12586286D02*
X20280143Y-12643428D01*
X20280143Y-12643428D02*
X20270619Y-12662476D01*
X20270619Y-12662476D02*
X20261096Y-12672000D01*
X20261096Y-12672000D02*
X20242048Y-12681524D01*
X20242048Y-12681524D02*
X20213477Y-12681524D01*
X20394429Y-12681524D02*
X20375381Y-12672000D01*
X20375381Y-12672000D02*
X20365858Y-12652952D01*
X20365858Y-12652952D02*
X20365858Y-12481524D01*
X20546810Y-12672000D02*
X20527762Y-12681524D01*
X20527762Y-12681524D02*
X20489667Y-12681524D01*
X20489667Y-12681524D02*
X20470619Y-12672000D01*
X20470619Y-12672000D02*
X20461096Y-12652952D01*
X20461096Y-12652952D02*
X20461096Y-12576762D01*
X20461096Y-12576762D02*
X20470619Y-12557714D01*
X20470619Y-12557714D02*
X20489667Y-12548190D01*
X20489667Y-12548190D02*
X20527762Y-12548190D01*
X20527762Y-12548190D02*
X20546810Y-12557714D01*
X20546810Y-12557714D02*
X20556334Y-12576762D01*
X20556334Y-12576762D02*
X20556334Y-12595809D01*
X20556334Y-12595809D02*
X20461096Y-12614857D01*
X20632524Y-12672000D02*
X20651572Y-12681524D01*
X20651572Y-12681524D02*
X20689667Y-12681524D01*
X20689667Y-12681524D02*
X20708715Y-12672000D01*
X20708715Y-12672000D02*
X20718239Y-12652952D01*
X20718239Y-12652952D02*
X20718239Y-12643428D01*
X20718239Y-12643428D02*
X20708715Y-12624381D01*
X20708715Y-12624381D02*
X20689667Y-12614857D01*
X20689667Y-12614857D02*
X20661096Y-12614857D01*
X20661096Y-12614857D02*
X20642048Y-12605333D01*
X20642048Y-12605333D02*
X20632524Y-12586286D01*
X20632524Y-12586286D02*
X20632524Y-12576762D01*
X20632524Y-12576762D02*
X20642048Y-12557714D01*
X20642048Y-12557714D02*
X20661096Y-12548190D01*
X20661096Y-12548190D02*
X20689667Y-12548190D01*
X20689667Y-12548190D02*
X20708715Y-12557714D01*
X20784905Y-12757714D02*
X20794429Y-12748190D01*
X20794429Y-12748190D02*
X20813477Y-12719619D01*
X20813477Y-12719619D02*
X20823000Y-12700571D01*
X20823000Y-12700571D02*
X20832524Y-12672000D01*
X20832524Y-12672000D02*
X20842048Y-12624381D01*
X20842048Y-12624381D02*
X20842048Y-12586286D01*
X20842048Y-12586286D02*
X20832524Y-12538667D01*
X20832524Y-12538667D02*
X20823000Y-12510095D01*
X20823000Y-12510095D02*
X20813477Y-12491048D01*
X20813477Y-12491048D02*
X20794429Y-12462476D01*
X20794429Y-12462476D02*
X20784905Y-12452952D01*
X21146810Y-12757714D02*
X21137286Y-12748190D01*
X21137286Y-12748190D02*
X21118239Y-12719619D01*
X21118239Y-12719619D02*
X21108715Y-12700571D01*
X21108715Y-12700571D02*
X21099191Y-12672000D01*
X21099191Y-12672000D02*
X21089667Y-12624381D01*
X21089667Y-12624381D02*
X21089667Y-12586286D01*
X21089667Y-12586286D02*
X21099191Y-12538667D01*
X21099191Y-12538667D02*
X21108715Y-12510095D01*
X21108715Y-12510095D02*
X21118239Y-12491048D01*
X21118239Y-12491048D02*
X21137286Y-12462476D01*
X21137286Y-12462476D02*
X21146810Y-12452952D01*
X21223000Y-12548190D02*
X21223000Y-12681524D01*
X21223000Y-12567238D02*
X21232524Y-12557714D01*
X21232524Y-12557714D02*
X21251572Y-12548190D01*
X21251572Y-12548190D02*
X21280143Y-12548190D01*
X21280143Y-12548190D02*
X21299191Y-12557714D01*
X21299191Y-12557714D02*
X21308715Y-12576762D01*
X21308715Y-12576762D02*
X21308715Y-12681524D01*
X21432524Y-12681524D02*
X21413477Y-12672000D01*
X21413477Y-12672000D02*
X21403953Y-12662476D01*
X21403953Y-12662476D02*
X21394429Y-12643428D01*
X21394429Y-12643428D02*
X21394429Y-12586286D01*
X21394429Y-12586286D02*
X21403953Y-12567238D01*
X21403953Y-12567238D02*
X21413477Y-12557714D01*
X21413477Y-12557714D02*
X21432524Y-12548190D01*
X21432524Y-12548190D02*
X21461096Y-12548190D01*
X21461096Y-12548190D02*
X21480143Y-12557714D01*
X21480143Y-12557714D02*
X21489667Y-12567238D01*
X21489667Y-12567238D02*
X21499191Y-12586286D01*
X21499191Y-12586286D02*
X21499191Y-12643428D01*
X21499191Y-12643428D02*
X21489667Y-12662476D01*
X21489667Y-12662476D02*
X21480143Y-12672000D01*
X21480143Y-12672000D02*
X21461096Y-12681524D01*
X21461096Y-12681524D02*
X21432524Y-12681524D01*
X21556334Y-12548190D02*
X21632524Y-12548190D01*
X21584905Y-12481524D02*
X21584905Y-12652952D01*
X21584905Y-12652952D02*
X21594429Y-12672000D01*
X21594429Y-12672000D02*
X21613477Y-12681524D01*
X21613477Y-12681524D02*
X21632524Y-12681524D01*
X21851572Y-12548190D02*
X21851572Y-12748190D01*
X21851572Y-12557714D02*
X21870620Y-12548190D01*
X21870620Y-12548190D02*
X21908715Y-12548190D01*
X21908715Y-12548190D02*
X21927762Y-12557714D01*
X21927762Y-12557714D02*
X21937286Y-12567238D01*
X21937286Y-12567238D02*
X21946810Y-12586286D01*
X21946810Y-12586286D02*
X21946810Y-12643428D01*
X21946810Y-12643428D02*
X21937286Y-12662476D01*
X21937286Y-12662476D02*
X21927762Y-12672000D01*
X21927762Y-12672000D02*
X21908715Y-12681524D01*
X21908715Y-12681524D02*
X21870620Y-12681524D01*
X21870620Y-12681524D02*
X21851572Y-12672000D01*
X22061096Y-12681524D02*
X22042048Y-12672000D01*
X22042048Y-12672000D02*
X22032524Y-12652952D01*
X22032524Y-12652952D02*
X22032524Y-12481524D01*
X22223001Y-12681524D02*
X22223001Y-12576762D01*
X22223001Y-12576762D02*
X22213477Y-12557714D01*
X22213477Y-12557714D02*
X22194429Y-12548190D01*
X22194429Y-12548190D02*
X22156334Y-12548190D01*
X22156334Y-12548190D02*
X22137286Y-12557714D01*
X22223001Y-12672000D02*
X22203953Y-12681524D01*
X22203953Y-12681524D02*
X22156334Y-12681524D01*
X22156334Y-12681524D02*
X22137286Y-12672000D01*
X22137286Y-12672000D02*
X22127762Y-12652952D01*
X22127762Y-12652952D02*
X22127762Y-12633905D01*
X22127762Y-12633905D02*
X22137286Y-12614857D01*
X22137286Y-12614857D02*
X22156334Y-12605333D01*
X22156334Y-12605333D02*
X22203953Y-12605333D01*
X22203953Y-12605333D02*
X22223001Y-12595809D01*
X22289667Y-12548190D02*
X22365858Y-12548190D01*
X22318239Y-12481524D02*
X22318239Y-12652952D01*
X22318239Y-12652952D02*
X22327762Y-12672000D01*
X22327762Y-12672000D02*
X22346810Y-12681524D01*
X22346810Y-12681524D02*
X22365858Y-12681524D01*
X22508715Y-12672000D02*
X22489667Y-12681524D01*
X22489667Y-12681524D02*
X22451572Y-12681524D01*
X22451572Y-12681524D02*
X22432524Y-12672000D01*
X22432524Y-12672000D02*
X22423000Y-12652952D01*
X22423000Y-12652952D02*
X22423000Y-12576762D01*
X22423000Y-12576762D02*
X22432524Y-12557714D01*
X22432524Y-12557714D02*
X22451572Y-12548190D01*
X22451572Y-12548190D02*
X22489667Y-12548190D01*
X22489667Y-12548190D02*
X22508715Y-12557714D01*
X22508715Y-12557714D02*
X22518239Y-12576762D01*
X22518239Y-12576762D02*
X22518239Y-12595809D01*
X22518239Y-12595809D02*
X22423000Y-12614857D01*
X22689667Y-12681524D02*
X22689667Y-12481524D01*
X22689667Y-12672000D02*
X22670620Y-12681524D01*
X22670620Y-12681524D02*
X22632524Y-12681524D01*
X22632524Y-12681524D02*
X22613477Y-12672000D01*
X22613477Y-12672000D02*
X22603953Y-12662476D01*
X22603953Y-12662476D02*
X22594429Y-12643428D01*
X22594429Y-12643428D02*
X22594429Y-12586286D01*
X22594429Y-12586286D02*
X22603953Y-12567238D01*
X22603953Y-12567238D02*
X22613477Y-12557714D01*
X22613477Y-12557714D02*
X22632524Y-12548190D01*
X22632524Y-12548190D02*
X22670620Y-12548190D01*
X22670620Y-12548190D02*
X22689667Y-12557714D01*
X22765858Y-12757714D02*
X22775381Y-12748190D01*
X22775381Y-12748190D02*
X22794429Y-12719619D01*
X22794429Y-12719619D02*
X22803953Y-12700571D01*
X22803953Y-12700571D02*
X22813477Y-12672000D01*
X22813477Y-12672000D02*
X22823000Y-12624381D01*
X22823000Y-12624381D02*
X22823000Y-12586286D01*
X22823000Y-12586286D02*
X22813477Y-12538667D01*
X22813477Y-12538667D02*
X22803953Y-12510095D01*
X22803953Y-12510095D02*
X22794429Y-12491048D01*
X22794429Y-12491048D02*
X22775381Y-12462476D01*
X22775381Y-12462476D02*
X22765858Y-12452952D01*
X16023000Y-12894000D02*
G75*
G03*
X16023000Y-12894000I-100000J0D01*
G01*
X16251571Y-12786524D02*
X16375381Y-12786524D01*
X16375381Y-12786524D02*
X16308714Y-12862714D01*
X16308714Y-12862714D02*
X16337286Y-12862714D01*
X16337286Y-12862714D02*
X16356333Y-12872238D01*
X16356333Y-12872238D02*
X16365857Y-12881762D01*
X16365857Y-12881762D02*
X16375381Y-12900809D01*
X16375381Y-12900809D02*
X16375381Y-12948428D01*
X16375381Y-12948428D02*
X16365857Y-12967476D01*
X16365857Y-12967476D02*
X16356333Y-12977000D01*
X16356333Y-12977000D02*
X16337286Y-12986524D01*
X16337286Y-12986524D02*
X16280143Y-12986524D01*
X16280143Y-12986524D02*
X16261095Y-12977000D01*
X16261095Y-12977000D02*
X16251571Y-12967476D01*
X16461095Y-12967476D02*
X16470619Y-12977000D01*
X16470619Y-12977000D02*
X16461095Y-12986524D01*
X16461095Y-12986524D02*
X16451571Y-12977000D01*
X16451571Y-12977000D02*
X16461095Y-12967476D01*
X16461095Y-12967476D02*
X16461095Y-12986524D01*
X16546809Y-12805571D02*
X16556333Y-12796048D01*
X16556333Y-12796048D02*
X16575381Y-12786524D01*
X16575381Y-12786524D02*
X16623000Y-12786524D01*
X16623000Y-12786524D02*
X16642048Y-12796048D01*
X16642048Y-12796048D02*
X16651571Y-12805571D01*
X16651571Y-12805571D02*
X16661095Y-12824619D01*
X16661095Y-12824619D02*
X16661095Y-12843667D01*
X16661095Y-12843667D02*
X16651571Y-12872238D01*
X16651571Y-12872238D02*
X16537286Y-12986524D01*
X16537286Y-12986524D02*
X16661095Y-12986524D01*
X16784905Y-12786524D02*
X16803952Y-12786524D01*
X16803952Y-12786524D02*
X16823000Y-12796048D01*
X16823000Y-12796048D02*
X16832524Y-12805571D01*
X16832524Y-12805571D02*
X16842048Y-12824619D01*
X16842048Y-12824619D02*
X16851571Y-12862714D01*
X16851571Y-12862714D02*
X16851571Y-12910333D01*
X16851571Y-12910333D02*
X16842048Y-12948428D01*
X16842048Y-12948428D02*
X16832524Y-12967476D01*
X16832524Y-12967476D02*
X16823000Y-12977000D01*
X16823000Y-12977000D02*
X16803952Y-12986524D01*
X16803952Y-12986524D02*
X16784905Y-12986524D01*
X16784905Y-12986524D02*
X16765857Y-12977000D01*
X16765857Y-12977000D02*
X16756333Y-12967476D01*
X16756333Y-12967476D02*
X16746809Y-12948428D01*
X16746809Y-12948428D02*
X16737286Y-12910333D01*
X16737286Y-12910333D02*
X16737286Y-12862714D01*
X16737286Y-12862714D02*
X16746809Y-12824619D01*
X16746809Y-12824619D02*
X16756333Y-12805571D01*
X16756333Y-12805571D02*
X16765857Y-12796048D01*
X16765857Y-12796048D02*
X16784905Y-12786524D01*
X16975381Y-12786524D02*
X16994429Y-12786524D01*
X16994429Y-12786524D02*
X17013476Y-12796048D01*
X17013476Y-12796048D02*
X17023000Y-12805571D01*
X17023000Y-12805571D02*
X17032524Y-12824619D01*
X17032524Y-12824619D02*
X17042048Y-12862714D01*
X17042048Y-12862714D02*
X17042048Y-12910333D01*
X17042048Y-12910333D02*
X17032524Y-12948428D01*
X17032524Y-12948428D02*
X17023000Y-12967476D01*
X17023000Y-12967476D02*
X17013476Y-12977000D01*
X17013476Y-12977000D02*
X16994429Y-12986524D01*
X16994429Y-12986524D02*
X16975381Y-12986524D01*
X16975381Y-12986524D02*
X16956333Y-12977000D01*
X16956333Y-12977000D02*
X16946810Y-12967476D01*
X16946810Y-12967476D02*
X16937286Y-12948428D01*
X16937286Y-12948428D02*
X16927762Y-12910333D01*
X16927762Y-12910333D02*
X16927762Y-12862714D01*
X16927762Y-12862714D02*
X16937286Y-12824619D01*
X16937286Y-12824619D02*
X16946810Y-12805571D01*
X16946810Y-12805571D02*
X16956333Y-12796048D01*
X16956333Y-12796048D02*
X16975381Y-12786524D01*
X17127762Y-12986524D02*
X17127762Y-12853190D01*
X17127762Y-12872238D02*
X17137286Y-12862714D01*
X17137286Y-12862714D02*
X17156333Y-12853190D01*
X17156333Y-12853190D02*
X17184905Y-12853190D01*
X17184905Y-12853190D02*
X17203952Y-12862714D01*
X17203952Y-12862714D02*
X17213476Y-12881762D01*
X17213476Y-12881762D02*
X17213476Y-12986524D01*
X17213476Y-12881762D02*
X17223000Y-12862714D01*
X17223000Y-12862714D02*
X17242048Y-12853190D01*
X17242048Y-12853190D02*
X17270619Y-12853190D01*
X17270619Y-12853190D02*
X17289667Y-12862714D01*
X17289667Y-12862714D02*
X17299191Y-12881762D01*
X17299191Y-12881762D02*
X17299191Y-12986524D01*
X17394429Y-12986524D02*
X17394429Y-12853190D01*
X17394429Y-12872238D02*
X17403952Y-12862714D01*
X17403952Y-12862714D02*
X17423000Y-12853190D01*
X17423000Y-12853190D02*
X17451572Y-12853190D01*
X17451572Y-12853190D02*
X17470619Y-12862714D01*
X17470619Y-12862714D02*
X17480143Y-12881762D01*
X17480143Y-12881762D02*
X17480143Y-12986524D01*
X17480143Y-12881762D02*
X17489667Y-12862714D01*
X17489667Y-12862714D02*
X17508714Y-12853190D01*
X17508714Y-12853190D02*
X17537286Y-12853190D01*
X17537286Y-12853190D02*
X17556333Y-12862714D01*
X17556333Y-12862714D02*
X17565857Y-12881762D01*
X17565857Y-12881762D02*
X17565857Y-12986524D01*
X17956333Y-12777000D02*
X17784905Y-13034143D01*
X18213476Y-12786524D02*
X18232524Y-12786524D01*
X18232524Y-12786524D02*
X18251572Y-12796048D01*
X18251572Y-12796048D02*
X18261095Y-12805571D01*
X18261095Y-12805571D02*
X18270619Y-12824619D01*
X18270619Y-12824619D02*
X18280143Y-12862714D01*
X18280143Y-12862714D02*
X18280143Y-12910333D01*
X18280143Y-12910333D02*
X18270619Y-12948428D01*
X18270619Y-12948428D02*
X18261095Y-12967476D01*
X18261095Y-12967476D02*
X18251572Y-12977000D01*
X18251572Y-12977000D02*
X18232524Y-12986524D01*
X18232524Y-12986524D02*
X18213476Y-12986524D01*
X18213476Y-12986524D02*
X18194429Y-12977000D01*
X18194429Y-12977000D02*
X18184905Y-12967476D01*
X18184905Y-12967476D02*
X18175381Y-12948428D01*
X18175381Y-12948428D02*
X18165857Y-12910333D01*
X18165857Y-12910333D02*
X18165857Y-12862714D01*
X18165857Y-12862714D02*
X18175381Y-12824619D01*
X18175381Y-12824619D02*
X18184905Y-12805571D01*
X18184905Y-12805571D02*
X18194429Y-12796048D01*
X18194429Y-12796048D02*
X18213476Y-12786524D01*
X18365857Y-12967476D02*
X18375381Y-12977000D01*
X18375381Y-12977000D02*
X18365857Y-12986524D01*
X18365857Y-12986524D02*
X18356334Y-12977000D01*
X18356334Y-12977000D02*
X18365857Y-12967476D01*
X18365857Y-12967476D02*
X18365857Y-12986524D01*
X18565857Y-12986524D02*
X18451572Y-12986524D01*
X18508714Y-12986524D02*
X18508714Y-12786524D01*
X18508714Y-12786524D02*
X18489667Y-12815095D01*
X18489667Y-12815095D02*
X18470619Y-12834143D01*
X18470619Y-12834143D02*
X18451572Y-12843667D01*
X18642048Y-12805571D02*
X18651572Y-12796048D01*
X18651572Y-12796048D02*
X18670619Y-12786524D01*
X18670619Y-12786524D02*
X18718238Y-12786524D01*
X18718238Y-12786524D02*
X18737286Y-12796048D01*
X18737286Y-12796048D02*
X18746810Y-12805571D01*
X18746810Y-12805571D02*
X18756334Y-12824619D01*
X18756334Y-12824619D02*
X18756334Y-12843667D01*
X18756334Y-12843667D02*
X18746810Y-12872238D01*
X18746810Y-12872238D02*
X18632524Y-12986524D01*
X18632524Y-12986524D02*
X18756334Y-12986524D01*
X18927762Y-12786524D02*
X18889667Y-12786524D01*
X18889667Y-12786524D02*
X18870619Y-12796048D01*
X18870619Y-12796048D02*
X18861095Y-12805571D01*
X18861095Y-12805571D02*
X18842048Y-12834143D01*
X18842048Y-12834143D02*
X18832524Y-12872238D01*
X18832524Y-12872238D02*
X18832524Y-12948428D01*
X18832524Y-12948428D02*
X18842048Y-12967476D01*
X18842048Y-12967476D02*
X18851572Y-12977000D01*
X18851572Y-12977000D02*
X18870619Y-12986524D01*
X18870619Y-12986524D02*
X18908715Y-12986524D01*
X18908715Y-12986524D02*
X18927762Y-12977000D01*
X18927762Y-12977000D02*
X18937286Y-12967476D01*
X18937286Y-12967476D02*
X18946810Y-12948428D01*
X18946810Y-12948428D02*
X18946810Y-12900809D01*
X18946810Y-12900809D02*
X18937286Y-12881762D01*
X18937286Y-12881762D02*
X18927762Y-12872238D01*
X18927762Y-12872238D02*
X18908715Y-12862714D01*
X18908715Y-12862714D02*
X18870619Y-12862714D01*
X18870619Y-12862714D02*
X18851572Y-12872238D01*
X18851572Y-12872238D02*
X18842048Y-12881762D01*
X18842048Y-12881762D02*
X18832524Y-12900809D01*
X19070619Y-12786524D02*
X19089667Y-12786524D01*
X19089667Y-12786524D02*
X19108715Y-12796048D01*
X19108715Y-12796048D02*
X19118238Y-12805571D01*
X19118238Y-12805571D02*
X19127762Y-12824619D01*
X19127762Y-12824619D02*
X19137286Y-12862714D01*
X19137286Y-12862714D02*
X19137286Y-12910333D01*
X19137286Y-12910333D02*
X19127762Y-12948428D01*
X19127762Y-12948428D02*
X19118238Y-12967476D01*
X19118238Y-12967476D02*
X19108715Y-12977000D01*
X19108715Y-12977000D02*
X19089667Y-12986524D01*
X19089667Y-12986524D02*
X19070619Y-12986524D01*
X19070619Y-12986524D02*
X19051572Y-12977000D01*
X19051572Y-12977000D02*
X19042048Y-12967476D01*
X19042048Y-12967476D02*
X19032524Y-12948428D01*
X19032524Y-12948428D02*
X19023000Y-12910333D01*
X19023000Y-12910333D02*
X19023000Y-12862714D01*
X19023000Y-12862714D02*
X19032524Y-12824619D01*
X19032524Y-12824619D02*
X19042048Y-12805571D01*
X19042048Y-12805571D02*
X19051572Y-12796048D01*
X19051572Y-12796048D02*
X19070619Y-12786524D01*
X19213476Y-12786524D02*
X19213476Y-12824619D01*
X19289667Y-12786524D02*
X19289667Y-12824619D01*
X19584905Y-13062714D02*
X19575381Y-13053190D01*
X19575381Y-13053190D02*
X19556334Y-13024619D01*
X19556334Y-13024619D02*
X19546810Y-13005571D01*
X19546810Y-13005571D02*
X19537286Y-12977000D01*
X19537286Y-12977000D02*
X19527762Y-12929381D01*
X19527762Y-12929381D02*
X19527762Y-12891286D01*
X19527762Y-12891286D02*
X19537286Y-12843667D01*
X19537286Y-12843667D02*
X19546810Y-12815095D01*
X19546810Y-12815095D02*
X19556334Y-12796048D01*
X19556334Y-12796048D02*
X19575381Y-12767476D01*
X19575381Y-12767476D02*
X19584905Y-12757952D01*
X19756334Y-12786524D02*
X19661096Y-12786524D01*
X19661096Y-12786524D02*
X19651572Y-12881762D01*
X19651572Y-12881762D02*
X19661096Y-12872238D01*
X19661096Y-12872238D02*
X19680143Y-12862714D01*
X19680143Y-12862714D02*
X19727762Y-12862714D01*
X19727762Y-12862714D02*
X19746810Y-12872238D01*
X19746810Y-12872238D02*
X19756334Y-12881762D01*
X19756334Y-12881762D02*
X19765857Y-12900809D01*
X19765857Y-12900809D02*
X19765857Y-12948428D01*
X19765857Y-12948428D02*
X19756334Y-12967476D01*
X19756334Y-12967476D02*
X19746810Y-12977000D01*
X19746810Y-12977000D02*
X19727762Y-12986524D01*
X19727762Y-12986524D02*
X19680143Y-12986524D01*
X19680143Y-12986524D02*
X19661096Y-12977000D01*
X19661096Y-12977000D02*
X19651572Y-12967476D01*
X20003953Y-12986524D02*
X20003953Y-12786524D01*
X20089667Y-12986524D02*
X20089667Y-12881762D01*
X20089667Y-12881762D02*
X20080143Y-12862714D01*
X20080143Y-12862714D02*
X20061096Y-12853190D01*
X20061096Y-12853190D02*
X20032524Y-12853190D01*
X20032524Y-12853190D02*
X20013477Y-12862714D01*
X20013477Y-12862714D02*
X20003953Y-12872238D01*
X20213477Y-12986524D02*
X20194429Y-12977000D01*
X20194429Y-12977000D02*
X20184905Y-12967476D01*
X20184905Y-12967476D02*
X20175381Y-12948428D01*
X20175381Y-12948428D02*
X20175381Y-12891286D01*
X20175381Y-12891286D02*
X20184905Y-12872238D01*
X20184905Y-12872238D02*
X20194429Y-12862714D01*
X20194429Y-12862714D02*
X20213477Y-12853190D01*
X20213477Y-12853190D02*
X20242048Y-12853190D01*
X20242048Y-12853190D02*
X20261096Y-12862714D01*
X20261096Y-12862714D02*
X20270619Y-12872238D01*
X20270619Y-12872238D02*
X20280143Y-12891286D01*
X20280143Y-12891286D02*
X20280143Y-12948428D01*
X20280143Y-12948428D02*
X20270619Y-12967476D01*
X20270619Y-12967476D02*
X20261096Y-12977000D01*
X20261096Y-12977000D02*
X20242048Y-12986524D01*
X20242048Y-12986524D02*
X20213477Y-12986524D01*
X20394429Y-12986524D02*
X20375381Y-12977000D01*
X20375381Y-12977000D02*
X20365858Y-12957952D01*
X20365858Y-12957952D02*
X20365858Y-12786524D01*
X20546810Y-12977000D02*
X20527762Y-12986524D01*
X20527762Y-12986524D02*
X20489667Y-12986524D01*
X20489667Y-12986524D02*
X20470619Y-12977000D01*
X20470619Y-12977000D02*
X20461096Y-12957952D01*
X20461096Y-12957952D02*
X20461096Y-12881762D01*
X20461096Y-12881762D02*
X20470619Y-12862714D01*
X20470619Y-12862714D02*
X20489667Y-12853190D01*
X20489667Y-12853190D02*
X20527762Y-12853190D01*
X20527762Y-12853190D02*
X20546810Y-12862714D01*
X20546810Y-12862714D02*
X20556334Y-12881762D01*
X20556334Y-12881762D02*
X20556334Y-12900809D01*
X20556334Y-12900809D02*
X20461096Y-12919857D01*
X20632524Y-12977000D02*
X20651572Y-12986524D01*
X20651572Y-12986524D02*
X20689667Y-12986524D01*
X20689667Y-12986524D02*
X20708715Y-12977000D01*
X20708715Y-12977000D02*
X20718239Y-12957952D01*
X20718239Y-12957952D02*
X20718239Y-12948428D01*
X20718239Y-12948428D02*
X20708715Y-12929381D01*
X20708715Y-12929381D02*
X20689667Y-12919857D01*
X20689667Y-12919857D02*
X20661096Y-12919857D01*
X20661096Y-12919857D02*
X20642048Y-12910333D01*
X20642048Y-12910333D02*
X20632524Y-12891286D01*
X20632524Y-12891286D02*
X20632524Y-12881762D01*
X20632524Y-12881762D02*
X20642048Y-12862714D01*
X20642048Y-12862714D02*
X20661096Y-12853190D01*
X20661096Y-12853190D02*
X20689667Y-12853190D01*
X20689667Y-12853190D02*
X20708715Y-12862714D01*
X20784905Y-13062714D02*
X20794429Y-13053190D01*
X20794429Y-13053190D02*
X20813477Y-13024619D01*
X20813477Y-13024619D02*
X20823000Y-13005571D01*
X20823000Y-13005571D02*
X20832524Y-12977000D01*
X20832524Y-12977000D02*
X20842048Y-12929381D01*
X20842048Y-12929381D02*
X20842048Y-12891286D01*
X20842048Y-12891286D02*
X20832524Y-12843667D01*
X20832524Y-12843667D02*
X20823000Y-12815095D01*
X20823000Y-12815095D02*
X20813477Y-12796048D01*
X20813477Y-12796048D02*
X20794429Y-12767476D01*
X20794429Y-12767476D02*
X20784905Y-12757952D01*
X21146810Y-13062714D02*
X21137286Y-13053190D01*
X21137286Y-13053190D02*
X21118239Y-13024619D01*
X21118239Y-13024619D02*
X21108715Y-13005571D01*
X21108715Y-13005571D02*
X21099191Y-12977000D01*
X21099191Y-12977000D02*
X21089667Y-12929381D01*
X21089667Y-12929381D02*
X21089667Y-12891286D01*
X21089667Y-12891286D02*
X21099191Y-12843667D01*
X21099191Y-12843667D02*
X21108715Y-12815095D01*
X21108715Y-12815095D02*
X21118239Y-12796048D01*
X21118239Y-12796048D02*
X21137286Y-12767476D01*
X21137286Y-12767476D02*
X21146810Y-12757952D01*
X21223000Y-12853190D02*
X21223000Y-12986524D01*
X21223000Y-12872238D02*
X21232524Y-12862714D01*
X21232524Y-12862714D02*
X21251572Y-12853190D01*
X21251572Y-12853190D02*
X21280143Y-12853190D01*
X21280143Y-12853190D02*
X21299191Y-12862714D01*
X21299191Y-12862714D02*
X21308715Y-12881762D01*
X21308715Y-12881762D02*
X21308715Y-12986524D01*
X21432524Y-12986524D02*
X21413477Y-12977000D01*
X21413477Y-12977000D02*
X21403953Y-12967476D01*
X21403953Y-12967476D02*
X21394429Y-12948428D01*
X21394429Y-12948428D02*
X21394429Y-12891286D01*
X21394429Y-12891286D02*
X21403953Y-12872238D01*
X21403953Y-12872238D02*
X21413477Y-12862714D01*
X21413477Y-12862714D02*
X21432524Y-12853190D01*
X21432524Y-12853190D02*
X21461096Y-12853190D01*
X21461096Y-12853190D02*
X21480143Y-12862714D01*
X21480143Y-12862714D02*
X21489667Y-12872238D01*
X21489667Y-12872238D02*
X21499191Y-12891286D01*
X21499191Y-12891286D02*
X21499191Y-12948428D01*
X21499191Y-12948428D02*
X21489667Y-12967476D01*
X21489667Y-12967476D02*
X21480143Y-12977000D01*
X21480143Y-12977000D02*
X21461096Y-12986524D01*
X21461096Y-12986524D02*
X21432524Y-12986524D01*
X21556334Y-12853190D02*
X21632524Y-12853190D01*
X21584905Y-12786524D02*
X21584905Y-12957952D01*
X21584905Y-12957952D02*
X21594429Y-12977000D01*
X21594429Y-12977000D02*
X21613477Y-12986524D01*
X21613477Y-12986524D02*
X21632524Y-12986524D01*
X21851572Y-12853190D02*
X21851572Y-13053190D01*
X21851572Y-12862714D02*
X21870620Y-12853190D01*
X21870620Y-12853190D02*
X21908715Y-12853190D01*
X21908715Y-12853190D02*
X21927762Y-12862714D01*
X21927762Y-12862714D02*
X21937286Y-12872238D01*
X21937286Y-12872238D02*
X21946810Y-12891286D01*
X21946810Y-12891286D02*
X21946810Y-12948428D01*
X21946810Y-12948428D02*
X21937286Y-12967476D01*
X21937286Y-12967476D02*
X21927762Y-12977000D01*
X21927762Y-12977000D02*
X21908715Y-12986524D01*
X21908715Y-12986524D02*
X21870620Y-12986524D01*
X21870620Y-12986524D02*
X21851572Y-12977000D01*
X22061096Y-12986524D02*
X22042048Y-12977000D01*
X22042048Y-12977000D02*
X22032524Y-12957952D01*
X22032524Y-12957952D02*
X22032524Y-12786524D01*
X22223001Y-12986524D02*
X22223001Y-12881762D01*
X22223001Y-12881762D02*
X22213477Y-12862714D01*
X22213477Y-12862714D02*
X22194429Y-12853190D01*
X22194429Y-12853190D02*
X22156334Y-12853190D01*
X22156334Y-12853190D02*
X22137286Y-12862714D01*
X22223001Y-12977000D02*
X22203953Y-12986524D01*
X22203953Y-12986524D02*
X22156334Y-12986524D01*
X22156334Y-12986524D02*
X22137286Y-12977000D01*
X22137286Y-12977000D02*
X22127762Y-12957952D01*
X22127762Y-12957952D02*
X22127762Y-12938905D01*
X22127762Y-12938905D02*
X22137286Y-12919857D01*
X22137286Y-12919857D02*
X22156334Y-12910333D01*
X22156334Y-12910333D02*
X22203953Y-12910333D01*
X22203953Y-12910333D02*
X22223001Y-12900809D01*
X22289667Y-12853190D02*
X22365858Y-12853190D01*
X22318239Y-12786524D02*
X22318239Y-12957952D01*
X22318239Y-12957952D02*
X22327762Y-12977000D01*
X22327762Y-12977000D02*
X22346810Y-12986524D01*
X22346810Y-12986524D02*
X22365858Y-12986524D01*
X22508715Y-12977000D02*
X22489667Y-12986524D01*
X22489667Y-12986524D02*
X22451572Y-12986524D01*
X22451572Y-12986524D02*
X22432524Y-12977000D01*
X22432524Y-12977000D02*
X22423000Y-12957952D01*
X22423000Y-12957952D02*
X22423000Y-12881762D01*
X22423000Y-12881762D02*
X22432524Y-12862714D01*
X22432524Y-12862714D02*
X22451572Y-12853190D01*
X22451572Y-12853190D02*
X22489667Y-12853190D01*
X22489667Y-12853190D02*
X22508715Y-12862714D01*
X22508715Y-12862714D02*
X22518239Y-12881762D01*
X22518239Y-12881762D02*
X22518239Y-12900809D01*
X22518239Y-12900809D02*
X22423000Y-12919857D01*
X22689667Y-12986524D02*
X22689667Y-12786524D01*
X22689667Y-12977000D02*
X22670620Y-12986524D01*
X22670620Y-12986524D02*
X22632524Y-12986524D01*
X22632524Y-12986524D02*
X22613477Y-12977000D01*
X22613477Y-12977000D02*
X22603953Y-12967476D01*
X22603953Y-12967476D02*
X22594429Y-12948428D01*
X22594429Y-12948428D02*
X22594429Y-12891286D01*
X22594429Y-12891286D02*
X22603953Y-12872238D01*
X22603953Y-12872238D02*
X22613477Y-12862714D01*
X22613477Y-12862714D02*
X22632524Y-12853190D01*
X22632524Y-12853190D02*
X22670620Y-12853190D01*
X22670620Y-12853190D02*
X22689667Y-12862714D01*
X22765858Y-13062714D02*
X22775381Y-13053190D01*
X22775381Y-13053190D02*
X22794429Y-13024619D01*
X22794429Y-13024619D02*
X22803953Y-13005571D01*
X22803953Y-13005571D02*
X22813477Y-12977000D01*
X22813477Y-12977000D02*
X22823000Y-12929381D01*
X22823000Y-12929381D02*
X22823000Y-12891286D01*
X22823000Y-12891286D02*
X22813477Y-12843667D01*
X22813477Y-12843667D02*
X22803953Y-12815095D01*
X22803953Y-12815095D02*
X22794429Y-12796048D01*
X22794429Y-12796048D02*
X22775381Y-12767476D01*
X22775381Y-12767476D02*
X22765858Y-12757952D01*
X15923000Y-13114000D02*
X15923000Y-13314000D01*
X15823000Y-13214000D02*
X16023000Y-13214000D01*
X16356333Y-13173190D02*
X16356333Y-13306524D01*
X16308714Y-13097000D02*
X16261095Y-13239857D01*
X16261095Y-13239857D02*
X16384905Y-13239857D01*
X16461095Y-13287476D02*
X16470619Y-13297000D01*
X16470619Y-13297000D02*
X16461095Y-13306524D01*
X16461095Y-13306524D02*
X16451571Y-13297000D01*
X16451571Y-13297000D02*
X16461095Y-13287476D01*
X16461095Y-13287476D02*
X16461095Y-13306524D01*
X16661095Y-13306524D02*
X16546809Y-13306524D01*
X16603952Y-13306524D02*
X16603952Y-13106524D01*
X16603952Y-13106524D02*
X16584905Y-13135095D01*
X16584905Y-13135095D02*
X16565857Y-13154143D01*
X16565857Y-13154143D02*
X16546809Y-13163667D01*
X16784905Y-13106524D02*
X16803952Y-13106524D01*
X16803952Y-13106524D02*
X16823000Y-13116048D01*
X16823000Y-13116048D02*
X16832524Y-13125571D01*
X16832524Y-13125571D02*
X16842048Y-13144619D01*
X16842048Y-13144619D02*
X16851571Y-13182714D01*
X16851571Y-13182714D02*
X16851571Y-13230333D01*
X16851571Y-13230333D02*
X16842048Y-13268428D01*
X16842048Y-13268428D02*
X16832524Y-13287476D01*
X16832524Y-13287476D02*
X16823000Y-13297000D01*
X16823000Y-13297000D02*
X16803952Y-13306524D01*
X16803952Y-13306524D02*
X16784905Y-13306524D01*
X16784905Y-13306524D02*
X16765857Y-13297000D01*
X16765857Y-13297000D02*
X16756333Y-13287476D01*
X16756333Y-13287476D02*
X16746809Y-13268428D01*
X16746809Y-13268428D02*
X16737286Y-13230333D01*
X16737286Y-13230333D02*
X16737286Y-13182714D01*
X16737286Y-13182714D02*
X16746809Y-13144619D01*
X16746809Y-13144619D02*
X16756333Y-13125571D01*
X16756333Y-13125571D02*
X16765857Y-13116048D01*
X16765857Y-13116048D02*
X16784905Y-13106524D01*
X16975381Y-13106524D02*
X16994429Y-13106524D01*
X16994429Y-13106524D02*
X17013476Y-13116048D01*
X17013476Y-13116048D02*
X17023000Y-13125571D01*
X17023000Y-13125571D02*
X17032524Y-13144619D01*
X17032524Y-13144619D02*
X17042048Y-13182714D01*
X17042048Y-13182714D02*
X17042048Y-13230333D01*
X17042048Y-13230333D02*
X17032524Y-13268428D01*
X17032524Y-13268428D02*
X17023000Y-13287476D01*
X17023000Y-13287476D02*
X17013476Y-13297000D01*
X17013476Y-13297000D02*
X16994429Y-13306524D01*
X16994429Y-13306524D02*
X16975381Y-13306524D01*
X16975381Y-13306524D02*
X16956333Y-13297000D01*
X16956333Y-13297000D02*
X16946810Y-13287476D01*
X16946810Y-13287476D02*
X16937286Y-13268428D01*
X16937286Y-13268428D02*
X16927762Y-13230333D01*
X16927762Y-13230333D02*
X16927762Y-13182714D01*
X16927762Y-13182714D02*
X16937286Y-13144619D01*
X16937286Y-13144619D02*
X16946810Y-13125571D01*
X16946810Y-13125571D02*
X16956333Y-13116048D01*
X16956333Y-13116048D02*
X16975381Y-13106524D01*
X17127762Y-13306524D02*
X17127762Y-13173190D01*
X17127762Y-13192238D02*
X17137286Y-13182714D01*
X17137286Y-13182714D02*
X17156333Y-13173190D01*
X17156333Y-13173190D02*
X17184905Y-13173190D01*
X17184905Y-13173190D02*
X17203952Y-13182714D01*
X17203952Y-13182714D02*
X17213476Y-13201762D01*
X17213476Y-13201762D02*
X17213476Y-13306524D01*
X17213476Y-13201762D02*
X17223000Y-13182714D01*
X17223000Y-13182714D02*
X17242048Y-13173190D01*
X17242048Y-13173190D02*
X17270619Y-13173190D01*
X17270619Y-13173190D02*
X17289667Y-13182714D01*
X17289667Y-13182714D02*
X17299191Y-13201762D01*
X17299191Y-13201762D02*
X17299191Y-13306524D01*
X17394429Y-13306524D02*
X17394429Y-13173190D01*
X17394429Y-13192238D02*
X17403952Y-13182714D01*
X17403952Y-13182714D02*
X17423000Y-13173190D01*
X17423000Y-13173190D02*
X17451572Y-13173190D01*
X17451572Y-13173190D02*
X17470619Y-13182714D01*
X17470619Y-13182714D02*
X17480143Y-13201762D01*
X17480143Y-13201762D02*
X17480143Y-13306524D01*
X17480143Y-13201762D02*
X17489667Y-13182714D01*
X17489667Y-13182714D02*
X17508714Y-13173190D01*
X17508714Y-13173190D02*
X17537286Y-13173190D01*
X17537286Y-13173190D02*
X17556333Y-13182714D01*
X17556333Y-13182714D02*
X17565857Y-13201762D01*
X17565857Y-13201762D02*
X17565857Y-13306524D01*
X17956333Y-13097000D02*
X17784905Y-13354143D01*
X18213476Y-13106524D02*
X18232524Y-13106524D01*
X18232524Y-13106524D02*
X18251572Y-13116048D01*
X18251572Y-13116048D02*
X18261095Y-13125571D01*
X18261095Y-13125571D02*
X18270619Y-13144619D01*
X18270619Y-13144619D02*
X18280143Y-13182714D01*
X18280143Y-13182714D02*
X18280143Y-13230333D01*
X18280143Y-13230333D02*
X18270619Y-13268428D01*
X18270619Y-13268428D02*
X18261095Y-13287476D01*
X18261095Y-13287476D02*
X18251572Y-13297000D01*
X18251572Y-13297000D02*
X18232524Y-13306524D01*
X18232524Y-13306524D02*
X18213476Y-13306524D01*
X18213476Y-13306524D02*
X18194429Y-13297000D01*
X18194429Y-13297000D02*
X18184905Y-13287476D01*
X18184905Y-13287476D02*
X18175381Y-13268428D01*
X18175381Y-13268428D02*
X18165857Y-13230333D01*
X18165857Y-13230333D02*
X18165857Y-13182714D01*
X18165857Y-13182714D02*
X18175381Y-13144619D01*
X18175381Y-13144619D02*
X18184905Y-13125571D01*
X18184905Y-13125571D02*
X18194429Y-13116048D01*
X18194429Y-13116048D02*
X18213476Y-13106524D01*
X18365857Y-13287476D02*
X18375381Y-13297000D01*
X18375381Y-13297000D02*
X18365857Y-13306524D01*
X18365857Y-13306524D02*
X18356334Y-13297000D01*
X18356334Y-13297000D02*
X18365857Y-13287476D01*
X18365857Y-13287476D02*
X18365857Y-13306524D01*
X18565857Y-13306524D02*
X18451572Y-13306524D01*
X18508714Y-13306524D02*
X18508714Y-13106524D01*
X18508714Y-13106524D02*
X18489667Y-13135095D01*
X18489667Y-13135095D02*
X18470619Y-13154143D01*
X18470619Y-13154143D02*
X18451572Y-13163667D01*
X18737286Y-13106524D02*
X18699191Y-13106524D01*
X18699191Y-13106524D02*
X18680143Y-13116048D01*
X18680143Y-13116048D02*
X18670619Y-13125571D01*
X18670619Y-13125571D02*
X18651572Y-13154143D01*
X18651572Y-13154143D02*
X18642048Y-13192238D01*
X18642048Y-13192238D02*
X18642048Y-13268428D01*
X18642048Y-13268428D02*
X18651572Y-13287476D01*
X18651572Y-13287476D02*
X18661095Y-13297000D01*
X18661095Y-13297000D02*
X18680143Y-13306524D01*
X18680143Y-13306524D02*
X18718238Y-13306524D01*
X18718238Y-13306524D02*
X18737286Y-13297000D01*
X18737286Y-13297000D02*
X18746810Y-13287476D01*
X18746810Y-13287476D02*
X18756334Y-13268428D01*
X18756334Y-13268428D02*
X18756334Y-13220809D01*
X18756334Y-13220809D02*
X18746810Y-13201762D01*
X18746810Y-13201762D02*
X18737286Y-13192238D01*
X18737286Y-13192238D02*
X18718238Y-13182714D01*
X18718238Y-13182714D02*
X18680143Y-13182714D01*
X18680143Y-13182714D02*
X18661095Y-13192238D01*
X18661095Y-13192238D02*
X18651572Y-13201762D01*
X18651572Y-13201762D02*
X18642048Y-13220809D01*
X18946810Y-13306524D02*
X18832524Y-13306524D01*
X18889667Y-13306524D02*
X18889667Y-13106524D01*
X18889667Y-13106524D02*
X18870619Y-13135095D01*
X18870619Y-13135095D02*
X18851572Y-13154143D01*
X18851572Y-13154143D02*
X18832524Y-13163667D01*
X19118238Y-13173190D02*
X19118238Y-13306524D01*
X19070619Y-13097000D02*
X19023000Y-13239857D01*
X19023000Y-13239857D02*
X19146810Y-13239857D01*
X19213476Y-13106524D02*
X19213476Y-13144619D01*
X19289667Y-13106524D02*
X19289667Y-13144619D01*
X19584905Y-13382714D02*
X19575381Y-13373190D01*
X19575381Y-13373190D02*
X19556334Y-13344619D01*
X19556334Y-13344619D02*
X19546810Y-13325571D01*
X19546810Y-13325571D02*
X19537286Y-13297000D01*
X19537286Y-13297000D02*
X19527762Y-13249381D01*
X19527762Y-13249381D02*
X19527762Y-13211286D01*
X19527762Y-13211286D02*
X19537286Y-13163667D01*
X19537286Y-13163667D02*
X19546810Y-13135095D01*
X19546810Y-13135095D02*
X19556334Y-13116048D01*
X19556334Y-13116048D02*
X19575381Y-13087476D01*
X19575381Y-13087476D02*
X19584905Y-13077952D01*
X19765857Y-13306524D02*
X19651572Y-13306524D01*
X19708715Y-13306524D02*
X19708715Y-13106524D01*
X19708715Y-13106524D02*
X19689667Y-13135095D01*
X19689667Y-13135095D02*
X19670619Y-13154143D01*
X19670619Y-13154143D02*
X19651572Y-13163667D01*
X20003953Y-13306524D02*
X20003953Y-13106524D01*
X20089667Y-13306524D02*
X20089667Y-13201762D01*
X20089667Y-13201762D02*
X20080143Y-13182714D01*
X20080143Y-13182714D02*
X20061096Y-13173190D01*
X20061096Y-13173190D02*
X20032524Y-13173190D01*
X20032524Y-13173190D02*
X20013477Y-13182714D01*
X20013477Y-13182714D02*
X20003953Y-13192238D01*
X20213477Y-13306524D02*
X20194429Y-13297000D01*
X20194429Y-13297000D02*
X20184905Y-13287476D01*
X20184905Y-13287476D02*
X20175381Y-13268428D01*
X20175381Y-13268428D02*
X20175381Y-13211286D01*
X20175381Y-13211286D02*
X20184905Y-13192238D01*
X20184905Y-13192238D02*
X20194429Y-13182714D01*
X20194429Y-13182714D02*
X20213477Y-13173190D01*
X20213477Y-13173190D02*
X20242048Y-13173190D01*
X20242048Y-13173190D02*
X20261096Y-13182714D01*
X20261096Y-13182714D02*
X20270619Y-13192238D01*
X20270619Y-13192238D02*
X20280143Y-13211286D01*
X20280143Y-13211286D02*
X20280143Y-13268428D01*
X20280143Y-13268428D02*
X20270619Y-13287476D01*
X20270619Y-13287476D02*
X20261096Y-13297000D01*
X20261096Y-13297000D02*
X20242048Y-13306524D01*
X20242048Y-13306524D02*
X20213477Y-13306524D01*
X20394429Y-13306524D02*
X20375381Y-13297000D01*
X20375381Y-13297000D02*
X20365858Y-13277952D01*
X20365858Y-13277952D02*
X20365858Y-13106524D01*
X20546810Y-13297000D02*
X20527762Y-13306524D01*
X20527762Y-13306524D02*
X20489667Y-13306524D01*
X20489667Y-13306524D02*
X20470619Y-13297000D01*
X20470619Y-13297000D02*
X20461096Y-13277952D01*
X20461096Y-13277952D02*
X20461096Y-13201762D01*
X20461096Y-13201762D02*
X20470619Y-13182714D01*
X20470619Y-13182714D02*
X20489667Y-13173190D01*
X20489667Y-13173190D02*
X20527762Y-13173190D01*
X20527762Y-13173190D02*
X20546810Y-13182714D01*
X20546810Y-13182714D02*
X20556334Y-13201762D01*
X20556334Y-13201762D02*
X20556334Y-13220809D01*
X20556334Y-13220809D02*
X20461096Y-13239857D01*
X20623000Y-13382714D02*
X20632524Y-13373190D01*
X20632524Y-13373190D02*
X20651572Y-13344619D01*
X20651572Y-13344619D02*
X20661096Y-13325571D01*
X20661096Y-13325571D02*
X20670619Y-13297000D01*
X20670619Y-13297000D02*
X20680143Y-13249381D01*
X20680143Y-13249381D02*
X20680143Y-13211286D01*
X20680143Y-13211286D02*
X20670619Y-13163667D01*
X20670619Y-13163667D02*
X20661096Y-13135095D01*
X20661096Y-13135095D02*
X20651572Y-13116048D01*
X20651572Y-13116048D02*
X20632524Y-13087476D01*
X20632524Y-13087476D02*
X20623000Y-13077952D01*
X20984905Y-13382714D02*
X20975381Y-13373190D01*
X20975381Y-13373190D02*
X20956334Y-13344619D01*
X20956334Y-13344619D02*
X20946810Y-13325571D01*
X20946810Y-13325571D02*
X20937286Y-13297000D01*
X20937286Y-13297000D02*
X20927762Y-13249381D01*
X20927762Y-13249381D02*
X20927762Y-13211286D01*
X20927762Y-13211286D02*
X20937286Y-13163667D01*
X20937286Y-13163667D02*
X20946810Y-13135095D01*
X20946810Y-13135095D02*
X20956334Y-13116048D01*
X20956334Y-13116048D02*
X20975381Y-13087476D01*
X20975381Y-13087476D02*
X20984905Y-13077952D01*
X21061096Y-13173190D02*
X21061096Y-13306524D01*
X21061096Y-13192238D02*
X21070619Y-13182714D01*
X21070619Y-13182714D02*
X21089667Y-13173190D01*
X21089667Y-13173190D02*
X21118239Y-13173190D01*
X21118239Y-13173190D02*
X21137286Y-13182714D01*
X21137286Y-13182714D02*
X21146810Y-13201762D01*
X21146810Y-13201762D02*
X21146810Y-13306524D01*
X21270619Y-13306524D02*
X21251572Y-13297000D01*
X21251572Y-13297000D02*
X21242048Y-13287476D01*
X21242048Y-13287476D02*
X21232524Y-13268428D01*
X21232524Y-13268428D02*
X21232524Y-13211286D01*
X21232524Y-13211286D02*
X21242048Y-13192238D01*
X21242048Y-13192238D02*
X21251572Y-13182714D01*
X21251572Y-13182714D02*
X21270619Y-13173190D01*
X21270619Y-13173190D02*
X21299191Y-13173190D01*
X21299191Y-13173190D02*
X21318239Y-13182714D01*
X21318239Y-13182714D02*
X21327762Y-13192238D01*
X21327762Y-13192238D02*
X21337286Y-13211286D01*
X21337286Y-13211286D02*
X21337286Y-13268428D01*
X21337286Y-13268428D02*
X21327762Y-13287476D01*
X21327762Y-13287476D02*
X21318239Y-13297000D01*
X21318239Y-13297000D02*
X21299191Y-13306524D01*
X21299191Y-13306524D02*
X21270619Y-13306524D01*
X21394429Y-13173190D02*
X21470619Y-13173190D01*
X21423000Y-13106524D02*
X21423000Y-13277952D01*
X21423000Y-13277952D02*
X21432524Y-13297000D01*
X21432524Y-13297000D02*
X21451572Y-13306524D01*
X21451572Y-13306524D02*
X21470619Y-13306524D01*
X21689667Y-13173190D02*
X21689667Y-13373190D01*
X21689667Y-13182714D02*
X21708715Y-13173190D01*
X21708715Y-13173190D02*
X21746810Y-13173190D01*
X21746810Y-13173190D02*
X21765858Y-13182714D01*
X21765858Y-13182714D02*
X21775381Y-13192238D01*
X21775381Y-13192238D02*
X21784905Y-13211286D01*
X21784905Y-13211286D02*
X21784905Y-13268428D01*
X21784905Y-13268428D02*
X21775381Y-13287476D01*
X21775381Y-13287476D02*
X21765858Y-13297000D01*
X21765858Y-13297000D02*
X21746810Y-13306524D01*
X21746810Y-13306524D02*
X21708715Y-13306524D01*
X21708715Y-13306524D02*
X21689667Y-13297000D01*
X21899191Y-13306524D02*
X21880143Y-13297000D01*
X21880143Y-13297000D02*
X21870620Y-13277952D01*
X21870620Y-13277952D02*
X21870620Y-13106524D01*
X22061096Y-13306524D02*
X22061096Y-13201762D01*
X22061096Y-13201762D02*
X22051572Y-13182714D01*
X22051572Y-13182714D02*
X22032524Y-13173190D01*
X22032524Y-13173190D02*
X21994429Y-13173190D01*
X21994429Y-13173190D02*
X21975381Y-13182714D01*
X22061096Y-13297000D02*
X22042048Y-13306524D01*
X22042048Y-13306524D02*
X21994429Y-13306524D01*
X21994429Y-13306524D02*
X21975381Y-13297000D01*
X21975381Y-13297000D02*
X21965858Y-13277952D01*
X21965858Y-13277952D02*
X21965858Y-13258905D01*
X21965858Y-13258905D02*
X21975381Y-13239857D01*
X21975381Y-13239857D02*
X21994429Y-13230333D01*
X21994429Y-13230333D02*
X22042048Y-13230333D01*
X22042048Y-13230333D02*
X22061096Y-13220809D01*
X22127762Y-13173190D02*
X22203953Y-13173190D01*
X22156334Y-13106524D02*
X22156334Y-13277952D01*
X22156334Y-13277952D02*
X22165858Y-13297000D01*
X22165858Y-13297000D02*
X22184905Y-13306524D01*
X22184905Y-13306524D02*
X22203953Y-13306524D01*
X22346810Y-13297000D02*
X22327762Y-13306524D01*
X22327762Y-13306524D02*
X22289667Y-13306524D01*
X22289667Y-13306524D02*
X22270620Y-13297000D01*
X22270620Y-13297000D02*
X22261096Y-13277952D01*
X22261096Y-13277952D02*
X22261096Y-13201762D01*
X22261096Y-13201762D02*
X22270620Y-13182714D01*
X22270620Y-13182714D02*
X22289667Y-13173190D01*
X22289667Y-13173190D02*
X22327762Y-13173190D01*
X22327762Y-13173190D02*
X22346810Y-13182714D01*
X22346810Y-13182714D02*
X22356334Y-13201762D01*
X22356334Y-13201762D02*
X22356334Y-13220809D01*
X22356334Y-13220809D02*
X22261096Y-13239857D01*
X22527762Y-13306524D02*
X22527762Y-13106524D01*
X22527762Y-13297000D02*
X22508715Y-13306524D01*
X22508715Y-13306524D02*
X22470619Y-13306524D01*
X22470619Y-13306524D02*
X22451572Y-13297000D01*
X22451572Y-13297000D02*
X22442048Y-13287476D01*
X22442048Y-13287476D02*
X22432524Y-13268428D01*
X22432524Y-13268428D02*
X22432524Y-13211286D01*
X22432524Y-13211286D02*
X22442048Y-13192238D01*
X22442048Y-13192238D02*
X22451572Y-13182714D01*
X22451572Y-13182714D02*
X22470619Y-13173190D01*
X22470619Y-13173190D02*
X22508715Y-13173190D01*
X22508715Y-13173190D02*
X22527762Y-13182714D01*
X22603953Y-13382714D02*
X22613477Y-13373190D01*
X22613477Y-13373190D02*
X22632524Y-13344619D01*
X22632524Y-13344619D02*
X22642048Y-13325571D01*
X22642048Y-13325571D02*
X22651572Y-13297000D01*
X22651572Y-13297000D02*
X22661096Y-13249381D01*
X22661096Y-13249381D02*
X22661096Y-13211286D01*
X22661096Y-13211286D02*
X22651572Y-13163667D01*
X22651572Y-13163667D02*
X22642048Y-13135095D01*
X22642048Y-13135095D02*
X22632524Y-13116048D01*
X22632524Y-13116048D02*
X22613477Y-13087476D01*
X22613477Y-13087476D02*
X22603953Y-13077952D01*
M02*
