G04 #@! TF.GenerationSoftware,KiCad,Pcbnew,7.0.1*
G04 #@! TF.CreationDate,2023-10-11T19:34:26-05:00*
G04 #@! TF.ProjectId,Tactile_Board,54616374-696c-4655-9f42-6f6172642e6b,1*
G04 #@! TF.SameCoordinates,Original*
G04 #@! TF.FileFunction,Copper,L6,Bot*
G04 #@! TF.FilePolarity,Positive*
%FSLAX46Y46*%
G04 Gerber Fmt 4.6, Leading zero omitted, Abs format (unit mm)*
G04 Created by KiCad (PCBNEW 7.0.1) date 2023-10-11 19:34:26*
%MOMM*%
%LPD*%
G01*
G04 APERTURE LIST*
G04 #@! TA.AperFunction,ComponentPad*
%ADD10C,2.000000*%
G04 #@! TD*
G04 #@! TA.AperFunction,ComponentPad*
%ADD11C,2.324000*%
G04 #@! TD*
G04 #@! TA.AperFunction,ComponentPad*
%ADD12C,1.650000*%
G04 #@! TD*
G04 #@! TA.AperFunction,ComponentPad*
%ADD13C,5.100000*%
G04 #@! TD*
G04 #@! TA.AperFunction,ComponentPad*
%ADD14C,1.875000*%
G04 #@! TD*
G04 #@! TA.AperFunction,ComponentPad*
%ADD15C,1.300000*%
G04 #@! TD*
G04 #@! TA.AperFunction,ComponentPad*
%ADD16C,1.524000*%
G04 #@! TD*
G04 #@! TA.AperFunction,ViaPad*
%ADD17C,0.500000*%
G04 #@! TD*
G04 #@! TA.AperFunction,Conductor*
%ADD18C,0.130000*%
G04 #@! TD*
G04 #@! TA.AperFunction,Conductor*
%ADD19C,0.200000*%
G04 #@! TD*
G04 APERTURE END LIST*
D10*
X162052000Y-109858800D03*
X168552000Y-109858800D03*
X162052000Y-114358800D03*
X168552000Y-114358800D03*
D11*
X247140800Y-108095600D03*
X253490800Y-105555600D03*
D12*
X204957200Y-67902800D03*
X204957200Y-72902800D03*
D13*
X212457200Y-64802800D03*
D12*
X204957200Y-70402800D03*
D13*
X212457200Y-76002800D03*
D14*
X212320799Y-38678400D03*
X212320799Y-26178400D03*
X217320799Y-38678400D03*
X217320799Y-26178400D03*
D12*
X167983600Y-35737000D03*
X172983600Y-35737000D03*
D13*
X164883600Y-28237000D03*
D12*
X170483600Y-35737000D03*
D13*
X176083600Y-28237000D03*
D15*
X164540000Y-85325000D03*
X164540000Y-87325000D03*
X164540000Y-89325000D03*
X164540000Y-91325000D03*
X164540000Y-93325000D03*
X164540000Y-95325000D03*
X164540000Y-97325000D03*
X164540000Y-99325000D03*
D16*
X244956400Y-22446800D03*
X244956400Y-35146800D03*
X255116400Y-22446800D03*
X255116400Y-35146800D03*
D15*
X194715200Y-109416400D03*
X194715200Y-114816400D03*
X197215200Y-109416400D03*
X197215200Y-114816400D03*
X199715200Y-109416400D03*
X199715200Y-114816400D03*
D17*
X190642993Y-97283407D03*
X178478100Y-83559200D03*
X183310600Y-83559200D03*
X184688500Y-83559200D03*
X179837100Y-83559200D03*
X191603952Y-96322448D03*
X163092200Y-92024500D03*
X163117600Y-90625500D03*
X179373600Y-91611000D03*
X178967549Y-93262349D03*
X171790000Y-47500000D03*
X212990000Y-85900000D03*
X166790000Y-89900000D03*
X161390000Y-32300000D03*
X232140336Y-26837816D03*
X189190000Y-86700000D03*
X161390000Y-56500000D03*
X198190000Y-104700000D03*
X227990000Y-82500000D03*
X168790000Y-88100000D03*
X248390000Y-113900000D03*
X167590000Y-92700000D03*
X195655000Y-117900000D03*
X258190000Y-51700000D03*
X188390000Y-64900000D03*
X245390000Y-96100000D03*
X171190000Y-83500000D03*
X161390000Y-59100000D03*
X234023927Y-37103391D03*
X192990000Y-59900000D03*
X198590000Y-89300000D03*
X223390000Y-117900000D03*
X221990000Y-106100000D03*
X202190000Y-59100000D03*
X162990000Y-86500000D03*
X161390000Y-64300000D03*
X184910800Y-85845200D03*
X204590000Y-83900000D03*
X180516600Y-88994800D03*
X188568400Y-80562000D03*
X258190000Y-105700000D03*
X258190000Y-100300000D03*
X176990000Y-53700000D03*
X258190000Y-55100000D03*
X175990000Y-96500000D03*
X188190000Y-52700000D03*
X167990000Y-80900000D03*
X162000000Y-107105000D03*
X187990000Y-93700000D03*
X166590000Y-88100000D03*
X200790000Y-70300000D03*
X161190000Y-79500000D03*
X258190000Y-92700000D03*
X258190000Y-75900000D03*
X161390000Y-66700000D03*
X191590000Y-73100000D03*
X179190000Y-97900000D03*
X243190000Y-49900000D03*
X214590000Y-47500000D03*
X234790000Y-101100000D03*
X179590000Y-22100000D03*
X227790000Y-117900000D03*
X214590000Y-22100000D03*
X209990000Y-69100000D03*
X177390000Y-78500000D03*
X250390000Y-22100000D03*
X258190000Y-87100000D03*
X185990000Y-114100000D03*
X200190000Y-45300000D03*
X258190000Y-97700000D03*
X258190000Y-61900000D03*
X207390000Y-22100000D03*
X240790000Y-22100000D03*
X171190000Y-92700000D03*
X161390000Y-35700000D03*
X181790000Y-105900000D03*
X235190000Y-22100000D03*
X218990000Y-71700000D03*
X222590000Y-22100000D03*
X189390000Y-94700000D03*
X231790000Y-117900000D03*
X173990000Y-88100000D03*
X190084800Y-92883600D03*
X258190000Y-34900000D03*
X227190000Y-75300000D03*
X235390000Y-77700000D03*
X223852532Y-26743637D03*
X185012400Y-95700400D03*
X162000000Y-103295000D03*
X185190000Y-109900000D03*
X210390000Y-111700000D03*
X195990000Y-22100000D03*
X244590000Y-80700000D03*
X254990000Y-113300000D03*
X165810000Y-117900000D03*
X177875000Y-117900000D03*
X169990000Y-94100000D03*
X188790000Y-85300000D03*
X185390000Y-97600000D03*
X171590000Y-42500000D03*
X227190000Y-88500000D03*
X165590000Y-74500000D03*
X226790000Y-22100000D03*
X236590000Y-111100000D03*
X189590000Y-108500000D03*
X228190000Y-106300000D03*
X188670000Y-117900000D03*
X184390000Y-60500000D03*
X161390000Y-39300000D03*
X176990000Y-85100000D03*
X180590000Y-84700000D03*
X258190000Y-90300000D03*
X200190000Y-30300000D03*
X172990000Y-85100000D03*
X173590000Y-22300000D03*
X258190000Y-42100000D03*
X245790000Y-117900000D03*
X212165000Y-117900000D03*
X203590000Y-22100000D03*
X175990000Y-93500000D03*
X196790000Y-53300000D03*
X202990000Y-77100000D03*
X176790000Y-88100000D03*
X171990000Y-59700000D03*
X203698100Y-92480988D03*
X209190000Y-72100000D03*
X204590000Y-99500000D03*
X234965723Y-69406989D03*
X211190000Y-22100000D03*
X258190000Y-108900000D03*
X182066000Y-85972200D03*
X166590000Y-86300000D03*
X258190000Y-38100000D03*
X250590000Y-117900000D03*
X251790000Y-77700000D03*
X258190000Y-58700000D03*
X238638727Y-29569024D03*
X208355000Y-117900000D03*
X251070432Y-44637758D03*
X175157200Y-89833000D03*
X194990000Y-77300000D03*
X216590000Y-111500000D03*
X171590000Y-89900000D03*
X258190000Y-111900000D03*
X252390000Y-84500000D03*
X186990000Y-77500000D03*
X230590000Y-22100000D03*
X258190000Y-27700000D03*
X191390000Y-101100000D03*
X170790000Y-88100000D03*
X165190000Y-63900000D03*
X199590000Y-22100000D03*
X161390000Y-53900000D03*
X161390000Y-42300000D03*
X228190000Y-32300000D03*
X192990000Y-45700000D03*
X171790000Y-97100000D03*
X244590000Y-90100000D03*
X176770100Y-92741300D03*
X161390000Y-45100000D03*
X202790000Y-74700000D03*
X198390000Y-65100000D03*
X236990000Y-92500000D03*
X169790000Y-76500000D03*
X161590000Y-23900000D03*
X186257000Y-90645800D03*
X195926800Y-112060600D03*
X198990000Y-74700000D03*
X227390000Y-66300000D03*
X226790000Y-92900000D03*
X164790000Y-22300000D03*
X215390000Y-100100000D03*
X171990000Y-102300000D03*
X174990000Y-86300000D03*
X192190000Y-30300000D03*
X170990000Y-86100000D03*
X258190000Y-65300000D03*
X182447000Y-84829200D03*
X186790000Y-98500000D03*
X258190000Y-24300000D03*
X258190000Y-84100000D03*
X258190000Y-70900000D03*
X161390000Y-48300000D03*
X176190000Y-42700000D03*
X161390000Y-62100000D03*
X215847267Y-93987861D03*
X224390000Y-47700000D03*
X196790000Y-99300000D03*
X196590000Y-70500000D03*
X249190000Y-102700000D03*
X237390000Y-61500000D03*
X184390000Y-70700000D03*
X244990000Y-63100000D03*
X166990000Y-104300000D03*
X163390000Y-83100000D03*
X243990000Y-73300000D03*
X219426091Y-85229160D03*
X216190000Y-106100000D03*
X183990000Y-22100000D03*
X258190000Y-73500000D03*
X258190000Y-115500000D03*
X187781000Y-87064400D03*
X184590000Y-30700000D03*
X185164800Y-88944000D03*
X235990000Y-117900000D03*
X173190000Y-93300000D03*
X223990000Y-38700000D03*
X188190000Y-22100000D03*
X234790000Y-106300000D03*
X258190000Y-102900000D03*
X168390000Y-99900000D03*
X161390000Y-76500000D03*
X227990000Y-100100000D03*
X190603252Y-113536658D03*
X162000000Y-117900000D03*
X217730859Y-55185872D03*
X177151695Y-86198422D03*
X258190000Y-78700000D03*
X178990000Y-100900000D03*
X235059903Y-55468411D03*
X184590000Y-45500000D03*
X176782800Y-90315600D03*
X205590000Y-111500000D03*
X176390000Y-61100000D03*
X192190000Y-22100000D03*
X174990000Y-84900000D03*
X172990000Y-65700000D03*
X165390000Y-52300000D03*
X219520271Y-89843960D03*
X170255000Y-117900000D03*
X177190000Y-98900000D03*
X200100000Y-117900000D03*
X161390000Y-51100000D03*
X242590000Y-111700000D03*
X161390000Y-68700000D03*
X258190000Y-95100000D03*
X185495000Y-117900000D03*
X222390000Y-110900000D03*
X258190000Y-81300000D03*
X258190000Y-31100000D03*
X219590000Y-117900000D03*
X218390000Y-22100000D03*
X210390000Y-106100000D03*
X191390000Y-79300000D03*
X169390000Y-89900000D03*
X251918049Y-26743637D03*
X228790000Y-110900000D03*
X258190000Y-48100000D03*
X258190000Y-44900000D03*
X188990000Y-39100000D03*
X251390000Y-68900000D03*
X252790000Y-98100000D03*
X193990000Y-75300000D03*
X181685000Y-117900000D03*
X209390000Y-100100000D03*
X215975000Y-117900000D03*
X184990000Y-100500000D03*
X240790000Y-117900000D03*
X210390000Y-90300000D03*
X171990000Y-54100000D03*
X188590000Y-104300000D03*
X191845000Y-117900000D03*
X168990000Y-22300000D03*
X251590000Y-56700000D03*
X176790000Y-47300000D03*
X221590000Y-100100000D03*
X174065000Y-117900000D03*
X235624980Y-85888417D03*
X161390000Y-74100000D03*
X252190000Y-91100000D03*
X161390000Y-71300000D03*
X204545000Y-117900000D03*
X178713200Y-86785000D03*
X254990000Y-117900000D03*
X197190000Y-38500000D03*
X172990000Y-79500000D03*
X174390000Y-109300000D03*
X179990000Y-113500000D03*
X232790000Y-42300000D03*
X258190000Y-68100000D03*
X241390000Y-106300000D03*
X204990000Y-105500000D03*
X249092661Y-31735155D03*
X174390000Y-72900000D03*
X168590000Y-84100000D03*
X174319000Y-100717100D03*
X174319000Y-99218100D03*
X179272000Y-94608200D03*
X179272000Y-95979800D03*
D18*
X191603952Y-96322448D02*
X190642993Y-97283407D01*
X184688500Y-83559200D02*
X183310600Y-83559200D01*
X179837100Y-83559200D02*
X178478100Y-83559200D01*
D19*
X163092200Y-90650900D02*
X163117600Y-90625500D01*
X163092200Y-92024500D02*
X163092200Y-90650900D01*
D18*
X179373600Y-92856298D02*
X179373600Y-91611000D01*
X178967549Y-93262349D02*
X179373600Y-92856298D01*
X179272000Y-95979800D02*
X179272000Y-94608200D01*
D19*
X174319000Y-100717100D02*
X174319000Y-99218100D01*
G04 #@! TA.AperFunction,Conductor*
G36*
X259382500Y-20310414D02*
G01*
X259409586Y-20337500D01*
X259419500Y-20374500D01*
X259419500Y-119065500D01*
X259409586Y-119102500D01*
X259382500Y-119129586D01*
X259345500Y-119139500D01*
X160654500Y-119139500D01*
X160617500Y-119129586D01*
X160590414Y-119102500D01*
X160580500Y-119065500D01*
X160580500Y-115582410D01*
X161181941Y-115582410D01*
X161228766Y-115618854D01*
X161447390Y-115737167D01*
X161682510Y-115817883D01*
X161927707Y-115858800D01*
X162176293Y-115858800D01*
X162421489Y-115817883D01*
X162656609Y-115737167D01*
X162875234Y-115618854D01*
X162922056Y-115582410D01*
X162922057Y-115582410D01*
X167681941Y-115582410D01*
X167728766Y-115618854D01*
X167947390Y-115737167D01*
X168182510Y-115817883D01*
X168427707Y-115858800D01*
X168676293Y-115858800D01*
X168921489Y-115817883D01*
X169011563Y-115786961D01*
X199098191Y-115786961D01*
X199200404Y-115850247D01*
X199399139Y-115927238D01*
X199608637Y-115966400D01*
X199821763Y-115966400D01*
X200031260Y-115927238D01*
X200229995Y-115850247D01*
X200332207Y-115786961D01*
X199715200Y-115169953D01*
X199098191Y-115786961D01*
X169011563Y-115786961D01*
X169156609Y-115737167D01*
X169375234Y-115618854D01*
X169422056Y-115582410D01*
X169422057Y-115582410D01*
X168552000Y-114712353D01*
X167681941Y-115582410D01*
X162922057Y-115582410D01*
X162052000Y-114712353D01*
X161181941Y-115582410D01*
X160580500Y-115582410D01*
X160580500Y-115091213D01*
X160597055Y-115044564D01*
X160639314Y-115018788D01*
X160688368Y-115025418D01*
X160722267Y-115061488D01*
X160728267Y-115075168D01*
X160828563Y-115228682D01*
X161698447Y-114358800D01*
X162405553Y-114358800D01*
X163275435Y-115228682D01*
X163375732Y-115075168D01*
X163475586Y-114847522D01*
X163536613Y-114606534D01*
X163557141Y-114358799D01*
X167046858Y-114358799D01*
X167067386Y-114606534D01*
X167128413Y-114847522D01*
X167228267Y-115075168D01*
X167328563Y-115228682D01*
X168198447Y-114358800D01*
X168905553Y-114358800D01*
X169775435Y-115228682D01*
X169875732Y-115075168D01*
X169975586Y-114847522D01*
X170036613Y-114606534D01*
X170057141Y-114358799D01*
X170036613Y-114111065D01*
X169975586Y-113870077D01*
X169876382Y-113643914D01*
X173753780Y-113643914D01*
X173783469Y-113913745D01*
X173852131Y-114176381D01*
X173852132Y-114176384D01*
X173958303Y-114426224D01*
X174099719Y-114657944D01*
X174273368Y-114866604D01*
X174475546Y-115047757D01*
X174701947Y-115197542D01*
X174855176Y-115269373D01*
X174947745Y-115312768D01*
X175207696Y-115390975D01*
X175476265Y-115430500D01*
X175476268Y-115430500D01*
X175679775Y-115430500D01*
X175679781Y-115430500D01*
X175882740Y-115415645D01*
X176147709Y-115356621D01*
X176401261Y-115259646D01*
X176637991Y-115126786D01*
X176852853Y-114960875D01*
X176992145Y-114816399D01*
X193805717Y-114816399D01*
X193825592Y-115005494D01*
X193884345Y-115186318D01*
X193979414Y-115350981D01*
X194106637Y-115492277D01*
X194260459Y-115604036D01*
X194434151Y-115681368D01*
X194434154Y-115681368D01*
X194434155Y-115681369D01*
X194620133Y-115720900D01*
X194810266Y-115720900D01*
X194810267Y-115720900D01*
X194996245Y-115681369D01*
X194996246Y-115681368D01*
X194996248Y-115681368D01*
X195169940Y-115604036D01*
X195323762Y-115492277D01*
X195384887Y-115424391D01*
X195450986Y-115350980D01*
X195546053Y-115186320D01*
X195604808Y-115005492D01*
X195624682Y-114816400D01*
X195624682Y-114816399D01*
X196305717Y-114816399D01*
X196325592Y-115005494D01*
X196384345Y-115186318D01*
X196479414Y-115350981D01*
X196606637Y-115492277D01*
X196760459Y-115604036D01*
X196934151Y-115681368D01*
X196934154Y-115681368D01*
X196934155Y-115681369D01*
X197120133Y-115720900D01*
X197310266Y-115720900D01*
X197310267Y-115720900D01*
X197496245Y-115681369D01*
X197496246Y-115681368D01*
X197496248Y-115681368D01*
X197669940Y-115604036D01*
X197823762Y-115492277D01*
X197884887Y-115424391D01*
X197950986Y-115350980D01*
X198046053Y-115186320D01*
X198104808Y-115005492D01*
X198124682Y-114816400D01*
X198560272Y-114816400D01*
X198579937Y-115028616D01*
X198638262Y-115233606D01*
X198733261Y-115424391D01*
X198742035Y-115436009D01*
X199361646Y-114816400D01*
X200068753Y-114816400D01*
X200688364Y-115436009D01*
X200697139Y-115424390D01*
X200792137Y-115233606D01*
X200820502Y-115133914D01*
X223683780Y-115133914D01*
X223713469Y-115403745D01*
X223748128Y-115536316D01*
X223782132Y-115666384D01*
X223888303Y-115916224D01*
X224029719Y-116147944D01*
X224203368Y-116356604D01*
X224405546Y-116537757D01*
X224631947Y-116687542D01*
X224848856Y-116789225D01*
X224877745Y-116802768D01*
X225137696Y-116880975D01*
X225406265Y-116920500D01*
X225406268Y-116920500D01*
X225609775Y-116920500D01*
X225609781Y-116920500D01*
X225812740Y-116905645D01*
X226077709Y-116846621D01*
X226331261Y-116749646D01*
X226567991Y-116616786D01*
X226782853Y-116450875D01*
X226971269Y-116255447D01*
X227129223Y-116034668D01*
X227253348Y-115793244D01*
X227340998Y-115536320D01*
X227390306Y-115269371D01*
X227400220Y-114998089D01*
X227370530Y-114728253D01*
X227301868Y-114465616D01*
X227195697Y-114215776D01*
X227054281Y-113984056D01*
X226880632Y-113775396D01*
X226795159Y-113698812D01*
X226678454Y-113594243D01*
X226559001Y-113515214D01*
X226452053Y-113444458D01*
X226452051Y-113444457D01*
X226206254Y-113329231D01*
X225946303Y-113251024D01*
X225677735Y-113211500D01*
X225677732Y-113211500D01*
X225474219Y-113211500D01*
X225271259Y-113226355D01*
X225271260Y-113226355D01*
X225006287Y-113285380D01*
X224752742Y-113382352D01*
X224516008Y-113515214D01*
X224301144Y-113681126D01*
X224112731Y-113876552D01*
X223954776Y-114097332D01*
X223830653Y-114338752D01*
X223743001Y-114595683D01*
X223693694Y-114862626D01*
X223693693Y-114862629D01*
X223693694Y-114862629D01*
X223684041Y-115126785D01*
X223683780Y-115133914D01*
X200820502Y-115133914D01*
X200850462Y-115028616D01*
X200870127Y-114816400D01*
X200850462Y-114604183D01*
X200792137Y-114399190D01*
X200697140Y-114208409D01*
X200688364Y-114196788D01*
X200068753Y-114816400D01*
X199361646Y-114816400D01*
X198742034Y-114196788D01*
X198733260Y-114208408D01*
X198638262Y-114399190D01*
X198579937Y-114604183D01*
X198560272Y-114816400D01*
X198124682Y-114816400D01*
X198104808Y-114627308D01*
X198094531Y-114595680D01*
X198046054Y-114446481D01*
X197950985Y-114281818D01*
X197823762Y-114140522D01*
X197669940Y-114028763D01*
X197496248Y-113951431D01*
X197318956Y-113913747D01*
X197310267Y-113911900D01*
X197120133Y-113911900D01*
X197111444Y-113913747D01*
X196934151Y-113951431D01*
X196760459Y-114028763D01*
X196606637Y-114140522D01*
X196479414Y-114281818D01*
X196384345Y-114446481D01*
X196325592Y-114627305D01*
X196305717Y-114816399D01*
X195624682Y-114816399D01*
X195604808Y-114627308D01*
X195594531Y-114595680D01*
X195546054Y-114446481D01*
X195450985Y-114281818D01*
X195323762Y-114140522D01*
X195169940Y-114028763D01*
X194996248Y-113951431D01*
X194818956Y-113913747D01*
X194810267Y-113911900D01*
X194620133Y-113911900D01*
X194611444Y-113913747D01*
X194434151Y-113951431D01*
X194260459Y-114028763D01*
X194106637Y-114140522D01*
X193979414Y-114281818D01*
X193884345Y-114446481D01*
X193825592Y-114627305D01*
X193805717Y-114816399D01*
X176992145Y-114816399D01*
X177041269Y-114765447D01*
X177199223Y-114544668D01*
X177323348Y-114303244D01*
X177410998Y-114046320D01*
X177448029Y-113845837D01*
X199098192Y-113845837D01*
X199715199Y-114462845D01*
X200332206Y-113845837D01*
X200332207Y-113845837D01*
X200229995Y-113782552D01*
X200031260Y-113705561D01*
X199821763Y-113666400D01*
X199608637Y-113666400D01*
X199399139Y-113705561D01*
X199200404Y-113782552D01*
X199098192Y-113845837D01*
X177448029Y-113845837D01*
X177460306Y-113779371D01*
X177470220Y-113508089D01*
X177440530Y-113238253D01*
X177371868Y-112975616D01*
X177265697Y-112725776D01*
X177124281Y-112494056D01*
X176950632Y-112285396D01*
X176931913Y-112268624D01*
X176748454Y-112104243D01*
X176653619Y-112041501D01*
X176522053Y-111954458D01*
X176522051Y-111954457D01*
X176276254Y-111839231D01*
X176016303Y-111761024D01*
X175747735Y-111721500D01*
X175747732Y-111721500D01*
X175544219Y-111721500D01*
X175341260Y-111736355D01*
X175098980Y-111790325D01*
X175076287Y-111795380D01*
X174822742Y-111892352D01*
X174586008Y-112025214D01*
X174371144Y-112191126D01*
X174182731Y-112386552D01*
X174024776Y-112607332D01*
X173900653Y-112848752D01*
X173813001Y-113105683D01*
X173763694Y-113372626D01*
X173761069Y-113444457D01*
X173754421Y-113626387D01*
X173753780Y-113643914D01*
X169876382Y-113643914D01*
X169875732Y-113642431D01*
X169775435Y-113488916D01*
X168905553Y-114358800D01*
X168198447Y-114358800D01*
X167328563Y-113488916D01*
X167228267Y-113642431D01*
X167128413Y-113870077D01*
X167067386Y-114111065D01*
X167046858Y-114358799D01*
X163557141Y-114358799D01*
X163536613Y-114111065D01*
X163475586Y-113870077D01*
X163375732Y-113642431D01*
X163275435Y-113488916D01*
X162405553Y-114358800D01*
X161698447Y-114358800D01*
X160828563Y-113488916D01*
X160728267Y-113642431D01*
X160722267Y-113656112D01*
X160688368Y-113692182D01*
X160639314Y-113698812D01*
X160597055Y-113673036D01*
X160580500Y-113626387D01*
X160580500Y-113135189D01*
X161181942Y-113135189D01*
X162051999Y-114005246D01*
X162922056Y-113135189D01*
X167681942Y-113135189D01*
X168551999Y-114005246D01*
X169422056Y-113135189D01*
X169375232Y-113098745D01*
X169156609Y-112980432D01*
X168921489Y-112899716D01*
X168676293Y-112858800D01*
X168427707Y-112858800D01*
X168182510Y-112899716D01*
X167947390Y-112980432D01*
X167728766Y-113098745D01*
X167681942Y-113135188D01*
X167681942Y-113135189D01*
X162922056Y-113135189D01*
X162875232Y-113098745D01*
X162656609Y-112980432D01*
X162421489Y-112899716D01*
X162176293Y-112858800D01*
X161927707Y-112858800D01*
X161682510Y-112899716D01*
X161447390Y-112980432D01*
X161228766Y-113098745D01*
X161181942Y-113135188D01*
X161181942Y-113135189D01*
X160580500Y-113135189D01*
X160580500Y-109858800D01*
X160792707Y-109858800D01*
X160811838Y-110077474D01*
X160868651Y-110289499D01*
X160961421Y-110488447D01*
X161087325Y-110668256D01*
X161242543Y-110823474D01*
X161422352Y-110949378D01*
X161422353Y-110949378D01*
X161422354Y-110949379D01*
X161621297Y-111042147D01*
X161621299Y-111042147D01*
X161621300Y-111042148D01*
X161833325Y-111098961D01*
X162052000Y-111118092D01*
X162270674Y-111098961D01*
X162482703Y-111042147D01*
X162681646Y-110949379D01*
X162861457Y-110823474D01*
X163016674Y-110668257D01*
X163142579Y-110488446D01*
X163235347Y-110289503D01*
X163292161Y-110077474D01*
X163311292Y-109858800D01*
X167292707Y-109858800D01*
X167311838Y-110077474D01*
X167368651Y-110289499D01*
X167461421Y-110488447D01*
X167587325Y-110668256D01*
X167742543Y-110823474D01*
X167922352Y-110949378D01*
X167922353Y-110949378D01*
X167922354Y-110949379D01*
X168121297Y-111042147D01*
X168121299Y-111042147D01*
X168121300Y-111042148D01*
X168333325Y-111098961D01*
X168552000Y-111118092D01*
X168770674Y-111098961D01*
X168982703Y-111042147D01*
X169181646Y-110949379D01*
X169361457Y-110823474D01*
X169516674Y-110668257D01*
X169539541Y-110635600D01*
X248641355Y-110635600D01*
X248661113Y-110937043D01*
X248661114Y-110937048D01*
X248720045Y-111233324D01*
X248782403Y-111417023D01*
X248817151Y-111519386D01*
X248950762Y-111790322D01*
X249118594Y-112041501D01*
X249317776Y-112268624D01*
X249544899Y-112467806D01*
X249796078Y-112635638D01*
X250067014Y-112769249D01*
X250330822Y-112858800D01*
X250353075Y-112866354D01*
X250451833Y-112885997D01*
X250649357Y-112925287D01*
X250875355Y-112940100D01*
X251026239Y-112940100D01*
X251026245Y-112940100D01*
X251252243Y-112925287D01*
X251498477Y-112876308D01*
X251548524Y-112866354D01*
X251548525Y-112866353D01*
X251548528Y-112866353D01*
X251834586Y-112769249D01*
X252105522Y-112635638D01*
X252356701Y-112467806D01*
X252583824Y-112268624D01*
X252783006Y-112041501D01*
X252950838Y-111790323D01*
X253084449Y-111519386D01*
X253181553Y-111233328D01*
X253240487Y-110937043D01*
X253260245Y-110635600D01*
X253240487Y-110334157D01*
X253181553Y-110037872D01*
X253084449Y-109751814D01*
X252950838Y-109480878D01*
X252783006Y-109229699D01*
X252583824Y-109002576D01*
X252384641Y-108827896D01*
X252356700Y-108803393D01*
X252105525Y-108635564D01*
X252105524Y-108635563D01*
X252105522Y-108635562D01*
X251834586Y-108501951D01*
X251732223Y-108467203D01*
X251548524Y-108404845D01*
X251252248Y-108345914D01*
X251252243Y-108345913D01*
X251026245Y-108331100D01*
X250875355Y-108331100D01*
X250649357Y-108345913D01*
X250649352Y-108345913D01*
X250649351Y-108345914D01*
X250353075Y-108404845D01*
X250072271Y-108500166D01*
X250067014Y-108501951D01*
X249809865Y-108628763D01*
X249796074Y-108635564D01*
X249544899Y-108803393D01*
X249317776Y-109002576D01*
X249118593Y-109229699D01*
X248950762Y-109480876D01*
X248817151Y-109751813D01*
X248720045Y-110037875D01*
X248686995Y-110204036D01*
X248661113Y-110334157D01*
X248641355Y-110635600D01*
X169539541Y-110635600D01*
X169642579Y-110488446D01*
X169689902Y-110386961D01*
X199098191Y-110386961D01*
X199200404Y-110450247D01*
X199399139Y-110527238D01*
X199608637Y-110566400D01*
X199821763Y-110566400D01*
X200031260Y-110527238D01*
X200229995Y-110450247D01*
X200332207Y-110386961D01*
X199715200Y-109769953D01*
X199098191Y-110386961D01*
X169689902Y-110386961D01*
X169735347Y-110289503D01*
X169792161Y-110077474D01*
X169811292Y-109858800D01*
X169792161Y-109640126D01*
X169749489Y-109480876D01*
X169735348Y-109428100D01*
X169729892Y-109416400D01*
X169729892Y-109416399D01*
X193805717Y-109416399D01*
X193825592Y-109605494D01*
X193884345Y-109786318D01*
X193979414Y-109950981D01*
X194106637Y-110092277D01*
X194260459Y-110204036D01*
X194434151Y-110281368D01*
X194434154Y-110281368D01*
X194434155Y-110281369D01*
X194620133Y-110320900D01*
X194810266Y-110320900D01*
X194810267Y-110320900D01*
X194996245Y-110281369D01*
X194996246Y-110281368D01*
X194996248Y-110281368D01*
X195169940Y-110204036D01*
X195323762Y-110092277D01*
X195384887Y-110024391D01*
X195450986Y-109950980D01*
X195546053Y-109786320D01*
X195604808Y-109605492D01*
X195624682Y-109416400D01*
X195624682Y-109416399D01*
X196305717Y-109416399D01*
X196325592Y-109605494D01*
X196384345Y-109786318D01*
X196479414Y-109950981D01*
X196606637Y-110092277D01*
X196760459Y-110204036D01*
X196934151Y-110281368D01*
X196934154Y-110281368D01*
X196934155Y-110281369D01*
X197120133Y-110320900D01*
X197310266Y-110320900D01*
X197310267Y-110320900D01*
X197496245Y-110281369D01*
X197496246Y-110281368D01*
X197496248Y-110281368D01*
X197669940Y-110204036D01*
X197823762Y-110092277D01*
X197884887Y-110024391D01*
X197950986Y-109950980D01*
X198046053Y-109786320D01*
X198104808Y-109605492D01*
X198124682Y-109416400D01*
X198124682Y-109416399D01*
X198560272Y-109416399D01*
X198579937Y-109628616D01*
X198638262Y-109833606D01*
X198733261Y-110024391D01*
X198742035Y-110036009D01*
X199361646Y-109416399D01*
X200068753Y-109416399D01*
X200688364Y-110036009D01*
X200697139Y-110024390D01*
X200792137Y-109833606D01*
X200850462Y-109628616D01*
X200870127Y-109416399D01*
X200850462Y-109204183D01*
X200792137Y-108999190D01*
X200697140Y-108808409D01*
X200688364Y-108796788D01*
X200068753Y-109416399D01*
X199361646Y-109416399D01*
X198742034Y-108796788D01*
X198733260Y-108808408D01*
X198638262Y-108999190D01*
X198579937Y-109204183D01*
X198560272Y-109416399D01*
X198124682Y-109416399D01*
X198104808Y-109227308D01*
X198076871Y-109141327D01*
X198046054Y-109046481D01*
X197950985Y-108881818D01*
X197823762Y-108740522D01*
X197669940Y-108628763D01*
X197496248Y-108551431D01*
X197356761Y-108521782D01*
X197310267Y-108511900D01*
X197120133Y-108511900D01*
X197082937Y-108519806D01*
X196934151Y-108551431D01*
X196760459Y-108628763D01*
X196606637Y-108740522D01*
X196479414Y-108881818D01*
X196384345Y-109046481D01*
X196325592Y-109227305D01*
X196305717Y-109416399D01*
X195624682Y-109416399D01*
X195604808Y-109227308D01*
X195576871Y-109141327D01*
X195546054Y-109046481D01*
X195450985Y-108881818D01*
X195323762Y-108740522D01*
X195169940Y-108628763D01*
X194996248Y-108551431D01*
X194856761Y-108521782D01*
X194810267Y-108511900D01*
X194620133Y-108511900D01*
X194582937Y-108519806D01*
X194434151Y-108551431D01*
X194260459Y-108628763D01*
X194106637Y-108740522D01*
X193979414Y-108881818D01*
X193884345Y-109046481D01*
X193825592Y-109227305D01*
X193805717Y-109416399D01*
X169729892Y-109416399D01*
X169642579Y-109229154D01*
X169641286Y-109227308D01*
X169516674Y-109049343D01*
X169361456Y-108894125D01*
X169181647Y-108768221D01*
X168982699Y-108675451D01*
X168770674Y-108618638D01*
X168552000Y-108599507D01*
X168333325Y-108618638D01*
X168121300Y-108675451D01*
X167922352Y-108768221D01*
X167742543Y-108894125D01*
X167587325Y-109049343D01*
X167461421Y-109229152D01*
X167368651Y-109428100D01*
X167311838Y-109640125D01*
X167292707Y-109858800D01*
X163311292Y-109858800D01*
X163292161Y-109640126D01*
X163249489Y-109480876D01*
X163235348Y-109428100D01*
X163229892Y-109416400D01*
X163142579Y-109229154D01*
X163141286Y-109227308D01*
X163016674Y-109049343D01*
X162861456Y-108894125D01*
X162681647Y-108768221D01*
X162482699Y-108675451D01*
X162270674Y-108618638D01*
X162052000Y-108599507D01*
X161833325Y-108618638D01*
X161621300Y-108675451D01*
X161422352Y-108768221D01*
X161242543Y-108894125D01*
X161087325Y-109049343D01*
X160961421Y-109229152D01*
X160868651Y-109428100D01*
X160811838Y-109640125D01*
X160792707Y-109858800D01*
X160580500Y-109858800D01*
X160580500Y-108445837D01*
X199098192Y-108445837D01*
X199715199Y-109062845D01*
X200332206Y-108445837D01*
X200332207Y-108445837D01*
X200229995Y-108382552D01*
X200031260Y-108305561D01*
X199821763Y-108266400D01*
X199608637Y-108266400D01*
X199399139Y-108305561D01*
X199200404Y-108382552D01*
X199098192Y-108445837D01*
X160580500Y-108445837D01*
X160580500Y-108095599D01*
X245719444Y-108095599D01*
X245738829Y-108329543D01*
X245796459Y-108557117D01*
X245890755Y-108772090D01*
X246019147Y-108968609D01*
X246019149Y-108968611D01*
X246019151Y-108968614D01*
X246178142Y-109141325D01*
X246178144Y-109141327D01*
X246363392Y-109285511D01*
X246466620Y-109341375D01*
X246569848Y-109397239D01*
X246791878Y-109473462D01*
X247023425Y-109512100D01*
X247258174Y-109512100D01*
X247258175Y-109512100D01*
X247489722Y-109473462D01*
X247711752Y-109397239D01*
X247918207Y-109285511D01*
X248103458Y-109141325D01*
X248262449Y-108968614D01*
X248390844Y-108772090D01*
X248485142Y-108557113D01*
X248542770Y-108329547D01*
X248562155Y-108095600D01*
X248542770Y-107861653D01*
X248485142Y-107634087D01*
X248390844Y-107419110D01*
X248390844Y-107419109D01*
X248262452Y-107222590D01*
X248262450Y-107222588D01*
X248262449Y-107222586D01*
X248103458Y-107049875D01*
X248103457Y-107049874D01*
X248103455Y-107049872D01*
X247918207Y-106905688D01*
X247902722Y-106897308D01*
X252502643Y-106897308D01*
X252510881Y-106904344D01*
X252733933Y-107041030D01*
X252975628Y-107141144D01*
X253229999Y-107202213D01*
X253490800Y-107222739D01*
X253751600Y-107202213D01*
X254005971Y-107141144D01*
X254247666Y-107041030D01*
X254470720Y-106904343D01*
X254478955Y-106897309D01*
X254478955Y-106897308D01*
X253490800Y-105909153D01*
X252502643Y-106897308D01*
X247902722Y-106897308D01*
X247711750Y-106793960D01*
X247489725Y-106717739D01*
X247489724Y-106717738D01*
X247489722Y-106717738D01*
X247258175Y-106679100D01*
X247023425Y-106679100D01*
X246791878Y-106717738D01*
X246791876Y-106717738D01*
X246791874Y-106717739D01*
X246569849Y-106793960D01*
X246363392Y-106905688D01*
X246178144Y-107049872D01*
X246019147Y-107222590D01*
X245890755Y-107419109D01*
X245796459Y-107634082D01*
X245738829Y-107861656D01*
X245719444Y-108095599D01*
X160580500Y-108095599D01*
X160580500Y-105555599D01*
X251823660Y-105555599D01*
X251844186Y-105816400D01*
X251905255Y-106070771D01*
X252005369Y-106312466D01*
X252142054Y-106535519D01*
X252149089Y-106543755D01*
X252149090Y-106543755D01*
X253137247Y-105555600D01*
X253844353Y-105555600D01*
X254832508Y-106543755D01*
X254832509Y-106543755D01*
X254839543Y-106535520D01*
X254976230Y-106312466D01*
X255076344Y-106070771D01*
X255137413Y-105816400D01*
X255157939Y-105555599D01*
X255137413Y-105294799D01*
X255076344Y-105040428D01*
X254976230Y-104798733D01*
X254839544Y-104575681D01*
X254832508Y-104567443D01*
X253844353Y-105555600D01*
X253137247Y-105555600D01*
X252149090Y-104567443D01*
X252142053Y-104575682D01*
X252005369Y-104798733D01*
X251905255Y-105040428D01*
X251844186Y-105294799D01*
X251823660Y-105555599D01*
X160580500Y-105555599D01*
X160580500Y-104213890D01*
X252502643Y-104213890D01*
X253490799Y-105202046D01*
X254478955Y-104213890D01*
X254478955Y-104213889D01*
X254470719Y-104206854D01*
X254247666Y-104070169D01*
X254005971Y-103970055D01*
X253751600Y-103908986D01*
X253490800Y-103888460D01*
X253229999Y-103908986D01*
X252975628Y-103970055D01*
X252733933Y-104070169D01*
X252510882Y-104206853D01*
X252502643Y-104213890D01*
X160580500Y-104213890D01*
X160580500Y-100717099D01*
X173809312Y-100717099D01*
X173829957Y-100860695D01*
X173890223Y-100992659D01*
X173985224Y-101102295D01*
X173985225Y-101102296D01*
X174107268Y-101180729D01*
X174246464Y-101221600D01*
X174391534Y-101221600D01*
X174391536Y-101221600D01*
X174530732Y-101180729D01*
X174652775Y-101102296D01*
X174747777Y-100992658D01*
X174808042Y-100860696D01*
X174828688Y-100717100D01*
X174808042Y-100573504D01*
X174747777Y-100441542D01*
X174747776Y-100441541D01*
X174747776Y-100441540D01*
X174691575Y-100376681D01*
X174678166Y-100354081D01*
X174673500Y-100328221D01*
X174673500Y-99606979D01*
X174678166Y-99581119D01*
X174691575Y-99558519D01*
X174747776Y-99493659D01*
X174747775Y-99493659D01*
X174747777Y-99493658D01*
X174808042Y-99361696D01*
X174828688Y-99218100D01*
X174808042Y-99074504D01*
X174747777Y-98942542D01*
X174747776Y-98942541D01*
X174747776Y-98942540D01*
X174652774Y-98832903D01*
X174530734Y-98754472D01*
X174530733Y-98754471D01*
X174530732Y-98754471D01*
X174391536Y-98713600D01*
X174246464Y-98713600D01*
X174107268Y-98754471D01*
X174107265Y-98754472D01*
X173985225Y-98832903D01*
X173890223Y-98942540D01*
X173829957Y-99074504D01*
X173809312Y-99218100D01*
X173829957Y-99361695D01*
X173890223Y-99493659D01*
X173946425Y-99558519D01*
X173959834Y-99581119D01*
X173964500Y-99606979D01*
X173964500Y-100328221D01*
X173959834Y-100354081D01*
X173946425Y-100376681D01*
X173890223Y-100441540D01*
X173829957Y-100573504D01*
X173809312Y-100717099D01*
X160580500Y-100717099D01*
X160580500Y-100295561D01*
X163922991Y-100295561D01*
X164025204Y-100358847D01*
X164223939Y-100435838D01*
X164433437Y-100475000D01*
X164646563Y-100475000D01*
X164856060Y-100435838D01*
X165054795Y-100358847D01*
X165157007Y-100295561D01*
X164540000Y-99678553D01*
X163922991Y-100295561D01*
X160580500Y-100295561D01*
X160580500Y-99324999D01*
X163385072Y-99324999D01*
X163404737Y-99537216D01*
X163463062Y-99742206D01*
X163558061Y-99932991D01*
X163566835Y-99944609D01*
X164186446Y-99325000D01*
X164893553Y-99325000D01*
X165513164Y-99944609D01*
X165521939Y-99932990D01*
X165616937Y-99742206D01*
X165675262Y-99537216D01*
X165694927Y-99324999D01*
X165675262Y-99112783D01*
X165616937Y-98907790D01*
X165521940Y-98717009D01*
X165513164Y-98705388D01*
X164893553Y-99325000D01*
X164186446Y-99325000D01*
X163566834Y-98705388D01*
X163558060Y-98717008D01*
X163463062Y-98907790D01*
X163404737Y-99112783D01*
X163385072Y-99324999D01*
X160580500Y-99324999D01*
X160580500Y-97325000D01*
X163630517Y-97325000D01*
X163650392Y-97514094D01*
X163709145Y-97694918D01*
X163804214Y-97859581D01*
X163931437Y-98000877D01*
X164085255Y-98112633D01*
X164085258Y-98112634D01*
X164085259Y-98112635D01*
X164109220Y-98123303D01*
X164141674Y-98151369D01*
X164153099Y-98192727D01*
X164139651Y-98233474D01*
X164105853Y-98259908D01*
X164025204Y-98291152D01*
X163922992Y-98354437D01*
X164539999Y-98971445D01*
X165157006Y-98354437D01*
X165157007Y-98354437D01*
X165054795Y-98291152D01*
X164974146Y-98259908D01*
X164940348Y-98233473D01*
X164926900Y-98192727D01*
X164938325Y-98151368D01*
X164970779Y-98123303D01*
X164994741Y-98112635D01*
X164994741Y-98112634D01*
X164994743Y-98112634D01*
X165148562Y-98000877D01*
X165275785Y-97859581D01*
X165317167Y-97787907D01*
X165370853Y-97694920D01*
X165429608Y-97514092D01*
X165449482Y-97325000D01*
X165445110Y-97283406D01*
X190133305Y-97283406D01*
X190153950Y-97427002D01*
X190214216Y-97558966D01*
X190309217Y-97668602D01*
X190309218Y-97668603D01*
X190431261Y-97747036D01*
X190570457Y-97787907D01*
X190715527Y-97787907D01*
X190715529Y-97787907D01*
X190854725Y-97747036D01*
X190976768Y-97668603D01*
X191071770Y-97558965D01*
X191132035Y-97427003D01*
X191152681Y-97283407D01*
X191150680Y-97269492D01*
X191153714Y-97235596D01*
X191171599Y-97206640D01*
X191529618Y-96848622D01*
X191553627Y-96832581D01*
X191581945Y-96826948D01*
X191676486Y-96826948D01*
X191676488Y-96826948D01*
X191815684Y-96786077D01*
X191937727Y-96707644D01*
X192032729Y-96598006D01*
X192092994Y-96466044D01*
X192113640Y-96322448D01*
X192092994Y-96178852D01*
X192032729Y-96046890D01*
X192032728Y-96046889D01*
X192032728Y-96046888D01*
X191937726Y-95937251D01*
X191815686Y-95858820D01*
X191815685Y-95858819D01*
X191815684Y-95858819D01*
X191676488Y-95817948D01*
X191531416Y-95817948D01*
X191392220Y-95858819D01*
X191392217Y-95858820D01*
X191270177Y-95937251D01*
X191175175Y-96046888D01*
X191114909Y-96178852D01*
X191094263Y-96322451D01*
X191096263Y-96336361D01*
X191093229Y-96370260D01*
X191075342Y-96399215D01*
X190717326Y-96757233D01*
X190693319Y-96773274D01*
X190665000Y-96778907D01*
X190570457Y-96778907D01*
X190431261Y-96819778D01*
X190431258Y-96819779D01*
X190309218Y-96898210D01*
X190214216Y-97007847D01*
X190153950Y-97139811D01*
X190133305Y-97283406D01*
X165445110Y-97283406D01*
X165429608Y-97135908D01*
X165387999Y-97007849D01*
X165370854Y-96955081D01*
X165275785Y-96790418D01*
X165148562Y-96649122D01*
X164994740Y-96537363D01*
X164821048Y-96460031D01*
X164681561Y-96430382D01*
X164635067Y-96420500D01*
X164444933Y-96420500D01*
X164407737Y-96428406D01*
X164258951Y-96460031D01*
X164085259Y-96537363D01*
X163931437Y-96649122D01*
X163804214Y-96790418D01*
X163709145Y-96955081D01*
X163650392Y-97135905D01*
X163630517Y-97325000D01*
X160580500Y-97325000D01*
X160580500Y-95325000D01*
X163630517Y-95325000D01*
X163650392Y-95514094D01*
X163709145Y-95694918D01*
X163804214Y-95859581D01*
X163931437Y-96000877D01*
X164085259Y-96112636D01*
X164258951Y-96189968D01*
X164258954Y-96189968D01*
X164258955Y-96189969D01*
X164444933Y-96229500D01*
X164635066Y-96229500D01*
X164635067Y-96229500D01*
X164821045Y-96189969D01*
X164821046Y-96189968D01*
X164821048Y-96189968D01*
X164994740Y-96112636D01*
X165148562Y-96000877D01*
X165167541Y-95979799D01*
X178762312Y-95979799D01*
X178782957Y-96123395D01*
X178843223Y-96255359D01*
X178938225Y-96364996D01*
X179060268Y-96443429D01*
X179199464Y-96484300D01*
X179344534Y-96484300D01*
X179344536Y-96484300D01*
X179483732Y-96443429D01*
X179605775Y-96364996D01*
X179700777Y-96255358D01*
X179761042Y-96123396D01*
X179781688Y-95979800D01*
X179761042Y-95836204D01*
X179700777Y-95704242D01*
X179700776Y-95704241D01*
X179700776Y-95704240D01*
X179609575Y-95598989D01*
X179596166Y-95576389D01*
X179591500Y-95550529D01*
X179591500Y-95037471D01*
X179596166Y-95011611D01*
X179609575Y-94989011D01*
X179700776Y-94883759D01*
X179700775Y-94883759D01*
X179700777Y-94883758D01*
X179761042Y-94751796D01*
X179781688Y-94608200D01*
X179761042Y-94464604D01*
X179700777Y-94332642D01*
X179700776Y-94332641D01*
X179700776Y-94332640D01*
X179605774Y-94223003D01*
X179483734Y-94144572D01*
X179483733Y-94144571D01*
X179483732Y-94144571D01*
X179344536Y-94103700D01*
X179199464Y-94103700D01*
X179060268Y-94144571D01*
X179060265Y-94144572D01*
X178938225Y-94223003D01*
X178843223Y-94332640D01*
X178782957Y-94464604D01*
X178762312Y-94608199D01*
X178782957Y-94751795D01*
X178843223Y-94883759D01*
X178934425Y-94989011D01*
X178947834Y-95011611D01*
X178952500Y-95037471D01*
X178952500Y-95550529D01*
X178947834Y-95576389D01*
X178934425Y-95598989D01*
X178843223Y-95704240D01*
X178782957Y-95836204D01*
X178762312Y-95979799D01*
X165167541Y-95979799D01*
X165275785Y-95859581D01*
X165276225Y-95858820D01*
X165370853Y-95694920D01*
X165429608Y-95514092D01*
X165449482Y-95325000D01*
X165429608Y-95135908D01*
X165397624Y-95037471D01*
X165370854Y-94955081D01*
X165275785Y-94790418D01*
X165148562Y-94649122D01*
X164994740Y-94537363D01*
X164821048Y-94460031D01*
X164681561Y-94430382D01*
X164635067Y-94420500D01*
X164444933Y-94420500D01*
X164407737Y-94428406D01*
X164258951Y-94460031D01*
X164085259Y-94537363D01*
X163931437Y-94649122D01*
X163804214Y-94790418D01*
X163709145Y-94955081D01*
X163650392Y-95135905D01*
X163630517Y-95325000D01*
X160580500Y-95325000D01*
X160580500Y-93325000D01*
X163630517Y-93325000D01*
X163650392Y-93514094D01*
X163709145Y-93694918D01*
X163804214Y-93859581D01*
X163931437Y-94000877D01*
X164085259Y-94112636D01*
X164258951Y-94189968D01*
X164258954Y-94189968D01*
X164258955Y-94189969D01*
X164444933Y-94229500D01*
X164635066Y-94229500D01*
X164635067Y-94229500D01*
X164821045Y-94189969D01*
X164821046Y-94189968D01*
X164821048Y-94189968D01*
X164994740Y-94112636D01*
X165148562Y-94000877D01*
X165275785Y-93859581D01*
X165329325Y-93766849D01*
X165370853Y-93694920D01*
X165429608Y-93514092D01*
X165449482Y-93325000D01*
X165442897Y-93262349D01*
X178457861Y-93262349D01*
X178478506Y-93405944D01*
X178538772Y-93537908D01*
X178633773Y-93647544D01*
X178633774Y-93647545D01*
X178755817Y-93725978D01*
X178895013Y-93766849D01*
X179040083Y-93766849D01*
X179040085Y-93766849D01*
X179179281Y-93725978D01*
X179301324Y-93647545D01*
X179396326Y-93537907D01*
X179456591Y-93405945D01*
X179477237Y-93262349D01*
X179475236Y-93248434D01*
X179478270Y-93214538D01*
X179496155Y-93185582D01*
X179587382Y-93094355D01*
X179592118Y-93090016D01*
X179622127Y-93064837D01*
X179641710Y-93030915D01*
X179645159Y-93025501D01*
X179667633Y-92993408D01*
X179668804Y-92989033D01*
X179676201Y-92971178D01*
X179678464Y-92967259D01*
X179685262Y-92928697D01*
X179686660Y-92922395D01*
X179696795Y-92884573D01*
X179693382Y-92845564D01*
X179693100Y-92839113D01*
X179693100Y-92040271D01*
X179697766Y-92014411D01*
X179711175Y-91991811D01*
X179802376Y-91886559D01*
X179802375Y-91886559D01*
X179802377Y-91886558D01*
X179862642Y-91754596D01*
X179883288Y-91611000D01*
X179862642Y-91467404D01*
X179802377Y-91335442D01*
X179802376Y-91335441D01*
X179802376Y-91335440D01*
X179707374Y-91225803D01*
X179585334Y-91147372D01*
X179585333Y-91147371D01*
X179585332Y-91147371D01*
X179446136Y-91106500D01*
X179301064Y-91106500D01*
X179161868Y-91147371D01*
X179161865Y-91147372D01*
X179039825Y-91225803D01*
X178944823Y-91335440D01*
X178884557Y-91467404D01*
X178863912Y-91610999D01*
X178884557Y-91754595D01*
X178944823Y-91886559D01*
X179036025Y-91991811D01*
X179049434Y-92014411D01*
X179054100Y-92040271D01*
X179054100Y-92683849D01*
X179044186Y-92720849D01*
X179017100Y-92747935D01*
X178980100Y-92757849D01*
X178895013Y-92757849D01*
X178784085Y-92790420D01*
X178755814Y-92798721D01*
X178633774Y-92877152D01*
X178538772Y-92986789D01*
X178478506Y-93118753D01*
X178457861Y-93262349D01*
X165442897Y-93262349D01*
X165429608Y-93135908D01*
X165415369Y-93092085D01*
X165370854Y-92955081D01*
X165275785Y-92790418D01*
X165148562Y-92649122D01*
X164994740Y-92537363D01*
X164821048Y-92460031D01*
X164681561Y-92430382D01*
X164635067Y-92420500D01*
X164444933Y-92420500D01*
X164407737Y-92428406D01*
X164258951Y-92460031D01*
X164085259Y-92537363D01*
X163931437Y-92649122D01*
X163804214Y-92790418D01*
X163709145Y-92955081D01*
X163650392Y-93135905D01*
X163630517Y-93325000D01*
X160580500Y-93325000D01*
X160580500Y-92024499D01*
X162582512Y-92024499D01*
X162603157Y-92168095D01*
X162663423Y-92300059D01*
X162758425Y-92409696D01*
X162880468Y-92488129D01*
X163019664Y-92529000D01*
X163164734Y-92529000D01*
X163164736Y-92529000D01*
X163303932Y-92488129D01*
X163425975Y-92409696D01*
X163520977Y-92300058D01*
X163581242Y-92168096D01*
X163601888Y-92024500D01*
X163581242Y-91880904D01*
X163520977Y-91748942D01*
X163520976Y-91748941D01*
X163520976Y-91748940D01*
X163464775Y-91684081D01*
X163451366Y-91661481D01*
X163446700Y-91635621D01*
X163446700Y-91325000D01*
X163630517Y-91325000D01*
X163650392Y-91514094D01*
X163709145Y-91694918D01*
X163804214Y-91859581D01*
X163931437Y-92000877D01*
X164085259Y-92112636D01*
X164258951Y-92189968D01*
X164258954Y-92189968D01*
X164258955Y-92189969D01*
X164444933Y-92229500D01*
X164635066Y-92229500D01*
X164635067Y-92229500D01*
X164821045Y-92189969D01*
X164821046Y-92189968D01*
X164821048Y-92189968D01*
X164994740Y-92112636D01*
X165148562Y-92000877D01*
X165275785Y-91859581D01*
X165370854Y-91694918D01*
X165429607Y-91514094D01*
X165429608Y-91514092D01*
X165449482Y-91325000D01*
X165429608Y-91135908D01*
X165383899Y-90995231D01*
X165370854Y-90955081D01*
X165275785Y-90790418D01*
X165148562Y-90649122D01*
X164994740Y-90537363D01*
X164821048Y-90460031D01*
X164681561Y-90430382D01*
X164635067Y-90420500D01*
X164444933Y-90420500D01*
X164407737Y-90428406D01*
X164258951Y-90460031D01*
X164085259Y-90537363D01*
X163931437Y-90649122D01*
X163804214Y-90790418D01*
X163709145Y-90955081D01*
X163650392Y-91135905D01*
X163630517Y-91325000D01*
X163446700Y-91325000D01*
X163446700Y-91043691D01*
X163451366Y-91017830D01*
X163464773Y-90995232D01*
X163546377Y-90901058D01*
X163606642Y-90769096D01*
X163627288Y-90625500D01*
X163606642Y-90481904D01*
X163546377Y-90349942D01*
X163546376Y-90349941D01*
X163546376Y-90349940D01*
X163451374Y-90240303D01*
X163329334Y-90161872D01*
X163329333Y-90161871D01*
X163329332Y-90161871D01*
X163190136Y-90121000D01*
X163045064Y-90121000D01*
X162905868Y-90161871D01*
X162905865Y-90161872D01*
X162783825Y-90240303D01*
X162688823Y-90349940D01*
X162628557Y-90481904D01*
X162607912Y-90625500D01*
X162628557Y-90769095D01*
X162688822Y-90901057D01*
X162719626Y-90936606D01*
X162733034Y-90959206D01*
X162737700Y-90985066D01*
X162737700Y-91635621D01*
X162733034Y-91661481D01*
X162719625Y-91684081D01*
X162663423Y-91748940D01*
X162603157Y-91880904D01*
X162582512Y-92024499D01*
X160580500Y-92024499D01*
X160580500Y-89325000D01*
X163630517Y-89325000D01*
X163650392Y-89514094D01*
X163709145Y-89694918D01*
X163804214Y-89859581D01*
X163931437Y-90000877D01*
X164085259Y-90112636D01*
X164258951Y-90189968D01*
X164258954Y-90189968D01*
X164258955Y-90189969D01*
X164444933Y-90229500D01*
X164635066Y-90229500D01*
X164635067Y-90229500D01*
X164821045Y-90189969D01*
X164821046Y-90189968D01*
X164821048Y-90189968D01*
X164994740Y-90112636D01*
X165148562Y-90000877D01*
X165275785Y-89859581D01*
X165370854Y-89694918D01*
X165429607Y-89514094D01*
X165429608Y-89514092D01*
X165449482Y-89325000D01*
X165429608Y-89135908D01*
X165427489Y-89129389D01*
X165370854Y-88955081D01*
X165275785Y-88790418D01*
X165148562Y-88649122D01*
X164994740Y-88537363D01*
X164821048Y-88460031D01*
X164681561Y-88430382D01*
X164635067Y-88420500D01*
X164444933Y-88420500D01*
X164407737Y-88428406D01*
X164258951Y-88460031D01*
X164085259Y-88537363D01*
X163931437Y-88649122D01*
X163804214Y-88790418D01*
X163709145Y-88955081D01*
X163650392Y-89135905D01*
X163630517Y-89325000D01*
X160580500Y-89325000D01*
X160580500Y-87324999D01*
X163630517Y-87324999D01*
X163650392Y-87514094D01*
X163709145Y-87694918D01*
X163804214Y-87859581D01*
X163931437Y-88000877D01*
X164085259Y-88112636D01*
X164258951Y-88189968D01*
X164258954Y-88189968D01*
X164258955Y-88189969D01*
X164444933Y-88229500D01*
X164635066Y-88229500D01*
X164635067Y-88229500D01*
X164821045Y-88189969D01*
X164821046Y-88189968D01*
X164821048Y-88189968D01*
X164994740Y-88112636D01*
X165148562Y-88000877D01*
X165275785Y-87859581D01*
X165370854Y-87694918D01*
X165429607Y-87514094D01*
X165429608Y-87514092D01*
X165449482Y-87325000D01*
X165429608Y-87135908D01*
X165427489Y-87129389D01*
X165370854Y-86955081D01*
X165275785Y-86790418D01*
X165148562Y-86649122D01*
X164994740Y-86537363D01*
X164821048Y-86460031D01*
X164681561Y-86430382D01*
X164635067Y-86420500D01*
X164444933Y-86420500D01*
X164407737Y-86428406D01*
X164258951Y-86460031D01*
X164085259Y-86537363D01*
X163931437Y-86649122D01*
X163804214Y-86790418D01*
X163709145Y-86955081D01*
X163650392Y-87135905D01*
X163630517Y-87324999D01*
X160580500Y-87324999D01*
X160580500Y-85325000D01*
X163630517Y-85325000D01*
X163650392Y-85514094D01*
X163709145Y-85694918D01*
X163804214Y-85859581D01*
X163931437Y-86000877D01*
X164085259Y-86112636D01*
X164258951Y-86189968D01*
X164258954Y-86189968D01*
X164258955Y-86189969D01*
X164444933Y-86229500D01*
X164635066Y-86229500D01*
X164635067Y-86229500D01*
X164821045Y-86189969D01*
X164821046Y-86189968D01*
X164821048Y-86189968D01*
X164994740Y-86112636D01*
X165148562Y-86000877D01*
X165275785Y-85859581D01*
X165370854Y-85694918D01*
X165429607Y-85514094D01*
X165429608Y-85514092D01*
X165449482Y-85325000D01*
X165429608Y-85135908D01*
X165427489Y-85129389D01*
X165370854Y-84955081D01*
X165275785Y-84790418D01*
X165148562Y-84649122D01*
X164994740Y-84537363D01*
X164821048Y-84460031D01*
X164681561Y-84430382D01*
X164635067Y-84420500D01*
X164444933Y-84420500D01*
X164407737Y-84428406D01*
X164258951Y-84460031D01*
X164085259Y-84537363D01*
X163931437Y-84649122D01*
X163804214Y-84790418D01*
X163709145Y-84955081D01*
X163650392Y-85135905D01*
X163630517Y-85325000D01*
X160580500Y-85325000D01*
X160580500Y-83559199D01*
X177968412Y-83559199D01*
X177989057Y-83702795D01*
X178049323Y-83834759D01*
X178144325Y-83944396D01*
X178266368Y-84022829D01*
X178405564Y-84063700D01*
X178550634Y-84063700D01*
X178550636Y-84063700D01*
X178689832Y-84022829D01*
X178811875Y-83944396D01*
X178846673Y-83904236D01*
X178871854Y-83885387D01*
X178902595Y-83878700D01*
X179412605Y-83878700D01*
X179443346Y-83885387D01*
X179468526Y-83904236D01*
X179503325Y-83944396D01*
X179625368Y-84022829D01*
X179764564Y-84063700D01*
X179909634Y-84063700D01*
X179909636Y-84063700D01*
X180048832Y-84022829D01*
X180170875Y-83944396D01*
X180265877Y-83834758D01*
X180326142Y-83702796D01*
X180346788Y-83559200D01*
X180346788Y-83559199D01*
X182800912Y-83559199D01*
X182821557Y-83702795D01*
X182881823Y-83834759D01*
X182976825Y-83944396D01*
X183098868Y-84022829D01*
X183238064Y-84063700D01*
X183383134Y-84063700D01*
X183383136Y-84063700D01*
X183522332Y-84022829D01*
X183644375Y-83944396D01*
X183679173Y-83904236D01*
X183704354Y-83885387D01*
X183735095Y-83878700D01*
X184264005Y-83878700D01*
X184294746Y-83885387D01*
X184319926Y-83904236D01*
X184354725Y-83944396D01*
X184476768Y-84022829D01*
X184615964Y-84063700D01*
X184761034Y-84063700D01*
X184761036Y-84063700D01*
X184900232Y-84022829D01*
X185022275Y-83944396D01*
X185117277Y-83834758D01*
X185177542Y-83702796D01*
X185198188Y-83559200D01*
X185177542Y-83415604D01*
X185117277Y-83283642D01*
X185117276Y-83283641D01*
X185117276Y-83283640D01*
X185022274Y-83174003D01*
X184900234Y-83095572D01*
X184900233Y-83095571D01*
X184900232Y-83095571D01*
X184761036Y-83054700D01*
X184615964Y-83054700D01*
X184476768Y-83095571D01*
X184476765Y-83095572D01*
X184354727Y-83174002D01*
X184354725Y-83174003D01*
X184354725Y-83174004D01*
X184319926Y-83214163D01*
X184294746Y-83233013D01*
X184264005Y-83239700D01*
X183735095Y-83239700D01*
X183704354Y-83233013D01*
X183679173Y-83214163D01*
X183644375Y-83174004D01*
X183522332Y-83095571D01*
X183383136Y-83054700D01*
X183238064Y-83054700D01*
X183098868Y-83095571D01*
X183098865Y-83095572D01*
X182976825Y-83174003D01*
X182881823Y-83283640D01*
X182821557Y-83415604D01*
X182800912Y-83559199D01*
X180346788Y-83559199D01*
X180326142Y-83415604D01*
X180265877Y-83283642D01*
X180265876Y-83283641D01*
X180265876Y-83283640D01*
X180170874Y-83174003D01*
X180048834Y-83095572D01*
X180048833Y-83095571D01*
X180048832Y-83095571D01*
X179909636Y-83054700D01*
X179764564Y-83054700D01*
X179625368Y-83095571D01*
X179625365Y-83095572D01*
X179503327Y-83174002D01*
X179503325Y-83174003D01*
X179503325Y-83174004D01*
X179468526Y-83214163D01*
X179443346Y-83233013D01*
X179412605Y-83239700D01*
X178902595Y-83239700D01*
X178871854Y-83233013D01*
X178846673Y-83214163D01*
X178811875Y-83174004D01*
X178689832Y-83095571D01*
X178550636Y-83054700D01*
X178405564Y-83054700D01*
X178266368Y-83095571D01*
X178266365Y-83095572D01*
X178144325Y-83174003D01*
X178049323Y-83283640D01*
X177989057Y-83415604D01*
X177968412Y-83559199D01*
X160580500Y-83559199D01*
X160580500Y-78329723D01*
X210483829Y-78329723D01*
X210552554Y-78391139D01*
X210831954Y-78589383D01*
X211131766Y-78755084D01*
X211448258Y-78886178D01*
X211777446Y-78981016D01*
X212115163Y-79038397D01*
X212457200Y-79057605D01*
X212799236Y-79038397D01*
X213136953Y-78981016D01*
X213466141Y-78886178D01*
X213782633Y-78755084D01*
X214082445Y-78589383D01*
X214361844Y-78391140D01*
X214430568Y-78329723D01*
X214430568Y-78329722D01*
X212457200Y-76356353D01*
X210483829Y-78329723D01*
X160580500Y-78329723D01*
X160580500Y-76002799D01*
X209402394Y-76002799D01*
X209421602Y-76344836D01*
X209478983Y-76682553D01*
X209573821Y-77011741D01*
X209704915Y-77328233D01*
X209870616Y-77628045D01*
X210068860Y-77907445D01*
X210130275Y-77976168D01*
X210130275Y-77976169D01*
X212103646Y-76002800D01*
X212103645Y-76002799D01*
X212810753Y-76002799D01*
X214784122Y-77976168D01*
X214784123Y-77976168D01*
X214845540Y-77907444D01*
X215043783Y-77628045D01*
X215209484Y-77328233D01*
X215340578Y-77011741D01*
X215435416Y-76682553D01*
X215492797Y-76344836D01*
X215512005Y-76002799D01*
X215492797Y-75660763D01*
X215435416Y-75323046D01*
X215340578Y-74993858D01*
X215209484Y-74677366D01*
X215043783Y-74377554D01*
X214845539Y-74098154D01*
X214784123Y-74029430D01*
X214784123Y-74029429D01*
X212810753Y-76002799D01*
X212103645Y-76002799D01*
X210130275Y-74029429D01*
X210068859Y-74098155D01*
X209870616Y-74377554D01*
X209704915Y-74677366D01*
X209573821Y-74993858D01*
X209478983Y-75323046D01*
X209421602Y-75660763D01*
X209402394Y-76002799D01*
X160580500Y-76002799D01*
X160580500Y-72902800D01*
X203873074Y-72902800D01*
X203891533Y-73102006D01*
X203946283Y-73294431D01*
X204035456Y-73473517D01*
X204156021Y-73633169D01*
X204156022Y-73633170D01*
X204303869Y-73767950D01*
X204473964Y-73873269D01*
X204660515Y-73945539D01*
X204857170Y-73982300D01*
X205057230Y-73982300D01*
X205253885Y-73945539D01*
X205440436Y-73873269D01*
X205610531Y-73767950D01*
X205711533Y-73675875D01*
X210483829Y-73675875D01*
X212457199Y-75649245D01*
X214430569Y-73675875D01*
X214361845Y-73614460D01*
X214082445Y-73416216D01*
X213782633Y-73250515D01*
X213466141Y-73119421D01*
X213136953Y-73024583D01*
X212799236Y-72967202D01*
X212457200Y-72947994D01*
X212115163Y-72967202D01*
X211777446Y-73024583D01*
X211448258Y-73119421D01*
X211131766Y-73250515D01*
X210831954Y-73416216D01*
X210552555Y-73614459D01*
X210483829Y-73675875D01*
X205711533Y-73675875D01*
X205758378Y-73633170D01*
X205878942Y-73473518D01*
X205878941Y-73473518D01*
X205878943Y-73473517D01*
X205968116Y-73294431D01*
X206022866Y-73102006D01*
X206041325Y-72902800D01*
X206022866Y-72703593D01*
X205968116Y-72511168D01*
X205878943Y-72332082D01*
X205758378Y-72172430D01*
X205610531Y-72037650D01*
X205440436Y-71932331D01*
X205253884Y-71860060D01*
X205211433Y-71852125D01*
X205169020Y-71827746D01*
X205151086Y-71782233D01*
X205165467Y-71735475D01*
X205205879Y-71707906D01*
X205412108Y-71652648D01*
X205622232Y-71554666D01*
X205700623Y-71499776D01*
X204957200Y-70756353D01*
X204213776Y-71499776D01*
X204292167Y-71554666D01*
X204502292Y-71652648D01*
X204708520Y-71707906D01*
X204748932Y-71735475D01*
X204763313Y-71782233D01*
X204745379Y-71827746D01*
X204702966Y-71852125D01*
X204660515Y-71860060D01*
X204473963Y-71932331D01*
X204303868Y-72037650D01*
X204156021Y-72172430D01*
X204035456Y-72332082D01*
X203946283Y-72511168D01*
X203891533Y-72703593D01*
X203873074Y-72902800D01*
X160580500Y-72902800D01*
X160580500Y-68764914D01*
X162713780Y-68764914D01*
X162743469Y-69034745D01*
X162812131Y-69297381D01*
X162812132Y-69297384D01*
X162918303Y-69547224D01*
X163059719Y-69778944D01*
X163233368Y-69987604D01*
X163435546Y-70168757D01*
X163661947Y-70318542D01*
X163841685Y-70402800D01*
X163907745Y-70433768D01*
X164167696Y-70511975D01*
X164436265Y-70551500D01*
X164436268Y-70551500D01*
X164639775Y-70551500D01*
X164639781Y-70551500D01*
X164842740Y-70536645D01*
X165107709Y-70477621D01*
X165303337Y-70402800D01*
X203627138Y-70402800D01*
X203647345Y-70633759D01*
X203707351Y-70857707D01*
X203805335Y-71067835D01*
X203860222Y-71146223D01*
X204603647Y-70402800D01*
X205310753Y-70402800D01*
X206054176Y-71146223D01*
X206109066Y-71067832D01*
X206207048Y-70857707D01*
X206267054Y-70633759D01*
X206287261Y-70402800D01*
X206267054Y-70171840D01*
X206207048Y-69947892D01*
X206109066Y-69737768D01*
X206054175Y-69659376D01*
X205310753Y-70402800D01*
X204603647Y-70402800D01*
X203860224Y-69659377D01*
X203805333Y-69737768D01*
X203707351Y-69947892D01*
X203647345Y-70171840D01*
X203627138Y-70402800D01*
X165303337Y-70402800D01*
X165361261Y-70380646D01*
X165597991Y-70247786D01*
X165812853Y-70081875D01*
X166001269Y-69886447D01*
X166159223Y-69665668D01*
X166283348Y-69424244D01*
X166370998Y-69167320D01*
X166420306Y-68900371D01*
X166430220Y-68629089D01*
X166400530Y-68359253D01*
X166331868Y-68096616D01*
X166249505Y-67902800D01*
X203873074Y-67902800D01*
X203891533Y-68102006D01*
X203946283Y-68294431D01*
X204035456Y-68473517D01*
X204152937Y-68629085D01*
X204156022Y-68633170D01*
X204303869Y-68767950D01*
X204473964Y-68873269D01*
X204660515Y-68945539D01*
X204702965Y-68953474D01*
X204745378Y-68977852D01*
X204763313Y-69023365D01*
X204748932Y-69070124D01*
X204708520Y-69097693D01*
X204502292Y-69152951D01*
X204292168Y-69250933D01*
X204213777Y-69305824D01*
X204957199Y-70049246D01*
X205700623Y-69305822D01*
X205622235Y-69250935D01*
X205412107Y-69152951D01*
X205205879Y-69097693D01*
X205165467Y-69070124D01*
X205151086Y-69023365D01*
X205169021Y-68977852D01*
X205211432Y-68953474D01*
X205253885Y-68945539D01*
X205440436Y-68873269D01*
X205610531Y-68767950D01*
X205758378Y-68633170D01*
X205878942Y-68473518D01*
X205878941Y-68473518D01*
X205878943Y-68473517D01*
X205968116Y-68294431D01*
X206022866Y-68102006D01*
X206023366Y-68096616D01*
X206041325Y-67902800D01*
X206022866Y-67703593D01*
X205968116Y-67511169D01*
X205968116Y-67511168D01*
X205878943Y-67332082D01*
X205758378Y-67172430D01*
X205711531Y-67129723D01*
X210483829Y-67129723D01*
X210552554Y-67191139D01*
X210831954Y-67389383D01*
X211131766Y-67555084D01*
X211448258Y-67686178D01*
X211777446Y-67781016D01*
X212115163Y-67838397D01*
X212457200Y-67857605D01*
X212799236Y-67838397D01*
X213136953Y-67781016D01*
X213466141Y-67686178D01*
X213782633Y-67555084D01*
X214082445Y-67389383D01*
X214361844Y-67191140D01*
X214430568Y-67129723D01*
X214430568Y-67129722D01*
X212457200Y-65156353D01*
X210483829Y-67129723D01*
X205711531Y-67129723D01*
X205610531Y-67037650D01*
X205440436Y-66932331D01*
X205253884Y-66860060D01*
X205057230Y-66823300D01*
X204857170Y-66823300D01*
X204660515Y-66860060D01*
X204473963Y-66932331D01*
X204303868Y-67037650D01*
X204156021Y-67172430D01*
X204035456Y-67332082D01*
X203946283Y-67511168D01*
X203891533Y-67703593D01*
X203873074Y-67902800D01*
X166249505Y-67902800D01*
X166225697Y-67846776D01*
X166084281Y-67615056D01*
X165910632Y-67406396D01*
X165891644Y-67389383D01*
X165708454Y-67225243D01*
X165656907Y-67191140D01*
X165482053Y-67075458D01*
X165401402Y-67037650D01*
X165236254Y-66960231D01*
X164976303Y-66882024D01*
X164707735Y-66842500D01*
X164707732Y-66842500D01*
X164504219Y-66842500D01*
X164301259Y-66857355D01*
X164301260Y-66857355D01*
X164036287Y-66916380D01*
X163782742Y-67013352D01*
X163546008Y-67146214D01*
X163331144Y-67312126D01*
X163142731Y-67507552D01*
X162984776Y-67728332D01*
X162860653Y-67969752D01*
X162773001Y-68226683D01*
X162723694Y-68493626D01*
X162713780Y-68764914D01*
X160580500Y-68764914D01*
X160580500Y-64802800D01*
X209402394Y-64802800D01*
X209421602Y-65144836D01*
X209478983Y-65482553D01*
X209573821Y-65811741D01*
X209704915Y-66128233D01*
X209870616Y-66428045D01*
X210068860Y-66707445D01*
X210130275Y-66776168D01*
X210130275Y-66776169D01*
X212103646Y-64802800D01*
X212810753Y-64802800D01*
X214784122Y-66776168D01*
X214784123Y-66776168D01*
X214845540Y-66707444D01*
X215043783Y-66428045D01*
X215209484Y-66128233D01*
X215340578Y-65811741D01*
X215435416Y-65482553D01*
X215492797Y-65144836D01*
X215512005Y-64802800D01*
X215492797Y-64460763D01*
X215435416Y-64123046D01*
X215340578Y-63793858D01*
X215237049Y-63543914D01*
X253003780Y-63543914D01*
X253033469Y-63813745D01*
X253033470Y-63813747D01*
X253102132Y-64076384D01*
X253208303Y-64326224D01*
X253349719Y-64557944D01*
X253523368Y-64766604D01*
X253725546Y-64947757D01*
X253951947Y-65097542D01*
X254168856Y-65199225D01*
X254197745Y-65212768D01*
X254457696Y-65290975D01*
X254726265Y-65330500D01*
X254726268Y-65330500D01*
X254929775Y-65330500D01*
X254929781Y-65330500D01*
X255132740Y-65315645D01*
X255397709Y-65256621D01*
X255651261Y-65159646D01*
X255887991Y-65026786D01*
X256102853Y-64860875D01*
X256291269Y-64665447D01*
X256449223Y-64444668D01*
X256573348Y-64203244D01*
X256660998Y-63946320D01*
X256710306Y-63679371D01*
X256720220Y-63408089D01*
X256690530Y-63138253D01*
X256621868Y-62875616D01*
X256515697Y-62625776D01*
X256374281Y-62394056D01*
X256200632Y-62185396D01*
X255998454Y-62004243D01*
X255772053Y-61854458D01*
X255772051Y-61854457D01*
X255526254Y-61739231D01*
X255266303Y-61661024D01*
X254997735Y-61621500D01*
X254997732Y-61621500D01*
X254794219Y-61621500D01*
X254591260Y-61636354D01*
X254591260Y-61636355D01*
X254326287Y-61695380D01*
X254072742Y-61792352D01*
X253836008Y-61925214D01*
X253621144Y-62091126D01*
X253432731Y-62286552D01*
X253274776Y-62507332D01*
X253150653Y-62748752D01*
X253063001Y-63005683D01*
X253013694Y-63272626D01*
X253003780Y-63543914D01*
X215237049Y-63543914D01*
X215209484Y-63477366D01*
X215043783Y-63177554D01*
X214845539Y-62898154D01*
X214784123Y-62829430D01*
X214784123Y-62829429D01*
X212810753Y-64802800D01*
X212103646Y-64802800D01*
X210130275Y-62829429D01*
X210068859Y-62898155D01*
X209870616Y-63177554D01*
X209704915Y-63477366D01*
X209573821Y-63793858D01*
X209478983Y-64123046D01*
X209421602Y-64460763D01*
X209402394Y-64802800D01*
X160580500Y-64802800D01*
X160580500Y-62475875D01*
X210483829Y-62475875D01*
X212457199Y-64449245D01*
X214430569Y-62475875D01*
X214361845Y-62414460D01*
X214082445Y-62216216D01*
X213782633Y-62050515D01*
X213466141Y-61919421D01*
X213136953Y-61824583D01*
X212799236Y-61767202D01*
X212457200Y-61747994D01*
X212115163Y-61767202D01*
X211777446Y-61824583D01*
X211448258Y-61919421D01*
X211131766Y-62050515D01*
X210831954Y-62216216D01*
X210552555Y-62414459D01*
X210483829Y-62475875D01*
X160580500Y-62475875D01*
X160580500Y-38678399D01*
X211123691Y-38678399D01*
X211144074Y-38898367D01*
X211204529Y-39110843D01*
X211302998Y-39308597D01*
X211345531Y-39364919D01*
X211436126Y-39484886D01*
X211599381Y-39633712D01*
X211787202Y-39750006D01*
X211993195Y-39829808D01*
X212210344Y-39870400D01*
X212431254Y-39870400D01*
X212500408Y-39857473D01*
X216495277Y-39857473D01*
X216531869Y-39885954D01*
X216741379Y-39999334D01*
X216966706Y-40076688D01*
X217201685Y-40115900D01*
X217439913Y-40115900D01*
X217674891Y-40076688D01*
X217900218Y-39999334D01*
X218109732Y-39885952D01*
X218146319Y-39857474D01*
X218146320Y-39857474D01*
X217320799Y-39031953D01*
X216495277Y-39857473D01*
X212500408Y-39857473D01*
X212648403Y-39829808D01*
X212854396Y-39750006D01*
X213042217Y-39633712D01*
X213205472Y-39484886D01*
X213338600Y-39308596D01*
X213437068Y-39110845D01*
X213497523Y-38898368D01*
X213517906Y-38678400D01*
X213517906Y-38678399D01*
X215878371Y-38678399D01*
X215898044Y-38915812D01*
X215956528Y-39146759D01*
X216052221Y-39364919D01*
X216142517Y-39503127D01*
X216967246Y-38678400D01*
X217674352Y-38678400D01*
X218499079Y-39503127D01*
X218589376Y-39364919D01*
X218685069Y-39146759D01*
X218743553Y-38915812D01*
X218763226Y-38678399D01*
X218743553Y-38440987D01*
X218685069Y-38210040D01*
X218589376Y-37991880D01*
X218499079Y-37853671D01*
X217674352Y-38678400D01*
X216967246Y-38678400D01*
X216142517Y-37853671D01*
X216052221Y-37991880D01*
X215956528Y-38210040D01*
X215898044Y-38440987D01*
X215878371Y-38678399D01*
X213517906Y-38678399D01*
X213497523Y-38458432D01*
X213437068Y-38245955D01*
X213338600Y-38048204D01*
X213338599Y-38048203D01*
X213338599Y-38048202D01*
X213205472Y-37871914D01*
X213042217Y-37723088D01*
X212854396Y-37606794D01*
X212648402Y-37526991D01*
X212500398Y-37499325D01*
X216495277Y-37499325D01*
X217320798Y-38324846D01*
X218146319Y-37499325D01*
X218109730Y-37470847D01*
X217900218Y-37357465D01*
X217674891Y-37280111D01*
X217439913Y-37240900D01*
X217201685Y-37240900D01*
X216966706Y-37280111D01*
X216741379Y-37357465D01*
X216531863Y-37470849D01*
X216495277Y-37499324D01*
X216495277Y-37499325D01*
X212500398Y-37499325D01*
X212431254Y-37486400D01*
X212210344Y-37486400D01*
X211993195Y-37526991D01*
X211787201Y-37606794D01*
X211599380Y-37723088D01*
X211436125Y-37871914D01*
X211302998Y-38048202D01*
X211204529Y-38245956D01*
X211144074Y-38458432D01*
X211123691Y-38678399D01*
X160580500Y-38678399D01*
X160580500Y-36833976D01*
X169740176Y-36833976D01*
X169818567Y-36888866D01*
X170028692Y-36986848D01*
X170252640Y-37046854D01*
X170483600Y-37067061D01*
X170714559Y-37046854D01*
X170938507Y-36986848D01*
X171148632Y-36888866D01*
X171227023Y-36833976D01*
X170483600Y-36090553D01*
X169740176Y-36833976D01*
X160580500Y-36833976D01*
X160580500Y-35736999D01*
X166899474Y-35736999D01*
X166917933Y-35936206D01*
X166972683Y-36128631D01*
X167061856Y-36307717D01*
X167182421Y-36467369D01*
X167182422Y-36467370D01*
X167330269Y-36602150D01*
X167500364Y-36707469D01*
X167686915Y-36779739D01*
X167883570Y-36816500D01*
X168083630Y-36816500D01*
X168280285Y-36779739D01*
X168466836Y-36707469D01*
X168636931Y-36602150D01*
X168784778Y-36467370D01*
X168905342Y-36307718D01*
X168905341Y-36307718D01*
X168905343Y-36307717D01*
X168994516Y-36128632D01*
X169035676Y-35983971D01*
X169062484Y-35944997D01*
X169107421Y-35930224D01*
X169152125Y-35945688D01*
X169178330Y-35985070D01*
X169233751Y-36191907D01*
X169331735Y-36402035D01*
X169386622Y-36480423D01*
X170130047Y-35737000D01*
X170837153Y-35737000D01*
X171580576Y-36480423D01*
X171635466Y-36402032D01*
X171733448Y-36191908D01*
X171788869Y-35985070D01*
X171815074Y-35945688D01*
X171859778Y-35930224D01*
X171904715Y-35944997D01*
X171931523Y-35983970D01*
X171972684Y-36128633D01*
X172061856Y-36307717D01*
X172182421Y-36467369D01*
X172182422Y-36467370D01*
X172330269Y-36602150D01*
X172500364Y-36707469D01*
X172686915Y-36779739D01*
X172883570Y-36816500D01*
X173083630Y-36816500D01*
X173280285Y-36779739D01*
X173466836Y-36707469D01*
X173636931Y-36602150D01*
X173784778Y-36467370D01*
X173905342Y-36307718D01*
X173905341Y-36307718D01*
X173905343Y-36307717D01*
X173959705Y-36198541D01*
X254418211Y-36198541D01*
X254482987Y-36243898D01*
X254683120Y-36337221D01*
X254896424Y-36394375D01*
X255116399Y-36413621D01*
X255336375Y-36394375D01*
X255549681Y-36337220D01*
X255749811Y-36243899D01*
X255814587Y-36198541D01*
X255116400Y-35500353D01*
X254418211Y-36198541D01*
X173959705Y-36198541D01*
X173994516Y-36128631D01*
X174049266Y-35936206D01*
X174067725Y-35736999D01*
X174049266Y-35537793D01*
X173994516Y-35345368D01*
X173905343Y-35166282D01*
X173890631Y-35146800D01*
X243934982Y-35146800D01*
X243954608Y-35346069D01*
X243997944Y-35488929D01*
X244012734Y-35537683D01*
X244107120Y-35714267D01*
X244145751Y-35761339D01*
X244234148Y-35869052D01*
X244326688Y-35944997D01*
X244388932Y-35996079D01*
X244565516Y-36090465D01*
X244565520Y-36090467D01*
X244757131Y-36148592D01*
X244956400Y-36168218D01*
X245155669Y-36148592D01*
X245347280Y-36090467D01*
X245523869Y-35996078D01*
X245678652Y-35869052D01*
X245805678Y-35714269D01*
X245900067Y-35537680D01*
X245958192Y-35346069D01*
X245977818Y-35146800D01*
X253849578Y-35146800D01*
X253868824Y-35366775D01*
X253925978Y-35580079D01*
X254019301Y-35780212D01*
X254064658Y-35844986D01*
X254762846Y-35146800D01*
X255469953Y-35146800D01*
X256168141Y-35844987D01*
X256213499Y-35780211D01*
X256306820Y-35580081D01*
X256363975Y-35366775D01*
X256383221Y-35146800D01*
X256363975Y-34926824D01*
X256306821Y-34713520D01*
X256213498Y-34513388D01*
X256168140Y-34448612D01*
X255469953Y-35146800D01*
X254762846Y-35146800D01*
X254064657Y-34448611D01*
X254019301Y-34513389D01*
X253925978Y-34713520D01*
X253868824Y-34926824D01*
X253849578Y-35146800D01*
X245977818Y-35146800D01*
X245958192Y-34947531D01*
X245900067Y-34755920D01*
X245867109Y-34694260D01*
X245805679Y-34579332D01*
X245730028Y-34487151D01*
X245678652Y-34424548D01*
X245523869Y-34297522D01*
X245523870Y-34297522D01*
X245523867Y-34297520D01*
X245347283Y-34203134D01*
X245155669Y-34145008D01*
X244956400Y-34125382D01*
X244757130Y-34145008D01*
X244565516Y-34203134D01*
X244388932Y-34297520D01*
X244234148Y-34424548D01*
X244107120Y-34579332D01*
X244012734Y-34755916D01*
X243977566Y-34871850D01*
X243954608Y-34947531D01*
X243934982Y-35146800D01*
X173890631Y-35146800D01*
X173784778Y-35006630D01*
X173636931Y-34871850D01*
X173466836Y-34766531D01*
X173280284Y-34694260D01*
X173083630Y-34657500D01*
X172883570Y-34657500D01*
X172686915Y-34694260D01*
X172500363Y-34766531D01*
X172330268Y-34871850D01*
X172182421Y-35006630D01*
X172061856Y-35166282D01*
X171972684Y-35345366D01*
X171931523Y-35490029D01*
X171904715Y-35529002D01*
X171859778Y-35543775D01*
X171815074Y-35528311D01*
X171788869Y-35488929D01*
X171733448Y-35282091D01*
X171635466Y-35071968D01*
X171580575Y-34993576D01*
X170837153Y-35737000D01*
X170130047Y-35737000D01*
X169386624Y-34993577D01*
X169331733Y-35071968D01*
X169233751Y-35282092D01*
X169178330Y-35488929D01*
X169152125Y-35528311D01*
X169107421Y-35543775D01*
X169062484Y-35529002D01*
X169035676Y-35490028D01*
X168994516Y-35345368D01*
X168905343Y-35166282D01*
X168784778Y-35006630D01*
X168636931Y-34871850D01*
X168466836Y-34766531D01*
X168280284Y-34694260D01*
X168083630Y-34657500D01*
X167883570Y-34657500D01*
X167686915Y-34694260D01*
X167500363Y-34766531D01*
X167330268Y-34871850D01*
X167182421Y-35006630D01*
X167061856Y-35166282D01*
X166972683Y-35345368D01*
X166917933Y-35537793D01*
X166899474Y-35736999D01*
X160580500Y-35736999D01*
X160580500Y-34640024D01*
X169740177Y-34640024D01*
X170483599Y-35383446D01*
X171227023Y-34640022D01*
X171148635Y-34585135D01*
X170938507Y-34487151D01*
X170714559Y-34427145D01*
X170483600Y-34406938D01*
X170252640Y-34427145D01*
X170028692Y-34487151D01*
X169818568Y-34585133D01*
X169740177Y-34640024D01*
X160580500Y-34640024D01*
X160580500Y-34095057D01*
X254418211Y-34095057D01*
X255116399Y-34793245D01*
X255814587Y-34095057D01*
X255749812Y-34049701D01*
X255549679Y-33956378D01*
X255336375Y-33899224D01*
X255116400Y-33879978D01*
X254896424Y-33899224D01*
X254683120Y-33956378D01*
X254482989Y-34049701D01*
X254418211Y-34095057D01*
X160580500Y-34095057D01*
X160580500Y-32537697D01*
X209141299Y-32537697D01*
X209181466Y-32752568D01*
X209260431Y-32956401D01*
X209375505Y-33142253D01*
X209522771Y-33303795D01*
X209522774Y-33303797D01*
X209697210Y-33435526D01*
X209697211Y-33435526D01*
X209697212Y-33435527D01*
X209892889Y-33532963D01*
X210103138Y-33592784D01*
X210266265Y-33607900D01*
X210266268Y-33607900D01*
X210375330Y-33607900D01*
X210375333Y-33607900D01*
X210497677Y-33596562D01*
X210538460Y-33592784D01*
X210748709Y-33532963D01*
X210944386Y-33435527D01*
X211118827Y-33303795D01*
X211266093Y-33142253D01*
X211381167Y-32956401D01*
X211460132Y-32752568D01*
X211500299Y-32537697D01*
X218141299Y-32537697D01*
X218181466Y-32752568D01*
X218260431Y-32956401D01*
X218375505Y-33142253D01*
X218522771Y-33303795D01*
X218522774Y-33303797D01*
X218697210Y-33435526D01*
X218697211Y-33435526D01*
X218697212Y-33435527D01*
X218892889Y-33532963D01*
X219103138Y-33592784D01*
X219266265Y-33607900D01*
X219266268Y-33607900D01*
X219375330Y-33607900D01*
X219375333Y-33607900D01*
X219497677Y-33596562D01*
X219538460Y-33592784D01*
X219748709Y-33532963D01*
X219944386Y-33435527D01*
X220118827Y-33303795D01*
X220266093Y-33142253D01*
X220381167Y-32956401D01*
X220460132Y-32752568D01*
X220500299Y-32537697D01*
X220500299Y-32319103D01*
X220460132Y-32104232D01*
X220381167Y-31900399D01*
X220266093Y-31714547D01*
X220118827Y-31553005D01*
X220114176Y-31549493D01*
X219944387Y-31421273D01*
X219748707Y-31323836D01*
X219538459Y-31264015D01*
X219375333Y-31248900D01*
X219375330Y-31248900D01*
X219266268Y-31248900D01*
X219266265Y-31248900D01*
X219103138Y-31264015D01*
X218892890Y-31323836D01*
X218697210Y-31421273D01*
X218522774Y-31553002D01*
X218522771Y-31553004D01*
X218522771Y-31553005D01*
X218375505Y-31714547D01*
X218375503Y-31714549D01*
X218375503Y-31714550D01*
X218260431Y-31900398D01*
X218260431Y-31900399D01*
X218181466Y-32104232D01*
X218141299Y-32319103D01*
X218141299Y-32537697D01*
X211500299Y-32537697D01*
X211500299Y-32319103D01*
X211460132Y-32104232D01*
X211381167Y-31900399D01*
X211266093Y-31714547D01*
X211118827Y-31553005D01*
X211114176Y-31549493D01*
X210944387Y-31421273D01*
X210748707Y-31323836D01*
X210538459Y-31264015D01*
X210375333Y-31248900D01*
X210375330Y-31248900D01*
X210266268Y-31248900D01*
X210266265Y-31248900D01*
X210103138Y-31264015D01*
X209892890Y-31323836D01*
X209697210Y-31421273D01*
X209522774Y-31553002D01*
X209522771Y-31553004D01*
X209522771Y-31553005D01*
X209375505Y-31714547D01*
X209375503Y-31714549D01*
X209375503Y-31714550D01*
X209260431Y-31900398D01*
X209260431Y-31900399D01*
X209181466Y-32104232D01*
X209141299Y-32319103D01*
X209141299Y-32537697D01*
X160580500Y-32537697D01*
X160580500Y-30563923D01*
X162910229Y-30563923D01*
X162978954Y-30625339D01*
X163258354Y-30823583D01*
X163558166Y-30989284D01*
X163874658Y-31120378D01*
X164203846Y-31215216D01*
X164541563Y-31272597D01*
X164883600Y-31291805D01*
X165225636Y-31272597D01*
X165563353Y-31215216D01*
X165892541Y-31120378D01*
X166209033Y-30989284D01*
X166508845Y-30823583D01*
X166788244Y-30625340D01*
X166856968Y-30563923D01*
X174110229Y-30563923D01*
X174178954Y-30625339D01*
X174458354Y-30823583D01*
X174758166Y-30989284D01*
X175074658Y-31120378D01*
X175403846Y-31215216D01*
X175741563Y-31272597D01*
X176083600Y-31291805D01*
X176425636Y-31272597D01*
X176763353Y-31215216D01*
X177092541Y-31120378D01*
X177409033Y-30989284D01*
X177708845Y-30823583D01*
X177988244Y-30625340D01*
X178056968Y-30563923D01*
X178056968Y-30563922D01*
X176083600Y-28590553D01*
X174110229Y-30563923D01*
X166856968Y-30563923D01*
X166856968Y-30563922D01*
X164883600Y-28590553D01*
X162910229Y-30563923D01*
X160580500Y-30563923D01*
X160580500Y-28237000D01*
X161828794Y-28237000D01*
X161848002Y-28579036D01*
X161905383Y-28916753D01*
X162000221Y-29245941D01*
X162131315Y-29562433D01*
X162297016Y-29862245D01*
X162495260Y-30141645D01*
X162556675Y-30210368D01*
X162556675Y-30210369D01*
X164530046Y-28237000D01*
X165237153Y-28237000D01*
X167210522Y-30210368D01*
X167210523Y-30210368D01*
X167271940Y-30141644D01*
X167470183Y-29862245D01*
X167635884Y-29562433D01*
X167766978Y-29245941D01*
X167861816Y-28916753D01*
X167919197Y-28579036D01*
X167938405Y-28237000D01*
X173028794Y-28237000D01*
X173048002Y-28579036D01*
X173105383Y-28916753D01*
X173200221Y-29245941D01*
X173331315Y-29562433D01*
X173497016Y-29862245D01*
X173695260Y-30141645D01*
X173756675Y-30210368D01*
X173756675Y-30210369D01*
X175730046Y-28237000D01*
X176437153Y-28237000D01*
X178410522Y-30210368D01*
X178410523Y-30210368D01*
X178471940Y-30141644D01*
X178670183Y-29862245D01*
X178835884Y-29562433D01*
X178966978Y-29245941D01*
X179061816Y-28916753D01*
X179119197Y-28579036D01*
X179138405Y-28237000D01*
X179119197Y-27894963D01*
X179061816Y-27557246D01*
X178966978Y-27228058D01*
X178835884Y-26911566D01*
X178670183Y-26611754D01*
X178471939Y-26332354D01*
X178410523Y-26263630D01*
X178410523Y-26263629D01*
X176437153Y-28237000D01*
X175730046Y-28237000D01*
X173756675Y-26263629D01*
X173695259Y-26332355D01*
X173497016Y-26611754D01*
X173331315Y-26911566D01*
X173200221Y-27228058D01*
X173105383Y-27557246D01*
X173048002Y-27894963D01*
X173028794Y-28237000D01*
X167938405Y-28237000D01*
X167919197Y-27894963D01*
X167861816Y-27557246D01*
X167766978Y-27228058D01*
X167635884Y-26911566D01*
X167470183Y-26611754D01*
X167271939Y-26332354D01*
X167210523Y-26263630D01*
X167210523Y-26263629D01*
X165237153Y-28237000D01*
X164530046Y-28237000D01*
X162556675Y-26263629D01*
X162495259Y-26332355D01*
X162297016Y-26611754D01*
X162131315Y-26911566D01*
X162000221Y-27228058D01*
X161905383Y-27557246D01*
X161848002Y-27894963D01*
X161828794Y-28237000D01*
X160580500Y-28237000D01*
X160580500Y-25910075D01*
X162910229Y-25910075D01*
X164883599Y-27883445D01*
X166856969Y-25910075D01*
X174110229Y-25910075D01*
X176083599Y-27883445D01*
X178056969Y-25910075D01*
X177988245Y-25848660D01*
X177708845Y-25650416D01*
X177409033Y-25484715D01*
X177240517Y-25414914D01*
X195993780Y-25414914D01*
X196023469Y-25684745D01*
X196092131Y-25947381D01*
X196092132Y-25947384D01*
X196198303Y-26197224D01*
X196339719Y-26428944D01*
X196513368Y-26637604D01*
X196715546Y-26818757D01*
X196941947Y-26968542D01*
X197158856Y-27070225D01*
X197187745Y-27083768D01*
X197447696Y-27161975D01*
X197716265Y-27201500D01*
X197716268Y-27201500D01*
X197919775Y-27201500D01*
X197919781Y-27201500D01*
X198122740Y-27186645D01*
X198387709Y-27127621D01*
X198641261Y-27030646D01*
X198877991Y-26897786D01*
X199092853Y-26731875D01*
X199281269Y-26536447D01*
X199439223Y-26315668D01*
X199509798Y-26178400D01*
X211123691Y-26178400D01*
X211144074Y-26398367D01*
X211204529Y-26610843D01*
X211302998Y-26808597D01*
X211436125Y-26984885D01*
X211436126Y-26984886D01*
X211599381Y-27133712D01*
X211787202Y-27250006D01*
X211993195Y-27329808D01*
X212210344Y-27370400D01*
X212431254Y-27370400D01*
X212500408Y-27357473D01*
X216495277Y-27357473D01*
X216531869Y-27385954D01*
X216741379Y-27499334D01*
X216966706Y-27576688D01*
X217201685Y-27615900D01*
X217439913Y-27615900D01*
X217674891Y-27576688D01*
X217900218Y-27499334D01*
X218109732Y-27385952D01*
X218146319Y-27357474D01*
X218146320Y-27357473D01*
X217320799Y-26531953D01*
X216495277Y-27357473D01*
X212500408Y-27357473D01*
X212648403Y-27329808D01*
X212854396Y-27250006D01*
X213042217Y-27133712D01*
X213205472Y-26984886D01*
X213338600Y-26808596D01*
X213437068Y-26610845D01*
X213497523Y-26398368D01*
X213517906Y-26178400D01*
X215878371Y-26178400D01*
X215898044Y-26415812D01*
X215956528Y-26646759D01*
X216052221Y-26864919D01*
X216142517Y-27003127D01*
X216967246Y-26178400D01*
X217674352Y-26178400D01*
X218499079Y-27003127D01*
X218589376Y-26864919D01*
X218685069Y-26646759D01*
X218743553Y-26415812D01*
X218763226Y-26178400D01*
X218743553Y-25940987D01*
X218685069Y-25710040D01*
X218589376Y-25491880D01*
X218499079Y-25353671D01*
X217674352Y-26178400D01*
X216967246Y-26178400D01*
X216142517Y-25353671D01*
X216052221Y-25491880D01*
X215956528Y-25710040D01*
X215898044Y-25940987D01*
X215878371Y-26178400D01*
X213517906Y-26178400D01*
X213497523Y-25958432D01*
X213437068Y-25745955D01*
X213338600Y-25548204D01*
X213338599Y-25548203D01*
X213338599Y-25548202D01*
X213205472Y-25371914D01*
X213042217Y-25223088D01*
X212854396Y-25106794D01*
X212648402Y-25026991D01*
X212500398Y-24999325D01*
X216495277Y-24999325D01*
X217320798Y-25824846D01*
X218146319Y-24999325D01*
X218109730Y-24970847D01*
X217900218Y-24857465D01*
X217674891Y-24780111D01*
X217439913Y-24740900D01*
X217201685Y-24740900D01*
X216966706Y-24780111D01*
X216741379Y-24857465D01*
X216531863Y-24970849D01*
X216495277Y-24999324D01*
X216495277Y-24999325D01*
X212500398Y-24999325D01*
X212431254Y-24986400D01*
X212210344Y-24986400D01*
X211993195Y-25026991D01*
X211787201Y-25106794D01*
X211599380Y-25223088D01*
X211436125Y-25371914D01*
X211302998Y-25548202D01*
X211204529Y-25745956D01*
X211144074Y-25958432D01*
X211123691Y-26178400D01*
X199509798Y-26178400D01*
X199563348Y-26074244D01*
X199650998Y-25817320D01*
X199700306Y-25550371D01*
X199710220Y-25279089D01*
X199680530Y-25009253D01*
X199611868Y-24746616D01*
X199505697Y-24496776D01*
X199364281Y-24265056D01*
X199190632Y-24056396D01*
X198988454Y-23875243D01*
X198762053Y-23725458D01*
X198736803Y-23713621D01*
X198516254Y-23610231D01*
X198256303Y-23532024D01*
X198028784Y-23498541D01*
X254418211Y-23498541D01*
X254482987Y-23543898D01*
X254683120Y-23637221D01*
X254896424Y-23694375D01*
X255116400Y-23713621D01*
X255336375Y-23694375D01*
X255549681Y-23637220D01*
X255749811Y-23543899D01*
X255814587Y-23498541D01*
X255116400Y-22800353D01*
X254418211Y-23498541D01*
X198028784Y-23498541D01*
X197987735Y-23492500D01*
X197987732Y-23492500D01*
X197784219Y-23492500D01*
X197581259Y-23507355D01*
X197581260Y-23507355D01*
X197316287Y-23566380D01*
X197062742Y-23663352D01*
X196826008Y-23796214D01*
X196611144Y-23962126D01*
X196422731Y-24157552D01*
X196264776Y-24378332D01*
X196140653Y-24619752D01*
X196053001Y-24876683D01*
X196003694Y-25143626D01*
X195993780Y-25414914D01*
X177240517Y-25414914D01*
X177092541Y-25353621D01*
X176763353Y-25258783D01*
X176425636Y-25201402D01*
X176083600Y-25182194D01*
X175741563Y-25201402D01*
X175403846Y-25258783D01*
X175074658Y-25353621D01*
X174758166Y-25484715D01*
X174458354Y-25650416D01*
X174178955Y-25848659D01*
X174110229Y-25910075D01*
X166856969Y-25910075D01*
X166788245Y-25848660D01*
X166508845Y-25650416D01*
X166209033Y-25484715D01*
X165892541Y-25353621D01*
X165563353Y-25258783D01*
X165225636Y-25201402D01*
X164883600Y-25182194D01*
X164541563Y-25201402D01*
X164203846Y-25258783D01*
X163874658Y-25353621D01*
X163558166Y-25484715D01*
X163258354Y-25650416D01*
X162978955Y-25848659D01*
X162910229Y-25910075D01*
X160580500Y-25910075D01*
X160580500Y-22446800D01*
X243934982Y-22446800D01*
X243954608Y-22646069D01*
X244012734Y-22837683D01*
X244107120Y-23014267D01*
X244107122Y-23014269D01*
X244234148Y-23169052D01*
X244365395Y-23276763D01*
X244388932Y-23296079D01*
X244565516Y-23390465D01*
X244565520Y-23390467D01*
X244757131Y-23448592D01*
X244956400Y-23468218D01*
X245155669Y-23448592D01*
X245347280Y-23390467D01*
X245523869Y-23296078D01*
X245678652Y-23169052D01*
X245805678Y-23014269D01*
X245900067Y-22837680D01*
X245958192Y-22646069D01*
X245977818Y-22446800D01*
X253849578Y-22446800D01*
X253868824Y-22666775D01*
X253925978Y-22880079D01*
X254019301Y-23080212D01*
X254064658Y-23144986D01*
X254762846Y-22446799D01*
X255469953Y-22446799D01*
X256168141Y-23144987D01*
X256213499Y-23080211D01*
X256306820Y-22880081D01*
X256363975Y-22666775D01*
X256383221Y-22446800D01*
X256363975Y-22226824D01*
X256306821Y-22013520D01*
X256213498Y-21813388D01*
X256168140Y-21748612D01*
X255469953Y-22446799D01*
X254762846Y-22446799D01*
X254064657Y-21748611D01*
X254019301Y-21813389D01*
X253925978Y-22013520D01*
X253868824Y-22226824D01*
X253849578Y-22446800D01*
X245977818Y-22446800D01*
X245958192Y-22247531D01*
X245900067Y-22055920D01*
X245805678Y-21879331D01*
X245678652Y-21724548D01*
X245523869Y-21597522D01*
X245523870Y-21597522D01*
X245523867Y-21597520D01*
X245347283Y-21503134D01*
X245155669Y-21445008D01*
X244956400Y-21425382D01*
X244757130Y-21445008D01*
X244565516Y-21503134D01*
X244388932Y-21597520D01*
X244234148Y-21724548D01*
X244107120Y-21879332D01*
X244012734Y-22055916D01*
X243954608Y-22247530D01*
X243934982Y-22446800D01*
X160580500Y-22446800D01*
X160580500Y-21395057D01*
X254418211Y-21395057D01*
X255116399Y-22093245D01*
X255814587Y-21395057D01*
X255749812Y-21349701D01*
X255549679Y-21256378D01*
X255336375Y-21199224D01*
X255116399Y-21179978D01*
X254896424Y-21199224D01*
X254683120Y-21256378D01*
X254482989Y-21349701D01*
X254418211Y-21395057D01*
X160580500Y-21395057D01*
X160580500Y-20374500D01*
X160590414Y-20337500D01*
X160617500Y-20310414D01*
X160654500Y-20300500D01*
X259345500Y-20300500D01*
X259382500Y-20310414D01*
G37*
G04 #@! TD.AperFunction*
M02*
