G04 #@! TF.GenerationSoftware,KiCad,Pcbnew,7.0.1*
G04 #@! TF.CreationDate,2023-10-11T19:34:26-05:00*
G04 #@! TF.ProjectId,Tactile_Board,54616374-696c-4655-9f42-6f6172642e6b,1*
G04 #@! TF.SameCoordinates,Original*
G04 #@! TF.FileFunction,Soldermask,Top*
G04 #@! TF.FilePolarity,Negative*
%FSLAX46Y46*%
G04 Gerber Fmt 4.6, Leading zero omitted, Abs format (unit mm)*
G04 Created by KiCad (PCBNEW 7.0.1) date 2023-10-11 19:34:26*
%MOMM*%
%LPD*%
G01*
G04 APERTURE LIST*
G04 Aperture macros list*
%AMRoundRect*
0 Rectangle with rounded corners*
0 $1 Rounding radius*
0 $2 $3 $4 $5 $6 $7 $8 $9 X,Y pos of 4 corners*
0 Add a 4 corners polygon primitive as box body*
4,1,4,$2,$3,$4,$5,$6,$7,$8,$9,$2,$3,0*
0 Add four circle primitives for the rounded corners*
1,1,$1+$1,$2,$3*
1,1,$1+$1,$4,$5*
1,1,$1+$1,$6,$7*
1,1,$1+$1,$8,$9*
0 Add four rect primitives between the rounded corners*
20,1,$1+$1,$2,$3,$4,$5,0*
20,1,$1+$1,$4,$5,$6,$7,0*
20,1,$1+$1,$6,$7,$8,$9,0*
20,1,$1+$1,$8,$9,$2,$3,0*%
G04 Aperture macros list end*
%ADD10C,2.000000*%
%ADD11C,3.200000*%
%ADD12RoundRect,0.155000X-0.212500X-0.155000X0.212500X-0.155000X0.212500X0.155000X-0.212500X0.155000X0*%
%ADD13RoundRect,0.155000X-0.040659X-0.259862X0.259862X0.040659X0.040659X0.259862X-0.259862X-0.040659X0*%
%ADD14RoundRect,0.155000X-0.155000X0.212500X-0.155000X-0.212500X0.155000X-0.212500X0.155000X0.212500X0*%
%ADD15RoundRect,0.155000X0.212500X0.155000X-0.212500X0.155000X-0.212500X-0.155000X0.212500X-0.155000X0*%
%ADD16RoundRect,0.155000X0.155000X-0.212500X0.155000X0.212500X-0.155000X0.212500X-0.155000X-0.212500X0*%
%ADD17C,4.100000*%
%ADD18C,2.324000*%
%ADD19C,1.000000*%
%ADD20C,1.650000*%
%ADD21C,5.100000*%
%ADD22C,1.850000*%
%ADD23C,1.875000*%
%ADD24RoundRect,0.155000X0.040659X0.259862X-0.259862X-0.040659X-0.040659X-0.259862X0.259862X0.040659X0*%
%ADD25C,1.300000*%
%ADD26RoundRect,0.067500X0.067500X-0.332500X0.067500X0.332500X-0.067500X0.332500X-0.067500X-0.332500X0*%
%ADD27RoundRect,0.067500X0.332500X-0.067500X0.332500X0.067500X-0.332500X0.067500X-0.332500X-0.067500X0*%
%ADD28R,2.700000X2.700000*%
%ADD29C,1.524000*%
%ADD30RoundRect,0.250000X0.412500X0.650000X-0.412500X0.650000X-0.412500X-0.650000X0.412500X-0.650000X0*%
%ADD31R,0.400000X0.400000*%
G04 APERTURE END LIST*
D10*
X162052000Y-109858800D03*
X168552000Y-109858800D03*
X162052000Y-114358800D03*
X168552000Y-114358800D03*
D11*
X225542000Y-115066000D03*
D12*
X177383700Y-90823600D03*
X178518700Y-90823600D03*
D13*
X182274317Y-86602083D03*
X183076883Y-85799517D03*
D14*
X180440400Y-100212900D03*
X180440400Y-101347900D03*
D15*
X191066300Y-89960000D03*
X189931300Y-89960000D03*
X187053100Y-85794400D03*
X185918100Y-85794400D03*
D14*
X188009600Y-80959700D03*
X188009600Y-82094700D03*
D11*
X175612000Y-113576000D03*
D12*
X185918100Y-84422800D03*
X187053100Y-84422800D03*
D14*
X185876000Y-88571000D03*
X185876000Y-89706000D03*
X186638000Y-80959700D03*
X186638000Y-82094700D03*
D15*
X189796300Y-88588400D03*
X188661300Y-88588400D03*
D16*
X183768200Y-95937300D03*
X183768200Y-94802300D03*
D14*
X182116800Y-97520500D03*
X182116800Y-98655500D03*
D16*
X188263600Y-96835400D03*
X188263600Y-95700400D03*
D11*
X254862000Y-63476000D03*
D16*
X182421600Y-82043900D03*
X182421600Y-80908900D03*
D15*
X187103900Y-87064400D03*
X185968900Y-87064400D03*
D16*
X178103600Y-82035200D03*
X178103600Y-80900200D03*
D15*
X174260200Y-98037200D03*
X173125200Y-98037200D03*
D17*
X250950800Y-110635600D03*
D18*
X247140800Y-108095600D03*
X253490800Y-105555600D03*
D19*
X172058400Y-94989200D03*
D20*
X204957200Y-67902800D03*
X204957200Y-72902800D03*
D21*
X212457200Y-64802800D03*
D20*
X204957200Y-70402800D03*
D21*
X212457200Y-76002800D03*
D16*
X174903200Y-94134300D03*
X174903200Y-92999300D03*
D14*
X180999200Y-80908900D03*
X180999200Y-82043900D03*
D22*
X210320799Y-32428400D03*
X219320799Y-32428400D03*
D23*
X212320799Y-38678400D03*
X212320799Y-26178400D03*
X217320799Y-38678400D03*
X217320799Y-26178400D03*
D14*
X187400000Y-88528900D03*
X187400000Y-89663900D03*
X187196800Y-91221300D03*
X187196800Y-92356300D03*
D16*
X176630400Y-82035200D03*
X176630400Y-80900200D03*
D12*
X177383700Y-92398400D03*
X178518700Y-92398400D03*
X179161700Y-87318400D03*
X180296700Y-87318400D03*
D16*
X186942800Y-95709100D03*
X186942800Y-94574100D03*
D11*
X197852000Y-25347000D03*
D14*
X183793200Y-97469700D03*
X183793200Y-98604700D03*
X188619200Y-90459300D03*
X188619200Y-91594300D03*
D24*
X184702483Y-86510717D03*
X183899917Y-87313283D03*
D16*
X182091800Y-95988100D03*
X182091800Y-94853100D03*
X185266400Y-82043900D03*
X185266400Y-80908900D03*
D11*
X164572000Y-68697000D03*
D14*
X185876000Y-91212600D03*
X185876000Y-92347600D03*
D20*
X167983600Y-35737000D03*
X172983600Y-35737000D03*
D21*
X164883600Y-28237000D03*
D20*
X170483600Y-35737000D03*
D21*
X176083600Y-28237000D03*
D25*
X164540000Y-85325000D03*
X164540000Y-87325000D03*
X164540000Y-89325000D03*
X164540000Y-91325000D03*
X164540000Y-93325000D03*
X164540000Y-95325000D03*
X164540000Y-97325000D03*
X164540000Y-99325000D03*
D26*
X181110000Y-93220000D03*
X181610000Y-93220000D03*
X182110000Y-93220000D03*
X182610000Y-93220000D03*
X183110000Y-93220000D03*
X183610000Y-93220000D03*
D27*
X184335000Y-92495000D03*
X184335000Y-91995000D03*
X184335000Y-91495000D03*
X184335000Y-90995000D03*
X184335000Y-90495000D03*
X184335000Y-89995000D03*
D26*
X183610000Y-89270000D03*
X183110000Y-89270000D03*
X182610000Y-89270000D03*
X182110000Y-89270000D03*
X181610000Y-89270000D03*
X181110000Y-89270000D03*
D27*
X180385000Y-89995000D03*
X180385000Y-90495000D03*
X180385000Y-90995000D03*
X180385000Y-91495000D03*
X180385000Y-91995000D03*
X180385000Y-92495000D03*
D28*
X182360000Y-91245000D03*
D16*
X179576800Y-82035200D03*
X179576800Y-80900200D03*
X183844000Y-82043900D03*
X183844000Y-80908900D03*
D24*
X181756083Y-84986717D03*
X180953517Y-85789283D03*
D14*
X180440400Y-97520500D03*
X180440400Y-98655500D03*
D29*
X244956400Y-22446800D03*
X244956400Y-35146800D03*
X255116400Y-22446800D03*
X255116400Y-35146800D03*
D14*
X175157200Y-90535500D03*
X175157200Y-91670500D03*
D30*
X165817700Y-80511200D03*
X162692700Y-80511200D03*
D25*
X194715200Y-109416400D03*
X194715200Y-114816400D03*
X197215200Y-109416400D03*
X197215200Y-114816400D03*
X199715200Y-109416400D03*
X199715200Y-114816400D03*
D16*
X185774400Y-95709100D03*
X185774400Y-94574100D03*
D31*
X183174000Y-100729600D03*
X182574000Y-100729600D03*
X182574000Y-101329600D03*
X183174000Y-101329600D03*
D12*
X176799900Y-95269000D03*
X177934900Y-95269000D03*
M02*
