G04 #@! TF.GenerationSoftware,KiCad,Pcbnew,7.0.1*
G04 #@! TF.CreationDate,2023-10-11T19:34:26-05:00*
G04 #@! TF.ProjectId,Tactile_Board,54616374-696c-4655-9f42-6f6172642e6b,1*
G04 #@! TF.SameCoordinates,Original*
G04 #@! TF.FileFunction,Soldermask,Bot*
G04 #@! TF.FilePolarity,Negative*
%FSLAX46Y46*%
G04 Gerber Fmt 4.6, Leading zero omitted, Abs format (unit mm)*
G04 Created by KiCad (PCBNEW 7.0.1) date 2023-10-11 19:34:26*
%MOMM*%
%LPD*%
G01*
G04 APERTURE LIST*
%ADD10C,2.000000*%
%ADD11C,3.200000*%
%ADD12C,4.100000*%
%ADD13C,2.324000*%
%ADD14C,1.650000*%
%ADD15C,5.100000*%
%ADD16C,1.850000*%
%ADD17C,1.875000*%
%ADD18C,1.300000*%
%ADD19C,1.524000*%
G04 APERTURE END LIST*
D10*
X162052000Y-109858800D03*
X168552000Y-109858800D03*
X162052000Y-114358800D03*
X168552000Y-114358800D03*
D11*
X225542000Y-115066000D03*
X175612000Y-113576000D03*
X254862000Y-63476000D03*
D12*
X250950800Y-110635600D03*
D13*
X247140800Y-108095600D03*
X253490800Y-105555600D03*
D14*
X204957200Y-67902800D03*
X204957200Y-72902800D03*
D15*
X212457200Y-64802800D03*
D14*
X204957200Y-70402800D03*
D15*
X212457200Y-76002800D03*
D16*
X210320799Y-32428400D03*
X219320799Y-32428400D03*
D17*
X212320799Y-38678400D03*
X212320799Y-26178400D03*
X217320799Y-38678400D03*
X217320799Y-26178400D03*
D11*
X197852000Y-25347000D03*
X164572000Y-68697000D03*
D14*
X167983600Y-35737000D03*
X172983600Y-35737000D03*
D15*
X164883600Y-28237000D03*
D14*
X170483600Y-35737000D03*
D15*
X176083600Y-28237000D03*
D18*
X164540000Y-85325000D03*
X164540000Y-87325000D03*
X164540000Y-89325000D03*
X164540000Y-91325000D03*
X164540000Y-93325000D03*
X164540000Y-95325000D03*
X164540000Y-97325000D03*
X164540000Y-99325000D03*
D19*
X244956400Y-22446800D03*
X244956400Y-35146800D03*
X255116400Y-22446800D03*
X255116400Y-35146800D03*
D18*
X194715200Y-109416400D03*
X194715200Y-114816400D03*
X197215200Y-109416400D03*
X197215200Y-114816400D03*
X199715200Y-109416400D03*
X199715200Y-114816400D03*
M02*
