M48
; DRILL file {KiCad 7.0.1} date Wed Oct 11 19:34:35 2023
; FORMAT={-:-/ absolute / metric / decimal}
; #@! TF.CreationDate,2023-10-11T19:34:35-05:00
; #@! TF.GenerationSoftware,Kicad,Pcbnew,7.0.1
; #@! TF.FileFunction,Plated,1,6,PTH
FMAT,2
METRIC
; #@! TA.AperFunction,Plated,PTH,ViaDrill
T1C0.300
; #@! TA.AperFunction,Plated,PTH,ComponentDrill
T2C0.750
; #@! TA.AperFunction,Plated,PTH,ComponentDrill
T3C0.800
; #@! TA.AperFunction,Plated,PTH,ComponentDrill
T4C0.950
; #@! TA.AperFunction,Plated,PTH,ComponentDrill
T5C1.100
; #@! TA.AperFunction,Plated,PTH,ComponentDrill
T6C1.250
; #@! TA.AperFunction,Plated,PTH,ComponentDrill
T7C1.550
; #@! TA.AperFunction,Plated,PTH,ComponentDrill
T8C3.440
%
G90
G05
T1
X161.19Y-79.5
X161.39Y-32.3
X161.39Y-35.7
X161.39Y-39.3
X161.39Y-42.3
X161.39Y-45.1
X161.39Y-48.3
X161.39Y-51.1
X161.39Y-53.9
X161.39Y-56.5
X161.39Y-59.1
X161.39Y-62.1
X161.39Y-64.3
X161.39Y-66.7
X161.39Y-68.7
X161.39Y-71.3
X161.39Y-74.1
X161.39Y-76.5
X161.59Y-23.9
X162.0Y-103.295
X162.0Y-107.105
X162.0Y-117.9
X162.99Y-86.5
X163.092Y-92.024
X163.118Y-90.626
X163.39Y-83.1
X164.79Y-22.3
X165.19Y-63.9
X165.39Y-52.3
X165.59Y-74.5
X165.81Y-117.9
X166.59Y-86.3
X166.59Y-88.1
X166.79Y-89.9
X166.99Y-104.3
X167.59Y-92.7
X167.99Y-80.9
X168.39Y-99.9
X168.59Y-84.1
X168.79Y-88.1
X168.99Y-22.3
X169.39Y-89.9
X169.79Y-76.5
X169.99Y-94.1
X170.255Y-117.9
X170.79Y-88.1
X170.99Y-86.1
X171.19Y-83.5
X171.19Y-92.7
X171.59Y-42.5
X171.59Y-89.9
X171.79Y-47.5
X171.79Y-97.1
X171.99Y-54.1
X171.99Y-59.7
X171.99Y-102.3
X172.99Y-65.7
X172.99Y-79.5
X172.99Y-85.1
X173.19Y-93.3
X173.59Y-22.3
X173.99Y-88.1
X174.065Y-117.9
X174.319Y-99.218
X174.319Y-100.717
X174.39Y-72.9
X174.39Y-109.3
X174.99Y-84.9
X174.99Y-86.3
X175.157Y-89.833
X175.99Y-93.5
X175.99Y-96.5
X176.19Y-42.7
X176.39Y-61.1
X176.77Y-92.741
X176.783Y-90.316
X176.79Y-47.3
X176.79Y-88.1
X176.99Y-53.7
X176.99Y-85.1
X177.152Y-86.198
X177.19Y-98.9
X177.39Y-78.5
X177.875Y-117.9
X178.478Y-83.559
X178.713Y-86.785
X178.968Y-93.262
X178.99Y-100.9
X179.19Y-97.9
X179.272Y-94.608
X179.272Y-95.98
X179.374Y-91.611
X179.59Y-22.1
X179.837Y-83.559
X179.99Y-113.5
X180.517Y-88.995
X180.59Y-84.7
X181.685Y-117.9
X181.79Y-105.9
X182.066Y-85.972
X182.447Y-84.829
X183.311Y-83.559
X183.99Y-22.1
X184.39Y-60.5
X184.39Y-70.7
X184.59Y-30.7
X184.59Y-45.5
X184.689Y-83.559
X184.911Y-85.845
X184.99Y-100.5
X185.012Y-95.7
X185.165Y-88.944
X185.19Y-109.9
X185.39Y-97.6
X185.495Y-117.9
X185.99Y-114.1
X186.257Y-90.646
X186.79Y-98.5
X186.99Y-77.5
X187.781Y-87.064
X187.99Y-93.7
X188.19Y-22.1
X188.19Y-52.7
X188.39Y-64.9
X188.568Y-80.562
X188.59Y-104.3
X188.67Y-117.9
X188.79Y-85.3
X188.99Y-39.1
X189.19Y-86.7
X189.39Y-94.7
X189.59Y-108.5
X190.085Y-92.884
X190.603Y-113.537
X190.643Y-97.283
X191.39Y-79.3
X191.39Y-101.1
X191.59Y-73.1
X191.604Y-96.322
X191.845Y-117.9
X192.19Y-22.1
X192.19Y-30.3
X192.99Y-45.7
X192.99Y-59.9
X193.99Y-75.3
X194.99Y-77.3
X195.655Y-117.9
X195.927Y-112.061
X195.99Y-22.1
X196.59Y-70.5
X196.79Y-53.3
X196.79Y-99.3
X197.19Y-38.5
X198.19Y-104.7
X198.39Y-65.1
X198.59Y-89.3
X198.99Y-74.7
X199.59Y-22.1
X200.1Y-117.9
X200.19Y-30.3
X200.19Y-45.3
X200.79Y-70.3
X202.19Y-59.1
X202.79Y-74.7
X202.99Y-77.1
X203.59Y-22.1
X203.698Y-92.481
X204.545Y-117.9
X204.59Y-83.9
X204.59Y-99.5
X204.99Y-105.5
X205.59Y-111.5
X207.39Y-22.1
X208.355Y-117.9
X209.19Y-72.1
X209.39Y-100.1
X209.99Y-69.1
X210.39Y-90.3
X210.39Y-106.1
X210.39Y-111.7
X211.19Y-22.1
X212.165Y-117.9
X212.99Y-85.9
X214.59Y-22.1
X214.59Y-47.5
X215.39Y-100.1
X215.847Y-93.988
X215.975Y-117.9
X216.19Y-106.1
X216.59Y-111.5
X217.731Y-55.186
X218.39Y-22.1
X218.99Y-71.7
X219.426Y-85.229
X219.52Y-89.844
X219.59Y-117.9
X221.59Y-100.1
X221.99Y-106.1
X222.39Y-110.9
X222.59Y-22.1
X223.39Y-117.9
X223.853Y-26.744
X223.99Y-38.7
X224.39Y-47.7
X226.79Y-22.1
X226.79Y-92.9
X227.19Y-75.3
X227.19Y-88.5
X227.39Y-66.3
X227.79Y-117.9
X227.99Y-82.5
X227.99Y-100.1
X228.19Y-32.3
X228.19Y-106.3
X228.79Y-110.9
X230.59Y-22.1
X231.79Y-117.9
X232.14Y-26.838
X232.79Y-42.3
X234.024Y-37.103
X234.79Y-101.1
X234.79Y-106.3
X234.966Y-69.407
X235.06Y-55.468
X235.19Y-22.1
X235.39Y-77.7
X235.625Y-85.888
X235.99Y-117.9
X236.59Y-111.1
X236.99Y-92.5
X237.39Y-61.5
X238.639Y-29.569
X240.79Y-22.1
X240.79Y-117.9
X241.39Y-106.3
X242.59Y-111.7
X243.19Y-49.9
X243.99Y-73.3
X244.59Y-80.7
X244.59Y-90.1
X244.99Y-63.1
X245.39Y-96.1
X245.79Y-117.9
X248.39Y-113.9
X249.093Y-31.735
X249.19Y-102.7
X250.39Y-22.1
X250.59Y-117.9
X251.07Y-44.638
X251.39Y-68.9
X251.59Y-56.7
X251.79Y-77.7
X251.918Y-26.744
X252.19Y-91.1
X252.39Y-84.5
X252.79Y-98.1
X254.99Y-113.3
X254.99Y-117.9
X258.19Y-24.3
X258.19Y-27.7
X258.19Y-31.1
X258.19Y-34.9
X258.19Y-38.1
X258.19Y-42.1
X258.19Y-44.9
X258.19Y-48.1
X258.19Y-51.7
X258.19Y-55.1
X258.19Y-58.7
X258.19Y-61.9
X258.19Y-65.3
X258.19Y-68.1
X258.19Y-70.9
X258.19Y-73.5
X258.19Y-75.9
X258.19Y-78.7
X258.19Y-81.3
X258.19Y-84.1
X258.19Y-87.1
X258.19Y-90.3
X258.19Y-92.7
X258.19Y-95.1
X258.19Y-97.7
X258.19Y-100.3
X258.19Y-102.9
X258.19Y-105.7
X258.19Y-108.9
X258.19Y-111.9
X258.19Y-115.5
T2
X164.54Y-85.325
X164.54Y-87.325
X164.54Y-89.325
X164.54Y-91.325
X164.54Y-93.325
X164.54Y-95.325
X164.54Y-97.325
X164.54Y-99.325
T3
X194.715Y-109.416
X194.715Y-114.816
X197.215Y-109.416
X197.215Y-114.816
X199.715Y-109.416
X199.715Y-114.816
T4
X244.956Y-22.447
X244.956Y-35.147
X255.116Y-22.447
X255.116Y-35.147
T5
X162.052Y-109.859
X162.052Y-114.359
X167.984Y-35.737
X168.552Y-109.859
X168.552Y-114.359
X170.484Y-35.737
X172.984Y-35.737
X204.957Y-67.903
X204.957Y-70.403
X204.957Y-72.903
T6
X212.321Y-26.178
X212.321Y-38.678
X217.321Y-26.178
X217.321Y-38.678
T7
X247.141Y-108.096
X253.491Y-105.556
T8
X164.884Y-28.237
X176.084Y-28.237
X212.457Y-64.803
X212.457Y-76.003
T0
M30
