G04 #@! TF.GenerationSoftware,KiCad,Pcbnew,7.0.1*
G04 #@! TF.CreationDate,2023-10-11T18:59:39-05:00*
G04 #@! TF.ProjectId,Touch_Board,546f7563-685f-4426-9f61-72642e6b6963,1*
G04 #@! TF.SameCoordinates,Original*
G04 #@! TF.FileFunction,Legend,Bot*
G04 #@! TF.FilePolarity,Positive*
%FSLAX46Y46*%
G04 Gerber Fmt 4.6, Leading zero omitted, Abs format (unit mm)*
G04 Created by KiCad (PCBNEW 7.0.1) date 2023-10-11 18:59:39*
%MOMM*%
%LPD*%
G01*
G04 APERTURE LIST*
%ADD10C,0.375000*%
%ADD11C,0.150000*%
%ADD12C,2.250000*%
%ADD13C,2.100000*%
G04 APERTURE END LIST*
D10*
G36*
X282278215Y-42624000D02*
G01*
X282011991Y-42624000D01*
X282011991Y-41725186D01*
X281702779Y-41725186D01*
X281683960Y-41725272D01*
X281660444Y-41725653D01*
X281638730Y-41726340D01*
X281618816Y-41727332D01*
X281596457Y-41729002D01*
X281576913Y-41731149D01*
X281554280Y-41734956D01*
X281546535Y-41736940D01*
X281527255Y-41742703D01*
X281508095Y-41749610D01*
X281489054Y-41757662D01*
X281470132Y-41766860D01*
X281451330Y-41777202D01*
X281432647Y-41788689D01*
X281417496Y-41799245D01*
X281401842Y-41811617D01*
X281385683Y-41825806D01*
X281369021Y-41841812D01*
X281351856Y-41859634D01*
X281338651Y-41874193D01*
X281325163Y-41889773D01*
X281311391Y-41906375D01*
X281297336Y-41924000D01*
X281282779Y-41942886D01*
X281267500Y-41963275D01*
X281251501Y-41985167D01*
X281234780Y-42008561D01*
X281223231Y-42024992D01*
X281211363Y-42042091D01*
X281199173Y-42059858D01*
X281186664Y-42078292D01*
X281173833Y-42097395D01*
X281160682Y-42117165D01*
X281147211Y-42137603D01*
X281133419Y-42158709D01*
X281119306Y-42180483D01*
X281104873Y-42202925D01*
X280838648Y-42624000D01*
X280503058Y-42624000D01*
X280853791Y-42073476D01*
X280866847Y-42053534D01*
X280880002Y-42034008D01*
X280893255Y-42014898D01*
X280906609Y-41996204D01*
X280920061Y-41977926D01*
X280933613Y-41960063D01*
X280947264Y-41942617D01*
X280961014Y-41925587D01*
X280974863Y-41908973D01*
X280988812Y-41892775D01*
X281002859Y-41876992D01*
X281017006Y-41861626D01*
X281031253Y-41846676D01*
X281045598Y-41832141D01*
X281060043Y-41818023D01*
X281074587Y-41804321D01*
X281085379Y-41795053D01*
X281101144Y-41782642D01*
X281118481Y-41770170D01*
X281137391Y-41757638D01*
X281157873Y-41745044D01*
X281179927Y-41732389D01*
X281197500Y-41722858D01*
X281215957Y-41713292D01*
X281235299Y-41703692D01*
X281199679Y-41698203D01*
X281165239Y-41691870D01*
X281131978Y-41684693D01*
X281099896Y-41676673D01*
X281068994Y-41667810D01*
X281039271Y-41658103D01*
X281010727Y-41647553D01*
X280983362Y-41636159D01*
X280957177Y-41623922D01*
X280932170Y-41610842D01*
X280908343Y-41596918D01*
X280885695Y-41582151D01*
X280864227Y-41566541D01*
X280843938Y-41550087D01*
X280824827Y-41532789D01*
X280806897Y-41514648D01*
X280790097Y-41495758D01*
X280774382Y-41476333D01*
X280759750Y-41456374D01*
X280746202Y-41435880D01*
X280733738Y-41414852D01*
X280722358Y-41393290D01*
X280712062Y-41371194D01*
X280702849Y-41348563D01*
X280694720Y-41325398D01*
X280687676Y-41301699D01*
X280681714Y-41277466D01*
X280676837Y-41252698D01*
X280673044Y-41227396D01*
X280670334Y-41201560D01*
X280668709Y-41175189D01*
X280668246Y-41152192D01*
X280942696Y-41152192D01*
X280943535Y-41176876D01*
X280946054Y-41201102D01*
X280950252Y-41224870D01*
X280956129Y-41248180D01*
X280963685Y-41271032D01*
X280972921Y-41293426D01*
X280983835Y-41315362D01*
X280996429Y-41336840D01*
X281003338Y-41347224D01*
X281018314Y-41366916D01*
X281034830Y-41385173D01*
X281052889Y-41401995D01*
X281072490Y-41417383D01*
X281093632Y-41431335D01*
X281116316Y-41443852D01*
X281134341Y-41452299D01*
X281153233Y-41459938D01*
X281159753Y-41462312D01*
X281180245Y-41468983D01*
X281202136Y-41474975D01*
X281225428Y-41480288D01*
X281250119Y-41484924D01*
X281276209Y-41488881D01*
X281303699Y-41492160D01*
X281332589Y-41494760D01*
X281352627Y-41496117D01*
X281373286Y-41497172D01*
X281394568Y-41497925D01*
X281416471Y-41498378D01*
X281438997Y-41498528D01*
X282011991Y-41498528D01*
X282011991Y-40818556D01*
X281374517Y-40818556D01*
X281346961Y-40818925D01*
X281320348Y-40820029D01*
X281294678Y-40821871D01*
X281269950Y-40824449D01*
X281246165Y-40827763D01*
X281223323Y-40831814D01*
X281201423Y-40836602D01*
X281180466Y-40842126D01*
X281160451Y-40848386D01*
X281141380Y-40855384D01*
X281114539Y-40867260D01*
X281089819Y-40880794D01*
X281067221Y-40895986D01*
X281046743Y-40912834D01*
X281034144Y-40924760D01*
X281016768Y-40943407D01*
X281001222Y-40962965D01*
X280987505Y-40983433D01*
X280975617Y-41004811D01*
X280965558Y-41027099D01*
X280957327Y-41050297D01*
X280950926Y-41074406D01*
X280946354Y-41099424D01*
X280943610Y-41125353D01*
X280942696Y-41152192D01*
X280668246Y-41152192D01*
X280668167Y-41148284D01*
X280668495Y-41127392D01*
X280669479Y-41106725D01*
X280671120Y-41086283D01*
X280673418Y-41066066D01*
X280676372Y-41046074D01*
X280679982Y-41026308D01*
X280684248Y-41006766D01*
X280689172Y-40987450D01*
X280694751Y-40968359D01*
X280700987Y-40949493D01*
X280707879Y-40930853D01*
X280715428Y-40912437D01*
X280723633Y-40894247D01*
X280732494Y-40876282D01*
X280742012Y-40858542D01*
X280752186Y-40841027D01*
X280757462Y-40832408D01*
X280768346Y-40815666D01*
X280779673Y-40799584D01*
X280797493Y-40776699D01*
X280816309Y-40755300D01*
X280836122Y-40735386D01*
X280856930Y-40716958D01*
X280878734Y-40700015D01*
X280901535Y-40684557D01*
X280925331Y-40670585D01*
X280950124Y-40658099D01*
X280975913Y-40647098D01*
X280993941Y-40640414D01*
X281012976Y-40634161D01*
X281033020Y-40628339D01*
X281054070Y-40622948D01*
X281076129Y-40617989D01*
X281099194Y-40613461D01*
X281123267Y-40609364D01*
X281148348Y-40605699D01*
X281174436Y-40602464D01*
X281201532Y-40599661D01*
X281229635Y-40597290D01*
X281258746Y-40595349D01*
X281288864Y-40593840D01*
X281319990Y-40592761D01*
X281352123Y-40592115D01*
X281385264Y-40591899D01*
X282278215Y-40591899D01*
X282278215Y-42624000D01*
G37*
G36*
X280256373Y-42624000D02*
G01*
X280256373Y-40591899D01*
X278800197Y-40591899D01*
X278800197Y-40826372D01*
X279990148Y-40826372D01*
X279990148Y-41467265D01*
X278875913Y-41467265D01*
X278875913Y-41701739D01*
X279990148Y-41701739D01*
X279990148Y-42389526D01*
X278753303Y-42389526D01*
X278753303Y-42624000D01*
X280256373Y-42624000D01*
G37*
G36*
X277820295Y-42624000D02*
G01*
X278600895Y-40591899D01*
X278312200Y-40591899D01*
X277788543Y-42069568D01*
X277780747Y-42091707D01*
X277773110Y-42113669D01*
X277765634Y-42135457D01*
X277758318Y-42157068D01*
X277751163Y-42178504D01*
X277744168Y-42199765D01*
X277737333Y-42220850D01*
X277730658Y-42241759D01*
X277724143Y-42262493D01*
X277717789Y-42283052D01*
X277711596Y-42303435D01*
X277705562Y-42323642D01*
X277699689Y-42343674D01*
X277693976Y-42363530D01*
X277688423Y-42383210D01*
X277683031Y-42402715D01*
X277677111Y-42381894D01*
X277671078Y-42361072D01*
X277664930Y-42340250D01*
X277658667Y-42319429D01*
X277652290Y-42298607D01*
X277645799Y-42277785D01*
X277639193Y-42256964D01*
X277632472Y-42236142D01*
X277625637Y-42215320D01*
X277618688Y-42194498D01*
X277611624Y-42173677D01*
X277604445Y-42152855D01*
X277597152Y-42132033D01*
X277589745Y-42111212D01*
X277582223Y-42090390D01*
X277574587Y-42069568D01*
X277030414Y-40591899D01*
X276758327Y-40591899D01*
X277546743Y-42624000D01*
X277820295Y-42624000D01*
G37*
G36*
X274921132Y-42624000D02*
G01*
X275168306Y-42624000D01*
X275168306Y-41040329D01*
X275185557Y-41056540D01*
X275203786Y-41072752D01*
X275222995Y-41088964D01*
X275243182Y-41105175D01*
X275264348Y-41121387D01*
X275286493Y-41137599D01*
X275309617Y-41153810D01*
X275333720Y-41170022D01*
X275350332Y-41180830D01*
X275367379Y-41191637D01*
X275384862Y-41202445D01*
X275402779Y-41213253D01*
X275420798Y-41223832D01*
X275438584Y-41234075D01*
X275456137Y-41243982D01*
X275473457Y-41253553D01*
X275499001Y-41267280D01*
X275524021Y-41280252D01*
X275548517Y-41292468D01*
X275572490Y-41303928D01*
X275595939Y-41314633D01*
X275618864Y-41324582D01*
X275641265Y-41333775D01*
X275663142Y-41342213D01*
X275663142Y-41092108D01*
X275637396Y-41079860D01*
X275612057Y-41067295D01*
X275587127Y-41054413D01*
X275562606Y-41041214D01*
X275538492Y-41027699D01*
X275514788Y-41013867D01*
X275491491Y-40999718D01*
X275468603Y-40985252D01*
X275446123Y-40970470D01*
X275424051Y-40955371D01*
X275402388Y-40939955D01*
X275381133Y-40924222D01*
X275360287Y-40908173D01*
X275339849Y-40891806D01*
X275319819Y-40875123D01*
X275300197Y-40858124D01*
X275281135Y-40840998D01*
X275262782Y-40823937D01*
X275245140Y-40806941D01*
X275228207Y-40790010D01*
X275211984Y-40773144D01*
X275196470Y-40756343D01*
X275181667Y-40739607D01*
X275167573Y-40722935D01*
X275154190Y-40706329D01*
X275141516Y-40689787D01*
X275129552Y-40673310D01*
X275118297Y-40656898D01*
X275102747Y-40632402D01*
X275088794Y-40608051D01*
X275080379Y-40591899D01*
X274921132Y-40591899D01*
X274921132Y-42624000D01*
G37*
D11*
X281725690Y-43341619D02*
X281725690Y-44055904D01*
X281725690Y-44055904D02*
X281773309Y-44198761D01*
X281773309Y-44198761D02*
X281868547Y-44294000D01*
X281868547Y-44294000D02*
X282011404Y-44341619D01*
X282011404Y-44341619D02*
X282106642Y-44341619D01*
X280773309Y-44341619D02*
X281249499Y-44341619D01*
X281249499Y-44341619D02*
X281249499Y-43341619D01*
X279868547Y-44246380D02*
X279916166Y-44294000D01*
X279916166Y-44294000D02*
X280059023Y-44341619D01*
X280059023Y-44341619D02*
X280154261Y-44341619D01*
X280154261Y-44341619D02*
X280297118Y-44294000D01*
X280297118Y-44294000D02*
X280392356Y-44198761D01*
X280392356Y-44198761D02*
X280439975Y-44103523D01*
X280439975Y-44103523D02*
X280487594Y-43913047D01*
X280487594Y-43913047D02*
X280487594Y-43770190D01*
X280487594Y-43770190D02*
X280439975Y-43579714D01*
X280439975Y-43579714D02*
X280392356Y-43484476D01*
X280392356Y-43484476D02*
X280297118Y-43389238D01*
X280297118Y-43389238D02*
X280154261Y-43341619D01*
X280154261Y-43341619D02*
X280059023Y-43341619D01*
X280059023Y-43341619D02*
X279916166Y-43389238D01*
X279916166Y-43389238D02*
X279868547Y-43436857D01*
X279154261Y-43341619D02*
X279154261Y-44055904D01*
X279154261Y-44055904D02*
X279201880Y-44198761D01*
X279201880Y-44198761D02*
X279297118Y-44294000D01*
X279297118Y-44294000D02*
X279439975Y-44341619D01*
X279439975Y-44341619D02*
X279535213Y-44341619D01*
X278201880Y-44341619D02*
X278678070Y-44341619D01*
X278678070Y-44341619D02*
X278678070Y-43341619D01*
X277297118Y-44246380D02*
X277344737Y-44294000D01*
X277344737Y-44294000D02*
X277487594Y-44341619D01*
X277487594Y-44341619D02*
X277582832Y-44341619D01*
X277582832Y-44341619D02*
X277725689Y-44294000D01*
X277725689Y-44294000D02*
X277820927Y-44198761D01*
X277820927Y-44198761D02*
X277868546Y-44103523D01*
X277868546Y-44103523D02*
X277916165Y-43913047D01*
X277916165Y-43913047D02*
X277916165Y-43770190D01*
X277916165Y-43770190D02*
X277868546Y-43579714D01*
X277868546Y-43579714D02*
X277820927Y-43484476D01*
X277820927Y-43484476D02*
X277725689Y-43389238D01*
X277725689Y-43389238D02*
X277582832Y-43341619D01*
X277582832Y-43341619D02*
X277487594Y-43341619D01*
X277487594Y-43341619D02*
X277344737Y-43389238D01*
X277344737Y-43389238D02*
X277297118Y-43436857D01*
X276582832Y-43341619D02*
X276582832Y-44055904D01*
X276582832Y-44055904D02*
X276630451Y-44198761D01*
X276630451Y-44198761D02*
X276725689Y-44294000D01*
X276725689Y-44294000D02*
X276868546Y-44341619D01*
X276868546Y-44341619D02*
X276963784Y-44341619D01*
X275630451Y-44341619D02*
X276106641Y-44341619D01*
X276106641Y-44341619D02*
X276106641Y-43341619D01*
X274725689Y-44246380D02*
X274773308Y-44294000D01*
X274773308Y-44294000D02*
X274916165Y-44341619D01*
X274916165Y-44341619D02*
X275011403Y-44341619D01*
X275011403Y-44341619D02*
X275154260Y-44294000D01*
X275154260Y-44294000D02*
X275249498Y-44198761D01*
X275249498Y-44198761D02*
X275297117Y-44103523D01*
X275297117Y-44103523D02*
X275344736Y-43913047D01*
X275344736Y-43913047D02*
X275344736Y-43770190D01*
X275344736Y-43770190D02*
X275297117Y-43579714D01*
X275297117Y-43579714D02*
X275249498Y-43484476D01*
X275249498Y-43484476D02*
X275154260Y-43389238D01*
X275154260Y-43389238D02*
X275011403Y-43341619D01*
X275011403Y-43341619D02*
X274916165Y-43341619D01*
X274916165Y-43341619D02*
X274773308Y-43389238D01*
X274773308Y-43389238D02*
X274725689Y-43436857D01*
X274011403Y-43341619D02*
X274011403Y-44055904D01*
X274011403Y-44055904D02*
X274059022Y-44198761D01*
X274059022Y-44198761D02*
X274154260Y-44294000D01*
X274154260Y-44294000D02*
X274297117Y-44341619D01*
X274297117Y-44341619D02*
X274392355Y-44341619D01*
X273059022Y-44341619D02*
X273535212Y-44341619D01*
X273535212Y-44341619D02*
X273535212Y-43341619D01*
X272154260Y-44246380D02*
X272201879Y-44294000D01*
X272201879Y-44294000D02*
X272344736Y-44341619D01*
X272344736Y-44341619D02*
X272439974Y-44341619D01*
X272439974Y-44341619D02*
X272582831Y-44294000D01*
X272582831Y-44294000D02*
X272678069Y-44198761D01*
X272678069Y-44198761D02*
X272725688Y-44103523D01*
X272725688Y-44103523D02*
X272773307Y-43913047D01*
X272773307Y-43913047D02*
X272773307Y-43770190D01*
X272773307Y-43770190D02*
X272725688Y-43579714D01*
X272725688Y-43579714D02*
X272678069Y-43484476D01*
X272678069Y-43484476D02*
X272582831Y-43389238D01*
X272582831Y-43389238D02*
X272439974Y-43341619D01*
X272439974Y-43341619D02*
X272344736Y-43341619D01*
X272344736Y-43341619D02*
X272201879Y-43389238D01*
X272201879Y-43389238D02*
X272154260Y-43436857D01*
%LPC*%
D12*
X142822300Y-31724600D03*
D13*
X222989500Y-43544000D03*
D12*
X142822300Y-22724600D03*
D13*
X248409500Y-43554000D03*
X179709500Y-43604000D03*
D12*
X145922300Y-21924600D03*
X142822300Y-28724600D03*
D13*
X200109500Y-28174000D03*
D12*
X142822300Y-25724600D03*
D13*
X179719500Y-28154000D03*
X222999500Y-28134000D03*
X248369500Y-28074000D03*
D12*
X139822300Y-27724600D03*
D13*
X200069500Y-43554000D03*
X161919500Y-28144000D03*
D12*
X274989500Y-48414000D03*
X139822300Y-21724600D03*
X199989500Y-50014000D03*
X139789700Y-30724600D03*
X275089500Y-30114000D03*
D13*
X161909500Y-43574000D03*
D12*
X139822300Y-24724600D03*
X142822300Y-34724600D03*
X139822300Y-33724600D03*
M02*
