%TF.GenerationSoftware,KiCad,Pcbnew,7.0.1*%
%TF.CreationDate,2023-10-11T18:59:45-05:00*%
%TF.ProjectId,Touch_Board,546f7563-685f-4426-9f61-72642e6b6963,1*%
%TF.SameCoordinates,Original*%
%TF.FileFunction,Drillmap*%
%TF.FilePolarity,Positive*%
%FSLAX45Y45*%
G04 Gerber Fmt 4.5, Leading zero omitted, Abs format (unit mm)*
G04 Created by KiCad (PCBNEW 7.0.1) date 2023-10-11 18:59:45*
%MOMM*%
%LPD*%
G01*
G04 APERTURE LIST*
%ADD10C,0.100000*%
%ADD11C,0.200000*%
%ADD12C,0.210000*%
G04 APERTURE END LIST*
D10*
X28338550Y-5200000D02*
X13661450Y-5200000D01*
X13661450Y-2000000D02*
X28338550Y-2000000D01*
X13661450Y-2000000D02*
X13661450Y-2000000D01*
X13661450Y-5200000D02*
X13661450Y-2000000D01*
X28338550Y-2000000D02*
X28338550Y-5200000D01*
D11*
D12*
X16085950Y-4252400D02*
X16295950Y-4462400D01*
X16295950Y-4252400D02*
X16085950Y-4462400D01*
X16086950Y-2709400D02*
X16296950Y-2919400D01*
X16296950Y-2709400D02*
X16086950Y-2919400D01*
X17865950Y-4255400D02*
X18075950Y-4465400D01*
X18075950Y-4255400D02*
X17865950Y-4465400D01*
X17866950Y-2710400D02*
X18076950Y-2920400D01*
X18076950Y-2710400D02*
X17866950Y-2920400D01*
X19901950Y-4250400D02*
X20111950Y-4460400D01*
X20111950Y-4250400D02*
X19901950Y-4460400D01*
X19905950Y-2712400D02*
X20115950Y-2922400D01*
X20115950Y-2712400D02*
X19905950Y-2922400D01*
X22193950Y-4249400D02*
X22403950Y-4459400D01*
X22403950Y-4249400D02*
X22193950Y-4459400D01*
X22194950Y-2708400D02*
X22404950Y-2918400D01*
X22404950Y-2708400D02*
X22194950Y-2918400D01*
X24731950Y-2702400D02*
X24941950Y-2912400D01*
X24941950Y-2702400D02*
X24731950Y-2912400D01*
X24735950Y-4250400D02*
X24945950Y-4460400D01*
X24945950Y-4250400D02*
X24735950Y-4460400D01*
D11*
X13904069Y-5517524D02*
X13904069Y-5317524D01*
X13904069Y-5317524D02*
X13951688Y-5317524D01*
X13951688Y-5317524D02*
X13980259Y-5327048D01*
X13980259Y-5327048D02*
X13999307Y-5346095D01*
X13999307Y-5346095D02*
X14008831Y-5365143D01*
X14008831Y-5365143D02*
X14018355Y-5403238D01*
X14018355Y-5403238D02*
X14018355Y-5431810D01*
X14018355Y-5431810D02*
X14008831Y-5469905D01*
X14008831Y-5469905D02*
X13999307Y-5488952D01*
X13999307Y-5488952D02*
X13980259Y-5508000D01*
X13980259Y-5508000D02*
X13951688Y-5517524D01*
X13951688Y-5517524D02*
X13904069Y-5517524D01*
X14104069Y-5517524D02*
X14104069Y-5384190D01*
X14104069Y-5422286D02*
X14113593Y-5403238D01*
X14113593Y-5403238D02*
X14123117Y-5393714D01*
X14123117Y-5393714D02*
X14142164Y-5384190D01*
X14142164Y-5384190D02*
X14161212Y-5384190D01*
X14227878Y-5517524D02*
X14227878Y-5384190D01*
X14227878Y-5317524D02*
X14218355Y-5327048D01*
X14218355Y-5327048D02*
X14227878Y-5336571D01*
X14227878Y-5336571D02*
X14237402Y-5327048D01*
X14237402Y-5327048D02*
X14227878Y-5317524D01*
X14227878Y-5317524D02*
X14227878Y-5336571D01*
X14351688Y-5517524D02*
X14332640Y-5508000D01*
X14332640Y-5508000D02*
X14323117Y-5488952D01*
X14323117Y-5488952D02*
X14323117Y-5317524D01*
X14456450Y-5517524D02*
X14437402Y-5508000D01*
X14437402Y-5508000D02*
X14427878Y-5488952D01*
X14427878Y-5488952D02*
X14427878Y-5317524D01*
X14685021Y-5517524D02*
X14685021Y-5317524D01*
X14685021Y-5317524D02*
X14751688Y-5460381D01*
X14751688Y-5460381D02*
X14818355Y-5317524D01*
X14818355Y-5317524D02*
X14818355Y-5517524D01*
X14999307Y-5517524D02*
X14999307Y-5412762D01*
X14999307Y-5412762D02*
X14989783Y-5393714D01*
X14989783Y-5393714D02*
X14970736Y-5384190D01*
X14970736Y-5384190D02*
X14932640Y-5384190D01*
X14932640Y-5384190D02*
X14913593Y-5393714D01*
X14999307Y-5508000D02*
X14980259Y-5517524D01*
X14980259Y-5517524D02*
X14932640Y-5517524D01*
X14932640Y-5517524D02*
X14913593Y-5508000D01*
X14913593Y-5508000D02*
X14904069Y-5488952D01*
X14904069Y-5488952D02*
X14904069Y-5469905D01*
X14904069Y-5469905D02*
X14913593Y-5450857D01*
X14913593Y-5450857D02*
X14932640Y-5441333D01*
X14932640Y-5441333D02*
X14980259Y-5441333D01*
X14980259Y-5441333D02*
X14999307Y-5431810D01*
X15094545Y-5384190D02*
X15094545Y-5584190D01*
X15094545Y-5393714D02*
X15113593Y-5384190D01*
X15113593Y-5384190D02*
X15151688Y-5384190D01*
X15151688Y-5384190D02*
X15170736Y-5393714D01*
X15170736Y-5393714D02*
X15180259Y-5403238D01*
X15180259Y-5403238D02*
X15189783Y-5422286D01*
X15189783Y-5422286D02*
X15189783Y-5479429D01*
X15189783Y-5479429D02*
X15180259Y-5498476D01*
X15180259Y-5498476D02*
X15170736Y-5508000D01*
X15170736Y-5508000D02*
X15151688Y-5517524D01*
X15151688Y-5517524D02*
X15113593Y-5517524D01*
X15113593Y-5517524D02*
X15094545Y-5508000D01*
X15275498Y-5498476D02*
X15285021Y-5508000D01*
X15285021Y-5508000D02*
X15275498Y-5517524D01*
X15275498Y-5517524D02*
X15265974Y-5508000D01*
X15265974Y-5508000D02*
X15275498Y-5498476D01*
X15275498Y-5498476D02*
X15275498Y-5517524D01*
X15275498Y-5393714D02*
X15285021Y-5403238D01*
X15285021Y-5403238D02*
X15275498Y-5412762D01*
X15275498Y-5412762D02*
X15265974Y-5403238D01*
X15265974Y-5403238D02*
X15275498Y-5393714D01*
X15275498Y-5393714D02*
X15275498Y-5412762D01*
X13456450Y-5745000D02*
X13656450Y-5945000D01*
X13656450Y-5745000D02*
X13456450Y-5945000D01*
X13894545Y-5756571D02*
X13904069Y-5747048D01*
X13904069Y-5747048D02*
X13923117Y-5737524D01*
X13923117Y-5737524D02*
X13970736Y-5737524D01*
X13970736Y-5737524D02*
X13989783Y-5747048D01*
X13989783Y-5747048D02*
X13999307Y-5756571D01*
X13999307Y-5756571D02*
X14008831Y-5775619D01*
X14008831Y-5775619D02*
X14008831Y-5794667D01*
X14008831Y-5794667D02*
X13999307Y-5823238D01*
X13999307Y-5823238D02*
X13885021Y-5937524D01*
X13885021Y-5937524D02*
X14008831Y-5937524D01*
X14094545Y-5918476D02*
X14104069Y-5928000D01*
X14104069Y-5928000D02*
X14094545Y-5937524D01*
X14094545Y-5937524D02*
X14085021Y-5928000D01*
X14085021Y-5928000D02*
X14094545Y-5918476D01*
X14094545Y-5918476D02*
X14094545Y-5937524D01*
X14294545Y-5937524D02*
X14180259Y-5937524D01*
X14237402Y-5937524D02*
X14237402Y-5737524D01*
X14237402Y-5737524D02*
X14218355Y-5766095D01*
X14218355Y-5766095D02*
X14199307Y-5785143D01*
X14199307Y-5785143D02*
X14180259Y-5794667D01*
X14418355Y-5737524D02*
X14437402Y-5737524D01*
X14437402Y-5737524D02*
X14456450Y-5747048D01*
X14456450Y-5747048D02*
X14465974Y-5756571D01*
X14465974Y-5756571D02*
X14475498Y-5775619D01*
X14475498Y-5775619D02*
X14485021Y-5813714D01*
X14485021Y-5813714D02*
X14485021Y-5861333D01*
X14485021Y-5861333D02*
X14475498Y-5899428D01*
X14475498Y-5899428D02*
X14465974Y-5918476D01*
X14465974Y-5918476D02*
X14456450Y-5928000D01*
X14456450Y-5928000D02*
X14437402Y-5937524D01*
X14437402Y-5937524D02*
X14418355Y-5937524D01*
X14418355Y-5937524D02*
X14399307Y-5928000D01*
X14399307Y-5928000D02*
X14389783Y-5918476D01*
X14389783Y-5918476D02*
X14380259Y-5899428D01*
X14380259Y-5899428D02*
X14370736Y-5861333D01*
X14370736Y-5861333D02*
X14370736Y-5813714D01*
X14370736Y-5813714D02*
X14380259Y-5775619D01*
X14380259Y-5775619D02*
X14389783Y-5756571D01*
X14389783Y-5756571D02*
X14399307Y-5747048D01*
X14399307Y-5747048D02*
X14418355Y-5737524D01*
X14608831Y-5737524D02*
X14627879Y-5737524D01*
X14627879Y-5737524D02*
X14646926Y-5747048D01*
X14646926Y-5747048D02*
X14656450Y-5756571D01*
X14656450Y-5756571D02*
X14665974Y-5775619D01*
X14665974Y-5775619D02*
X14675498Y-5813714D01*
X14675498Y-5813714D02*
X14675498Y-5861333D01*
X14675498Y-5861333D02*
X14665974Y-5899428D01*
X14665974Y-5899428D02*
X14656450Y-5918476D01*
X14656450Y-5918476D02*
X14646926Y-5928000D01*
X14646926Y-5928000D02*
X14627879Y-5937524D01*
X14627879Y-5937524D02*
X14608831Y-5937524D01*
X14608831Y-5937524D02*
X14589783Y-5928000D01*
X14589783Y-5928000D02*
X14580259Y-5918476D01*
X14580259Y-5918476D02*
X14570736Y-5899428D01*
X14570736Y-5899428D02*
X14561212Y-5861333D01*
X14561212Y-5861333D02*
X14561212Y-5813714D01*
X14561212Y-5813714D02*
X14570736Y-5775619D01*
X14570736Y-5775619D02*
X14580259Y-5756571D01*
X14580259Y-5756571D02*
X14589783Y-5747048D01*
X14589783Y-5747048D02*
X14608831Y-5737524D01*
X14761212Y-5937524D02*
X14761212Y-5804190D01*
X14761212Y-5823238D02*
X14770736Y-5813714D01*
X14770736Y-5813714D02*
X14789783Y-5804190D01*
X14789783Y-5804190D02*
X14818355Y-5804190D01*
X14818355Y-5804190D02*
X14837402Y-5813714D01*
X14837402Y-5813714D02*
X14846926Y-5832762D01*
X14846926Y-5832762D02*
X14846926Y-5937524D01*
X14846926Y-5832762D02*
X14856450Y-5813714D01*
X14856450Y-5813714D02*
X14875498Y-5804190D01*
X14875498Y-5804190D02*
X14904069Y-5804190D01*
X14904069Y-5804190D02*
X14923117Y-5813714D01*
X14923117Y-5813714D02*
X14932640Y-5832762D01*
X14932640Y-5832762D02*
X14932640Y-5937524D01*
X15027879Y-5937524D02*
X15027879Y-5804190D01*
X15027879Y-5823238D02*
X15037402Y-5813714D01*
X15037402Y-5813714D02*
X15056450Y-5804190D01*
X15056450Y-5804190D02*
X15085021Y-5804190D01*
X15085021Y-5804190D02*
X15104069Y-5813714D01*
X15104069Y-5813714D02*
X15113593Y-5832762D01*
X15113593Y-5832762D02*
X15113593Y-5937524D01*
X15113593Y-5832762D02*
X15123117Y-5813714D01*
X15123117Y-5813714D02*
X15142164Y-5804190D01*
X15142164Y-5804190D02*
X15170736Y-5804190D01*
X15170736Y-5804190D02*
X15189783Y-5813714D01*
X15189783Y-5813714D02*
X15199307Y-5832762D01*
X15199307Y-5832762D02*
X15199307Y-5937524D01*
X15589783Y-5728000D02*
X15418355Y-5985143D01*
X15846926Y-5737524D02*
X15865974Y-5737524D01*
X15865974Y-5737524D02*
X15885022Y-5747048D01*
X15885022Y-5747048D02*
X15894545Y-5756571D01*
X15894545Y-5756571D02*
X15904069Y-5775619D01*
X15904069Y-5775619D02*
X15913593Y-5813714D01*
X15913593Y-5813714D02*
X15913593Y-5861333D01*
X15913593Y-5861333D02*
X15904069Y-5899428D01*
X15904069Y-5899428D02*
X15894545Y-5918476D01*
X15894545Y-5918476D02*
X15885022Y-5928000D01*
X15885022Y-5928000D02*
X15865974Y-5937524D01*
X15865974Y-5937524D02*
X15846926Y-5937524D01*
X15846926Y-5937524D02*
X15827879Y-5928000D01*
X15827879Y-5928000D02*
X15818355Y-5918476D01*
X15818355Y-5918476D02*
X15808831Y-5899428D01*
X15808831Y-5899428D02*
X15799307Y-5861333D01*
X15799307Y-5861333D02*
X15799307Y-5813714D01*
X15799307Y-5813714D02*
X15808831Y-5775619D01*
X15808831Y-5775619D02*
X15818355Y-5756571D01*
X15818355Y-5756571D02*
X15827879Y-5747048D01*
X15827879Y-5747048D02*
X15846926Y-5737524D01*
X15999307Y-5918476D02*
X16008831Y-5928000D01*
X16008831Y-5928000D02*
X15999307Y-5937524D01*
X15999307Y-5937524D02*
X15989783Y-5928000D01*
X15989783Y-5928000D02*
X15999307Y-5918476D01*
X15999307Y-5918476D02*
X15999307Y-5937524D01*
X16132641Y-5737524D02*
X16151688Y-5737524D01*
X16151688Y-5737524D02*
X16170736Y-5747048D01*
X16170736Y-5747048D02*
X16180260Y-5756571D01*
X16180260Y-5756571D02*
X16189783Y-5775619D01*
X16189783Y-5775619D02*
X16199307Y-5813714D01*
X16199307Y-5813714D02*
X16199307Y-5861333D01*
X16199307Y-5861333D02*
X16189783Y-5899428D01*
X16189783Y-5899428D02*
X16180260Y-5918476D01*
X16180260Y-5918476D02*
X16170736Y-5928000D01*
X16170736Y-5928000D02*
X16151688Y-5937524D01*
X16151688Y-5937524D02*
X16132641Y-5937524D01*
X16132641Y-5937524D02*
X16113593Y-5928000D01*
X16113593Y-5928000D02*
X16104069Y-5918476D01*
X16104069Y-5918476D02*
X16094545Y-5899428D01*
X16094545Y-5899428D02*
X16085022Y-5861333D01*
X16085022Y-5861333D02*
X16085022Y-5813714D01*
X16085022Y-5813714D02*
X16094545Y-5775619D01*
X16094545Y-5775619D02*
X16104069Y-5756571D01*
X16104069Y-5756571D02*
X16113593Y-5747048D01*
X16113593Y-5747048D02*
X16132641Y-5737524D01*
X16313593Y-5823238D02*
X16294545Y-5813714D01*
X16294545Y-5813714D02*
X16285022Y-5804190D01*
X16285022Y-5804190D02*
X16275498Y-5785143D01*
X16275498Y-5785143D02*
X16275498Y-5775619D01*
X16275498Y-5775619D02*
X16285022Y-5756571D01*
X16285022Y-5756571D02*
X16294545Y-5747048D01*
X16294545Y-5747048D02*
X16313593Y-5737524D01*
X16313593Y-5737524D02*
X16351688Y-5737524D01*
X16351688Y-5737524D02*
X16370736Y-5747048D01*
X16370736Y-5747048D02*
X16380260Y-5756571D01*
X16380260Y-5756571D02*
X16389783Y-5775619D01*
X16389783Y-5775619D02*
X16389783Y-5785143D01*
X16389783Y-5785143D02*
X16380260Y-5804190D01*
X16380260Y-5804190D02*
X16370736Y-5813714D01*
X16370736Y-5813714D02*
X16351688Y-5823238D01*
X16351688Y-5823238D02*
X16313593Y-5823238D01*
X16313593Y-5823238D02*
X16294545Y-5832762D01*
X16294545Y-5832762D02*
X16285022Y-5842286D01*
X16285022Y-5842286D02*
X16275498Y-5861333D01*
X16275498Y-5861333D02*
X16275498Y-5899428D01*
X16275498Y-5899428D02*
X16285022Y-5918476D01*
X16285022Y-5918476D02*
X16294545Y-5928000D01*
X16294545Y-5928000D02*
X16313593Y-5937524D01*
X16313593Y-5937524D02*
X16351688Y-5937524D01*
X16351688Y-5937524D02*
X16370736Y-5928000D01*
X16370736Y-5928000D02*
X16380260Y-5918476D01*
X16380260Y-5918476D02*
X16389783Y-5899428D01*
X16389783Y-5899428D02*
X16389783Y-5861333D01*
X16389783Y-5861333D02*
X16380260Y-5842286D01*
X16380260Y-5842286D02*
X16370736Y-5832762D01*
X16370736Y-5832762D02*
X16351688Y-5823238D01*
X16465974Y-5756571D02*
X16475498Y-5747048D01*
X16475498Y-5747048D02*
X16494545Y-5737524D01*
X16494545Y-5737524D02*
X16542164Y-5737524D01*
X16542164Y-5737524D02*
X16561212Y-5747048D01*
X16561212Y-5747048D02*
X16570736Y-5756571D01*
X16570736Y-5756571D02*
X16580260Y-5775619D01*
X16580260Y-5775619D02*
X16580260Y-5794667D01*
X16580260Y-5794667D02*
X16570736Y-5823238D01*
X16570736Y-5823238D02*
X16456450Y-5937524D01*
X16456450Y-5937524D02*
X16580260Y-5937524D01*
X16646926Y-5737524D02*
X16780260Y-5737524D01*
X16780260Y-5737524D02*
X16694545Y-5937524D01*
X16846926Y-5737524D02*
X16846926Y-5775619D01*
X16923117Y-5737524D02*
X16923117Y-5775619D01*
X17218355Y-6013714D02*
X17208831Y-6004190D01*
X17208831Y-6004190D02*
X17189784Y-5975619D01*
X17189784Y-5975619D02*
X17180260Y-5956571D01*
X17180260Y-5956571D02*
X17170736Y-5928000D01*
X17170736Y-5928000D02*
X17161212Y-5880381D01*
X17161212Y-5880381D02*
X17161212Y-5842286D01*
X17161212Y-5842286D02*
X17170736Y-5794667D01*
X17170736Y-5794667D02*
X17180260Y-5766095D01*
X17180260Y-5766095D02*
X17189784Y-5747048D01*
X17189784Y-5747048D02*
X17208831Y-5718476D01*
X17208831Y-5718476D02*
X17218355Y-5708952D01*
X17399307Y-5937524D02*
X17285022Y-5937524D01*
X17342165Y-5937524D02*
X17342165Y-5737524D01*
X17342165Y-5737524D02*
X17323117Y-5766095D01*
X17323117Y-5766095D02*
X17304069Y-5785143D01*
X17304069Y-5785143D02*
X17285022Y-5794667D01*
X17523117Y-5737524D02*
X17542165Y-5737524D01*
X17542165Y-5737524D02*
X17561212Y-5747048D01*
X17561212Y-5747048D02*
X17570736Y-5756571D01*
X17570736Y-5756571D02*
X17580260Y-5775619D01*
X17580260Y-5775619D02*
X17589784Y-5813714D01*
X17589784Y-5813714D02*
X17589784Y-5861333D01*
X17589784Y-5861333D02*
X17580260Y-5899428D01*
X17580260Y-5899428D02*
X17570736Y-5918476D01*
X17570736Y-5918476D02*
X17561212Y-5928000D01*
X17561212Y-5928000D02*
X17542165Y-5937524D01*
X17542165Y-5937524D02*
X17523117Y-5937524D01*
X17523117Y-5937524D02*
X17504069Y-5928000D01*
X17504069Y-5928000D02*
X17494546Y-5918476D01*
X17494546Y-5918476D02*
X17485022Y-5899428D01*
X17485022Y-5899428D02*
X17475498Y-5861333D01*
X17475498Y-5861333D02*
X17475498Y-5813714D01*
X17475498Y-5813714D02*
X17485022Y-5775619D01*
X17485022Y-5775619D02*
X17494546Y-5756571D01*
X17494546Y-5756571D02*
X17504069Y-5747048D01*
X17504069Y-5747048D02*
X17523117Y-5737524D01*
X17827879Y-5937524D02*
X17827879Y-5737524D01*
X17913593Y-5937524D02*
X17913593Y-5832762D01*
X17913593Y-5832762D02*
X17904069Y-5813714D01*
X17904069Y-5813714D02*
X17885022Y-5804190D01*
X17885022Y-5804190D02*
X17856450Y-5804190D01*
X17856450Y-5804190D02*
X17837403Y-5813714D01*
X17837403Y-5813714D02*
X17827879Y-5823238D01*
X18037403Y-5937524D02*
X18018355Y-5928000D01*
X18018355Y-5928000D02*
X18008831Y-5918476D01*
X18008831Y-5918476D02*
X17999308Y-5899428D01*
X17999308Y-5899428D02*
X17999308Y-5842286D01*
X17999308Y-5842286D02*
X18008831Y-5823238D01*
X18008831Y-5823238D02*
X18018355Y-5813714D01*
X18018355Y-5813714D02*
X18037403Y-5804190D01*
X18037403Y-5804190D02*
X18065974Y-5804190D01*
X18065974Y-5804190D02*
X18085022Y-5813714D01*
X18085022Y-5813714D02*
X18094546Y-5823238D01*
X18094546Y-5823238D02*
X18104069Y-5842286D01*
X18104069Y-5842286D02*
X18104069Y-5899428D01*
X18104069Y-5899428D02*
X18094546Y-5918476D01*
X18094546Y-5918476D02*
X18085022Y-5928000D01*
X18085022Y-5928000D02*
X18065974Y-5937524D01*
X18065974Y-5937524D02*
X18037403Y-5937524D01*
X18218355Y-5937524D02*
X18199308Y-5928000D01*
X18199308Y-5928000D02*
X18189784Y-5908952D01*
X18189784Y-5908952D02*
X18189784Y-5737524D01*
X18370736Y-5928000D02*
X18351689Y-5937524D01*
X18351689Y-5937524D02*
X18313593Y-5937524D01*
X18313593Y-5937524D02*
X18294546Y-5928000D01*
X18294546Y-5928000D02*
X18285022Y-5908952D01*
X18285022Y-5908952D02*
X18285022Y-5832762D01*
X18285022Y-5832762D02*
X18294546Y-5813714D01*
X18294546Y-5813714D02*
X18313593Y-5804190D01*
X18313593Y-5804190D02*
X18351689Y-5804190D01*
X18351689Y-5804190D02*
X18370736Y-5813714D01*
X18370736Y-5813714D02*
X18380260Y-5832762D01*
X18380260Y-5832762D02*
X18380260Y-5851809D01*
X18380260Y-5851809D02*
X18285022Y-5870857D01*
X18456450Y-5928000D02*
X18475498Y-5937524D01*
X18475498Y-5937524D02*
X18513593Y-5937524D01*
X18513593Y-5937524D02*
X18532641Y-5928000D01*
X18532641Y-5928000D02*
X18542165Y-5908952D01*
X18542165Y-5908952D02*
X18542165Y-5899428D01*
X18542165Y-5899428D02*
X18532641Y-5880381D01*
X18532641Y-5880381D02*
X18513593Y-5870857D01*
X18513593Y-5870857D02*
X18485022Y-5870857D01*
X18485022Y-5870857D02*
X18465974Y-5861333D01*
X18465974Y-5861333D02*
X18456450Y-5842286D01*
X18456450Y-5842286D02*
X18456450Y-5832762D01*
X18456450Y-5832762D02*
X18465974Y-5813714D01*
X18465974Y-5813714D02*
X18485022Y-5804190D01*
X18485022Y-5804190D02*
X18513593Y-5804190D01*
X18513593Y-5804190D02*
X18532641Y-5813714D01*
X18608831Y-6013714D02*
X18618355Y-6004190D01*
X18618355Y-6004190D02*
X18637403Y-5975619D01*
X18637403Y-5975619D02*
X18646927Y-5956571D01*
X18646927Y-5956571D02*
X18656450Y-5928000D01*
X18656450Y-5928000D02*
X18665974Y-5880381D01*
X18665974Y-5880381D02*
X18665974Y-5842286D01*
X18665974Y-5842286D02*
X18656450Y-5794667D01*
X18656450Y-5794667D02*
X18646927Y-5766095D01*
X18646927Y-5766095D02*
X18637403Y-5747048D01*
X18637403Y-5747048D02*
X18618355Y-5718476D01*
X18618355Y-5718476D02*
X18608831Y-5708952D01*
X18970736Y-6013714D02*
X18961212Y-6004190D01*
X18961212Y-6004190D02*
X18942165Y-5975619D01*
X18942165Y-5975619D02*
X18932641Y-5956571D01*
X18932641Y-5956571D02*
X18923117Y-5928000D01*
X18923117Y-5928000D02*
X18913593Y-5880381D01*
X18913593Y-5880381D02*
X18913593Y-5842286D01*
X18913593Y-5842286D02*
X18923117Y-5794667D01*
X18923117Y-5794667D02*
X18932641Y-5766095D01*
X18932641Y-5766095D02*
X18942165Y-5747048D01*
X18942165Y-5747048D02*
X18961212Y-5718476D01*
X18961212Y-5718476D02*
X18970736Y-5708952D01*
X19046927Y-5804190D02*
X19046927Y-5937524D01*
X19046927Y-5823238D02*
X19056450Y-5813714D01*
X19056450Y-5813714D02*
X19075498Y-5804190D01*
X19075498Y-5804190D02*
X19104070Y-5804190D01*
X19104070Y-5804190D02*
X19123117Y-5813714D01*
X19123117Y-5813714D02*
X19132641Y-5832762D01*
X19132641Y-5832762D02*
X19132641Y-5937524D01*
X19256450Y-5937524D02*
X19237403Y-5928000D01*
X19237403Y-5928000D02*
X19227879Y-5918476D01*
X19227879Y-5918476D02*
X19218355Y-5899428D01*
X19218355Y-5899428D02*
X19218355Y-5842286D01*
X19218355Y-5842286D02*
X19227879Y-5823238D01*
X19227879Y-5823238D02*
X19237403Y-5813714D01*
X19237403Y-5813714D02*
X19256450Y-5804190D01*
X19256450Y-5804190D02*
X19285022Y-5804190D01*
X19285022Y-5804190D02*
X19304070Y-5813714D01*
X19304070Y-5813714D02*
X19313593Y-5823238D01*
X19313593Y-5823238D02*
X19323117Y-5842286D01*
X19323117Y-5842286D02*
X19323117Y-5899428D01*
X19323117Y-5899428D02*
X19313593Y-5918476D01*
X19313593Y-5918476D02*
X19304070Y-5928000D01*
X19304070Y-5928000D02*
X19285022Y-5937524D01*
X19285022Y-5937524D02*
X19256450Y-5937524D01*
X19380260Y-5804190D02*
X19456450Y-5804190D01*
X19408831Y-5737524D02*
X19408831Y-5908952D01*
X19408831Y-5908952D02*
X19418355Y-5928000D01*
X19418355Y-5928000D02*
X19437403Y-5937524D01*
X19437403Y-5937524D02*
X19456450Y-5937524D01*
X19675498Y-5804190D02*
X19675498Y-6004190D01*
X19675498Y-5813714D02*
X19694546Y-5804190D01*
X19694546Y-5804190D02*
X19732641Y-5804190D01*
X19732641Y-5804190D02*
X19751689Y-5813714D01*
X19751689Y-5813714D02*
X19761212Y-5823238D01*
X19761212Y-5823238D02*
X19770736Y-5842286D01*
X19770736Y-5842286D02*
X19770736Y-5899428D01*
X19770736Y-5899428D02*
X19761212Y-5918476D01*
X19761212Y-5918476D02*
X19751689Y-5928000D01*
X19751689Y-5928000D02*
X19732641Y-5937524D01*
X19732641Y-5937524D02*
X19694546Y-5937524D01*
X19694546Y-5937524D02*
X19675498Y-5928000D01*
X19885022Y-5937524D02*
X19865974Y-5928000D01*
X19865974Y-5928000D02*
X19856451Y-5908952D01*
X19856451Y-5908952D02*
X19856451Y-5737524D01*
X20046927Y-5937524D02*
X20046927Y-5832762D01*
X20046927Y-5832762D02*
X20037403Y-5813714D01*
X20037403Y-5813714D02*
X20018355Y-5804190D01*
X20018355Y-5804190D02*
X19980260Y-5804190D01*
X19980260Y-5804190D02*
X19961212Y-5813714D01*
X20046927Y-5928000D02*
X20027879Y-5937524D01*
X20027879Y-5937524D02*
X19980260Y-5937524D01*
X19980260Y-5937524D02*
X19961212Y-5928000D01*
X19961212Y-5928000D02*
X19951689Y-5908952D01*
X19951689Y-5908952D02*
X19951689Y-5889905D01*
X19951689Y-5889905D02*
X19961212Y-5870857D01*
X19961212Y-5870857D02*
X19980260Y-5861333D01*
X19980260Y-5861333D02*
X20027879Y-5861333D01*
X20027879Y-5861333D02*
X20046927Y-5851809D01*
X20113593Y-5804190D02*
X20189784Y-5804190D01*
X20142165Y-5737524D02*
X20142165Y-5908952D01*
X20142165Y-5908952D02*
X20151689Y-5928000D01*
X20151689Y-5928000D02*
X20170736Y-5937524D01*
X20170736Y-5937524D02*
X20189784Y-5937524D01*
X20332641Y-5928000D02*
X20313593Y-5937524D01*
X20313593Y-5937524D02*
X20275498Y-5937524D01*
X20275498Y-5937524D02*
X20256451Y-5928000D01*
X20256451Y-5928000D02*
X20246927Y-5908952D01*
X20246927Y-5908952D02*
X20246927Y-5832762D01*
X20246927Y-5832762D02*
X20256451Y-5813714D01*
X20256451Y-5813714D02*
X20275498Y-5804190D01*
X20275498Y-5804190D02*
X20313593Y-5804190D01*
X20313593Y-5804190D02*
X20332641Y-5813714D01*
X20332641Y-5813714D02*
X20342165Y-5832762D01*
X20342165Y-5832762D02*
X20342165Y-5851809D01*
X20342165Y-5851809D02*
X20246927Y-5870857D01*
X20513593Y-5937524D02*
X20513593Y-5737524D01*
X20513593Y-5928000D02*
X20494546Y-5937524D01*
X20494546Y-5937524D02*
X20456451Y-5937524D01*
X20456451Y-5937524D02*
X20437403Y-5928000D01*
X20437403Y-5928000D02*
X20427879Y-5918476D01*
X20427879Y-5918476D02*
X20418355Y-5899428D01*
X20418355Y-5899428D02*
X20418355Y-5842286D01*
X20418355Y-5842286D02*
X20427879Y-5823238D01*
X20427879Y-5823238D02*
X20437403Y-5813714D01*
X20437403Y-5813714D02*
X20456451Y-5804190D01*
X20456451Y-5804190D02*
X20494546Y-5804190D01*
X20494546Y-5804190D02*
X20513593Y-5813714D01*
X20589784Y-6013714D02*
X20599308Y-6004190D01*
X20599308Y-6004190D02*
X20618355Y-5975619D01*
X20618355Y-5975619D02*
X20627879Y-5956571D01*
X20627879Y-5956571D02*
X20637403Y-5928000D01*
X20637403Y-5928000D02*
X20646927Y-5880381D01*
X20646927Y-5880381D02*
X20646927Y-5842286D01*
X20646927Y-5842286D02*
X20637403Y-5794667D01*
X20637403Y-5794667D02*
X20627879Y-5766095D01*
X20627879Y-5766095D02*
X20618355Y-5747048D01*
X20618355Y-5747048D02*
X20599308Y-5718476D01*
X20599308Y-5718476D02*
X20589784Y-5708952D01*
M02*
