G04 #@! TF.GenerationSoftware,KiCad,Pcbnew,7.0.1*
G04 #@! TF.CreationDate,2023-10-11T18:59:39-05:00*
G04 #@! TF.ProjectId,Touch_Board,546f7563-685f-4426-9f61-72642e6b6963,1*
G04 #@! TF.SameCoordinates,Original*
G04 #@! TF.FileFunction,Copper,L6,Bot*
G04 #@! TF.FilePolarity,Positive*
%FSLAX46Y46*%
G04 Gerber Fmt 4.6, Leading zero omitted, Abs format (unit mm)*
G04 Created by KiCad (PCBNEW 7.0.1) date 2023-10-11 18:59:39*
%MOMM*%
%LPD*%
G01*
G04 APERTURE LIST*
G04 #@! TA.AperFunction,ComponentPad*
%ADD10C,2.250000*%
G04 #@! TD*
G04 #@! TA.AperFunction,SMDPad,CuDef*
%ADD11R,0.500000X0.500000*%
G04 #@! TD*
G04 #@! TA.AperFunction,Conductor*
%ADD12C,0.130000*%
G04 #@! TD*
G04 #@! TA.AperFunction,Conductor*
%ADD13C,1.500000*%
G04 #@! TD*
G04 APERTURE END LIST*
D10*
X142822300Y-31724600D03*
X142822300Y-22724600D03*
X145922300Y-21924600D03*
X142822300Y-28724600D03*
X142822300Y-25724600D03*
X139822300Y-27724600D03*
X274989500Y-48414000D03*
X139822300Y-21724600D03*
X199989500Y-50014000D03*
X139789700Y-30724600D03*
X275089500Y-30114000D03*
X139822300Y-24724600D03*
X142822300Y-34724600D03*
X139822300Y-33724600D03*
D11*
X268494500Y-34234000D03*
X268494500Y-35134000D03*
X155004500Y-42954000D03*
X155004500Y-42054000D03*
X171904500Y-42944000D03*
X171904500Y-42044000D03*
X190914500Y-42944000D03*
X190914500Y-42044000D03*
X212554500Y-42934000D03*
X212554500Y-42034000D03*
X190914500Y-28704000D03*
X190914500Y-29604000D03*
X236754500Y-42924000D03*
X236754500Y-42024000D03*
X212564500Y-28694000D03*
X212564500Y-29594000D03*
X155004500Y-28724000D03*
X155004500Y-29624000D03*
X171904500Y-28704000D03*
X171904500Y-29604000D03*
X236744500Y-28684000D03*
X236744500Y-29584000D03*
D12*
X171904500Y-29604000D02*
X190914500Y-29604000D01*
X212554500Y-42034000D02*
X236744500Y-42034000D01*
X137314500Y-25234000D02*
X137314500Y-39924000D01*
X137974500Y-27424000D02*
X137974500Y-37594000D01*
X203024500Y-42934000D02*
X212554500Y-42934000D01*
X165207300Y-49921200D02*
X171904500Y-43224000D01*
X194884500Y-51074000D02*
X203024500Y-42934000D01*
X142822300Y-34724600D02*
X142822300Y-34861800D01*
X142822300Y-22724600D02*
X143412300Y-23314600D01*
X236744500Y-28684000D02*
X237280100Y-29219600D01*
X147513900Y-24114600D02*
X150014500Y-21614000D01*
X139513900Y-21724600D02*
X136979500Y-24259000D01*
X149490500Y-50480000D02*
X186488500Y-50480000D01*
X236734500Y-29594000D02*
X236744500Y-29584000D01*
X183824500Y-21614000D02*
X190914500Y-28704000D01*
X212564500Y-29594000D02*
X236734500Y-29594000D01*
X186488500Y-50480000D02*
X190914500Y-46054000D01*
X137974500Y-37594000D02*
X150301700Y-49921200D01*
X205084500Y-21214000D02*
X212564500Y-28694000D01*
X144922900Y-29624000D02*
X155004500Y-29624000D01*
X139822300Y-24724600D02*
X140882300Y-23664600D01*
X147084500Y-42054000D02*
X155004500Y-42054000D01*
X139822300Y-27724600D02*
X140212300Y-27334600D01*
X212554500Y-29604000D02*
X212564500Y-29594000D01*
X141796543Y-23664600D02*
X142246543Y-24114600D01*
X139822300Y-27724600D02*
X138399700Y-29147200D01*
X142822300Y-34861800D02*
X143094500Y-35134000D01*
X137644500Y-38634000D02*
X149490500Y-50480000D01*
X212544500Y-42044000D02*
X212554500Y-42034000D01*
X140882300Y-23664600D02*
X141796543Y-23664600D01*
X139822300Y-24724600D02*
X137644500Y-26902400D01*
X141012300Y-20534600D02*
X228595100Y-20534600D01*
X142212300Y-23334600D02*
X139213900Y-23334600D01*
X139822300Y-34791800D02*
X147084500Y-42054000D01*
D13*
X268494500Y-35134000D02*
X268494500Y-34234000D01*
D12*
X142432300Y-26114600D02*
X139283900Y-26114600D01*
X139822300Y-21724600D02*
X139513900Y-21724600D01*
X171894500Y-42054000D02*
X171904500Y-42044000D01*
X171904500Y-43224000D02*
X171904500Y-42944000D01*
X150319700Y-22362200D02*
X165562700Y-22362200D01*
X142932900Y-25614000D02*
X147067900Y-25614000D01*
X142246543Y-24114600D02*
X147513900Y-24114600D01*
X139213900Y-23334600D02*
X137314500Y-25234000D01*
X146014500Y-42954000D02*
X155004500Y-42954000D01*
X139822300Y-33724600D02*
X139822300Y-34791800D01*
X228043500Y-51635000D02*
X236754500Y-42924000D01*
X142822300Y-22724600D02*
X142212300Y-23334600D01*
X136979500Y-41279000D02*
X147335500Y-51635000D01*
X142822300Y-31724600D02*
X144922900Y-29624000D01*
X147067900Y-25614000D02*
X150319700Y-22362200D01*
X263480100Y-29219600D02*
X268494500Y-34234000D01*
X139283900Y-26114600D02*
X137974500Y-27424000D01*
X171904500Y-42044000D02*
X190914500Y-42044000D01*
X237280100Y-29219600D02*
X263480100Y-29219600D01*
X190914500Y-29604000D02*
X212554500Y-29604000D01*
X155004500Y-42054000D02*
X171894500Y-42054000D01*
X138399700Y-29147200D02*
X138399700Y-35339200D01*
X142822300Y-25724600D02*
X142432300Y-26114600D01*
X136979500Y-24259000D02*
X136979500Y-41279000D01*
X137314500Y-39924000D02*
X148464500Y-51074000D01*
X148464500Y-51074000D02*
X194884500Y-51074000D01*
X143094500Y-35134000D02*
X268494500Y-35134000D01*
X137644500Y-26902400D02*
X137644500Y-38634000D01*
X139822300Y-21724600D02*
X141012300Y-20534600D01*
X143412300Y-23314600D02*
X147283900Y-23314600D01*
X236744500Y-42034000D02*
X236754500Y-42024000D01*
X147283900Y-23314600D02*
X149384500Y-21214000D01*
X150301700Y-49921200D02*
X165207300Y-49921200D01*
X142822300Y-25724600D02*
X142932900Y-25614000D01*
X140212300Y-27334600D02*
X153615100Y-27334600D01*
X171884500Y-29624000D02*
X171904500Y-29604000D01*
X190914500Y-42044000D02*
X212544500Y-42044000D01*
X150014500Y-21614000D02*
X183824500Y-21614000D01*
X190914500Y-46054000D02*
X190914500Y-42944000D01*
X138399700Y-35339200D02*
X146014500Y-42954000D01*
X228595100Y-20534600D02*
X236744500Y-28684000D01*
X147335500Y-51635000D02*
X228043500Y-51635000D01*
X149384500Y-21214000D02*
X205084500Y-21214000D01*
X165562700Y-22362200D02*
X171904500Y-28704000D01*
X153615100Y-27334600D02*
X155004500Y-28724000D01*
X155004500Y-29624000D02*
X171884500Y-29624000D01*
G04 #@! TA.AperFunction,Conductor*
G36*
X282690148Y-20314852D02*
G01*
X282704500Y-20349500D01*
X282704500Y-51320000D01*
X282690148Y-51354648D01*
X282655500Y-51369000D01*
X250368500Y-51369000D01*
X250333852Y-51354648D01*
X250319500Y-51320000D01*
X250319500Y-48413999D01*
X273658937Y-48413999D01*
X273679151Y-48645054D01*
X273739179Y-48869078D01*
X273837199Y-49079284D01*
X273970228Y-49269268D01*
X274134231Y-49433271D01*
X274324215Y-49566300D01*
X274534421Y-49664320D01*
X274758445Y-49724348D01*
X274758446Y-49724348D01*
X274758450Y-49724349D01*
X274989500Y-49744563D01*
X275220550Y-49724349D01*
X275444579Y-49664320D01*
X275654782Y-49566301D01*
X275654782Y-49566300D01*
X275654784Y-49566300D01*
X275844768Y-49433271D01*
X276008771Y-49269268D01*
X276141800Y-49079284D01*
X276239820Y-48869078D01*
X276299848Y-48645054D01*
X276299848Y-48645053D01*
X276299849Y-48645050D01*
X276320063Y-48414000D01*
X276299849Y-48182950D01*
X276239820Y-47958921D01*
X276141801Y-47748719D01*
X276008770Y-47558731D01*
X276008768Y-47558728D01*
X275844768Y-47394728D01*
X275654784Y-47261699D01*
X275444578Y-47163679D01*
X275220554Y-47103651D01*
X274989500Y-47083437D01*
X274758445Y-47103651D01*
X274534422Y-47163679D01*
X274324221Y-47261697D01*
X274134228Y-47394731D01*
X273970231Y-47558728D01*
X273837197Y-47748721D01*
X273739179Y-47958922D01*
X273679151Y-48182945D01*
X273658937Y-48413999D01*
X250319500Y-48413999D01*
X250319500Y-35403696D01*
X268044500Y-35403696D01*
X268056104Y-35462037D01*
X268100308Y-35528191D01*
X268166462Y-35572395D01*
X268224804Y-35584000D01*
X268764196Y-35584000D01*
X268822537Y-35572395D01*
X268888691Y-35528191D01*
X268932895Y-35462037D01*
X268944500Y-35403696D01*
X268944500Y-34864304D01*
X268932895Y-34805962D01*
X268888691Y-34739808D01*
X268866144Y-34724742D01*
X268846967Y-34699751D01*
X268846967Y-34668249D01*
X268866144Y-34643258D01*
X268888691Y-34628191D01*
X268932895Y-34562037D01*
X268944500Y-34503696D01*
X268944500Y-33964304D01*
X268932895Y-33905962D01*
X268888691Y-33839808D01*
X268822537Y-33795604D01*
X268764196Y-33784000D01*
X268224804Y-33784000D01*
X268166462Y-33795604D01*
X268100308Y-33839808D01*
X268056104Y-33905962D01*
X268044500Y-33964304D01*
X268044500Y-34503696D01*
X268056104Y-34562037D01*
X268100307Y-34628191D01*
X268122856Y-34643258D01*
X268142032Y-34668250D01*
X268142032Y-34699750D01*
X268122856Y-34724742D01*
X268100307Y-34739808D01*
X268056104Y-34805962D01*
X268044500Y-34864304D01*
X268044500Y-35403696D01*
X250319500Y-35403696D01*
X250319500Y-30114000D01*
X273758937Y-30114000D01*
X273779151Y-30345054D01*
X273839179Y-30569078D01*
X273937199Y-30779284D01*
X274070228Y-30969268D01*
X274234231Y-31133271D01*
X274424215Y-31266300D01*
X274634421Y-31364320D01*
X274858445Y-31424348D01*
X274858446Y-31424348D01*
X274858450Y-31424349D01*
X275089500Y-31444563D01*
X275320550Y-31424349D01*
X275544579Y-31364320D01*
X275754782Y-31266301D01*
X275754782Y-31266300D01*
X275754784Y-31266300D01*
X275944768Y-31133271D01*
X276108771Y-30969268D01*
X276241800Y-30779284D01*
X276339820Y-30569078D01*
X276399848Y-30345054D01*
X276399848Y-30345053D01*
X276399849Y-30345050D01*
X276420063Y-30114000D01*
X276399849Y-29882950D01*
X276339820Y-29658921D01*
X276241801Y-29448719D01*
X276108770Y-29258731D01*
X276108768Y-29258728D01*
X275944768Y-29094728D01*
X275754784Y-28961699D01*
X275544578Y-28863679D01*
X275320554Y-28803651D01*
X275089500Y-28783437D01*
X274858445Y-28803651D01*
X274634422Y-28863679D01*
X274424221Y-28961697D01*
X274234228Y-29094731D01*
X274070231Y-29258728D01*
X273937197Y-29448721D01*
X273839179Y-29658922D01*
X273779151Y-29882945D01*
X273758937Y-30114000D01*
X250319500Y-30114000D01*
X250319500Y-20349500D01*
X250333852Y-20314852D01*
X250368500Y-20300500D01*
X282655500Y-20300500D01*
X282690148Y-20314852D01*
G37*
G04 #@! TD.AperFunction*
G04 #@! TA.AperFunction,Conductor*
G36*
X178550148Y-21918352D02*
G01*
X178564500Y-21953000D01*
X178564500Y-27533331D01*
X178559909Y-27554039D01*
X178488987Y-27706130D01*
X178429911Y-27926606D01*
X178410017Y-28153999D01*
X178429911Y-28381393D01*
X178488987Y-28601869D01*
X178559909Y-28753960D01*
X178564500Y-28774668D01*
X178564500Y-34175000D01*
X178550148Y-34209648D01*
X178515500Y-34224000D01*
X163383460Y-34224000D01*
X163348826Y-34209662D01*
X163334460Y-34175040D01*
X163330547Y-29354000D01*
X171654500Y-29354000D01*
X171654500Y-29854000D01*
X172154500Y-29854000D01*
X172154500Y-29354000D01*
X171654500Y-29354000D01*
X163330547Y-29354000D01*
X163329817Y-28454000D01*
X171654500Y-28454000D01*
X171654500Y-28954000D01*
X172154500Y-28954000D01*
X172154500Y-28454000D01*
X171654500Y-28454000D01*
X163329817Y-28454000D01*
X163324540Y-21953040D01*
X163331092Y-21928523D01*
X163349029Y-21910571D01*
X163373540Y-21904000D01*
X178515500Y-21904000D01*
X178550148Y-21918352D01*
G37*
G04 #@! TD.AperFunction*
G04 #@! TA.AperFunction,Conductor*
G36*
X221730148Y-36143352D02*
G01*
X221744500Y-36178000D01*
X221744500Y-43143752D01*
X221742830Y-43156434D01*
X221699911Y-43316606D01*
X221680017Y-43543999D01*
X221699911Y-43771393D01*
X221742830Y-43931566D01*
X221744500Y-43944248D01*
X221744500Y-50685000D01*
X221730148Y-50719648D01*
X221695500Y-50734000D01*
X202108500Y-50734000D01*
X202073852Y-50719648D01*
X202059500Y-50685000D01*
X202059500Y-42684000D01*
X212304500Y-42684000D01*
X212304500Y-43184000D01*
X212804500Y-43184000D01*
X212804500Y-42684000D01*
X212304500Y-42684000D01*
X202059500Y-42684000D01*
X202059500Y-41784000D01*
X212304500Y-41784000D01*
X212304500Y-42284000D01*
X212804500Y-42284000D01*
X212804500Y-41784000D01*
X212304500Y-41784000D01*
X202059500Y-41784000D01*
X202059500Y-36178000D01*
X202073852Y-36143352D01*
X202108500Y-36129000D01*
X221695500Y-36129000D01*
X221730148Y-36143352D01*
G37*
G04 #@! TD.AperFunction*
G04 #@! TA.AperFunction,Conductor*
G36*
X198870148Y-21538352D02*
G01*
X198884500Y-21573000D01*
X198884500Y-27703446D01*
X198879909Y-27724154D01*
X198878987Y-27726130D01*
X198819911Y-27946606D01*
X198800017Y-28173999D01*
X198819911Y-28401393D01*
X198878987Y-28621869D01*
X198879909Y-28623846D01*
X198884500Y-28644554D01*
X198884500Y-34175000D01*
X198870148Y-34209648D01*
X198835500Y-34224000D01*
X181153500Y-34224000D01*
X181118852Y-34209648D01*
X181104500Y-34175000D01*
X181104500Y-29354000D01*
X190664500Y-29354000D01*
X190664500Y-29854000D01*
X191164500Y-29854000D01*
X191164500Y-29354000D01*
X190664500Y-29354000D01*
X181104500Y-29354000D01*
X181104500Y-28454000D01*
X190664500Y-28454000D01*
X190664500Y-28954000D01*
X191164500Y-28954000D01*
X191164500Y-28454000D01*
X190664500Y-28454000D01*
X181104500Y-28454000D01*
X181104500Y-21573000D01*
X181118852Y-21538352D01*
X181153500Y-21524000D01*
X198835500Y-21524000D01*
X198870148Y-21538352D01*
G37*
G04 #@! TD.AperFunction*
G04 #@! TA.AperFunction,Conductor*
G36*
X247130148Y-36143352D02*
G01*
X247144500Y-36178000D01*
X247144500Y-43228393D01*
X247142830Y-43241075D01*
X247119911Y-43326606D01*
X247100017Y-43553999D01*
X247119911Y-43781393D01*
X247142830Y-43866925D01*
X247144500Y-43879607D01*
X247144500Y-51320000D01*
X247130148Y-51354648D01*
X247095500Y-51369000D01*
X224968500Y-51369000D01*
X224933852Y-51354648D01*
X224919500Y-51320000D01*
X224919500Y-42674000D01*
X236504500Y-42674000D01*
X236504500Y-43174000D01*
X237004500Y-43174000D01*
X237004500Y-42674000D01*
X236504500Y-42674000D01*
X224919500Y-42674000D01*
X224919500Y-41774000D01*
X236504500Y-41774000D01*
X236504500Y-42274000D01*
X237004500Y-42274000D01*
X237004500Y-41774000D01*
X236504500Y-41774000D01*
X224919500Y-41774000D01*
X224919500Y-36178000D01*
X224933852Y-36143352D01*
X224968500Y-36129000D01*
X247095500Y-36129000D01*
X247130148Y-36143352D01*
G37*
G04 #@! TD.AperFunction*
G04 #@! TA.AperFunction,Conductor*
G36*
X178550148Y-36143352D02*
G01*
X178564500Y-36178000D01*
X178564500Y-42961886D01*
X178559909Y-42982594D01*
X178478987Y-43156130D01*
X178419911Y-43376606D01*
X178400017Y-43604000D01*
X178419911Y-43831393D01*
X178478987Y-44051869D01*
X178559909Y-44225405D01*
X178564500Y-44246113D01*
X178564500Y-50050000D01*
X178550148Y-50084648D01*
X178515500Y-50099000D01*
X163373500Y-50099000D01*
X163338852Y-50084648D01*
X163324500Y-50050000D01*
X163324500Y-42694000D01*
X171654500Y-42694000D01*
X171654500Y-43194000D01*
X172154500Y-43194000D01*
X172154500Y-42694000D01*
X171654500Y-42694000D01*
X163324500Y-42694000D01*
X163324500Y-41794000D01*
X171654500Y-41794000D01*
X171654500Y-42294000D01*
X172154500Y-42294000D01*
X172154500Y-41794000D01*
X171654500Y-41794000D01*
X163324500Y-41794000D01*
X163324500Y-36178000D01*
X163338852Y-36143352D01*
X163373500Y-36129000D01*
X178515500Y-36129000D01*
X178550148Y-36143352D01*
G37*
G04 #@! TD.AperFunction*
G04 #@! TA.AperFunction,Conductor*
G36*
X198870148Y-36143352D02*
G01*
X198884500Y-36178000D01*
X198884500Y-42997666D01*
X198879909Y-43018374D01*
X198838987Y-43106130D01*
X198779911Y-43326606D01*
X198760017Y-43553999D01*
X198779911Y-43781393D01*
X198838986Y-44001866D01*
X198879909Y-44089624D01*
X198884500Y-44110333D01*
X198884500Y-45633704D01*
X198870148Y-45668352D01*
X194453852Y-50084648D01*
X194419204Y-50099000D01*
X181153500Y-50099000D01*
X181118852Y-50084648D01*
X181104500Y-50050000D01*
X181104500Y-42694000D01*
X190664500Y-42694000D01*
X190664500Y-43194000D01*
X191164500Y-43194000D01*
X191164500Y-42694000D01*
X190664500Y-42694000D01*
X181104500Y-42694000D01*
X181104500Y-41794000D01*
X190664500Y-41794000D01*
X190664500Y-42294000D01*
X191164500Y-42294000D01*
X191164500Y-41794000D01*
X190664500Y-41794000D01*
X181104500Y-41794000D01*
X181104500Y-36178000D01*
X181118852Y-36143352D01*
X181153500Y-36129000D01*
X198835500Y-36129000D01*
X198870148Y-36143352D01*
G37*
G04 #@! TD.AperFunction*
G04 #@! TA.AperFunction,Conductor*
G36*
X160770148Y-22808352D02*
G01*
X160784500Y-22843000D01*
X160784500Y-27480441D01*
X160779909Y-27501149D01*
X160688987Y-27696130D01*
X160629911Y-27916606D01*
X160610017Y-28143999D01*
X160629911Y-28371393D01*
X160688987Y-28591869D01*
X160779909Y-28786850D01*
X160784500Y-28807558D01*
X160784500Y-34175000D01*
X160770148Y-34209648D01*
X160735500Y-34224000D01*
X147498500Y-34224000D01*
X147463852Y-34209648D01*
X147449500Y-34175000D01*
X147449500Y-29374000D01*
X154754500Y-29374000D01*
X154754500Y-29874000D01*
X155254500Y-29874000D01*
X155254500Y-29374000D01*
X154754500Y-29374000D01*
X147449500Y-29374000D01*
X147449500Y-28474000D01*
X154754500Y-28474000D01*
X154754500Y-28974000D01*
X155254500Y-28974000D01*
X155254500Y-28474000D01*
X154754500Y-28474000D01*
X147449500Y-28474000D01*
X147449500Y-25989296D01*
X147463852Y-25954648D01*
X150610148Y-22808352D01*
X150644796Y-22794000D01*
X160735500Y-22794000D01*
X160770148Y-22808352D01*
G37*
G04 #@! TD.AperFunction*
G04 #@! TA.AperFunction,Conductor*
G36*
X247130148Y-20314852D02*
G01*
X247144500Y-20349500D01*
X247144500Y-27603446D01*
X247139909Y-27624154D01*
X247138987Y-27626130D01*
X247079911Y-27846606D01*
X247060017Y-28074000D01*
X247079911Y-28301393D01*
X247138987Y-28521869D01*
X247139909Y-28523846D01*
X247144500Y-28544554D01*
X247144500Y-34175000D01*
X247130148Y-34209648D01*
X247095500Y-34224000D01*
X224968500Y-34224000D01*
X224933852Y-34209648D01*
X224919500Y-34175000D01*
X224919500Y-29334000D01*
X236494500Y-29334000D01*
X236494500Y-29834000D01*
X236994500Y-29834000D01*
X236994500Y-29334000D01*
X236494500Y-29334000D01*
X224919500Y-29334000D01*
X224919500Y-28434000D01*
X236494500Y-28434000D01*
X236494500Y-28934000D01*
X236994500Y-28934000D01*
X236994500Y-28434000D01*
X236494500Y-28434000D01*
X224919500Y-28434000D01*
X224919500Y-20349500D01*
X224933852Y-20314852D01*
X224968500Y-20300500D01*
X247095500Y-20300500D01*
X247130148Y-20314852D01*
G37*
G04 #@! TD.AperFunction*
G04 #@! TA.AperFunction,Conductor*
G36*
X221730148Y-21138352D02*
G01*
X221744500Y-21173000D01*
X221744500Y-27771073D01*
X221742830Y-27783755D01*
X221709911Y-27906606D01*
X221690017Y-28133999D01*
X221709911Y-28361393D01*
X221742830Y-28484245D01*
X221744500Y-28496927D01*
X221744500Y-34175000D01*
X221730148Y-34209648D01*
X221695500Y-34224000D01*
X202108500Y-34224000D01*
X202073852Y-34209648D01*
X202059500Y-34175000D01*
X202059500Y-29344000D01*
X212314500Y-29344000D01*
X212314500Y-29844000D01*
X212814500Y-29844000D01*
X212814500Y-29344000D01*
X212314500Y-29344000D01*
X202059500Y-29344000D01*
X202059500Y-28444000D01*
X212314500Y-28444000D01*
X212314500Y-28944000D01*
X212814500Y-28944000D01*
X212814500Y-28444000D01*
X212314500Y-28444000D01*
X202059500Y-28444000D01*
X202059500Y-21173000D01*
X202073852Y-21138352D01*
X202108500Y-21124000D01*
X221695500Y-21124000D01*
X221730148Y-21138352D01*
G37*
G04 #@! TD.AperFunction*
G04 #@! TA.AperFunction,Conductor*
G36*
X160770148Y-36143352D02*
G01*
X160784500Y-36178000D01*
X160784500Y-42890890D01*
X160776841Y-42915174D01*
X160777266Y-42915372D01*
X160775763Y-42918594D01*
X160775636Y-42918998D01*
X160775453Y-42919257D01*
X160678987Y-43126130D01*
X160619911Y-43346606D01*
X160600017Y-43573999D01*
X160619911Y-43801393D01*
X160678987Y-44021869D01*
X160775453Y-44228740D01*
X160775636Y-44229001D01*
X160775763Y-44229404D01*
X160777266Y-44232627D01*
X160776841Y-44232824D01*
X160784500Y-44257109D01*
X160784500Y-49415000D01*
X160770148Y-49449648D01*
X160735500Y-49464000D01*
X151277241Y-49464000D01*
X151245872Y-49452643D01*
X149734375Y-48193062D01*
X147467129Y-46303691D01*
X147454126Y-46286834D01*
X147449500Y-46266050D01*
X147449500Y-42704000D01*
X154754500Y-42704000D01*
X154754500Y-43204000D01*
X155254500Y-43204000D01*
X155254500Y-42704000D01*
X154754500Y-42704000D01*
X147449500Y-42704000D01*
X147449500Y-41804000D01*
X154754500Y-41804000D01*
X154754500Y-42304000D01*
X155254500Y-42304000D01*
X155254500Y-41804000D01*
X154754500Y-41804000D01*
X147449500Y-41804000D01*
X147449500Y-36178000D01*
X147463852Y-36143352D01*
X147498500Y-36129000D01*
X160735500Y-36129000D01*
X160770148Y-36143352D01*
G37*
G04 #@! TD.AperFunction*
M02*
