G04 #@! TF.GenerationSoftware,KiCad,Pcbnew,7.0.1*
G04 #@! TF.CreationDate,2023-10-11T18:59:39-05:00*
G04 #@! TF.ProjectId,Touch_Board,546f7563-685f-4426-9f61-72642e6b6963,1*
G04 #@! TF.SameCoordinates,Original*
G04 #@! TF.FileFunction,Legend,Top*
G04 #@! TF.FilePolarity,Positive*
%FSLAX46Y46*%
G04 Gerber Fmt 4.6, Leading zero omitted, Abs format (unit mm)*
G04 Created by KiCad (PCBNEW 7.0.1) date 2023-10-11 18:59:39*
%MOMM*%
%LPD*%
G01*
G04 APERTURE LIST*
%ADD10C,0.800000*%
%ADD11C,2.505000*%
%ADD12C,2.250000*%
%ADD13C,2.100000*%
G04 APERTURE END LIST*
D10*
X181549500Y-20787500D02*
X181549500Y-51140500D01*
D11*
X155382200Y-35989300D02*
G75*
G03*
X155382200Y-35989300I-1252500J0D01*
G01*
D10*
X147703500Y-20876300D02*
X147703500Y-51229300D01*
X250192500Y-20723900D02*
X250192500Y-51076900D01*
D11*
X268107400Y-35989300D02*
G75*
G03*
X268107400Y-35989300I-1252500J0D01*
G01*
X213154500Y-36002000D02*
G75*
G03*
X213154500Y-36002000I-1252500J0D01*
G01*
D10*
X224799500Y-20787500D02*
X224799500Y-51140500D01*
X201899500Y-20863600D02*
X201899500Y-51216600D01*
X163699500Y-20837500D02*
X163699500Y-51190500D01*
%LPC*%
D12*
X142822300Y-31724600D03*
D13*
X222989500Y-43544000D03*
D12*
X142822300Y-22724600D03*
D13*
X248409500Y-43554000D03*
X179709500Y-43604000D03*
D12*
X145922300Y-21924600D03*
X142822300Y-28724600D03*
D13*
X200109500Y-28174000D03*
D12*
X142822300Y-25724600D03*
D13*
X179719500Y-28154000D03*
X222999500Y-28134000D03*
X248369500Y-28074000D03*
D12*
X139822300Y-27724600D03*
D13*
X200069500Y-43554000D03*
X161919500Y-28144000D03*
D12*
X274989500Y-48414000D03*
X139822300Y-21724600D03*
X199989500Y-50014000D03*
X139789700Y-30724600D03*
X275089500Y-30114000D03*
D13*
X161909500Y-43574000D03*
D12*
X139822300Y-24724600D03*
X142822300Y-34724600D03*
X139822300Y-33724600D03*
M02*
