%TF.GenerationSoftware,KiCad,Pcbnew,7.0.1*%
%TF.CreationDate,2023-10-11T18:59:45-05:00*%
%TF.ProjectId,Touch_Board,546f7563-685f-4426-9f61-72642e6b6963,1*%
%TF.SameCoordinates,Original*%
%TF.FileFunction,Drillmap*%
%TF.FilePolarity,Positive*%
%FSLAX45Y45*%
G04 Gerber Fmt 4.5, Leading zero omitted, Abs format (unit mm)*
G04 Created by KiCad (PCBNEW 7.0.1) date 2023-10-11 18:59:45*
%MOMM*%
%LPD*%
G01*
G04 APERTURE LIST*
%ADD10C,0.100000*%
%ADD11C,0.200000*%
%ADD12C,0.150000*%
G04 APERTURE END LIST*
D10*
X28338550Y-5200000D02*
X13661450Y-5200000D01*
X13661450Y-2000000D02*
X28338550Y-2000000D01*
X13661450Y-2000000D02*
X13661450Y-2000000D01*
X13661450Y-5200000D02*
X13661450Y-2000000D01*
X28338550Y-2000000D02*
X28338550Y-5200000D01*
D11*
D12*
X13903970Y-2997460D02*
X14053970Y-3147460D01*
X14053970Y-2997460D02*
X13903970Y-3147460D01*
X13907230Y-2097460D02*
X14057230Y-2247460D01*
X14057230Y-2097460D02*
X13907230Y-2247460D01*
X13907230Y-2397460D02*
X14057230Y-2547460D01*
X14057230Y-2397460D02*
X13907230Y-2547460D01*
X13907230Y-2697460D02*
X14057230Y-2847460D01*
X14057230Y-2697460D02*
X13907230Y-2847460D01*
X13907230Y-3297460D02*
X14057230Y-3447460D01*
X14057230Y-3297460D02*
X13907230Y-3447460D01*
X14207230Y-2197460D02*
X14357230Y-2347460D01*
X14357230Y-2197460D02*
X14207230Y-2347460D01*
X14207230Y-2497460D02*
X14357230Y-2647460D01*
X14357230Y-2497460D02*
X14207230Y-2647460D01*
X14207230Y-2797460D02*
X14357230Y-2947460D01*
X14357230Y-2797460D02*
X14207230Y-2947460D01*
X14207230Y-3097460D02*
X14357230Y-3247460D01*
X14357230Y-3097460D02*
X14207230Y-3247460D01*
X14207230Y-3397460D02*
X14357230Y-3547460D01*
X14357230Y-3397460D02*
X14207230Y-3547460D01*
X14517230Y-2117460D02*
X14667230Y-2267460D01*
X14667230Y-2117460D02*
X14517230Y-2267460D01*
X19923950Y-4926400D02*
X20073950Y-5076400D01*
X20073950Y-4926400D02*
X19923950Y-5076400D01*
X27423950Y-4766400D02*
X27573950Y-4916400D01*
X27573950Y-4766400D02*
X27423950Y-4916400D01*
X27433950Y-2936400D02*
X27583950Y-3086400D01*
X27583950Y-2936400D02*
X27433950Y-3086400D01*
D11*
X13904069Y-5517524D02*
X13904069Y-5317524D01*
X13904069Y-5317524D02*
X13951688Y-5317524D01*
X13951688Y-5317524D02*
X13980259Y-5327048D01*
X13980259Y-5327048D02*
X13999307Y-5346095D01*
X13999307Y-5346095D02*
X14008831Y-5365143D01*
X14008831Y-5365143D02*
X14018355Y-5403238D01*
X14018355Y-5403238D02*
X14018355Y-5431810D01*
X14018355Y-5431810D02*
X14008831Y-5469905D01*
X14008831Y-5469905D02*
X13999307Y-5488952D01*
X13999307Y-5488952D02*
X13980259Y-5508000D01*
X13980259Y-5508000D02*
X13951688Y-5517524D01*
X13951688Y-5517524D02*
X13904069Y-5517524D01*
X14104069Y-5517524D02*
X14104069Y-5384190D01*
X14104069Y-5422286D02*
X14113593Y-5403238D01*
X14113593Y-5403238D02*
X14123117Y-5393714D01*
X14123117Y-5393714D02*
X14142164Y-5384190D01*
X14142164Y-5384190D02*
X14161212Y-5384190D01*
X14227878Y-5517524D02*
X14227878Y-5384190D01*
X14227878Y-5317524D02*
X14218355Y-5327048D01*
X14218355Y-5327048D02*
X14227878Y-5336571D01*
X14227878Y-5336571D02*
X14237402Y-5327048D01*
X14237402Y-5327048D02*
X14227878Y-5317524D01*
X14227878Y-5317524D02*
X14227878Y-5336571D01*
X14351688Y-5517524D02*
X14332640Y-5508000D01*
X14332640Y-5508000D02*
X14323117Y-5488952D01*
X14323117Y-5488952D02*
X14323117Y-5317524D01*
X14456450Y-5517524D02*
X14437402Y-5508000D01*
X14437402Y-5508000D02*
X14427878Y-5488952D01*
X14427878Y-5488952D02*
X14427878Y-5317524D01*
X14685021Y-5517524D02*
X14685021Y-5317524D01*
X14685021Y-5317524D02*
X14751688Y-5460381D01*
X14751688Y-5460381D02*
X14818355Y-5317524D01*
X14818355Y-5317524D02*
X14818355Y-5517524D01*
X14999307Y-5517524D02*
X14999307Y-5412762D01*
X14999307Y-5412762D02*
X14989783Y-5393714D01*
X14989783Y-5393714D02*
X14970736Y-5384190D01*
X14970736Y-5384190D02*
X14932640Y-5384190D01*
X14932640Y-5384190D02*
X14913593Y-5393714D01*
X14999307Y-5508000D02*
X14980259Y-5517524D01*
X14980259Y-5517524D02*
X14932640Y-5517524D01*
X14932640Y-5517524D02*
X14913593Y-5508000D01*
X14913593Y-5508000D02*
X14904069Y-5488952D01*
X14904069Y-5488952D02*
X14904069Y-5469905D01*
X14904069Y-5469905D02*
X14913593Y-5450857D01*
X14913593Y-5450857D02*
X14932640Y-5441333D01*
X14932640Y-5441333D02*
X14980259Y-5441333D01*
X14980259Y-5441333D02*
X14999307Y-5431810D01*
X15094545Y-5384190D02*
X15094545Y-5584190D01*
X15094545Y-5393714D02*
X15113593Y-5384190D01*
X15113593Y-5384190D02*
X15151688Y-5384190D01*
X15151688Y-5384190D02*
X15170736Y-5393714D01*
X15170736Y-5393714D02*
X15180259Y-5403238D01*
X15180259Y-5403238D02*
X15189783Y-5422286D01*
X15189783Y-5422286D02*
X15189783Y-5479429D01*
X15189783Y-5479429D02*
X15180259Y-5498476D01*
X15180259Y-5498476D02*
X15170736Y-5508000D01*
X15170736Y-5508000D02*
X15151688Y-5517524D01*
X15151688Y-5517524D02*
X15113593Y-5517524D01*
X15113593Y-5517524D02*
X15094545Y-5508000D01*
X15275498Y-5498476D02*
X15285021Y-5508000D01*
X15285021Y-5508000D02*
X15275498Y-5517524D01*
X15275498Y-5517524D02*
X15265974Y-5508000D01*
X15265974Y-5508000D02*
X15275498Y-5498476D01*
X15275498Y-5498476D02*
X15275498Y-5517524D01*
X15275498Y-5393714D02*
X15285021Y-5403238D01*
X15285021Y-5403238D02*
X15275498Y-5412762D01*
X15275498Y-5412762D02*
X15265974Y-5403238D01*
X15265974Y-5403238D02*
X15275498Y-5393714D01*
X15275498Y-5393714D02*
X15275498Y-5412762D01*
D12*
X13506450Y-5770000D02*
X13656450Y-5920000D01*
X13656450Y-5770000D02*
X13506450Y-5920000D01*
D11*
X14008831Y-5937524D02*
X13894545Y-5937524D01*
X13951688Y-5937524D02*
X13951688Y-5737524D01*
X13951688Y-5737524D02*
X13932640Y-5766095D01*
X13932640Y-5766095D02*
X13913593Y-5785143D01*
X13913593Y-5785143D02*
X13894545Y-5794667D01*
X14094545Y-5918476D02*
X14104069Y-5928000D01*
X14104069Y-5928000D02*
X14094545Y-5937524D01*
X14094545Y-5937524D02*
X14085021Y-5928000D01*
X14085021Y-5928000D02*
X14094545Y-5918476D01*
X14094545Y-5918476D02*
X14094545Y-5937524D01*
X14285021Y-5737524D02*
X14189783Y-5737524D01*
X14189783Y-5737524D02*
X14180259Y-5832762D01*
X14180259Y-5832762D02*
X14189783Y-5823238D01*
X14189783Y-5823238D02*
X14208831Y-5813714D01*
X14208831Y-5813714D02*
X14256450Y-5813714D01*
X14256450Y-5813714D02*
X14275498Y-5823238D01*
X14275498Y-5823238D02*
X14285021Y-5832762D01*
X14285021Y-5832762D02*
X14294545Y-5851809D01*
X14294545Y-5851809D02*
X14294545Y-5899428D01*
X14294545Y-5899428D02*
X14285021Y-5918476D01*
X14285021Y-5918476D02*
X14275498Y-5928000D01*
X14275498Y-5928000D02*
X14256450Y-5937524D01*
X14256450Y-5937524D02*
X14208831Y-5937524D01*
X14208831Y-5937524D02*
X14189783Y-5928000D01*
X14189783Y-5928000D02*
X14180259Y-5918476D01*
X14418355Y-5737524D02*
X14437402Y-5737524D01*
X14437402Y-5737524D02*
X14456450Y-5747048D01*
X14456450Y-5747048D02*
X14465974Y-5756571D01*
X14465974Y-5756571D02*
X14475498Y-5775619D01*
X14475498Y-5775619D02*
X14485021Y-5813714D01*
X14485021Y-5813714D02*
X14485021Y-5861333D01*
X14485021Y-5861333D02*
X14475498Y-5899428D01*
X14475498Y-5899428D02*
X14465974Y-5918476D01*
X14465974Y-5918476D02*
X14456450Y-5928000D01*
X14456450Y-5928000D02*
X14437402Y-5937524D01*
X14437402Y-5937524D02*
X14418355Y-5937524D01*
X14418355Y-5937524D02*
X14399307Y-5928000D01*
X14399307Y-5928000D02*
X14389783Y-5918476D01*
X14389783Y-5918476D02*
X14380259Y-5899428D01*
X14380259Y-5899428D02*
X14370736Y-5861333D01*
X14370736Y-5861333D02*
X14370736Y-5813714D01*
X14370736Y-5813714D02*
X14380259Y-5775619D01*
X14380259Y-5775619D02*
X14389783Y-5756571D01*
X14389783Y-5756571D02*
X14399307Y-5747048D01*
X14399307Y-5747048D02*
X14418355Y-5737524D01*
X14608831Y-5737524D02*
X14627879Y-5737524D01*
X14627879Y-5737524D02*
X14646926Y-5747048D01*
X14646926Y-5747048D02*
X14656450Y-5756571D01*
X14656450Y-5756571D02*
X14665974Y-5775619D01*
X14665974Y-5775619D02*
X14675498Y-5813714D01*
X14675498Y-5813714D02*
X14675498Y-5861333D01*
X14675498Y-5861333D02*
X14665974Y-5899428D01*
X14665974Y-5899428D02*
X14656450Y-5918476D01*
X14656450Y-5918476D02*
X14646926Y-5928000D01*
X14646926Y-5928000D02*
X14627879Y-5937524D01*
X14627879Y-5937524D02*
X14608831Y-5937524D01*
X14608831Y-5937524D02*
X14589783Y-5928000D01*
X14589783Y-5928000D02*
X14580259Y-5918476D01*
X14580259Y-5918476D02*
X14570736Y-5899428D01*
X14570736Y-5899428D02*
X14561212Y-5861333D01*
X14561212Y-5861333D02*
X14561212Y-5813714D01*
X14561212Y-5813714D02*
X14570736Y-5775619D01*
X14570736Y-5775619D02*
X14580259Y-5756571D01*
X14580259Y-5756571D02*
X14589783Y-5747048D01*
X14589783Y-5747048D02*
X14608831Y-5737524D01*
X14761212Y-5937524D02*
X14761212Y-5804190D01*
X14761212Y-5823238D02*
X14770736Y-5813714D01*
X14770736Y-5813714D02*
X14789783Y-5804190D01*
X14789783Y-5804190D02*
X14818355Y-5804190D01*
X14818355Y-5804190D02*
X14837402Y-5813714D01*
X14837402Y-5813714D02*
X14846926Y-5832762D01*
X14846926Y-5832762D02*
X14846926Y-5937524D01*
X14846926Y-5832762D02*
X14856450Y-5813714D01*
X14856450Y-5813714D02*
X14875498Y-5804190D01*
X14875498Y-5804190D02*
X14904069Y-5804190D01*
X14904069Y-5804190D02*
X14923117Y-5813714D01*
X14923117Y-5813714D02*
X14932640Y-5832762D01*
X14932640Y-5832762D02*
X14932640Y-5937524D01*
X15027879Y-5937524D02*
X15027879Y-5804190D01*
X15027879Y-5823238D02*
X15037402Y-5813714D01*
X15037402Y-5813714D02*
X15056450Y-5804190D01*
X15056450Y-5804190D02*
X15085021Y-5804190D01*
X15085021Y-5804190D02*
X15104069Y-5813714D01*
X15104069Y-5813714D02*
X15113593Y-5832762D01*
X15113593Y-5832762D02*
X15113593Y-5937524D01*
X15113593Y-5832762D02*
X15123117Y-5813714D01*
X15123117Y-5813714D02*
X15142164Y-5804190D01*
X15142164Y-5804190D02*
X15170736Y-5804190D01*
X15170736Y-5804190D02*
X15189783Y-5813714D01*
X15189783Y-5813714D02*
X15199307Y-5832762D01*
X15199307Y-5832762D02*
X15199307Y-5937524D01*
X15589783Y-5728000D02*
X15418355Y-5985143D01*
X15846926Y-5737524D02*
X15865974Y-5737524D01*
X15865974Y-5737524D02*
X15885022Y-5747048D01*
X15885022Y-5747048D02*
X15894545Y-5756571D01*
X15894545Y-5756571D02*
X15904069Y-5775619D01*
X15904069Y-5775619D02*
X15913593Y-5813714D01*
X15913593Y-5813714D02*
X15913593Y-5861333D01*
X15913593Y-5861333D02*
X15904069Y-5899428D01*
X15904069Y-5899428D02*
X15894545Y-5918476D01*
X15894545Y-5918476D02*
X15885022Y-5928000D01*
X15885022Y-5928000D02*
X15865974Y-5937524D01*
X15865974Y-5937524D02*
X15846926Y-5937524D01*
X15846926Y-5937524D02*
X15827879Y-5928000D01*
X15827879Y-5928000D02*
X15818355Y-5918476D01*
X15818355Y-5918476D02*
X15808831Y-5899428D01*
X15808831Y-5899428D02*
X15799307Y-5861333D01*
X15799307Y-5861333D02*
X15799307Y-5813714D01*
X15799307Y-5813714D02*
X15808831Y-5775619D01*
X15808831Y-5775619D02*
X15818355Y-5756571D01*
X15818355Y-5756571D02*
X15827879Y-5747048D01*
X15827879Y-5747048D02*
X15846926Y-5737524D01*
X15999307Y-5918476D02*
X16008831Y-5928000D01*
X16008831Y-5928000D02*
X15999307Y-5937524D01*
X15999307Y-5937524D02*
X15989783Y-5928000D01*
X15989783Y-5928000D02*
X15999307Y-5918476D01*
X15999307Y-5918476D02*
X15999307Y-5937524D01*
X16132641Y-5737524D02*
X16151688Y-5737524D01*
X16151688Y-5737524D02*
X16170736Y-5747048D01*
X16170736Y-5747048D02*
X16180260Y-5756571D01*
X16180260Y-5756571D02*
X16189783Y-5775619D01*
X16189783Y-5775619D02*
X16199307Y-5813714D01*
X16199307Y-5813714D02*
X16199307Y-5861333D01*
X16199307Y-5861333D02*
X16189783Y-5899428D01*
X16189783Y-5899428D02*
X16180260Y-5918476D01*
X16180260Y-5918476D02*
X16170736Y-5928000D01*
X16170736Y-5928000D02*
X16151688Y-5937524D01*
X16151688Y-5937524D02*
X16132641Y-5937524D01*
X16132641Y-5937524D02*
X16113593Y-5928000D01*
X16113593Y-5928000D02*
X16104069Y-5918476D01*
X16104069Y-5918476D02*
X16094545Y-5899428D01*
X16094545Y-5899428D02*
X16085022Y-5861333D01*
X16085022Y-5861333D02*
X16085022Y-5813714D01*
X16085022Y-5813714D02*
X16094545Y-5775619D01*
X16094545Y-5775619D02*
X16104069Y-5756571D01*
X16104069Y-5756571D02*
X16113593Y-5747048D01*
X16113593Y-5747048D02*
X16132641Y-5737524D01*
X16380260Y-5737524D02*
X16285022Y-5737524D01*
X16285022Y-5737524D02*
X16275498Y-5832762D01*
X16275498Y-5832762D02*
X16285022Y-5823238D01*
X16285022Y-5823238D02*
X16304069Y-5813714D01*
X16304069Y-5813714D02*
X16351688Y-5813714D01*
X16351688Y-5813714D02*
X16370736Y-5823238D01*
X16370736Y-5823238D02*
X16380260Y-5832762D01*
X16380260Y-5832762D02*
X16389783Y-5851809D01*
X16389783Y-5851809D02*
X16389783Y-5899428D01*
X16389783Y-5899428D02*
X16380260Y-5918476D01*
X16380260Y-5918476D02*
X16370736Y-5928000D01*
X16370736Y-5928000D02*
X16351688Y-5937524D01*
X16351688Y-5937524D02*
X16304069Y-5937524D01*
X16304069Y-5937524D02*
X16285022Y-5928000D01*
X16285022Y-5928000D02*
X16275498Y-5918476D01*
X16485022Y-5937524D02*
X16523117Y-5937524D01*
X16523117Y-5937524D02*
X16542164Y-5928000D01*
X16542164Y-5928000D02*
X16551688Y-5918476D01*
X16551688Y-5918476D02*
X16570736Y-5889905D01*
X16570736Y-5889905D02*
X16580260Y-5851809D01*
X16580260Y-5851809D02*
X16580260Y-5775619D01*
X16580260Y-5775619D02*
X16570736Y-5756571D01*
X16570736Y-5756571D02*
X16561212Y-5747048D01*
X16561212Y-5747048D02*
X16542164Y-5737524D01*
X16542164Y-5737524D02*
X16504069Y-5737524D01*
X16504069Y-5737524D02*
X16485022Y-5747048D01*
X16485022Y-5747048D02*
X16475498Y-5756571D01*
X16475498Y-5756571D02*
X16465974Y-5775619D01*
X16465974Y-5775619D02*
X16465974Y-5823238D01*
X16465974Y-5823238D02*
X16475498Y-5842286D01*
X16475498Y-5842286D02*
X16485022Y-5851809D01*
X16485022Y-5851809D02*
X16504069Y-5861333D01*
X16504069Y-5861333D02*
X16542164Y-5861333D01*
X16542164Y-5861333D02*
X16561212Y-5851809D01*
X16561212Y-5851809D02*
X16570736Y-5842286D01*
X16570736Y-5842286D02*
X16580260Y-5823238D01*
X16770736Y-5937524D02*
X16656450Y-5937524D01*
X16713593Y-5937524D02*
X16713593Y-5737524D01*
X16713593Y-5737524D02*
X16694545Y-5766095D01*
X16694545Y-5766095D02*
X16675498Y-5785143D01*
X16675498Y-5785143D02*
X16656450Y-5794667D01*
X16846926Y-5737524D02*
X16846926Y-5775619D01*
X16923117Y-5737524D02*
X16923117Y-5775619D01*
X17218355Y-6013714D02*
X17208831Y-6004190D01*
X17208831Y-6004190D02*
X17189784Y-5975619D01*
X17189784Y-5975619D02*
X17180260Y-5956571D01*
X17180260Y-5956571D02*
X17170736Y-5928000D01*
X17170736Y-5928000D02*
X17161212Y-5880381D01*
X17161212Y-5880381D02*
X17161212Y-5842286D01*
X17161212Y-5842286D02*
X17170736Y-5794667D01*
X17170736Y-5794667D02*
X17180260Y-5766095D01*
X17180260Y-5766095D02*
X17189784Y-5747048D01*
X17189784Y-5747048D02*
X17208831Y-5718476D01*
X17208831Y-5718476D02*
X17218355Y-5708952D01*
X17399307Y-5937524D02*
X17285022Y-5937524D01*
X17342165Y-5937524D02*
X17342165Y-5737524D01*
X17342165Y-5737524D02*
X17323117Y-5766095D01*
X17323117Y-5766095D02*
X17304069Y-5785143D01*
X17304069Y-5785143D02*
X17285022Y-5794667D01*
X17570736Y-5804190D02*
X17570736Y-5937524D01*
X17523117Y-5728000D02*
X17475498Y-5870857D01*
X17475498Y-5870857D02*
X17599307Y-5870857D01*
X17827879Y-5937524D02*
X17827879Y-5737524D01*
X17913593Y-5937524D02*
X17913593Y-5832762D01*
X17913593Y-5832762D02*
X17904069Y-5813714D01*
X17904069Y-5813714D02*
X17885022Y-5804190D01*
X17885022Y-5804190D02*
X17856450Y-5804190D01*
X17856450Y-5804190D02*
X17837403Y-5813714D01*
X17837403Y-5813714D02*
X17827879Y-5823238D01*
X18037403Y-5937524D02*
X18018355Y-5928000D01*
X18018355Y-5928000D02*
X18008831Y-5918476D01*
X18008831Y-5918476D02*
X17999308Y-5899428D01*
X17999308Y-5899428D02*
X17999308Y-5842286D01*
X17999308Y-5842286D02*
X18008831Y-5823238D01*
X18008831Y-5823238D02*
X18018355Y-5813714D01*
X18018355Y-5813714D02*
X18037403Y-5804190D01*
X18037403Y-5804190D02*
X18065974Y-5804190D01*
X18065974Y-5804190D02*
X18085022Y-5813714D01*
X18085022Y-5813714D02*
X18094546Y-5823238D01*
X18094546Y-5823238D02*
X18104069Y-5842286D01*
X18104069Y-5842286D02*
X18104069Y-5899428D01*
X18104069Y-5899428D02*
X18094546Y-5918476D01*
X18094546Y-5918476D02*
X18085022Y-5928000D01*
X18085022Y-5928000D02*
X18065974Y-5937524D01*
X18065974Y-5937524D02*
X18037403Y-5937524D01*
X18218355Y-5937524D02*
X18199308Y-5928000D01*
X18199308Y-5928000D02*
X18189784Y-5908952D01*
X18189784Y-5908952D02*
X18189784Y-5737524D01*
X18370736Y-5928000D02*
X18351689Y-5937524D01*
X18351689Y-5937524D02*
X18313593Y-5937524D01*
X18313593Y-5937524D02*
X18294546Y-5928000D01*
X18294546Y-5928000D02*
X18285022Y-5908952D01*
X18285022Y-5908952D02*
X18285022Y-5832762D01*
X18285022Y-5832762D02*
X18294546Y-5813714D01*
X18294546Y-5813714D02*
X18313593Y-5804190D01*
X18313593Y-5804190D02*
X18351689Y-5804190D01*
X18351689Y-5804190D02*
X18370736Y-5813714D01*
X18370736Y-5813714D02*
X18380260Y-5832762D01*
X18380260Y-5832762D02*
X18380260Y-5851809D01*
X18380260Y-5851809D02*
X18285022Y-5870857D01*
X18456450Y-5928000D02*
X18475498Y-5937524D01*
X18475498Y-5937524D02*
X18513593Y-5937524D01*
X18513593Y-5937524D02*
X18532641Y-5928000D01*
X18532641Y-5928000D02*
X18542165Y-5908952D01*
X18542165Y-5908952D02*
X18542165Y-5899428D01*
X18542165Y-5899428D02*
X18532641Y-5880381D01*
X18532641Y-5880381D02*
X18513593Y-5870857D01*
X18513593Y-5870857D02*
X18485022Y-5870857D01*
X18485022Y-5870857D02*
X18465974Y-5861333D01*
X18465974Y-5861333D02*
X18456450Y-5842286D01*
X18456450Y-5842286D02*
X18456450Y-5832762D01*
X18456450Y-5832762D02*
X18465974Y-5813714D01*
X18465974Y-5813714D02*
X18485022Y-5804190D01*
X18485022Y-5804190D02*
X18513593Y-5804190D01*
X18513593Y-5804190D02*
X18532641Y-5813714D01*
X18608831Y-6013714D02*
X18618355Y-6004190D01*
X18618355Y-6004190D02*
X18637403Y-5975619D01*
X18637403Y-5975619D02*
X18646927Y-5956571D01*
X18646927Y-5956571D02*
X18656450Y-5928000D01*
X18656450Y-5928000D02*
X18665974Y-5880381D01*
X18665974Y-5880381D02*
X18665974Y-5842286D01*
X18665974Y-5842286D02*
X18656450Y-5794667D01*
X18656450Y-5794667D02*
X18646927Y-5766095D01*
X18646927Y-5766095D02*
X18637403Y-5747048D01*
X18637403Y-5747048D02*
X18618355Y-5718476D01*
X18618355Y-5718476D02*
X18608831Y-5708952D01*
M02*
