%TF.GenerationSoftware,KiCad,Pcbnew,7.0.1*%
%TF.CreationDate,2024-01-29T00:03:09-06:00*%
%TF.ProjectId,Beacon_Multiboard,42656163-6f6e-45f4-9d75-6c7469626f61,1*%
%TF.SameCoordinates,Original*%
%TF.FileFunction,Paste,Top*%
%TF.FilePolarity,Positive*%
%FSLAX46Y46*%
G04 Gerber Fmt 4.6, Leading zero omitted, Abs format (unit mm)*
G04 Created by KiCad (PCBNEW 7.0.1) date 2024-01-29 00:03:09*
%MOMM*%
%LPD*%
G01*
G04 APERTURE LIST*
G04 Aperture macros list*
%AMRoundRect*
0 Rectangle with rounded corners*
0 $1 Rounding radius*
0 $2 $3 $4 $5 $6 $7 $8 $9 X,Y pos of 4 corners*
0 Add a 4 corners polygon primitive as box body*
4,1,4,$2,$3,$4,$5,$6,$7,$8,$9,$2,$3,0*
0 Add four circle primitives for the rounded corners*
1,1,$1+$1,$2,$3*
1,1,$1+$1,$4,$5*
1,1,$1+$1,$6,$7*
1,1,$1+$1,$8,$9*
0 Add four rect primitives between the rounded corners*
20,1,$1+$1,$2,$3,$4,$5,0*
20,1,$1+$1,$4,$5,$6,$7,0*
20,1,$1+$1,$6,$7,$8,$9,0*
20,1,$1+$1,$8,$9,$2,$3,0*%
%AMRotRect*
0 Rectangle, with rotation*
0 The origin of the aperture is its center*
0 $1 length*
0 $2 width*
0 $3 Rotation angle, in degrees counterclockwise*
0 Add horizontal line*
21,1,$1,$2,0,0,$3*%
%AMFreePoly0*
4,1,20,0.131820,0.364320,0.145000,0.332500,0.145000,-0.332500,0.131820,-0.364320,0.100000,-0.377500,0.053640,-0.377500,0.053581,-0.377475,0.053522,-0.377500,0.037749,-0.370918,0.021820,-0.364320,0.021795,-0.364260,0.021737,-0.364236,-0.141903,-0.199736,-0.148406,-0.183918,-0.155000,-0.168000,-0.155000,0.332500,-0.141820,0.364320,-0.110000,0.377500,0.100000,0.377500,0.131820,0.364320,
0.131820,0.364320,$1*%
%AMFreePoly1*
4,1,20,0.131820,0.364320,0.145000,0.332500,0.145000,-0.168000,0.138682,-0.183251,0.132887,-0.198716,-0.020753,-0.363216,-0.021504,-0.363557,-0.021820,-0.364320,-0.037072,-0.370637,-0.052105,-0.377474,-0.052877,-0.377184,-0.053640,-0.377500,-0.110000,-0.377500,-0.141820,-0.364320,-0.155000,-0.332500,-0.155000,0.332500,-0.141820,0.364320,-0.110000,0.377500,0.100000,0.377500,0.131820,0.364320,
0.131820,0.364320,$1*%
%AMFreePoly2*
4,1,20,0.364320,0.141820,0.377500,0.110000,0.377500,-0.100000,0.364320,-0.131820,0.332500,-0.145000,-0.332500,-0.145000,-0.364320,-0.131820,-0.377500,-0.100000,-0.377500,-0.053640,-0.377475,-0.053581,-0.377500,-0.053522,-0.370918,-0.037749,-0.364320,-0.021820,-0.364260,-0.021795,-0.364236,-0.021737,-0.199736,0.141903,-0.183918,0.148406,-0.168000,0.155000,0.332500,0.155000,0.364320,0.141820,
0.364320,0.141820,$1*%
%AMFreePoly3*
4,1,20,0.364320,0.131820,0.377500,0.100000,0.377500,-0.110000,0.364320,-0.141820,0.332500,-0.155000,-0.168000,-0.155000,-0.183918,-0.148406,-0.199736,-0.141903,-0.364236,0.021737,-0.364260,0.021795,-0.364320,0.021820,-0.370918,0.037749,-0.377500,0.053522,-0.377475,0.053581,-0.377500,0.053640,-0.377500,0.100000,-0.364320,0.131820,-0.332500,0.145000,0.332500,0.145000,0.364320,0.131820,
0.364320,0.131820,$1*%
%AMFreePoly4*
4,1,20,-0.052877,0.377184,-0.052105,0.377474,-0.037072,0.370637,-0.021820,0.364320,-0.021504,0.363557,-0.020753,0.363216,0.132887,0.198716,0.138682,0.183251,0.145000,0.168000,0.145000,-0.332500,0.131820,-0.364320,0.100000,-0.377500,-0.110000,-0.377500,-0.141820,-0.364320,-0.155000,-0.332500,-0.155000,0.332500,-0.141820,0.364320,-0.110000,0.377500,-0.053640,0.377500,-0.052877,0.377184,
-0.052877,0.377184,$1*%
%AMFreePoly5*
4,1,20,0.138284,0.360784,0.150000,0.332500,0.150000,-0.332500,0.138284,-0.360784,0.110000,-0.372500,-0.110000,-0.372500,-0.138284,-0.360784,-0.150000,-0.332500,-0.150000,0.168000,-0.144102,0.182237,-0.138358,0.196210,0.025282,0.360710,0.025334,0.360731,0.025356,0.360784,0.039384,0.366595,0.053535,0.372500,0.053587,0.372478,0.053640,0.372500,0.110000,0.372500,0.138284,0.360784,
0.138284,0.360784,$1*%
%AMFreePoly6*
4,1,20,0.364320,0.131820,0.377500,0.100000,0.377500,0.053640,0.377475,0.053581,0.377500,0.053522,0.370918,0.037749,0.364320,0.021820,0.364260,0.021795,0.364236,0.021737,0.199736,-0.141903,0.183918,-0.148406,0.168000,-0.155000,-0.332500,-0.155000,-0.364320,-0.141820,-0.377500,-0.110000,-0.377500,0.100000,-0.364320,0.131820,-0.332500,0.145000,0.332500,0.145000,0.364320,0.131820,
0.364320,0.131820,$1*%
%AMFreePoly7*
4,1,20,0.183918,0.148406,0.199736,0.141903,0.364236,-0.021737,0.364260,-0.021795,0.364320,-0.021820,0.370918,-0.037749,0.377500,-0.053522,0.377475,-0.053581,0.377500,-0.053640,0.377500,-0.100000,0.364320,-0.131820,0.332500,-0.145000,-0.332500,-0.145000,-0.364320,-0.131820,-0.377500,-0.100000,-0.377500,0.110000,-0.364320,0.141820,-0.332500,0.155000,0.168000,0.155000,0.183918,0.148406,
0.183918,0.148406,$1*%
G04 Aperture macros list end*
%ADD10R,0.400000X0.400000*%
%ADD11RoundRect,0.155000X0.212500X0.155000X-0.212500X0.155000X-0.212500X-0.155000X0.212500X-0.155000X0*%
%ADD12RoundRect,0.155000X-0.155000X0.212500X-0.155000X-0.212500X0.155000X-0.212500X0.155000X0.212500X0*%
%ADD13RoundRect,0.155000X0.259862X-0.040659X-0.040659X0.259862X-0.259862X0.040659X0.040659X-0.259862X0*%
%ADD14RoundRect,0.155000X-0.212500X-0.155000X0.212500X-0.155000X0.212500X0.155000X-0.212500X0.155000X0*%
%ADD15RoundRect,0.155000X0.155000X-0.212500X0.155000X0.212500X-0.155000X0.212500X-0.155000X-0.212500X0*%
%ADD16RoundRect,0.237500X0.237500X-0.300000X0.237500X0.300000X-0.237500X0.300000X-0.237500X-0.300000X0*%
%ADD17RoundRect,0.155000X-0.040659X-0.259862X0.259862X0.040659X0.040659X0.259862X-0.259862X-0.040659X0*%
%ADD18RoundRect,0.112500X0.112500X-0.487500X0.112500X0.487500X-0.112500X0.487500X-0.112500X-0.487500X0*%
%ADD19RoundRect,0.250000X-0.650000X0.412500X-0.650000X-0.412500X0.650000X-0.412500X0.650000X0.412500X0*%
%ADD20RoundRect,0.250000X-0.412500X-0.650000X0.412500X-0.650000X0.412500X0.650000X-0.412500X0.650000X0*%
%ADD21C,0.270000*%
%ADD22RoundRect,0.237500X-0.300000X-0.237500X0.300000X-0.237500X0.300000X0.237500X-0.300000X0.237500X0*%
%ADD23RoundRect,0.250000X0.650000X-0.412500X0.650000X0.412500X-0.650000X0.412500X-0.650000X-0.412500X0*%
%ADD24R,0.300000X0.650000*%
%ADD25R,0.500000X1.100000*%
%ADD26R,0.700000X0.200000*%
%ADD27RoundRect,0.250000X0.475000X-0.337500X0.475000X0.337500X-0.475000X0.337500X-0.475000X-0.337500X0*%
%ADD28RotRect,0.750000X0.700000X225.000000*%
%ADD29FreePoly0,90.000000*%
%ADD30RoundRect,0.075000X0.362500X-0.075000X0.362500X0.075000X-0.362500X0.075000X-0.362500X-0.075000X0*%
%ADD31FreePoly1,90.000000*%
%ADD32FreePoly2,90.000000*%
%ADD33RoundRect,0.075000X0.075000X-0.362500X0.075000X0.362500X-0.075000X0.362500X-0.075000X-0.362500X0*%
%ADD34FreePoly3,90.000000*%
%ADD35FreePoly4,90.000000*%
%ADD36FreePoly5,90.000000*%
%ADD37FreePoly6,90.000000*%
%ADD38FreePoly7,90.000000*%
%ADD39RoundRect,0.250000X0.337500X0.475000X-0.337500X0.475000X-0.337500X-0.475000X0.337500X-0.475000X0*%
%ADD40R,0.650000X1.560000*%
%ADD41RoundRect,0.150000X-0.150000X-0.150000X0.150000X-0.150000X0.150000X0.150000X-0.150000X0.150000X0*%
%ADD42RoundRect,0.250000X-0.475000X0.337500X-0.475000X-0.337500X0.475000X-0.337500X0.475000X0.337500X0*%
%ADD43RoundRect,0.237500X0.300000X0.237500X-0.300000X0.237500X-0.300000X-0.237500X0.300000X-0.237500X0*%
%ADD44R,0.725000X0.250000*%
%ADD45R,0.775000X0.250000*%
%ADD46RoundRect,0.250000X0.412500X0.650000X-0.412500X0.650000X-0.412500X-0.650000X0.412500X-0.650000X0*%
%ADD47RoundRect,0.090000X-0.090000X0.139000X-0.090000X-0.139000X0.090000X-0.139000X0.090000X0.139000X0*%
%ADD48C,0.230000*%
%ADD49RoundRect,0.055000X-0.055000X-0.350000X0.055000X-0.350000X0.055000X0.350000X-0.055000X0.350000X0*%
%ADD50RoundRect,0.055000X-0.350000X-0.055000X0.350000X-0.055000X0.350000X0.055000X-0.350000X0.055000X0*%
%ADD51RoundRect,0.200000X-0.200000X-0.200000X0.200000X-0.200000X0.200000X0.200000X-0.200000X0.200000X0*%
%ADD52RoundRect,0.150000X-0.150000X-0.425000X0.150000X-0.425000X0.150000X0.425000X-0.150000X0.425000X0*%
%ADD53RoundRect,0.075000X-0.075000X-0.500000X0.075000X-0.500000X0.075000X0.500000X-0.075000X0.500000X0*%
%ADD54RoundRect,0.155000X0.040659X0.259862X-0.259862X-0.040659X-0.040659X-0.259862X0.259862X0.040659X0*%
%ADD55RoundRect,0.250000X-0.337500X-0.475000X0.337500X-0.475000X0.337500X0.475000X-0.337500X0.475000X0*%
%ADD56RoundRect,0.050000X0.100000X-0.285000X0.100000X0.285000X-0.100000X0.285000X-0.100000X-0.285000X0*%
%ADD57R,2.750000X2.650000*%
%ADD58R,0.300000X0.800000*%
%ADD59R,0.800000X0.300000*%
%ADD60R,0.900000X0.800000*%
%ADD61RoundRect,0.090000X0.139000X0.090000X-0.139000X0.090000X-0.139000X-0.090000X0.139000X-0.090000X0*%
%ADD62RoundRect,0.250000X0.275000X-0.295000X0.275000X0.295000X-0.275000X0.295000X-0.275000X-0.295000X0*%
%ADD63RoundRect,0.067500X0.067500X-0.332500X0.067500X0.332500X-0.067500X0.332500X-0.067500X-0.332500X0*%
%ADD64RoundRect,0.067500X0.332500X-0.067500X0.332500X0.067500X-0.332500X0.067500X-0.332500X-0.067500X0*%
%ADD65R,0.250000X0.775000*%
%ADD66R,0.250000X0.725000*%
%ADD67R,4.050000X4.050000*%
%ADD68R,0.200000X0.850000*%
%ADD69R,0.850000X0.200000*%
%ADD70R,0.350000X2.300000*%
%ADD71R,1.300000X0.350000*%
%ADD72R,0.400000X0.950000*%
%ADD73R,0.600000X0.700000*%
G04 APERTURE END LIST*
D10*
%TO.C,D409*%
X234848666Y-132946000D03*
X234848666Y-133546000D03*
X234248666Y-133546000D03*
X234248666Y-132946000D03*
%TD*%
D11*
%TO.C,C619*%
X59838137Y-124864021D03*
X60973137Y-124864021D03*
%TD*%
D12*
%TO.C,C601*%
X63328137Y-125939021D03*
X63328137Y-124804021D03*
%TD*%
D13*
%TO.C,J804*%
X71171171Y-146605455D03*
X71973737Y-147408021D03*
%TD*%
D11*
%TO.C,C1003*%
X68898137Y-128754021D03*
X70033137Y-128754021D03*
%TD*%
%TO.C,C406*%
X112674666Y-137307400D03*
X113809666Y-137307400D03*
%TD*%
D14*
%TO.C,J402*%
X116976366Y-129814800D03*
X115841366Y-129814800D03*
%TD*%
D10*
%TO.C,D411*%
X272348666Y-133546000D03*
X272348666Y-132946000D03*
X272948666Y-132946000D03*
X272948666Y-133546000D03*
%TD*%
%TO.C,D410*%
X234248666Y-148446000D03*
X234848666Y-148446000D03*
X234848666Y-149046000D03*
X234248666Y-149046000D03*
%TD*%
D11*
%TO.C,C513*%
X59390637Y-137756021D03*
X60525637Y-137756021D03*
%TD*%
D15*
%TO.C,J503*%
X66712200Y-171991700D03*
X66712200Y-170856700D03*
%TD*%
D14*
%TO.C,C612*%
X60983137Y-123684021D03*
X59848137Y-123684021D03*
%TD*%
D15*
%TO.C,C507*%
X59608137Y-139856521D03*
X59608137Y-140991521D03*
%TD*%
%TO.C,C409*%
X111907666Y-139805300D03*
X111907666Y-140940300D03*
%TD*%
D14*
%TO.C,C1503*%
X162824119Y-232236600D03*
X163959119Y-232236600D03*
%TD*%
D11*
%TO.C,C802*%
X74178137Y-149854021D03*
X75313137Y-149854021D03*
%TD*%
D16*
%TO.C,R1201*%
X72679137Y-130244621D03*
X72679137Y-131969621D03*
%TD*%
D15*
%TO.C,R511*%
X51138137Y-148099021D03*
X51138137Y-149234021D03*
%TD*%
D11*
%TO.C,J705*%
X71381237Y-139810221D03*
X72516237Y-139810221D03*
%TD*%
%TO.C,C603*%
X59838137Y-126004021D03*
X60973137Y-126004021D03*
%TD*%
D17*
%TO.C,C1407*%
X167714736Y-228015083D03*
X168517302Y-227212517D03*
%TD*%
D15*
%TO.C,R408*%
X112242866Y-125259100D03*
X112242866Y-126394100D03*
%TD*%
D18*
%TO.C,D501*%
X48018137Y-143324021D03*
X48818137Y-143324021D03*
X49618137Y-143324021D03*
X49618137Y-146124021D03*
X48818137Y-146124021D03*
X48018137Y-146124021D03*
%TD*%
D14*
%TO.C,C604*%
X54608137Y-124374021D03*
X53473137Y-124374021D03*
%TD*%
D12*
%TO.C,R1503*%
X165880819Y-241625900D03*
X165880819Y-242760900D03*
%TD*%
D19*
%TO.C,F401*%
X102010266Y-143698500D03*
X102010266Y-140573500D03*
%TD*%
D20*
%TO.C,C611*%
X64113137Y-121814021D03*
X60988137Y-121814021D03*
%TD*%
D11*
%TO.C,C302*%
X176506719Y-231373000D03*
X175371719Y-231373000D03*
%TD*%
D15*
%TO.C,C609*%
X62638137Y-113199021D03*
X62638137Y-114334021D03*
%TD*%
D10*
%TO.C,D412*%
X272948666Y-149046000D03*
X272348666Y-149046000D03*
X272348666Y-148446000D03*
X272948666Y-148446000D03*
%TD*%
D21*
%TO.C,U601*%
X57648137Y-124044021D03*
X57648137Y-124544021D03*
X57648137Y-125044021D03*
X57648137Y-125544021D03*
X57648137Y-126044021D03*
X57648137Y-126544021D03*
X57648137Y-127044021D03*
X57648137Y-127544021D03*
X57308137Y-123794021D03*
X57308137Y-124294021D03*
X57308137Y-124794021D03*
X57308137Y-125294021D03*
X57308137Y-125794021D03*
X57308137Y-126294021D03*
X57308137Y-126794021D03*
X57308137Y-127294021D03*
X57308137Y-127794021D03*
X56968137Y-124044021D03*
X56968137Y-124544021D03*
X56968137Y-125044021D03*
X56968137Y-125544021D03*
X56968137Y-126044021D03*
X56968137Y-126544021D03*
X56968137Y-127044021D03*
X56968137Y-127544021D03*
X56628137Y-123794021D03*
X56628137Y-124294021D03*
X56628137Y-124794021D03*
X56628137Y-125294021D03*
X56628137Y-125794021D03*
X56628137Y-126294021D03*
X56628137Y-126794021D03*
X56628137Y-127294021D03*
X56628137Y-127794021D03*
%TD*%
D10*
%TO.C,D405*%
X147798666Y-132996000D03*
X148398666Y-132996000D03*
X148398666Y-133596000D03*
X147798666Y-133596000D03*
%TD*%
D15*
%TO.C,J409*%
X115113066Y-126741000D03*
X115113066Y-127876000D03*
%TD*%
D14*
%TO.C,C615*%
X54613137Y-125394021D03*
X53478137Y-125394021D03*
%TD*%
D15*
%TO.C,R516*%
X47528137Y-150879021D03*
X47528137Y-152014021D03*
%TD*%
D14*
%TO.C,C608*%
X58618137Y-121534021D03*
X57483137Y-121534021D03*
%TD*%
D11*
%TO.C,R1405*%
X172493519Y-227207400D03*
X171358519Y-227207400D03*
%TD*%
D15*
%TO.C,J703*%
X68038137Y-137126521D03*
X68038137Y-138261521D03*
%TD*%
D14*
%TO.C,J605*%
X62660637Y-115689021D03*
X61525637Y-115689021D03*
%TD*%
D22*
%TO.C,R504*%
X54848137Y-142481521D03*
X53123137Y-142481521D03*
%TD*%
D12*
%TO.C,C301*%
X173450019Y-222372700D03*
X173450019Y-223507700D03*
%TD*%
D15*
%TO.C,J508*%
X138746600Y-251442900D03*
X138746600Y-250307900D03*
%TD*%
D10*
%TO.C,D408*%
X166198666Y-148446000D03*
X166198666Y-149046000D03*
X165598666Y-149046000D03*
X165598666Y-148446000D03*
%TD*%
D14*
%TO.C,R702*%
X70763137Y-135684021D03*
X69628137Y-135684021D03*
%TD*%
D15*
%TO.C,J704*%
X69178137Y-137126521D03*
X69178137Y-138261521D03*
%TD*%
D23*
%TO.C,C610*%
X59568137Y-112491521D03*
X59568137Y-115616521D03*
%TD*%
D15*
%TO.C,J502*%
X51148137Y-150859021D03*
X51148137Y-151994021D03*
%TD*%
D24*
%TO.C,U1101*%
X93548137Y-152221521D03*
X94198137Y-152221521D03*
X94848137Y-152221521D03*
X94848137Y-154021521D03*
X94198137Y-154021521D03*
X93548137Y-154021521D03*
%TD*%
D25*
%TO.C,D413*%
X102035666Y-145661200D03*
X102035666Y-147961200D03*
%TD*%
D14*
%TO.C,R1401*%
X171358519Y-225835800D03*
X172493519Y-225835800D03*
%TD*%
D12*
%TO.C,C1402*%
X171316419Y-229984000D03*
X171316419Y-231119000D03*
%TD*%
D26*
%TO.C,D418*%
X119957166Y-135601600D03*
X119957166Y-136101600D03*
X119957166Y-136601600D03*
X118957166Y-136851600D03*
X118957166Y-136351600D03*
X118957166Y-135851600D03*
X118957166Y-135351600D03*
%TD*%
D23*
%TO.C,F502*%
X133894800Y-249435700D03*
X133894800Y-246310700D03*
%TD*%
D14*
%TO.C,C505*%
X56700337Y-136790821D03*
X55565337Y-136790821D03*
%TD*%
D15*
%TO.C,R512*%
X49248137Y-148104021D03*
X49248137Y-149239021D03*
%TD*%
D27*
%TO.C,C503*%
X60388137Y-146024021D03*
X60388137Y-148099021D03*
%TD*%
D15*
%TO.C,J604*%
X64168137Y-114559021D03*
X64168137Y-115694021D03*
%TD*%
D12*
%TO.C,R501*%
X52908137Y-146701521D03*
X52908137Y-145566521D03*
%TD*%
%TO.C,L701*%
X72308137Y-145274021D03*
X72308137Y-144139021D03*
%TD*%
D11*
%TO.C,C706*%
X72408137Y-142774021D03*
X73543137Y-142774021D03*
%TD*%
D14*
%TO.C,R503*%
X54708137Y-144011521D03*
X53573137Y-144011521D03*
%TD*%
D23*
%TO.C,C509*%
X66661000Y-168732201D03*
X66661000Y-165607201D03*
%TD*%
D28*
%TO.C,Y701*%
X65995485Y-151711699D03*
X66702591Y-152418805D03*
X66950079Y-150757105D03*
X67657185Y-151464211D03*
%TD*%
D29*
%TO.C,U402*%
X105650466Y-137991600D03*
D30*
X105600466Y-137496600D03*
X105600466Y-136996600D03*
X105600466Y-136496600D03*
X105600466Y-135996600D03*
X105600466Y-135496600D03*
D31*
X105650466Y-134991600D03*
D32*
X106145466Y-134496600D03*
D33*
X106640466Y-134446600D03*
X107140466Y-134446600D03*
X107640466Y-134446600D03*
X108140466Y-134446600D03*
X108640466Y-134446600D03*
D34*
X109135466Y-134496600D03*
D35*
X109630466Y-134991600D03*
D30*
X109680466Y-135496600D03*
X109680466Y-135996600D03*
X109680466Y-136496600D03*
X109680466Y-136996600D03*
X109680466Y-137496600D03*
D36*
X109625466Y-138001600D03*
D37*
X109140466Y-138476600D03*
D33*
X108645466Y-138526600D03*
X108145466Y-138526600D03*
X107645466Y-138526600D03*
X107145466Y-138526600D03*
X106645466Y-138526600D03*
D38*
X106150466Y-138476600D03*
%TD*%
D12*
%TO.C,R1412*%
X172078419Y-222372700D03*
X172078419Y-223507700D03*
%TD*%
D15*
%TO.C,R405*%
X113665266Y-124285200D03*
X113665266Y-125420200D03*
%TD*%
%TO.C,J511*%
X140372200Y-251442900D03*
X140372200Y-250307900D03*
%TD*%
D39*
%TO.C,C502*%
X55980637Y-148451521D03*
X58055637Y-148451521D03*
%TD*%
D11*
%TO.C,C413*%
X112674666Y-134157800D03*
X113809666Y-134157800D03*
%TD*%
%TO.C,R1402*%
X175236719Y-230001400D03*
X174101719Y-230001400D03*
%TD*%
D12*
%TO.C,C512*%
X59588137Y-144219021D03*
X59588137Y-143084021D03*
%TD*%
%TO.C,J1609*%
X64023137Y-138046521D03*
X64023137Y-136911521D03*
%TD*%
%TO.C,C303*%
X105389966Y-152954300D03*
X105389966Y-151819300D03*
%TD*%
D14*
%TO.C,J407*%
X117052566Y-133091400D03*
X115917566Y-133091400D03*
%TD*%
D15*
%TO.C,J1503*%
X169208619Y-237350300D03*
X169208619Y-236215300D03*
%TD*%
D10*
%TO.C,D801*%
X78515737Y-141589421D03*
X79115737Y-141589421D03*
X79115737Y-142189421D03*
X78515737Y-142189421D03*
%TD*%
D15*
%TO.C,C617*%
X56138137Y-130326521D03*
X56138137Y-131461521D03*
%TD*%
D40*
%TO.C,PS503*%
X49674937Y-136942021D03*
X51574937Y-136942021D03*
X51574937Y-139642021D03*
X50624937Y-139642021D03*
X49674937Y-139642021D03*
%TD*%
D12*
%TO.C,R1505*%
X167557219Y-238933500D03*
X167557219Y-240068500D03*
%TD*%
D15*
%TO.C,R513*%
X47528137Y-148209021D03*
X47528137Y-149344021D03*
%TD*%
D41*
%TO.C,J708*%
X65852337Y-137146421D03*
%TD*%
D15*
%TO.C,R1403*%
X173704019Y-238248400D03*
X173704019Y-237113400D03*
%TD*%
D11*
%TO.C,R804*%
X76930637Y-121584021D03*
X78065637Y-121584021D03*
%TD*%
D15*
%TO.C,R509*%
X87086737Y-136773421D03*
X87086737Y-137908421D03*
%TD*%
D42*
%TO.C,J1001*%
X67957937Y-127133121D03*
X67957937Y-125058121D03*
%TD*%
D14*
%TO.C,J403*%
X115833366Y-130805400D03*
X114698366Y-130805400D03*
%TD*%
D26*
%TO.C,D416*%
X119913666Y-130821000D03*
X119913666Y-131321000D03*
X119913666Y-131821000D03*
X118913666Y-132071000D03*
X118913666Y-131571000D03*
X118913666Y-131071000D03*
X118913666Y-130571000D03*
%TD*%
D15*
%TO.C,C404*%
X107188266Y-145731500D03*
X107188266Y-146866500D03*
%TD*%
D19*
%TO.C,F402*%
X105257866Y-143955300D03*
X105257866Y-140830300D03*
%TD*%
D15*
%TO.C,C606*%
X54618137Y-127776521D03*
X54618137Y-128911521D03*
%TD*%
%TO.C,J701*%
X60898137Y-142119021D03*
X60898137Y-143254021D03*
%TD*%
%TO.C,R802*%
X80985737Y-144394021D03*
X80985737Y-145529021D03*
%TD*%
D43*
%TO.C,L501*%
X56298137Y-146221521D03*
X58023137Y-146221521D03*
%TD*%
D11*
%TO.C,R506*%
X82692537Y-141312021D03*
X83827537Y-141312021D03*
%TD*%
D14*
%TO.C,C613*%
X60095637Y-130414021D03*
X58960637Y-130414021D03*
%TD*%
D15*
%TO.C,R407*%
X112242866Y-122820700D03*
X112242866Y-123955700D03*
%TD*%
%TO.C,C1101*%
X91648137Y-154441521D03*
X91648137Y-155576521D03*
%TD*%
D44*
%TO.C,D504*%
X61626900Y-167198800D03*
X61626900Y-167698800D03*
X61626900Y-168198800D03*
X61626900Y-168698800D03*
X61626900Y-169198800D03*
D45*
X62626900Y-169198800D03*
X62626900Y-168698800D03*
X62626900Y-168198800D03*
X62626900Y-167698800D03*
X62626900Y-167198800D03*
%TD*%
D15*
%TO.C,R1411*%
X167862019Y-223456900D03*
X167862019Y-222321900D03*
%TD*%
D45*
%TO.C,D507*%
X89541137Y-139662421D03*
X89541137Y-139162421D03*
X89541137Y-138662421D03*
X89541137Y-138162421D03*
X89541137Y-137662421D03*
D44*
X90541137Y-137662421D03*
X90541137Y-138162421D03*
X90541137Y-138662421D03*
X90541137Y-139162421D03*
X90541137Y-139662421D03*
%TD*%
D14*
%TO.C,J406*%
X114690366Y-132456400D03*
X113555366Y-132456400D03*
%TD*%
D39*
%TO.C,J408*%
X106433766Y-150004600D03*
X108508766Y-150004600D03*
%TD*%
D12*
%TO.C,C501*%
X58118137Y-141496521D03*
X58118137Y-140361521D03*
%TD*%
D15*
%TO.C,C618*%
X57368137Y-130344021D03*
X57368137Y-131479021D03*
%TD*%
D11*
%TO.C,R701*%
X66803137Y-135644021D03*
X67938137Y-135644021D03*
%TD*%
D14*
%TO.C,C711*%
X66495637Y-149294021D03*
X65360637Y-149294021D03*
%TD*%
D15*
%TO.C,C705*%
X73658137Y-144174021D03*
X73658137Y-145309021D03*
%TD*%
D46*
%TO.C,F501*%
X85933138Y-134544021D03*
X89058138Y-134544021D03*
%TD*%
D11*
%TO.C,C1401*%
X172544319Y-228477400D03*
X171409319Y-228477400D03*
%TD*%
D15*
%TO.C,R1413*%
X163544019Y-223448200D03*
X163544019Y-222313200D03*
%TD*%
D14*
%TO.C,C533*%
X49780237Y-141537421D03*
X48645237Y-141537421D03*
%TD*%
D15*
%TO.C,R402*%
X97485466Y-145502900D03*
X97485466Y-146637900D03*
%TD*%
D14*
%TO.C,C1004*%
X67118137Y-128754021D03*
X65983137Y-128754021D03*
%TD*%
D11*
%TO.C,R1502*%
X159700619Y-239450200D03*
X158565619Y-239450200D03*
%TD*%
D15*
%TO.C,C408*%
X109672466Y-139830700D03*
X109672466Y-140965700D03*
%TD*%
D14*
%TO.C,C703*%
X66325637Y-138704021D03*
X65190637Y-138704021D03*
%TD*%
D10*
%TO.C,D404*%
X209448666Y-149046000D03*
X208848666Y-149046000D03*
X208848666Y-148446000D03*
X209448666Y-148446000D03*
%TD*%
D13*
%TO.C,C508*%
X75082771Y-141728655D03*
X75885337Y-142531221D03*
%TD*%
D11*
%TO.C,R502*%
X54143137Y-140821521D03*
X55278137Y-140821521D03*
%TD*%
D15*
%TO.C,C602*%
X59958137Y-127386521D03*
X59958137Y-128521521D03*
%TD*%
D10*
%TO.C,D401*%
X185998666Y-133646000D03*
X185998666Y-133046000D03*
X186598666Y-133046000D03*
X186598666Y-133646000D03*
%TD*%
D47*
%TO.C,D506*%
X116046300Y-236484301D03*
X116046300Y-237349301D03*
%TD*%
D15*
%TO.C,C405*%
X108427866Y-139814000D03*
X108427866Y-140949000D03*
%TD*%
%TO.C,L801*%
X72648137Y-148716521D03*
X72648137Y-149851521D03*
%TD*%
%TO.C,C710*%
X69298137Y-150954021D03*
X69298137Y-152089021D03*
%TD*%
D11*
%TO.C,C702*%
X69368137Y-149624021D03*
X70503137Y-149624021D03*
%TD*%
D48*
%TO.C,PS502*%
X57858137Y-138321521D03*
X57858137Y-138721521D03*
X57458137Y-138321521D03*
X57458137Y-138721521D03*
X57058137Y-138321521D03*
X57058137Y-138721521D03*
X56658137Y-138321521D03*
X56658137Y-138721521D03*
%TD*%
D15*
%TO.C,R1501*%
X160343619Y-235547300D03*
X160343619Y-234412300D03*
%TD*%
D49*
%TO.C,U401*%
X106214066Y-154297200D03*
X106614066Y-154297200D03*
X107014066Y-154297200D03*
X107414066Y-154297200D03*
X107814066Y-154297200D03*
D50*
X108474066Y-154962200D03*
X108474066Y-155362200D03*
X108474066Y-155762200D03*
X108474066Y-156162200D03*
X108474066Y-156562200D03*
D49*
X107814066Y-157197200D03*
X107414066Y-157197200D03*
X107014066Y-157197200D03*
X106614066Y-157197200D03*
X106214066Y-157197200D03*
D50*
X105549066Y-156562200D03*
X105549066Y-156162200D03*
X105549066Y-155762200D03*
X105549066Y-155362200D03*
X105549066Y-154962200D03*
D51*
X107424066Y-156172200D03*
X107424066Y-155372200D03*
X106624066Y-156172200D03*
X106624066Y-155372200D03*
%TD*%
D11*
%TO.C,C1202*%
X76579137Y-130999621D03*
X77714137Y-130999621D03*
%TD*%
D14*
%TO.C,R1001*%
X64142537Y-134213421D03*
X63007537Y-134213421D03*
%TD*%
D15*
%TO.C,R515*%
X49238137Y-150764021D03*
X49238137Y-151899021D03*
%TD*%
%TO.C,C407*%
X110739266Y-139830700D03*
X110739266Y-140965700D03*
%TD*%
D52*
%TO.C,J510*%
X136805419Y-253516000D03*
X137605419Y-253516000D03*
D53*
X138255419Y-253516000D03*
X139255419Y-253516000D03*
X140755419Y-253516000D03*
X141755419Y-253516000D03*
D52*
X142405419Y-253516000D03*
X143205419Y-253516000D03*
X143205419Y-253516000D03*
X142405419Y-253516000D03*
D53*
X141255419Y-253516000D03*
X140255419Y-253516000D03*
X139755419Y-253516000D03*
X138755419Y-253516000D03*
D52*
X137605419Y-253516000D03*
X136805419Y-253516000D03*
%TD*%
D12*
%TO.C,R1410*%
X166439619Y-222321900D03*
X166439619Y-223456900D03*
%TD*%
D15*
%TO.C,C403*%
X107437266Y-139914900D03*
X107437266Y-141049900D03*
%TD*%
D12*
%TO.C,R1406*%
X172840419Y-229941900D03*
X172840419Y-231076900D03*
%TD*%
%TO.C,J801*%
X79095737Y-147854021D03*
X79095737Y-146719021D03*
%TD*%
D11*
%TO.C,C803*%
X74150637Y-148584021D03*
X75285637Y-148584021D03*
%TD*%
D27*
%TO.C,J1201*%
X74729137Y-130229621D03*
X74729137Y-132304621D03*
%TD*%
D54*
%TO.C,L802*%
X74196854Y-152155304D03*
X74999420Y-151352738D03*
%TD*%
D15*
%TO.C,R1301*%
X79608137Y-124004021D03*
X79608137Y-125139021D03*
%TD*%
%TO.C,R409*%
X109956866Y-143403400D03*
X109956866Y-144538400D03*
%TD*%
D10*
%TO.C,D403*%
X208848666Y-133596000D03*
X208848666Y-132996000D03*
X209448666Y-132996000D03*
X209448666Y-133596000D03*
%TD*%
D14*
%TO.C,C531*%
X137755600Y-248310400D03*
X138890600Y-248310400D03*
%TD*%
D12*
%TO.C,R1408*%
X172637219Y-232634300D03*
X172637219Y-233769300D03*
%TD*%
D15*
%TO.C,R1409*%
X162070819Y-223448200D03*
X162070819Y-222313200D03*
%TD*%
D14*
%TO.C,C534*%
X49164537Y-135114421D03*
X48029537Y-135114421D03*
%TD*%
D11*
%TO.C,R1101*%
X93605837Y-155942421D03*
X94740837Y-155942421D03*
%TD*%
%TO.C,C532*%
X141413200Y-248310400D03*
X140278200Y-248310400D03*
%TD*%
D14*
%TO.C,C1501*%
X162824119Y-233811400D03*
X163959119Y-233811400D03*
%TD*%
D10*
%TO.C,D417*%
X114676466Y-122148400D03*
X114676466Y-122748400D03*
X114076466Y-122748400D03*
X114076466Y-122148400D03*
%TD*%
D54*
%TO.C,R508*%
X81432771Y-149683787D03*
X82235337Y-148881221D03*
%TD*%
D55*
%TO.C,C402*%
X103815166Y-152539200D03*
X101740166Y-152539200D03*
%TD*%
D25*
%TO.C,D414*%
X105312266Y-145834800D03*
X105312266Y-148134800D03*
%TD*%
D15*
%TO.C,J803*%
X72678137Y-151346521D03*
X72678137Y-152481521D03*
%TD*%
D14*
%TO.C,C1405*%
X164602119Y-228731400D03*
X165737119Y-228731400D03*
%TD*%
D15*
%TO.C,R1407*%
X172383219Y-237122100D03*
X172383219Y-235987100D03*
%TD*%
%TO.C,R403*%
X115188866Y-124328400D03*
X115188866Y-125463400D03*
%TD*%
D56*
%TO.C,PS501*%
X56738137Y-142904021D03*
X57238137Y-142904021D03*
X57738137Y-142904021D03*
X58238137Y-142904021D03*
X58238137Y-144384021D03*
X57738137Y-144384021D03*
X57238137Y-144384021D03*
X56738137Y-144384021D03*
%TD*%
D15*
%TO.C,R510*%
X87096737Y-139488421D03*
X87096737Y-140623421D03*
%TD*%
D12*
%TO.C,R1506*%
X169233619Y-238882700D03*
X169233619Y-240017700D03*
%TD*%
%TO.C,R401*%
X97764866Y-144174100D03*
X97764866Y-143039100D03*
%TD*%
%TO.C,R1404*%
X174059619Y-231872300D03*
X174059619Y-233007300D03*
%TD*%
D15*
%TO.C,J410*%
X51768037Y-143192321D03*
X51768037Y-144327321D03*
%TD*%
D54*
%TO.C,C1408*%
X170142902Y-227923717D03*
X169340336Y-228726283D03*
%TD*%
D11*
%TO.C,C412*%
X114986066Y-134919800D03*
X116121066Y-134919800D03*
%TD*%
%TO.C,C506*%
X58189537Y-136638421D03*
X59324537Y-136638421D03*
%TD*%
D15*
%TO.C,C704*%
X74968137Y-144204021D03*
X74968137Y-145339021D03*
%TD*%
%TO.C,J1502*%
X167532219Y-237401100D03*
X167532219Y-236266100D03*
%TD*%
D14*
%TO.C,J405*%
X117077966Y-131821400D03*
X115942966Y-131821400D03*
%TD*%
D57*
%TO.C,U1001*%
X67758137Y-132204021D03*
D58*
X69008137Y-134154021D03*
X68508137Y-134154021D03*
X68008137Y-134154021D03*
X67508137Y-134154021D03*
X67008137Y-134154021D03*
X66508137Y-134154021D03*
D59*
X65808137Y-133454021D03*
X65808137Y-132954021D03*
X65808137Y-132454021D03*
X65808137Y-131954021D03*
X65808137Y-131454021D03*
X65808137Y-130954021D03*
D58*
X66508137Y-130254021D03*
X67008137Y-130254021D03*
X67508137Y-130254021D03*
X68008137Y-130254021D03*
X68508137Y-130254021D03*
X69008137Y-130254021D03*
D59*
X69708137Y-130954021D03*
X69708137Y-131454021D03*
X69708137Y-131954021D03*
X69708137Y-132454021D03*
X69708137Y-132954021D03*
X69708137Y-133454021D03*
%TD*%
D60*
%TO.C,D503*%
X84810137Y-137364821D03*
X82810137Y-138314821D03*
X84810137Y-139264821D03*
%TD*%
D15*
%TO.C,R1416*%
X170706819Y-223456900D03*
X170706819Y-222321900D03*
%TD*%
%TO.C,C1001*%
X64258137Y-131439021D03*
X64258137Y-132574021D03*
%TD*%
D12*
%TO.C,C1404*%
X171316419Y-232625600D03*
X171316419Y-233760600D03*
%TD*%
%TO.C,C708*%
X61068137Y-140551521D03*
X61068137Y-139416521D03*
%TD*%
D46*
%TO.C,C514*%
X115962401Y-224967800D03*
X112837401Y-224967800D03*
%TD*%
D11*
%TO.C,R507*%
X54083137Y-139214021D03*
X55218137Y-139214021D03*
%TD*%
D14*
%TO.C,C709*%
X63948137Y-148474021D03*
X62813137Y-148474021D03*
%TD*%
D12*
%TO.C,R505*%
X54418137Y-146676521D03*
X54418137Y-145541521D03*
%TD*%
D11*
%TO.C,C410*%
X114986066Y-136545400D03*
X116121066Y-136545400D03*
%TD*%
D12*
%TO.C,J802*%
X77213137Y-147654021D03*
X77213137Y-146519021D03*
%TD*%
D61*
%TO.C,D502*%
X134133100Y-251403600D03*
X133268100Y-251403600D03*
%TD*%
D62*
%TO.C,U1501*%
X167150419Y-233333000D03*
X168450419Y-233333000D03*
X167150419Y-231983000D03*
X168450419Y-231983000D03*
D63*
X166550419Y-234633000D03*
X167050419Y-234633000D03*
X167550419Y-234633000D03*
X168050419Y-234633000D03*
X168550419Y-234633000D03*
X169050419Y-234633000D03*
D64*
X169775419Y-233908000D03*
X169775419Y-233408000D03*
X169775419Y-232908000D03*
X169775419Y-232408000D03*
X169775419Y-231908000D03*
X169775419Y-231408000D03*
D63*
X169050419Y-230683000D03*
X168550419Y-230683000D03*
X168050419Y-230683000D03*
X167550419Y-230683000D03*
X167050419Y-230683000D03*
X166550419Y-230683000D03*
D64*
X165825419Y-231408000D03*
X165825419Y-231908000D03*
X165825419Y-232408000D03*
X165825419Y-232908000D03*
X165825419Y-233408000D03*
X165825419Y-233908000D03*
%TD*%
D12*
%TO.C,C605*%
X56138137Y-121814021D03*
X56138137Y-120679021D03*
%TD*%
D65*
%TO.C,D415*%
X105775266Y-128693500D03*
X105275266Y-128693500D03*
X104775266Y-128693500D03*
X104275266Y-128693500D03*
X103775266Y-128693500D03*
D66*
X103775266Y-127693500D03*
X104275266Y-127693500D03*
X104775266Y-127693500D03*
X105275266Y-127693500D03*
X105775266Y-127693500D03*
%TD*%
D15*
%TO.C,R1414*%
X165017219Y-223448200D03*
X165017219Y-222313200D03*
%TD*%
D67*
%TO.C,U701*%
X65958137Y-143504021D03*
D68*
X68558137Y-146954021D03*
X68158137Y-146954021D03*
X67758137Y-146954021D03*
X67358137Y-146954021D03*
X66958137Y-146954021D03*
X66558137Y-146954021D03*
X66158137Y-146954021D03*
X65758137Y-146954021D03*
X65358137Y-146954021D03*
X64958137Y-146954021D03*
X64558137Y-146954021D03*
X64158137Y-146954021D03*
X63758137Y-146954021D03*
X63358137Y-146954021D03*
D69*
X62508137Y-146104021D03*
X62508137Y-145704021D03*
X62508137Y-145304021D03*
X62508137Y-144904021D03*
X62508137Y-144504021D03*
X62508137Y-144104021D03*
X62508137Y-143704021D03*
X62508137Y-143304021D03*
X62508137Y-142904021D03*
X62508137Y-142504021D03*
X62508137Y-142104021D03*
X62508137Y-141704021D03*
X62508137Y-141304021D03*
X62508137Y-140904021D03*
D68*
X63358137Y-140054021D03*
X63758137Y-140054021D03*
X64158137Y-140054021D03*
X64558137Y-140054021D03*
X64958137Y-140054021D03*
X65358137Y-140054021D03*
X65758137Y-140054021D03*
X66158137Y-140054021D03*
X66558137Y-140054021D03*
X66958137Y-140054021D03*
X67358137Y-140054021D03*
X67758137Y-140054021D03*
X68158137Y-140054021D03*
X68558137Y-140054021D03*
D69*
X69408137Y-140904021D03*
X69408137Y-141304021D03*
X69408137Y-141704021D03*
X69408137Y-142104021D03*
X69408137Y-142504021D03*
X69408137Y-142904021D03*
X69408137Y-143304021D03*
X69408137Y-143704021D03*
X69408137Y-144104021D03*
X69408137Y-144504021D03*
X69408137Y-144904021D03*
X69408137Y-145304021D03*
X69408137Y-145704021D03*
X69408137Y-146104021D03*
%TD*%
D15*
%TO.C,R1415*%
X169284419Y-223456900D03*
X169284419Y-222321900D03*
%TD*%
D20*
%TO.C,C607*%
X59738137Y-118024021D03*
X56613137Y-118024021D03*
%TD*%
D46*
%TO.C,F201*%
X67425637Y-122044021D03*
X70550637Y-122044021D03*
%TD*%
D12*
%TO.C,J1610*%
X62648137Y-138034021D03*
X62648137Y-136899021D03*
%TD*%
D10*
%TO.C,D407*%
X166198666Y-132996000D03*
X166198666Y-133596000D03*
X165598666Y-133596000D03*
X165598666Y-132996000D03*
%TD*%
D55*
%TO.C,J603*%
X53688637Y-134562021D03*
X51613637Y-134562021D03*
%TD*%
D54*
%TO.C,C1406*%
X167196502Y-226399717D03*
X166393936Y-227202283D03*
%TD*%
D15*
%TO.C,R803*%
X79085737Y-144071921D03*
X79085737Y-145206921D03*
%TD*%
D12*
%TO.C,R1504*%
X165880819Y-238933500D03*
X165880819Y-240068500D03*
%TD*%
D15*
%TO.C,C614*%
X53448137Y-127556521D03*
X53448137Y-128691521D03*
%TD*%
D12*
%TO.C,C1502*%
X160597619Y-231948500D03*
X160597619Y-233083500D03*
%TD*%
D15*
%TO.C,C401*%
X104196166Y-154232300D03*
X104196166Y-155367300D03*
%TD*%
%TO.C,R801*%
X80935737Y-141731921D03*
X80935737Y-142866921D03*
%TD*%
D14*
%TO.C,C1002*%
X64198137Y-130204021D03*
X63063137Y-130204021D03*
%TD*%
D15*
%TO.C,C1005*%
X62918137Y-131644021D03*
X62918137Y-132779021D03*
%TD*%
D46*
%TO.C,F301*%
X151258119Y-221924200D03*
X148133119Y-221924200D03*
%TD*%
D11*
%TO.C,C701*%
X69340637Y-148294021D03*
X70475637Y-148294021D03*
%TD*%
D22*
%TO.C,J601*%
X63333137Y-127384021D03*
X61608137Y-127384021D03*
%TD*%
D14*
%TO.C,C801*%
X74898137Y-121614021D03*
X73763137Y-121614021D03*
%TD*%
D12*
%TO.C,C707*%
X71008137Y-145281521D03*
X71008137Y-144146521D03*
%TD*%
D55*
%TO.C,J1101*%
X91363137Y-152336521D03*
X89288137Y-152336521D03*
%TD*%
D70*
%TO.C,MK1201*%
X73614137Y-126004621D03*
D71*
X74839137Y-124279621D03*
X74839137Y-127729621D03*
D70*
X76064137Y-126004621D03*
D72*
X74389137Y-126679621D03*
X74389137Y-125329621D03*
X75289137Y-125329621D03*
X75289137Y-126679621D03*
%TD*%
D11*
%TO.C,C804*%
X76578137Y-151194021D03*
X77713137Y-151194021D03*
%TD*%
D15*
%TO.C,R406*%
X113690666Y-126741000D03*
X113690666Y-127876000D03*
%TD*%
%TO.C,J505*%
X119366000Y-228084000D03*
X119366000Y-226949000D03*
%TD*%
D11*
%TO.C,C411*%
X112348666Y-135758000D03*
X113483666Y-135758000D03*
%TD*%
D14*
%TO.C,C504*%
X55218437Y-137959221D03*
X54083437Y-137959221D03*
%TD*%
%TO.C,C616*%
X54585637Y-126434021D03*
X53450637Y-126434021D03*
%TD*%
D12*
%TO.C,J702*%
X67758137Y-149584021D03*
X67758137Y-148449021D03*
%TD*%
D15*
%TO.C,R805*%
X77215737Y-143889421D03*
X77215737Y-145024421D03*
%TD*%
D11*
%TO.C,C1201*%
X76594137Y-129719621D03*
X77729137Y-129719621D03*
%TD*%
D15*
%TO.C,C1403*%
X171214819Y-237122100D03*
X171214819Y-235987100D03*
%TD*%
D10*
%TO.C,D1501*%
X168614419Y-242142600D03*
X168014419Y-242142600D03*
X168014419Y-242742600D03*
X168614419Y-242742600D03*
%TD*%
%TO.C,D406*%
X148398666Y-149046000D03*
X147798666Y-149046000D03*
X147798666Y-148446000D03*
X148398666Y-148446000D03*
%TD*%
D12*
%TO.C,C511*%
X56798137Y-141461521D03*
X56798137Y-140326521D03*
%TD*%
D55*
%TO.C,J401*%
X103776866Y-150286800D03*
X101701866Y-150286800D03*
%TD*%
D10*
%TO.C,D402*%
X186548666Y-148446000D03*
X186548666Y-149046000D03*
X185948666Y-149046000D03*
X185948666Y-148446000D03*
%TD*%
D15*
%TO.C,C1102*%
X90198137Y-154441521D03*
X90198137Y-155576521D03*
%TD*%
D14*
%TO.C,J1501*%
X162240319Y-236682000D03*
X163375319Y-236682000D03*
%TD*%
D73*
%TO.C,Q1301*%
X84038137Y-123984021D03*
X82138137Y-123984021D03*
X83088137Y-121984021D03*
%TD*%
D11*
%TO.C,J706*%
X71389537Y-141083421D03*
X72524537Y-141083421D03*
%TD*%
M02*
