G04 #@! TF.GenerationSoftware,KiCad,Pcbnew,7.0.1*
G04 #@! TF.CreationDate,2023-10-11T20:36:53-05:00*
G04 #@! TF.ProjectId,Main_Board,4d61696e-5f42-46f6-9172-642e6b696361,1*
G04 #@! TF.SameCoordinates,Original*
G04 #@! TF.FileFunction,Copper,L4,Inr*
G04 #@! TF.FilePolarity,Positive*
%FSLAX46Y46*%
G04 Gerber Fmt 4.6, Leading zero omitted, Abs format (unit mm)*
G04 Created by KiCad (PCBNEW 7.0.1) date 2023-10-11 20:36:53*
%MOMM*%
%LPD*%
G01*
G04 APERTURE LIST*
G04 #@! TA.AperFunction,ComponentPad*
%ADD10C,1.300000*%
G04 #@! TD*
G04 #@! TA.AperFunction,ComponentPad*
%ADD11C,2.000000*%
G04 #@! TD*
G04 #@! TA.AperFunction,ViaPad*
%ADD12C,0.300000*%
G04 #@! TD*
G04 #@! TA.AperFunction,ViaPad*
%ADD13C,0.450000*%
G04 #@! TD*
G04 #@! TA.AperFunction,ViaPad*
%ADD14C,0.350000*%
G04 #@! TD*
G04 #@! TA.AperFunction,ViaPad*
%ADD15C,0.370000*%
G04 #@! TD*
G04 #@! TA.AperFunction,Conductor*
%ADD16C,0.700000*%
G04 #@! TD*
G04 #@! TA.AperFunction,Conductor*
%ADD17C,0.800000*%
G04 #@! TD*
G04 #@! TA.AperFunction,Conductor*
%ADD18C,0.500000*%
G04 #@! TD*
G04 #@! TA.AperFunction,Conductor*
%ADD19C,0.200000*%
G04 #@! TD*
G04 #@! TA.AperFunction,Conductor*
%ADD20C,0.600000*%
G04 #@! TD*
G04 #@! TA.AperFunction,Conductor*
%ADD21C,0.130000*%
G04 #@! TD*
G04 #@! TA.AperFunction,Conductor*
%ADD22C,0.090000*%
G04 #@! TD*
G04 #@! TA.AperFunction,Conductor*
%ADD23C,1.000000*%
G04 #@! TD*
G04 APERTURE END LIST*
D10*
X231406822Y-54623787D03*
X228866822Y-54623787D03*
X226326822Y-54623787D03*
D11*
X222500522Y-27971687D03*
X216000522Y-27971687D03*
X222500522Y-23471687D03*
X216000522Y-23471687D03*
D10*
X230236822Y-23373787D03*
X230236822Y-25373787D03*
X230236822Y-27373787D03*
X230236822Y-29373787D03*
X230236822Y-31373787D03*
X230236822Y-33373787D03*
X230236822Y-35373787D03*
X230236822Y-37373787D03*
D11*
X212316922Y-27921687D03*
X205816922Y-27921687D03*
X212316922Y-23421687D03*
X205816922Y-23421687D03*
D10*
X188733622Y-41368387D03*
X188733622Y-39368387D03*
X188733622Y-37368387D03*
X188733622Y-35368387D03*
X188733622Y-33368387D03*
X188733622Y-31368387D03*
X188733622Y-29368387D03*
X188733622Y-27368387D03*
D12*
X195886822Y-33103787D03*
D13*
X192924622Y-43623387D03*
X193356422Y-32929987D03*
D12*
X195866822Y-35103787D03*
D13*
X195032822Y-30212187D03*
D14*
X209256822Y-33310987D03*
X194918522Y-31914687D03*
D13*
X192721422Y-42632787D03*
X193534222Y-36511387D03*
X205954822Y-30047787D03*
X202652822Y-36270787D03*
X212558822Y-52653787D03*
X232497822Y-64502187D03*
X207351822Y-33590387D03*
X193000822Y-47827787D03*
X202703622Y-57022587D03*
X230440422Y-60438187D03*
X188682822Y-47624587D03*
X196556822Y-53872987D03*
X202271822Y-34492787D03*
D14*
X201916922Y-42121687D03*
D13*
X205954822Y-31190787D03*
X218096022Y-49211387D03*
D14*
X202906822Y-38759987D03*
D13*
X194880422Y-54431787D03*
X198792022Y-54939787D03*
X230567422Y-63155987D03*
X195236022Y-57428987D03*
X213335822Y-41003387D03*
X199806822Y-51960787D03*
X188632022Y-48488187D03*
D14*
X203186222Y-40182387D03*
D13*
X211161822Y-52653787D03*
X209790222Y-43547187D03*
X232396222Y-63206787D03*
X204988522Y-44120487D03*
X207936022Y-37324187D03*
X198487222Y-52602987D03*
D14*
X201814622Y-40385587D03*
D13*
X213828822Y-52780787D03*
X229094222Y-63155987D03*
X195236022Y-56616187D03*
X193254822Y-55955787D03*
X207351822Y-35681887D03*
X188688922Y-50097187D03*
X191730822Y-56006587D03*
X208421822Y-58178787D03*
D14*
X196125022Y-52221987D03*
D13*
X206361222Y-33590387D03*
X228196822Y-60896287D03*
X187726822Y-51883787D03*
X202652822Y-35635787D03*
X205091222Y-47268987D03*
X199808022Y-54939787D03*
X206361222Y-35681887D03*
X195540822Y-55041387D03*
X230465822Y-61377987D03*
X208396822Y-56853787D03*
X214097822Y-41003387D03*
X209510822Y-29958187D03*
X209510822Y-31228187D03*
X193585022Y-45528387D03*
X192721422Y-45680787D03*
X194118422Y-53783387D03*
D14*
X197699822Y-40829387D03*
D13*
X190613222Y-49338387D03*
D14*
X232650222Y-59828587D03*
X209129822Y-52310187D03*
D12*
X195866822Y-35603787D03*
X195486471Y-35857118D03*
D13*
X203110022Y-22275387D03*
D12*
X195866822Y-33603787D03*
D13*
X224090422Y-49058987D03*
D14*
X233107422Y-59168187D03*
X206259622Y-45299787D03*
X197039422Y-34403187D03*
X195845622Y-47814387D03*
D12*
X196236822Y-34353787D03*
D14*
X209002822Y-45299787D03*
X231659622Y-60615987D03*
X196556822Y-47814387D03*
D13*
X212635022Y-43547187D03*
X213297822Y-33889387D03*
X211390422Y-43140787D03*
X213297822Y-35239387D03*
D14*
X197090222Y-36333587D03*
X201408222Y-55078787D03*
X202271822Y-52729987D03*
D12*
X196246822Y-33853787D03*
D14*
X202297222Y-53466587D03*
D12*
X196246822Y-34853787D03*
X196246822Y-35353787D03*
D14*
X200595422Y-54240587D03*
X197477222Y-35438587D03*
X202322622Y-54203187D03*
X203795822Y-42773187D03*
X204761022Y-38785387D03*
X220788422Y-58837987D03*
X198893622Y-50278187D03*
X206640622Y-49490787D03*
D13*
X203440222Y-32752187D03*
X203465622Y-33666587D03*
X196773240Y-44371254D03*
X225614422Y-41794587D03*
D14*
X197725222Y-44283787D03*
D13*
X223633222Y-43064587D03*
X229471822Y-45563787D03*
X202678222Y-44207587D03*
D14*
X198106222Y-46976187D03*
D13*
X228078222Y-45502987D03*
X197026822Y-49910587D03*
X195666822Y-45363787D03*
X220839222Y-49490787D03*
D14*
X195921822Y-46557787D03*
X203237022Y-49541587D03*
D13*
X193051822Y-49381287D03*
D14*
X197014022Y-52221987D03*
D13*
X195706822Y-49859787D03*
D14*
X204271822Y-56428787D03*
X215421822Y-56078787D03*
X218821822Y-56928787D03*
X204821822Y-54553787D03*
X203621822Y-54528787D03*
X220596822Y-54703787D03*
X207521222Y-53063787D03*
X209206022Y-53275387D03*
D13*
X218766922Y-26271687D03*
D14*
X201814622Y-41147587D03*
X221753622Y-56551987D03*
D13*
X205218222Y-53173787D03*
X218350022Y-60514387D03*
X209246822Y-58178787D03*
X229119622Y-39152987D03*
D15*
X231766922Y-23121687D03*
D13*
X234301222Y-58202987D03*
D15*
X210616922Y-21771687D03*
D13*
X207555022Y-60844587D03*
X225157222Y-26859387D03*
X230338822Y-40930987D03*
X219975622Y-46722187D03*
X199884222Y-20814187D03*
X221144022Y-36714587D03*
X214116922Y-25671687D03*
X234288522Y-52590287D03*
D14*
X189876622Y-35215987D03*
X185687678Y-52665787D03*
D13*
X227849622Y-57948987D03*
D15*
X230316922Y-21571687D03*
D13*
X208766922Y-28421687D03*
X212566822Y-53868787D03*
X204176822Y-28027787D03*
D14*
X192137222Y-44639387D03*
X224816922Y-46221687D03*
X186650822Y-42607387D03*
D13*
X191736822Y-60013787D03*
X229830822Y-51852987D03*
X217384822Y-58304587D03*
D14*
X209002822Y-46010987D03*
D13*
X202398822Y-28637387D03*
X197014022Y-49046987D03*
X216216422Y-62012987D03*
X234301222Y-47280987D03*
D15*
X219516922Y-20521687D03*
D13*
X196607622Y-57428987D03*
X188174822Y-61301787D03*
X203567222Y-50709987D03*
X226782822Y-52919787D03*
D15*
X231866922Y-24371687D03*
X204916922Y-20521687D03*
X224416922Y-20521687D03*
D13*
X212863622Y-62063787D03*
D14*
X185660222Y-47306387D03*
X231558022Y-61327187D03*
X206081822Y-46010987D03*
X202170222Y-38759987D03*
D13*
X234301222Y-41388187D03*
D15*
X223216922Y-21771687D03*
D13*
X233742422Y-26960987D03*
D14*
X185685622Y-36993987D03*
D13*
X195693222Y-48996187D03*
D15*
X229366922Y-20971687D03*
D13*
X202856022Y-61911387D03*
D14*
X219321822Y-57453787D03*
X188733622Y-46849187D03*
X227773422Y-47222187D03*
X190206822Y-38594187D03*
D12*
X195876822Y-36123787D03*
D13*
X198792022Y-56260587D03*
D15*
X211966922Y-21771687D03*
D13*
X214032022Y-62063787D03*
X222972822Y-34631787D03*
X223582422Y-25030587D03*
D14*
X220696822Y-55403787D03*
D13*
X218516922Y-22921687D03*
X231634222Y-38492587D03*
D12*
X219366022Y-38797387D03*
X221245622Y-42912187D03*
D14*
X185687678Y-61352587D03*
D13*
X192975422Y-46595187D03*
X234301222Y-39864187D03*
X214159022Y-36765387D03*
X210933222Y-24928987D03*
X187285822Y-60565187D03*
X208166922Y-22871687D03*
X228366922Y-30521687D03*
D15*
X228116922Y-22621687D03*
D13*
X204075222Y-59726987D03*
D14*
X191565722Y-47484887D03*
D15*
X202246422Y-32453787D03*
D12*
X218807222Y-45350587D03*
D13*
X229043422Y-40930987D03*
X227849622Y-26808587D03*
X226884422Y-41337387D03*
X234301222Y-35241387D03*
X234301222Y-28078587D03*
X195337622Y-61860587D03*
X234301222Y-42810587D03*
X202881422Y-30999587D03*
D14*
X222716922Y-43621687D03*
D13*
X224766922Y-28321687D03*
X199808022Y-56311387D03*
D12*
X228433822Y-36460587D03*
D13*
X208825022Y-37324187D03*
D15*
X202666922Y-21571687D03*
D13*
X204151422Y-51548187D03*
X234301222Y-48652587D03*
X197115622Y-31482187D03*
D14*
X190244922Y-41795287D03*
D13*
X225411222Y-32294987D03*
D12*
X217283222Y-31710787D03*
D13*
X221144022Y-60844587D03*
X232218422Y-31990187D03*
X221753622Y-51852987D03*
X234301222Y-50633787D03*
D12*
X222439422Y-38035387D03*
D13*
X218350022Y-24878187D03*
X206539022Y-51548187D03*
X191246822Y-61353787D03*
X220839222Y-61962187D03*
D14*
X230221822Y-47353787D03*
X191476822Y-36663787D03*
D13*
X192238822Y-61911387D03*
X232116822Y-29958187D03*
X198916822Y-58573787D03*
D14*
X189495622Y-46087187D03*
D13*
X212508022Y-51446587D03*
D15*
X228516922Y-23971687D03*
D13*
X234301222Y-44283787D03*
X208291622Y-24776587D03*
D12*
X232472422Y-44359987D03*
D13*
X202652822Y-60539787D03*
X230567422Y-63994187D03*
D14*
X194575622Y-44207587D03*
D15*
X213766922Y-21771687D03*
D12*
X226528822Y-37552787D03*
D14*
X185685622Y-38467187D03*
X195591622Y-31583787D03*
D12*
X228738622Y-32396587D03*
D13*
X234301222Y-33107787D03*
X224395222Y-62012987D03*
X234301222Y-37882987D03*
X213876822Y-53898787D03*
X231888222Y-52640387D03*
D14*
X197598222Y-40118187D03*
D13*
X204253022Y-47268987D03*
X187209622Y-49465387D03*
D14*
X226884422Y-48957387D03*
D15*
X220116922Y-21771687D03*
D12*
X214438422Y-46010987D03*
X224217422Y-40016587D03*
D13*
X232218422Y-36511387D03*
X201027222Y-29145387D03*
X192543622Y-32929987D03*
D15*
X210366922Y-20521687D03*
D13*
X214997222Y-62063787D03*
D14*
X191299022Y-39356187D03*
X189673422Y-52233987D03*
D13*
X222363222Y-61962187D03*
X199881822Y-33423787D03*
D12*
X224434151Y-36071777D03*
D13*
X220737622Y-24827387D03*
D12*
X219467622Y-41032587D03*
D13*
X211866922Y-29571687D03*
X193534222Y-37324187D03*
D15*
X216116922Y-20521687D03*
D13*
X209815622Y-52818187D03*
X198385622Y-30923387D03*
X219061222Y-61962187D03*
X192391222Y-33971387D03*
D12*
X195856822Y-34103787D03*
D13*
X191680022Y-52665787D03*
X202906822Y-29780387D03*
X217689622Y-61962187D03*
D14*
X206818422Y-53072187D03*
D13*
X204862622Y-52310187D03*
D14*
X190765622Y-35901787D03*
X185647522Y-42200987D03*
D15*
X208916922Y-21771687D03*
D13*
X195156822Y-58683787D03*
X215378222Y-34428587D03*
X197623622Y-32904587D03*
D15*
X231166922Y-22121687D03*
D14*
X185660222Y-49058987D03*
D15*
X227566922Y-20521687D03*
D14*
X187209622Y-47738187D03*
D12*
X228637022Y-34453987D03*
D13*
X190752922Y-53682487D03*
X200697022Y-32218787D03*
D15*
X228566922Y-25421687D03*
D13*
X209316922Y-26321687D03*
D14*
X190029022Y-37095587D03*
D15*
X222766922Y-20521687D03*
D13*
X200417622Y-60615987D03*
X232167622Y-34174587D03*
D12*
X226351022Y-34072987D03*
D13*
X189140022Y-60539787D03*
X234301222Y-54596187D03*
D14*
X191311722Y-41744487D03*
X204971822Y-56428787D03*
D13*
X194575622Y-45299787D03*
D15*
X221116922Y-20521687D03*
D13*
X233107422Y-38441787D03*
D15*
X205766922Y-21771687D03*
D13*
X230897622Y-58050587D03*
X205548422Y-51497387D03*
D15*
X214316922Y-20521687D03*
D13*
X212609622Y-32904587D03*
X204616922Y-30271687D03*
D15*
X202866922Y-20521687D03*
D13*
X209968022Y-39914987D03*
D14*
X215046822Y-55478787D03*
X193953322Y-43116087D03*
X203160822Y-40944387D03*
D15*
X204716922Y-21771687D03*
D13*
X190016322Y-54342887D03*
D14*
X189876622Y-49566987D03*
D13*
X190054422Y-61301787D03*
D15*
X217866922Y-20521687D03*
D14*
X198563422Y-50913187D03*
D13*
X215759222Y-58304587D03*
X211974622Y-35088987D03*
X234301222Y-56374187D03*
D15*
X215616922Y-21771687D03*
D14*
X186498422Y-35139787D03*
D13*
X199881822Y-34563787D03*
D14*
X191426022Y-37882987D03*
D13*
X201865422Y-57022587D03*
X199554022Y-46493587D03*
D12*
X217232422Y-43115387D03*
D14*
X197623622Y-34453987D03*
D13*
X207351822Y-59193587D03*
X189495622Y-47903987D03*
X220432822Y-34784187D03*
X189444822Y-48792987D03*
X201611422Y-21068187D03*
X207166922Y-25471687D03*
X207866922Y-30171687D03*
X214921022Y-32904587D03*
D15*
X218116922Y-21821687D03*
D13*
X192365822Y-37197187D03*
D14*
X195744022Y-37527387D03*
D13*
X226579622Y-61962187D03*
X205650022Y-61962187D03*
X232929622Y-52614987D03*
D15*
X207516922Y-21771687D03*
D12*
X217105422Y-36663787D03*
D13*
X220216922Y-22821687D03*
X203491022Y-44232987D03*
X198516822Y-48416287D03*
X194169222Y-61911387D03*
X219166922Y-28771687D03*
X187089022Y-43685787D03*
X195032822Y-40092787D03*
X195032822Y-29399387D03*
X203821222Y-53148387D03*
D14*
X188682822Y-53326187D03*
D13*
X234301222Y-30872587D03*
X214196822Y-57153787D03*
X203414822Y-52259387D03*
D14*
X185685622Y-55713787D03*
D13*
X209968022Y-33717387D03*
X198487222Y-51790187D03*
X193839022Y-60285787D03*
D14*
X231608822Y-46087187D03*
D13*
X204049822Y-58609387D03*
D15*
X208516922Y-20521687D03*
D13*
X196976822Y-58713787D03*
X222744222Y-33260187D03*
D14*
X197293422Y-46874587D03*
D13*
X196302822Y-40092787D03*
X197928422Y-61860587D03*
X206640622Y-61174787D03*
D12*
X195486822Y-33353787D03*
D13*
X202144822Y-59269787D03*
D14*
X185685622Y-58507787D03*
D15*
X226766922Y-21821687D03*
D13*
X201600322Y-37081287D03*
D14*
X185736422Y-35292187D03*
X190054422Y-46950787D03*
D13*
X204862622Y-50709987D03*
D15*
X212366922Y-20521687D03*
D12*
X216470422Y-47636587D03*
D13*
X216671822Y-59752387D03*
X196023422Y-60031787D03*
D14*
X195566222Y-44232987D03*
X185647522Y-43826587D03*
D13*
X209221822Y-56853787D03*
X196607622Y-56616187D03*
D15*
X224916922Y-21821687D03*
D13*
X200570022Y-61911387D03*
X211898422Y-33793587D03*
X203135422Y-53732587D03*
D15*
X221816922Y-21771687D03*
D13*
X209866922Y-22821687D03*
X208698022Y-62012987D03*
X229094222Y-63994187D03*
X231608822Y-26859387D03*
X233746822Y-63228787D03*
X191436822Y-57383787D03*
D15*
X206666922Y-20521687D03*
D13*
X192340422Y-35038187D03*
X204891822Y-37313787D03*
X198385622Y-59980987D03*
X234301222Y-45756987D03*
X192906822Y-56983787D03*
X214271822Y-58428787D03*
D14*
X185672922Y-40372187D03*
X221516922Y-46021687D03*
D13*
X224776222Y-60717587D03*
X206158022Y-50684587D03*
D15*
X226266922Y-20521687D03*
X231866922Y-25421687D03*
D14*
X185660222Y-50811587D03*
D13*
X231304022Y-46823787D03*
X230846822Y-46366587D03*
D14*
X222718822Y-50659187D03*
X231837422Y-47331787D03*
D12*
X196246822Y-35853787D03*
D13*
X197869322Y-38973787D03*
X198706822Y-32243787D03*
X199896822Y-30373787D03*
D12*
X195866822Y-32603787D03*
D13*
X193494322Y-34993787D03*
D12*
X195856822Y-34603787D03*
D14*
X205040422Y-49541587D03*
D13*
X204761022Y-45706187D03*
D16*
X205269022Y-47687387D02*
X205269022Y-47128587D01*
D17*
X206361222Y-33590387D02*
X205954822Y-33183987D01*
X204888022Y-40245187D02*
X203770422Y-39127587D01*
X204988522Y-44120487D02*
X204888022Y-44019987D01*
D16*
X200798622Y-48220787D02*
X204735622Y-48220787D01*
D18*
X214526622Y-52780787D02*
X217257822Y-50049587D01*
D17*
X204975122Y-44120487D02*
X203503722Y-45591887D01*
X203770422Y-36714587D02*
X203770422Y-36181187D01*
D19*
X228196822Y-60896287D02*
X228196822Y-60836187D01*
D17*
X203427522Y-45591887D02*
X200798622Y-48220787D01*
X203096622Y-36714587D02*
X202627422Y-36245387D01*
X203503722Y-45591887D02*
X203427522Y-45591887D01*
X204988522Y-44120487D02*
X204975122Y-44120487D01*
X205954822Y-33183987D02*
X205954822Y-30047787D01*
X204888022Y-44019987D02*
X204888022Y-40245187D01*
X202627422Y-36245387D02*
X202627422Y-34848387D01*
X199909622Y-51857987D02*
X199909622Y-49109787D01*
X199909622Y-49109787D02*
X200798622Y-48220787D01*
X202627422Y-34848387D02*
X202271822Y-34492787D01*
D18*
X213828822Y-52780787D02*
X214526622Y-52780787D01*
D17*
X199806822Y-51960787D02*
X199909622Y-51857987D01*
X203770422Y-36181187D02*
X206361222Y-33590387D01*
X206361222Y-33590387D02*
X207351822Y-33590387D01*
D20*
X228196822Y-60836187D02*
X217410222Y-50049587D01*
D17*
X203770422Y-36714587D02*
X203096622Y-36714587D01*
X203770422Y-39127587D02*
X203770422Y-36714587D01*
D18*
X217257822Y-50049587D02*
X218096022Y-49211387D01*
D19*
X217410222Y-50049587D02*
X217257822Y-50049587D01*
D16*
X204735622Y-48220787D02*
X205269022Y-47687387D01*
D21*
X194072122Y-43556087D02*
X190613222Y-47014987D01*
X190613222Y-47014987D02*
X190613222Y-49338387D01*
X197699822Y-40829387D02*
X197002022Y-40829387D01*
X194275322Y-43556087D02*
X194072122Y-43556087D01*
X197002022Y-40829387D02*
X194275322Y-43556087D01*
X203440222Y-33641187D02*
X203465622Y-33666587D01*
D20*
X200951022Y-34326987D02*
X202043222Y-33234787D01*
X200163622Y-41845387D02*
X200163622Y-36054187D01*
X200163622Y-36054187D02*
X200951022Y-35266787D01*
X200951022Y-35266787D02*
X200951022Y-34326987D01*
D22*
X196860707Y-44283787D02*
X196773240Y-44371254D01*
D20*
X202043222Y-33234787D02*
X203491022Y-33234787D01*
D23*
X197725222Y-44283787D02*
X196860707Y-44283787D01*
D20*
X197725222Y-44283787D02*
X200163622Y-41845387D01*
X203440222Y-32752187D02*
X203440222Y-33641187D01*
D19*
X200874822Y-44207587D02*
X198106222Y-46976187D01*
X202678222Y-44207587D02*
X200874822Y-44207587D01*
D21*
X197014022Y-52564187D02*
X197014022Y-52221987D01*
X203237022Y-49541587D02*
X203237022Y-49998787D01*
X203237022Y-49998787D02*
X199706422Y-53529387D01*
X199706422Y-53529387D02*
X197979222Y-53529387D01*
X197979222Y-53529387D02*
X197014022Y-52564187D01*
D19*
X204271822Y-53878787D02*
X203621822Y-54528787D01*
X220596822Y-54703787D02*
X214296822Y-54703787D01*
X214246822Y-54753787D02*
X212146822Y-54753787D01*
X214296822Y-54703787D02*
X214246822Y-54753787D01*
X211271822Y-53878787D02*
X204271822Y-53878787D01*
X212146822Y-54753787D02*
X211271822Y-53878787D01*
D21*
X207529622Y-53055387D02*
X207529622Y-40676987D01*
X207529622Y-40676987D02*
X210831622Y-37374987D01*
X210831622Y-37374987D02*
X210831622Y-28498987D01*
X205836822Y-26993787D02*
X212336822Y-26993787D01*
X207521222Y-53063787D02*
X207529622Y-53055387D01*
X210831622Y-28498987D02*
X212336822Y-26993787D01*
X215956822Y-43171787D02*
X215956822Y-27053787D01*
X208698022Y-50430587D02*
X215956822Y-43171787D01*
X215956822Y-27053787D02*
X222456822Y-27053787D01*
X209206022Y-53275387D02*
X208698022Y-52767387D01*
X208698022Y-52767387D02*
X208698022Y-50430587D01*
G04 #@! TA.AperFunction,Conductor*
G36*
X215898922Y-62343887D02*
G01*
X212442722Y-62343887D01*
X212408074Y-62329535D01*
X212393722Y-62294887D01*
X212393722Y-61757887D01*
X212408074Y-61723239D01*
X212442722Y-61708887D01*
X213384324Y-61708887D01*
X214647972Y-61505336D01*
X215911622Y-61301787D01*
X215898922Y-62343887D01*
G37*
G04 #@! TD.AperFunction*
G04 #@! TA.AperFunction,Conductor*
G36*
X228709158Y-20318291D02*
G01*
X229421431Y-20747481D01*
X232056844Y-22335486D01*
X232100840Y-22380760D01*
X232116844Y-22441831D01*
X232112860Y-26024145D01*
X232096055Y-26086339D01*
X232050313Y-26131708D01*
X231987983Y-26148004D01*
X231337668Y-26143405D01*
X231277632Y-26127416D01*
X231232888Y-26084312D01*
X231214667Y-26024916D01*
X231227545Y-25964136D01*
X231313760Y-25790993D01*
X231372084Y-25586006D01*
X231391748Y-25373787D01*
X231372084Y-25161567D01*
X231313759Y-24956578D01*
X231218761Y-24765797D01*
X231149137Y-24673602D01*
X230324502Y-25498237D01*
X230268914Y-25530331D01*
X230204727Y-25530331D01*
X230149140Y-25498237D01*
X229324505Y-24673601D01*
X229254880Y-24765798D01*
X229159884Y-24956578D01*
X229101559Y-25161567D01*
X229081895Y-25373787D01*
X229101559Y-25586006D01*
X229159883Y-25790991D01*
X229238311Y-25948497D01*
X229251167Y-26009714D01*
X229232505Y-26069418D01*
X229187073Y-26112416D01*
X229126433Y-26127765D01*
X228387975Y-26122543D01*
X228326952Y-26105991D01*
X228282023Y-26061504D01*
X228264870Y-26000647D01*
X228264251Y-25964136D01*
X228220347Y-23373787D01*
X229381637Y-23373787D01*
X229400325Y-23551591D01*
X229455571Y-23721622D01*
X229544962Y-23876452D01*
X229664593Y-24009314D01*
X229797285Y-24105722D01*
X229838291Y-24157003D01*
X229847363Y-24222034D01*
X229821956Y-24282580D01*
X229769195Y-24321665D01*
X229722025Y-24339939D01*
X229540823Y-24452134D01*
X229533748Y-24458581D01*
X229533748Y-24458582D01*
X230236822Y-25161655D01*
X230236823Y-25161655D01*
X230939894Y-24458582D01*
X230939894Y-24458581D01*
X230932822Y-24452136D01*
X230751616Y-24339938D01*
X230704449Y-24321665D01*
X230651687Y-24282581D01*
X230626280Y-24222035D01*
X230635352Y-24157003D01*
X230676356Y-24105722D01*
X230809052Y-24009313D01*
X230928681Y-23876452D01*
X231018072Y-23721622D01*
X231073319Y-23551590D01*
X231092007Y-23373787D01*
X231073319Y-23195984D01*
X231018072Y-23025952D01*
X231018072Y-23025951D01*
X230928681Y-22871121D01*
X230809050Y-22738259D01*
X230664418Y-22633176D01*
X230501086Y-22560456D01*
X230326215Y-22523287D01*
X230326213Y-22523287D01*
X230147431Y-22523287D01*
X230147429Y-22523287D01*
X229972557Y-22560456D01*
X229809230Y-22633174D01*
X229664590Y-22738261D01*
X229544962Y-22871121D01*
X229455571Y-23025951D01*
X229400325Y-23195982D01*
X229381637Y-23373787D01*
X228220347Y-23373787D01*
X228216922Y-23171687D01*
X227366922Y-22021687D01*
X227366921Y-22021686D01*
X227366922Y-22021686D01*
X222814262Y-22001674D01*
X222794398Y-21999984D01*
X222624816Y-21971687D01*
X222376228Y-21971687D01*
X222222777Y-21997292D01*
X222201823Y-21998982D01*
X216138395Y-21972329D01*
X216130829Y-21971687D01*
X215992240Y-21971687D01*
X215991695Y-21971686D01*
X212662893Y-21957052D01*
X212643029Y-21955362D01*
X212441216Y-21921687D01*
X212192628Y-21921687D01*
X212008598Y-21952395D01*
X211987644Y-21954085D01*
X205987041Y-21927708D01*
X205967181Y-21926019D01*
X205941215Y-21921687D01*
X205692623Y-21921687D01*
X205675421Y-21924557D01*
X205654470Y-21926247D01*
X204623884Y-21921717D01*
X204616921Y-21921687D01*
X204616919Y-21921687D01*
X203721344Y-22414254D01*
X203654789Y-22429417D01*
X203590294Y-22407060D01*
X203547403Y-22353959D01*
X203539113Y-22286204D01*
X203540826Y-22275386D01*
X203519741Y-22142262D01*
X203519741Y-22142261D01*
X203458550Y-22022167D01*
X203458549Y-22022165D01*
X203363243Y-21926859D01*
X203243146Y-21865667D01*
X203110022Y-21844582D01*
X202976897Y-21865667D01*
X202856801Y-21926858D01*
X202797328Y-21986332D01*
X202754998Y-22014059D01*
X202705116Y-22022567D01*
X202655989Y-22010439D01*
X202439648Y-21906595D01*
X202401634Y-21878304D01*
X202377007Y-21837819D01*
X202369365Y-21791053D01*
X202410889Y-20420744D01*
X202428720Y-20360344D01*
X202473921Y-20316492D01*
X202534833Y-20300500D01*
X228645160Y-20300500D01*
X228709158Y-20318291D01*
G37*
G04 #@! TD.AperFunction*
G04 #@! TA.AperFunction,Conductor*
G36*
X212316921Y-22856000D02*
G01*
X212831335Y-22341587D01*
X215436108Y-22341587D01*
X216000521Y-22906000D01*
X216564935Y-22341587D01*
X221936108Y-22341587D01*
X222500521Y-22906000D01*
X223064935Y-22341587D01*
X223265469Y-22341587D01*
X223723010Y-22341587D01*
X223772340Y-22354752D01*
X223808549Y-22390747D01*
X223822008Y-22439997D01*
X223824093Y-22789840D01*
X223808024Y-22844502D01*
X223764488Y-22881255D01*
X223707904Y-22887926D01*
X223658652Y-22879242D01*
X223066208Y-23471686D01*
X223658652Y-24064130D01*
X223673533Y-24061507D01*
X223677668Y-24056660D01*
X223727709Y-24039814D01*
X223779292Y-24051088D01*
X223817744Y-24087272D01*
X223832127Y-24138076D01*
X223834760Y-24579817D01*
X223846822Y-26603787D01*
X229524824Y-26616900D01*
X229578658Y-26632965D01*
X229615082Y-26675737D01*
X229622367Y-26731443D01*
X229598166Y-26782144D01*
X229528691Y-26859303D01*
X229437201Y-27017767D01*
X229380654Y-27191803D01*
X229362095Y-27368387D01*
X229361527Y-27373787D01*
X229380086Y-27550371D01*
X229380654Y-27555770D01*
X229437201Y-27729806D01*
X229528691Y-27888270D01*
X229651135Y-28024258D01*
X229799173Y-28131815D01*
X229911205Y-28181694D01*
X229966341Y-28206242D01*
X230145329Y-28244287D01*
X230328313Y-28244287D01*
X230328315Y-28244287D01*
X230507303Y-28206242D01*
X230674470Y-28131815D01*
X230822509Y-28024258D01*
X230944951Y-27888272D01*
X231036444Y-27729802D01*
X231092990Y-27555771D01*
X231112117Y-27373787D01*
X231092990Y-27191803D01*
X231036444Y-27017772D01*
X231036443Y-27017770D01*
X231036442Y-27017767D01*
X230968618Y-26900294D01*
X230944951Y-26859302D01*
X230878444Y-26785438D01*
X230854227Y-26734626D01*
X230861623Y-26678825D01*
X230898242Y-26636074D01*
X230952243Y-26620196D01*
X234255709Y-26627826D01*
X234437551Y-26628246D01*
X234486954Y-26641586D01*
X234523097Y-26677812D01*
X234536322Y-26727246D01*
X234536322Y-64786684D01*
X234523198Y-64835942D01*
X234487305Y-64872140D01*
X234438159Y-64885680D01*
X232961624Y-64898165D01*
X232913893Y-64886358D01*
X232877730Y-64853044D01*
X232862054Y-64806439D01*
X232870734Y-64758042D01*
X232876452Y-64745521D01*
X232876454Y-64745519D01*
X232929672Y-64628989D01*
X232947903Y-64502187D01*
X232929672Y-64375385D01*
X232876454Y-64258855D01*
X232792562Y-64162038D01*
X232792561Y-64162037D01*
X232792559Y-64162035D01*
X232684793Y-64092779D01*
X232561875Y-64056687D01*
X232433769Y-64056687D01*
X232310850Y-64092779D01*
X232203084Y-64162035D01*
X232119189Y-64258856D01*
X232065971Y-64375386D01*
X232047740Y-64502187D01*
X232067471Y-64639423D01*
X232061115Y-64690979D01*
X232029529Y-64732219D01*
X231981409Y-64751790D01*
X231930005Y-64744301D01*
X231721822Y-64653787D01*
X228595822Y-64653787D01*
X228546322Y-64640524D01*
X228510085Y-64604287D01*
X228496822Y-64554787D01*
X228496822Y-63375380D01*
X228511043Y-63324257D01*
X228549622Y-63287821D01*
X228601473Y-63276541D01*
X228651701Y-63293658D01*
X228685875Y-63334253D01*
X228715590Y-63399319D01*
X228799482Y-63496136D01*
X228799484Y-63496138D01*
X228907250Y-63565394D01*
X228907252Y-63565395D01*
X229030169Y-63601487D01*
X229158275Y-63601487D01*
X229281192Y-63565395D01*
X229388962Y-63496136D01*
X229472854Y-63399319D01*
X229526072Y-63282789D01*
X229544303Y-63155987D01*
X229544303Y-63155986D01*
X230117340Y-63155986D01*
X230135571Y-63282787D01*
X230135572Y-63282789D01*
X230188790Y-63399319D01*
X230272682Y-63496136D01*
X230272684Y-63496138D01*
X230380450Y-63565394D01*
X230380452Y-63565395D01*
X230503369Y-63601487D01*
X230631475Y-63601487D01*
X230754392Y-63565395D01*
X230862162Y-63496136D01*
X230946054Y-63399319D01*
X230999272Y-63282789D01*
X231010199Y-63206786D01*
X231946140Y-63206786D01*
X231964371Y-63333587D01*
X231983457Y-63375380D01*
X232017590Y-63450119D01*
X232077091Y-63518787D01*
X232101484Y-63546938D01*
X232209250Y-63616194D01*
X232209252Y-63616195D01*
X232332169Y-63652287D01*
X232460275Y-63652287D01*
X232583192Y-63616195D01*
X232690962Y-63546936D01*
X232774854Y-63450119D01*
X232828072Y-63333589D01*
X232846303Y-63206787D01*
X232828072Y-63079985D01*
X232774854Y-62963455D01*
X232690962Y-62866638D01*
X232690961Y-62866637D01*
X232690959Y-62866635D01*
X232583193Y-62797379D01*
X232460275Y-62761287D01*
X232332169Y-62761287D01*
X232209250Y-62797379D01*
X232101484Y-62866635D01*
X232017589Y-62963456D01*
X231964371Y-63079986D01*
X231946140Y-63206786D01*
X231010199Y-63206786D01*
X231017503Y-63155987D01*
X230999272Y-63029185D01*
X230946054Y-62912655D01*
X230862162Y-62815838D01*
X230862161Y-62815837D01*
X230862159Y-62815835D01*
X230754393Y-62746579D01*
X230631475Y-62710487D01*
X230503369Y-62710487D01*
X230380450Y-62746579D01*
X230272684Y-62815835D01*
X230188789Y-62912656D01*
X230135571Y-63029186D01*
X230117340Y-63155986D01*
X229544303Y-63155986D01*
X229526072Y-63029185D01*
X229472854Y-62912655D01*
X229388962Y-62815838D01*
X229388961Y-62815837D01*
X229388959Y-62815835D01*
X229281193Y-62746579D01*
X229158275Y-62710487D01*
X229030169Y-62710487D01*
X228907250Y-62746579D01*
X228799484Y-62815835D01*
X228715589Y-62912656D01*
X228685875Y-62977721D01*
X228651701Y-63018316D01*
X228601473Y-63035433D01*
X228549622Y-63024153D01*
X228511043Y-62987717D01*
X228496822Y-62936594D01*
X228496822Y-62317787D01*
X219116485Y-62337220D01*
X219116147Y-62337220D01*
X216541886Y-62333773D01*
X216539939Y-62335075D01*
X216502197Y-62342636D01*
X215898922Y-62343887D01*
X215911622Y-61301787D01*
X216368822Y-60793787D01*
X216368822Y-59269787D01*
X216368821Y-59269786D01*
X214209822Y-58837987D01*
X220387991Y-58837987D01*
X220407589Y-58961725D01*
X220407589Y-58961726D01*
X220407590Y-58961727D01*
X220464467Y-59073354D01*
X220553055Y-59161942D01*
X220664682Y-59218819D01*
X220788422Y-59238417D01*
X220912162Y-59218819D01*
X221023789Y-59161942D01*
X221112377Y-59073354D01*
X221169254Y-58961727D01*
X221188852Y-58837987D01*
X221169254Y-58714247D01*
X221112377Y-58602620D01*
X221023789Y-58514032D01*
X220912162Y-58457155D01*
X220912161Y-58457154D01*
X220912160Y-58457154D01*
X220788422Y-58437556D01*
X220664683Y-58457154D01*
X220553056Y-58514031D01*
X220464466Y-58602621D01*
X220407589Y-58714248D01*
X220387991Y-58837987D01*
X214209822Y-58837987D01*
X213908407Y-58777704D01*
X213867500Y-58759127D01*
X213839016Y-58724383D01*
X213828822Y-58680627D01*
X213828822Y-56928787D01*
X218421391Y-56928787D01*
X218440989Y-57052525D01*
X218440989Y-57052526D01*
X218440990Y-57052527D01*
X218497867Y-57164154D01*
X218586455Y-57252742D01*
X218698082Y-57309619D01*
X218821822Y-57329217D01*
X218945562Y-57309619D01*
X219057189Y-57252742D01*
X219145777Y-57164154D01*
X219202654Y-57052527D01*
X219222252Y-56928787D01*
X219202654Y-56805047D01*
X219145777Y-56693420D01*
X219057189Y-56604832D01*
X218945562Y-56547955D01*
X218945561Y-56547954D01*
X218945560Y-56547954D01*
X218821822Y-56528356D01*
X218698083Y-56547954D01*
X218586456Y-56604831D01*
X218497866Y-56693421D01*
X218440989Y-56805048D01*
X218421391Y-56928787D01*
X213828822Y-56928787D01*
X213828822Y-56729787D01*
X213798942Y-56475810D01*
X213752233Y-56078786D01*
X215021391Y-56078786D01*
X215040989Y-56202525D01*
X215040989Y-56202526D01*
X215040990Y-56202527D01*
X215097867Y-56314154D01*
X215186455Y-56402742D01*
X215298082Y-56459619D01*
X215421822Y-56479217D01*
X215545562Y-56459619D01*
X215657189Y-56402742D01*
X215745777Y-56314154D01*
X215802654Y-56202527D01*
X215822252Y-56078787D01*
X215802654Y-55955047D01*
X215745777Y-55843420D01*
X215657189Y-55754832D01*
X215545562Y-55697955D01*
X215545561Y-55697954D01*
X215545560Y-55697954D01*
X215421822Y-55678356D01*
X215298083Y-55697954D01*
X215186456Y-55754831D01*
X215097866Y-55843421D01*
X215040989Y-55955048D01*
X215021391Y-56078786D01*
X213752233Y-56078786D01*
X213647065Y-55184853D01*
X213656051Y-55130625D01*
X213692579Y-55089548D01*
X213745387Y-55074287D01*
X214228508Y-55074287D01*
X214237137Y-55074664D01*
X214275186Y-55077993D01*
X214275186Y-55077992D01*
X214275187Y-55077993D01*
X214312096Y-55068102D01*
X214320521Y-55066235D01*
X214358130Y-55059604D01*
X214359237Y-55058964D01*
X214383121Y-55049071D01*
X214384361Y-55048739D01*
X214393709Y-55042192D01*
X214450496Y-55024287D01*
X220330907Y-55024287D01*
X220375849Y-55035076D01*
X220473082Y-55084619D01*
X220596822Y-55104217D01*
X220720562Y-55084619D01*
X220832189Y-55027742D01*
X220920777Y-54939154D01*
X220977654Y-54827527D01*
X220997252Y-54703787D01*
X220982611Y-54611346D01*
X220987245Y-54562328D01*
X221014922Y-54521602D01*
X221058796Y-54499247D01*
X221108012Y-54500794D01*
X221150396Y-54525859D01*
X227853951Y-61229414D01*
X227939321Y-61294152D01*
X228072427Y-61346642D01*
X228214760Y-61361275D01*
X228214760Y-61361274D01*
X228214761Y-61361275D01*
X228299636Y-61346641D01*
X228355762Y-61336964D01*
X228484975Y-61275512D01*
X228592818Y-61181478D01*
X228671292Y-61061835D01*
X228714576Y-60925457D01*
X228719462Y-60782458D01*
X228685585Y-60643445D01*
X228615458Y-60518725D01*
X228534920Y-60438187D01*
X229990340Y-60438187D01*
X230008571Y-60564987D01*
X230044401Y-60643444D01*
X230061790Y-60681519D01*
X230145681Y-60778335D01*
X230145684Y-60778338D01*
X230230685Y-60832964D01*
X230264052Y-60868802D01*
X230276162Y-60916247D01*
X230264053Y-60963693D01*
X230230686Y-60999532D01*
X230171083Y-61037836D01*
X230087189Y-61134656D01*
X230033971Y-61251186D01*
X230015740Y-61377987D01*
X230033971Y-61504787D01*
X230033972Y-61504789D01*
X230087190Y-61621319D01*
X230171082Y-61718136D01*
X230171084Y-61718138D01*
X230278850Y-61787394D01*
X230278852Y-61787395D01*
X230401769Y-61823487D01*
X230529875Y-61823487D01*
X230652792Y-61787395D01*
X230760562Y-61718136D01*
X230844454Y-61621319D01*
X230897672Y-61504789D01*
X230915903Y-61377987D01*
X230897672Y-61251185D01*
X230844454Y-61134655D01*
X230760562Y-61037838D01*
X230760561Y-61037837D01*
X230760559Y-61037835D01*
X230675558Y-60983209D01*
X230642191Y-60947371D01*
X230630081Y-60899925D01*
X230642191Y-60852479D01*
X230675556Y-60816642D01*
X230735162Y-60778336D01*
X230819054Y-60681519D01*
X230848982Y-60615986D01*
X231259191Y-60615986D01*
X231278789Y-60739725D01*
X231278789Y-60739726D01*
X231278790Y-60739727D01*
X231335667Y-60851354D01*
X231424255Y-60939942D01*
X231535882Y-60996819D01*
X231659622Y-61016417D01*
X231783362Y-60996819D01*
X231894989Y-60939942D01*
X231983577Y-60851354D01*
X232040454Y-60739727D01*
X232060052Y-60615987D01*
X232040454Y-60492247D01*
X231983577Y-60380620D01*
X231894989Y-60292032D01*
X231783362Y-60235155D01*
X231783361Y-60235154D01*
X231783360Y-60235154D01*
X231659622Y-60215556D01*
X231535883Y-60235154D01*
X231424256Y-60292031D01*
X231335666Y-60380621D01*
X231278789Y-60492248D01*
X231259191Y-60615986D01*
X230848982Y-60615986D01*
X230872272Y-60564989D01*
X230890503Y-60438187D01*
X230872272Y-60311385D01*
X230819054Y-60194855D01*
X230735162Y-60098038D01*
X230735161Y-60098037D01*
X230735159Y-60098035D01*
X230627393Y-60028779D01*
X230504475Y-59992687D01*
X230376369Y-59992687D01*
X230253450Y-60028779D01*
X230145684Y-60098035D01*
X230061789Y-60194856D01*
X230008571Y-60311386D01*
X229990340Y-60438187D01*
X228534920Y-60438187D01*
X227925320Y-59828587D01*
X232249791Y-59828587D01*
X232269389Y-59952325D01*
X232269389Y-59952326D01*
X232269390Y-59952327D01*
X232326267Y-60063954D01*
X232414855Y-60152542D01*
X232526482Y-60209419D01*
X232565237Y-60215557D01*
X232650221Y-60229017D01*
X232650221Y-60229016D01*
X232650222Y-60229017D01*
X232773962Y-60209419D01*
X232885589Y-60152542D01*
X232974177Y-60063954D01*
X233031054Y-59952327D01*
X233050652Y-59828587D01*
X233031054Y-59704847D01*
X233031053Y-59704846D01*
X233028601Y-59689360D01*
X233029080Y-59689283D01*
X233023598Y-59666449D01*
X233034388Y-59621503D01*
X233064407Y-59586355D01*
X233107111Y-59568666D01*
X233107421Y-59568616D01*
X233107422Y-59568617D01*
X233231162Y-59549019D01*
X233342789Y-59492142D01*
X233431377Y-59403554D01*
X233488254Y-59291927D01*
X233507852Y-59168187D01*
X233488254Y-59044447D01*
X233431377Y-58932820D01*
X233342789Y-58844232D01*
X233231162Y-58787355D01*
X233231161Y-58787354D01*
X233231160Y-58787354D01*
X233107422Y-58767756D01*
X232983683Y-58787354D01*
X232872056Y-58844231D01*
X232783466Y-58932821D01*
X232726589Y-59044448D01*
X232706991Y-59168186D01*
X232729043Y-59307414D01*
X232726801Y-59307769D01*
X232732826Y-59345814D01*
X232705048Y-59400330D01*
X232650532Y-59428107D01*
X232526483Y-59447754D01*
X232414856Y-59504631D01*
X232326266Y-59593221D01*
X232269389Y-59704848D01*
X232249791Y-59828587D01*
X227925320Y-59828587D01*
X223613870Y-55517137D01*
X231079155Y-55517137D01*
X231220591Y-55560043D01*
X231406822Y-55578384D01*
X231593052Y-55560043D01*
X231734487Y-55517138D01*
X231406821Y-55189472D01*
X231079155Y-55517137D01*
X223613870Y-55517137D01*
X222720520Y-54623787D01*
X225451527Y-54623787D01*
X225470654Y-54805771D01*
X225477723Y-54827527D01*
X225527201Y-54979806D01*
X225618691Y-55138270D01*
X225741135Y-55274258D01*
X225889173Y-55381815D01*
X225936177Y-55402742D01*
X226056341Y-55456242D01*
X226235329Y-55494287D01*
X226418313Y-55494287D01*
X226418315Y-55494287D01*
X226597303Y-55456242D01*
X226764470Y-55381815D01*
X226912509Y-55274258D01*
X227034951Y-55138272D01*
X227076337Y-55066589D01*
X227126442Y-54979806D01*
X227126442Y-54979804D01*
X227126444Y-54979802D01*
X227182990Y-54805771D01*
X227202117Y-54623787D01*
X227991527Y-54623787D01*
X228010654Y-54805771D01*
X228017723Y-54827527D01*
X228067201Y-54979806D01*
X228158691Y-55138270D01*
X228281135Y-55274258D01*
X228429173Y-55381815D01*
X228476177Y-55402742D01*
X228596341Y-55456242D01*
X228775329Y-55494287D01*
X228958313Y-55494287D01*
X228958315Y-55494287D01*
X229137303Y-55456242D01*
X229304470Y-55381815D01*
X229452509Y-55274258D01*
X229574951Y-55138272D01*
X229616337Y-55066589D01*
X229666442Y-54979806D01*
X229666442Y-54979804D01*
X229666444Y-54979802D01*
X229722990Y-54805771D01*
X229742117Y-54623787D01*
X229742117Y-54623786D01*
X230452224Y-54623786D01*
X230470566Y-54810018D01*
X230513469Y-54951452D01*
X230513470Y-54951453D01*
X230841136Y-54623787D01*
X230841135Y-54623786D01*
X231972507Y-54623786D01*
X232300173Y-54951452D01*
X232343078Y-54810017D01*
X232361419Y-54623787D01*
X232343078Y-54437556D01*
X232300172Y-54296120D01*
X231972507Y-54623786D01*
X230841135Y-54623786D01*
X230513469Y-54296120D01*
X230470566Y-54437555D01*
X230452224Y-54623786D01*
X229742117Y-54623786D01*
X229722990Y-54441803D01*
X229666444Y-54267772D01*
X229666443Y-54267770D01*
X229666442Y-54267767D01*
X229574952Y-54109303D01*
X229476345Y-53999789D01*
X229452509Y-53973316D01*
X229444946Y-53967821D01*
X229304470Y-53865758D01*
X229137306Y-53791333D01*
X229137304Y-53791332D01*
X229137303Y-53791332D01*
X228958315Y-53753287D01*
X228775329Y-53753287D01*
X228685834Y-53772309D01*
X228596339Y-53791332D01*
X228429176Y-53865758D01*
X228281135Y-53973315D01*
X228158690Y-54109305D01*
X228067201Y-54267767D01*
X228010654Y-54441803D01*
X227994672Y-54593868D01*
X227991527Y-54623787D01*
X227202117Y-54623787D01*
X227182990Y-54441803D01*
X227126444Y-54267772D01*
X227126443Y-54267770D01*
X227126442Y-54267767D01*
X227034952Y-54109303D01*
X226936345Y-53999789D01*
X226912509Y-53973316D01*
X226904946Y-53967821D01*
X226764470Y-53865758D01*
X226597306Y-53791333D01*
X226597304Y-53791332D01*
X226597303Y-53791332D01*
X226418315Y-53753287D01*
X226235329Y-53753287D01*
X226145834Y-53772309D01*
X226056339Y-53791332D01*
X225889176Y-53865758D01*
X225741135Y-53973315D01*
X225618690Y-54109305D01*
X225527201Y-54267767D01*
X225470654Y-54441803D01*
X225454672Y-54593868D01*
X225451527Y-54623787D01*
X222720520Y-54623787D01*
X221827167Y-53730434D01*
X231079155Y-53730434D01*
X231406822Y-54058101D01*
X231734488Y-53730435D01*
X231734487Y-53730434D01*
X231593053Y-53687531D01*
X231406822Y-53669189D01*
X231220590Y-53687531D01*
X231079155Y-53730434D01*
X221827167Y-53730434D01*
X218755919Y-50659186D01*
X222318391Y-50659186D01*
X222337989Y-50782925D01*
X222337989Y-50782926D01*
X222337990Y-50782927D01*
X222394867Y-50894554D01*
X222483455Y-50983142D01*
X222595082Y-51040019D01*
X222718822Y-51059617D01*
X222842562Y-51040019D01*
X222954189Y-50983142D01*
X223042777Y-50894554D01*
X223099654Y-50782927D01*
X223119252Y-50659187D01*
X223119225Y-50659019D01*
X223099654Y-50535448D01*
X223099654Y-50535447D01*
X223042777Y-50423820D01*
X222954189Y-50335232D01*
X222842562Y-50278355D01*
X222842561Y-50278354D01*
X222842560Y-50278354D01*
X222718822Y-50258756D01*
X222595083Y-50278354D01*
X222483456Y-50335231D01*
X222394866Y-50423821D01*
X222337989Y-50535448D01*
X222318391Y-50659186D01*
X218755919Y-50659186D01*
X218104767Y-50008034D01*
X218079144Y-49963653D01*
X218079144Y-49912407D01*
X218104766Y-49868029D01*
X218452509Y-49520288D01*
X218474594Y-49490786D01*
X220389140Y-49490786D01*
X220407371Y-49617587D01*
X220460072Y-49732986D01*
X220460590Y-49734119D01*
X220537038Y-49822345D01*
X220544484Y-49830938D01*
X220652250Y-49900194D01*
X220652252Y-49900195D01*
X220775169Y-49936287D01*
X220903275Y-49936287D01*
X221026192Y-49900195D01*
X221133962Y-49830936D01*
X221217854Y-49734119D01*
X221271072Y-49617589D01*
X221289303Y-49490787D01*
X221286083Y-49468394D01*
X221276126Y-49399136D01*
X221271072Y-49363985D01*
X221217854Y-49247455D01*
X221133962Y-49150638D01*
X221133961Y-49150637D01*
X221133959Y-49150635D01*
X221026193Y-49081379D01*
X220949933Y-49058987D01*
X223640340Y-49058987D01*
X223658571Y-49185787D01*
X223658572Y-49185789D01*
X223711790Y-49302319D01*
X223780215Y-49381286D01*
X223795684Y-49399138D01*
X223898460Y-49465187D01*
X223903452Y-49468395D01*
X224026369Y-49504487D01*
X224154475Y-49504487D01*
X224277392Y-49468395D01*
X224385162Y-49399136D01*
X224469054Y-49302319D01*
X224522272Y-49185789D01*
X224540503Y-49058987D01*
X224522272Y-48932185D01*
X224469054Y-48815655D01*
X224385162Y-48718838D01*
X224385161Y-48718837D01*
X224385159Y-48718835D01*
X224277393Y-48649579D01*
X224154475Y-48613487D01*
X224026369Y-48613487D01*
X223903450Y-48649579D01*
X223795684Y-48718835D01*
X223711789Y-48815656D01*
X223658571Y-48932186D01*
X223640340Y-49058987D01*
X220949933Y-49058987D01*
X220903275Y-49045287D01*
X220775169Y-49045287D01*
X220652250Y-49081379D01*
X220544484Y-49150635D01*
X220460589Y-49247456D01*
X220407371Y-49363986D01*
X220389140Y-49490786D01*
X218474594Y-49490786D01*
X218513216Y-49439192D01*
X218560497Y-49312427D01*
X218570149Y-49177477D01*
X218541391Y-49045273D01*
X218539131Y-49041135D01*
X218525123Y-49015480D01*
X218476550Y-48926527D01*
X218380882Y-48830859D01*
X218353038Y-48815655D01*
X218262137Y-48766018D01*
X218129932Y-48737260D01*
X217994981Y-48746912D01*
X217868217Y-48794192D01*
X217787123Y-48854897D01*
X217573371Y-49068650D01*
X216948920Y-49693101D01*
X216948921Y-49693101D01*
X214360731Y-52281291D01*
X214328613Y-52302751D01*
X214290727Y-52310287D01*
X213795171Y-52310287D01*
X213694906Y-52324702D01*
X213571835Y-52380906D01*
X213469586Y-52469507D01*
X213396438Y-52583325D01*
X213358322Y-52713139D01*
X213358322Y-52848435D01*
X213392651Y-52965352D01*
X213396439Y-52978250D01*
X213469586Y-53092067D01*
X213538346Y-53151648D01*
X213571835Y-53180667D01*
X213694906Y-53236871D01*
X213795171Y-53251287D01*
X213795174Y-53251287D01*
X214465399Y-53251287D01*
X214486441Y-53253549D01*
X214487321Y-53253740D01*
X214492712Y-53254913D01*
X214537612Y-53251701D01*
X214539892Y-53251539D01*
X214546953Y-53251287D01*
X214560267Y-53251287D01*
X214560270Y-53251287D01*
X214573460Y-53249389D01*
X214580477Y-53248635D01*
X214627663Y-53245262D01*
X214633681Y-53243017D01*
X214654188Y-53237783D01*
X214660540Y-53236870D01*
X214703570Y-53217217D01*
X214710095Y-53214514D01*
X214754427Y-53197981D01*
X214759566Y-53194133D01*
X214777760Y-53183337D01*
X214783609Y-53180667D01*
X214819369Y-53149678D01*
X214824856Y-53145257D01*
X214835523Y-53137273D01*
X214844943Y-53127852D01*
X214850100Y-53123050D01*
X214885858Y-53092067D01*
X214889325Y-53086670D01*
X214902602Y-53070192D01*
X217228664Y-50744130D01*
X217273043Y-50718509D01*
X217324289Y-50718509D01*
X217368667Y-50744130D01*
X219075471Y-52450934D01*
X220774749Y-54150212D01*
X220802526Y-54204729D01*
X220792955Y-54265161D01*
X220749690Y-54308426D01*
X220689258Y-54317997D01*
X220596822Y-54303356D01*
X220473083Y-54322954D01*
X220433286Y-54343232D01*
X220375849Y-54372497D01*
X220330907Y-54383287D01*
X214315136Y-54383287D01*
X214306507Y-54382910D01*
X214303026Y-54382605D01*
X214268455Y-54379580D01*
X214231553Y-54389468D01*
X214223126Y-54391337D01*
X214185509Y-54397970D01*
X214184392Y-54398616D01*
X214160534Y-54408499D01*
X214159286Y-54408833D01*
X214149929Y-54415385D01*
X214093148Y-54433287D01*
X212320586Y-54433287D01*
X212282700Y-54425751D01*
X212250582Y-54404291D01*
X211511389Y-53665098D01*
X211505566Y-53658743D01*
X211481013Y-53629482D01*
X211481012Y-53629481D01*
X211481010Y-53629479D01*
X211447929Y-53610380D01*
X211440646Y-53605741D01*
X211409361Y-53583835D01*
X211408108Y-53583499D01*
X211384242Y-53573612D01*
X211383129Y-53572969D01*
X211345518Y-53566337D01*
X211337089Y-53564468D01*
X211300187Y-53554580D01*
X211265054Y-53557654D01*
X211262136Y-53557910D01*
X211253508Y-53558287D01*
X209667311Y-53558287D01*
X209618938Y-53545664D01*
X209582900Y-53511014D01*
X209568387Y-53463174D01*
X209579100Y-53414343D01*
X209586854Y-53399127D01*
X209606452Y-53275387D01*
X209600269Y-53236351D01*
X209591872Y-53183332D01*
X209586854Y-53151647D01*
X209529977Y-53040020D01*
X209441389Y-52951432D01*
X209329762Y-52894555D01*
X209329761Y-52894554D01*
X209329760Y-52894554D01*
X209266487Y-52884533D01*
X209216501Y-52861010D01*
X209186903Y-52814363D01*
X209186910Y-52759118D01*
X209216519Y-52712479D01*
X209241025Y-52700953D01*
X209239591Y-52698137D01*
X209253560Y-52691019D01*
X209253562Y-52691019D01*
X209326636Y-52653786D01*
X210711740Y-52653786D01*
X210729971Y-52780587D01*
X210760956Y-52848435D01*
X210783190Y-52897119D01*
X210853490Y-52978250D01*
X210867084Y-52993938D01*
X210969824Y-53059964D01*
X210974852Y-53063195D01*
X211097769Y-53099287D01*
X211225875Y-53099287D01*
X211348792Y-53063195D01*
X211456562Y-52993936D01*
X211540454Y-52897119D01*
X211593672Y-52780589D01*
X211611903Y-52653787D01*
X211611903Y-52653786D01*
X212108740Y-52653786D01*
X212126971Y-52780587D01*
X212157956Y-52848435D01*
X212180190Y-52897119D01*
X212250490Y-52978250D01*
X212264084Y-52993938D01*
X212366824Y-53059964D01*
X212371852Y-53063195D01*
X212494769Y-53099287D01*
X212622875Y-53099287D01*
X212745792Y-53063195D01*
X212853562Y-52993936D01*
X212937454Y-52897119D01*
X212990672Y-52780589D01*
X213008903Y-52653787D01*
X213006733Y-52638697D01*
X212996968Y-52570776D01*
X212990672Y-52526985D01*
X212937454Y-52410455D01*
X212853562Y-52313638D01*
X212853561Y-52313637D01*
X212853559Y-52313635D01*
X212745793Y-52244379D01*
X212622875Y-52208287D01*
X212494769Y-52208287D01*
X212371850Y-52244379D01*
X212264084Y-52313635D01*
X212180189Y-52410456D01*
X212126971Y-52526986D01*
X212108740Y-52653786D01*
X211611903Y-52653786D01*
X211609733Y-52638697D01*
X211599968Y-52570776D01*
X211593672Y-52526985D01*
X211540454Y-52410455D01*
X211456562Y-52313638D01*
X211456561Y-52313637D01*
X211456559Y-52313635D01*
X211348793Y-52244379D01*
X211225875Y-52208287D01*
X211097769Y-52208287D01*
X210974850Y-52244379D01*
X210867084Y-52313635D01*
X210783189Y-52410456D01*
X210729971Y-52526986D01*
X210711740Y-52653786D01*
X209326636Y-52653786D01*
X209365189Y-52634142D01*
X209453777Y-52545554D01*
X209510654Y-52433927D01*
X209530252Y-52310187D01*
X209525675Y-52281291D01*
X209516592Y-52223938D01*
X209510654Y-52186447D01*
X209453777Y-52074820D01*
X209365189Y-51986232D01*
X209253562Y-51929355D01*
X209253561Y-51929354D01*
X209253560Y-51929354D01*
X209129820Y-51909756D01*
X209098008Y-51914795D01*
X209042254Y-51907455D01*
X208999493Y-51870933D01*
X208983522Y-51817014D01*
X208983522Y-50589853D01*
X208991058Y-50551967D01*
X209012518Y-50519849D01*
X210785455Y-48746912D01*
X213165779Y-46366587D01*
X230396740Y-46366587D01*
X230414971Y-46493387D01*
X230457128Y-46585698D01*
X230468190Y-46609919D01*
X230543633Y-46696985D01*
X230552084Y-46706738D01*
X230648597Y-46768762D01*
X230659852Y-46775995D01*
X230782769Y-46812087D01*
X230782770Y-46812087D01*
X230794274Y-46815465D01*
X230841202Y-46845624D01*
X230864375Y-46896366D01*
X230872171Y-46950587D01*
X230914096Y-47042390D01*
X230925390Y-47067119D01*
X230990435Y-47142185D01*
X231009284Y-47163938D01*
X231089018Y-47215179D01*
X231117052Y-47233195D01*
X231239969Y-47269287D01*
X231342539Y-47269287D01*
X231387484Y-47280077D01*
X231422632Y-47310096D01*
X231440320Y-47352800D01*
X231456589Y-47455525D01*
X231456589Y-47455526D01*
X231456590Y-47455527D01*
X231513467Y-47567154D01*
X231602055Y-47655742D01*
X231698342Y-47704803D01*
X231736881Y-47739803D01*
X231752333Y-47789522D01*
X231740420Y-47840205D01*
X231704439Y-47877836D01*
X231701653Y-47879512D01*
X231566714Y-48007333D01*
X231462411Y-48161168D01*
X231462409Y-48161170D01*
X231462409Y-48161172D01*
X231441035Y-48214817D01*
X231393612Y-48333837D01*
X231363543Y-48517251D01*
X231373606Y-48702848D01*
X231423328Y-48881930D01*
X231423329Y-48881932D01*
X231423330Y-48881935D01*
X231510391Y-49046149D01*
X231589303Y-49139051D01*
X231630717Y-49187808D01*
X231778681Y-49300288D01*
X231778682Y-49300288D01*
X231778683Y-49300289D01*
X231947370Y-49378332D01*
X232038129Y-49398309D01*
X232128887Y-49418287D01*
X232128889Y-49418287D01*
X232268151Y-49418287D01*
X232268154Y-49418287D01*
X232406597Y-49403230D01*
X232582733Y-49343883D01*
X232741993Y-49248060D01*
X232876930Y-49120241D01*
X232981235Y-48966402D01*
X233050031Y-48793738D01*
X233080100Y-48610322D01*
X233070038Y-48424729D01*
X233020314Y-48245639D01*
X232933253Y-48081425D01*
X232812927Y-47939766D01*
X232810771Y-47938127D01*
X232664962Y-47827285D01*
X232570734Y-47783691D01*
X232496274Y-47749242D01*
X232496272Y-47749241D01*
X232496271Y-47749241D01*
X232314757Y-47709287D01*
X232314755Y-47709287D01*
X232250510Y-47709287D01*
X232202137Y-47696664D01*
X232166099Y-47662014D01*
X232151586Y-47614174D01*
X232162300Y-47565342D01*
X232174875Y-47540662D01*
X232218254Y-47455527D01*
X232237852Y-47331787D01*
X232218254Y-47208047D01*
X232161377Y-47096420D01*
X232072789Y-47007832D01*
X231961162Y-46950955D01*
X231961161Y-46950954D01*
X231961160Y-46950954D01*
X231837230Y-46931326D01*
X231790779Y-46910776D01*
X231760632Y-46869895D01*
X231756871Y-46837769D01*
X231756129Y-46837876D01*
X231741778Y-46738067D01*
X231735872Y-46696985D01*
X231682654Y-46580455D01*
X231598762Y-46483638D01*
X231598761Y-46483637D01*
X231598759Y-46483635D01*
X231490994Y-46414379D01*
X231356568Y-46374908D01*
X231309640Y-46344749D01*
X231286468Y-46294006D01*
X231278672Y-46239786D01*
X231275952Y-46233831D01*
X231225454Y-46123255D01*
X231141562Y-46026438D01*
X231141561Y-46026437D01*
X231141559Y-46026435D01*
X231033793Y-45957179D01*
X230910875Y-45921087D01*
X230782769Y-45921087D01*
X230659850Y-45957179D01*
X230552084Y-46026435D01*
X230468189Y-46123256D01*
X230414971Y-46239786D01*
X230396740Y-46366587D01*
X213165779Y-46366587D01*
X214029380Y-45502986D01*
X227628140Y-45502986D01*
X227646371Y-45629787D01*
X227669585Y-45680619D01*
X227699590Y-45746319D01*
X227780058Y-45839184D01*
X227783484Y-45843138D01*
X227891250Y-45912394D01*
X227891252Y-45912395D01*
X228014169Y-45948487D01*
X228142275Y-45948487D01*
X228265192Y-45912395D01*
X228372962Y-45843136D01*
X228456854Y-45746319D01*
X228510072Y-45629789D01*
X228519562Y-45563786D01*
X229021740Y-45563786D01*
X229039971Y-45690587D01*
X229039972Y-45690589D01*
X229093190Y-45807119D01*
X229177082Y-45903936D01*
X229177084Y-45903938D01*
X229259930Y-45957179D01*
X229284852Y-45973195D01*
X229407769Y-46009287D01*
X229535875Y-46009287D01*
X229658792Y-45973195D01*
X229766562Y-45903936D01*
X229850454Y-45807119D01*
X229903672Y-45690589D01*
X229921903Y-45563787D01*
X229903672Y-45436985D01*
X229850454Y-45320455D01*
X229766562Y-45223638D01*
X229766561Y-45223637D01*
X229766559Y-45223635D01*
X229658793Y-45154379D01*
X229535875Y-45118287D01*
X229407769Y-45118287D01*
X229284850Y-45154379D01*
X229177084Y-45223635D01*
X229093189Y-45320456D01*
X229039971Y-45436986D01*
X229021740Y-45563786D01*
X228519562Y-45563786D01*
X228528303Y-45502987D01*
X228526520Y-45490589D01*
X228510072Y-45376186D01*
X228505436Y-45366035D01*
X228456854Y-45259655D01*
X228372962Y-45162838D01*
X228372961Y-45162837D01*
X228372959Y-45162835D01*
X228265193Y-45093579D01*
X228142275Y-45057487D01*
X228014169Y-45057487D01*
X227891250Y-45093579D01*
X227783484Y-45162835D01*
X227699589Y-45259656D01*
X227646371Y-45376186D01*
X227628140Y-45502986D01*
X214029380Y-45502986D01*
X216114351Y-43418014D01*
X216126933Y-43408964D01*
X216131851Y-43403568D01*
X216131854Y-43403567D01*
X216161842Y-43370670D01*
X216164958Y-43367407D01*
X216177407Y-43354960D01*
X216177411Y-43354953D01*
X216177506Y-43354859D01*
X216185789Y-43344401D01*
X216203763Y-43324687D01*
X216206929Y-43316513D01*
X216217566Y-43296334D01*
X216222519Y-43289104D01*
X216228628Y-43263127D01*
X216232678Y-43250046D01*
X216242322Y-43225156D01*
X216242322Y-43216391D01*
X216244952Y-43193725D01*
X216245502Y-43191387D01*
X216246957Y-43185200D01*
X216243271Y-43158776D01*
X216242322Y-43145100D01*
X216242322Y-43064586D01*
X223183140Y-43064586D01*
X223201371Y-43191387D01*
X223240422Y-43276897D01*
X223254590Y-43307919D01*
X223336356Y-43402282D01*
X223338484Y-43404738D01*
X223446250Y-43473994D01*
X223446252Y-43473995D01*
X223569169Y-43510087D01*
X223697275Y-43510087D01*
X223820192Y-43473995D01*
X223921383Y-43408964D01*
X223927959Y-43404738D01*
X223927959Y-43404737D01*
X223927962Y-43404736D01*
X224011854Y-43307919D01*
X224065072Y-43191389D01*
X224083303Y-43064587D01*
X224065072Y-42937785D01*
X224011854Y-42821255D01*
X223927962Y-42724438D01*
X223927961Y-42724437D01*
X223927959Y-42724435D01*
X223820193Y-42655179D01*
X223697275Y-42619087D01*
X223569169Y-42619087D01*
X223446250Y-42655179D01*
X223338484Y-42724435D01*
X223254589Y-42821256D01*
X223201371Y-42937786D01*
X223183140Y-43064586D01*
X216242322Y-43064586D01*
X216242322Y-42517251D01*
X231363543Y-42517251D01*
X231373606Y-42702848D01*
X231423328Y-42881930D01*
X231423329Y-42881932D01*
X231423330Y-42881935D01*
X231510391Y-43046149D01*
X231541289Y-43082525D01*
X231630717Y-43187808D01*
X231778681Y-43300288D01*
X231778682Y-43300288D01*
X231778683Y-43300289D01*
X231947370Y-43378332D01*
X232038129Y-43398309D01*
X232128887Y-43418287D01*
X232128889Y-43418287D01*
X232268151Y-43418287D01*
X232268154Y-43418287D01*
X232406597Y-43403230D01*
X232582733Y-43343883D01*
X232741993Y-43248060D01*
X232876930Y-43120241D01*
X232981235Y-42966402D01*
X233050031Y-42793738D01*
X233080100Y-42610322D01*
X233070038Y-42424729D01*
X233020314Y-42245639D01*
X232933253Y-42081425D01*
X232812927Y-41939766D01*
X232788750Y-41921387D01*
X232664962Y-41827285D01*
X232570734Y-41783691D01*
X232496274Y-41749242D01*
X232496272Y-41749241D01*
X232496271Y-41749241D01*
X232314757Y-41709287D01*
X232314755Y-41709287D01*
X232175490Y-41709287D01*
X232144014Y-41712710D01*
X232037046Y-41724343D01*
X231860910Y-41783691D01*
X231788184Y-41827449D01*
X231701651Y-41879514D01*
X231567292Y-42006786D01*
X231566712Y-42007335D01*
X231462411Y-42161168D01*
X231393612Y-42333837D01*
X231363543Y-42517251D01*
X216242322Y-42517251D01*
X216242322Y-41794587D01*
X225164340Y-41794587D01*
X225182571Y-41921387D01*
X225225962Y-42016400D01*
X225235790Y-42037919D01*
X225292085Y-42102887D01*
X225319684Y-42134738D01*
X225427450Y-42203994D01*
X225427452Y-42203995D01*
X225550369Y-42240087D01*
X225678475Y-42240087D01*
X225801392Y-42203995D01*
X225909162Y-42134736D01*
X225993054Y-42037919D01*
X226046272Y-41921389D01*
X226064503Y-41794587D01*
X226046272Y-41667785D01*
X225993054Y-41551255D01*
X225909162Y-41454438D01*
X225909161Y-41454437D01*
X225909159Y-41454435D01*
X225801393Y-41385179D01*
X225678475Y-41349087D01*
X225550369Y-41349087D01*
X225427450Y-41385179D01*
X225319684Y-41454435D01*
X225235789Y-41551256D01*
X225182571Y-41667786D01*
X225164340Y-41794587D01*
X216242322Y-41794587D01*
X216242322Y-37373787D01*
X229361527Y-37373787D01*
X229380654Y-37555771D01*
X229398977Y-37612164D01*
X229437201Y-37729806D01*
X229528691Y-37888270D01*
X229651135Y-38024258D01*
X229799173Y-38131815D01*
X229911205Y-38181694D01*
X229966341Y-38206242D01*
X230145329Y-38244287D01*
X230328313Y-38244287D01*
X230328315Y-38244287D01*
X230507303Y-38206242D01*
X230674470Y-38131815D01*
X230822509Y-38024258D01*
X230944951Y-37888272D01*
X230975448Y-37835448D01*
X231036442Y-37729806D01*
X231036442Y-37729804D01*
X231036444Y-37729802D01*
X231092990Y-37555771D01*
X231112117Y-37373787D01*
X231092990Y-37191803D01*
X231036444Y-37017772D01*
X231036443Y-37017770D01*
X231036442Y-37017767D01*
X230944952Y-36859303D01*
X230822508Y-36723315D01*
X230674470Y-36615758D01*
X230507306Y-36541333D01*
X230507304Y-36541332D01*
X230507303Y-36541332D01*
X230328315Y-36503287D01*
X230145329Y-36503287D01*
X230055835Y-36522309D01*
X229966339Y-36541332D01*
X229799176Y-36615758D01*
X229651135Y-36723315D01*
X229528690Y-36859305D01*
X229437201Y-37017767D01*
X229391260Y-37159161D01*
X229380654Y-37191803D01*
X229361527Y-37373787D01*
X216242322Y-37373787D01*
X216242322Y-35373787D01*
X229361527Y-35373787D01*
X229380654Y-35555771D01*
X229390852Y-35587158D01*
X229437201Y-35729806D01*
X229528691Y-35888270D01*
X229651135Y-36024258D01*
X229799173Y-36131815D01*
X229894973Y-36174467D01*
X229966341Y-36206242D01*
X230145329Y-36244287D01*
X230328313Y-36244287D01*
X230328315Y-36244287D01*
X230507303Y-36206242D01*
X230674470Y-36131815D01*
X230822509Y-36024258D01*
X230944951Y-35888272D01*
X230997830Y-35796683D01*
X231036442Y-35729806D01*
X231036442Y-35729804D01*
X231036444Y-35729802D01*
X231092990Y-35555771D01*
X231112117Y-35373787D01*
X231092990Y-35191803D01*
X231036444Y-35017772D01*
X231036443Y-35017770D01*
X231036442Y-35017767D01*
X230944952Y-34859303D01*
X230836485Y-34738838D01*
X230822509Y-34723316D01*
X230780574Y-34692848D01*
X230674470Y-34615758D01*
X230507306Y-34541333D01*
X230507304Y-34541332D01*
X230507303Y-34541332D01*
X230328315Y-34503287D01*
X230145329Y-34503287D01*
X230055835Y-34522309D01*
X229966339Y-34541332D01*
X229799176Y-34615758D01*
X229651135Y-34723315D01*
X229528690Y-34859305D01*
X229437201Y-35017767D01*
X229380654Y-35191803D01*
X229362095Y-35368387D01*
X229361527Y-35373787D01*
X216242322Y-35373787D01*
X216242322Y-33373787D01*
X229361527Y-33373787D01*
X229380654Y-33555771D01*
X229396255Y-33603786D01*
X229437201Y-33729806D01*
X229528691Y-33888270D01*
X229651135Y-34024258D01*
X229799173Y-34131815D01*
X229880043Y-34167820D01*
X229966341Y-34206242D01*
X230145329Y-34244287D01*
X230328313Y-34244287D01*
X230328315Y-34244287D01*
X230507303Y-34206242D01*
X230674470Y-34131815D01*
X230822509Y-34024258D01*
X230944951Y-33888272D01*
X231005351Y-33783656D01*
X231036442Y-33729806D01*
X231036442Y-33729804D01*
X231036444Y-33729802D01*
X231092990Y-33555771D01*
X231112117Y-33373787D01*
X231092990Y-33191803D01*
X231036444Y-33017772D01*
X231036443Y-33017770D01*
X231036442Y-33017767D01*
X230944952Y-32859303D01*
X230822508Y-32723315D01*
X230674470Y-32615758D01*
X230507306Y-32541333D01*
X230507304Y-32541332D01*
X230507303Y-32541332D01*
X230328315Y-32503287D01*
X230145329Y-32503287D01*
X230055834Y-32522309D01*
X229966339Y-32541332D01*
X229799176Y-32615758D01*
X229651135Y-32723315D01*
X229528690Y-32859305D01*
X229437201Y-33017767D01*
X229380654Y-33191803D01*
X229363228Y-33357607D01*
X229361527Y-33373787D01*
X216242322Y-33373787D01*
X216242322Y-31373787D01*
X229361527Y-31373787D01*
X229380654Y-31555771D01*
X229389757Y-31583786D01*
X229437201Y-31729806D01*
X229528691Y-31888270D01*
X229651135Y-32024258D01*
X229799173Y-32131815D01*
X229911205Y-32181694D01*
X229966341Y-32206242D01*
X230145329Y-32244287D01*
X230328313Y-32244287D01*
X230328315Y-32244287D01*
X230507303Y-32206242D01*
X230674470Y-32131815D01*
X230822509Y-32024258D01*
X230944951Y-31888272D01*
X231036444Y-31729802D01*
X231092990Y-31555771D01*
X231112117Y-31373787D01*
X231092990Y-31191803D01*
X231036444Y-31017772D01*
X231036443Y-31017770D01*
X231036442Y-31017767D01*
X230944952Y-30859303D01*
X230822508Y-30723315D01*
X230674470Y-30615758D01*
X230507306Y-30541333D01*
X230507304Y-30541332D01*
X230507303Y-30541332D01*
X230328315Y-30503287D01*
X230145329Y-30503287D01*
X230055834Y-30522309D01*
X229966339Y-30541332D01*
X229799176Y-30615758D01*
X229651135Y-30723315D01*
X229528690Y-30859305D01*
X229437201Y-31017767D01*
X229380654Y-31191803D01*
X229362095Y-31368387D01*
X229361527Y-31373787D01*
X216242322Y-31373787D01*
X216242322Y-29373787D01*
X229361527Y-29373787D01*
X229380654Y-29555771D01*
X229399369Y-29613371D01*
X229437201Y-29729806D01*
X229528691Y-29888270D01*
X229651135Y-30024258D01*
X229799173Y-30131815D01*
X229911205Y-30181694D01*
X229966341Y-30206242D01*
X230145329Y-30244287D01*
X230328313Y-30244287D01*
X230328315Y-30244287D01*
X230507303Y-30206242D01*
X230674470Y-30131815D01*
X230822509Y-30024258D01*
X230944951Y-29888272D01*
X230985784Y-29817548D01*
X231036442Y-29729806D01*
X231036442Y-29729804D01*
X231036444Y-29729802D01*
X231092990Y-29555771D01*
X231112117Y-29373787D01*
X231092990Y-29191803D01*
X231036444Y-29017772D01*
X231036443Y-29017770D01*
X231036442Y-29017767D01*
X230944952Y-28859303D01*
X230822508Y-28723315D01*
X230674470Y-28615758D01*
X230507306Y-28541333D01*
X230507304Y-28541332D01*
X230507303Y-28541332D01*
X230328315Y-28503287D01*
X230145329Y-28503287D01*
X230072346Y-28518800D01*
X229966339Y-28541332D01*
X229799176Y-28615758D01*
X229651135Y-28723315D01*
X229528690Y-28859305D01*
X229437201Y-29017767D01*
X229380654Y-29191803D01*
X229362095Y-29368387D01*
X229361527Y-29373787D01*
X216242322Y-29373787D01*
X216242322Y-29246417D01*
X216251598Y-29204578D01*
X216277686Y-29170579D01*
X216315699Y-29150790D01*
X216320484Y-29149507D01*
X216419552Y-29122963D01*
X216613103Y-29032708D01*
X216788041Y-28910216D01*
X216939051Y-28759206D01*
X217061543Y-28584268D01*
X217151798Y-28390717D01*
X217207071Y-28184434D01*
X217225684Y-27971687D01*
X217207071Y-27758940D01*
X217151798Y-27552657D01*
X217117975Y-27480125D01*
X217108912Y-27431813D01*
X217124204Y-27385095D01*
X217160082Y-27351491D01*
X217207700Y-27339287D01*
X221293344Y-27339287D01*
X221340962Y-27351491D01*
X221376840Y-27385095D01*
X221392132Y-27431813D01*
X221383068Y-27480125D01*
X221372562Y-27502657D01*
X221349246Y-27552655D01*
X221293972Y-27758942D01*
X221275359Y-27971687D01*
X221293972Y-28184431D01*
X221349247Y-28390721D01*
X221439499Y-28584265D01*
X221439500Y-28584267D01*
X221439501Y-28584268D01*
X221561993Y-28759206D01*
X221713003Y-28910216D01*
X221887941Y-29032708D01*
X221887942Y-29032708D01*
X221887943Y-29032709D01*
X222081487Y-29122961D01*
X222081488Y-29122961D01*
X222081492Y-29122963D01*
X222287775Y-29178236D01*
X222429606Y-29190644D01*
X222500521Y-29196849D01*
X222500521Y-29196848D01*
X222500522Y-29196849D01*
X222713269Y-29178236D01*
X222919552Y-29122963D01*
X223113103Y-29032708D01*
X223288041Y-28910216D01*
X223439051Y-28759206D01*
X223561543Y-28584268D01*
X223651798Y-28390717D01*
X223707071Y-28184434D01*
X223725684Y-27971687D01*
X223707071Y-27758940D01*
X223651798Y-27552657D01*
X223628482Y-27502657D01*
X223561544Y-27359108D01*
X223547665Y-27339287D01*
X223439051Y-27184168D01*
X223288041Y-27033158D01*
X223266067Y-27017772D01*
X223113100Y-26910664D01*
X222919556Y-26820412D01*
X222713266Y-26765137D01*
X222500522Y-26746524D01*
X222285200Y-26765363D01*
X222262989Y-26768287D01*
X216238055Y-26768287D01*
X216215843Y-26765363D01*
X216000522Y-26746524D01*
X215787777Y-26765137D01*
X215581487Y-26820412D01*
X215387943Y-26910664D01*
X215213006Y-27033155D01*
X215061990Y-27184171D01*
X214939499Y-27359108D01*
X214849247Y-27552652D01*
X214793972Y-27758942D01*
X214775359Y-27971687D01*
X214793972Y-28184431D01*
X214849247Y-28390721D01*
X214939499Y-28584265D01*
X214939500Y-28584267D01*
X214939501Y-28584268D01*
X215061993Y-28759206D01*
X215213003Y-28910216D01*
X215358898Y-29012372D01*
X215387941Y-29032708D01*
X215581492Y-29122963D01*
X215597947Y-29127373D01*
X215635959Y-29147161D01*
X215662047Y-29181160D01*
X215671322Y-29222999D01*
X215671322Y-43012521D01*
X215663786Y-43050407D01*
X215642326Y-43082525D01*
X208540487Y-50184362D01*
X208527904Y-50193416D01*
X208493021Y-50231679D01*
X208489868Y-50234981D01*
X208477342Y-50247508D01*
X208469059Y-50257964D01*
X208451079Y-50277688D01*
X208447910Y-50285867D01*
X208437279Y-50306036D01*
X208432324Y-50313270D01*
X208426215Y-50339241D01*
X208422162Y-50352330D01*
X208412522Y-50377217D01*
X208412522Y-50385983D01*
X208409892Y-50408649D01*
X208407887Y-50417173D01*
X208411573Y-50443598D01*
X208412522Y-50457274D01*
X208412522Y-52704665D01*
X208410024Y-52719973D01*
X208412416Y-52771684D01*
X208412522Y-52776257D01*
X208412522Y-52793981D01*
X208414059Y-52807230D01*
X208415291Y-52833883D01*
X208418830Y-52841897D01*
X208425579Y-52863690D01*
X208427190Y-52872308D01*
X208441232Y-52894987D01*
X208447624Y-52907113D01*
X208458405Y-52931528D01*
X208464604Y-52937728D01*
X208478771Y-52955613D01*
X208483381Y-52963060D01*
X208501100Y-52976440D01*
X208503497Y-52978250D01*
X208504663Y-52979130D01*
X208515008Y-52988131D01*
X208783473Y-53256596D01*
X208811250Y-53311113D01*
X208825189Y-53399125D01*
X208825189Y-53399126D01*
X208825190Y-53399127D01*
X208832943Y-53414343D01*
X208843657Y-53463174D01*
X208829144Y-53511014D01*
X208793106Y-53545664D01*
X208744733Y-53558287D01*
X207825051Y-53558287D01*
X207770050Y-53541602D01*
X207733587Y-53497173D01*
X207727953Y-53439973D01*
X207755047Y-53389283D01*
X207756586Y-53387743D01*
X207756589Y-53387742D01*
X207845177Y-53299154D01*
X207902054Y-53187527D01*
X207921652Y-53063787D01*
X207902054Y-52940047D01*
X207845177Y-52828420D01*
X207844115Y-52827358D01*
X207822658Y-52795244D01*
X207815122Y-52757358D01*
X207815122Y-45299787D01*
X208602391Y-45299787D01*
X208621989Y-45423525D01*
X208621989Y-45423526D01*
X208621990Y-45423527D01*
X208678867Y-45535154D01*
X208767455Y-45623742D01*
X208879082Y-45680619D01*
X209002822Y-45700217D01*
X209126562Y-45680619D01*
X209238189Y-45623742D01*
X209326777Y-45535154D01*
X209383654Y-45423527D01*
X209403252Y-45299787D01*
X209383654Y-45176047D01*
X209326777Y-45064420D01*
X209238189Y-44975832D01*
X209126562Y-44918955D01*
X209126561Y-44918954D01*
X209126560Y-44918954D01*
X209002822Y-44899356D01*
X208879083Y-44918954D01*
X208767456Y-44975831D01*
X208678866Y-45064421D01*
X208621989Y-45176048D01*
X208602391Y-45299787D01*
X207815122Y-45299787D01*
X207815122Y-43547186D01*
X209340140Y-43547186D01*
X209358371Y-43673987D01*
X209388106Y-43739098D01*
X209411590Y-43790519D01*
X209495482Y-43887336D01*
X209495484Y-43887338D01*
X209603250Y-43956594D01*
X209603252Y-43956595D01*
X209726169Y-43992687D01*
X209854275Y-43992687D01*
X209977192Y-43956595D01*
X210084962Y-43887336D01*
X210168854Y-43790519D01*
X210222072Y-43673989D01*
X210240303Y-43547187D01*
X210222072Y-43420385D01*
X210168854Y-43303855D01*
X210084962Y-43207038D01*
X210084961Y-43207037D01*
X210084959Y-43207035D01*
X209981874Y-43140787D01*
X210940340Y-43140787D01*
X210958571Y-43267587D01*
X211003686Y-43366375D01*
X211011790Y-43384119D01*
X211089667Y-43473994D01*
X211095684Y-43480938D01*
X211198771Y-43547187D01*
X211203452Y-43550195D01*
X211326369Y-43586287D01*
X211454475Y-43586287D01*
X211577392Y-43550195D01*
X211582074Y-43547186D01*
X212184940Y-43547186D01*
X212203171Y-43673987D01*
X212232906Y-43739098D01*
X212256390Y-43790519D01*
X212340282Y-43887336D01*
X212340284Y-43887338D01*
X212448050Y-43956594D01*
X212448052Y-43956595D01*
X212570969Y-43992687D01*
X212699075Y-43992687D01*
X212821992Y-43956595D01*
X212929762Y-43887336D01*
X213013654Y-43790519D01*
X213066872Y-43673989D01*
X213085103Y-43547187D01*
X213066872Y-43420385D01*
X213013654Y-43303855D01*
X212929762Y-43207038D01*
X212929761Y-43207037D01*
X212929759Y-43207035D01*
X212821993Y-43137779D01*
X212699075Y-43101687D01*
X212570969Y-43101687D01*
X212448050Y-43137779D01*
X212340284Y-43207035D01*
X212256389Y-43303856D01*
X212203171Y-43420386D01*
X212184940Y-43547186D01*
X211582074Y-43547186D01*
X211685162Y-43480936D01*
X211769054Y-43384119D01*
X211822272Y-43267589D01*
X211840503Y-43140787D01*
X211822272Y-43013985D01*
X211769054Y-42897455D01*
X211685162Y-42800638D01*
X211685161Y-42800637D01*
X211685159Y-42800635D01*
X211577393Y-42731379D01*
X211454475Y-42695287D01*
X211326369Y-42695287D01*
X211203450Y-42731379D01*
X211095684Y-42800635D01*
X211011789Y-42897456D01*
X210958571Y-43013986D01*
X210940340Y-43140787D01*
X209981874Y-43140787D01*
X209977193Y-43137779D01*
X209854275Y-43101687D01*
X209726169Y-43101687D01*
X209603250Y-43137779D01*
X209495484Y-43207035D01*
X209411589Y-43303856D01*
X209358371Y-43420386D01*
X209340140Y-43547186D01*
X207815122Y-43547186D01*
X207815122Y-41003387D01*
X212885740Y-41003387D01*
X212903971Y-41130187D01*
X212903972Y-41130189D01*
X212957190Y-41246719D01*
X213003509Y-41300174D01*
X213041084Y-41343538D01*
X213105880Y-41385179D01*
X213148852Y-41412795D01*
X213271769Y-41448887D01*
X213399875Y-41448887D01*
X213522792Y-41412795D01*
X213630562Y-41343536D01*
X213642002Y-41330332D01*
X213688930Y-41300174D01*
X213744714Y-41300174D01*
X213791642Y-41330333D01*
X213803084Y-41343538D01*
X213867880Y-41385179D01*
X213910852Y-41412795D01*
X214033769Y-41448887D01*
X214161875Y-41448887D01*
X214284792Y-41412795D01*
X214392562Y-41343536D01*
X214476454Y-41246719D01*
X214529672Y-41130189D01*
X214547903Y-41003387D01*
X214529672Y-40876585D01*
X214476454Y-40760055D01*
X214392562Y-40663238D01*
X214392561Y-40663237D01*
X214392559Y-40663235D01*
X214284793Y-40593979D01*
X214161875Y-40557887D01*
X214033769Y-40557887D01*
X213910850Y-40593979D01*
X213803080Y-40663237D01*
X213791640Y-40676441D01*
X213744713Y-40706599D01*
X213688931Y-40706599D01*
X213642004Y-40676441D01*
X213630563Y-40663237D01*
X213522793Y-40593979D01*
X213399875Y-40557887D01*
X213271769Y-40557887D01*
X213148850Y-40593979D01*
X213041084Y-40663235D01*
X212957189Y-40760056D01*
X212903971Y-40876586D01*
X212885740Y-41003387D01*
X207815122Y-41003387D01*
X207815122Y-40836253D01*
X207822658Y-40798367D01*
X207844118Y-40766249D01*
X208625211Y-39985156D01*
X210989151Y-37621214D01*
X211001733Y-37612164D01*
X211006651Y-37606768D01*
X211006654Y-37606767D01*
X211036642Y-37573870D01*
X211039758Y-37570607D01*
X211052207Y-37558160D01*
X211052211Y-37558153D01*
X211052306Y-37558059D01*
X211060589Y-37547601D01*
X211078563Y-37527887D01*
X211081729Y-37519713D01*
X211092366Y-37499534D01*
X211097319Y-37492304D01*
X211103428Y-37466327D01*
X211107478Y-37453246D01*
X211117122Y-37428356D01*
X211117122Y-37419591D01*
X211119752Y-37396925D01*
X211119833Y-37396576D01*
X211121757Y-37388400D01*
X211118071Y-37361976D01*
X211117122Y-37348300D01*
X211117122Y-35239386D01*
X212847740Y-35239386D01*
X212865971Y-35366187D01*
X212865972Y-35366189D01*
X212919190Y-35482719D01*
X212989941Y-35564370D01*
X213003084Y-35579538D01*
X213100526Y-35642159D01*
X213110852Y-35648795D01*
X213233769Y-35684887D01*
X213361875Y-35684887D01*
X213484792Y-35648795D01*
X213592562Y-35579536D01*
X213676454Y-35482719D01*
X213729672Y-35366189D01*
X213747903Y-35239387D01*
X213729672Y-35112585D01*
X213676454Y-34996055D01*
X213592562Y-34899238D01*
X213592561Y-34899237D01*
X213592559Y-34899235D01*
X213484793Y-34829979D01*
X213361875Y-34793887D01*
X213233769Y-34793887D01*
X213110850Y-34829979D01*
X213003084Y-34899235D01*
X212919189Y-34996056D01*
X212865971Y-35112586D01*
X212847740Y-35239386D01*
X211117122Y-35239386D01*
X211117122Y-33889386D01*
X212847740Y-33889386D01*
X212865971Y-34016187D01*
X212908260Y-34108787D01*
X212919190Y-34132719D01*
X212979735Y-34202592D01*
X213003084Y-34229538D01*
X213110850Y-34298794D01*
X213110852Y-34298795D01*
X213233769Y-34334887D01*
X213361875Y-34334887D01*
X213484792Y-34298795D01*
X213576462Y-34239883D01*
X213592559Y-34229538D01*
X213592559Y-34229537D01*
X213592562Y-34229536D01*
X213676454Y-34132719D01*
X213729672Y-34016189D01*
X213747903Y-33889387D01*
X213747742Y-33888270D01*
X213730954Y-33771505D01*
X213729672Y-33762585D01*
X213676454Y-33646055D01*
X213592562Y-33549238D01*
X213592561Y-33549237D01*
X213592559Y-33549235D01*
X213484793Y-33479979D01*
X213361875Y-33443887D01*
X213233769Y-33443887D01*
X213110850Y-33479979D01*
X213003084Y-33549235D01*
X212919189Y-33646056D01*
X212865971Y-33762586D01*
X212847740Y-33889386D01*
X211117122Y-33889386D01*
X211117122Y-28658252D01*
X211124652Y-28620380D01*
X211146098Y-28588269D01*
X211146507Y-28587859D01*
X211149474Y-28584891D01*
X211199456Y-28557926D01*
X211256037Y-28562868D01*
X211300591Y-28598093D01*
X211378390Y-28709202D01*
X211378393Y-28709206D01*
X211529403Y-28860216D01*
X211704341Y-28982708D01*
X211704342Y-28982708D01*
X211704343Y-28982709D01*
X211897887Y-29072961D01*
X211897888Y-29072961D01*
X211897892Y-29072963D01*
X212104175Y-29128236D01*
X212316922Y-29146849D01*
X212529669Y-29128236D01*
X212735952Y-29072963D01*
X212929503Y-28982708D01*
X213104441Y-28860216D01*
X213255451Y-28709206D01*
X213377943Y-28534268D01*
X213468198Y-28340717D01*
X213523471Y-28134434D01*
X213542084Y-27921687D01*
X213523471Y-27708940D01*
X213468198Y-27502657D01*
X213429713Y-27420127D01*
X213377944Y-27309108D01*
X213357063Y-27279287D01*
X213255451Y-27134168D01*
X213104441Y-26983158D01*
X212929503Y-26860666D01*
X212929502Y-26860665D01*
X212929500Y-26860664D01*
X212735956Y-26770412D01*
X212529666Y-26715137D01*
X212316922Y-26696524D01*
X212196085Y-26707096D01*
X212186790Y-26707910D01*
X212178163Y-26708287D01*
X205955681Y-26708287D01*
X205947053Y-26707910D01*
X205936936Y-26707024D01*
X205816921Y-26696524D01*
X205604177Y-26715137D01*
X205397887Y-26770412D01*
X205204343Y-26860664D01*
X205029401Y-26983158D01*
X205012999Y-26999561D01*
X204962429Y-27026630D01*
X204905335Y-27021113D01*
X204860885Y-26984860D01*
X204843998Y-26930046D01*
X204832090Y-24509769D01*
X204846264Y-24458238D01*
X204885160Y-24421583D01*
X204937442Y-24410488D01*
X204987873Y-24428188D01*
X205164441Y-24551822D01*
X205370592Y-24647952D01*
X205590320Y-24706828D01*
X205816922Y-24726653D01*
X206043523Y-24706828D01*
X206263249Y-24647953D01*
X206409365Y-24579817D01*
X211724477Y-24579817D01*
X211870592Y-24647952D01*
X212090320Y-24706828D01*
X212316922Y-24726653D01*
X212543523Y-24706828D01*
X212763249Y-24647953D01*
X212802141Y-24629817D01*
X215408077Y-24629817D01*
X215554192Y-24697952D01*
X215773920Y-24756828D01*
X216000522Y-24776653D01*
X216227123Y-24756828D01*
X216446849Y-24697953D01*
X216592965Y-24629817D01*
X221908077Y-24629817D01*
X222054192Y-24697952D01*
X222273920Y-24756828D01*
X222500522Y-24776653D01*
X222727123Y-24756828D01*
X222946849Y-24697953D01*
X223092965Y-24629817D01*
X222500521Y-24037373D01*
X221908077Y-24629817D01*
X216592965Y-24629817D01*
X216000521Y-24037373D01*
X215408077Y-24629817D01*
X212802141Y-24629817D01*
X212909365Y-24579817D01*
X212316921Y-23987373D01*
X211724477Y-24579817D01*
X206409365Y-24579817D01*
X205321240Y-23491691D01*
X205295617Y-23447310D01*
X205295617Y-23421686D01*
X206382608Y-23421686D01*
X206975052Y-24014130D01*
X207043188Y-23868014D01*
X207102063Y-23648288D01*
X207121888Y-23421686D01*
X211011955Y-23421686D01*
X211031780Y-23648288D01*
X211090655Y-23868011D01*
X211158790Y-24014130D01*
X211751234Y-23421686D01*
X212882608Y-23421686D01*
X213475052Y-24014130D01*
X213543188Y-23868014D01*
X213602063Y-23648288D01*
X213617514Y-23471687D01*
X214695555Y-23471687D01*
X214715380Y-23698288D01*
X214774255Y-23918011D01*
X214842390Y-24064130D01*
X215434834Y-23471686D01*
X216566208Y-23471686D01*
X217158652Y-24064130D01*
X217226788Y-23918014D01*
X217285663Y-23698288D01*
X217305488Y-23471687D01*
X221195555Y-23471687D01*
X221215380Y-23698288D01*
X221274255Y-23918011D01*
X221342390Y-24064130D01*
X221934834Y-23471686D01*
X221342390Y-22879242D01*
X221274255Y-23025362D01*
X221215380Y-23245085D01*
X221195555Y-23471687D01*
X217305488Y-23471687D01*
X217285663Y-23245085D01*
X217226787Y-23025357D01*
X217158652Y-22879242D01*
X216566208Y-23471686D01*
X215434834Y-23471686D01*
X214842390Y-22879242D01*
X214774255Y-23025362D01*
X214715380Y-23245085D01*
X214695555Y-23471687D01*
X213617514Y-23471687D01*
X213621888Y-23421686D01*
X213602063Y-23195085D01*
X213543187Y-22975357D01*
X213475052Y-22829242D01*
X212882608Y-23421686D01*
X211751234Y-23421686D01*
X211158790Y-22829242D01*
X211090655Y-22975362D01*
X211031780Y-23195085D01*
X211011955Y-23421686D01*
X207121888Y-23421686D01*
X207102063Y-23195085D01*
X207043187Y-22975357D01*
X206975052Y-22829242D01*
X206382608Y-23421686D01*
X205295617Y-23421686D01*
X205295617Y-23396064D01*
X205321240Y-23351683D01*
X205816922Y-22856002D01*
X205816922Y-22856003D01*
X206331336Y-22341587D01*
X211802508Y-22341587D01*
X212316921Y-22856000D01*
G37*
G04 #@! TD.AperFunction*
G04 #@! TA.AperFunction,Conductor*
G36*
X211162025Y-27291491D02*
G01*
X211197903Y-27325095D01*
X211213195Y-27371813D01*
X211204131Y-27420125D01*
X211193932Y-27441997D01*
X211165646Y-27502655D01*
X211110372Y-27708942D01*
X211103202Y-27790892D01*
X211094303Y-27824102D01*
X211074583Y-27852266D01*
X210674087Y-28252762D01*
X210661504Y-28261816D01*
X210626621Y-28300079D01*
X210623468Y-28303381D01*
X210610942Y-28315908D01*
X210602659Y-28326364D01*
X210584679Y-28346088D01*
X210581510Y-28354267D01*
X210570879Y-28374436D01*
X210565924Y-28381670D01*
X210559815Y-28407641D01*
X210555762Y-28420730D01*
X210546122Y-28445617D01*
X210546122Y-28454383D01*
X210543492Y-28477049D01*
X210541487Y-28485573D01*
X210545173Y-28511998D01*
X210546122Y-28525674D01*
X210546122Y-37215721D01*
X210538586Y-37253607D01*
X210517126Y-37285725D01*
X207372087Y-40430762D01*
X207359504Y-40439816D01*
X207324621Y-40478079D01*
X207321468Y-40481381D01*
X207308942Y-40493908D01*
X207300659Y-40504364D01*
X207282679Y-40524088D01*
X207279510Y-40532267D01*
X207268879Y-40552436D01*
X207263924Y-40559670D01*
X207257815Y-40585641D01*
X207253762Y-40598730D01*
X207244122Y-40623617D01*
X207244122Y-40632383D01*
X207241492Y-40655049D01*
X207239487Y-40663573D01*
X207243173Y-40689998D01*
X207244122Y-40703674D01*
X207244122Y-52740558D01*
X207236586Y-52778444D01*
X207215128Y-52810558D01*
X207198325Y-52827362D01*
X207197266Y-52828421D01*
X207140389Y-52940048D01*
X207120791Y-53063787D01*
X207140389Y-53187525D01*
X207140389Y-53187526D01*
X207140390Y-53187527D01*
X207197267Y-53299154D01*
X207285855Y-53387742D01*
X207285857Y-53387743D01*
X207287397Y-53389283D01*
X207314491Y-53439973D01*
X207308857Y-53497173D01*
X207272394Y-53541602D01*
X207217393Y-53558287D01*
X204290136Y-53558287D01*
X204281507Y-53557910D01*
X204278026Y-53557605D01*
X204243455Y-53554580D01*
X204206556Y-53564467D01*
X204198130Y-53566335D01*
X204160515Y-53572968D01*
X204159396Y-53573615D01*
X204135533Y-53583499D01*
X204135420Y-53583530D01*
X204134282Y-53583835D01*
X204102990Y-53605745D01*
X204095710Y-53610383D01*
X204062629Y-53629482D01*
X204038088Y-53658729D01*
X204032255Y-53665096D01*
X203581798Y-54115553D01*
X203527282Y-54143330D01*
X203498083Y-54147954D01*
X203386456Y-54204831D01*
X203297866Y-54293421D01*
X203240989Y-54405048D01*
X203221391Y-54528787D01*
X203240989Y-54652525D01*
X203240989Y-54652526D01*
X203240990Y-54652527D01*
X203297867Y-54764154D01*
X203386455Y-54852742D01*
X203498082Y-54909619D01*
X203559951Y-54919417D01*
X203621821Y-54929217D01*
X203621821Y-54929216D01*
X203621822Y-54929217D01*
X203745562Y-54909619D01*
X203857189Y-54852742D01*
X203945777Y-54764154D01*
X204002654Y-54652527D01*
X204007279Y-54623321D01*
X204016848Y-54593868D01*
X204035049Y-54568814D01*
X204276559Y-54327304D01*
X204324951Y-54300699D01*
X204380072Y-54304157D01*
X204424762Y-54336607D01*
X204445114Y-54387950D01*
X204440151Y-54414038D01*
X204443443Y-54414560D01*
X204421391Y-54553786D01*
X204440989Y-54677525D01*
X204440989Y-54677526D01*
X204440990Y-54677527D01*
X204497867Y-54789154D01*
X204586455Y-54877742D01*
X204698082Y-54934619D01*
X204821822Y-54954217D01*
X204945562Y-54934619D01*
X205057189Y-54877742D01*
X205145777Y-54789154D01*
X205202654Y-54677527D01*
X205222252Y-54553787D01*
X205218292Y-54528787D01*
X205209924Y-54475952D01*
X205202654Y-54430047D01*
X205158418Y-54343230D01*
X205147705Y-54294400D01*
X205162218Y-54246560D01*
X205198256Y-54211910D01*
X205246629Y-54199287D01*
X207836790Y-54199287D01*
X207891303Y-54215647D01*
X207927799Y-54259320D01*
X207934216Y-54315871D01*
X207908433Y-54366611D01*
X207896822Y-54378786D01*
X207896822Y-54378787D01*
X207896822Y-54778787D01*
X208012222Y-55535987D01*
X209769511Y-56475810D01*
X209807743Y-56512223D01*
X209821822Y-56563109D01*
X209821822Y-58504787D01*
X209808559Y-58554287D01*
X209772322Y-58590524D01*
X209722822Y-58603787D01*
X208859817Y-58603787D01*
X208806293Y-58588071D01*
X208769763Y-58545913D01*
X208761825Y-58490698D01*
X208784998Y-58439956D01*
X208787077Y-58437557D01*
X208800454Y-58422119D01*
X208853672Y-58305589D01*
X208871903Y-58178787D01*
X208853672Y-58051985D01*
X208800454Y-57935455D01*
X208716562Y-57838638D01*
X208716561Y-57838637D01*
X208716559Y-57838635D01*
X208608793Y-57769379D01*
X208485875Y-57733287D01*
X208357769Y-57733287D01*
X208234850Y-57769379D01*
X208127084Y-57838635D01*
X208043189Y-57935456D01*
X207989971Y-58051986D01*
X207971740Y-58178787D01*
X207989971Y-58305587D01*
X208043190Y-58422119D01*
X208058646Y-58439956D01*
X208081819Y-58490698D01*
X208073881Y-58545913D01*
X208037351Y-58588071D01*
X207983827Y-58603787D01*
X207670822Y-58603787D01*
X207621322Y-58590524D01*
X207585085Y-58554287D01*
X207571822Y-58504787D01*
X207571822Y-56878787D01*
X207555605Y-56853786D01*
X207946740Y-56853786D01*
X207964971Y-56980587D01*
X207984151Y-57022586D01*
X208018190Y-57097119D01*
X208076276Y-57164154D01*
X208102084Y-57193938D01*
X208209850Y-57263194D01*
X208209852Y-57263195D01*
X208332769Y-57299287D01*
X208460875Y-57299287D01*
X208583792Y-57263195D01*
X208691562Y-57193936D01*
X208775454Y-57097119D01*
X208828672Y-56980589D01*
X208846903Y-56853787D01*
X208843370Y-56829217D01*
X208830883Y-56742363D01*
X208828672Y-56726985D01*
X208775454Y-56610455D01*
X208691562Y-56513638D01*
X208691561Y-56513637D01*
X208691559Y-56513635D01*
X208583793Y-56444379D01*
X208460875Y-56408287D01*
X208332769Y-56408287D01*
X208209850Y-56444379D01*
X208102084Y-56513635D01*
X208018189Y-56610456D01*
X207964971Y-56726986D01*
X207946740Y-56853786D01*
X207555605Y-56853786D01*
X207488085Y-56749692D01*
X206987764Y-55978365D01*
X206971822Y-55924491D01*
X206971822Y-55078788D01*
X206971822Y-55078787D01*
X206971821Y-55078787D01*
X206771823Y-55078787D01*
X206771822Y-55078787D01*
X206771822Y-55078788D01*
X206771822Y-56453787D01*
X206967826Y-56649792D01*
X206989286Y-56681909D01*
X206996822Y-56719795D01*
X206996822Y-58953787D01*
X208649236Y-58977393D01*
X208698136Y-58991122D01*
X208733793Y-59027292D01*
X208746822Y-59076383D01*
X208746822Y-61104787D01*
X208733559Y-61154287D01*
X208697322Y-61190524D01*
X208647822Y-61203787D01*
X207821822Y-61203787D01*
X207237787Y-61294152D01*
X205596941Y-61548032D01*
X205550669Y-61544173D01*
X205511246Y-61519642D01*
X205340969Y-61346641D01*
X204112027Y-60098035D01*
X203825265Y-59806685D01*
X203804208Y-59774761D01*
X203796822Y-59737239D01*
X203796822Y-57524918D01*
X203809604Y-57476261D01*
X203844651Y-57440168D01*
X203892912Y-57425961D01*
X205267691Y-57385526D01*
X205496822Y-57378787D01*
X205496822Y-56653787D01*
X204916525Y-56729382D01*
X204910292Y-56729994D01*
X204723925Y-56742363D01*
X204673346Y-56732254D01*
X204634717Y-56698075D01*
X204618523Y-56649104D01*
X204629159Y-56598638D01*
X204652654Y-56552527D01*
X204672252Y-56428787D01*
X204652654Y-56305047D01*
X204595777Y-56193420D01*
X204507189Y-56104832D01*
X204395562Y-56047955D01*
X204395561Y-56047954D01*
X204395560Y-56047954D01*
X204271822Y-56028356D01*
X204148083Y-56047954D01*
X204036456Y-56104831D01*
X203947866Y-56193421D01*
X203890989Y-56305048D01*
X203871391Y-56428786D01*
X203890989Y-56552525D01*
X203943633Y-56655845D01*
X203954397Y-56703038D01*
X203941502Y-56749692D01*
X203908028Y-56784657D01*
X203861980Y-56799573D01*
X203421822Y-56828787D01*
X203421822Y-57604787D01*
X203408559Y-57654287D01*
X203372322Y-57690524D01*
X203322822Y-57703787D01*
X202021822Y-57703787D01*
X204176822Y-61047787D01*
X205446822Y-61809787D01*
X208903822Y-61809787D01*
X208953322Y-61823050D01*
X208989559Y-61859287D01*
X209002822Y-61908787D01*
X209002822Y-62218787D01*
X208989559Y-62268287D01*
X208953322Y-62304524D01*
X208903822Y-62317787D01*
X205446822Y-62317787D01*
X202668566Y-62324048D01*
X191896202Y-62348325D01*
X191845781Y-62334655D01*
X190976871Y-61823487D01*
X190521822Y-61555787D01*
X190521821Y-61555787D01*
X190394906Y-61556395D01*
X185563152Y-61579580D01*
X185513453Y-61566476D01*
X185477021Y-61530219D01*
X185463678Y-61480582D01*
X185463678Y-57428986D01*
X194785940Y-57428986D01*
X194804171Y-57555787D01*
X194804172Y-57555789D01*
X194857390Y-57672319D01*
X194910219Y-57733287D01*
X194941284Y-57769138D01*
X195049050Y-57838394D01*
X195049052Y-57838395D01*
X195171969Y-57874487D01*
X195300075Y-57874487D01*
X195422992Y-57838395D01*
X195530762Y-57769136D01*
X195614654Y-57672319D01*
X195667872Y-57555789D01*
X195686103Y-57428987D01*
X195678885Y-57378787D01*
X195676578Y-57362736D01*
X195667872Y-57302185D01*
X195614654Y-57185655D01*
X195594523Y-57162422D01*
X195529532Y-57087418D01*
X195508142Y-57045927D01*
X195508142Y-57022587D01*
X202253540Y-57022587D01*
X202271771Y-57149387D01*
X202323745Y-57263194D01*
X202324990Y-57265919D01*
X202379838Y-57329217D01*
X202408884Y-57362738D01*
X202511971Y-57428987D01*
X202516652Y-57431995D01*
X202639569Y-57468087D01*
X202767675Y-57468087D01*
X202890592Y-57431995D01*
X202998362Y-57362736D01*
X203082254Y-57265919D01*
X203135472Y-57149389D01*
X203153703Y-57022587D01*
X203135472Y-56895785D01*
X203082254Y-56779255D01*
X202998362Y-56682438D01*
X202998361Y-56682437D01*
X202998359Y-56682435D01*
X202890593Y-56613179D01*
X202767675Y-56577087D01*
X202639569Y-56577087D01*
X202516650Y-56613179D01*
X202408884Y-56682435D01*
X202324989Y-56779256D01*
X202271771Y-56895786D01*
X202253540Y-57022587D01*
X195508142Y-57022587D01*
X195508142Y-56999247D01*
X195529532Y-56957756D01*
X195555170Y-56928167D01*
X195614654Y-56859519D01*
X195667872Y-56742989D01*
X195686103Y-56616187D01*
X195667872Y-56489385D01*
X195614654Y-56372855D01*
X195530762Y-56276038D01*
X195530761Y-56276037D01*
X195530759Y-56276035D01*
X195422993Y-56206779D01*
X195300075Y-56170687D01*
X195171969Y-56170687D01*
X195049050Y-56206779D01*
X194941284Y-56276035D01*
X194857389Y-56372856D01*
X194804171Y-56489386D01*
X194785940Y-56616187D01*
X194804171Y-56742987D01*
X194857390Y-56859519D01*
X194942512Y-56957756D01*
X194963902Y-56999247D01*
X194963902Y-57045927D01*
X194942512Y-57087418D01*
X194857390Y-57185654D01*
X194804171Y-57302186D01*
X194785940Y-57428986D01*
X185463678Y-57428986D01*
X185463678Y-56006586D01*
X191280740Y-56006586D01*
X191298971Y-56133387D01*
X191330546Y-56202527D01*
X191352190Y-56249919D01*
X191407848Y-56314152D01*
X191436084Y-56346738D01*
X191531858Y-56408287D01*
X191543852Y-56415995D01*
X191666769Y-56452087D01*
X191794875Y-56452087D01*
X191917792Y-56415995D01*
X192025562Y-56346736D01*
X192109454Y-56249919D01*
X192162672Y-56133389D01*
X192180903Y-56006587D01*
X192173599Y-55955787D01*
X192804740Y-55955787D01*
X192822971Y-56082587D01*
X192822972Y-56082589D01*
X192876190Y-56199119D01*
X192960082Y-56295936D01*
X192960084Y-56295938D01*
X193067850Y-56365194D01*
X193067852Y-56365195D01*
X193190769Y-56401287D01*
X193318875Y-56401287D01*
X193441792Y-56365195D01*
X193549562Y-56295936D01*
X193633454Y-56199119D01*
X193686672Y-56082589D01*
X193704903Y-55955787D01*
X193686672Y-55828985D01*
X193633454Y-55712455D01*
X193549562Y-55615638D01*
X193549561Y-55615637D01*
X193549559Y-55615635D01*
X193441793Y-55546379D01*
X193318875Y-55510287D01*
X193190769Y-55510287D01*
X193067850Y-55546379D01*
X192960084Y-55615635D01*
X192876189Y-55712456D01*
X192822971Y-55828986D01*
X192804740Y-55955787D01*
X192173599Y-55955787D01*
X192162672Y-55879785D01*
X192109454Y-55763255D01*
X192025562Y-55666438D01*
X192025561Y-55666437D01*
X192025559Y-55666435D01*
X191917793Y-55597179D01*
X191794875Y-55561087D01*
X191666769Y-55561087D01*
X191543850Y-55597179D01*
X191436084Y-55666435D01*
X191352189Y-55763256D01*
X191298971Y-55879786D01*
X191280740Y-56006586D01*
X185463678Y-56006586D01*
X185463678Y-53783386D01*
X193668340Y-53783386D01*
X193686571Y-53910187D01*
X193686572Y-53910189D01*
X193739790Y-54026719D01*
X193817886Y-54116847D01*
X193823684Y-54123538D01*
X193931450Y-54192794D01*
X193931452Y-54192795D01*
X194054369Y-54228887D01*
X194182475Y-54228887D01*
X194319050Y-54188785D01*
X194319695Y-54190982D01*
X194352064Y-54181473D01*
X194405593Y-54197184D01*
X194442128Y-54239342D01*
X194450069Y-54294561D01*
X194430340Y-54431786D01*
X194448571Y-54558587D01*
X194491471Y-54652525D01*
X194501790Y-54675119D01*
X194578937Y-54764152D01*
X194585684Y-54771938D01*
X194693450Y-54841194D01*
X194693452Y-54841195D01*
X194816369Y-54877287D01*
X194944474Y-54877287D01*
X194944475Y-54877287D01*
X194974015Y-54868612D01*
X195022949Y-54866865D01*
X195066737Y-54888783D01*
X195094664Y-54929005D01*
X195099898Y-54977691D01*
X195090740Y-55041386D01*
X195108971Y-55168187D01*
X195160006Y-55279938D01*
X195162190Y-55284719D01*
X195218058Y-55349194D01*
X195246084Y-55381538D01*
X195279079Y-55402742D01*
X195353852Y-55450795D01*
X195476769Y-55486887D01*
X195604875Y-55486887D01*
X195727792Y-55450795D01*
X195835562Y-55381536D01*
X195919454Y-55284719D01*
X195972672Y-55168189D01*
X195990903Y-55041387D01*
X195988453Y-55024350D01*
X195976295Y-54939786D01*
X198341940Y-54939786D01*
X198360171Y-55066587D01*
X198389416Y-55130625D01*
X198413390Y-55183119D01*
X198492362Y-55274258D01*
X198497284Y-55279938D01*
X198605050Y-55349194D01*
X198605052Y-55349195D01*
X198727969Y-55385287D01*
X198856075Y-55385287D01*
X198978992Y-55349195D01*
X199068680Y-55291556D01*
X199086759Y-55279938D01*
X199086759Y-55279937D01*
X199086762Y-55279936D01*
X199170654Y-55183119D01*
X199209969Y-55097031D01*
X199246499Y-55054875D01*
X199300022Y-55039159D01*
X199353545Y-55054875D01*
X199390074Y-55097031D01*
X199429390Y-55183119D01*
X199508362Y-55274258D01*
X199513284Y-55279938D01*
X199621050Y-55349194D01*
X199621052Y-55349195D01*
X199743969Y-55385287D01*
X199872075Y-55385287D01*
X199994992Y-55349195D01*
X200084680Y-55291556D01*
X200102759Y-55279938D01*
X200102759Y-55279937D01*
X200102762Y-55279936D01*
X200186654Y-55183119D01*
X200234301Y-55078787D01*
X201007791Y-55078787D01*
X201027389Y-55202525D01*
X201027389Y-55202526D01*
X201027390Y-55202527D01*
X201084267Y-55314154D01*
X201172855Y-55402742D01*
X201284482Y-55459619D01*
X201408222Y-55479217D01*
X201531962Y-55459619D01*
X201643589Y-55402742D01*
X201732177Y-55314154D01*
X201789054Y-55202527D01*
X201808652Y-55078787D01*
X201789054Y-54955047D01*
X201732177Y-54843420D01*
X201643589Y-54754832D01*
X201531962Y-54697955D01*
X201531961Y-54697954D01*
X201531960Y-54697954D01*
X201408222Y-54678356D01*
X201284483Y-54697954D01*
X201172856Y-54754831D01*
X201084266Y-54843421D01*
X201027389Y-54955048D01*
X201007791Y-55078787D01*
X200234301Y-55078787D01*
X200239872Y-55066589D01*
X200258103Y-54939787D01*
X200239872Y-54812985D01*
X200186654Y-54696455D01*
X200102762Y-54599638D01*
X200102761Y-54599637D01*
X200102759Y-54599635D01*
X199994993Y-54530379D01*
X199872075Y-54494287D01*
X199743969Y-54494287D01*
X199621050Y-54530379D01*
X199513284Y-54599635D01*
X199429389Y-54696456D01*
X199390075Y-54782541D01*
X199353545Y-54824698D01*
X199300022Y-54840414D01*
X199246499Y-54824698D01*
X199209969Y-54782541D01*
X199171339Y-54697955D01*
X199170654Y-54696455D01*
X199086762Y-54599638D01*
X199086761Y-54599637D01*
X199086759Y-54599635D01*
X198978993Y-54530379D01*
X198856075Y-54494287D01*
X198727969Y-54494287D01*
X198605050Y-54530379D01*
X198497284Y-54599635D01*
X198413389Y-54696456D01*
X198360171Y-54812986D01*
X198341940Y-54939786D01*
X195976295Y-54939786D01*
X195972672Y-54914586D01*
X195960888Y-54888783D01*
X195919454Y-54798055D01*
X195835562Y-54701238D01*
X195835561Y-54701237D01*
X195835559Y-54701235D01*
X195727793Y-54631979D01*
X195604875Y-54595887D01*
X195476769Y-54595887D01*
X195476766Y-54595887D01*
X195447226Y-54604560D01*
X195398291Y-54606307D01*
X195354505Y-54584388D01*
X195326579Y-54544166D01*
X195321345Y-54495482D01*
X195330503Y-54431787D01*
X195326658Y-54405047D01*
X195312272Y-54304986D01*
X195311893Y-54304157D01*
X195259054Y-54188455D01*
X195175162Y-54091638D01*
X195175161Y-54091637D01*
X195175159Y-54091635D01*
X195067393Y-54022379D01*
X194944475Y-53986287D01*
X194816369Y-53986287D01*
X194679794Y-54026389D01*
X194679148Y-54024192D01*
X194646763Y-54033700D01*
X194593241Y-54017983D01*
X194556712Y-53975825D01*
X194548774Y-53920611D01*
X194555621Y-53872987D01*
X196106740Y-53872987D01*
X196124971Y-53999787D01*
X196124972Y-53999789D01*
X196178190Y-54116319D01*
X196254886Y-54204831D01*
X196262084Y-54213138D01*
X196369850Y-54282394D01*
X196369852Y-54282395D01*
X196492769Y-54318487D01*
X196620875Y-54318487D01*
X196743792Y-54282395D01*
X196808847Y-54240587D01*
X200194991Y-54240587D01*
X200214589Y-54364325D01*
X200214589Y-54364326D01*
X200214590Y-54364327D01*
X200271467Y-54475954D01*
X200360055Y-54564542D01*
X200471682Y-54621419D01*
X200595422Y-54641017D01*
X200719162Y-54621419D01*
X200830789Y-54564542D01*
X200919377Y-54475954D01*
X200976254Y-54364327D01*
X200995852Y-54240587D01*
X200976254Y-54116847D01*
X200919377Y-54005220D01*
X200830789Y-53916632D01*
X200719162Y-53859755D01*
X200719161Y-53859754D01*
X200719160Y-53859754D01*
X200595422Y-53840156D01*
X200471683Y-53859754D01*
X200360056Y-53916631D01*
X200271466Y-54005221D01*
X200214589Y-54116848D01*
X200194991Y-54240587D01*
X196808847Y-54240587D01*
X196851562Y-54213136D01*
X196935454Y-54116319D01*
X196988672Y-53999789D01*
X197006903Y-53872987D01*
X196988672Y-53746185D01*
X196935454Y-53629655D01*
X196851562Y-53532838D01*
X196851561Y-53532837D01*
X196851559Y-53532835D01*
X196743793Y-53463579D01*
X196620875Y-53427487D01*
X196492769Y-53427487D01*
X196369850Y-53463579D01*
X196262084Y-53532835D01*
X196178189Y-53629656D01*
X196124971Y-53746186D01*
X196106740Y-53872987D01*
X194555621Y-53872987D01*
X194566821Y-53795085D01*
X194568503Y-53783387D01*
X194550272Y-53656585D01*
X194497054Y-53540055D01*
X194413162Y-53443238D01*
X194413161Y-53443237D01*
X194413159Y-53443235D01*
X194305393Y-53373979D01*
X194182475Y-53337887D01*
X194054369Y-53337887D01*
X193931450Y-53373979D01*
X193823684Y-53443235D01*
X193739789Y-53540056D01*
X193686571Y-53656586D01*
X193668340Y-53783386D01*
X185463678Y-53783386D01*
X185463678Y-51883786D01*
X187276740Y-51883786D01*
X187294971Y-52010587D01*
X187314088Y-52052448D01*
X187348190Y-52127119D01*
X187409652Y-52198050D01*
X187432084Y-52223938D01*
X187534653Y-52289854D01*
X187539852Y-52293195D01*
X187662769Y-52329287D01*
X187790875Y-52329287D01*
X187913792Y-52293195D01*
X188021562Y-52223936D01*
X188023251Y-52221987D01*
X195724591Y-52221987D01*
X195744189Y-52345725D01*
X195744189Y-52345726D01*
X195744190Y-52345727D01*
X195801067Y-52457354D01*
X195889655Y-52545942D01*
X196001282Y-52602819D01*
X196125022Y-52622417D01*
X196248762Y-52602819D01*
X196360389Y-52545942D01*
X196448977Y-52457354D01*
X196481313Y-52393890D01*
X196517795Y-52354426D01*
X196569522Y-52339837D01*
X196621249Y-52354426D01*
X196657730Y-52393890D01*
X196690067Y-52457354D01*
X196697771Y-52465058D01*
X196718329Y-52495071D01*
X196726659Y-52530486D01*
X196728416Y-52568484D01*
X196728522Y-52573057D01*
X196728522Y-52590781D01*
X196730059Y-52604030D01*
X196731291Y-52630683D01*
X196734830Y-52638697D01*
X196741579Y-52660490D01*
X196743190Y-52669108D01*
X196757232Y-52691787D01*
X196763624Y-52703913D01*
X196774405Y-52728328D01*
X196780604Y-52734528D01*
X196794771Y-52752413D01*
X196799381Y-52759860D01*
X196820663Y-52775930D01*
X196831008Y-52784931D01*
X197732995Y-53686918D01*
X197742050Y-53699503D01*
X197747441Y-53704418D01*
X197747442Y-53704419D01*
X197773407Y-53728089D01*
X197780303Y-53734376D01*
X197783608Y-53737532D01*
X197796141Y-53750065D01*
X197806600Y-53758349D01*
X197826322Y-53776328D01*
X197829562Y-53777583D01*
X197834491Y-53779493D01*
X197854672Y-53790130D01*
X197861905Y-53795085D01*
X197887874Y-53801192D01*
X197900975Y-53805249D01*
X197925852Y-53814887D01*
X197925853Y-53814887D01*
X197934616Y-53814887D01*
X197957279Y-53817516D01*
X197965809Y-53819522D01*
X197992232Y-53815835D01*
X198005909Y-53814887D01*
X199643700Y-53814887D01*
X199659008Y-53817384D01*
X199710719Y-53814993D01*
X199715292Y-53814887D01*
X199733013Y-53814887D01*
X199746256Y-53813349D01*
X199772919Y-53812117D01*
X199780935Y-53808576D01*
X199802726Y-53801829D01*
X199811343Y-53800219D01*
X199834037Y-53786166D01*
X199846140Y-53779786D01*
X199870563Y-53769004D01*
X199876758Y-53762807D01*
X199894651Y-53748636D01*
X199902094Y-53744028D01*
X199918173Y-53722734D01*
X199927160Y-53712405D01*
X200909578Y-52729987D01*
X201871391Y-52729987D01*
X201890989Y-52853725D01*
X201890989Y-52853726D01*
X201890990Y-52853727D01*
X201947867Y-52965354D01*
X202023498Y-53040985D01*
X202049120Y-53085364D01*
X202049120Y-53136610D01*
X202023498Y-53180988D01*
X201989975Y-53214512D01*
X201973266Y-53231221D01*
X201916389Y-53342848D01*
X201896791Y-53466587D01*
X201916389Y-53590325D01*
X201916389Y-53590326D01*
X201916390Y-53590327D01*
X201973267Y-53701954D01*
X202048898Y-53777585D01*
X202074520Y-53821964D01*
X202074520Y-53873210D01*
X202048898Y-53917588D01*
X201998667Y-53967820D01*
X201998666Y-53967821D01*
X201941789Y-54079448D01*
X201922191Y-54203187D01*
X201941789Y-54326925D01*
X201941789Y-54326926D01*
X201941790Y-54326927D01*
X201998667Y-54438554D01*
X202087255Y-54527142D01*
X202198882Y-54584019D01*
X202322622Y-54603617D01*
X202446362Y-54584019D01*
X202557989Y-54527142D01*
X202646577Y-54438554D01*
X202703454Y-54326927D01*
X202723052Y-54203187D01*
X202703454Y-54079447D01*
X202646577Y-53967820D01*
X202570945Y-53892188D01*
X202545324Y-53847810D01*
X202545324Y-53796564D01*
X202570945Y-53752185D01*
X202621177Y-53701954D01*
X202678054Y-53590327D01*
X202697652Y-53466587D01*
X202678054Y-53342847D01*
X202621177Y-53231220D01*
X202545545Y-53155588D01*
X202519924Y-53111210D01*
X202519924Y-53059964D01*
X202545545Y-53015585D01*
X202595777Y-52965354D01*
X202652654Y-52853727D01*
X202672252Y-52729987D01*
X202652654Y-52606247D01*
X202595777Y-52494620D01*
X202507189Y-52406032D01*
X202395562Y-52349155D01*
X202395561Y-52349154D01*
X202395560Y-52349154D01*
X202271822Y-52329556D01*
X202148083Y-52349154D01*
X202036456Y-52406031D01*
X201947866Y-52494621D01*
X201890989Y-52606248D01*
X201871391Y-52729987D01*
X200909578Y-52729987D01*
X203394551Y-50245014D01*
X203407133Y-50235964D01*
X203412051Y-50230568D01*
X203412054Y-50230567D01*
X203442042Y-50197670D01*
X203445158Y-50194407D01*
X203457607Y-50181960D01*
X203457611Y-50181953D01*
X203457706Y-50181859D01*
X203465989Y-50171401D01*
X203483963Y-50151687D01*
X203487129Y-50143513D01*
X203497766Y-50123334D01*
X203502719Y-50116104D01*
X203508828Y-50090127D01*
X203512878Y-50077046D01*
X203522522Y-50052156D01*
X203522522Y-50043391D01*
X203525152Y-50020725D01*
X203525233Y-50020376D01*
X203527157Y-50012200D01*
X203523471Y-49985776D01*
X203522522Y-49972100D01*
X203522522Y-49856416D01*
X203530058Y-49818530D01*
X203551515Y-49786415D01*
X203560977Y-49776954D01*
X203617854Y-49665327D01*
X203637452Y-49541587D01*
X204639991Y-49541587D01*
X204659589Y-49665325D01*
X204659589Y-49665326D01*
X204659590Y-49665327D01*
X204716467Y-49776954D01*
X204805055Y-49865542D01*
X204916682Y-49922419D01*
X205040422Y-49942017D01*
X205164162Y-49922419D01*
X205275789Y-49865542D01*
X205364377Y-49776954D01*
X205421254Y-49665327D01*
X205440852Y-49541587D01*
X205432806Y-49490786D01*
X206240191Y-49490786D01*
X206259789Y-49614525D01*
X206259789Y-49614526D01*
X206259790Y-49614527D01*
X206316667Y-49726154D01*
X206405255Y-49814742D01*
X206516882Y-49871619D01*
X206640622Y-49891217D01*
X206764362Y-49871619D01*
X206875989Y-49814742D01*
X206964577Y-49726154D01*
X207021454Y-49614527D01*
X207041052Y-49490787D01*
X207036997Y-49465187D01*
X207021454Y-49367048D01*
X207021454Y-49367047D01*
X206964577Y-49255420D01*
X206875989Y-49166832D01*
X206764362Y-49109955D01*
X206764361Y-49109954D01*
X206764360Y-49109954D01*
X206640622Y-49090356D01*
X206516883Y-49109954D01*
X206405256Y-49166831D01*
X206316666Y-49255421D01*
X206259789Y-49367048D01*
X206240191Y-49490786D01*
X205432806Y-49490786D01*
X205421254Y-49417847D01*
X205364377Y-49306220D01*
X205275789Y-49217632D01*
X205164162Y-49160755D01*
X205164161Y-49160754D01*
X205164160Y-49160754D01*
X205040422Y-49141156D01*
X204916683Y-49160754D01*
X204805056Y-49217631D01*
X204716466Y-49306221D01*
X204659589Y-49417848D01*
X204639991Y-49541587D01*
X203637452Y-49541587D01*
X203617854Y-49417847D01*
X203560977Y-49306220D01*
X203472389Y-49217632D01*
X203360762Y-49160755D01*
X203360761Y-49160754D01*
X203360760Y-49160754D01*
X203237022Y-49141156D01*
X203113283Y-49160754D01*
X203001656Y-49217631D01*
X202913066Y-49306221D01*
X202856189Y-49417848D01*
X202836591Y-49541587D01*
X202856189Y-49665325D01*
X202856189Y-49665326D01*
X202856190Y-49665327D01*
X202913067Y-49776954D01*
X202914079Y-49777966D01*
X202939701Y-49822345D01*
X202939701Y-49873591D01*
X202914078Y-49917972D01*
X200659729Y-52172321D01*
X200615549Y-52197890D01*
X200564504Y-52198050D01*
X200520164Y-52172760D01*
X200494317Y-52128742D01*
X200493835Y-52077702D01*
X200496546Y-52067139D01*
X200501577Y-52052448D01*
X200502602Y-52050081D01*
X200510220Y-52032477D01*
X200517176Y-51988549D01*
X200519066Y-51979431D01*
X200528899Y-51941139D01*
X200530122Y-51936374D01*
X200530122Y-51914612D01*
X200531341Y-51899124D01*
X200534745Y-51877632D01*
X200530561Y-51833367D01*
X200530122Y-51824051D01*
X200530122Y-49407815D01*
X200537658Y-49369929D01*
X200559118Y-49337811D01*
X201076646Y-48820283D01*
X201108764Y-48798823D01*
X201146650Y-48791287D01*
X204691733Y-48791287D01*
X204704655Y-48792134D01*
X204735622Y-48796211D01*
X204884553Y-48776603D01*
X205023334Y-48719118D01*
X205080736Y-48675070D01*
X205142508Y-48627673D01*
X205161524Y-48602888D01*
X205170047Y-48593169D01*
X205641404Y-48121812D01*
X205651125Y-48113288D01*
X205675908Y-48094273D01*
X205680636Y-48088112D01*
X205742619Y-48007333D01*
X205756303Y-47989499D01*
X205767353Y-47975099D01*
X205824838Y-47836317D01*
X205844446Y-47687387D01*
X205840368Y-47656418D01*
X205839522Y-47643497D01*
X205839522Y-47091192D01*
X205824838Y-46979657D01*
X205804831Y-46931357D01*
X205767353Y-46840876D01*
X205675908Y-46721701D01*
X205675906Y-46721699D01*
X205675905Y-46721698D01*
X205556735Y-46630256D01*
X205417951Y-46572770D01*
X205269022Y-46553164D01*
X205120092Y-46572770D01*
X204981312Y-46630255D01*
X204862136Y-46721701D01*
X204770690Y-46840877D01*
X204713206Y-46979656D01*
X204706882Y-47027684D01*
X204698783Y-47055883D01*
X204659371Y-47142185D01*
X204641140Y-47268987D01*
X204659371Y-47395788D01*
X204660425Y-47398096D01*
X204667798Y-47456799D01*
X204640375Y-47509224D01*
X204528310Y-47621290D01*
X204496192Y-47642751D01*
X204458306Y-47650287D01*
X202485650Y-47650287D01*
X202430649Y-47633603D01*
X202394186Y-47589173D01*
X202388552Y-47531973D01*
X202415646Y-47481283D01*
X202732993Y-47163936D01*
X203704451Y-46192476D01*
X203746839Y-46167411D01*
X203752111Y-46165880D01*
X203770846Y-46154799D01*
X203784784Y-46147971D01*
X203805026Y-46139957D01*
X203840998Y-46113820D01*
X203848771Y-46108714D01*
X203887054Y-46086075D01*
X203902440Y-46070687D01*
X203914252Y-46060598D01*
X203931860Y-46047807D01*
X203960194Y-46013555D01*
X203966461Y-46006666D01*
X204169085Y-45804042D01*
X204209504Y-45779571D01*
X204256664Y-45776621D01*
X204299820Y-45795865D01*
X204329140Y-45832921D01*
X204370790Y-45924119D01*
X204382390Y-45949519D01*
X204466282Y-46046336D01*
X204466284Y-46046338D01*
X204571304Y-46113829D01*
X204574052Y-46115595D01*
X204696969Y-46151687D01*
X204825075Y-46151687D01*
X204947992Y-46115595D01*
X205055762Y-46046336D01*
X205139654Y-45949519D01*
X205192872Y-45832989D01*
X205211103Y-45706187D01*
X205192872Y-45579385D01*
X205139654Y-45462855D01*
X205055762Y-45366038D01*
X205055761Y-45366037D01*
X205055759Y-45366035D01*
X204952675Y-45299787D01*
X205859191Y-45299787D01*
X205878789Y-45423525D01*
X205878789Y-45423526D01*
X205878790Y-45423527D01*
X205935667Y-45535154D01*
X206024255Y-45623742D01*
X206135882Y-45680619D01*
X206259622Y-45700217D01*
X206383362Y-45680619D01*
X206494989Y-45623742D01*
X206583577Y-45535154D01*
X206640454Y-45423527D01*
X206660052Y-45299787D01*
X206640454Y-45176047D01*
X206583577Y-45064420D01*
X206494989Y-44975832D01*
X206383362Y-44918955D01*
X206383361Y-44918954D01*
X206383360Y-44918954D01*
X206259622Y-44899356D01*
X206135883Y-44918954D01*
X206024256Y-44975831D01*
X205935666Y-45064421D01*
X205878789Y-45176048D01*
X205859191Y-45299787D01*
X204952675Y-45299787D01*
X204947994Y-45296779D01*
X204898103Y-45282130D01*
X204854753Y-45255883D01*
X204830070Y-45211623D01*
X204830522Y-45160948D01*
X204855991Y-45117137D01*
X205337368Y-44635759D01*
X205351719Y-44623885D01*
X205402128Y-44589630D01*
X205402130Y-44589626D01*
X205402809Y-44589166D01*
X205416138Y-44577038D01*
X205459429Y-44524708D01*
X205461450Y-44522341D01*
X205505804Y-44472032D01*
X205505805Y-44472028D01*
X205506351Y-44471410D01*
X205516241Y-44456355D01*
X205545155Y-44394907D01*
X205546525Y-44392110D01*
X205576979Y-44332344D01*
X205576979Y-44332340D01*
X205577350Y-44331614D01*
X205583188Y-44314564D01*
X205583341Y-44313759D01*
X205583343Y-44313756D01*
X205595926Y-44247791D01*
X205596538Y-44244841D01*
X205611356Y-44178551D01*
X205612770Y-44160576D01*
X205612718Y-44159763D01*
X205612720Y-44159758D01*
X205608503Y-44092744D01*
X205608360Y-44089707D01*
X205606254Y-44022648D01*
X205606253Y-44022646D01*
X205606228Y-44021831D01*
X205603128Y-44004070D01*
X205602876Y-44003293D01*
X205582134Y-43939458D01*
X205581229Y-43936515D01*
X205580657Y-43934545D01*
X205562515Y-43872098D01*
X205562513Y-43872095D01*
X205562286Y-43871312D01*
X205554869Y-43854884D01*
X205554430Y-43854193D01*
X205554430Y-43854191D01*
X205523933Y-43806136D01*
X205508522Y-43753091D01*
X205508522Y-40324622D01*
X205510703Y-40304859D01*
X205510677Y-40304048D01*
X205510678Y-40304046D01*
X205508570Y-40236993D01*
X205508522Y-40233885D01*
X205508522Y-40206149D01*
X205508522Y-40206146D01*
X205507881Y-40201075D01*
X205507149Y-40191774D01*
X205505754Y-40147349D01*
X205499682Y-40126449D01*
X205496533Y-40111245D01*
X205493805Y-40089648D01*
X205482713Y-40061632D01*
X205477437Y-40048306D01*
X205474416Y-40039482D01*
X205462015Y-39996798D01*
X205450936Y-39978064D01*
X205444106Y-39964123D01*
X205436092Y-39943883D01*
X205409955Y-39907909D01*
X205404837Y-39900117D01*
X205382211Y-39861856D01*
X205366818Y-39846463D01*
X205356728Y-39834648D01*
X205343941Y-39817048D01*
X205309690Y-39788713D01*
X205302791Y-39782436D01*
X204849822Y-39329467D01*
X204822045Y-39274950D01*
X204831616Y-39214518D01*
X204874881Y-39171253D01*
X204884760Y-39166219D01*
X204884762Y-39166219D01*
X204996389Y-39109342D01*
X205084977Y-39020754D01*
X205141854Y-38909127D01*
X205161452Y-38785387D01*
X205141854Y-38661647D01*
X205084977Y-38550020D01*
X204996389Y-38461432D01*
X204884762Y-38404555D01*
X204884761Y-38404554D01*
X204884760Y-38404554D01*
X204761021Y-38384956D01*
X204637283Y-38404554D01*
X204597277Y-38424938D01*
X204534864Y-38456739D01*
X204486035Y-38467453D01*
X204438195Y-38452940D01*
X204403545Y-38416903D01*
X204390922Y-38368529D01*
X204390922Y-37324186D01*
X207485940Y-37324186D01*
X207504171Y-37450987D01*
X207537618Y-37524226D01*
X207557390Y-37567519D01*
X207641282Y-37664336D01*
X207641284Y-37664338D01*
X207743156Y-37729806D01*
X207749052Y-37733595D01*
X207871969Y-37769687D01*
X208000075Y-37769687D01*
X208122992Y-37733595D01*
X208230762Y-37664336D01*
X208314654Y-37567519D01*
X208367872Y-37450989D01*
X208386103Y-37324187D01*
X208382842Y-37301509D01*
X208373939Y-37239581D01*
X208367872Y-37197385D01*
X208314654Y-37080855D01*
X208230762Y-36984038D01*
X208230761Y-36984037D01*
X208230759Y-36984035D01*
X208122993Y-36914779D01*
X208000075Y-36878687D01*
X207871969Y-36878687D01*
X207749050Y-36914779D01*
X207641284Y-36984035D01*
X207557389Y-37080856D01*
X207504171Y-37197386D01*
X207485940Y-37324186D01*
X204390922Y-37324186D01*
X204390922Y-36782600D01*
X204392676Y-36764047D01*
X204394620Y-36753858D01*
X204391116Y-36698178D01*
X204390922Y-36691964D01*
X204390922Y-36479215D01*
X204398458Y-36441329D01*
X204419918Y-36409211D01*
X205147242Y-35681887D01*
X205911140Y-35681887D01*
X205929371Y-35808687D01*
X205963250Y-35882872D01*
X205982590Y-35925219D01*
X206066482Y-36022036D01*
X206066484Y-36022038D01*
X206172842Y-36090389D01*
X206174252Y-36091295D01*
X206297169Y-36127387D01*
X206425275Y-36127387D01*
X206548192Y-36091295D01*
X206647463Y-36027498D01*
X206655959Y-36022038D01*
X206655959Y-36022037D01*
X206655962Y-36022036D01*
X206739854Y-35925219D01*
X206762595Y-35875423D01*
X206766469Y-35866941D01*
X206802999Y-35824783D01*
X206856522Y-35809067D01*
X206910045Y-35824783D01*
X206946575Y-35866941D01*
X206973188Y-35925216D01*
X206973189Y-35925217D01*
X206973190Y-35925219D01*
X207057082Y-36022036D01*
X207057084Y-36022038D01*
X207163442Y-36090389D01*
X207164852Y-36091295D01*
X207287769Y-36127387D01*
X207415875Y-36127387D01*
X207538792Y-36091295D01*
X207638063Y-36027498D01*
X207646559Y-36022038D01*
X207646559Y-36022037D01*
X207646562Y-36022036D01*
X207730454Y-35925219D01*
X207783672Y-35808689D01*
X207801903Y-35681887D01*
X207783672Y-35555085D01*
X207730454Y-35438555D01*
X207646562Y-35341738D01*
X207646561Y-35341737D01*
X207646559Y-35341735D01*
X207538793Y-35272479D01*
X207415875Y-35236387D01*
X207287769Y-35236387D01*
X207164850Y-35272479D01*
X207057084Y-35341735D01*
X206973189Y-35438556D01*
X206946575Y-35496833D01*
X206910045Y-35538990D01*
X206856522Y-35554706D01*
X206802999Y-35538990D01*
X206766469Y-35496833D01*
X206754079Y-35469703D01*
X206739854Y-35438555D01*
X206655962Y-35341738D01*
X206655961Y-35341737D01*
X206655959Y-35341735D01*
X206548193Y-35272479D01*
X206425275Y-35236387D01*
X206297169Y-35236387D01*
X206174250Y-35272479D01*
X206066484Y-35341735D01*
X205982589Y-35438556D01*
X205929371Y-35555086D01*
X205911140Y-35681887D01*
X205147242Y-35681887D01*
X206589246Y-34239883D01*
X206621364Y-34218423D01*
X206659250Y-34210887D01*
X207390866Y-34210887D01*
X207456525Y-34202592D01*
X207507361Y-34196170D01*
X207653126Y-34138457D01*
X207779960Y-34046307D01*
X207879892Y-33925510D01*
X207946643Y-33783656D01*
X207976020Y-33629658D01*
X207966176Y-33473193D01*
X207917730Y-33324091D01*
X207909413Y-33310986D01*
X208856391Y-33310986D01*
X208875989Y-33434725D01*
X208875989Y-33434726D01*
X208875990Y-33434727D01*
X208932867Y-33546354D01*
X209021455Y-33634942D01*
X209133082Y-33691819D01*
X209256822Y-33711417D01*
X209380562Y-33691819D01*
X209492189Y-33634942D01*
X209580777Y-33546354D01*
X209637654Y-33434727D01*
X209657252Y-33310987D01*
X209652633Y-33281826D01*
X209645408Y-33236203D01*
X209637654Y-33187247D01*
X209580777Y-33075620D01*
X209492189Y-32987032D01*
X209380562Y-32930155D01*
X209380561Y-32930154D01*
X209380560Y-32930154D01*
X209256822Y-32910556D01*
X209133083Y-32930154D01*
X209021456Y-32987031D01*
X208932866Y-33075621D01*
X208875989Y-33187248D01*
X208856391Y-33310986D01*
X207909413Y-33310986D01*
X207833726Y-33191722D01*
X207719441Y-33084401D01*
X207582060Y-33008875D01*
X207492101Y-32985778D01*
X207430209Y-32969887D01*
X207430208Y-32969887D01*
X206674322Y-32969887D01*
X206624822Y-32956624D01*
X206588585Y-32920387D01*
X206575322Y-32870887D01*
X206575322Y-31228186D01*
X209060740Y-31228186D01*
X209078971Y-31354987D01*
X209127349Y-31460920D01*
X209132190Y-31471519D01*
X209216050Y-31568299D01*
X209216084Y-31568338D01*
X209323850Y-31637594D01*
X209323852Y-31637595D01*
X209446769Y-31673687D01*
X209574875Y-31673687D01*
X209697792Y-31637595D01*
X209805562Y-31568336D01*
X209889454Y-31471519D01*
X209942672Y-31354989D01*
X209960903Y-31228187D01*
X209954895Y-31186403D01*
X209942672Y-31101386D01*
X209907795Y-31025017D01*
X209889454Y-30984855D01*
X209805562Y-30888038D01*
X209805561Y-30888037D01*
X209805559Y-30888035D01*
X209697793Y-30818779D01*
X209574875Y-30782687D01*
X209446769Y-30782687D01*
X209323850Y-30818779D01*
X209216084Y-30888035D01*
X209132189Y-30984856D01*
X209078971Y-31101386D01*
X209060740Y-31228186D01*
X206575322Y-31228186D01*
X206575322Y-30008743D01*
X206568935Y-29958186D01*
X209060740Y-29958186D01*
X209078971Y-30084987D01*
X209078972Y-30084989D01*
X209132190Y-30201519D01*
X209216082Y-30298336D01*
X209216084Y-30298338D01*
X209323850Y-30367594D01*
X209323852Y-30367595D01*
X209446769Y-30403687D01*
X209574875Y-30403687D01*
X209697792Y-30367595D01*
X209805562Y-30298336D01*
X209889454Y-30201519D01*
X209942672Y-30084989D01*
X209960903Y-29958187D01*
X209942672Y-29831385D01*
X209889454Y-29714855D01*
X209805562Y-29618038D01*
X209805561Y-29618037D01*
X209805559Y-29618035D01*
X209697793Y-29548779D01*
X209574875Y-29512687D01*
X209446769Y-29512687D01*
X209323850Y-29548779D01*
X209216084Y-29618035D01*
X209132189Y-29714856D01*
X209078971Y-29831386D01*
X209060740Y-29958186D01*
X206568935Y-29958186D01*
X206560605Y-29892250D01*
X206560605Y-29892248D01*
X206502892Y-29746483D01*
X206410742Y-29619649D01*
X206401319Y-29611854D01*
X206289944Y-29519716D01*
X206148089Y-29452965D01*
X205994096Y-29423589D01*
X205994093Y-29423589D01*
X205876744Y-29430972D01*
X205837627Y-29433433D01*
X205688524Y-29481879D01*
X205556157Y-29565882D01*
X205448836Y-29680167D01*
X205373310Y-29817548D01*
X205334322Y-29969401D01*
X205334322Y-33104552D01*
X205332140Y-33124314D01*
X205334273Y-33192179D01*
X205334322Y-33195289D01*
X205334322Y-33223027D01*
X205334962Y-33228094D01*
X205335693Y-33237388D01*
X205337090Y-33281827D01*
X205343161Y-33302727D01*
X205346310Y-33317930D01*
X205349039Y-33339526D01*
X205356198Y-33357607D01*
X205365404Y-33380861D01*
X205368423Y-33389680D01*
X205380828Y-33432375D01*
X205391908Y-33451112D01*
X205398738Y-33465054D01*
X205406751Y-33485291D01*
X205432879Y-33521252D01*
X205437975Y-33529005D01*
X205438663Y-33530167D01*
X205452032Y-33571255D01*
X205446628Y-33614124D01*
X205423479Y-33650609D01*
X203416926Y-35657162D01*
X203366236Y-35684256D01*
X203309036Y-35678622D01*
X203264607Y-35642159D01*
X203247922Y-35587158D01*
X203247922Y-34927822D01*
X203250103Y-34908059D01*
X203250077Y-34907248D01*
X203250078Y-34907246D01*
X203247970Y-34840193D01*
X203247922Y-34837085D01*
X203247922Y-34809349D01*
X203247922Y-34809346D01*
X203247281Y-34804275D01*
X203246549Y-34794974D01*
X203245823Y-34771867D01*
X203245154Y-34750548D01*
X203239081Y-34729644D01*
X203235933Y-34714445D01*
X203233205Y-34692848D01*
X203233204Y-34692845D01*
X203216837Y-34651506D01*
X203213816Y-34642682D01*
X203204425Y-34610359D01*
X203201415Y-34599998D01*
X203190337Y-34581267D01*
X203183505Y-34567320D01*
X203175492Y-34547083D01*
X203149359Y-34511113D01*
X203144239Y-34503319D01*
X203135102Y-34487870D01*
X203121609Y-34465055D01*
X203121607Y-34465053D01*
X203106220Y-34449665D01*
X203096131Y-34437852D01*
X203083342Y-34420248D01*
X203049080Y-34391905D01*
X203042181Y-34385627D01*
X202862796Y-34206242D01*
X202682976Y-34026421D01*
X202681355Y-34025164D01*
X202612025Y-33971386D01*
X202590193Y-33954451D01*
X202568686Y-33945144D01*
X202527187Y-33911467D01*
X202509241Y-33861124D01*
X202520079Y-33808789D01*
X202556543Y-33769714D01*
X202608005Y-33755287D01*
X202857367Y-33755287D01*
X202911664Y-33771505D01*
X202948170Y-33814844D01*
X202980549Y-33889387D01*
X202991315Y-33914173D01*
X203079327Y-34022355D01*
X203081613Y-34025164D01*
X203198507Y-34107677D01*
X203333327Y-34155592D01*
X203476076Y-34165356D01*
X203616166Y-34136245D01*
X203743206Y-34070418D01*
X203847776Y-33972757D01*
X203922119Y-33850505D01*
X203960722Y-33712728D01*
X203960722Y-33484540D01*
X203966438Y-33451387D01*
X203978175Y-33418361D01*
X204005427Y-33341682D01*
X204015191Y-33198933D01*
X204013709Y-33191803D01*
X203995419Y-33103786D01*
X203986080Y-33058843D01*
X203971821Y-33031324D01*
X203960722Y-32985778D01*
X203960722Y-32716581D01*
X203960113Y-32712147D01*
X203946133Y-32610437D01*
X203889129Y-32479201D01*
X203811106Y-32383298D01*
X203798832Y-32368211D01*
X203681936Y-32285696D01*
X203547115Y-32237781D01*
X203404367Y-32228017D01*
X203264278Y-32257128D01*
X203137240Y-32322954D01*
X203032666Y-32420619D01*
X202958325Y-32542867D01*
X202930551Y-32641997D01*
X202910575Y-32679496D01*
X202876721Y-32705170D01*
X202835222Y-32714287D01*
X202053809Y-32714287D01*
X202050428Y-32714229D01*
X201989492Y-32712146D01*
X201950842Y-32721565D01*
X201940886Y-32723458D01*
X201901469Y-32728876D01*
X201884477Y-32736257D01*
X201868482Y-32741636D01*
X201850480Y-32746023D01*
X201815800Y-32765522D01*
X201806726Y-32770029D01*
X201770236Y-32785879D01*
X201755857Y-32797577D01*
X201741906Y-32807072D01*
X201725758Y-32816151D01*
X201697630Y-32844279D01*
X201690107Y-32851068D01*
X201659245Y-32876176D01*
X201648559Y-32891315D01*
X201637685Y-32904224D01*
X200590441Y-33951468D01*
X200588011Y-33953816D01*
X200543467Y-33995417D01*
X200522795Y-34029410D01*
X200517094Y-34037785D01*
X200493057Y-34069483D01*
X200486259Y-34086723D01*
X200478751Y-34101839D01*
X200469123Y-34117671D01*
X200458391Y-34155974D01*
X200455162Y-34165579D01*
X200440565Y-34202595D01*
X200438670Y-34221027D01*
X200435520Y-34237603D01*
X200430522Y-34255445D01*
X200430522Y-34295221D01*
X200430003Y-34305346D01*
X200425933Y-34344923D01*
X200429083Y-34363189D01*
X200430522Y-34380010D01*
X200430522Y-35010181D01*
X200422986Y-35048067D01*
X200401525Y-35080185D01*
X199803040Y-35678668D01*
X199800611Y-35681016D01*
X199756067Y-35722617D01*
X199735395Y-35756610D01*
X199729694Y-35764985D01*
X199705657Y-35796683D01*
X199698859Y-35813923D01*
X199691351Y-35829039D01*
X199681723Y-35844871D01*
X199670991Y-35883174D01*
X199667762Y-35892779D01*
X199653165Y-35929795D01*
X199651270Y-35948227D01*
X199648120Y-35964803D01*
X199643122Y-35982645D01*
X199643122Y-36022421D01*
X199642603Y-36032546D01*
X199638533Y-36072123D01*
X199641683Y-36090389D01*
X199643122Y-36107210D01*
X199643122Y-41588781D01*
X199635586Y-41626667D01*
X199614126Y-41658785D01*
X197738620Y-43534291D01*
X197706502Y-43555751D01*
X197668616Y-43563287D01*
X196818741Y-43563287D01*
X196693417Y-43577934D01*
X196693417Y-43577935D01*
X196535144Y-43635541D01*
X196394426Y-43728094D01*
X196278841Y-43850606D01*
X196194628Y-43996467D01*
X196146323Y-44157819D01*
X196145069Y-44179346D01*
X196137932Y-44301889D01*
X196136529Y-44325968D01*
X196165776Y-44491836D01*
X196232487Y-44646487D01*
X196232488Y-44646489D01*
X196333067Y-44781590D01*
X196402056Y-44839479D01*
X196462087Y-44889852D01*
X196462088Y-44889852D01*
X196462090Y-44889854D01*
X196612604Y-44965445D01*
X196776493Y-45004287D01*
X197767185Y-45004287D01*
X197767188Y-45004287D01*
X197892512Y-44989639D01*
X198050783Y-44932033D01*
X198191503Y-44839479D01*
X198307086Y-44716969D01*
X198391301Y-44571105D01*
X198439606Y-44409752D01*
X198443862Y-44336659D01*
X198452371Y-44301889D01*
X198472688Y-44272417D01*
X200524213Y-42220892D01*
X200526617Y-42218571D01*
X200571176Y-42176957D01*
X200591851Y-42142956D01*
X200597538Y-42134599D01*
X200607330Y-42121687D01*
X201516491Y-42121687D01*
X201536089Y-42245425D01*
X201536089Y-42245426D01*
X201536090Y-42245427D01*
X201592967Y-42357054D01*
X201681555Y-42445642D01*
X201793182Y-42502519D01*
X201916922Y-42522117D01*
X202040662Y-42502519D01*
X202152289Y-42445642D01*
X202240877Y-42357054D01*
X202297754Y-42245427D01*
X202317352Y-42121687D01*
X202297754Y-41997947D01*
X202240877Y-41886320D01*
X202152289Y-41797732D01*
X202040662Y-41740855D01*
X202040661Y-41740854D01*
X202040660Y-41740854D01*
X201916921Y-41721256D01*
X201793183Y-41740854D01*
X201681556Y-41797731D01*
X201592966Y-41886321D01*
X201536089Y-41997948D01*
X201516491Y-42121687D01*
X200607330Y-42121687D01*
X200621587Y-42102888D01*
X200628382Y-42085654D01*
X200635894Y-42070532D01*
X200638711Y-42065899D01*
X200645519Y-42054705D01*
X200656255Y-42016382D01*
X200659477Y-42006802D01*
X200674077Y-41969782D01*
X200675971Y-41951346D01*
X200679124Y-41934763D01*
X200684122Y-41916928D01*
X200684122Y-41877144D01*
X200684641Y-41867021D01*
X200684828Y-41865193D01*
X200688709Y-41827449D01*
X200685561Y-41809196D01*
X200684122Y-41792376D01*
X200684122Y-40385586D01*
X201414191Y-40385586D01*
X201433789Y-40509325D01*
X201433789Y-40509326D01*
X201433790Y-40509327D01*
X201490667Y-40620954D01*
X201579255Y-40709542D01*
X201690882Y-40766419D01*
X201814622Y-40786017D01*
X201938362Y-40766419D01*
X202049989Y-40709542D01*
X202138577Y-40620954D01*
X202195454Y-40509327D01*
X202215052Y-40385587D01*
X202195454Y-40261847D01*
X202138577Y-40150220D01*
X202049989Y-40061632D01*
X201938362Y-40004755D01*
X201938361Y-40004754D01*
X201938360Y-40004754D01*
X201814621Y-39985156D01*
X201690883Y-40004754D01*
X201579256Y-40061631D01*
X201490666Y-40150221D01*
X201433789Y-40261848D01*
X201414191Y-40385586D01*
X200684122Y-40385586D01*
X200684122Y-36310793D01*
X200691658Y-36272907D01*
X200713118Y-36240790D01*
X201311585Y-35642321D01*
X201313985Y-35640000D01*
X201358576Y-35598357D01*
X201379249Y-35564361D01*
X201384943Y-35555994D01*
X201408988Y-35524288D01*
X201415785Y-35507049D01*
X201423297Y-35491926D01*
X201423897Y-35490940D01*
X201432919Y-35476105D01*
X201443651Y-35437797D01*
X201446879Y-35428199D01*
X201458501Y-35398730D01*
X201461478Y-35391182D01*
X201463373Y-35372735D01*
X201466524Y-35356162D01*
X201471522Y-35338328D01*
X201471522Y-35298554D01*
X201472041Y-35288431D01*
X201472255Y-35286339D01*
X201476110Y-35248849D01*
X201472961Y-35230584D01*
X201471522Y-35213765D01*
X201471522Y-34657832D01*
X201487269Y-34604261D01*
X201529499Y-34567731D01*
X201584779Y-34559864D01*
X201635524Y-34583161D01*
X201665590Y-34630211D01*
X201669214Y-34642682D01*
X201697829Y-34741177D01*
X201777633Y-34876118D01*
X201977926Y-35076412D01*
X201999386Y-35108529D01*
X202006922Y-35146415D01*
X202006922Y-36165952D01*
X202004740Y-36185714D01*
X202006873Y-36253579D01*
X202006922Y-36256689D01*
X202006922Y-36284427D01*
X202007562Y-36289494D01*
X202008293Y-36298788D01*
X202009690Y-36343227D01*
X202015761Y-36364127D01*
X202018910Y-36379330D01*
X202021639Y-36400925D01*
X202038004Y-36442261D01*
X202041023Y-36451080D01*
X202053428Y-36493775D01*
X202064508Y-36512512D01*
X202071338Y-36526454D01*
X202079351Y-36546691D01*
X202105479Y-36582652D01*
X202110600Y-36590448D01*
X202133233Y-36628718D01*
X202148623Y-36644109D01*
X202158709Y-36655918D01*
X202166456Y-36666581D01*
X202171502Y-36673525D01*
X202197558Y-36695080D01*
X202205751Y-36701858D01*
X202212650Y-36708135D01*
X202601694Y-37097179D01*
X202614123Y-37112694D01*
X202663606Y-37159161D01*
X202665838Y-37161324D01*
X202685469Y-37180954D01*
X202689505Y-37184085D01*
X202696596Y-37190141D01*
X202704310Y-37197385D01*
X202729002Y-37220572D01*
X202748069Y-37231054D01*
X202761050Y-37239581D01*
X202778251Y-37252923D01*
X202798331Y-37261612D01*
X202819053Y-37270579D01*
X202827427Y-37274681D01*
X202866385Y-37296099D01*
X202887471Y-37301512D01*
X202902161Y-37306542D01*
X202912407Y-37310976D01*
X202922129Y-37315184D01*
X202922130Y-37315184D01*
X202922132Y-37315185D01*
X202966052Y-37322140D01*
X202975155Y-37324025D01*
X203018235Y-37335087D01*
X203039997Y-37335087D01*
X203055490Y-37336307D01*
X203066415Y-37338038D01*
X203109116Y-37355728D01*
X203139133Y-37390875D01*
X203149922Y-37435818D01*
X203149922Y-38282146D01*
X203133950Y-38336065D01*
X203091189Y-38372587D01*
X203035435Y-38379927D01*
X203030562Y-38379155D01*
X203005673Y-38375213D01*
X202906821Y-38359556D01*
X202783083Y-38379154D01*
X202671456Y-38436031D01*
X202582866Y-38524621D01*
X202525989Y-38636248D01*
X202506391Y-38759987D01*
X202525989Y-38883725D01*
X202525989Y-38883726D01*
X202525990Y-38883727D01*
X202582867Y-38995354D01*
X202671455Y-39083942D01*
X202783082Y-39140819D01*
X202844951Y-39150617D01*
X202906821Y-39160417D01*
X202906821Y-39160416D01*
X202906822Y-39160417D01*
X203030562Y-39140819D01*
X203030562Y-39140818D01*
X203038528Y-39139557D01*
X203093326Y-39146477D01*
X203135888Y-39181680D01*
X203146465Y-39214213D01*
X203149202Y-39213419D01*
X203158761Y-39246327D01*
X203161910Y-39261530D01*
X203164639Y-39283125D01*
X203181004Y-39324461D01*
X203184023Y-39333280D01*
X203196428Y-39375975D01*
X203207508Y-39394712D01*
X203214338Y-39408654D01*
X203222351Y-39428891D01*
X203248479Y-39464852D01*
X203253600Y-39472648D01*
X203276233Y-39510918D01*
X203291623Y-39526309D01*
X203301709Y-39538118D01*
X203303280Y-39540280D01*
X203314502Y-39555725D01*
X203348751Y-39584058D01*
X203355650Y-39590335D01*
X203399768Y-39634453D01*
X203427545Y-39688970D01*
X203417974Y-39749402D01*
X203374709Y-39792666D01*
X203314278Y-39802238D01*
X203186222Y-39781956D01*
X203062483Y-39801554D01*
X202950856Y-39858431D01*
X202862266Y-39947021D01*
X202805389Y-40058648D01*
X202785791Y-40182387D01*
X202805389Y-40306125D01*
X202805389Y-40306126D01*
X202805390Y-40306127D01*
X202862267Y-40417754D01*
X202950855Y-40506342D01*
X203062482Y-40563219D01*
X203186222Y-40582817D01*
X203309962Y-40563219D01*
X203421589Y-40506342D01*
X203510177Y-40417754D01*
X203567054Y-40306127D01*
X203586652Y-40182387D01*
X203567054Y-40058647D01*
X203567053Y-40058645D01*
X203566370Y-40054331D01*
X203571004Y-40005309D01*
X203598681Y-39964583D01*
X203642555Y-39942228D01*
X203691771Y-39943775D01*
X203734155Y-39968840D01*
X204238526Y-40473211D01*
X204259986Y-40505329D01*
X204267522Y-40543215D01*
X204267522Y-42446558D01*
X204250837Y-42501559D01*
X204206408Y-42538022D01*
X204149208Y-42543656D01*
X204098520Y-42516563D01*
X204031189Y-42449232D01*
X203919562Y-42392355D01*
X203919561Y-42392354D01*
X203919560Y-42392354D01*
X203795822Y-42372756D01*
X203672083Y-42392354D01*
X203560456Y-42449231D01*
X203471866Y-42537821D01*
X203414989Y-42649448D01*
X203395391Y-42773187D01*
X203414989Y-42896925D01*
X203414989Y-42896926D01*
X203414990Y-42896927D01*
X203471867Y-43008554D01*
X203560455Y-43097142D01*
X203672082Y-43154019D01*
X203795822Y-43173617D01*
X203919562Y-43154019D01*
X204031189Y-43097142D01*
X204098520Y-43029810D01*
X204149208Y-43002718D01*
X204206408Y-43008352D01*
X204250837Y-43044815D01*
X204267522Y-43099816D01*
X204267522Y-43909559D01*
X204259986Y-43947445D01*
X204238526Y-43979563D01*
X203226791Y-44991296D01*
X203184413Y-45016359D01*
X203179136Y-45017892D01*
X203160393Y-45028975D01*
X203146455Y-45035803D01*
X203126216Y-45043817D01*
X203090250Y-45069948D01*
X203082456Y-45075068D01*
X203044189Y-45097698D01*
X203028800Y-45113088D01*
X203016991Y-45123174D01*
X202999383Y-45135967D01*
X202971048Y-45170217D01*
X202964773Y-45177114D01*
X200415290Y-47726599D01*
X200415289Y-47726599D01*
X199527023Y-48614863D01*
X199511514Y-48627288D01*
X199465031Y-48676787D01*
X199462871Y-48679016D01*
X199443257Y-48698630D01*
X199440120Y-48702675D01*
X199434072Y-48709755D01*
X199403636Y-48742167D01*
X199393149Y-48761241D01*
X199384627Y-48774214D01*
X199371286Y-48791413D01*
X199353627Y-48832221D01*
X199349526Y-48840592D01*
X199328110Y-48879550D01*
X199322698Y-48900626D01*
X199317669Y-48915314D01*
X199309024Y-48935294D01*
X199302069Y-48979205D01*
X199300178Y-48988336D01*
X199289122Y-49031399D01*
X199289122Y-49053162D01*
X199287903Y-49068650D01*
X199284498Y-49090141D01*
X199288683Y-49134407D01*
X199289122Y-49143723D01*
X199289122Y-49875358D01*
X199272437Y-49930359D01*
X199228008Y-49966822D01*
X199170808Y-49972456D01*
X199144473Y-49958380D01*
X199142960Y-49961351D01*
X199128989Y-49954232D01*
X199017362Y-49897355D01*
X199017361Y-49897354D01*
X199017360Y-49897354D01*
X198893622Y-49877756D01*
X198769883Y-49897354D01*
X198658256Y-49954231D01*
X198569666Y-50042821D01*
X198512789Y-50154448D01*
X198493191Y-50278187D01*
X198512789Y-50401925D01*
X198512789Y-50401926D01*
X198512790Y-50401927D01*
X198569667Y-50513554D01*
X198658255Y-50602142D01*
X198769882Y-50659019D01*
X198893622Y-50678617D01*
X199017362Y-50659019D01*
X199128989Y-50602142D01*
X199128989Y-50602141D01*
X199142960Y-50595023D01*
X199144473Y-50597993D01*
X199170808Y-50583918D01*
X199228008Y-50589552D01*
X199272437Y-50626015D01*
X199289122Y-50681016D01*
X199289122Y-51581917D01*
X199283785Y-51613984D01*
X199268656Y-51642022D01*
X199206223Y-51786298D01*
X199181698Y-51941139D01*
X199196452Y-52097223D01*
X199249557Y-52244726D01*
X199327663Y-52359656D01*
X199337679Y-52374393D01*
X199455277Y-52478070D01*
X199594964Y-52549244D01*
X199747963Y-52583443D01*
X199904661Y-52578519D01*
X200026122Y-52543230D01*
X200077759Y-52542257D01*
X200122860Y-52567422D01*
X200149151Y-52611877D01*
X200149475Y-52663522D01*
X200123746Y-52708304D01*
X199617160Y-53214891D01*
X199585042Y-53236351D01*
X199547156Y-53243887D01*
X198574364Y-53243887D01*
X198520841Y-53228171D01*
X198487222Y-53189373D01*
X198453603Y-53228171D01*
X198400080Y-53243887D01*
X198138488Y-53243887D01*
X198100602Y-53236351D01*
X198068484Y-53214891D01*
X197456580Y-52602987D01*
X198037140Y-52602987D01*
X198055371Y-52729787D01*
X198106570Y-52841897D01*
X198108590Y-52846319D01*
X198192482Y-52943136D01*
X198192484Y-52943138D01*
X198300249Y-53012394D01*
X198300251Y-53012394D01*
X198300252Y-53012395D01*
X198423169Y-53048487D01*
X198423170Y-53048487D01*
X198427972Y-53049897D01*
X198474899Y-53080056D01*
X198487222Y-53107039D01*
X198499545Y-53080056D01*
X198546472Y-53049897D01*
X198551274Y-53048487D01*
X198551275Y-53048487D01*
X198674192Y-53012395D01*
X198719503Y-52983276D01*
X198781959Y-52943138D01*
X198781959Y-52943137D01*
X198781962Y-52943136D01*
X198865854Y-52846319D01*
X198919072Y-52729789D01*
X198937303Y-52602987D01*
X198919072Y-52476185D01*
X198865854Y-52359655D01*
X198781962Y-52262838D01*
X198781961Y-52262837D01*
X198781959Y-52262835D01*
X198674193Y-52193579D01*
X198551275Y-52157487D01*
X198423169Y-52157487D01*
X198300250Y-52193579D01*
X198192484Y-52262835D01*
X198108589Y-52359656D01*
X198055371Y-52476186D01*
X198037140Y-52602987D01*
X197456580Y-52602987D01*
X197379713Y-52526120D01*
X197357292Y-52491594D01*
X197350853Y-52450934D01*
X197361506Y-52411174D01*
X197394854Y-52345727D01*
X197414452Y-52221987D01*
X197394854Y-52098247D01*
X197337977Y-51986620D01*
X197249389Y-51898032D01*
X197137762Y-51841155D01*
X197137761Y-51841154D01*
X197137760Y-51841154D01*
X197014022Y-51821556D01*
X196890283Y-51841154D01*
X196778656Y-51898031D01*
X196690064Y-51986623D01*
X196657731Y-52050081D01*
X196621249Y-52089547D01*
X196569522Y-52104136D01*
X196517795Y-52089547D01*
X196481313Y-52050081D01*
X196448979Y-51986623D01*
X196448978Y-51986622D01*
X196448977Y-51986620D01*
X196360389Y-51898032D01*
X196248762Y-51841155D01*
X196248761Y-51841154D01*
X196248760Y-51841154D01*
X196125022Y-51821556D01*
X196001283Y-51841154D01*
X195889656Y-51898031D01*
X195801066Y-51986621D01*
X195744189Y-52098248D01*
X195724591Y-52221987D01*
X188023251Y-52221987D01*
X188105454Y-52127119D01*
X188158672Y-52010589D01*
X188176903Y-51883787D01*
X188158672Y-51756985D01*
X188105454Y-51640455D01*
X188021562Y-51543638D01*
X188021561Y-51543637D01*
X188021559Y-51543635D01*
X187913793Y-51474379D01*
X187790875Y-51438287D01*
X187662769Y-51438287D01*
X187539850Y-51474379D01*
X187432084Y-51543635D01*
X187348189Y-51640456D01*
X187294971Y-51756986D01*
X187276740Y-51883786D01*
X185463678Y-51883786D01*
X185463678Y-50097186D01*
X188238840Y-50097186D01*
X188257071Y-50223987D01*
X188257072Y-50223989D01*
X188310290Y-50340519D01*
X188394182Y-50437336D01*
X188394184Y-50437338D01*
X188501950Y-50506594D01*
X188501952Y-50506595D01*
X188624869Y-50542687D01*
X188752975Y-50542687D01*
X188875892Y-50506595D01*
X188983662Y-50437336D01*
X189067554Y-50340519D01*
X189120772Y-50223989D01*
X189139003Y-50097187D01*
X189120772Y-49970385D01*
X189070263Y-49859787D01*
X195256740Y-49859787D01*
X195274971Y-49986587D01*
X195300652Y-50042821D01*
X195328190Y-50103119D01*
X195410140Y-50197695D01*
X195412084Y-50199938D01*
X195519850Y-50269194D01*
X195519852Y-50269195D01*
X195642769Y-50305287D01*
X195770875Y-50305287D01*
X195893792Y-50269195D01*
X196001562Y-50199936D01*
X196085454Y-50103119D01*
X196138672Y-49986589D01*
X196149599Y-49910586D01*
X196576740Y-49910586D01*
X196594971Y-50037387D01*
X196594972Y-50037389D01*
X196648190Y-50153919D01*
X196729285Y-50247508D01*
X196732084Y-50250738D01*
X196839850Y-50319994D01*
X196839852Y-50319995D01*
X196962769Y-50356087D01*
X197090875Y-50356087D01*
X197213792Y-50319995D01*
X197321562Y-50250736D01*
X197405454Y-50153919D01*
X197458672Y-50037389D01*
X197476903Y-49910587D01*
X197475000Y-49897354D01*
X197458672Y-49783786D01*
X197456013Y-49777964D01*
X197405454Y-49667255D01*
X197321562Y-49570438D01*
X197321561Y-49570437D01*
X197321559Y-49570435D01*
X197213793Y-49501179D01*
X197090875Y-49465087D01*
X196962769Y-49465087D01*
X196839850Y-49501179D01*
X196732084Y-49570435D01*
X196648189Y-49667256D01*
X196594971Y-49783786D01*
X196576740Y-49910586D01*
X196149599Y-49910586D01*
X196156903Y-49859787D01*
X196138672Y-49732985D01*
X196085454Y-49616455D01*
X196001562Y-49519638D01*
X196001561Y-49519637D01*
X196001559Y-49519635D01*
X195893793Y-49450379D01*
X195770875Y-49414287D01*
X195642769Y-49414287D01*
X195519850Y-49450379D01*
X195412084Y-49519635D01*
X195328189Y-49616456D01*
X195274971Y-49732986D01*
X195256740Y-49859787D01*
X189070263Y-49859787D01*
X189067554Y-49853855D01*
X188983662Y-49757038D01*
X188983661Y-49757037D01*
X188983659Y-49757035D01*
X188875893Y-49687779D01*
X188752975Y-49651687D01*
X188624869Y-49651687D01*
X188501950Y-49687779D01*
X188394184Y-49757035D01*
X188310289Y-49853856D01*
X188257071Y-49970386D01*
X188238840Y-50097186D01*
X185463678Y-50097186D01*
X185463678Y-48488187D01*
X188181940Y-48488187D01*
X188200171Y-48614987D01*
X188206060Y-48627883D01*
X188253390Y-48731519D01*
X188307697Y-48794193D01*
X188337284Y-48828338D01*
X188420684Y-48881935D01*
X188445052Y-48897595D01*
X188567969Y-48933687D01*
X188696075Y-48933687D01*
X188818992Y-48897595D01*
X188926762Y-48828336D01*
X189010654Y-48731519D01*
X189063872Y-48614989D01*
X189082103Y-48488187D01*
X189063872Y-48361385D01*
X189010654Y-48244855D01*
X188984626Y-48214817D01*
X188917731Y-48137614D01*
X188894559Y-48086872D01*
X188902498Y-48031657D01*
X188939028Y-47989500D01*
X188977562Y-47964736D01*
X189061454Y-47867919D01*
X189114672Y-47751389D01*
X189132903Y-47624587D01*
X189114672Y-47497785D01*
X189061454Y-47381255D01*
X188977562Y-47284438D01*
X188977561Y-47284437D01*
X188977559Y-47284435D01*
X188869793Y-47215179D01*
X188746875Y-47179087D01*
X188618769Y-47179087D01*
X188495850Y-47215179D01*
X188388084Y-47284435D01*
X188304189Y-47381256D01*
X188250971Y-47497786D01*
X188232740Y-47624587D01*
X188250971Y-47751387D01*
X188279742Y-47814387D01*
X188304190Y-47867919D01*
X188379288Y-47954587D01*
X188397113Y-47975158D01*
X188420285Y-48025900D01*
X188412346Y-48081115D01*
X188375816Y-48123273D01*
X188337284Y-48148035D01*
X188253389Y-48244856D01*
X188200171Y-48361386D01*
X188181940Y-48488187D01*
X185463678Y-48488187D01*
X185463678Y-41368387D01*
X187858327Y-41368387D01*
X187877454Y-41550371D01*
X187877742Y-41551256D01*
X187934001Y-41724406D01*
X188025491Y-41882870D01*
X188147935Y-42018858D01*
X188295973Y-42126415D01*
X188323407Y-42138629D01*
X188463141Y-42200842D01*
X188642129Y-42238887D01*
X188825113Y-42238887D01*
X188825115Y-42238887D01*
X189004103Y-42200842D01*
X189171270Y-42126415D01*
X189319309Y-42018858D01*
X189441751Y-41882872D01*
X189484287Y-41809197D01*
X189533242Y-41724406D01*
X189533242Y-41724404D01*
X189533244Y-41724402D01*
X189589790Y-41550371D01*
X189608917Y-41368387D01*
X189589790Y-41186403D01*
X189533244Y-41012372D01*
X189533243Y-41012370D01*
X189533242Y-41012367D01*
X189441752Y-40853903D01*
X189319308Y-40717915D01*
X189171270Y-40610358D01*
X189004106Y-40535933D01*
X189004104Y-40535932D01*
X189004103Y-40535932D01*
X188825115Y-40497887D01*
X188642129Y-40497887D01*
X188552634Y-40516909D01*
X188463139Y-40535932D01*
X188295976Y-40610358D01*
X188147935Y-40717915D01*
X188025490Y-40853905D01*
X187934001Y-41012367D01*
X187888196Y-41153342D01*
X187877454Y-41186403D01*
X187858327Y-41368387D01*
X185463678Y-41368387D01*
X185463678Y-39368387D01*
X187858327Y-39368387D01*
X187877454Y-39550371D01*
X187890439Y-39590335D01*
X187934001Y-39724406D01*
X188025491Y-39882870D01*
X188147935Y-40018858D01*
X188295973Y-40126415D01*
X188408005Y-40176294D01*
X188463141Y-40200842D01*
X188642129Y-40238887D01*
X188825113Y-40238887D01*
X188825115Y-40238887D01*
X189004103Y-40200842D01*
X189171270Y-40126415D01*
X189319309Y-40018858D01*
X189441751Y-39882872D01*
X189499738Y-39782436D01*
X189533242Y-39724406D01*
X189533242Y-39724404D01*
X189533244Y-39724402D01*
X189589790Y-39550371D01*
X189608917Y-39368387D01*
X189589790Y-39186403D01*
X189533244Y-39012372D01*
X189533243Y-39012370D01*
X189533242Y-39012367D01*
X189441752Y-38853903D01*
X189319308Y-38717915D01*
X189171270Y-38610358D01*
X189004106Y-38535933D01*
X189004104Y-38535932D01*
X189004103Y-38535932D01*
X188858466Y-38504975D01*
X188809692Y-38478782D01*
X188782608Y-38430494D01*
X188785686Y-38375215D01*
X188817965Y-38330233D01*
X188869348Y-38309617D01*
X188919853Y-38304642D01*
X189061287Y-38261738D01*
X188733621Y-37934072D01*
X188405955Y-38261737D01*
X188547391Y-38304642D01*
X188597894Y-38309616D01*
X188649277Y-38330231D01*
X188681556Y-38375213D01*
X188684635Y-38430492D01*
X188657552Y-38478780D01*
X188608776Y-38504975D01*
X188463143Y-38535931D01*
X188295976Y-38610358D01*
X188147935Y-38717915D01*
X188025490Y-38853905D01*
X187934001Y-39012367D01*
X187878989Y-39181680D01*
X187877454Y-39186403D01*
X187858327Y-39368387D01*
X185463678Y-39368387D01*
X185463678Y-37368387D01*
X187779024Y-37368387D01*
X187797366Y-37554618D01*
X187840269Y-37696052D01*
X187840270Y-37696053D01*
X188167936Y-37368387D01*
X188167935Y-37368386D01*
X189299307Y-37368386D01*
X189626973Y-37696052D01*
X189669878Y-37554617D01*
X189688219Y-37368387D01*
X189669878Y-37182156D01*
X189626972Y-37040720D01*
X189299307Y-37368386D01*
X188167935Y-37368386D01*
X187840269Y-37040720D01*
X187797366Y-37182155D01*
X187779024Y-37368387D01*
X185463678Y-37368387D01*
X185463678Y-34959387D01*
X185476941Y-34909887D01*
X185513178Y-34873650D01*
X185562678Y-34860387D01*
X187850276Y-34860387D01*
X187899777Y-34873651D01*
X187936013Y-34909888D01*
X187949276Y-34959389D01*
X187936011Y-35008889D01*
X187934001Y-35012369D01*
X187934000Y-35012371D01*
X187934000Y-35012372D01*
X187877454Y-35186403D01*
X187858327Y-35368387D01*
X187877454Y-35550371D01*
X187881338Y-35562325D01*
X187934001Y-35724406D01*
X188025491Y-35882870D01*
X188147935Y-36018858D01*
X188295973Y-36126415D01*
X188365262Y-36157264D01*
X188463141Y-36200842D01*
X188608776Y-36231797D01*
X188657551Y-36257992D01*
X188684635Y-36306280D01*
X188681557Y-36361559D01*
X188649278Y-36406541D01*
X188597895Y-36427157D01*
X188547390Y-36432131D01*
X188405955Y-36475034D01*
X188733622Y-36802701D01*
X189061288Y-36475035D01*
X189061287Y-36475034D01*
X188919853Y-36432131D01*
X188869348Y-36427157D01*
X188817965Y-36406541D01*
X188785686Y-36361559D01*
X188782608Y-36306280D01*
X188809692Y-36257992D01*
X188858466Y-36231798D01*
X189004103Y-36200842D01*
X189171270Y-36126415D01*
X189319309Y-36018858D01*
X189441751Y-35882872D01*
X189481764Y-35813567D01*
X189533242Y-35724406D01*
X189533242Y-35724404D01*
X189533244Y-35724402D01*
X189589790Y-35550371D01*
X189608917Y-35368387D01*
X189589790Y-35186403D01*
X189533244Y-35012372D01*
X189531232Y-35008888D01*
X189517968Y-34959389D01*
X189531231Y-34909888D01*
X189567467Y-34873651D01*
X189616968Y-34860387D01*
X192035621Y-34860387D01*
X192035622Y-34860387D01*
X192035622Y-32608756D01*
X192041098Y-32576288D01*
X192056919Y-32547411D01*
X192268419Y-32279511D01*
X192318365Y-32245827D01*
X192378590Y-32247332D01*
X192426792Y-32283468D01*
X192445122Y-32340856D01*
X192445122Y-32441161D01*
X192453587Y-32502366D01*
X192471863Y-32567163D01*
X192493120Y-32615759D01*
X192496625Y-32623772D01*
X192535824Y-32671538D01*
X192585256Y-32717233D01*
X192635953Y-32752567D01*
X192648673Y-32759048D01*
X192673730Y-32777252D01*
X192696357Y-32799879D01*
X192714560Y-32824934D01*
X192729086Y-32853442D01*
X192738656Y-32882898D01*
X192743661Y-32914500D01*
X192743661Y-32945472D01*
X192738656Y-32977074D01*
X192729085Y-33006533D01*
X192714564Y-33035032D01*
X192696358Y-33060091D01*
X192673727Y-33082722D01*
X192648676Y-33100924D01*
X192635950Y-33107409D01*
X192585256Y-33142740D01*
X192535826Y-33188433D01*
X192496624Y-33236203D01*
X192471863Y-33292810D01*
X192453587Y-33357607D01*
X192445122Y-33418813D01*
X192445122Y-33597681D01*
X192449454Y-33641671D01*
X192458893Y-33689119D01*
X192458894Y-33689123D01*
X192479086Y-33737870D01*
X192489323Y-33762586D01*
X192492566Y-33770414D01*
X192519447Y-33810643D01*
X192519450Y-33810647D01*
X192519451Y-33810648D01*
X192550449Y-33848418D01*
X192562131Y-33866278D01*
X192576685Y-33894841D01*
X192586257Y-33924302D01*
X192591261Y-33955900D01*
X192591261Y-33986872D01*
X192586256Y-34018473D01*
X192576684Y-34047932D01*
X192562131Y-34076493D01*
X192550451Y-34094350D01*
X192519449Y-34132126D01*
X192492566Y-34172358D01*
X192475293Y-34214060D01*
X192461638Y-34247028D01*
X192458893Y-34253654D01*
X192449454Y-34301102D01*
X192445122Y-34345093D01*
X192445122Y-34719226D01*
X192451351Y-34771864D01*
X192464867Y-34828162D01*
X192483214Y-34877894D01*
X192525886Y-34961642D01*
X192535457Y-34991096D01*
X192535883Y-34993785D01*
X192535883Y-34993786D01*
X192540462Y-35022699D01*
X192540462Y-35053672D01*
X192535457Y-35085273D01*
X192525886Y-35114730D01*
X192483216Y-35198475D01*
X192464867Y-35248211D01*
X192451351Y-35304509D01*
X192445122Y-35357148D01*
X192445122Y-36688069D01*
X192443808Y-36704145D01*
X192432437Y-36773243D01*
X192432216Y-36774585D01*
X192429840Y-36827877D01*
X192434148Y-36885971D01*
X192444359Y-36938334D01*
X192444360Y-36938336D01*
X192466583Y-36986829D01*
X192466585Y-36986832D01*
X192496951Y-37036551D01*
X192496953Y-37036554D01*
X192496954Y-37036555D01*
X192523514Y-37070298D01*
X192533933Y-37086586D01*
X192551285Y-37120641D01*
X192560856Y-37150098D01*
X192565861Y-37181696D01*
X192565861Y-37212670D01*
X192560856Y-37244272D01*
X192551285Y-37273731D01*
X192536762Y-37302234D01*
X192518556Y-37327293D01*
X192494262Y-37351587D01*
X192479198Y-37363939D01*
X192435745Y-37392926D01*
X192391936Y-37430227D01*
X192356097Y-37468822D01*
X192330186Y-37514683D01*
X192307934Y-37567725D01*
X192307932Y-37567728D01*
X192307932Y-37567731D01*
X192295149Y-37612164D01*
X192293367Y-37618357D01*
X191789360Y-40681168D01*
X191787119Y-40699397D01*
X191786290Y-40709542D01*
X191785472Y-40719544D01*
X191784722Y-40737918D01*
X191784722Y-43831743D01*
X191785643Y-43838816D01*
X191792236Y-43889471D01*
X191808486Y-43950838D01*
X191820238Y-43979563D01*
X191830529Y-44004719D01*
X191865628Y-44051161D01*
X191910124Y-44096445D01*
X191955944Y-44132355D01*
X192009430Y-44155338D01*
X192070507Y-44172664D01*
X192128092Y-44181189D01*
X192794319Y-44192875D01*
X192848660Y-44210275D01*
X192884374Y-44254778D01*
X192889593Y-44311600D01*
X192862585Y-44361864D01*
X190455687Y-46768762D01*
X190443104Y-46777816D01*
X190408221Y-46816079D01*
X190405068Y-46819381D01*
X190392542Y-46831908D01*
X190384259Y-46842364D01*
X190366279Y-46862088D01*
X190363110Y-46870267D01*
X190352479Y-46890436D01*
X190347524Y-46897670D01*
X190341415Y-46923641D01*
X190337362Y-46936730D01*
X190327722Y-46961617D01*
X190327722Y-46970383D01*
X190325092Y-46993049D01*
X190323087Y-47001573D01*
X190326773Y-47027998D01*
X190327722Y-47041674D01*
X190327722Y-48950649D01*
X190321480Y-48985246D01*
X190303542Y-49015480D01*
X190234589Y-49095056D01*
X190181371Y-49211586D01*
X190163140Y-49338387D01*
X190181371Y-49465187D01*
X190181372Y-49465189D01*
X190234590Y-49581719D01*
X190308707Y-49667255D01*
X190318484Y-49678538D01*
X190426250Y-49747794D01*
X190426252Y-49747795D01*
X190549169Y-49783887D01*
X190677275Y-49783887D01*
X190800192Y-49747795D01*
X190889880Y-49690156D01*
X190907959Y-49678538D01*
X190907959Y-49678537D01*
X190907962Y-49678536D01*
X190991854Y-49581719D01*
X191045072Y-49465189D01*
X191057135Y-49381286D01*
X192601740Y-49381286D01*
X192619971Y-49508087D01*
X192669978Y-49617587D01*
X192673190Y-49624619D01*
X192732530Y-49693101D01*
X192757084Y-49721438D01*
X192854101Y-49783786D01*
X192864852Y-49790695D01*
X192987769Y-49826787D01*
X193115875Y-49826787D01*
X193238792Y-49790695D01*
X193346562Y-49721436D01*
X193430454Y-49624619D01*
X193483672Y-49508089D01*
X193501903Y-49381287D01*
X193499415Y-49363985D01*
X193490257Y-49300288D01*
X193483672Y-49254485D01*
X193430454Y-49137955D01*
X193346562Y-49041138D01*
X193346561Y-49041137D01*
X193346559Y-49041135D01*
X193238793Y-48971879D01*
X193115875Y-48935787D01*
X192987769Y-48935787D01*
X192864850Y-48971879D01*
X192757084Y-49041135D01*
X192673189Y-49137956D01*
X192619971Y-49254486D01*
X192601740Y-49381286D01*
X191057135Y-49381286D01*
X191063303Y-49338387D01*
X191045072Y-49211585D01*
X190991854Y-49095055D01*
X190922901Y-49015479D01*
X190904964Y-48985246D01*
X190898722Y-48950649D01*
X190898722Y-47827787D01*
X192550740Y-47827787D01*
X192568971Y-47954587D01*
X192568972Y-47954589D01*
X192622190Y-48071119D01*
X192700218Y-48161168D01*
X192706084Y-48167938D01*
X192813850Y-48237194D01*
X192813852Y-48237195D01*
X192936769Y-48273287D01*
X193064875Y-48273287D01*
X193187792Y-48237195D01*
X193295562Y-48167936D01*
X193379454Y-48071119D01*
X193432672Y-47954589D01*
X193450903Y-47827787D01*
X193448976Y-47814386D01*
X195445191Y-47814386D01*
X195464789Y-47938125D01*
X195464789Y-47938126D01*
X195464790Y-47938127D01*
X195521667Y-48049754D01*
X195610255Y-48138342D01*
X195721882Y-48195219D01*
X195845622Y-48214817D01*
X195969362Y-48195219D01*
X196080989Y-48138342D01*
X196131220Y-48088110D01*
X196175599Y-48062489D01*
X196226845Y-48062489D01*
X196271223Y-48088110D01*
X196321455Y-48138342D01*
X196433082Y-48195219D01*
X196556822Y-48214817D01*
X196680562Y-48195219D01*
X196792189Y-48138342D01*
X196880777Y-48049754D01*
X196937654Y-47938127D01*
X196957252Y-47814387D01*
X196937654Y-47690647D01*
X196880777Y-47579020D01*
X196792189Y-47490432D01*
X196680562Y-47433555D01*
X196680561Y-47433554D01*
X196680560Y-47433554D01*
X196556822Y-47413956D01*
X196433083Y-47433554D01*
X196321456Y-47490431D01*
X196321455Y-47490431D01*
X196321455Y-47490432D01*
X196271223Y-47540663D01*
X196226845Y-47566285D01*
X196175599Y-47566285D01*
X196131220Y-47540663D01*
X196080989Y-47490432D01*
X195969362Y-47433555D01*
X195969361Y-47433554D01*
X195969360Y-47433554D01*
X195845622Y-47413956D01*
X195721883Y-47433554D01*
X195610256Y-47490431D01*
X195521666Y-47579021D01*
X195464789Y-47690648D01*
X195445191Y-47814386D01*
X193448976Y-47814386D01*
X193432672Y-47700985D01*
X193379454Y-47584455D01*
X193295562Y-47487638D01*
X193295561Y-47487637D01*
X193295559Y-47487635D01*
X193187793Y-47418379D01*
X193064875Y-47382287D01*
X192936769Y-47382287D01*
X192813850Y-47418379D01*
X192706084Y-47487635D01*
X192622189Y-47584456D01*
X192568971Y-47700986D01*
X192550740Y-47827787D01*
X190898722Y-47827787D01*
X190898722Y-47174253D01*
X190906258Y-47136367D01*
X190927718Y-47104249D01*
X191055781Y-46976186D01*
X197705791Y-46976186D01*
X197725389Y-47099925D01*
X197725389Y-47099926D01*
X197725390Y-47099927D01*
X197782267Y-47211554D01*
X197870855Y-47300142D01*
X197982482Y-47357019D01*
X198106222Y-47376617D01*
X198229962Y-47357019D01*
X198341589Y-47300142D01*
X198430177Y-47211554D01*
X198487054Y-47099927D01*
X198491678Y-47070723D01*
X198501248Y-47041269D01*
X198519452Y-47016211D01*
X200978581Y-44557083D01*
X201010700Y-44535623D01*
X201048586Y-44528087D01*
X202323838Y-44528087D01*
X202377361Y-44543803D01*
X202491250Y-44616994D01*
X202491252Y-44616995D01*
X202614169Y-44653087D01*
X202742275Y-44653087D01*
X202865192Y-44616995D01*
X202972962Y-44547736D01*
X203056854Y-44450919D01*
X203110072Y-44334389D01*
X203128303Y-44207587D01*
X203124507Y-44181188D01*
X203112324Y-44096446D01*
X203110072Y-44080785D01*
X203056854Y-43964255D01*
X202972962Y-43867438D01*
X202972961Y-43867437D01*
X202972959Y-43867435D01*
X202865193Y-43798179D01*
X202742275Y-43762087D01*
X202614169Y-43762087D01*
X202491250Y-43798179D01*
X202377361Y-43871371D01*
X202323838Y-43887087D01*
X200893136Y-43887087D01*
X200884508Y-43886710D01*
X200881369Y-43886435D01*
X200846455Y-43883380D01*
X200809552Y-43893268D01*
X200801125Y-43895136D01*
X200763512Y-43901769D01*
X200762392Y-43902416D01*
X200738534Y-43912299D01*
X200737286Y-43912633D01*
X200705990Y-43934545D01*
X200698712Y-43939181D01*
X200665630Y-43958281D01*
X200641088Y-43987529D01*
X200635255Y-43993896D01*
X198066198Y-46562953D01*
X198011682Y-46590730D01*
X197982483Y-46595354D01*
X197870856Y-46652231D01*
X197782266Y-46740821D01*
X197725389Y-46852448D01*
X197705791Y-46976186D01*
X191055781Y-46976186D01*
X191219880Y-46812087D01*
X191474180Y-46557786D01*
X195521391Y-46557786D01*
X195540989Y-46681525D01*
X195540989Y-46681526D01*
X195540990Y-46681527D01*
X195597867Y-46793154D01*
X195686455Y-46881742D01*
X195798082Y-46938619D01*
X195921822Y-46958217D01*
X196045562Y-46938619D01*
X196157189Y-46881742D01*
X196245777Y-46793154D01*
X196302654Y-46681527D01*
X196322252Y-46557787D01*
X196302654Y-46434047D01*
X196245777Y-46322420D01*
X196157189Y-46233832D01*
X196045562Y-46176955D01*
X196045561Y-46176954D01*
X196045560Y-46176954D01*
X195921822Y-46157356D01*
X195798083Y-46176954D01*
X195686456Y-46233831D01*
X195597866Y-46322421D01*
X195540989Y-46434048D01*
X195521391Y-46557786D01*
X191474180Y-46557786D01*
X192168310Y-45863655D01*
X192208729Y-45839184D01*
X192255889Y-45836234D01*
X192299045Y-45855478D01*
X192328365Y-45892533D01*
X192342790Y-45924119D01*
X192426682Y-46020936D01*
X192426684Y-46020938D01*
X192528038Y-46086073D01*
X192534452Y-46090195D01*
X192657369Y-46126287D01*
X192785475Y-46126287D01*
X192908392Y-46090195D01*
X193016162Y-46020936D01*
X193100054Y-45924119D01*
X193118340Y-45884078D01*
X193149064Y-45845953D01*
X193194304Y-45827215D01*
X193242990Y-45832449D01*
X193283212Y-45860377D01*
X193290282Y-45868537D01*
X193398050Y-45937794D01*
X193398052Y-45937795D01*
X193520969Y-45973887D01*
X193649075Y-45973887D01*
X193771992Y-45937795D01*
X193879762Y-45868536D01*
X193963654Y-45771719D01*
X194016872Y-45655189D01*
X194035103Y-45528387D01*
X194016872Y-45401585D01*
X193999610Y-45363787D01*
X195216740Y-45363787D01*
X195234971Y-45490587D01*
X195240633Y-45502986D01*
X195288190Y-45607119D01*
X195372082Y-45703936D01*
X195372084Y-45703938D01*
X195477552Y-45771717D01*
X195479852Y-45773195D01*
X195602769Y-45809287D01*
X195730875Y-45809287D01*
X195853792Y-45773195D01*
X195961562Y-45703936D01*
X196045454Y-45607119D01*
X196098672Y-45490589D01*
X196116903Y-45363787D01*
X196098672Y-45236985D01*
X196045454Y-45120455D01*
X195961562Y-45023638D01*
X195961561Y-45023637D01*
X195961559Y-45023635D01*
X195853793Y-44954379D01*
X195730875Y-44918287D01*
X195602769Y-44918287D01*
X195479850Y-44954379D01*
X195372084Y-45023635D01*
X195288189Y-45120456D01*
X195234971Y-45236986D01*
X195216740Y-45363787D01*
X193999610Y-45363787D01*
X193963654Y-45285055D01*
X193879762Y-45188238D01*
X193879761Y-45188237D01*
X193879759Y-45188235D01*
X193771993Y-45118979D01*
X193649075Y-45082887D01*
X193520969Y-45082887D01*
X193398050Y-45118979D01*
X193290284Y-45188235D01*
X193206389Y-45285056D01*
X193188104Y-45325094D01*
X193157378Y-45363221D01*
X193112138Y-45381959D01*
X193063452Y-45376723D01*
X193023232Y-45348797D01*
X193016162Y-45340638D01*
X193016158Y-45340635D01*
X192921763Y-45279971D01*
X192884279Y-45235659D01*
X192878075Y-45177951D01*
X192905280Y-45126685D01*
X194158827Y-43873139D01*
X194188840Y-43852581D01*
X194224257Y-43844252D01*
X194235193Y-43843746D01*
X194235195Y-43843747D01*
X194272013Y-43842044D01*
X194279621Y-43841693D01*
X194284192Y-43841587D01*
X194301913Y-43841587D01*
X194315156Y-43840049D01*
X194341819Y-43838817D01*
X194349835Y-43835276D01*
X194371626Y-43828529D01*
X194380243Y-43826919D01*
X194402937Y-43812866D01*
X194415040Y-43806486D01*
X194439463Y-43795704D01*
X194445658Y-43789507D01*
X194463551Y-43775336D01*
X194470994Y-43770728D01*
X194487073Y-43749434D01*
X194496060Y-43739105D01*
X197091283Y-41143883D01*
X197123402Y-41122423D01*
X197161288Y-41114887D01*
X197384993Y-41114887D01*
X197422879Y-41122423D01*
X197454993Y-41143880D01*
X197464455Y-41153342D01*
X197576082Y-41210219D01*
X197699822Y-41229817D01*
X197823562Y-41210219D01*
X197935189Y-41153342D01*
X198023777Y-41064754D01*
X198080654Y-40953127D01*
X198100252Y-40829387D01*
X198080654Y-40705647D01*
X198023777Y-40594020D01*
X197935189Y-40505432D01*
X197823562Y-40448555D01*
X197823561Y-40448554D01*
X197823560Y-40448554D01*
X197699822Y-40428956D01*
X197576083Y-40448554D01*
X197464456Y-40505431D01*
X197464455Y-40505431D01*
X197464455Y-40505432D01*
X197454993Y-40514893D01*
X197422879Y-40536351D01*
X197384993Y-40543887D01*
X197064740Y-40543887D01*
X197049435Y-40541390D01*
X196997739Y-40543781D01*
X196993167Y-40543887D01*
X196975438Y-40543887D01*
X196962177Y-40545424D01*
X196935522Y-40546657D01*
X196927506Y-40550196D01*
X196905720Y-40556942D01*
X196897102Y-40558553D01*
X196874406Y-40572605D01*
X196862284Y-40578995D01*
X196837878Y-40589772D01*
X196831680Y-40595970D01*
X196813804Y-40610129D01*
X196806350Y-40614744D01*
X196790270Y-40636037D01*
X196781272Y-40646378D01*
X194188619Y-43239031D01*
X194158604Y-43259591D01*
X194123189Y-43267921D01*
X194071673Y-43270303D01*
X194067836Y-43270481D01*
X194063267Y-43270587D01*
X194045538Y-43270587D01*
X194032277Y-43272124D01*
X194005624Y-43273356D01*
X193997606Y-43276897D01*
X193975819Y-43283643D01*
X193967202Y-43285254D01*
X193944510Y-43299303D01*
X193932390Y-43305691D01*
X193907979Y-43316470D01*
X193901780Y-43322669D01*
X193883904Y-43336829D01*
X193876450Y-43341444D01*
X193860373Y-43362733D01*
X193851376Y-43373073D01*
X193843871Y-43380578D01*
X193793496Y-43407609D01*
X193736576Y-43402282D01*
X193692091Y-43366375D01*
X193674875Y-43311860D01*
X193674824Y-43307917D01*
X193635945Y-40314203D01*
X193644717Y-40272159D01*
X193670471Y-40237786D01*
X193708359Y-40217554D01*
X194926116Y-39878181D01*
X194971481Y-39860044D01*
X195018640Y-39834958D01*
X195059036Y-39807475D01*
X195092563Y-39771936D01*
X195124793Y-39729340D01*
X195149879Y-39687414D01*
X195165345Y-39641069D01*
X195176666Y-39588866D01*
X195181788Y-39540280D01*
X195179793Y-38973786D01*
X197419240Y-38973786D01*
X197437471Y-39100587D01*
X197467444Y-39166219D01*
X197490690Y-39217119D01*
X197574582Y-39313936D01*
X197574584Y-39313938D01*
X197682350Y-39383194D01*
X197682352Y-39383195D01*
X197805269Y-39419287D01*
X197933375Y-39419287D01*
X198056292Y-39383195D01*
X198164062Y-39313936D01*
X198247954Y-39217119D01*
X198301172Y-39100589D01*
X198319403Y-38973787D01*
X198301172Y-38846985D01*
X198247954Y-38730455D01*
X198164062Y-38633638D01*
X198164061Y-38633637D01*
X198164059Y-38633635D01*
X198056293Y-38564379D01*
X197933375Y-38528287D01*
X197805269Y-38528287D01*
X197682350Y-38564379D01*
X197574584Y-38633635D01*
X197490689Y-38730456D01*
X197437471Y-38846986D01*
X197419240Y-38973786D01*
X195179793Y-38973786D01*
X195170495Y-36333587D01*
X196689791Y-36333587D01*
X196709389Y-36457325D01*
X196709389Y-36457326D01*
X196709390Y-36457327D01*
X196766267Y-36568954D01*
X196854855Y-36657542D01*
X196966482Y-36714419D01*
X197090222Y-36734017D01*
X197213962Y-36714419D01*
X197325589Y-36657542D01*
X197414177Y-36568954D01*
X197471054Y-36457327D01*
X197490652Y-36333587D01*
X197471054Y-36209847D01*
X197414177Y-36098220D01*
X197325589Y-36009632D01*
X197325586Y-36009630D01*
X197314501Y-35998545D01*
X197314740Y-35998305D01*
X197287971Y-35973167D01*
X197274234Y-35919663D01*
X197291304Y-35867126D01*
X197333868Y-35831915D01*
X197388670Y-35824992D01*
X197477222Y-35839017D01*
X197600962Y-35819419D01*
X197712589Y-35762542D01*
X197801177Y-35673954D01*
X197858054Y-35562327D01*
X197877652Y-35438587D01*
X197858054Y-35314847D01*
X197801177Y-35203220D01*
X197712589Y-35114632D01*
X197600962Y-35057755D01*
X197600961Y-35057754D01*
X197600960Y-35057754D01*
X197477222Y-35038156D01*
X197353483Y-35057754D01*
X197241856Y-35114631D01*
X197153266Y-35203221D01*
X197096389Y-35314848D01*
X197076791Y-35438587D01*
X197096389Y-35562325D01*
X197096389Y-35562326D01*
X197096390Y-35562327D01*
X197153267Y-35673954D01*
X197241855Y-35762542D01*
X197241857Y-35762543D01*
X197252943Y-35773629D01*
X197252703Y-35773868D01*
X197279470Y-35799003D01*
X197293209Y-35852508D01*
X197276140Y-35905045D01*
X197233577Y-35940257D01*
X197178772Y-35947181D01*
X197090222Y-35933156D01*
X196966483Y-35952754D01*
X196854856Y-36009631D01*
X196766266Y-36098221D01*
X196709389Y-36209848D01*
X196689791Y-36333587D01*
X195170495Y-36333587D01*
X195170284Y-36273732D01*
X195182778Y-36225242D01*
X195217407Y-36189067D01*
X195265309Y-36174467D01*
X195314227Y-36185177D01*
X195370553Y-36213876D01*
X195465440Y-36228905D01*
X195486470Y-36232236D01*
X195486470Y-36232235D01*
X195486471Y-36232236D01*
X195602389Y-36213876D01*
X195706960Y-36160595D01*
X195789948Y-36077607D01*
X195789949Y-36077604D01*
X195798308Y-36069246D01*
X195842689Y-36043623D01*
X195893935Y-36043623D01*
X195938316Y-36069246D01*
X195943343Y-36074273D01*
X195943345Y-36074276D01*
X196026333Y-36157264D01*
X196130904Y-36210545D01*
X196246822Y-36228905D01*
X196362740Y-36210545D01*
X196467311Y-36157264D01*
X196550299Y-36074276D01*
X196603580Y-35969705D01*
X196621940Y-35853787D01*
X196621737Y-35852508D01*
X196606548Y-35756610D01*
X196603580Y-35737869D01*
X196558161Y-35648728D01*
X196547372Y-35603787D01*
X196558161Y-35558845D01*
X196603580Y-35469705D01*
X196621940Y-35353787D01*
X196619491Y-35338328D01*
X196603580Y-35237870D01*
X196603580Y-35237869D01*
X196558161Y-35148728D01*
X196547372Y-35103787D01*
X196558161Y-35058845D01*
X196603580Y-34969705D01*
X196621940Y-34853787D01*
X196611497Y-34787856D01*
X196616130Y-34738838D01*
X196643808Y-34698112D01*
X196687681Y-34675756D01*
X196736898Y-34677303D01*
X196779279Y-34702366D01*
X196804055Y-34727142D01*
X196915682Y-34784019D01*
X196939934Y-34787860D01*
X197039421Y-34803617D01*
X197039421Y-34803616D01*
X197039422Y-34803617D01*
X197163162Y-34784019D01*
X197274789Y-34727142D01*
X197363377Y-34638554D01*
X197420254Y-34526927D01*
X197439852Y-34403187D01*
X197420254Y-34279447D01*
X197363377Y-34167820D01*
X197274789Y-34079232D01*
X197163162Y-34022355D01*
X197163161Y-34022354D01*
X197163160Y-34022354D01*
X197039422Y-34002756D01*
X196915683Y-34022354D01*
X196804053Y-34079232D01*
X196723521Y-34159765D01*
X196675114Y-34186377D01*
X196619982Y-34182908D01*
X196575292Y-34150438D01*
X196554957Y-34099077D01*
X196565309Y-34044816D01*
X196603580Y-33969705D01*
X196621940Y-33853787D01*
X196621714Y-33852363D01*
X196610718Y-33782937D01*
X196603580Y-33737869D01*
X196550299Y-33633298D01*
X196467311Y-33550310D01*
X196362740Y-33497029D01*
X196266262Y-33481748D01*
X196223560Y-33464061D01*
X196193542Y-33428915D01*
X196191672Y-33425245D01*
X196188163Y-33418359D01*
X196177372Y-33373415D01*
X196188162Y-33328468D01*
X196190296Y-33324278D01*
X196190299Y-33324276D01*
X196243580Y-33219705D01*
X196261940Y-33103787D01*
X196260359Y-33093808D01*
X196243580Y-32987870D01*
X196243580Y-32987869D01*
X196190299Y-32883298D01*
X196190297Y-32883296D01*
X196188162Y-32879105D01*
X196177372Y-32834160D01*
X196188160Y-32789219D01*
X196223580Y-32719705D01*
X196241940Y-32603787D01*
X196223580Y-32487869D01*
X196170299Y-32383298D01*
X196087311Y-32300310D01*
X195982740Y-32247029D01*
X195982739Y-32247028D01*
X195982738Y-32247028D01*
X195962270Y-32243786D01*
X198256740Y-32243786D01*
X198274971Y-32370587D01*
X198307200Y-32441159D01*
X198328190Y-32487119D01*
X198405455Y-32576288D01*
X198412084Y-32583938D01*
X198502427Y-32641997D01*
X198519852Y-32653195D01*
X198642769Y-32689287D01*
X198770875Y-32689287D01*
X198893792Y-32653195D01*
X199001562Y-32583936D01*
X199085454Y-32487119D01*
X199138672Y-32370589D01*
X199156903Y-32243787D01*
X199156039Y-32237781D01*
X199138672Y-32116986D01*
X199123116Y-32082924D01*
X199085454Y-32000455D01*
X199001562Y-31903638D01*
X199001561Y-31903637D01*
X199001559Y-31903635D01*
X198893793Y-31834379D01*
X198770875Y-31798287D01*
X198642769Y-31798287D01*
X198519850Y-31834379D01*
X198412084Y-31903635D01*
X198328189Y-32000456D01*
X198274971Y-32116986D01*
X198256740Y-32243786D01*
X195962270Y-32243786D01*
X195866822Y-32228668D01*
X195750905Y-32247028D01*
X195646334Y-32300309D01*
X195563344Y-32383299D01*
X195510063Y-32487870D01*
X195491703Y-32603787D01*
X195510064Y-32719705D01*
X195565481Y-32828469D01*
X195576271Y-32873413D01*
X195565481Y-32918357D01*
X195530064Y-32987868D01*
X195511703Y-33103786D01*
X195530064Y-33219705D01*
X195565481Y-33289216D01*
X195576271Y-33334160D01*
X195565481Y-33379104D01*
X195510064Y-33487868D01*
X195491703Y-33603786D01*
X195510063Y-33719703D01*
X195510063Y-33719704D01*
X195510064Y-33719705D01*
X195563345Y-33824276D01*
X195646333Y-33907264D01*
X195750904Y-33960545D01*
X195847382Y-33975826D01*
X195890084Y-33993513D01*
X195920103Y-34028661D01*
X195930481Y-34049029D01*
X195941271Y-34093975D01*
X195930480Y-34138920D01*
X195910102Y-34178913D01*
X195880084Y-34214060D01*
X195837381Y-34231748D01*
X195740905Y-34247028D01*
X195636334Y-34300309D01*
X195553344Y-34383299D01*
X195500063Y-34487870D01*
X195481703Y-34603787D01*
X195500064Y-34719705D01*
X195550481Y-34818656D01*
X195561271Y-34863600D01*
X195550481Y-34908544D01*
X195510064Y-34987868D01*
X195491703Y-35103787D01*
X195510063Y-35219703D01*
X195510063Y-35219704D01*
X195510064Y-35219705D01*
X195553273Y-35304509D01*
X195555481Y-35308841D01*
X195566271Y-35353786D01*
X195555481Y-35398730D01*
X195538288Y-35432474D01*
X195508269Y-35467622D01*
X195465566Y-35485311D01*
X195370551Y-35500360D01*
X195311301Y-35530549D01*
X195262556Y-35541266D01*
X195214778Y-35526841D01*
X195180108Y-35490940D01*
X195167358Y-35442690D01*
X195156991Y-32498395D01*
X195167441Y-32453779D01*
X195434807Y-31919047D01*
X195452678Y-31869594D01*
X195465768Y-31813670D01*
X195471701Y-31761423D01*
X195465373Y-31709223D01*
X195451860Y-31653400D01*
X195451858Y-31653396D01*
X195450498Y-31647775D01*
X195450811Y-31647699D01*
X195448434Y-31638613D01*
X195442203Y-31599267D01*
X195442203Y-31568304D01*
X195444731Y-31552337D01*
X195454299Y-31522890D01*
X195461639Y-31508484D01*
X195479838Y-31483435D01*
X195491270Y-31472003D01*
X195516321Y-31453803D01*
X195568547Y-31427192D01*
X195575413Y-31424019D01*
X195613577Y-31408128D01*
X195660124Y-31381886D01*
X195699189Y-31345428D01*
X195736831Y-31300843D01*
X195766221Y-31256220D01*
X195802574Y-31183513D01*
X195839076Y-31143573D01*
X195891123Y-31128787D01*
X197871821Y-31128787D01*
X197871822Y-31128787D01*
X198535307Y-30373787D01*
X199446740Y-30373787D01*
X199464971Y-30500587D01*
X199464972Y-30500589D01*
X199518190Y-30617119D01*
X199602082Y-30713936D01*
X199602084Y-30713938D01*
X199709850Y-30783194D01*
X199709852Y-30783195D01*
X199832769Y-30819287D01*
X199960875Y-30819287D01*
X200083792Y-30783195D01*
X200191562Y-30713936D01*
X200275454Y-30617119D01*
X200328672Y-30500589D01*
X200346903Y-30373787D01*
X200328672Y-30246985D01*
X200275454Y-30130455D01*
X200191562Y-30033638D01*
X200191561Y-30033637D01*
X200191559Y-30033635D01*
X200083793Y-29964379D01*
X199960875Y-29928287D01*
X199832769Y-29928287D01*
X199709850Y-29964379D01*
X199602084Y-30033635D01*
X199518189Y-30130456D01*
X199464971Y-30246986D01*
X199446740Y-30373787D01*
X198535307Y-30373787D01*
X199304909Y-29498032D01*
X199345945Y-29470163D01*
X204475868Y-27636390D01*
X204524668Y-27631832D01*
X204569679Y-27651246D01*
X204599859Y-27689872D01*
X204607809Y-27738242D01*
X204591759Y-27921686D01*
X204610372Y-28134431D01*
X204665647Y-28340721D01*
X204755899Y-28534265D01*
X204874757Y-28704014D01*
X204878393Y-28709206D01*
X205029403Y-28860216D01*
X205204341Y-28982708D01*
X205204342Y-28982708D01*
X205204343Y-28982709D01*
X205397887Y-29072961D01*
X205397888Y-29072961D01*
X205397892Y-29072963D01*
X205604175Y-29128236D01*
X205816922Y-29146849D01*
X206029669Y-29128236D01*
X206235952Y-29072963D01*
X206429503Y-28982708D01*
X206604441Y-28860216D01*
X206755451Y-28709206D01*
X206877943Y-28534268D01*
X206968198Y-28340717D01*
X207023471Y-28134434D01*
X207042084Y-27921687D01*
X207023471Y-27708940D01*
X206968198Y-27502657D01*
X206929712Y-27420125D01*
X206920649Y-27371813D01*
X206935941Y-27325095D01*
X206971819Y-27291491D01*
X207019437Y-27279287D01*
X211114407Y-27279287D01*
X211162025Y-27291491D01*
G37*
G04 #@! TD.AperFunction*
G04 #@! TA.AperFunction,Conductor*
G36*
X193581315Y-37129152D02*
G01*
X193610766Y-37138722D01*
X193639268Y-37153244D01*
X193664328Y-37171450D01*
X193686957Y-37194079D01*
X193705160Y-37219134D01*
X193719685Y-37247640D01*
X193729256Y-37277098D01*
X193734261Y-37308700D01*
X193734261Y-37339672D01*
X193729256Y-37371274D01*
X193719685Y-37400733D01*
X193705164Y-37429232D01*
X193686958Y-37454291D01*
X193664326Y-37476923D01*
X193639268Y-37495127D01*
X193630639Y-37499525D01*
X193610768Y-37509650D01*
X193581309Y-37519221D01*
X193549707Y-37524226D01*
X193518734Y-37524226D01*
X193487134Y-37519221D01*
X193457676Y-37509650D01*
X193429169Y-37495125D01*
X193404112Y-37476920D01*
X193381488Y-37454297D01*
X193363282Y-37429239D01*
X193348755Y-37400727D01*
X193339186Y-37371276D01*
X193339186Y-37371274D01*
X193334180Y-37339667D01*
X193334180Y-37308705D01*
X193339187Y-37277089D01*
X193348757Y-37247640D01*
X193350473Y-37244272D01*
X193363280Y-37219135D01*
X193381482Y-37194081D01*
X193404116Y-37171447D01*
X193429170Y-37153245D01*
X193457677Y-37138721D01*
X193487126Y-37129152D01*
X193518740Y-37124145D01*
X193549702Y-37124145D01*
X193581315Y-37129152D01*
G37*
G04 #@! TD.AperFunction*
G04 #@! TA.AperFunction,Conductor*
G36*
X195449387Y-28677246D02*
G01*
X195498223Y-28691024D01*
X195533818Y-28727187D01*
X195546822Y-28776234D01*
X195546822Y-29506687D01*
X195533559Y-29556187D01*
X195497322Y-29592424D01*
X195447822Y-29605687D01*
X194486021Y-29605687D01*
X194479854Y-29606413D01*
X194433647Y-29611853D01*
X194377622Y-29625231D01*
X194377622Y-29625232D01*
X194328113Y-29643393D01*
X194314377Y-29652511D01*
X194284179Y-29672555D01*
X194240240Y-29709804D01*
X194204276Y-29748378D01*
X194119429Y-29863968D01*
X194069869Y-29899652D01*
X194008799Y-29899466D01*
X193959458Y-29863479D01*
X193940622Y-29805386D01*
X193940622Y-28753965D01*
X193954148Y-28704014D01*
X193991029Y-28667711D01*
X194041185Y-28654977D01*
X195449387Y-28677246D01*
G37*
G04 #@! TD.AperFunction*
G04 #@! TA.AperFunction,Conductor*
G36*
X195631222Y-29847800D02*
G01*
X195676609Y-29893187D01*
X195693222Y-29955187D01*
X195693222Y-30868714D01*
X195680131Y-30924169D01*
X195564528Y-31155372D01*
X195526886Y-31199957D01*
X195477251Y-31220627D01*
X195368155Y-31276214D01*
X195284049Y-31360320D01*
X195230047Y-31466306D01*
X195211440Y-31583786D01*
X195230047Y-31701267D01*
X195232690Y-31706454D01*
X195246203Y-31762277D01*
X195233113Y-31818201D01*
X194931222Y-32421985D01*
X194931222Y-32421987D01*
X194956289Y-39541074D01*
X194944968Y-39593277D01*
X194912738Y-39635873D01*
X194865579Y-39660959D01*
X193407222Y-40067386D01*
X193454979Y-43744772D01*
X193445856Y-43793090D01*
X193418670Y-43834063D01*
X193314148Y-43938585D01*
X193272913Y-43965877D01*
X193224292Y-43974885D01*
X192132047Y-43955724D01*
X192070970Y-43938398D01*
X192026474Y-43893114D01*
X192010222Y-43831743D01*
X192010222Y-40737918D01*
X192011868Y-40717784D01*
X192118895Y-40067387D01*
X192515875Y-37654967D01*
X192538130Y-37601918D01*
X192581931Y-37564623D01*
X192619042Y-37545715D01*
X192714350Y-37450407D01*
X192775541Y-37330313D01*
X192776511Y-37324186D01*
X193103417Y-37324186D01*
X193124502Y-37457311D01*
X193185694Y-37577408D01*
X193281000Y-37672714D01*
X193281002Y-37672715D01*
X193401096Y-37733906D01*
X193534222Y-37754991D01*
X193667348Y-37733906D01*
X193787442Y-37672715D01*
X193882750Y-37577407D01*
X193943941Y-37457313D01*
X193965026Y-37324187D01*
X193943941Y-37191061D01*
X193882750Y-37070967D01*
X193882749Y-37070965D01*
X193787443Y-36975659D01*
X193667346Y-36914467D01*
X193534222Y-36893382D01*
X193401097Y-36914467D01*
X193281000Y-36975659D01*
X193185694Y-37070965D01*
X193124502Y-37191062D01*
X193103417Y-37324186D01*
X192776511Y-37324186D01*
X192796626Y-37197187D01*
X192775541Y-37064061D01*
X192714350Y-36943967D01*
X192714349Y-36943965D01*
X192689397Y-36919014D01*
X192659031Y-36869295D01*
X192654723Y-36811201D01*
X192670622Y-36714587D01*
X192670622Y-35357148D01*
X192684137Y-35300853D01*
X192711573Y-35247007D01*
X192750141Y-35171313D01*
X192771226Y-35038187D01*
X192764194Y-34993787D01*
X193063517Y-34993787D01*
X193084602Y-35126911D01*
X193145794Y-35247008D01*
X193241100Y-35342314D01*
X193241102Y-35342315D01*
X193361196Y-35403506D01*
X193494322Y-35424591D01*
X193627448Y-35403506D01*
X193747542Y-35342315D01*
X193842850Y-35247007D01*
X193904041Y-35126913D01*
X193925126Y-34993787D01*
X193904041Y-34860661D01*
X193842850Y-34740567D01*
X193842849Y-34740565D01*
X193747543Y-34645259D01*
X193627446Y-34584067D01*
X193494321Y-34562982D01*
X193361197Y-34584067D01*
X193241100Y-34645259D01*
X193145794Y-34740565D01*
X193084602Y-34860662D01*
X193063517Y-34993787D01*
X192764194Y-34993787D01*
X192750141Y-34905061D01*
X192688950Y-34784967D01*
X192688949Y-34784966D01*
X192684137Y-34775521D01*
X192670622Y-34719226D01*
X192670622Y-34345097D01*
X192680061Y-34297644D01*
X192706942Y-34257415D01*
X192739749Y-34224608D01*
X192744798Y-34214699D01*
X192800941Y-34104513D01*
X192822026Y-33971387D01*
X192800941Y-33838261D01*
X192739750Y-33718167D01*
X192739749Y-33718165D01*
X192706942Y-33685359D01*
X192680061Y-33645130D01*
X192670622Y-33597677D01*
X192670622Y-33418815D01*
X192688895Y-33354025D01*
X192738327Y-33308330D01*
X192747707Y-33303550D01*
X192796842Y-33278515D01*
X192892150Y-33183207D01*
X192953341Y-33063113D01*
X192974426Y-32929987D01*
X192953341Y-32796861D01*
X192892150Y-32676767D01*
X192892149Y-32676765D01*
X192796843Y-32581459D01*
X192738327Y-32551644D01*
X192688895Y-32505949D01*
X192670622Y-32441159D01*
X192670622Y-32259412D01*
X192676785Y-32220806D01*
X192694662Y-32186037D01*
X194386061Y-29881812D01*
X194429997Y-29844565D01*
X194486021Y-29831187D01*
X195569222Y-29831187D01*
X195631222Y-29847800D01*
G37*
G04 #@! TD.AperFunction*
M02*
