%TF.GenerationSoftware,KiCad,Pcbnew,7.0.1*%
%TF.CreationDate,2023-10-11T20:36:58-05:00*%
%TF.ProjectId,Main_Board,4d61696e-5f42-46f6-9172-642e6b696361,1*%
%TF.SameCoordinates,Original*%
%TF.FileFunction,Drillmap*%
%TF.FilePolarity,Positive*%
%FSLAX45Y45*%
G04 Gerber Fmt 4.5, Leading zero omitted, Abs format (unit mm)*
G04 Created by KiCad (PCBNEW 7.0.1) date 2023-10-11 20:36:58*
%MOMM*%
%LPD*%
G01*
G04 APERTURE LIST*
%ADD10C,0.100000*%
%ADD11C,0.200000*%
%ADD12C,0.020000*%
%ADD13C,0.022000*%
%ADD14C,0.030000*%
%ADD15C,0.075000*%
%ADD16C,0.080000*%
%ADD17C,0.110000*%
G04 APERTURE END LIST*
D10*
X23483682Y-2000000D02*
X23483682Y-6983379D01*
X18516318Y-2000000D02*
X18516318Y-2000000D01*
X23483682Y-6983379D02*
X18516318Y-6983379D01*
X18516318Y-6983379D02*
X18516318Y-2000000D01*
X18516318Y-2000000D02*
X23483682Y-2000000D01*
D11*
D12*
X18554752Y-4210099D02*
X18574752Y-4230099D01*
X18574752Y-4210099D02*
X18554752Y-4230099D01*
X18554752Y-4372659D02*
X18574752Y-4392659D01*
X18574752Y-4372659D02*
X18554752Y-4392659D01*
X18556022Y-4720639D02*
X18576022Y-4740639D01*
X18576022Y-4720639D02*
X18556022Y-4740639D01*
X18556022Y-4895899D02*
X18576022Y-4915899D01*
X18576022Y-4895899D02*
X18556022Y-4915899D01*
X18556022Y-5071159D02*
X18576022Y-5091159D01*
X18576022Y-5071159D02*
X18556022Y-5091159D01*
X18557292Y-4027219D02*
X18577292Y-4047219D01*
X18577292Y-4027219D02*
X18557292Y-4047219D01*
X18558562Y-3689399D02*
X18578562Y-3709399D01*
X18578562Y-3689399D02*
X18558562Y-3709399D01*
X18558562Y-3836719D02*
X18578562Y-3856719D01*
X18578562Y-3836719D02*
X18558562Y-3856719D01*
X18558562Y-5561379D02*
X18578562Y-5581379D01*
X18578562Y-5561379D02*
X18558562Y-5581379D01*
X18558562Y-5840779D02*
X18578562Y-5860779D01*
X18578562Y-5840779D02*
X18558562Y-5860779D01*
X18558768Y-5256579D02*
X18578768Y-5276579D01*
X18578768Y-5256579D02*
X18558768Y-5276579D01*
X18558768Y-6125259D02*
X18578768Y-6145259D01*
X18578768Y-6125259D02*
X18558768Y-6145259D01*
X18563642Y-3519219D02*
X18583642Y-3539219D01*
X18583642Y-3519219D02*
X18563642Y-3539219D01*
X18639842Y-3503979D02*
X18659842Y-3523979D01*
X18659842Y-3503979D02*
X18639842Y-3523979D01*
X18655082Y-4250739D02*
X18675082Y-4270739D01*
X18675082Y-4250739D02*
X18655082Y-4270739D01*
X18710962Y-4763819D02*
X18730962Y-4783819D01*
X18730962Y-4763819D02*
X18710962Y-4783819D01*
X18858282Y-5322619D02*
X18878282Y-5342619D01*
X18878282Y-5322619D02*
X18858282Y-5342619D01*
X18863362Y-4674919D02*
X18883362Y-4694919D01*
X18883362Y-4674919D02*
X18863362Y-4694919D01*
X18939562Y-4598719D02*
X18959562Y-4618719D01*
X18959562Y-4598719D02*
X18939562Y-4618719D01*
X18957342Y-5213399D02*
X18977342Y-5233399D01*
X18977342Y-5213399D02*
X18957342Y-5233399D01*
X18977662Y-3511599D02*
X18997662Y-3531599D01*
X18997662Y-3511599D02*
X18977662Y-3531599D01*
X18977662Y-4946699D02*
X18997662Y-4966699D01*
X18997662Y-4946699D02*
X18977662Y-4966699D01*
X18992902Y-3699559D02*
X19012902Y-3719559D01*
X19012902Y-3699559D02*
X18992902Y-3719559D01*
X18995442Y-4685079D02*
X19015442Y-4705079D01*
X19015442Y-4685079D02*
X18995442Y-4705079D01*
X19010682Y-3849419D02*
X19030682Y-3869419D01*
X19030682Y-3849419D02*
X19010682Y-3869419D01*
X19014492Y-4169529D02*
X19034492Y-4189529D01*
X19034492Y-4169529D02*
X19014492Y-4189529D01*
X19066562Y-3580179D02*
X19086562Y-3600179D01*
X19086562Y-3580179D02*
X19066562Y-3600179D01*
X19119902Y-3925619D02*
X19139902Y-3945619D01*
X19139902Y-3925619D02*
X19119902Y-3945619D01*
X19121172Y-4164449D02*
X19141172Y-4184449D01*
X19141172Y-4164449D02*
X19121172Y-4184449D01*
X19132602Y-3778299D02*
X19152602Y-3798299D01*
X19152602Y-3778299D02*
X19132602Y-3798299D01*
X19137682Y-3656379D02*
X19157682Y-3676379D01*
X19157682Y-3656379D02*
X19137682Y-3676379D01*
X19146572Y-4738489D02*
X19166572Y-4758489D01*
X19166572Y-4738489D02*
X19146572Y-4758489D01*
X19203722Y-4453939D02*
X19223722Y-4473939D01*
X19223722Y-4453939D02*
X19203722Y-4473939D01*
X19385332Y-4301609D02*
X19405332Y-4321609D01*
X19405332Y-4301609D02*
X19385332Y-4321609D01*
X19447562Y-4410759D02*
X19467562Y-4430759D01*
X19467562Y-4410759D02*
X19447562Y-4430759D01*
X19481852Y-3181469D02*
X19501852Y-3201469D01*
X19501852Y-3181469D02*
X19481852Y-3201469D01*
X19538647Y-3575712D02*
X19558647Y-3595712D01*
X19558647Y-3575712D02*
X19538647Y-3595712D01*
X19538682Y-3325379D02*
X19558682Y-3345379D01*
X19558682Y-3325379D02*
X19538682Y-3345379D01*
X19546622Y-4413299D02*
X19566622Y-4433299D01*
X19566622Y-4413299D02*
X19546622Y-4433299D01*
X19549162Y-3148379D02*
X19569162Y-3168379D01*
X19569162Y-3148379D02*
X19549162Y-3168379D01*
X19564402Y-3742739D02*
X19584402Y-3762739D01*
X19584402Y-3742739D02*
X19564402Y-3762739D01*
X19574562Y-4771439D02*
X19594562Y-4791439D01*
X19594562Y-4771439D02*
X19574562Y-4791439D01*
X19575682Y-3400379D02*
X19595682Y-3420379D01*
X19595682Y-3400379D02*
X19575682Y-3420379D01*
X19575682Y-3450379D02*
X19595682Y-3470379D01*
X19595682Y-3450379D02*
X19575682Y-3470379D01*
X19576682Y-3250379D02*
X19596682Y-3270379D01*
X19596682Y-3250379D02*
X19576682Y-3270379D01*
X19576682Y-3350379D02*
X19596682Y-3370379D01*
X19596682Y-3350379D02*
X19576682Y-3370379D01*
X19576682Y-3500379D02*
X19596682Y-3520379D01*
X19596682Y-3500379D02*
X19576682Y-3520379D01*
X19576682Y-3550379D02*
X19596682Y-3570379D01*
X19596682Y-3550379D02*
X19576682Y-3570379D01*
X19577682Y-3602379D02*
X19597682Y-3622379D01*
X19597682Y-3602379D02*
X19577682Y-3622379D01*
X19578682Y-3300379D02*
X19598682Y-3320379D01*
X19598682Y-3300379D02*
X19578682Y-3320379D01*
X19582182Y-4645779D02*
X19602182Y-4665779D01*
X19602182Y-4645779D02*
X19582182Y-4665779D01*
X19602502Y-5212199D02*
X19622502Y-5232199D01*
X19622502Y-5212199D02*
X19602502Y-5232199D01*
X19613682Y-3425379D02*
X19633682Y-3445379D01*
X19633682Y-3425379D02*
X19613682Y-3445379D01*
X19614682Y-3375379D02*
X19634682Y-3395379D01*
X19634682Y-3375379D02*
X19614682Y-3395379D01*
X19614682Y-3475379D02*
X19634682Y-3495379D01*
X19634682Y-3475379D02*
X19614682Y-3495379D01*
X19614682Y-3525379D02*
X19634682Y-3545379D01*
X19634682Y-3525379D02*
X19614682Y-3545379D01*
X19614682Y-3575379D02*
X19634682Y-3595379D01*
X19634682Y-3575379D02*
X19614682Y-3595379D01*
X19645682Y-4771439D02*
X19665682Y-4791439D01*
X19665682Y-4771439D02*
X19645682Y-4791439D01*
X19691402Y-5212199D02*
X19711402Y-5232199D01*
X19711402Y-5212199D02*
X19691402Y-5232199D01*
X19693942Y-3430319D02*
X19713942Y-3450319D01*
X19713942Y-3430319D02*
X19693942Y-3450319D01*
X19699022Y-3623359D02*
X19719022Y-3643359D01*
X19719022Y-3623359D02*
X19699022Y-3643359D01*
X19719342Y-4677459D02*
X19739342Y-4697459D01*
X19739342Y-4677459D02*
X19719342Y-4697459D01*
X19737722Y-3533859D02*
X19757722Y-3553859D01*
X19757722Y-3533859D02*
X19737722Y-3553859D01*
X19749822Y-4001819D02*
X19769822Y-4021819D01*
X19769822Y-4001819D02*
X19749822Y-4021819D01*
X19752362Y-3435399D02*
X19772362Y-3455399D01*
X19772362Y-3435399D02*
X19752362Y-3455399D01*
X19759982Y-4072939D02*
X19779982Y-4092939D01*
X19779982Y-4072939D02*
X19759982Y-4092939D01*
X19762522Y-4418379D02*
X19782522Y-4438379D01*
X19782522Y-4418379D02*
X19762522Y-4438379D01*
X19800622Y-4687619D02*
X19820622Y-4707619D01*
X19820622Y-4687619D02*
X19800622Y-4707619D01*
X19846342Y-5081319D02*
X19866342Y-5101319D01*
X19866342Y-5081319D02*
X19846342Y-5101319D01*
X19879362Y-5017819D02*
X19899362Y-5037819D01*
X19899362Y-5017819D02*
X19879362Y-5037819D01*
X20049542Y-5414059D02*
X20069542Y-5434059D01*
X20069542Y-5414059D02*
X20049542Y-5434059D01*
X20130822Y-5497879D02*
X20150822Y-5517879D01*
X20150822Y-5497879D02*
X20130822Y-5517879D01*
X20171462Y-4028559D02*
X20191462Y-4048559D01*
X20191462Y-4028559D02*
X20171462Y-4048559D01*
X20171462Y-4104759D02*
X20191462Y-4124759D01*
X20191462Y-4104759D02*
X20171462Y-4124759D01*
X20181692Y-4202169D02*
X20201692Y-4222169D01*
X20201692Y-4202169D02*
X20181692Y-4222169D01*
X20207022Y-3865999D02*
X20227022Y-3885999D01*
X20227022Y-3865999D02*
X20207022Y-3885999D01*
X20217182Y-5262999D02*
X20237182Y-5282999D01*
X20237182Y-5262999D02*
X20217182Y-5282999D01*
X20219722Y-5336659D02*
X20239722Y-5356659D01*
X20239722Y-5336659D02*
X20219722Y-5356659D01*
X20222262Y-5410319D02*
X20242262Y-5430319D01*
X20242262Y-5410319D02*
X20222262Y-5430319D01*
X20280682Y-3865999D02*
X20300682Y-3885999D01*
X20300682Y-3865999D02*
X20280682Y-3885999D01*
X20306082Y-4084439D02*
X20326082Y-4104439D01*
X20326082Y-4084439D02*
X20306082Y-4104439D01*
X20308622Y-4008239D02*
X20328622Y-4028239D01*
X20328622Y-4008239D02*
X20308622Y-4028239D01*
X20313702Y-4944159D02*
X20333702Y-4964159D01*
X20333702Y-4944159D02*
X20313702Y-4964159D01*
X20352182Y-5442879D02*
X20372182Y-5462879D01*
X20372182Y-5442879D02*
X20352182Y-5462879D01*
X20369582Y-4267319D02*
X20389582Y-4287319D01*
X20389582Y-4267319D02*
X20369582Y-4287319D01*
X20417182Y-5632879D02*
X20437182Y-5652879D01*
X20437182Y-5632879D02*
X20417182Y-5652879D01*
X20466102Y-3868539D02*
X20486102Y-3888539D01*
X20486102Y-3868539D02*
X20466102Y-3888539D01*
X20472182Y-5445379D02*
X20492182Y-5465379D01*
X20492182Y-5445379D02*
X20472182Y-5465379D01*
X20487182Y-5632879D02*
X20507182Y-5652879D01*
X20507182Y-5632879D02*
X20487182Y-5652879D01*
X20494042Y-4944159D02*
X20514042Y-4964159D01*
X20514042Y-4944159D02*
X20494042Y-4964159D01*
X20598182Y-4591099D02*
X20618182Y-4611099D01*
X20618182Y-4591099D02*
X20598182Y-4611099D01*
X20615962Y-4519979D02*
X20635962Y-4539979D01*
X20635962Y-4519979D02*
X20615962Y-4539979D01*
X20654062Y-4939079D02*
X20674062Y-4959079D01*
X20674062Y-4939079D02*
X20654062Y-4959079D01*
X20671842Y-5297219D02*
X20691842Y-5317219D01*
X20691842Y-5297219D02*
X20671842Y-5317219D01*
X20742122Y-5296379D02*
X20762122Y-5316379D01*
X20762122Y-5296379D02*
X20742122Y-5316379D01*
X20890282Y-4519979D02*
X20910282Y-4539979D01*
X20910282Y-4519979D02*
X20890282Y-4539979D01*
X20890282Y-4591099D02*
X20910282Y-4611099D01*
X20910282Y-4591099D02*
X20890282Y-4611099D01*
X20902982Y-5221019D02*
X20922982Y-5241019D01*
X20922982Y-5221019D02*
X20902982Y-5241019D01*
X20910602Y-5317539D02*
X20930602Y-5337539D01*
X20930602Y-5317539D02*
X20910602Y-5337539D01*
X20915682Y-3321099D02*
X20935682Y-3341099D01*
X20935682Y-3321099D02*
X20915682Y-3341099D01*
X21433842Y-4591099D02*
X21453842Y-4611099D01*
X21453842Y-4591099D02*
X21433842Y-4611099D01*
X21494682Y-5537879D02*
X21514682Y-5557879D01*
X21514682Y-5537879D02*
X21494682Y-5557879D01*
X21532182Y-5597879D02*
X21552182Y-5617879D01*
X21552182Y-5597879D02*
X21532182Y-5617879D01*
X21637042Y-4753659D02*
X21657042Y-4773659D01*
X21657042Y-4753659D02*
X21637042Y-4773659D01*
X21700542Y-3656379D02*
X21720542Y-3676379D01*
X21720542Y-3656379D02*
X21700542Y-3676379D01*
X21713242Y-4301539D02*
X21733242Y-4321539D01*
X21733242Y-4301539D02*
X21713242Y-4321539D01*
X21718322Y-3161079D02*
X21738322Y-3181079D01*
X21738322Y-3161079D02*
X21718322Y-3181079D01*
X21870722Y-4525059D02*
X21890722Y-4545059D01*
X21890722Y-4525059D02*
X21870722Y-4545059D01*
X21872182Y-5682879D02*
X21892182Y-5702879D01*
X21892182Y-5682879D02*
X21872182Y-5702879D01*
X21922182Y-5735379D02*
X21942182Y-5755379D01*
X21942182Y-5735379D02*
X21922182Y-5755379D01*
X21926602Y-3869739D02*
X21946602Y-3889739D01*
X21946602Y-3869739D02*
X21926602Y-3889739D01*
X21936762Y-4093259D02*
X21956762Y-4113259D01*
X21956762Y-4093259D02*
X21936762Y-4113259D01*
X22049682Y-5460379D02*
X22069682Y-5480379D01*
X22069682Y-5460379D02*
X22049682Y-5480379D01*
X22059682Y-5530379D02*
X22079682Y-5550379D01*
X22079682Y-5530379D02*
X22059682Y-5550379D01*
X22068842Y-5873799D02*
X22088842Y-5893799D01*
X22088842Y-5873799D02*
X22068842Y-5893799D01*
X22114562Y-4281219D02*
X22134562Y-4301219D01*
X22134562Y-4281219D02*
X22114562Y-4301219D01*
X22141692Y-4592169D02*
X22161692Y-4612169D01*
X22161692Y-4592169D02*
X22141692Y-4612169D01*
X22165362Y-5645199D02*
X22185362Y-5665199D01*
X22185362Y-5645199D02*
X22165362Y-5665199D01*
X22233942Y-3793539D02*
X22253942Y-3813539D01*
X22253942Y-3793539D02*
X22233942Y-3813539D01*
X22261692Y-4352169D02*
X22281692Y-4372169D01*
X22281692Y-4352169D02*
X22261692Y-4372169D01*
X22261882Y-5055919D02*
X22281882Y-5075919D01*
X22281882Y-5055919D02*
X22261882Y-5075919D01*
X22411742Y-3991659D02*
X22431742Y-4011659D01*
X22431742Y-3991659D02*
X22411742Y-4011659D01*
X22433415Y-3597178D02*
X22453415Y-3617178D01*
X22453415Y-3597178D02*
X22433415Y-3617178D01*
X22471692Y-4612169D02*
X22491692Y-4632169D01*
X22491692Y-4612169D02*
X22471692Y-4632169D01*
X22625102Y-3397299D02*
X22645102Y-3417299D01*
X22645102Y-3397299D02*
X22625102Y-3417299D01*
X22642882Y-3745279D02*
X22662882Y-3765279D01*
X22662882Y-3745279D02*
X22642882Y-3765279D01*
X22678442Y-4885739D02*
X22698442Y-4905739D01*
X22698442Y-4885739D02*
X22678442Y-4905739D01*
X22767342Y-4712219D02*
X22787342Y-4732219D01*
X22787342Y-4712219D02*
X22767342Y-4732219D01*
X22833382Y-3636059D02*
X22853382Y-3656059D01*
X22853382Y-3636059D02*
X22833382Y-3656059D01*
X22853702Y-3435399D02*
X22873702Y-3455399D01*
X22873702Y-3435399D02*
X22853702Y-3455399D01*
X22863862Y-3229659D02*
X22883862Y-3249659D01*
X22883862Y-3229659D02*
X22863862Y-3249659D01*
X23012182Y-4725379D02*
X23032182Y-4745379D01*
X23032182Y-4725379D02*
X23012182Y-4745379D01*
X23145802Y-6122719D02*
X23165802Y-6142719D01*
X23165802Y-6122719D02*
X23145802Y-6142719D01*
X23150882Y-4598719D02*
X23170882Y-4618719D01*
X23170882Y-4598719D02*
X23150882Y-4618719D01*
X23155962Y-6051599D02*
X23175962Y-6071599D01*
X23175962Y-6051599D02*
X23155962Y-6071599D01*
X23173742Y-4723179D02*
X23193742Y-4743179D01*
X23193742Y-4723179D02*
X23173742Y-4743179D01*
X23237242Y-4425999D02*
X23257242Y-4445999D01*
X23257242Y-4425999D02*
X23237242Y-4445999D01*
X23255022Y-5972859D02*
X23275022Y-5992859D01*
X23275022Y-5972859D02*
X23255022Y-5992859D01*
X23300742Y-5906819D02*
X23320742Y-5926819D01*
X23320742Y-5906819D02*
X23300742Y-5926819D01*
D13*
X20235642Y-3245379D02*
G75*
G03*
X20235642Y-3245379I-11000J0D01*
G01*
X20277692Y-2157169D02*
G75*
G03*
X20277692Y-2157169I-11000J0D01*
G01*
X20297692Y-2052169D02*
G75*
G03*
X20297692Y-2052169I-11000J0D01*
G01*
X20482692Y-2177169D02*
G75*
G03*
X20482692Y-2177169I-11000J0D01*
G01*
X20502692Y-2052169D02*
G75*
G03*
X20502692Y-2052169I-11000J0D01*
G01*
X20587692Y-2177169D02*
G75*
G03*
X20587692Y-2177169I-11000J0D01*
G01*
X20677692Y-2052169D02*
G75*
G03*
X20677692Y-2052169I-11000J0D01*
G01*
X20762692Y-2177169D02*
G75*
G03*
X20762692Y-2177169I-11000J0D01*
G01*
X20862692Y-2052169D02*
G75*
G03*
X20862692Y-2052169I-11000J0D01*
G01*
X20902692Y-2177169D02*
G75*
G03*
X20902692Y-2177169I-11000J0D01*
G01*
X21047692Y-2052169D02*
G75*
G03*
X21047692Y-2052169I-11000J0D01*
G01*
X21072692Y-2177169D02*
G75*
G03*
X21072692Y-2177169I-11000J0D01*
G01*
X21207692Y-2177169D02*
G75*
G03*
X21207692Y-2177169I-11000J0D01*
G01*
X21247692Y-2052169D02*
G75*
G03*
X21247692Y-2052169I-11000J0D01*
G01*
X21387692Y-2177169D02*
G75*
G03*
X21387692Y-2177169I-11000J0D01*
G01*
X21442692Y-2052169D02*
G75*
G03*
X21442692Y-2052169I-11000J0D01*
G01*
X21572692Y-2177169D02*
G75*
G03*
X21572692Y-2177169I-11000J0D01*
G01*
X21622692Y-2052169D02*
G75*
G03*
X21622692Y-2052169I-11000J0D01*
G01*
X21797692Y-2052169D02*
G75*
G03*
X21797692Y-2052169I-11000J0D01*
G01*
X21822692Y-2182169D02*
G75*
G03*
X21822692Y-2182169I-11000J0D01*
G01*
X21962692Y-2052169D02*
G75*
G03*
X21962692Y-2052169I-11000J0D01*
G01*
X22022692Y-2177169D02*
G75*
G03*
X22022692Y-2177169I-11000J0D01*
G01*
X22122692Y-2052169D02*
G75*
G03*
X22122692Y-2052169I-11000J0D01*
G01*
X22192692Y-2177169D02*
G75*
G03*
X22192692Y-2177169I-11000J0D01*
G01*
X22287692Y-2052169D02*
G75*
G03*
X22287692Y-2052169I-11000J0D01*
G01*
X22332692Y-2177169D02*
G75*
G03*
X22332692Y-2177169I-11000J0D01*
G01*
X22452692Y-2052169D02*
G75*
G03*
X22452692Y-2052169I-11000J0D01*
G01*
X22502692Y-2182169D02*
G75*
G03*
X22502692Y-2182169I-11000J0D01*
G01*
X22637692Y-2052169D02*
G75*
G03*
X22637692Y-2052169I-11000J0D01*
G01*
X22687692Y-2182169D02*
G75*
G03*
X22687692Y-2182169I-11000J0D01*
G01*
X22767692Y-2052169D02*
G75*
G03*
X22767692Y-2052169I-11000J0D01*
G01*
X22822692Y-2262169D02*
G75*
G03*
X22822692Y-2262169I-11000J0D01*
G01*
X22862692Y-2397169D02*
G75*
G03*
X22862692Y-2397169I-11000J0D01*
G01*
X22867692Y-2542169D02*
G75*
G03*
X22867692Y-2542169I-11000J0D01*
G01*
X22947692Y-2097169D02*
G75*
G03*
X22947692Y-2097169I-11000J0D01*
G01*
X23042692Y-2157169D02*
G75*
G03*
X23042692Y-2157169I-11000J0D01*
G01*
X23127692Y-2212169D02*
G75*
G03*
X23127692Y-2212169I-11000J0D01*
G01*
X23187692Y-2312169D02*
G75*
G03*
X23187692Y-2312169I-11000J0D01*
G01*
X23197692Y-2437169D02*
G75*
G03*
X23197692Y-2437169I-11000J0D01*
G01*
X23197692Y-2542169D02*
G75*
G03*
X23197692Y-2542169I-11000J0D01*
G01*
D14*
X18708902Y-4353579D02*
X18708902Y-4383579D01*
X18693902Y-4368579D02*
X18723902Y-4368579D01*
X18720962Y-4931539D02*
X18720962Y-4961539D01*
X18705962Y-4946539D02*
X18735962Y-4946539D01*
X18728582Y-6041519D02*
X18728582Y-6071519D01*
X18713582Y-6056519D02*
X18743582Y-6056519D01*
X18772682Y-5173379D02*
X18772682Y-5203379D01*
X18757682Y-5188379D02*
X18787682Y-5188379D01*
X18817482Y-6115179D02*
X18817482Y-6145179D01*
X18802482Y-6130179D02*
X18832482Y-6130179D01*
X18863202Y-4833819D02*
X18863202Y-4863819D01*
X18848202Y-4848819D02*
X18878202Y-4848819D01*
X18868282Y-4747459D02*
X18868282Y-4777459D01*
X18853282Y-4762459D02*
X18883282Y-4762459D01*
X18868892Y-4994719D02*
X18868892Y-5024719D01*
X18853892Y-5009719D02*
X18883892Y-5009719D01*
X18914002Y-6038979D02*
X18914002Y-6068979D01*
X18899002Y-6053979D02*
X18929002Y-6053979D01*
X18944482Y-4864299D02*
X18944482Y-4894299D01*
X18929482Y-4879299D02*
X18959482Y-4879299D01*
X18949562Y-4775399D02*
X18949562Y-4805399D01*
X18934562Y-4790399D02*
X18964562Y-4790399D01*
X19001632Y-5419289D02*
X19001632Y-5449289D01*
X18986632Y-5434289D02*
X19016632Y-5434289D01*
X19005442Y-6115179D02*
X19005442Y-6145179D01*
X18990442Y-6130179D02*
X19020442Y-6130179D01*
X19061322Y-4918839D02*
X19061322Y-4948839D01*
X19046322Y-4933839D02*
X19076322Y-4933839D01*
X19075292Y-5353249D02*
X19075292Y-5383249D01*
X19060292Y-5368249D02*
X19090292Y-5368249D01*
X19124682Y-6120379D02*
X19124682Y-6150379D01*
X19109682Y-6135379D02*
X19139682Y-6135379D01*
X19143682Y-5723379D02*
X19143682Y-5753379D01*
X19128682Y-5738379D02*
X19158682Y-5738379D01*
X19168002Y-5251579D02*
X19168002Y-5281579D01*
X19153002Y-5266579D02*
X19183002Y-5266579D01*
X19173082Y-5585659D02*
X19173082Y-5615659D01*
X19158082Y-5600659D02*
X19188082Y-5600659D01*
X19173682Y-5986379D02*
X19173682Y-6016379D01*
X19158682Y-6001379D02*
X19188682Y-6001379D01*
X19223882Y-6176139D02*
X19223882Y-6206139D01*
X19208882Y-6191139D02*
X19238882Y-6191139D01*
X19234042Y-3488819D02*
X19234042Y-3518819D01*
X19219042Y-3503819D02*
X19249042Y-3503819D01*
X19236582Y-3704719D02*
X19236582Y-3734719D01*
X19221582Y-3719719D02*
X19251582Y-3719719D01*
X19239122Y-3382139D02*
X19239122Y-3412139D01*
X19224122Y-3397139D02*
X19254122Y-3397139D01*
X19254362Y-3277999D02*
X19254362Y-3307999D01*
X19239362Y-3292999D02*
X19269362Y-3292999D01*
X19272142Y-4248279D02*
X19272142Y-4278279D01*
X19257142Y-4263279D02*
X19287142Y-4263279D01*
X19272142Y-4553079D02*
X19272142Y-4583079D01*
X19257142Y-4568079D02*
X19287142Y-4568079D01*
X19290682Y-5683379D02*
X19290682Y-5713379D01*
X19275682Y-5698379D02*
X19305682Y-5698379D01*
X19292462Y-4347339D02*
X19292462Y-4377339D01*
X19277462Y-4362339D02*
X19307462Y-4362339D01*
X19297542Y-4644519D02*
X19297542Y-4674519D01*
X19282542Y-4659519D02*
X19312542Y-4659519D01*
X19300082Y-4767779D02*
X19300082Y-4797779D01*
X19285082Y-4782779D02*
X19315082Y-4782779D01*
X19305182Y-4923129D02*
X19305182Y-4953129D01*
X19290182Y-4938129D02*
X19320182Y-4938129D01*
X19325482Y-5580579D02*
X19325482Y-5610579D01*
X19310482Y-5595579D02*
X19340482Y-5595579D01*
X19335642Y-3277999D02*
X19335642Y-3307999D01*
X19320642Y-3292999D02*
X19350642Y-3292999D01*
X19349432Y-3484379D02*
X19349432Y-3514379D01*
X19334432Y-3499379D02*
X19364432Y-3499379D01*
X19353422Y-3636139D02*
X19353422Y-3666139D01*
X19338422Y-3651139D02*
X19368422Y-3651139D01*
X19353422Y-3717419D02*
X19353422Y-3747419D01*
X19338422Y-3732419D02*
X19368422Y-3732419D01*
X19358502Y-4537839D02*
X19358502Y-4567839D01*
X19343502Y-4552839D02*
X19373502Y-4552839D01*
X19383902Y-6013579D02*
X19383902Y-6043579D01*
X19368902Y-6028579D02*
X19398902Y-6028579D01*
X19411842Y-5363339D02*
X19411842Y-5393339D01*
X19396842Y-5378339D02*
X19426842Y-5378339D01*
X19416922Y-6176139D02*
X19416922Y-6206139D01*
X19401922Y-6191139D02*
X19431922Y-6191139D01*
X19457562Y-4514979D02*
X19457562Y-4544979D01*
X19442562Y-4529979D02*
X19472562Y-4529979D01*
X19488042Y-5428179D02*
X19488042Y-5458179D01*
X19473042Y-5443179D02*
X19503042Y-5443179D01*
X19503282Y-2924939D02*
X19503282Y-2954939D01*
X19488282Y-2939939D02*
X19518282Y-2939939D01*
X19503282Y-3006219D02*
X19503282Y-3036219D01*
X19488282Y-3021219D02*
X19518282Y-3021219D01*
X19503282Y-3994279D02*
X19503282Y-4024279D01*
X19488282Y-4009279D02*
X19518282Y-4009279D01*
X19515682Y-5853379D02*
X19515682Y-5883379D01*
X19500682Y-5868379D02*
X19530682Y-5868379D01*
X19523602Y-5646619D02*
X19523602Y-5676619D01*
X19508602Y-5661619D02*
X19538602Y-5661619D01*
X19523602Y-5727899D02*
X19523602Y-5757899D01*
X19508602Y-5742899D02*
X19538602Y-5742899D01*
X19533762Y-6171059D02*
X19533762Y-6201059D01*
X19518762Y-6186059D02*
X19548762Y-6186059D01*
X19554082Y-5489139D02*
X19554082Y-5519139D01*
X19539082Y-5504139D02*
X19569082Y-5504139D01*
X19566682Y-4521379D02*
X19566682Y-4551379D01*
X19551682Y-4536379D02*
X19581682Y-4536379D01*
X19569322Y-4884619D02*
X19569322Y-4914619D01*
X19554322Y-4899619D02*
X19584322Y-4899619D01*
X19570682Y-4970979D02*
X19570682Y-5000979D01*
X19555682Y-4985979D02*
X19585682Y-4985979D01*
X19602342Y-5988179D02*
X19602342Y-6018179D01*
X19587342Y-6003179D02*
X19617342Y-6003179D01*
X19630282Y-3994279D02*
X19630282Y-4024279D01*
X19615282Y-4009279D02*
X19645282Y-4009279D01*
X19655682Y-5372299D02*
X19655682Y-5402299D01*
X19640682Y-5387299D02*
X19670682Y-5387299D01*
X19660762Y-5646619D02*
X19660762Y-5676619D01*
X19645762Y-5661619D02*
X19675762Y-5661619D01*
X19660762Y-5727899D02*
X19660762Y-5757899D01*
X19645762Y-5742899D02*
X19675762Y-5742899D01*
X19677324Y-4422125D02*
X19677324Y-4452125D01*
X19662324Y-4437125D02*
X19692324Y-4437125D01*
X19697682Y-5856379D02*
X19697682Y-5886379D01*
X19682682Y-5871379D02*
X19712682Y-5871379D01*
X19701402Y-4889699D02*
X19701402Y-4919699D01*
X19686402Y-4904699D02*
X19716402Y-4904699D01*
X19702682Y-4976059D02*
X19702682Y-5006059D01*
X19687682Y-4991059D02*
X19717682Y-4991059D01*
X19711562Y-3133219D02*
X19711562Y-3163219D01*
X19696562Y-3148219D02*
X19726562Y-3148219D01*
X19762362Y-3275459D02*
X19762362Y-3305459D01*
X19747362Y-3290459D02*
X19777362Y-3290459D01*
X19786932Y-3882379D02*
X19786932Y-3912379D01*
X19771932Y-3897379D02*
X19801932Y-3897379D01*
X19792842Y-6171059D02*
X19792842Y-6201059D01*
X19777842Y-6186059D02*
X19807842Y-6186059D01*
X19838562Y-3077339D02*
X19838562Y-3107339D01*
X19823562Y-3092339D02*
X19853562Y-3092339D01*
X19838562Y-5983099D02*
X19838562Y-6013099D01*
X19823562Y-5998099D02*
X19853562Y-5998099D01*
X19848722Y-5164019D02*
X19848722Y-5194019D01*
X19833722Y-5179019D02*
X19863722Y-5179019D01*
X19848722Y-5245299D02*
X19848722Y-5275299D01*
X19833722Y-5260299D02*
X19863722Y-5260299D01*
X19851682Y-4826629D02*
X19851682Y-4856629D01*
X19836682Y-4841629D02*
X19866682Y-4841629D01*
X19870682Y-3209379D02*
X19870682Y-3239379D01*
X19855682Y-3224379D02*
X19885682Y-3224379D01*
X19879202Y-5478979D02*
X19879202Y-5508979D01*
X19864202Y-5493979D02*
X19894202Y-5493979D01*
X19879202Y-5611059D02*
X19879202Y-5641059D01*
X19864202Y-5626059D02*
X19894202Y-5626059D01*
X19891682Y-5842379D02*
X19891682Y-5872379D01*
X19876682Y-5857379D02*
X19906682Y-5857379D01*
X19955402Y-4634359D02*
X19955402Y-4664359D01*
X19940402Y-4649359D02*
X19970402Y-4649359D01*
X19980682Y-5181079D02*
X19980682Y-5211079D01*
X19965682Y-5196079D02*
X19995682Y-5196079D01*
X19980802Y-5478979D02*
X19980802Y-5508979D01*
X19965802Y-5493979D02*
X19995802Y-5493979D01*
X19980802Y-5616139D02*
X19980802Y-5646139D01*
X19965802Y-5631139D02*
X19995802Y-5631139D01*
X19988182Y-3327379D02*
X19988182Y-3357379D01*
X19973182Y-3342379D02*
X20003182Y-3342379D01*
X19988182Y-3441379D02*
X19988182Y-3471379D01*
X19973182Y-3456379D02*
X20003182Y-3456379D01*
X19988422Y-2066419D02*
X19988422Y-2096419D01*
X19973422Y-2081419D02*
X20003422Y-2081419D01*
X19989682Y-3022379D02*
X19989682Y-3052379D01*
X19974682Y-3037379D02*
X20004682Y-3037379D01*
X20041762Y-6046599D02*
X20041762Y-6076599D01*
X20026762Y-6061599D02*
X20056762Y-6061599D01*
X20057002Y-6176139D02*
X20057002Y-6206139D01*
X20042002Y-6191139D02*
X20072002Y-6191139D01*
X20069702Y-3206879D02*
X20069702Y-3236879D01*
X20054702Y-3221879D02*
X20084702Y-3221879D01*
X20102722Y-2899539D02*
X20102722Y-2929539D01*
X20087722Y-2914539D02*
X20117722Y-2914539D01*
X20160032Y-3693129D02*
X20160032Y-3723129D01*
X20145032Y-3708129D02*
X20175032Y-3708129D01*
X20161142Y-2091819D02*
X20161142Y-2121819D01*
X20146142Y-2106819D02*
X20176142Y-2106819D01*
X20186542Y-5687259D02*
X20186542Y-5717259D01*
X20171542Y-5702259D02*
X20201542Y-5702259D01*
X20214482Y-5911979D02*
X20214482Y-5941979D01*
X20199482Y-5926979D02*
X20229482Y-5926979D01*
X20227182Y-3434279D02*
X20227182Y-3464279D01*
X20212182Y-3449279D02*
X20242182Y-3449279D01*
X20239882Y-2848739D02*
X20239882Y-2878739D01*
X20224882Y-2863739D02*
X20254882Y-2863739D01*
X20265282Y-3548579D02*
X20265282Y-3578579D01*
X20250282Y-3563579D02*
X20280282Y-3563579D01*
X20265282Y-3612079D02*
X20265282Y-3642079D01*
X20250282Y-3627079D02*
X20280282Y-3627079D01*
X20265282Y-6038979D02*
X20265282Y-6068979D01*
X20250282Y-6053979D02*
X20280282Y-6053979D01*
X20267822Y-4405759D02*
X20267822Y-4435759D01*
X20252822Y-4420759D02*
X20282822Y-4420759D01*
X20270362Y-5687259D02*
X20270362Y-5717259D01*
X20255362Y-5702259D02*
X20285362Y-5702259D01*
X20285602Y-6176139D02*
X20285602Y-6206139D01*
X20270602Y-6191139D02*
X20300602Y-6191139D01*
X20288142Y-3084959D02*
X20288142Y-3114959D01*
X20273142Y-3099959D02*
X20303142Y-3099959D01*
X20290682Y-2963039D02*
X20290682Y-2993039D01*
X20275682Y-2978039D02*
X20305682Y-2978039D01*
X20311002Y-2212539D02*
X20311002Y-2242539D01*
X20296002Y-2227539D02*
X20326002Y-2227539D01*
X20313542Y-5358259D02*
X20313542Y-5388259D01*
X20298542Y-5373259D02*
X20328542Y-5373259D01*
X20341482Y-5210939D02*
X20341482Y-5240939D01*
X20326482Y-5225939D02*
X20356482Y-5225939D01*
X20344022Y-3260219D02*
X20344022Y-3290219D01*
X20329022Y-3275219D02*
X20359022Y-3275219D01*
X20346562Y-3351659D02*
X20346562Y-3381659D01*
X20331562Y-3366659D02*
X20361562Y-3366659D01*
X20349102Y-4408299D02*
X20349102Y-4438299D01*
X20334102Y-4423299D02*
X20364102Y-4423299D01*
X20356722Y-5055999D02*
X20356722Y-5085999D01*
X20341722Y-5070999D02*
X20371722Y-5070999D01*
X20382122Y-5299839D02*
X20382122Y-5329839D01*
X20367122Y-5314839D02*
X20397122Y-5314839D01*
X20404982Y-5845939D02*
X20404982Y-5875939D01*
X20389982Y-5860939D02*
X20419982Y-5860939D01*
X20407522Y-5957699D02*
X20407522Y-5987699D01*
X20392522Y-5972699D02*
X20422522Y-5972699D01*
X20415142Y-5139819D02*
X20415142Y-5169819D01*
X20400142Y-5154819D02*
X20430142Y-5154819D01*
X20417682Y-2787779D02*
X20417682Y-2817779D01*
X20402682Y-2802779D02*
X20432682Y-2802779D01*
X20425302Y-4711899D02*
X20425302Y-4741899D01*
X20410302Y-4726899D02*
X20440302Y-4726899D01*
X20461692Y-3012169D02*
X20461692Y-3042169D01*
X20446692Y-3027169D02*
X20476692Y-3027169D01*
X20476102Y-4555619D02*
X20476102Y-4585619D01*
X20461102Y-4570619D02*
X20491102Y-4570619D01*
X20486262Y-5055999D02*
X20486262Y-5085999D01*
X20471262Y-5070999D02*
X20501262Y-5070999D01*
X20486262Y-5216019D02*
X20486262Y-5246019D01*
X20471262Y-5231019D02*
X20501262Y-5231019D01*
X20489182Y-3716379D02*
X20489182Y-3746379D01*
X20474182Y-3731379D02*
X20504182Y-3731379D01*
X20498852Y-4397049D02*
X20498852Y-4427049D01*
X20483852Y-4412049D02*
X20513852Y-4412049D01*
X20509122Y-4711899D02*
X20509122Y-4741899D01*
X20494122Y-4726899D02*
X20524122Y-4726899D01*
X20521822Y-5302379D02*
X20521822Y-5332379D01*
X20506822Y-5317379D02*
X20536822Y-5317379D01*
X20554842Y-5134739D02*
X20554842Y-5164739D01*
X20539842Y-5149739D02*
X20569842Y-5149739D01*
X20565002Y-6181219D02*
X20565002Y-6211219D01*
X20550002Y-6196219D02*
X20580002Y-6196219D01*
X20595482Y-2989779D02*
X20595482Y-3019779D01*
X20580482Y-3004779D02*
X20610482Y-3004779D01*
X20595482Y-3104079D02*
X20595482Y-3134079D01*
X20580482Y-3119079D02*
X20610482Y-3119079D01*
X20615802Y-5053459D02*
X20615802Y-5083459D01*
X20600802Y-5068459D02*
X20630802Y-5068459D01*
X20636122Y-3344039D02*
X20636122Y-3374039D01*
X20621122Y-3359039D02*
X20651122Y-3359039D01*
X20636122Y-3553189D02*
X20636122Y-3583189D01*
X20621122Y-3568189D02*
X20651122Y-3568189D01*
X20653902Y-5139819D02*
X20653902Y-5169819D01*
X20638902Y-5154819D02*
X20668902Y-5154819D01*
X20664062Y-6102479D02*
X20664062Y-6132479D01*
X20649062Y-6117479D02*
X20679062Y-6117479D01*
X20716692Y-2532169D02*
X20716692Y-2562169D01*
X20701692Y-2547169D02*
X20731692Y-2547169D01*
X20735182Y-3344039D02*
X20735182Y-3374039D01*
X20720182Y-3359039D02*
X20750182Y-3359039D01*
X20735182Y-3553189D02*
X20735182Y-3583189D01*
X20720182Y-3568189D02*
X20750182Y-3568189D01*
X20735182Y-5904359D02*
X20735182Y-5934359D01*
X20720182Y-5919359D02*
X20750182Y-5919359D01*
X20755502Y-6069459D02*
X20755502Y-6099459D01*
X20740502Y-6084459D02*
X20770502Y-6084459D01*
X20786692Y-3002169D02*
X20786692Y-3032169D01*
X20771692Y-3017169D02*
X20801692Y-3017169D01*
X20793602Y-3717419D02*
X20793602Y-3747419D01*
X20778602Y-3732419D02*
X20808602Y-3732419D01*
X20816692Y-2272169D02*
X20816692Y-2302169D01*
X20801692Y-2287169D02*
X20831692Y-2287169D01*
X20829162Y-2462659D02*
X20829162Y-2492659D01*
X20814162Y-2477659D02*
X20844162Y-2477659D01*
X20839682Y-5670379D02*
X20839682Y-5700379D01*
X20824682Y-5685379D02*
X20854682Y-5685379D01*
X20842182Y-5802879D02*
X20842182Y-5832879D01*
X20827182Y-5817879D02*
X20857182Y-5817879D01*
X20869802Y-6186299D02*
X20869802Y-6216299D01*
X20854802Y-6201299D02*
X20884802Y-6201299D01*
X20876692Y-2827169D02*
X20876692Y-2857169D01*
X20861692Y-2842169D02*
X20891692Y-2842169D01*
X20882502Y-3717419D02*
X20882502Y-3747419D01*
X20867502Y-3732419D02*
X20897502Y-3732419D01*
X20922182Y-5670379D02*
X20922182Y-5700379D01*
X20907182Y-5685379D02*
X20937182Y-5685379D01*
X20924682Y-5802879D02*
X20924682Y-5832879D01*
X20909682Y-5817879D02*
X20939682Y-5817879D01*
X20931692Y-2617169D02*
X20931692Y-2647169D01*
X20916692Y-2632169D02*
X20946692Y-2632169D01*
X20951082Y-2980819D02*
X20951082Y-3010819D01*
X20936082Y-2995819D02*
X20966082Y-2995819D01*
X20951082Y-3107819D02*
X20951082Y-3137819D01*
X20936082Y-3122819D02*
X20966082Y-3122819D01*
X20979022Y-4339719D02*
X20979022Y-4369719D01*
X20964022Y-4354719D02*
X20994022Y-4354719D01*
X20981562Y-5266819D02*
X20981562Y-5296819D01*
X20966562Y-5281819D02*
X20996562Y-5281819D01*
X20986692Y-2267169D02*
X20986692Y-2297169D01*
X20971692Y-2282169D02*
X21001692Y-2282169D01*
X20996802Y-3356739D02*
X20996802Y-3386739D01*
X20981802Y-3371739D02*
X21011802Y-3371739D01*
X20996802Y-3976499D02*
X20996802Y-4006499D01*
X20981802Y-3991499D02*
X21011802Y-3991499D01*
X21093322Y-2477899D02*
X21093322Y-2507899D01*
X21078322Y-2492899D02*
X21108322Y-2492899D01*
X21116182Y-5250379D02*
X21116182Y-5280379D01*
X21101182Y-5265379D02*
X21131182Y-5265379D01*
X21139042Y-4299079D02*
X21139042Y-4329079D01*
X21124042Y-4314079D02*
X21154042Y-4314079D01*
X21186692Y-2942169D02*
X21186692Y-2972169D01*
X21171692Y-2957169D02*
X21201692Y-2957169D01*
X21189842Y-3364359D02*
X21189842Y-3394359D01*
X21174842Y-3379359D02*
X21204842Y-3379359D01*
X21197462Y-3493899D02*
X21197462Y-3523899D01*
X21182462Y-3508899D02*
X21212462Y-3508899D01*
X21250802Y-5129659D02*
X21250802Y-5159659D01*
X21235802Y-5144659D02*
X21265802Y-5144659D01*
X21255882Y-5250379D02*
X21255882Y-5280379D01*
X21240882Y-5265379D02*
X21270882Y-5265379D01*
X21256682Y-5371879D02*
X21256682Y-5401879D01*
X21241682Y-5386879D02*
X21271682Y-5386879D01*
X21260962Y-3275459D02*
X21260962Y-3305459D01*
X21245962Y-3290459D02*
X21275962Y-3290459D01*
X21263502Y-4339719D02*
X21263502Y-4369719D01*
X21248502Y-4354719D02*
X21278502Y-4354719D01*
X21286362Y-6191379D02*
X21286362Y-6221379D01*
X21271362Y-6206379D02*
X21301362Y-6206379D01*
X21329782Y-3373939D02*
X21329782Y-3403939D01*
X21314782Y-3388939D02*
X21344782Y-3388939D01*
X21329782Y-3508939D02*
X21329782Y-3538939D01*
X21314782Y-3523939D02*
X21344782Y-3523939D01*
X21333582Y-4085339D02*
X21333582Y-4115339D01*
X21318582Y-4100339D02*
X21348582Y-4100339D01*
X21382882Y-5263079D02*
X21382882Y-5293079D01*
X21367882Y-5278079D02*
X21397882Y-5278079D01*
X21387682Y-5374879D02*
X21387682Y-5404879D01*
X21372682Y-5389879D02*
X21402682Y-5389879D01*
X21403202Y-6191379D02*
X21403202Y-6221379D01*
X21388202Y-6206379D02*
X21418202Y-6206379D01*
X21409782Y-4085339D02*
X21409782Y-4115339D01*
X21394782Y-4100339D02*
X21424782Y-4100339D01*
X21411692Y-2552169D02*
X21411692Y-2582169D01*
X21396692Y-2567169D02*
X21426692Y-2567169D01*
X21415902Y-3661539D02*
X21415902Y-3691539D01*
X21400902Y-3676539D02*
X21430902Y-3676539D01*
X21419682Y-5700379D02*
X21419682Y-5730379D01*
X21404682Y-5715379D02*
X21434682Y-5715379D01*
X21427182Y-5827879D02*
X21427182Y-5857879D01*
X21412182Y-5842879D02*
X21442182Y-5842879D01*
X21492102Y-3275459D02*
X21492102Y-3305459D01*
X21477102Y-3290459D02*
X21507102Y-3290459D01*
X21499722Y-6191379D02*
X21499722Y-6221379D01*
X21484722Y-6206379D02*
X21514722Y-6206379D01*
X21537822Y-3427859D02*
X21537822Y-3457859D01*
X21522822Y-3442859D02*
X21552822Y-3442859D01*
X21575922Y-5815459D02*
X21575922Y-5845459D01*
X21560922Y-5830459D02*
X21590922Y-5830459D01*
X21621642Y-6186299D02*
X21621642Y-6216299D01*
X21606642Y-6201299D02*
X21636642Y-6201299D01*
X21667182Y-5960239D02*
X21667182Y-5990239D01*
X21652182Y-5975239D02*
X21682182Y-5975239D01*
X21738482Y-5815459D02*
X21738482Y-5845459D01*
X21723482Y-5830459D02*
X21753482Y-5830459D01*
X21768962Y-6181219D02*
X21768962Y-6211219D01*
X21753962Y-6196219D02*
X21783962Y-6196219D01*
X21809602Y-4906139D02*
X21809602Y-4936139D01*
X21794602Y-4921139D02*
X21824602Y-4921139D01*
X21835002Y-2472819D02*
X21835002Y-2502819D01*
X21820002Y-2487819D02*
X21850002Y-2487819D01*
X21835002Y-6036439D02*
X21835002Y-6066439D01*
X21820002Y-6051439D02*
X21850002Y-6051439D01*
X21851692Y-2277169D02*
X21851692Y-2307169D01*
X21836692Y-2292169D02*
X21866692Y-2292169D01*
X21876692Y-2612169D02*
X21876692Y-2642169D01*
X21861692Y-2627169D02*
X21891692Y-2627169D01*
X21906122Y-6181219D02*
X21906122Y-6211219D01*
X21891122Y-6196219D02*
X21921122Y-6196219D01*
X21916692Y-2862169D02*
X21916692Y-2892169D01*
X21901692Y-2877169D02*
X21931692Y-2877169D01*
X21997562Y-4657219D02*
X21997562Y-4687219D01*
X21982562Y-4672219D02*
X22012562Y-4672219D01*
X22021692Y-2267169D02*
X22021692Y-2297169D01*
X22006692Y-2282169D02*
X22036692Y-2282169D01*
X22043282Y-3463419D02*
X22043282Y-3493419D01*
X22028282Y-3478419D02*
X22058282Y-3478419D01*
X22073762Y-2467739D02*
X22073762Y-2497739D01*
X22058762Y-2482739D02*
X22088762Y-2482739D01*
X22083922Y-4934079D02*
X22083922Y-4964079D01*
X22068922Y-4949079D02*
X22098922Y-4949079D01*
X22083922Y-6181219D02*
X22083922Y-6211219D01*
X22068922Y-6196219D02*
X22098922Y-6196219D01*
X22114402Y-3656459D02*
X22114402Y-3686459D01*
X22099402Y-3671459D02*
X22129402Y-3671459D01*
X22114402Y-6069459D02*
X22114402Y-6099459D01*
X22099402Y-6084459D02*
X22129402Y-6084459D01*
X22175362Y-5170299D02*
X22175362Y-5200299D01*
X22160362Y-5185299D02*
X22190362Y-5185299D01*
X22236322Y-6181219D02*
X22236322Y-6211219D01*
X22221322Y-6196219D02*
X22251322Y-6196219D01*
X22274422Y-3311019D02*
X22274422Y-3341019D01*
X22259422Y-3326019D02*
X22289422Y-3326019D01*
X22297282Y-3448179D02*
X22297282Y-3478179D01*
X22282282Y-3463179D02*
X22312282Y-3463179D01*
X22358242Y-2488059D02*
X22358242Y-2518059D01*
X22343242Y-2503059D02*
X22373242Y-2503059D01*
X22363322Y-4291459D02*
X22363322Y-4321459D01*
X22348322Y-4306459D02*
X22378322Y-4306459D01*
X22409042Y-4890899D02*
X22409042Y-4920899D01*
X22394042Y-4905899D02*
X22424042Y-4905899D01*
X22439522Y-6186299D02*
X22439522Y-6216299D01*
X22424522Y-6201299D02*
X22454522Y-6201299D01*
X22476692Y-2817169D02*
X22476692Y-2847169D01*
X22461692Y-2832169D02*
X22491692Y-2832169D01*
X22477622Y-6056759D02*
X22477622Y-6086759D01*
X22462622Y-6071759D02*
X22492622Y-6071759D01*
X22515722Y-2670939D02*
X22515722Y-2700939D01*
X22500722Y-2685939D02*
X22530722Y-2685939D01*
X22541122Y-3214499D02*
X22541122Y-3244499D01*
X22526122Y-3229499D02*
X22556122Y-3229499D01*
X22561442Y-4164459D02*
X22561442Y-4194459D01*
X22546442Y-4179459D02*
X22576442Y-4179459D01*
X22657962Y-6181219D02*
X22657962Y-6211219D01*
X22642962Y-6196219D02*
X22672962Y-6196219D01*
X22678282Y-5276979D02*
X22678282Y-5306979D01*
X22663282Y-5291979D02*
X22693282Y-5291979D01*
X22688442Y-4118739D02*
X22688442Y-4148739D01*
X22673442Y-4133739D02*
X22703442Y-4133739D01*
X22784962Y-2665859D02*
X22784962Y-2695859D01*
X22769962Y-2680859D02*
X22799962Y-2680859D01*
X22784962Y-5779899D02*
X22784962Y-5809899D01*
X22769962Y-5794899D02*
X22799962Y-5794899D01*
X22807822Y-4535299D02*
X22807822Y-4565299D01*
X22792822Y-4550299D02*
X22822822Y-4550299D01*
X22819682Y-6074629D02*
X22819682Y-6104629D01*
X22804682Y-6089629D02*
X22834682Y-6089629D01*
X22836692Y-3037169D02*
X22836692Y-3067169D01*
X22821692Y-3052169D02*
X22851692Y-3052169D01*
X22904342Y-4078099D02*
X22904342Y-4108099D01*
X22889342Y-4093099D02*
X22919342Y-4093099D01*
X22909422Y-6300599D02*
X22909422Y-6330599D01*
X22894422Y-6315599D02*
X22924422Y-6315599D01*
X22909422Y-6384419D02*
X22909422Y-6414419D01*
X22894422Y-6399419D02*
X22924422Y-6399419D01*
X22911962Y-3900299D02*
X22911962Y-3930299D01*
X22896962Y-3915299D02*
X22926962Y-3915299D01*
X22947182Y-4541379D02*
X22947182Y-4571379D01*
X22932182Y-4556379D02*
X22962182Y-4556379D01*
X22983082Y-5170299D02*
X22983082Y-5200299D01*
X22968082Y-5185299D02*
X22998082Y-5185299D01*
X23033882Y-4078099D02*
X23033882Y-4108099D01*
X23018882Y-4093099D02*
X23048882Y-4093099D01*
X23044042Y-6028819D02*
X23044042Y-6058819D01*
X23029042Y-6043819D02*
X23059042Y-6043819D01*
X23046582Y-6122799D02*
X23046582Y-6152799D01*
X23031582Y-6137799D02*
X23061582Y-6137799D01*
X23056742Y-6300599D02*
X23056742Y-6330599D01*
X23041742Y-6315599D02*
X23071742Y-6315599D01*
X23056742Y-6384419D02*
X23056742Y-6414419D01*
X23041742Y-6399419D02*
X23071742Y-6399419D01*
X23084682Y-4621659D02*
X23084682Y-4651659D01*
X23069682Y-4636659D02*
X23099682Y-4636659D01*
X23089762Y-5790059D02*
X23089762Y-5820059D01*
X23074762Y-5805059D02*
X23104762Y-5805059D01*
X23130402Y-4667379D02*
X23130402Y-4697379D01*
X23115402Y-4682379D02*
X23145402Y-4682379D01*
X23160882Y-2670939D02*
X23160882Y-2700939D01*
X23145882Y-2685939D02*
X23175882Y-2685939D01*
X23163422Y-3834259D02*
X23163422Y-3864259D01*
X23148422Y-3849259D02*
X23178422Y-3849259D01*
X23188822Y-5249039D02*
X23188822Y-5279039D01*
X23173822Y-5264039D02*
X23203822Y-5264039D01*
X23211682Y-2980819D02*
X23211682Y-3010819D01*
X23196682Y-2995819D02*
X23226682Y-2995819D01*
X23216762Y-3402459D02*
X23216762Y-3432459D01*
X23201762Y-3417459D02*
X23231762Y-3417459D01*
X23221842Y-3184019D02*
X23221842Y-3214019D01*
X23206842Y-3199019D02*
X23236842Y-3199019D01*
X23221842Y-3636139D02*
X23221842Y-3666139D01*
X23206842Y-3651139D02*
X23236842Y-3651139D01*
X23239622Y-6305679D02*
X23239622Y-6335679D01*
X23224622Y-6320679D02*
X23254622Y-6320679D01*
X23249782Y-6435219D02*
X23249782Y-6465219D01*
X23234782Y-6450219D02*
X23264782Y-6450219D01*
X23292962Y-5246499D02*
X23292962Y-5276499D01*
X23277962Y-5261499D02*
X23307962Y-5261499D01*
X23310742Y-3829179D02*
X23310742Y-3859179D01*
X23295742Y-3844179D02*
X23325742Y-3844179D01*
X23374242Y-2681099D02*
X23374242Y-2711099D01*
X23359242Y-2696099D02*
X23389242Y-2696099D01*
X23374682Y-6307879D02*
X23374682Y-6337879D01*
X23359682Y-6322879D02*
X23389682Y-6322879D01*
X23428852Y-5244029D02*
X23428852Y-5274029D01*
X23413852Y-5259029D02*
X23443852Y-5259029D01*
X23430122Y-2792859D02*
X23430122Y-2822859D01*
X23415122Y-2807859D02*
X23445122Y-2807859D01*
X23430122Y-3072259D02*
X23430122Y-3102259D01*
X23415122Y-3087259D02*
X23445122Y-3087259D01*
X23430122Y-3295779D02*
X23430122Y-3325779D01*
X23415122Y-3310779D02*
X23445122Y-3310779D01*
X23430122Y-3509139D02*
X23430122Y-3539139D01*
X23415122Y-3524139D02*
X23445122Y-3524139D01*
X23430122Y-3773299D02*
X23430122Y-3803299D01*
X23415122Y-3788299D02*
X23445122Y-3788299D01*
X23430122Y-3971419D02*
X23430122Y-4001419D01*
X23415122Y-3986419D02*
X23445122Y-3986419D01*
X23430122Y-4123819D02*
X23430122Y-4153819D01*
X23415122Y-4138819D02*
X23445122Y-4138819D01*
X23430122Y-4266059D02*
X23430122Y-4296059D01*
X23415122Y-4281059D02*
X23445122Y-4281059D01*
X23430122Y-4413379D02*
X23430122Y-4443379D01*
X23415122Y-4428379D02*
X23445122Y-4428379D01*
X23430122Y-4560699D02*
X23430122Y-4590699D01*
X23415122Y-4575699D02*
X23445122Y-4575699D01*
X23430122Y-4713099D02*
X23430122Y-4743099D01*
X23415122Y-4728099D02*
X23445122Y-4728099D01*
X23430122Y-4850259D02*
X23430122Y-4880259D01*
X23415122Y-4865259D02*
X23445122Y-4865259D01*
X23430122Y-5048379D02*
X23430122Y-5078379D01*
X23415122Y-5063379D02*
X23445122Y-5063379D01*
X23430122Y-5444619D02*
X23430122Y-5474619D01*
X23415122Y-5459619D02*
X23445122Y-5459619D01*
X23430122Y-5622419D02*
X23430122Y-5652419D01*
X23415122Y-5637419D02*
X23445122Y-5637419D01*
X23430122Y-5805299D02*
X23430122Y-5835299D01*
X23415122Y-5820299D02*
X23445122Y-5820299D01*
D15*
X18899879Y-2763356D02*
X18899879Y-2710322D01*
X18846845Y-2710322D01*
X18846845Y-2763356D01*
X18899879Y-2763356D01*
X18899879Y-2963355D02*
X18899879Y-2910322D01*
X18846845Y-2910322D01*
X18846845Y-2963355D01*
X18899879Y-2963355D01*
X18899879Y-3163355D02*
X18899879Y-3110322D01*
X18846845Y-3110322D01*
X18846845Y-3163355D01*
X18899879Y-3163355D01*
X18899879Y-3363355D02*
X18899879Y-3310322D01*
X18846845Y-3310322D01*
X18846845Y-3363355D01*
X18899879Y-3363355D01*
X18899879Y-3563355D02*
X18899879Y-3510322D01*
X18846845Y-3510322D01*
X18846845Y-3563355D01*
X18899879Y-3563355D01*
X18899879Y-3763355D02*
X18899879Y-3710322D01*
X18846845Y-3710322D01*
X18846845Y-3763355D01*
X18899879Y-3763355D01*
X18899879Y-3963355D02*
X18899879Y-3910322D01*
X18846845Y-3910322D01*
X18846845Y-3963355D01*
X18899879Y-3963355D01*
X18899879Y-4163355D02*
X18899879Y-4110322D01*
X18846845Y-4110322D01*
X18846845Y-4163355D01*
X18899879Y-4163355D01*
X23050199Y-2363896D02*
X23050199Y-2310862D01*
X22997165Y-2310862D01*
X22997165Y-2363896D01*
X23050199Y-2363896D01*
X23050199Y-2563896D02*
X23050199Y-2510862D01*
X22997165Y-2510862D01*
X22997165Y-2563896D01*
X23050199Y-2563896D01*
X23050199Y-2763896D02*
X23050199Y-2710862D01*
X22997165Y-2710862D01*
X22997165Y-2763896D01*
X23050199Y-2763896D01*
X23050199Y-2963895D02*
X23050199Y-2910862D01*
X22997165Y-2910862D01*
X22997165Y-2963895D01*
X23050199Y-2963895D01*
X23050199Y-3163895D02*
X23050199Y-3110862D01*
X22997165Y-3110862D01*
X22997165Y-3163895D01*
X23050199Y-3163895D01*
X23050199Y-3363895D02*
X23050199Y-3310862D01*
X22997165Y-3310862D01*
X22997165Y-3363895D01*
X23050199Y-3363895D01*
X23050199Y-3563895D02*
X23050199Y-3510862D01*
X22997165Y-3510862D01*
X22997165Y-3563895D01*
X23050199Y-3563895D01*
X23050199Y-3763895D02*
X23050199Y-3710862D01*
X22997165Y-3710862D01*
X22997165Y-3763895D01*
X23050199Y-3763895D01*
D16*
X22632682Y-5502379D02*
X22672682Y-5462379D01*
X22632682Y-5422379D01*
X22592682Y-5462379D01*
X22632682Y-5502379D01*
X22886682Y-5502379D02*
X22926682Y-5462379D01*
X22886682Y-5422379D01*
X22846682Y-5462379D01*
X22886682Y-5502379D01*
X23140682Y-5502379D02*
X23180682Y-5462379D01*
X23140682Y-5422379D01*
X23100682Y-5462379D01*
X23140682Y-5502379D01*
D17*
X20526692Y-2287169D02*
X20636692Y-2397169D01*
X20636692Y-2287169D02*
X20526692Y-2397169D01*
X20636692Y-2342169D02*
G75*
G03*
X20636692Y-2342169I-55000J0D01*
G01*
X20526692Y-2737169D02*
X20636692Y-2847169D01*
X20636692Y-2737169D02*
X20526692Y-2847169D01*
X20636692Y-2792169D02*
G75*
G03*
X20636692Y-2792169I-55000J0D01*
G01*
X21176692Y-2287169D02*
X21286692Y-2397169D01*
X21286692Y-2287169D02*
X21176692Y-2397169D01*
X21286692Y-2342169D02*
G75*
G03*
X21286692Y-2342169I-55000J0D01*
G01*
X21176692Y-2737169D02*
X21286692Y-2847169D01*
X21286692Y-2737169D02*
X21176692Y-2847169D01*
X21286692Y-2792169D02*
G75*
G03*
X21286692Y-2792169I-55000J0D01*
G01*
X21545052Y-2292169D02*
X21655052Y-2402169D01*
X21655052Y-2292169D02*
X21545052Y-2402169D01*
X21655052Y-2347169D02*
G75*
G03*
X21655052Y-2347169I-55000J0D01*
G01*
X21545052Y-2742169D02*
X21655052Y-2852169D01*
X21655052Y-2742169D02*
X21545052Y-2852169D01*
X21655052Y-2797169D02*
G75*
G03*
X21655052Y-2797169I-55000J0D01*
G01*
X22195052Y-2292169D02*
X22305052Y-2402169D01*
X22305052Y-2292169D02*
X22195052Y-2402169D01*
X22305052Y-2347169D02*
G75*
G03*
X22305052Y-2347169I-55000J0D01*
G01*
X22195052Y-2742169D02*
X22305052Y-2852169D01*
X22305052Y-2742169D02*
X22195052Y-2852169D01*
X22305052Y-2797169D02*
G75*
G03*
X22305052Y-2797169I-55000J0D01*
G01*
D11*
X18758937Y-7300902D02*
X18758937Y-7100902D01*
X18758937Y-7100902D02*
X18806556Y-7100902D01*
X18806556Y-7100902D02*
X18835127Y-7110426D01*
X18835127Y-7110426D02*
X18854175Y-7129474D01*
X18854175Y-7129474D02*
X18863699Y-7148521D01*
X18863699Y-7148521D02*
X18873223Y-7186617D01*
X18873223Y-7186617D02*
X18873223Y-7215188D01*
X18873223Y-7215188D02*
X18863699Y-7253283D01*
X18863699Y-7253283D02*
X18854175Y-7272331D01*
X18854175Y-7272331D02*
X18835127Y-7291379D01*
X18835127Y-7291379D02*
X18806556Y-7300902D01*
X18806556Y-7300902D02*
X18758937Y-7300902D01*
X18958937Y-7300902D02*
X18958937Y-7167569D01*
X18958937Y-7205664D02*
X18968461Y-7186617D01*
X18968461Y-7186617D02*
X18977984Y-7177093D01*
X18977984Y-7177093D02*
X18997032Y-7167569D01*
X18997032Y-7167569D02*
X19016080Y-7167569D01*
X19082746Y-7300902D02*
X19082746Y-7167569D01*
X19082746Y-7100902D02*
X19073223Y-7110426D01*
X19073223Y-7110426D02*
X19082746Y-7119950D01*
X19082746Y-7119950D02*
X19092270Y-7110426D01*
X19092270Y-7110426D02*
X19082746Y-7100902D01*
X19082746Y-7100902D02*
X19082746Y-7119950D01*
X19206556Y-7300902D02*
X19187508Y-7291379D01*
X19187508Y-7291379D02*
X19177984Y-7272331D01*
X19177984Y-7272331D02*
X19177984Y-7100902D01*
X19311318Y-7300902D02*
X19292270Y-7291379D01*
X19292270Y-7291379D02*
X19282746Y-7272331D01*
X19282746Y-7272331D02*
X19282746Y-7100902D01*
X19539889Y-7300902D02*
X19539889Y-7100902D01*
X19539889Y-7100902D02*
X19606556Y-7243760D01*
X19606556Y-7243760D02*
X19673223Y-7100902D01*
X19673223Y-7100902D02*
X19673223Y-7300902D01*
X19854175Y-7300902D02*
X19854175Y-7196141D01*
X19854175Y-7196141D02*
X19844651Y-7177093D01*
X19844651Y-7177093D02*
X19825604Y-7167569D01*
X19825604Y-7167569D02*
X19787508Y-7167569D01*
X19787508Y-7167569D02*
X19768461Y-7177093D01*
X19854175Y-7291379D02*
X19835127Y-7300902D01*
X19835127Y-7300902D02*
X19787508Y-7300902D01*
X19787508Y-7300902D02*
X19768461Y-7291379D01*
X19768461Y-7291379D02*
X19758937Y-7272331D01*
X19758937Y-7272331D02*
X19758937Y-7253283D01*
X19758937Y-7253283D02*
X19768461Y-7234236D01*
X19768461Y-7234236D02*
X19787508Y-7224712D01*
X19787508Y-7224712D02*
X19835127Y-7224712D01*
X19835127Y-7224712D02*
X19854175Y-7215188D01*
X19949413Y-7167569D02*
X19949413Y-7367569D01*
X19949413Y-7177093D02*
X19968461Y-7167569D01*
X19968461Y-7167569D02*
X20006556Y-7167569D01*
X20006556Y-7167569D02*
X20025604Y-7177093D01*
X20025604Y-7177093D02*
X20035127Y-7186617D01*
X20035127Y-7186617D02*
X20044651Y-7205664D01*
X20044651Y-7205664D02*
X20044651Y-7262807D01*
X20044651Y-7262807D02*
X20035127Y-7281855D01*
X20035127Y-7281855D02*
X20025604Y-7291379D01*
X20025604Y-7291379D02*
X20006556Y-7300902D01*
X20006556Y-7300902D02*
X19968461Y-7300902D01*
X19968461Y-7300902D02*
X19949413Y-7291379D01*
X20130365Y-7281855D02*
X20139889Y-7291379D01*
X20139889Y-7291379D02*
X20130365Y-7300902D01*
X20130365Y-7300902D02*
X20120842Y-7291379D01*
X20120842Y-7291379D02*
X20130365Y-7281855D01*
X20130365Y-7281855D02*
X20130365Y-7300902D01*
X20130365Y-7177093D02*
X20139889Y-7186617D01*
X20139889Y-7186617D02*
X20130365Y-7196141D01*
X20130365Y-7196141D02*
X20120842Y-7186617D01*
X20120842Y-7186617D02*
X20130365Y-7177093D01*
X20130365Y-7177093D02*
X20130365Y-7196141D01*
D12*
X18491318Y-7618379D02*
X18511318Y-7638379D01*
X18511318Y-7618379D02*
X18491318Y-7638379D01*
D11*
X18797032Y-7520902D02*
X18816080Y-7520902D01*
X18816080Y-7520902D02*
X18835127Y-7530426D01*
X18835127Y-7530426D02*
X18844651Y-7539950D01*
X18844651Y-7539950D02*
X18854175Y-7558998D01*
X18854175Y-7558998D02*
X18863699Y-7597093D01*
X18863699Y-7597093D02*
X18863699Y-7644712D01*
X18863699Y-7644712D02*
X18854175Y-7682807D01*
X18854175Y-7682807D02*
X18844651Y-7701855D01*
X18844651Y-7701855D02*
X18835127Y-7711379D01*
X18835127Y-7711379D02*
X18816080Y-7720902D01*
X18816080Y-7720902D02*
X18797032Y-7720902D01*
X18797032Y-7720902D02*
X18777984Y-7711379D01*
X18777984Y-7711379D02*
X18768461Y-7701855D01*
X18768461Y-7701855D02*
X18758937Y-7682807D01*
X18758937Y-7682807D02*
X18749413Y-7644712D01*
X18749413Y-7644712D02*
X18749413Y-7597093D01*
X18749413Y-7597093D02*
X18758937Y-7558998D01*
X18758937Y-7558998D02*
X18768461Y-7539950D01*
X18768461Y-7539950D02*
X18777984Y-7530426D01*
X18777984Y-7530426D02*
X18797032Y-7520902D01*
X18949413Y-7701855D02*
X18958937Y-7711379D01*
X18958937Y-7711379D02*
X18949413Y-7720902D01*
X18949413Y-7720902D02*
X18939889Y-7711379D01*
X18939889Y-7711379D02*
X18949413Y-7701855D01*
X18949413Y-7701855D02*
X18949413Y-7720902D01*
X19035127Y-7539950D02*
X19044651Y-7530426D01*
X19044651Y-7530426D02*
X19063699Y-7520902D01*
X19063699Y-7520902D02*
X19111318Y-7520902D01*
X19111318Y-7520902D02*
X19130365Y-7530426D01*
X19130365Y-7530426D02*
X19139889Y-7539950D01*
X19139889Y-7539950D02*
X19149413Y-7558998D01*
X19149413Y-7558998D02*
X19149413Y-7578045D01*
X19149413Y-7578045D02*
X19139889Y-7606617D01*
X19139889Y-7606617D02*
X19025604Y-7720902D01*
X19025604Y-7720902D02*
X19149413Y-7720902D01*
X19273223Y-7520902D02*
X19292270Y-7520902D01*
X19292270Y-7520902D02*
X19311318Y-7530426D01*
X19311318Y-7530426D02*
X19320842Y-7539950D01*
X19320842Y-7539950D02*
X19330365Y-7558998D01*
X19330365Y-7558998D02*
X19339889Y-7597093D01*
X19339889Y-7597093D02*
X19339889Y-7644712D01*
X19339889Y-7644712D02*
X19330365Y-7682807D01*
X19330365Y-7682807D02*
X19320842Y-7701855D01*
X19320842Y-7701855D02*
X19311318Y-7711379D01*
X19311318Y-7711379D02*
X19292270Y-7720902D01*
X19292270Y-7720902D02*
X19273223Y-7720902D01*
X19273223Y-7720902D02*
X19254175Y-7711379D01*
X19254175Y-7711379D02*
X19244651Y-7701855D01*
X19244651Y-7701855D02*
X19235127Y-7682807D01*
X19235127Y-7682807D02*
X19225604Y-7644712D01*
X19225604Y-7644712D02*
X19225604Y-7597093D01*
X19225604Y-7597093D02*
X19235127Y-7558998D01*
X19235127Y-7558998D02*
X19244651Y-7539950D01*
X19244651Y-7539950D02*
X19254175Y-7530426D01*
X19254175Y-7530426D02*
X19273223Y-7520902D01*
X19463699Y-7520902D02*
X19482746Y-7520902D01*
X19482746Y-7520902D02*
X19501794Y-7530426D01*
X19501794Y-7530426D02*
X19511318Y-7539950D01*
X19511318Y-7539950D02*
X19520842Y-7558998D01*
X19520842Y-7558998D02*
X19530365Y-7597093D01*
X19530365Y-7597093D02*
X19530365Y-7644712D01*
X19530365Y-7644712D02*
X19520842Y-7682807D01*
X19520842Y-7682807D02*
X19511318Y-7701855D01*
X19511318Y-7701855D02*
X19501794Y-7711379D01*
X19501794Y-7711379D02*
X19482746Y-7720902D01*
X19482746Y-7720902D02*
X19463699Y-7720902D01*
X19463699Y-7720902D02*
X19444651Y-7711379D01*
X19444651Y-7711379D02*
X19435127Y-7701855D01*
X19435127Y-7701855D02*
X19425604Y-7682807D01*
X19425604Y-7682807D02*
X19416080Y-7644712D01*
X19416080Y-7644712D02*
X19416080Y-7597093D01*
X19416080Y-7597093D02*
X19425604Y-7558998D01*
X19425604Y-7558998D02*
X19435127Y-7539950D01*
X19435127Y-7539950D02*
X19444651Y-7530426D01*
X19444651Y-7530426D02*
X19463699Y-7520902D01*
X19616080Y-7720902D02*
X19616080Y-7587569D01*
X19616080Y-7606617D02*
X19625604Y-7597093D01*
X19625604Y-7597093D02*
X19644651Y-7587569D01*
X19644651Y-7587569D02*
X19673223Y-7587569D01*
X19673223Y-7587569D02*
X19692270Y-7597093D01*
X19692270Y-7597093D02*
X19701794Y-7616141D01*
X19701794Y-7616141D02*
X19701794Y-7720902D01*
X19701794Y-7616141D02*
X19711318Y-7597093D01*
X19711318Y-7597093D02*
X19730365Y-7587569D01*
X19730365Y-7587569D02*
X19758937Y-7587569D01*
X19758937Y-7587569D02*
X19777985Y-7597093D01*
X19777985Y-7597093D02*
X19787508Y-7616141D01*
X19787508Y-7616141D02*
X19787508Y-7720902D01*
X19882746Y-7720902D02*
X19882746Y-7587569D01*
X19882746Y-7606617D02*
X19892270Y-7597093D01*
X19892270Y-7597093D02*
X19911318Y-7587569D01*
X19911318Y-7587569D02*
X19939889Y-7587569D01*
X19939889Y-7587569D02*
X19958937Y-7597093D01*
X19958937Y-7597093D02*
X19968461Y-7616141D01*
X19968461Y-7616141D02*
X19968461Y-7720902D01*
X19968461Y-7616141D02*
X19977985Y-7597093D01*
X19977985Y-7597093D02*
X19997032Y-7587569D01*
X19997032Y-7587569D02*
X20025604Y-7587569D01*
X20025604Y-7587569D02*
X20044651Y-7597093D01*
X20044651Y-7597093D02*
X20054175Y-7616141D01*
X20054175Y-7616141D02*
X20054175Y-7720902D01*
X20444651Y-7511379D02*
X20273223Y-7768521D01*
X20701794Y-7520902D02*
X20720842Y-7520902D01*
X20720842Y-7520902D02*
X20739889Y-7530426D01*
X20739889Y-7530426D02*
X20749413Y-7539950D01*
X20749413Y-7539950D02*
X20758937Y-7558998D01*
X20758937Y-7558998D02*
X20768461Y-7597093D01*
X20768461Y-7597093D02*
X20768461Y-7644712D01*
X20768461Y-7644712D02*
X20758937Y-7682807D01*
X20758937Y-7682807D02*
X20749413Y-7701855D01*
X20749413Y-7701855D02*
X20739889Y-7711379D01*
X20739889Y-7711379D02*
X20720842Y-7720902D01*
X20720842Y-7720902D02*
X20701794Y-7720902D01*
X20701794Y-7720902D02*
X20682747Y-7711379D01*
X20682747Y-7711379D02*
X20673223Y-7701855D01*
X20673223Y-7701855D02*
X20663699Y-7682807D01*
X20663699Y-7682807D02*
X20654175Y-7644712D01*
X20654175Y-7644712D02*
X20654175Y-7597093D01*
X20654175Y-7597093D02*
X20663699Y-7558998D01*
X20663699Y-7558998D02*
X20673223Y-7539950D01*
X20673223Y-7539950D02*
X20682747Y-7530426D01*
X20682747Y-7530426D02*
X20701794Y-7520902D01*
X20854175Y-7701855D02*
X20863699Y-7711379D01*
X20863699Y-7711379D02*
X20854175Y-7720902D01*
X20854175Y-7720902D02*
X20844651Y-7711379D01*
X20844651Y-7711379D02*
X20854175Y-7701855D01*
X20854175Y-7701855D02*
X20854175Y-7720902D01*
X20987508Y-7520902D02*
X21006556Y-7520902D01*
X21006556Y-7520902D02*
X21025604Y-7530426D01*
X21025604Y-7530426D02*
X21035128Y-7539950D01*
X21035128Y-7539950D02*
X21044651Y-7558998D01*
X21044651Y-7558998D02*
X21054175Y-7597093D01*
X21054175Y-7597093D02*
X21054175Y-7644712D01*
X21054175Y-7644712D02*
X21044651Y-7682807D01*
X21044651Y-7682807D02*
X21035128Y-7701855D01*
X21035128Y-7701855D02*
X21025604Y-7711379D01*
X21025604Y-7711379D02*
X21006556Y-7720902D01*
X21006556Y-7720902D02*
X20987508Y-7720902D01*
X20987508Y-7720902D02*
X20968461Y-7711379D01*
X20968461Y-7711379D02*
X20958937Y-7701855D01*
X20958937Y-7701855D02*
X20949413Y-7682807D01*
X20949413Y-7682807D02*
X20939889Y-7644712D01*
X20939889Y-7644712D02*
X20939889Y-7597093D01*
X20939889Y-7597093D02*
X20949413Y-7558998D01*
X20949413Y-7558998D02*
X20958937Y-7539950D01*
X20958937Y-7539950D02*
X20968461Y-7530426D01*
X20968461Y-7530426D02*
X20987508Y-7520902D01*
X21177985Y-7520902D02*
X21197032Y-7520902D01*
X21197032Y-7520902D02*
X21216080Y-7530426D01*
X21216080Y-7530426D02*
X21225604Y-7539950D01*
X21225604Y-7539950D02*
X21235128Y-7558998D01*
X21235128Y-7558998D02*
X21244651Y-7597093D01*
X21244651Y-7597093D02*
X21244651Y-7644712D01*
X21244651Y-7644712D02*
X21235128Y-7682807D01*
X21235128Y-7682807D02*
X21225604Y-7701855D01*
X21225604Y-7701855D02*
X21216080Y-7711379D01*
X21216080Y-7711379D02*
X21197032Y-7720902D01*
X21197032Y-7720902D02*
X21177985Y-7720902D01*
X21177985Y-7720902D02*
X21158937Y-7711379D01*
X21158937Y-7711379D02*
X21149413Y-7701855D01*
X21149413Y-7701855D02*
X21139889Y-7682807D01*
X21139889Y-7682807D02*
X21130366Y-7644712D01*
X21130366Y-7644712D02*
X21130366Y-7597093D01*
X21130366Y-7597093D02*
X21139889Y-7558998D01*
X21139889Y-7558998D02*
X21149413Y-7539950D01*
X21149413Y-7539950D02*
X21158937Y-7530426D01*
X21158937Y-7530426D02*
X21177985Y-7520902D01*
X21311318Y-7520902D02*
X21444651Y-7520902D01*
X21444651Y-7520902D02*
X21358937Y-7720902D01*
X21530366Y-7720902D02*
X21568461Y-7720902D01*
X21568461Y-7720902D02*
X21587509Y-7711379D01*
X21587509Y-7711379D02*
X21597032Y-7701855D01*
X21597032Y-7701855D02*
X21616080Y-7673283D01*
X21616080Y-7673283D02*
X21625604Y-7635188D01*
X21625604Y-7635188D02*
X21625604Y-7558998D01*
X21625604Y-7558998D02*
X21616080Y-7539950D01*
X21616080Y-7539950D02*
X21606556Y-7530426D01*
X21606556Y-7530426D02*
X21587509Y-7520902D01*
X21587509Y-7520902D02*
X21549413Y-7520902D01*
X21549413Y-7520902D02*
X21530366Y-7530426D01*
X21530366Y-7530426D02*
X21520842Y-7539950D01*
X21520842Y-7539950D02*
X21511318Y-7558998D01*
X21511318Y-7558998D02*
X21511318Y-7606617D01*
X21511318Y-7606617D02*
X21520842Y-7625664D01*
X21520842Y-7625664D02*
X21530366Y-7635188D01*
X21530366Y-7635188D02*
X21549413Y-7644712D01*
X21549413Y-7644712D02*
X21587509Y-7644712D01*
X21587509Y-7644712D02*
X21606556Y-7635188D01*
X21606556Y-7635188D02*
X21616080Y-7625664D01*
X21616080Y-7625664D02*
X21625604Y-7606617D01*
X21701794Y-7520902D02*
X21701794Y-7558998D01*
X21777985Y-7520902D02*
X21777985Y-7558998D01*
X22073223Y-7797093D02*
X22063699Y-7787569D01*
X22063699Y-7787569D02*
X22044651Y-7758998D01*
X22044651Y-7758998D02*
X22035128Y-7739950D01*
X22035128Y-7739950D02*
X22025604Y-7711379D01*
X22025604Y-7711379D02*
X22016080Y-7663760D01*
X22016080Y-7663760D02*
X22016080Y-7625664D01*
X22016080Y-7625664D02*
X22025604Y-7578045D01*
X22025604Y-7578045D02*
X22035128Y-7549474D01*
X22035128Y-7549474D02*
X22044651Y-7530426D01*
X22044651Y-7530426D02*
X22063699Y-7501855D01*
X22063699Y-7501855D02*
X22073223Y-7492331D01*
X22254175Y-7720902D02*
X22139890Y-7720902D01*
X22197032Y-7720902D02*
X22197032Y-7520902D01*
X22197032Y-7520902D02*
X22177985Y-7549474D01*
X22177985Y-7549474D02*
X22158937Y-7568521D01*
X22158937Y-7568521D02*
X22139890Y-7578045D01*
X22320842Y-7520902D02*
X22444651Y-7520902D01*
X22444651Y-7520902D02*
X22377985Y-7597093D01*
X22377985Y-7597093D02*
X22406556Y-7597093D01*
X22406556Y-7597093D02*
X22425604Y-7606617D01*
X22425604Y-7606617D02*
X22435128Y-7616141D01*
X22435128Y-7616141D02*
X22444651Y-7635188D01*
X22444651Y-7635188D02*
X22444651Y-7682807D01*
X22444651Y-7682807D02*
X22435128Y-7701855D01*
X22435128Y-7701855D02*
X22425604Y-7711379D01*
X22425604Y-7711379D02*
X22406556Y-7720902D01*
X22406556Y-7720902D02*
X22349413Y-7720902D01*
X22349413Y-7720902D02*
X22330366Y-7711379D01*
X22330366Y-7711379D02*
X22320842Y-7701855D01*
X22539889Y-7720902D02*
X22577985Y-7720902D01*
X22577985Y-7720902D02*
X22597032Y-7711379D01*
X22597032Y-7711379D02*
X22606556Y-7701855D01*
X22606556Y-7701855D02*
X22625604Y-7673283D01*
X22625604Y-7673283D02*
X22635128Y-7635188D01*
X22635128Y-7635188D02*
X22635128Y-7558998D01*
X22635128Y-7558998D02*
X22625604Y-7539950D01*
X22625604Y-7539950D02*
X22616080Y-7530426D01*
X22616080Y-7530426D02*
X22597032Y-7520902D01*
X22597032Y-7520902D02*
X22558937Y-7520902D01*
X22558937Y-7520902D02*
X22539889Y-7530426D01*
X22539889Y-7530426D02*
X22530366Y-7539950D01*
X22530366Y-7539950D02*
X22520842Y-7558998D01*
X22520842Y-7558998D02*
X22520842Y-7606617D01*
X22520842Y-7606617D02*
X22530366Y-7625664D01*
X22530366Y-7625664D02*
X22539889Y-7635188D01*
X22539889Y-7635188D02*
X22558937Y-7644712D01*
X22558937Y-7644712D02*
X22597032Y-7644712D01*
X22597032Y-7644712D02*
X22616080Y-7635188D01*
X22616080Y-7635188D02*
X22625604Y-7625664D01*
X22625604Y-7625664D02*
X22635128Y-7606617D01*
X22873223Y-7720902D02*
X22873223Y-7520902D01*
X22958937Y-7720902D02*
X22958937Y-7616141D01*
X22958937Y-7616141D02*
X22949413Y-7597093D01*
X22949413Y-7597093D02*
X22930366Y-7587569D01*
X22930366Y-7587569D02*
X22901794Y-7587569D01*
X22901794Y-7587569D02*
X22882747Y-7597093D01*
X22882747Y-7597093D02*
X22873223Y-7606617D01*
X23082747Y-7720902D02*
X23063699Y-7711379D01*
X23063699Y-7711379D02*
X23054175Y-7701855D01*
X23054175Y-7701855D02*
X23044651Y-7682807D01*
X23044651Y-7682807D02*
X23044651Y-7625664D01*
X23044651Y-7625664D02*
X23054175Y-7606617D01*
X23054175Y-7606617D02*
X23063699Y-7597093D01*
X23063699Y-7597093D02*
X23082747Y-7587569D01*
X23082747Y-7587569D02*
X23111318Y-7587569D01*
X23111318Y-7587569D02*
X23130366Y-7597093D01*
X23130366Y-7597093D02*
X23139890Y-7606617D01*
X23139890Y-7606617D02*
X23149413Y-7625664D01*
X23149413Y-7625664D02*
X23149413Y-7682807D01*
X23149413Y-7682807D02*
X23139890Y-7701855D01*
X23139890Y-7701855D02*
X23130366Y-7711379D01*
X23130366Y-7711379D02*
X23111318Y-7720902D01*
X23111318Y-7720902D02*
X23082747Y-7720902D01*
X23263699Y-7720902D02*
X23244651Y-7711379D01*
X23244651Y-7711379D02*
X23235128Y-7692331D01*
X23235128Y-7692331D02*
X23235128Y-7520902D01*
X23416080Y-7711379D02*
X23397032Y-7720902D01*
X23397032Y-7720902D02*
X23358937Y-7720902D01*
X23358937Y-7720902D02*
X23339890Y-7711379D01*
X23339890Y-7711379D02*
X23330366Y-7692331D01*
X23330366Y-7692331D02*
X23330366Y-7616141D01*
X23330366Y-7616141D02*
X23339890Y-7597093D01*
X23339890Y-7597093D02*
X23358937Y-7587569D01*
X23358937Y-7587569D02*
X23397032Y-7587569D01*
X23397032Y-7587569D02*
X23416080Y-7597093D01*
X23416080Y-7597093D02*
X23425604Y-7616141D01*
X23425604Y-7616141D02*
X23425604Y-7635188D01*
X23425604Y-7635188D02*
X23330366Y-7654236D01*
X23501794Y-7711379D02*
X23520842Y-7720902D01*
X23520842Y-7720902D02*
X23558937Y-7720902D01*
X23558937Y-7720902D02*
X23577985Y-7711379D01*
X23577985Y-7711379D02*
X23587509Y-7692331D01*
X23587509Y-7692331D02*
X23587509Y-7682807D01*
X23587509Y-7682807D02*
X23577985Y-7663760D01*
X23577985Y-7663760D02*
X23558937Y-7654236D01*
X23558937Y-7654236D02*
X23530366Y-7654236D01*
X23530366Y-7654236D02*
X23511318Y-7644712D01*
X23511318Y-7644712D02*
X23501794Y-7625664D01*
X23501794Y-7625664D02*
X23501794Y-7616141D01*
X23501794Y-7616141D02*
X23511318Y-7597093D01*
X23511318Y-7597093D02*
X23530366Y-7587569D01*
X23530366Y-7587569D02*
X23558937Y-7587569D01*
X23558937Y-7587569D02*
X23577985Y-7597093D01*
X23654175Y-7797093D02*
X23663699Y-7787569D01*
X23663699Y-7787569D02*
X23682747Y-7758998D01*
X23682747Y-7758998D02*
X23692271Y-7739950D01*
X23692271Y-7739950D02*
X23701794Y-7711379D01*
X23701794Y-7711379D02*
X23711318Y-7663760D01*
X23711318Y-7663760D02*
X23711318Y-7625664D01*
X23711318Y-7625664D02*
X23701794Y-7578045D01*
X23701794Y-7578045D02*
X23692271Y-7549474D01*
X23692271Y-7549474D02*
X23682747Y-7530426D01*
X23682747Y-7530426D02*
X23663699Y-7501855D01*
X23663699Y-7501855D02*
X23654175Y-7492331D01*
D13*
X18511318Y-7892379D02*
G75*
G03*
X18511318Y-7892379I-11000J0D01*
G01*
D11*
X18797032Y-7784902D02*
X18816080Y-7784902D01*
X18816080Y-7784902D02*
X18835127Y-7794426D01*
X18835127Y-7794426D02*
X18844651Y-7803950D01*
X18844651Y-7803950D02*
X18854175Y-7822998D01*
X18854175Y-7822998D02*
X18863699Y-7861093D01*
X18863699Y-7861093D02*
X18863699Y-7908712D01*
X18863699Y-7908712D02*
X18854175Y-7946807D01*
X18854175Y-7946807D02*
X18844651Y-7965855D01*
X18844651Y-7965855D02*
X18835127Y-7975379D01*
X18835127Y-7975379D02*
X18816080Y-7984902D01*
X18816080Y-7984902D02*
X18797032Y-7984902D01*
X18797032Y-7984902D02*
X18777984Y-7975379D01*
X18777984Y-7975379D02*
X18768461Y-7965855D01*
X18768461Y-7965855D02*
X18758937Y-7946807D01*
X18758937Y-7946807D02*
X18749413Y-7908712D01*
X18749413Y-7908712D02*
X18749413Y-7861093D01*
X18749413Y-7861093D02*
X18758937Y-7822998D01*
X18758937Y-7822998D02*
X18768461Y-7803950D01*
X18768461Y-7803950D02*
X18777984Y-7794426D01*
X18777984Y-7794426D02*
X18797032Y-7784902D01*
X18949413Y-7965855D02*
X18958937Y-7975379D01*
X18958937Y-7975379D02*
X18949413Y-7984902D01*
X18949413Y-7984902D02*
X18939889Y-7975379D01*
X18939889Y-7975379D02*
X18949413Y-7965855D01*
X18949413Y-7965855D02*
X18949413Y-7984902D01*
X19035127Y-7803950D02*
X19044651Y-7794426D01*
X19044651Y-7794426D02*
X19063699Y-7784902D01*
X19063699Y-7784902D02*
X19111318Y-7784902D01*
X19111318Y-7784902D02*
X19130365Y-7794426D01*
X19130365Y-7794426D02*
X19139889Y-7803950D01*
X19139889Y-7803950D02*
X19149413Y-7822998D01*
X19149413Y-7822998D02*
X19149413Y-7842045D01*
X19149413Y-7842045D02*
X19139889Y-7870617D01*
X19139889Y-7870617D02*
X19025604Y-7984902D01*
X19025604Y-7984902D02*
X19149413Y-7984902D01*
X19225604Y-7803950D02*
X19235127Y-7794426D01*
X19235127Y-7794426D02*
X19254175Y-7784902D01*
X19254175Y-7784902D02*
X19301794Y-7784902D01*
X19301794Y-7784902D02*
X19320842Y-7794426D01*
X19320842Y-7794426D02*
X19330365Y-7803950D01*
X19330365Y-7803950D02*
X19339889Y-7822998D01*
X19339889Y-7822998D02*
X19339889Y-7842045D01*
X19339889Y-7842045D02*
X19330365Y-7870617D01*
X19330365Y-7870617D02*
X19216080Y-7984902D01*
X19216080Y-7984902D02*
X19339889Y-7984902D01*
X19463699Y-7784902D02*
X19482746Y-7784902D01*
X19482746Y-7784902D02*
X19501794Y-7794426D01*
X19501794Y-7794426D02*
X19511318Y-7803950D01*
X19511318Y-7803950D02*
X19520842Y-7822998D01*
X19520842Y-7822998D02*
X19530365Y-7861093D01*
X19530365Y-7861093D02*
X19530365Y-7908712D01*
X19530365Y-7908712D02*
X19520842Y-7946807D01*
X19520842Y-7946807D02*
X19511318Y-7965855D01*
X19511318Y-7965855D02*
X19501794Y-7975379D01*
X19501794Y-7975379D02*
X19482746Y-7984902D01*
X19482746Y-7984902D02*
X19463699Y-7984902D01*
X19463699Y-7984902D02*
X19444651Y-7975379D01*
X19444651Y-7975379D02*
X19435127Y-7965855D01*
X19435127Y-7965855D02*
X19425604Y-7946807D01*
X19425604Y-7946807D02*
X19416080Y-7908712D01*
X19416080Y-7908712D02*
X19416080Y-7861093D01*
X19416080Y-7861093D02*
X19425604Y-7822998D01*
X19425604Y-7822998D02*
X19435127Y-7803950D01*
X19435127Y-7803950D02*
X19444651Y-7794426D01*
X19444651Y-7794426D02*
X19463699Y-7784902D01*
X19616080Y-7984902D02*
X19616080Y-7851569D01*
X19616080Y-7870617D02*
X19625604Y-7861093D01*
X19625604Y-7861093D02*
X19644651Y-7851569D01*
X19644651Y-7851569D02*
X19673223Y-7851569D01*
X19673223Y-7851569D02*
X19692270Y-7861093D01*
X19692270Y-7861093D02*
X19701794Y-7880141D01*
X19701794Y-7880141D02*
X19701794Y-7984902D01*
X19701794Y-7880141D02*
X19711318Y-7861093D01*
X19711318Y-7861093D02*
X19730365Y-7851569D01*
X19730365Y-7851569D02*
X19758937Y-7851569D01*
X19758937Y-7851569D02*
X19777985Y-7861093D01*
X19777985Y-7861093D02*
X19787508Y-7880141D01*
X19787508Y-7880141D02*
X19787508Y-7984902D01*
X19882746Y-7984902D02*
X19882746Y-7851569D01*
X19882746Y-7870617D02*
X19892270Y-7861093D01*
X19892270Y-7861093D02*
X19911318Y-7851569D01*
X19911318Y-7851569D02*
X19939889Y-7851569D01*
X19939889Y-7851569D02*
X19958937Y-7861093D01*
X19958937Y-7861093D02*
X19968461Y-7880141D01*
X19968461Y-7880141D02*
X19968461Y-7984902D01*
X19968461Y-7880141D02*
X19977985Y-7861093D01*
X19977985Y-7861093D02*
X19997032Y-7851569D01*
X19997032Y-7851569D02*
X20025604Y-7851569D01*
X20025604Y-7851569D02*
X20044651Y-7861093D01*
X20044651Y-7861093D02*
X20054175Y-7880141D01*
X20054175Y-7880141D02*
X20054175Y-7984902D01*
X20444651Y-7775379D02*
X20273223Y-8032521D01*
X20701794Y-7784902D02*
X20720842Y-7784902D01*
X20720842Y-7784902D02*
X20739889Y-7794426D01*
X20739889Y-7794426D02*
X20749413Y-7803950D01*
X20749413Y-7803950D02*
X20758937Y-7822998D01*
X20758937Y-7822998D02*
X20768461Y-7861093D01*
X20768461Y-7861093D02*
X20768461Y-7908712D01*
X20768461Y-7908712D02*
X20758937Y-7946807D01*
X20758937Y-7946807D02*
X20749413Y-7965855D01*
X20749413Y-7965855D02*
X20739889Y-7975379D01*
X20739889Y-7975379D02*
X20720842Y-7984902D01*
X20720842Y-7984902D02*
X20701794Y-7984902D01*
X20701794Y-7984902D02*
X20682747Y-7975379D01*
X20682747Y-7975379D02*
X20673223Y-7965855D01*
X20673223Y-7965855D02*
X20663699Y-7946807D01*
X20663699Y-7946807D02*
X20654175Y-7908712D01*
X20654175Y-7908712D02*
X20654175Y-7861093D01*
X20654175Y-7861093D02*
X20663699Y-7822998D01*
X20663699Y-7822998D02*
X20673223Y-7803950D01*
X20673223Y-7803950D02*
X20682747Y-7794426D01*
X20682747Y-7794426D02*
X20701794Y-7784902D01*
X20854175Y-7965855D02*
X20863699Y-7975379D01*
X20863699Y-7975379D02*
X20854175Y-7984902D01*
X20854175Y-7984902D02*
X20844651Y-7975379D01*
X20844651Y-7975379D02*
X20854175Y-7965855D01*
X20854175Y-7965855D02*
X20854175Y-7984902D01*
X20987508Y-7784902D02*
X21006556Y-7784902D01*
X21006556Y-7784902D02*
X21025604Y-7794426D01*
X21025604Y-7794426D02*
X21035128Y-7803950D01*
X21035128Y-7803950D02*
X21044651Y-7822998D01*
X21044651Y-7822998D02*
X21054175Y-7861093D01*
X21054175Y-7861093D02*
X21054175Y-7908712D01*
X21054175Y-7908712D02*
X21044651Y-7946807D01*
X21044651Y-7946807D02*
X21035128Y-7965855D01*
X21035128Y-7965855D02*
X21025604Y-7975379D01*
X21025604Y-7975379D02*
X21006556Y-7984902D01*
X21006556Y-7984902D02*
X20987508Y-7984902D01*
X20987508Y-7984902D02*
X20968461Y-7975379D01*
X20968461Y-7975379D02*
X20958937Y-7965855D01*
X20958937Y-7965855D02*
X20949413Y-7946807D01*
X20949413Y-7946807D02*
X20939889Y-7908712D01*
X20939889Y-7908712D02*
X20939889Y-7861093D01*
X20939889Y-7861093D02*
X20949413Y-7822998D01*
X20949413Y-7822998D02*
X20958937Y-7803950D01*
X20958937Y-7803950D02*
X20968461Y-7794426D01*
X20968461Y-7794426D02*
X20987508Y-7784902D01*
X21177985Y-7784902D02*
X21197032Y-7784902D01*
X21197032Y-7784902D02*
X21216080Y-7794426D01*
X21216080Y-7794426D02*
X21225604Y-7803950D01*
X21225604Y-7803950D02*
X21235128Y-7822998D01*
X21235128Y-7822998D02*
X21244651Y-7861093D01*
X21244651Y-7861093D02*
X21244651Y-7908712D01*
X21244651Y-7908712D02*
X21235128Y-7946807D01*
X21235128Y-7946807D02*
X21225604Y-7965855D01*
X21225604Y-7965855D02*
X21216080Y-7975379D01*
X21216080Y-7975379D02*
X21197032Y-7984902D01*
X21197032Y-7984902D02*
X21177985Y-7984902D01*
X21177985Y-7984902D02*
X21158937Y-7975379D01*
X21158937Y-7975379D02*
X21149413Y-7965855D01*
X21149413Y-7965855D02*
X21139889Y-7946807D01*
X21139889Y-7946807D02*
X21130366Y-7908712D01*
X21130366Y-7908712D02*
X21130366Y-7861093D01*
X21130366Y-7861093D02*
X21139889Y-7822998D01*
X21139889Y-7822998D02*
X21149413Y-7803950D01*
X21149413Y-7803950D02*
X21158937Y-7794426D01*
X21158937Y-7794426D02*
X21177985Y-7784902D01*
X21358937Y-7870617D02*
X21339889Y-7861093D01*
X21339889Y-7861093D02*
X21330366Y-7851569D01*
X21330366Y-7851569D02*
X21320842Y-7832521D01*
X21320842Y-7832521D02*
X21320842Y-7822998D01*
X21320842Y-7822998D02*
X21330366Y-7803950D01*
X21330366Y-7803950D02*
X21339889Y-7794426D01*
X21339889Y-7794426D02*
X21358937Y-7784902D01*
X21358937Y-7784902D02*
X21397032Y-7784902D01*
X21397032Y-7784902D02*
X21416080Y-7794426D01*
X21416080Y-7794426D02*
X21425604Y-7803950D01*
X21425604Y-7803950D02*
X21435128Y-7822998D01*
X21435128Y-7822998D02*
X21435128Y-7832521D01*
X21435128Y-7832521D02*
X21425604Y-7851569D01*
X21425604Y-7851569D02*
X21416080Y-7861093D01*
X21416080Y-7861093D02*
X21397032Y-7870617D01*
X21397032Y-7870617D02*
X21358937Y-7870617D01*
X21358937Y-7870617D02*
X21339889Y-7880141D01*
X21339889Y-7880141D02*
X21330366Y-7889664D01*
X21330366Y-7889664D02*
X21320842Y-7908712D01*
X21320842Y-7908712D02*
X21320842Y-7946807D01*
X21320842Y-7946807D02*
X21330366Y-7965855D01*
X21330366Y-7965855D02*
X21339889Y-7975379D01*
X21339889Y-7975379D02*
X21358937Y-7984902D01*
X21358937Y-7984902D02*
X21397032Y-7984902D01*
X21397032Y-7984902D02*
X21416080Y-7975379D01*
X21416080Y-7975379D02*
X21425604Y-7965855D01*
X21425604Y-7965855D02*
X21435128Y-7946807D01*
X21435128Y-7946807D02*
X21435128Y-7908712D01*
X21435128Y-7908712D02*
X21425604Y-7889664D01*
X21425604Y-7889664D02*
X21416080Y-7880141D01*
X21416080Y-7880141D02*
X21397032Y-7870617D01*
X21501794Y-7784902D02*
X21635128Y-7784902D01*
X21635128Y-7784902D02*
X21549413Y-7984902D01*
X21701794Y-7784902D02*
X21701794Y-7822998D01*
X21777985Y-7784902D02*
X21777985Y-7822998D01*
X22073223Y-8061093D02*
X22063699Y-8051569D01*
X22063699Y-8051569D02*
X22044651Y-8022998D01*
X22044651Y-8022998D02*
X22035128Y-8003950D01*
X22035128Y-8003950D02*
X22025604Y-7975379D01*
X22025604Y-7975379D02*
X22016080Y-7927760D01*
X22016080Y-7927760D02*
X22016080Y-7889664D01*
X22016080Y-7889664D02*
X22025604Y-7842045D01*
X22025604Y-7842045D02*
X22035128Y-7813474D01*
X22035128Y-7813474D02*
X22044651Y-7794426D01*
X22044651Y-7794426D02*
X22063699Y-7765855D01*
X22063699Y-7765855D02*
X22073223Y-7756331D01*
X22235128Y-7851569D02*
X22235128Y-7984902D01*
X22187509Y-7775379D02*
X22139890Y-7918236D01*
X22139890Y-7918236D02*
X22263699Y-7918236D01*
X22377985Y-7784902D02*
X22397032Y-7784902D01*
X22397032Y-7784902D02*
X22416080Y-7794426D01*
X22416080Y-7794426D02*
X22425604Y-7803950D01*
X22425604Y-7803950D02*
X22435128Y-7822998D01*
X22435128Y-7822998D02*
X22444651Y-7861093D01*
X22444651Y-7861093D02*
X22444651Y-7908712D01*
X22444651Y-7908712D02*
X22435128Y-7946807D01*
X22435128Y-7946807D02*
X22425604Y-7965855D01*
X22425604Y-7965855D02*
X22416080Y-7975379D01*
X22416080Y-7975379D02*
X22397032Y-7984902D01*
X22397032Y-7984902D02*
X22377985Y-7984902D01*
X22377985Y-7984902D02*
X22358937Y-7975379D01*
X22358937Y-7975379D02*
X22349413Y-7965855D01*
X22349413Y-7965855D02*
X22339890Y-7946807D01*
X22339890Y-7946807D02*
X22330366Y-7908712D01*
X22330366Y-7908712D02*
X22330366Y-7861093D01*
X22330366Y-7861093D02*
X22339890Y-7822998D01*
X22339890Y-7822998D02*
X22349413Y-7803950D01*
X22349413Y-7803950D02*
X22358937Y-7794426D01*
X22358937Y-7794426D02*
X22377985Y-7784902D01*
X22682747Y-7984902D02*
X22682747Y-7784902D01*
X22768461Y-7984902D02*
X22768461Y-7880141D01*
X22768461Y-7880141D02*
X22758937Y-7861093D01*
X22758937Y-7861093D02*
X22739890Y-7851569D01*
X22739890Y-7851569D02*
X22711318Y-7851569D01*
X22711318Y-7851569D02*
X22692270Y-7861093D01*
X22692270Y-7861093D02*
X22682747Y-7870617D01*
X22892270Y-7984902D02*
X22873223Y-7975379D01*
X22873223Y-7975379D02*
X22863699Y-7965855D01*
X22863699Y-7965855D02*
X22854175Y-7946807D01*
X22854175Y-7946807D02*
X22854175Y-7889664D01*
X22854175Y-7889664D02*
X22863699Y-7870617D01*
X22863699Y-7870617D02*
X22873223Y-7861093D01*
X22873223Y-7861093D02*
X22892270Y-7851569D01*
X22892270Y-7851569D02*
X22920842Y-7851569D01*
X22920842Y-7851569D02*
X22939890Y-7861093D01*
X22939890Y-7861093D02*
X22949413Y-7870617D01*
X22949413Y-7870617D02*
X22958937Y-7889664D01*
X22958937Y-7889664D02*
X22958937Y-7946807D01*
X22958937Y-7946807D02*
X22949413Y-7965855D01*
X22949413Y-7965855D02*
X22939890Y-7975379D01*
X22939890Y-7975379D02*
X22920842Y-7984902D01*
X22920842Y-7984902D02*
X22892270Y-7984902D01*
X23073223Y-7984902D02*
X23054175Y-7975379D01*
X23054175Y-7975379D02*
X23044651Y-7956331D01*
X23044651Y-7956331D02*
X23044651Y-7784902D01*
X23225604Y-7975379D02*
X23206556Y-7984902D01*
X23206556Y-7984902D02*
X23168461Y-7984902D01*
X23168461Y-7984902D02*
X23149413Y-7975379D01*
X23149413Y-7975379D02*
X23139890Y-7956331D01*
X23139890Y-7956331D02*
X23139890Y-7880141D01*
X23139890Y-7880141D02*
X23149413Y-7861093D01*
X23149413Y-7861093D02*
X23168461Y-7851569D01*
X23168461Y-7851569D02*
X23206556Y-7851569D01*
X23206556Y-7851569D02*
X23225604Y-7861093D01*
X23225604Y-7861093D02*
X23235128Y-7880141D01*
X23235128Y-7880141D02*
X23235128Y-7899188D01*
X23235128Y-7899188D02*
X23139890Y-7918236D01*
X23311318Y-7975379D02*
X23330366Y-7984902D01*
X23330366Y-7984902D02*
X23368461Y-7984902D01*
X23368461Y-7984902D02*
X23387509Y-7975379D01*
X23387509Y-7975379D02*
X23397032Y-7956331D01*
X23397032Y-7956331D02*
X23397032Y-7946807D01*
X23397032Y-7946807D02*
X23387509Y-7927760D01*
X23387509Y-7927760D02*
X23368461Y-7918236D01*
X23368461Y-7918236D02*
X23339890Y-7918236D01*
X23339890Y-7918236D02*
X23320842Y-7908712D01*
X23320842Y-7908712D02*
X23311318Y-7889664D01*
X23311318Y-7889664D02*
X23311318Y-7880141D01*
X23311318Y-7880141D02*
X23320842Y-7861093D01*
X23320842Y-7861093D02*
X23339890Y-7851569D01*
X23339890Y-7851569D02*
X23368461Y-7851569D01*
X23368461Y-7851569D02*
X23387509Y-7861093D01*
X23463699Y-8061093D02*
X23473223Y-8051569D01*
X23473223Y-8051569D02*
X23492271Y-8022998D01*
X23492271Y-8022998D02*
X23501794Y-8003950D01*
X23501794Y-8003950D02*
X23511318Y-7975379D01*
X23511318Y-7975379D02*
X23520842Y-7927760D01*
X23520842Y-7927760D02*
X23520842Y-7889664D01*
X23520842Y-7889664D02*
X23511318Y-7842045D01*
X23511318Y-7842045D02*
X23501794Y-7813474D01*
X23501794Y-7813474D02*
X23492271Y-7794426D01*
X23492271Y-7794426D02*
X23473223Y-7765855D01*
X23473223Y-7765855D02*
X23463699Y-7756331D01*
D14*
X18496318Y-8141379D02*
X18496318Y-8171379D01*
X18481318Y-8156379D02*
X18511318Y-8156379D01*
D11*
X18797032Y-8048902D02*
X18816080Y-8048902D01*
X18816080Y-8048902D02*
X18835127Y-8058426D01*
X18835127Y-8058426D02*
X18844651Y-8067950D01*
X18844651Y-8067950D02*
X18854175Y-8086998D01*
X18854175Y-8086998D02*
X18863699Y-8125093D01*
X18863699Y-8125093D02*
X18863699Y-8172712D01*
X18863699Y-8172712D02*
X18854175Y-8210807D01*
X18854175Y-8210807D02*
X18844651Y-8229855D01*
X18844651Y-8229855D02*
X18835127Y-8239379D01*
X18835127Y-8239379D02*
X18816080Y-8248902D01*
X18816080Y-8248902D02*
X18797032Y-8248902D01*
X18797032Y-8248902D02*
X18777984Y-8239379D01*
X18777984Y-8239379D02*
X18768461Y-8229855D01*
X18768461Y-8229855D02*
X18758937Y-8210807D01*
X18758937Y-8210807D02*
X18749413Y-8172712D01*
X18749413Y-8172712D02*
X18749413Y-8125093D01*
X18749413Y-8125093D02*
X18758937Y-8086998D01*
X18758937Y-8086998D02*
X18768461Y-8067950D01*
X18768461Y-8067950D02*
X18777984Y-8058426D01*
X18777984Y-8058426D02*
X18797032Y-8048902D01*
X18949413Y-8229855D02*
X18958937Y-8239379D01*
X18958937Y-8239379D02*
X18949413Y-8248902D01*
X18949413Y-8248902D02*
X18939889Y-8239379D01*
X18939889Y-8239379D02*
X18949413Y-8229855D01*
X18949413Y-8229855D02*
X18949413Y-8248902D01*
X19025604Y-8048902D02*
X19149413Y-8048902D01*
X19149413Y-8048902D02*
X19082746Y-8125093D01*
X19082746Y-8125093D02*
X19111318Y-8125093D01*
X19111318Y-8125093D02*
X19130365Y-8134617D01*
X19130365Y-8134617D02*
X19139889Y-8144141D01*
X19139889Y-8144141D02*
X19149413Y-8163188D01*
X19149413Y-8163188D02*
X19149413Y-8210807D01*
X19149413Y-8210807D02*
X19139889Y-8229855D01*
X19139889Y-8229855D02*
X19130365Y-8239379D01*
X19130365Y-8239379D02*
X19111318Y-8248902D01*
X19111318Y-8248902D02*
X19054175Y-8248902D01*
X19054175Y-8248902D02*
X19035127Y-8239379D01*
X19035127Y-8239379D02*
X19025604Y-8229855D01*
X19273223Y-8048902D02*
X19292270Y-8048902D01*
X19292270Y-8048902D02*
X19311318Y-8058426D01*
X19311318Y-8058426D02*
X19320842Y-8067950D01*
X19320842Y-8067950D02*
X19330365Y-8086998D01*
X19330365Y-8086998D02*
X19339889Y-8125093D01*
X19339889Y-8125093D02*
X19339889Y-8172712D01*
X19339889Y-8172712D02*
X19330365Y-8210807D01*
X19330365Y-8210807D02*
X19320842Y-8229855D01*
X19320842Y-8229855D02*
X19311318Y-8239379D01*
X19311318Y-8239379D02*
X19292270Y-8248902D01*
X19292270Y-8248902D02*
X19273223Y-8248902D01*
X19273223Y-8248902D02*
X19254175Y-8239379D01*
X19254175Y-8239379D02*
X19244651Y-8229855D01*
X19244651Y-8229855D02*
X19235127Y-8210807D01*
X19235127Y-8210807D02*
X19225604Y-8172712D01*
X19225604Y-8172712D02*
X19225604Y-8125093D01*
X19225604Y-8125093D02*
X19235127Y-8086998D01*
X19235127Y-8086998D02*
X19244651Y-8067950D01*
X19244651Y-8067950D02*
X19254175Y-8058426D01*
X19254175Y-8058426D02*
X19273223Y-8048902D01*
X19463699Y-8048902D02*
X19482746Y-8048902D01*
X19482746Y-8048902D02*
X19501794Y-8058426D01*
X19501794Y-8058426D02*
X19511318Y-8067950D01*
X19511318Y-8067950D02*
X19520842Y-8086998D01*
X19520842Y-8086998D02*
X19530365Y-8125093D01*
X19530365Y-8125093D02*
X19530365Y-8172712D01*
X19530365Y-8172712D02*
X19520842Y-8210807D01*
X19520842Y-8210807D02*
X19511318Y-8229855D01*
X19511318Y-8229855D02*
X19501794Y-8239379D01*
X19501794Y-8239379D02*
X19482746Y-8248902D01*
X19482746Y-8248902D02*
X19463699Y-8248902D01*
X19463699Y-8248902D02*
X19444651Y-8239379D01*
X19444651Y-8239379D02*
X19435127Y-8229855D01*
X19435127Y-8229855D02*
X19425604Y-8210807D01*
X19425604Y-8210807D02*
X19416080Y-8172712D01*
X19416080Y-8172712D02*
X19416080Y-8125093D01*
X19416080Y-8125093D02*
X19425604Y-8086998D01*
X19425604Y-8086998D02*
X19435127Y-8067950D01*
X19435127Y-8067950D02*
X19444651Y-8058426D01*
X19444651Y-8058426D02*
X19463699Y-8048902D01*
X19616080Y-8248902D02*
X19616080Y-8115569D01*
X19616080Y-8134617D02*
X19625604Y-8125093D01*
X19625604Y-8125093D02*
X19644651Y-8115569D01*
X19644651Y-8115569D02*
X19673223Y-8115569D01*
X19673223Y-8115569D02*
X19692270Y-8125093D01*
X19692270Y-8125093D02*
X19701794Y-8144141D01*
X19701794Y-8144141D02*
X19701794Y-8248902D01*
X19701794Y-8144141D02*
X19711318Y-8125093D01*
X19711318Y-8125093D02*
X19730365Y-8115569D01*
X19730365Y-8115569D02*
X19758937Y-8115569D01*
X19758937Y-8115569D02*
X19777985Y-8125093D01*
X19777985Y-8125093D02*
X19787508Y-8144141D01*
X19787508Y-8144141D02*
X19787508Y-8248902D01*
X19882746Y-8248902D02*
X19882746Y-8115569D01*
X19882746Y-8134617D02*
X19892270Y-8125093D01*
X19892270Y-8125093D02*
X19911318Y-8115569D01*
X19911318Y-8115569D02*
X19939889Y-8115569D01*
X19939889Y-8115569D02*
X19958937Y-8125093D01*
X19958937Y-8125093D02*
X19968461Y-8144141D01*
X19968461Y-8144141D02*
X19968461Y-8248902D01*
X19968461Y-8144141D02*
X19977985Y-8125093D01*
X19977985Y-8125093D02*
X19997032Y-8115569D01*
X19997032Y-8115569D02*
X20025604Y-8115569D01*
X20025604Y-8115569D02*
X20044651Y-8125093D01*
X20044651Y-8125093D02*
X20054175Y-8144141D01*
X20054175Y-8144141D02*
X20054175Y-8248902D01*
X20444651Y-8039379D02*
X20273223Y-8296521D01*
X20701794Y-8048902D02*
X20720842Y-8048902D01*
X20720842Y-8048902D02*
X20739889Y-8058426D01*
X20739889Y-8058426D02*
X20749413Y-8067950D01*
X20749413Y-8067950D02*
X20758937Y-8086998D01*
X20758937Y-8086998D02*
X20768461Y-8125093D01*
X20768461Y-8125093D02*
X20768461Y-8172712D01*
X20768461Y-8172712D02*
X20758937Y-8210807D01*
X20758937Y-8210807D02*
X20749413Y-8229855D01*
X20749413Y-8229855D02*
X20739889Y-8239379D01*
X20739889Y-8239379D02*
X20720842Y-8248902D01*
X20720842Y-8248902D02*
X20701794Y-8248902D01*
X20701794Y-8248902D02*
X20682747Y-8239379D01*
X20682747Y-8239379D02*
X20673223Y-8229855D01*
X20673223Y-8229855D02*
X20663699Y-8210807D01*
X20663699Y-8210807D02*
X20654175Y-8172712D01*
X20654175Y-8172712D02*
X20654175Y-8125093D01*
X20654175Y-8125093D02*
X20663699Y-8086998D01*
X20663699Y-8086998D02*
X20673223Y-8067950D01*
X20673223Y-8067950D02*
X20682747Y-8058426D01*
X20682747Y-8058426D02*
X20701794Y-8048902D01*
X20854175Y-8229855D02*
X20863699Y-8239379D01*
X20863699Y-8239379D02*
X20854175Y-8248902D01*
X20854175Y-8248902D02*
X20844651Y-8239379D01*
X20844651Y-8239379D02*
X20854175Y-8229855D01*
X20854175Y-8229855D02*
X20854175Y-8248902D01*
X20987508Y-8048902D02*
X21006556Y-8048902D01*
X21006556Y-8048902D02*
X21025604Y-8058426D01*
X21025604Y-8058426D02*
X21035128Y-8067950D01*
X21035128Y-8067950D02*
X21044651Y-8086998D01*
X21044651Y-8086998D02*
X21054175Y-8125093D01*
X21054175Y-8125093D02*
X21054175Y-8172712D01*
X21054175Y-8172712D02*
X21044651Y-8210807D01*
X21044651Y-8210807D02*
X21035128Y-8229855D01*
X21035128Y-8229855D02*
X21025604Y-8239379D01*
X21025604Y-8239379D02*
X21006556Y-8248902D01*
X21006556Y-8248902D02*
X20987508Y-8248902D01*
X20987508Y-8248902D02*
X20968461Y-8239379D01*
X20968461Y-8239379D02*
X20958937Y-8229855D01*
X20958937Y-8229855D02*
X20949413Y-8210807D01*
X20949413Y-8210807D02*
X20939889Y-8172712D01*
X20939889Y-8172712D02*
X20939889Y-8125093D01*
X20939889Y-8125093D02*
X20949413Y-8086998D01*
X20949413Y-8086998D02*
X20958937Y-8067950D01*
X20958937Y-8067950D02*
X20968461Y-8058426D01*
X20968461Y-8058426D02*
X20987508Y-8048902D01*
X21244651Y-8248902D02*
X21130366Y-8248902D01*
X21187508Y-8248902D02*
X21187508Y-8048902D01*
X21187508Y-8048902D02*
X21168461Y-8077474D01*
X21168461Y-8077474D02*
X21149413Y-8096521D01*
X21149413Y-8096521D02*
X21130366Y-8106045D01*
X21435128Y-8248902D02*
X21320842Y-8248902D01*
X21377985Y-8248902D02*
X21377985Y-8048902D01*
X21377985Y-8048902D02*
X21358937Y-8077474D01*
X21358937Y-8077474D02*
X21339889Y-8096521D01*
X21339889Y-8096521D02*
X21320842Y-8106045D01*
X21549413Y-8134617D02*
X21530366Y-8125093D01*
X21530366Y-8125093D02*
X21520842Y-8115569D01*
X21520842Y-8115569D02*
X21511318Y-8096521D01*
X21511318Y-8096521D02*
X21511318Y-8086998D01*
X21511318Y-8086998D02*
X21520842Y-8067950D01*
X21520842Y-8067950D02*
X21530366Y-8058426D01*
X21530366Y-8058426D02*
X21549413Y-8048902D01*
X21549413Y-8048902D02*
X21587509Y-8048902D01*
X21587509Y-8048902D02*
X21606556Y-8058426D01*
X21606556Y-8058426D02*
X21616080Y-8067950D01*
X21616080Y-8067950D02*
X21625604Y-8086998D01*
X21625604Y-8086998D02*
X21625604Y-8096521D01*
X21625604Y-8096521D02*
X21616080Y-8115569D01*
X21616080Y-8115569D02*
X21606556Y-8125093D01*
X21606556Y-8125093D02*
X21587509Y-8134617D01*
X21587509Y-8134617D02*
X21549413Y-8134617D01*
X21549413Y-8134617D02*
X21530366Y-8144141D01*
X21530366Y-8144141D02*
X21520842Y-8153664D01*
X21520842Y-8153664D02*
X21511318Y-8172712D01*
X21511318Y-8172712D02*
X21511318Y-8210807D01*
X21511318Y-8210807D02*
X21520842Y-8229855D01*
X21520842Y-8229855D02*
X21530366Y-8239379D01*
X21530366Y-8239379D02*
X21549413Y-8248902D01*
X21549413Y-8248902D02*
X21587509Y-8248902D01*
X21587509Y-8248902D02*
X21606556Y-8239379D01*
X21606556Y-8239379D02*
X21616080Y-8229855D01*
X21616080Y-8229855D02*
X21625604Y-8210807D01*
X21625604Y-8210807D02*
X21625604Y-8172712D01*
X21625604Y-8172712D02*
X21616080Y-8153664D01*
X21616080Y-8153664D02*
X21606556Y-8144141D01*
X21606556Y-8144141D02*
X21587509Y-8134617D01*
X21701794Y-8048902D02*
X21701794Y-8086998D01*
X21777985Y-8048902D02*
X21777985Y-8086998D01*
X22073223Y-8325093D02*
X22063699Y-8315569D01*
X22063699Y-8315569D02*
X22044651Y-8286998D01*
X22044651Y-8286998D02*
X22035128Y-8267950D01*
X22035128Y-8267950D02*
X22025604Y-8239379D01*
X22025604Y-8239379D02*
X22016080Y-8191760D01*
X22016080Y-8191760D02*
X22016080Y-8153664D01*
X22016080Y-8153664D02*
X22025604Y-8106045D01*
X22025604Y-8106045D02*
X22035128Y-8077474D01*
X22035128Y-8077474D02*
X22044651Y-8058426D01*
X22044651Y-8058426D02*
X22063699Y-8029855D01*
X22063699Y-8029855D02*
X22073223Y-8020331D01*
X22139890Y-8067950D02*
X22149413Y-8058426D01*
X22149413Y-8058426D02*
X22168461Y-8048902D01*
X22168461Y-8048902D02*
X22216080Y-8048902D01*
X22216080Y-8048902D02*
X22235128Y-8058426D01*
X22235128Y-8058426D02*
X22244651Y-8067950D01*
X22244651Y-8067950D02*
X22254175Y-8086998D01*
X22254175Y-8086998D02*
X22254175Y-8106045D01*
X22254175Y-8106045D02*
X22244651Y-8134617D01*
X22244651Y-8134617D02*
X22130366Y-8248902D01*
X22130366Y-8248902D02*
X22254175Y-8248902D01*
X22425604Y-8048902D02*
X22387508Y-8048902D01*
X22387508Y-8048902D02*
X22368461Y-8058426D01*
X22368461Y-8058426D02*
X22358937Y-8067950D01*
X22358937Y-8067950D02*
X22339890Y-8096521D01*
X22339890Y-8096521D02*
X22330366Y-8134617D01*
X22330366Y-8134617D02*
X22330366Y-8210807D01*
X22330366Y-8210807D02*
X22339890Y-8229855D01*
X22339890Y-8229855D02*
X22349413Y-8239379D01*
X22349413Y-8239379D02*
X22368461Y-8248902D01*
X22368461Y-8248902D02*
X22406556Y-8248902D01*
X22406556Y-8248902D02*
X22425604Y-8239379D01*
X22425604Y-8239379D02*
X22435128Y-8229855D01*
X22435128Y-8229855D02*
X22444651Y-8210807D01*
X22444651Y-8210807D02*
X22444651Y-8163188D01*
X22444651Y-8163188D02*
X22435128Y-8144141D01*
X22435128Y-8144141D02*
X22425604Y-8134617D01*
X22425604Y-8134617D02*
X22406556Y-8125093D01*
X22406556Y-8125093D02*
X22368461Y-8125093D01*
X22368461Y-8125093D02*
X22349413Y-8134617D01*
X22349413Y-8134617D02*
X22339890Y-8144141D01*
X22339890Y-8144141D02*
X22330366Y-8163188D01*
X22511318Y-8048902D02*
X22644651Y-8048902D01*
X22644651Y-8048902D02*
X22558937Y-8248902D01*
X22873223Y-8248902D02*
X22873223Y-8048902D01*
X22958937Y-8248902D02*
X22958937Y-8144141D01*
X22958937Y-8144141D02*
X22949413Y-8125093D01*
X22949413Y-8125093D02*
X22930366Y-8115569D01*
X22930366Y-8115569D02*
X22901794Y-8115569D01*
X22901794Y-8115569D02*
X22882747Y-8125093D01*
X22882747Y-8125093D02*
X22873223Y-8134617D01*
X23082747Y-8248902D02*
X23063699Y-8239379D01*
X23063699Y-8239379D02*
X23054175Y-8229855D01*
X23054175Y-8229855D02*
X23044651Y-8210807D01*
X23044651Y-8210807D02*
X23044651Y-8153664D01*
X23044651Y-8153664D02*
X23054175Y-8134617D01*
X23054175Y-8134617D02*
X23063699Y-8125093D01*
X23063699Y-8125093D02*
X23082747Y-8115569D01*
X23082747Y-8115569D02*
X23111318Y-8115569D01*
X23111318Y-8115569D02*
X23130366Y-8125093D01*
X23130366Y-8125093D02*
X23139890Y-8134617D01*
X23139890Y-8134617D02*
X23149413Y-8153664D01*
X23149413Y-8153664D02*
X23149413Y-8210807D01*
X23149413Y-8210807D02*
X23139890Y-8229855D01*
X23139890Y-8229855D02*
X23130366Y-8239379D01*
X23130366Y-8239379D02*
X23111318Y-8248902D01*
X23111318Y-8248902D02*
X23082747Y-8248902D01*
X23263699Y-8248902D02*
X23244651Y-8239379D01*
X23244651Y-8239379D02*
X23235128Y-8220331D01*
X23235128Y-8220331D02*
X23235128Y-8048902D01*
X23416080Y-8239379D02*
X23397032Y-8248902D01*
X23397032Y-8248902D02*
X23358937Y-8248902D01*
X23358937Y-8248902D02*
X23339890Y-8239379D01*
X23339890Y-8239379D02*
X23330366Y-8220331D01*
X23330366Y-8220331D02*
X23330366Y-8144141D01*
X23330366Y-8144141D02*
X23339890Y-8125093D01*
X23339890Y-8125093D02*
X23358937Y-8115569D01*
X23358937Y-8115569D02*
X23397032Y-8115569D01*
X23397032Y-8115569D02*
X23416080Y-8125093D01*
X23416080Y-8125093D02*
X23425604Y-8144141D01*
X23425604Y-8144141D02*
X23425604Y-8163188D01*
X23425604Y-8163188D02*
X23330366Y-8182236D01*
X23501794Y-8239379D02*
X23520842Y-8248902D01*
X23520842Y-8248902D02*
X23558937Y-8248902D01*
X23558937Y-8248902D02*
X23577985Y-8239379D01*
X23577985Y-8239379D02*
X23587509Y-8220331D01*
X23587509Y-8220331D02*
X23587509Y-8210807D01*
X23587509Y-8210807D02*
X23577985Y-8191760D01*
X23577985Y-8191760D02*
X23558937Y-8182236D01*
X23558937Y-8182236D02*
X23530366Y-8182236D01*
X23530366Y-8182236D02*
X23511318Y-8172712D01*
X23511318Y-8172712D02*
X23501794Y-8153664D01*
X23501794Y-8153664D02*
X23501794Y-8144141D01*
X23501794Y-8144141D02*
X23511318Y-8125093D01*
X23511318Y-8125093D02*
X23530366Y-8115569D01*
X23530366Y-8115569D02*
X23558937Y-8115569D01*
X23558937Y-8115569D02*
X23577985Y-8125093D01*
X23654175Y-8325093D02*
X23663699Y-8315569D01*
X23663699Y-8315569D02*
X23682747Y-8286998D01*
X23682747Y-8286998D02*
X23692271Y-8267950D01*
X23692271Y-8267950D02*
X23701794Y-8239379D01*
X23701794Y-8239379D02*
X23711318Y-8191760D01*
X23711318Y-8191760D02*
X23711318Y-8153664D01*
X23711318Y-8153664D02*
X23701794Y-8106045D01*
X23701794Y-8106045D02*
X23692271Y-8077474D01*
X23692271Y-8077474D02*
X23682747Y-8058426D01*
X23682747Y-8058426D02*
X23663699Y-8029855D01*
X23663699Y-8029855D02*
X23654175Y-8020331D01*
D15*
X18500335Y-8446896D02*
X18500335Y-8393862D01*
X18447301Y-8393862D01*
X18447301Y-8446896D01*
X18500335Y-8446896D01*
D11*
X18797032Y-8312902D02*
X18816080Y-8312902D01*
X18816080Y-8312902D02*
X18835127Y-8322426D01*
X18835127Y-8322426D02*
X18844651Y-8331950D01*
X18844651Y-8331950D02*
X18854175Y-8350998D01*
X18854175Y-8350998D02*
X18863699Y-8389093D01*
X18863699Y-8389093D02*
X18863699Y-8436712D01*
X18863699Y-8436712D02*
X18854175Y-8474807D01*
X18854175Y-8474807D02*
X18844651Y-8493855D01*
X18844651Y-8493855D02*
X18835127Y-8503379D01*
X18835127Y-8503379D02*
X18816080Y-8512903D01*
X18816080Y-8512903D02*
X18797032Y-8512903D01*
X18797032Y-8512903D02*
X18777984Y-8503379D01*
X18777984Y-8503379D02*
X18768461Y-8493855D01*
X18768461Y-8493855D02*
X18758937Y-8474807D01*
X18758937Y-8474807D02*
X18749413Y-8436712D01*
X18749413Y-8436712D02*
X18749413Y-8389093D01*
X18749413Y-8389093D02*
X18758937Y-8350998D01*
X18758937Y-8350998D02*
X18768461Y-8331950D01*
X18768461Y-8331950D02*
X18777984Y-8322426D01*
X18777984Y-8322426D02*
X18797032Y-8312902D01*
X18949413Y-8493855D02*
X18958937Y-8503379D01*
X18958937Y-8503379D02*
X18949413Y-8512903D01*
X18949413Y-8512903D02*
X18939889Y-8503379D01*
X18939889Y-8503379D02*
X18949413Y-8493855D01*
X18949413Y-8493855D02*
X18949413Y-8512903D01*
X19025604Y-8312902D02*
X19158937Y-8312902D01*
X19158937Y-8312902D02*
X19073223Y-8512903D01*
X19330365Y-8312902D02*
X19235127Y-8312902D01*
X19235127Y-8312902D02*
X19225604Y-8408141D01*
X19225604Y-8408141D02*
X19235127Y-8398617D01*
X19235127Y-8398617D02*
X19254175Y-8389093D01*
X19254175Y-8389093D02*
X19301794Y-8389093D01*
X19301794Y-8389093D02*
X19320842Y-8398617D01*
X19320842Y-8398617D02*
X19330365Y-8408141D01*
X19330365Y-8408141D02*
X19339889Y-8427188D01*
X19339889Y-8427188D02*
X19339889Y-8474807D01*
X19339889Y-8474807D02*
X19330365Y-8493855D01*
X19330365Y-8493855D02*
X19320842Y-8503379D01*
X19320842Y-8503379D02*
X19301794Y-8512903D01*
X19301794Y-8512903D02*
X19254175Y-8512903D01*
X19254175Y-8512903D02*
X19235127Y-8503379D01*
X19235127Y-8503379D02*
X19225604Y-8493855D01*
X19463699Y-8312902D02*
X19482746Y-8312902D01*
X19482746Y-8312902D02*
X19501794Y-8322426D01*
X19501794Y-8322426D02*
X19511318Y-8331950D01*
X19511318Y-8331950D02*
X19520842Y-8350998D01*
X19520842Y-8350998D02*
X19530365Y-8389093D01*
X19530365Y-8389093D02*
X19530365Y-8436712D01*
X19530365Y-8436712D02*
X19520842Y-8474807D01*
X19520842Y-8474807D02*
X19511318Y-8493855D01*
X19511318Y-8493855D02*
X19501794Y-8503379D01*
X19501794Y-8503379D02*
X19482746Y-8512903D01*
X19482746Y-8512903D02*
X19463699Y-8512903D01*
X19463699Y-8512903D02*
X19444651Y-8503379D01*
X19444651Y-8503379D02*
X19435127Y-8493855D01*
X19435127Y-8493855D02*
X19425604Y-8474807D01*
X19425604Y-8474807D02*
X19416080Y-8436712D01*
X19416080Y-8436712D02*
X19416080Y-8389093D01*
X19416080Y-8389093D02*
X19425604Y-8350998D01*
X19425604Y-8350998D02*
X19435127Y-8331950D01*
X19435127Y-8331950D02*
X19444651Y-8322426D01*
X19444651Y-8322426D02*
X19463699Y-8312902D01*
X19616080Y-8512903D02*
X19616080Y-8379569D01*
X19616080Y-8398617D02*
X19625604Y-8389093D01*
X19625604Y-8389093D02*
X19644651Y-8379569D01*
X19644651Y-8379569D02*
X19673223Y-8379569D01*
X19673223Y-8379569D02*
X19692270Y-8389093D01*
X19692270Y-8389093D02*
X19701794Y-8408141D01*
X19701794Y-8408141D02*
X19701794Y-8512903D01*
X19701794Y-8408141D02*
X19711318Y-8389093D01*
X19711318Y-8389093D02*
X19730365Y-8379569D01*
X19730365Y-8379569D02*
X19758937Y-8379569D01*
X19758937Y-8379569D02*
X19777985Y-8389093D01*
X19777985Y-8389093D02*
X19787508Y-8408141D01*
X19787508Y-8408141D02*
X19787508Y-8512903D01*
X19882746Y-8512903D02*
X19882746Y-8379569D01*
X19882746Y-8398617D02*
X19892270Y-8389093D01*
X19892270Y-8389093D02*
X19911318Y-8379569D01*
X19911318Y-8379569D02*
X19939889Y-8379569D01*
X19939889Y-8379569D02*
X19958937Y-8389093D01*
X19958937Y-8389093D02*
X19968461Y-8408141D01*
X19968461Y-8408141D02*
X19968461Y-8512903D01*
X19968461Y-8408141D02*
X19977985Y-8389093D01*
X19977985Y-8389093D02*
X19997032Y-8379569D01*
X19997032Y-8379569D02*
X20025604Y-8379569D01*
X20025604Y-8379569D02*
X20044651Y-8389093D01*
X20044651Y-8389093D02*
X20054175Y-8408141D01*
X20054175Y-8408141D02*
X20054175Y-8512903D01*
X20444651Y-8303379D02*
X20273223Y-8560522D01*
X20701794Y-8312902D02*
X20720842Y-8312902D01*
X20720842Y-8312902D02*
X20739889Y-8322426D01*
X20739889Y-8322426D02*
X20749413Y-8331950D01*
X20749413Y-8331950D02*
X20758937Y-8350998D01*
X20758937Y-8350998D02*
X20768461Y-8389093D01*
X20768461Y-8389093D02*
X20768461Y-8436712D01*
X20768461Y-8436712D02*
X20758937Y-8474807D01*
X20758937Y-8474807D02*
X20749413Y-8493855D01*
X20749413Y-8493855D02*
X20739889Y-8503379D01*
X20739889Y-8503379D02*
X20720842Y-8512903D01*
X20720842Y-8512903D02*
X20701794Y-8512903D01*
X20701794Y-8512903D02*
X20682747Y-8503379D01*
X20682747Y-8503379D02*
X20673223Y-8493855D01*
X20673223Y-8493855D02*
X20663699Y-8474807D01*
X20663699Y-8474807D02*
X20654175Y-8436712D01*
X20654175Y-8436712D02*
X20654175Y-8389093D01*
X20654175Y-8389093D02*
X20663699Y-8350998D01*
X20663699Y-8350998D02*
X20673223Y-8331950D01*
X20673223Y-8331950D02*
X20682747Y-8322426D01*
X20682747Y-8322426D02*
X20701794Y-8312902D01*
X20854175Y-8493855D02*
X20863699Y-8503379D01*
X20863699Y-8503379D02*
X20854175Y-8512903D01*
X20854175Y-8512903D02*
X20844651Y-8503379D01*
X20844651Y-8503379D02*
X20854175Y-8493855D01*
X20854175Y-8493855D02*
X20854175Y-8512903D01*
X20987508Y-8312902D02*
X21006556Y-8312902D01*
X21006556Y-8312902D02*
X21025604Y-8322426D01*
X21025604Y-8322426D02*
X21035128Y-8331950D01*
X21035128Y-8331950D02*
X21044651Y-8350998D01*
X21044651Y-8350998D02*
X21054175Y-8389093D01*
X21054175Y-8389093D02*
X21054175Y-8436712D01*
X21054175Y-8436712D02*
X21044651Y-8474807D01*
X21044651Y-8474807D02*
X21035128Y-8493855D01*
X21035128Y-8493855D02*
X21025604Y-8503379D01*
X21025604Y-8503379D02*
X21006556Y-8512903D01*
X21006556Y-8512903D02*
X20987508Y-8512903D01*
X20987508Y-8512903D02*
X20968461Y-8503379D01*
X20968461Y-8503379D02*
X20958937Y-8493855D01*
X20958937Y-8493855D02*
X20949413Y-8474807D01*
X20949413Y-8474807D02*
X20939889Y-8436712D01*
X20939889Y-8436712D02*
X20939889Y-8389093D01*
X20939889Y-8389093D02*
X20949413Y-8350998D01*
X20949413Y-8350998D02*
X20958937Y-8331950D01*
X20958937Y-8331950D02*
X20968461Y-8322426D01*
X20968461Y-8322426D02*
X20987508Y-8312902D01*
X21130366Y-8331950D02*
X21139889Y-8322426D01*
X21139889Y-8322426D02*
X21158937Y-8312902D01*
X21158937Y-8312902D02*
X21206556Y-8312902D01*
X21206556Y-8312902D02*
X21225604Y-8322426D01*
X21225604Y-8322426D02*
X21235128Y-8331950D01*
X21235128Y-8331950D02*
X21244651Y-8350998D01*
X21244651Y-8350998D02*
X21244651Y-8370045D01*
X21244651Y-8370045D02*
X21235128Y-8398617D01*
X21235128Y-8398617D02*
X21120842Y-8512903D01*
X21120842Y-8512903D02*
X21244651Y-8512903D01*
X21339889Y-8512903D02*
X21377985Y-8512903D01*
X21377985Y-8512903D02*
X21397032Y-8503379D01*
X21397032Y-8503379D02*
X21406556Y-8493855D01*
X21406556Y-8493855D02*
X21425604Y-8465283D01*
X21425604Y-8465283D02*
X21435128Y-8427188D01*
X21435128Y-8427188D02*
X21435128Y-8350998D01*
X21435128Y-8350998D02*
X21425604Y-8331950D01*
X21425604Y-8331950D02*
X21416080Y-8322426D01*
X21416080Y-8322426D02*
X21397032Y-8312902D01*
X21397032Y-8312902D02*
X21358937Y-8312902D01*
X21358937Y-8312902D02*
X21339889Y-8322426D01*
X21339889Y-8322426D02*
X21330366Y-8331950D01*
X21330366Y-8331950D02*
X21320842Y-8350998D01*
X21320842Y-8350998D02*
X21320842Y-8398617D01*
X21320842Y-8398617D02*
X21330366Y-8417664D01*
X21330366Y-8417664D02*
X21339889Y-8427188D01*
X21339889Y-8427188D02*
X21358937Y-8436712D01*
X21358937Y-8436712D02*
X21397032Y-8436712D01*
X21397032Y-8436712D02*
X21416080Y-8427188D01*
X21416080Y-8427188D02*
X21425604Y-8417664D01*
X21425604Y-8417664D02*
X21435128Y-8398617D01*
X21616080Y-8312902D02*
X21520842Y-8312902D01*
X21520842Y-8312902D02*
X21511318Y-8408141D01*
X21511318Y-8408141D02*
X21520842Y-8398617D01*
X21520842Y-8398617D02*
X21539889Y-8389093D01*
X21539889Y-8389093D02*
X21587509Y-8389093D01*
X21587509Y-8389093D02*
X21606556Y-8398617D01*
X21606556Y-8398617D02*
X21616080Y-8408141D01*
X21616080Y-8408141D02*
X21625604Y-8427188D01*
X21625604Y-8427188D02*
X21625604Y-8474807D01*
X21625604Y-8474807D02*
X21616080Y-8493855D01*
X21616080Y-8493855D02*
X21606556Y-8503379D01*
X21606556Y-8503379D02*
X21587509Y-8512903D01*
X21587509Y-8512903D02*
X21539889Y-8512903D01*
X21539889Y-8512903D02*
X21520842Y-8503379D01*
X21520842Y-8503379D02*
X21511318Y-8493855D01*
X21701794Y-8312902D02*
X21701794Y-8350998D01*
X21777985Y-8312902D02*
X21777985Y-8350998D01*
X22073223Y-8589093D02*
X22063699Y-8579569D01*
X22063699Y-8579569D02*
X22044651Y-8550998D01*
X22044651Y-8550998D02*
X22035128Y-8531950D01*
X22035128Y-8531950D02*
X22025604Y-8503379D01*
X22025604Y-8503379D02*
X22016080Y-8455760D01*
X22016080Y-8455760D02*
X22016080Y-8417664D01*
X22016080Y-8417664D02*
X22025604Y-8370045D01*
X22025604Y-8370045D02*
X22035128Y-8341474D01*
X22035128Y-8341474D02*
X22044651Y-8322426D01*
X22044651Y-8322426D02*
X22063699Y-8293855D01*
X22063699Y-8293855D02*
X22073223Y-8284331D01*
X22254175Y-8512903D02*
X22139890Y-8512903D01*
X22197032Y-8512903D02*
X22197032Y-8312902D01*
X22197032Y-8312902D02*
X22177985Y-8341474D01*
X22177985Y-8341474D02*
X22158937Y-8360521D01*
X22158937Y-8360521D02*
X22139890Y-8370045D01*
X22425604Y-8312902D02*
X22387508Y-8312902D01*
X22387508Y-8312902D02*
X22368461Y-8322426D01*
X22368461Y-8322426D02*
X22358937Y-8331950D01*
X22358937Y-8331950D02*
X22339890Y-8360521D01*
X22339890Y-8360521D02*
X22330366Y-8398617D01*
X22330366Y-8398617D02*
X22330366Y-8474807D01*
X22330366Y-8474807D02*
X22339890Y-8493855D01*
X22339890Y-8493855D02*
X22349413Y-8503379D01*
X22349413Y-8503379D02*
X22368461Y-8512903D01*
X22368461Y-8512903D02*
X22406556Y-8512903D01*
X22406556Y-8512903D02*
X22425604Y-8503379D01*
X22425604Y-8503379D02*
X22435128Y-8493855D01*
X22435128Y-8493855D02*
X22444651Y-8474807D01*
X22444651Y-8474807D02*
X22444651Y-8427188D01*
X22444651Y-8427188D02*
X22435128Y-8408141D01*
X22435128Y-8408141D02*
X22425604Y-8398617D01*
X22425604Y-8398617D02*
X22406556Y-8389093D01*
X22406556Y-8389093D02*
X22368461Y-8389093D01*
X22368461Y-8389093D02*
X22349413Y-8398617D01*
X22349413Y-8398617D02*
X22339890Y-8408141D01*
X22339890Y-8408141D02*
X22330366Y-8427188D01*
X22682747Y-8512903D02*
X22682747Y-8312902D01*
X22768461Y-8512903D02*
X22768461Y-8408141D01*
X22768461Y-8408141D02*
X22758937Y-8389093D01*
X22758937Y-8389093D02*
X22739890Y-8379569D01*
X22739890Y-8379569D02*
X22711318Y-8379569D01*
X22711318Y-8379569D02*
X22692270Y-8389093D01*
X22692270Y-8389093D02*
X22682747Y-8398617D01*
X22892270Y-8512903D02*
X22873223Y-8503379D01*
X22873223Y-8503379D02*
X22863699Y-8493855D01*
X22863699Y-8493855D02*
X22854175Y-8474807D01*
X22854175Y-8474807D02*
X22854175Y-8417664D01*
X22854175Y-8417664D02*
X22863699Y-8398617D01*
X22863699Y-8398617D02*
X22873223Y-8389093D01*
X22873223Y-8389093D02*
X22892270Y-8379569D01*
X22892270Y-8379569D02*
X22920842Y-8379569D01*
X22920842Y-8379569D02*
X22939890Y-8389093D01*
X22939890Y-8389093D02*
X22949413Y-8398617D01*
X22949413Y-8398617D02*
X22958937Y-8417664D01*
X22958937Y-8417664D02*
X22958937Y-8474807D01*
X22958937Y-8474807D02*
X22949413Y-8493855D01*
X22949413Y-8493855D02*
X22939890Y-8503379D01*
X22939890Y-8503379D02*
X22920842Y-8512903D01*
X22920842Y-8512903D02*
X22892270Y-8512903D01*
X23073223Y-8512903D02*
X23054175Y-8503379D01*
X23054175Y-8503379D02*
X23044651Y-8484331D01*
X23044651Y-8484331D02*
X23044651Y-8312902D01*
X23225604Y-8503379D02*
X23206556Y-8512903D01*
X23206556Y-8512903D02*
X23168461Y-8512903D01*
X23168461Y-8512903D02*
X23149413Y-8503379D01*
X23149413Y-8503379D02*
X23139890Y-8484331D01*
X23139890Y-8484331D02*
X23139890Y-8408141D01*
X23139890Y-8408141D02*
X23149413Y-8389093D01*
X23149413Y-8389093D02*
X23168461Y-8379569D01*
X23168461Y-8379569D02*
X23206556Y-8379569D01*
X23206556Y-8379569D02*
X23225604Y-8389093D01*
X23225604Y-8389093D02*
X23235128Y-8408141D01*
X23235128Y-8408141D02*
X23235128Y-8427188D01*
X23235128Y-8427188D02*
X23139890Y-8446236D01*
X23311318Y-8503379D02*
X23330366Y-8512903D01*
X23330366Y-8512903D02*
X23368461Y-8512903D01*
X23368461Y-8512903D02*
X23387509Y-8503379D01*
X23387509Y-8503379D02*
X23397032Y-8484331D01*
X23397032Y-8484331D02*
X23397032Y-8474807D01*
X23397032Y-8474807D02*
X23387509Y-8455760D01*
X23387509Y-8455760D02*
X23368461Y-8446236D01*
X23368461Y-8446236D02*
X23339890Y-8446236D01*
X23339890Y-8446236D02*
X23320842Y-8436712D01*
X23320842Y-8436712D02*
X23311318Y-8417664D01*
X23311318Y-8417664D02*
X23311318Y-8408141D01*
X23311318Y-8408141D02*
X23320842Y-8389093D01*
X23320842Y-8389093D02*
X23339890Y-8379569D01*
X23339890Y-8379569D02*
X23368461Y-8379569D01*
X23368461Y-8379569D02*
X23387509Y-8389093D01*
X23463699Y-8589093D02*
X23473223Y-8579569D01*
X23473223Y-8579569D02*
X23492271Y-8550998D01*
X23492271Y-8550998D02*
X23501794Y-8531950D01*
X23501794Y-8531950D02*
X23511318Y-8503379D01*
X23511318Y-8503379D02*
X23520842Y-8455760D01*
X23520842Y-8455760D02*
X23520842Y-8417664D01*
X23520842Y-8417664D02*
X23511318Y-8370045D01*
X23511318Y-8370045D02*
X23501794Y-8341474D01*
X23501794Y-8341474D02*
X23492271Y-8322426D01*
X23492271Y-8322426D02*
X23473223Y-8293855D01*
X23473223Y-8293855D02*
X23463699Y-8284331D01*
D16*
X18471318Y-8724379D02*
X18511318Y-8684379D01*
X18471318Y-8644379D01*
X18431318Y-8684379D01*
X18471318Y-8724379D01*
D11*
X18797032Y-8576903D02*
X18816080Y-8576903D01*
X18816080Y-8576903D02*
X18835127Y-8586426D01*
X18835127Y-8586426D02*
X18844651Y-8595950D01*
X18844651Y-8595950D02*
X18854175Y-8614998D01*
X18854175Y-8614998D02*
X18863699Y-8653093D01*
X18863699Y-8653093D02*
X18863699Y-8700712D01*
X18863699Y-8700712D02*
X18854175Y-8738807D01*
X18854175Y-8738807D02*
X18844651Y-8757855D01*
X18844651Y-8757855D02*
X18835127Y-8767379D01*
X18835127Y-8767379D02*
X18816080Y-8776903D01*
X18816080Y-8776903D02*
X18797032Y-8776903D01*
X18797032Y-8776903D02*
X18777984Y-8767379D01*
X18777984Y-8767379D02*
X18768461Y-8757855D01*
X18768461Y-8757855D02*
X18758937Y-8738807D01*
X18758937Y-8738807D02*
X18749413Y-8700712D01*
X18749413Y-8700712D02*
X18749413Y-8653093D01*
X18749413Y-8653093D02*
X18758937Y-8614998D01*
X18758937Y-8614998D02*
X18768461Y-8595950D01*
X18768461Y-8595950D02*
X18777984Y-8586426D01*
X18777984Y-8586426D02*
X18797032Y-8576903D01*
X18949413Y-8757855D02*
X18958937Y-8767379D01*
X18958937Y-8767379D02*
X18949413Y-8776903D01*
X18949413Y-8776903D02*
X18939889Y-8767379D01*
X18939889Y-8767379D02*
X18949413Y-8757855D01*
X18949413Y-8757855D02*
X18949413Y-8776903D01*
X19073223Y-8662617D02*
X19054175Y-8653093D01*
X19054175Y-8653093D02*
X19044651Y-8643569D01*
X19044651Y-8643569D02*
X19035127Y-8624522D01*
X19035127Y-8624522D02*
X19035127Y-8614998D01*
X19035127Y-8614998D02*
X19044651Y-8595950D01*
X19044651Y-8595950D02*
X19054175Y-8586426D01*
X19054175Y-8586426D02*
X19073223Y-8576903D01*
X19073223Y-8576903D02*
X19111318Y-8576903D01*
X19111318Y-8576903D02*
X19130365Y-8586426D01*
X19130365Y-8586426D02*
X19139889Y-8595950D01*
X19139889Y-8595950D02*
X19149413Y-8614998D01*
X19149413Y-8614998D02*
X19149413Y-8624522D01*
X19149413Y-8624522D02*
X19139889Y-8643569D01*
X19139889Y-8643569D02*
X19130365Y-8653093D01*
X19130365Y-8653093D02*
X19111318Y-8662617D01*
X19111318Y-8662617D02*
X19073223Y-8662617D01*
X19073223Y-8662617D02*
X19054175Y-8672141D01*
X19054175Y-8672141D02*
X19044651Y-8681664D01*
X19044651Y-8681664D02*
X19035127Y-8700712D01*
X19035127Y-8700712D02*
X19035127Y-8738807D01*
X19035127Y-8738807D02*
X19044651Y-8757855D01*
X19044651Y-8757855D02*
X19054175Y-8767379D01*
X19054175Y-8767379D02*
X19073223Y-8776903D01*
X19073223Y-8776903D02*
X19111318Y-8776903D01*
X19111318Y-8776903D02*
X19130365Y-8767379D01*
X19130365Y-8767379D02*
X19139889Y-8757855D01*
X19139889Y-8757855D02*
X19149413Y-8738807D01*
X19149413Y-8738807D02*
X19149413Y-8700712D01*
X19149413Y-8700712D02*
X19139889Y-8681664D01*
X19139889Y-8681664D02*
X19130365Y-8672141D01*
X19130365Y-8672141D02*
X19111318Y-8662617D01*
X19273223Y-8576903D02*
X19292270Y-8576903D01*
X19292270Y-8576903D02*
X19311318Y-8586426D01*
X19311318Y-8586426D02*
X19320842Y-8595950D01*
X19320842Y-8595950D02*
X19330365Y-8614998D01*
X19330365Y-8614998D02*
X19339889Y-8653093D01*
X19339889Y-8653093D02*
X19339889Y-8700712D01*
X19339889Y-8700712D02*
X19330365Y-8738807D01*
X19330365Y-8738807D02*
X19320842Y-8757855D01*
X19320842Y-8757855D02*
X19311318Y-8767379D01*
X19311318Y-8767379D02*
X19292270Y-8776903D01*
X19292270Y-8776903D02*
X19273223Y-8776903D01*
X19273223Y-8776903D02*
X19254175Y-8767379D01*
X19254175Y-8767379D02*
X19244651Y-8757855D01*
X19244651Y-8757855D02*
X19235127Y-8738807D01*
X19235127Y-8738807D02*
X19225604Y-8700712D01*
X19225604Y-8700712D02*
X19225604Y-8653093D01*
X19225604Y-8653093D02*
X19235127Y-8614998D01*
X19235127Y-8614998D02*
X19244651Y-8595950D01*
X19244651Y-8595950D02*
X19254175Y-8586426D01*
X19254175Y-8586426D02*
X19273223Y-8576903D01*
X19463699Y-8576903D02*
X19482746Y-8576903D01*
X19482746Y-8576903D02*
X19501794Y-8586426D01*
X19501794Y-8586426D02*
X19511318Y-8595950D01*
X19511318Y-8595950D02*
X19520842Y-8614998D01*
X19520842Y-8614998D02*
X19530365Y-8653093D01*
X19530365Y-8653093D02*
X19530365Y-8700712D01*
X19530365Y-8700712D02*
X19520842Y-8738807D01*
X19520842Y-8738807D02*
X19511318Y-8757855D01*
X19511318Y-8757855D02*
X19501794Y-8767379D01*
X19501794Y-8767379D02*
X19482746Y-8776903D01*
X19482746Y-8776903D02*
X19463699Y-8776903D01*
X19463699Y-8776903D02*
X19444651Y-8767379D01*
X19444651Y-8767379D02*
X19435127Y-8757855D01*
X19435127Y-8757855D02*
X19425604Y-8738807D01*
X19425604Y-8738807D02*
X19416080Y-8700712D01*
X19416080Y-8700712D02*
X19416080Y-8653093D01*
X19416080Y-8653093D02*
X19425604Y-8614998D01*
X19425604Y-8614998D02*
X19435127Y-8595950D01*
X19435127Y-8595950D02*
X19444651Y-8586426D01*
X19444651Y-8586426D02*
X19463699Y-8576903D01*
X19616080Y-8776903D02*
X19616080Y-8643569D01*
X19616080Y-8662617D02*
X19625604Y-8653093D01*
X19625604Y-8653093D02*
X19644651Y-8643569D01*
X19644651Y-8643569D02*
X19673223Y-8643569D01*
X19673223Y-8643569D02*
X19692270Y-8653093D01*
X19692270Y-8653093D02*
X19701794Y-8672141D01*
X19701794Y-8672141D02*
X19701794Y-8776903D01*
X19701794Y-8672141D02*
X19711318Y-8653093D01*
X19711318Y-8653093D02*
X19730365Y-8643569D01*
X19730365Y-8643569D02*
X19758937Y-8643569D01*
X19758937Y-8643569D02*
X19777985Y-8653093D01*
X19777985Y-8653093D02*
X19787508Y-8672141D01*
X19787508Y-8672141D02*
X19787508Y-8776903D01*
X19882746Y-8776903D02*
X19882746Y-8643569D01*
X19882746Y-8662617D02*
X19892270Y-8653093D01*
X19892270Y-8653093D02*
X19911318Y-8643569D01*
X19911318Y-8643569D02*
X19939889Y-8643569D01*
X19939889Y-8643569D02*
X19958937Y-8653093D01*
X19958937Y-8653093D02*
X19968461Y-8672141D01*
X19968461Y-8672141D02*
X19968461Y-8776903D01*
X19968461Y-8672141D02*
X19977985Y-8653093D01*
X19977985Y-8653093D02*
X19997032Y-8643569D01*
X19997032Y-8643569D02*
X20025604Y-8643569D01*
X20025604Y-8643569D02*
X20044651Y-8653093D01*
X20044651Y-8653093D02*
X20054175Y-8672141D01*
X20054175Y-8672141D02*
X20054175Y-8776903D01*
X20444651Y-8567379D02*
X20273223Y-8824522D01*
X20701794Y-8576903D02*
X20720842Y-8576903D01*
X20720842Y-8576903D02*
X20739889Y-8586426D01*
X20739889Y-8586426D02*
X20749413Y-8595950D01*
X20749413Y-8595950D02*
X20758937Y-8614998D01*
X20758937Y-8614998D02*
X20768461Y-8653093D01*
X20768461Y-8653093D02*
X20768461Y-8700712D01*
X20768461Y-8700712D02*
X20758937Y-8738807D01*
X20758937Y-8738807D02*
X20749413Y-8757855D01*
X20749413Y-8757855D02*
X20739889Y-8767379D01*
X20739889Y-8767379D02*
X20720842Y-8776903D01*
X20720842Y-8776903D02*
X20701794Y-8776903D01*
X20701794Y-8776903D02*
X20682747Y-8767379D01*
X20682747Y-8767379D02*
X20673223Y-8757855D01*
X20673223Y-8757855D02*
X20663699Y-8738807D01*
X20663699Y-8738807D02*
X20654175Y-8700712D01*
X20654175Y-8700712D02*
X20654175Y-8653093D01*
X20654175Y-8653093D02*
X20663699Y-8614998D01*
X20663699Y-8614998D02*
X20673223Y-8595950D01*
X20673223Y-8595950D02*
X20682747Y-8586426D01*
X20682747Y-8586426D02*
X20701794Y-8576903D01*
X20854175Y-8757855D02*
X20863699Y-8767379D01*
X20863699Y-8767379D02*
X20854175Y-8776903D01*
X20854175Y-8776903D02*
X20844651Y-8767379D01*
X20844651Y-8767379D02*
X20854175Y-8757855D01*
X20854175Y-8757855D02*
X20854175Y-8776903D01*
X20987508Y-8576903D02*
X21006556Y-8576903D01*
X21006556Y-8576903D02*
X21025604Y-8586426D01*
X21025604Y-8586426D02*
X21035128Y-8595950D01*
X21035128Y-8595950D02*
X21044651Y-8614998D01*
X21044651Y-8614998D02*
X21054175Y-8653093D01*
X21054175Y-8653093D02*
X21054175Y-8700712D01*
X21054175Y-8700712D02*
X21044651Y-8738807D01*
X21044651Y-8738807D02*
X21035128Y-8757855D01*
X21035128Y-8757855D02*
X21025604Y-8767379D01*
X21025604Y-8767379D02*
X21006556Y-8776903D01*
X21006556Y-8776903D02*
X20987508Y-8776903D01*
X20987508Y-8776903D02*
X20968461Y-8767379D01*
X20968461Y-8767379D02*
X20958937Y-8757855D01*
X20958937Y-8757855D02*
X20949413Y-8738807D01*
X20949413Y-8738807D02*
X20939889Y-8700712D01*
X20939889Y-8700712D02*
X20939889Y-8653093D01*
X20939889Y-8653093D02*
X20949413Y-8614998D01*
X20949413Y-8614998D02*
X20958937Y-8595950D01*
X20958937Y-8595950D02*
X20968461Y-8586426D01*
X20968461Y-8586426D02*
X20987508Y-8576903D01*
X21120842Y-8576903D02*
X21244651Y-8576903D01*
X21244651Y-8576903D02*
X21177985Y-8653093D01*
X21177985Y-8653093D02*
X21206556Y-8653093D01*
X21206556Y-8653093D02*
X21225604Y-8662617D01*
X21225604Y-8662617D02*
X21235128Y-8672141D01*
X21235128Y-8672141D02*
X21244651Y-8691188D01*
X21244651Y-8691188D02*
X21244651Y-8738807D01*
X21244651Y-8738807D02*
X21235128Y-8757855D01*
X21235128Y-8757855D02*
X21225604Y-8767379D01*
X21225604Y-8767379D02*
X21206556Y-8776903D01*
X21206556Y-8776903D02*
X21149413Y-8776903D01*
X21149413Y-8776903D02*
X21130366Y-8767379D01*
X21130366Y-8767379D02*
X21120842Y-8757855D01*
X21435128Y-8776903D02*
X21320842Y-8776903D01*
X21377985Y-8776903D02*
X21377985Y-8576903D01*
X21377985Y-8576903D02*
X21358937Y-8605474D01*
X21358937Y-8605474D02*
X21339889Y-8624522D01*
X21339889Y-8624522D02*
X21320842Y-8634045D01*
X21616080Y-8576903D02*
X21520842Y-8576903D01*
X21520842Y-8576903D02*
X21511318Y-8672141D01*
X21511318Y-8672141D02*
X21520842Y-8662617D01*
X21520842Y-8662617D02*
X21539889Y-8653093D01*
X21539889Y-8653093D02*
X21587509Y-8653093D01*
X21587509Y-8653093D02*
X21606556Y-8662617D01*
X21606556Y-8662617D02*
X21616080Y-8672141D01*
X21616080Y-8672141D02*
X21625604Y-8691188D01*
X21625604Y-8691188D02*
X21625604Y-8738807D01*
X21625604Y-8738807D02*
X21616080Y-8757855D01*
X21616080Y-8757855D02*
X21606556Y-8767379D01*
X21606556Y-8767379D02*
X21587509Y-8776903D01*
X21587509Y-8776903D02*
X21539889Y-8776903D01*
X21539889Y-8776903D02*
X21520842Y-8767379D01*
X21520842Y-8767379D02*
X21511318Y-8757855D01*
X21701794Y-8576903D02*
X21701794Y-8614998D01*
X21777985Y-8576903D02*
X21777985Y-8614998D01*
X22073223Y-8853093D02*
X22063699Y-8843569D01*
X22063699Y-8843569D02*
X22044651Y-8814998D01*
X22044651Y-8814998D02*
X22035128Y-8795950D01*
X22035128Y-8795950D02*
X22025604Y-8767379D01*
X22025604Y-8767379D02*
X22016080Y-8719760D01*
X22016080Y-8719760D02*
X22016080Y-8681664D01*
X22016080Y-8681664D02*
X22025604Y-8634045D01*
X22025604Y-8634045D02*
X22035128Y-8605474D01*
X22035128Y-8605474D02*
X22044651Y-8586426D01*
X22044651Y-8586426D02*
X22063699Y-8557855D01*
X22063699Y-8557855D02*
X22073223Y-8548331D01*
X22130366Y-8576903D02*
X22254175Y-8576903D01*
X22254175Y-8576903D02*
X22187509Y-8653093D01*
X22187509Y-8653093D02*
X22216080Y-8653093D01*
X22216080Y-8653093D02*
X22235128Y-8662617D01*
X22235128Y-8662617D02*
X22244651Y-8672141D01*
X22244651Y-8672141D02*
X22254175Y-8691188D01*
X22254175Y-8691188D02*
X22254175Y-8738807D01*
X22254175Y-8738807D02*
X22244651Y-8757855D01*
X22244651Y-8757855D02*
X22235128Y-8767379D01*
X22235128Y-8767379D02*
X22216080Y-8776903D01*
X22216080Y-8776903D02*
X22158937Y-8776903D01*
X22158937Y-8776903D02*
X22139890Y-8767379D01*
X22139890Y-8767379D02*
X22130366Y-8757855D01*
X22492270Y-8776903D02*
X22492270Y-8576903D01*
X22577985Y-8776903D02*
X22577985Y-8672141D01*
X22577985Y-8672141D02*
X22568461Y-8653093D01*
X22568461Y-8653093D02*
X22549413Y-8643569D01*
X22549413Y-8643569D02*
X22520842Y-8643569D01*
X22520842Y-8643569D02*
X22501794Y-8653093D01*
X22501794Y-8653093D02*
X22492270Y-8662617D01*
X22701794Y-8776903D02*
X22682747Y-8767379D01*
X22682747Y-8767379D02*
X22673223Y-8757855D01*
X22673223Y-8757855D02*
X22663699Y-8738807D01*
X22663699Y-8738807D02*
X22663699Y-8681664D01*
X22663699Y-8681664D02*
X22673223Y-8662617D01*
X22673223Y-8662617D02*
X22682747Y-8653093D01*
X22682747Y-8653093D02*
X22701794Y-8643569D01*
X22701794Y-8643569D02*
X22730366Y-8643569D01*
X22730366Y-8643569D02*
X22749413Y-8653093D01*
X22749413Y-8653093D02*
X22758937Y-8662617D01*
X22758937Y-8662617D02*
X22768461Y-8681664D01*
X22768461Y-8681664D02*
X22768461Y-8738807D01*
X22768461Y-8738807D02*
X22758937Y-8757855D01*
X22758937Y-8757855D02*
X22749413Y-8767379D01*
X22749413Y-8767379D02*
X22730366Y-8776903D01*
X22730366Y-8776903D02*
X22701794Y-8776903D01*
X22882747Y-8776903D02*
X22863699Y-8767379D01*
X22863699Y-8767379D02*
X22854175Y-8748331D01*
X22854175Y-8748331D02*
X22854175Y-8576903D01*
X23035128Y-8767379D02*
X23016080Y-8776903D01*
X23016080Y-8776903D02*
X22977985Y-8776903D01*
X22977985Y-8776903D02*
X22958937Y-8767379D01*
X22958937Y-8767379D02*
X22949413Y-8748331D01*
X22949413Y-8748331D02*
X22949413Y-8672141D01*
X22949413Y-8672141D02*
X22958937Y-8653093D01*
X22958937Y-8653093D02*
X22977985Y-8643569D01*
X22977985Y-8643569D02*
X23016080Y-8643569D01*
X23016080Y-8643569D02*
X23035128Y-8653093D01*
X23035128Y-8653093D02*
X23044651Y-8672141D01*
X23044651Y-8672141D02*
X23044651Y-8691188D01*
X23044651Y-8691188D02*
X22949413Y-8710236D01*
X23120842Y-8767379D02*
X23139890Y-8776903D01*
X23139890Y-8776903D02*
X23177985Y-8776903D01*
X23177985Y-8776903D02*
X23197032Y-8767379D01*
X23197032Y-8767379D02*
X23206556Y-8748331D01*
X23206556Y-8748331D02*
X23206556Y-8738807D01*
X23206556Y-8738807D02*
X23197032Y-8719760D01*
X23197032Y-8719760D02*
X23177985Y-8710236D01*
X23177985Y-8710236D02*
X23149413Y-8710236D01*
X23149413Y-8710236D02*
X23130366Y-8700712D01*
X23130366Y-8700712D02*
X23120842Y-8681664D01*
X23120842Y-8681664D02*
X23120842Y-8672141D01*
X23120842Y-8672141D02*
X23130366Y-8653093D01*
X23130366Y-8653093D02*
X23149413Y-8643569D01*
X23149413Y-8643569D02*
X23177985Y-8643569D01*
X23177985Y-8643569D02*
X23197032Y-8653093D01*
X23273223Y-8853093D02*
X23282747Y-8843569D01*
X23282747Y-8843569D02*
X23301794Y-8814998D01*
X23301794Y-8814998D02*
X23311318Y-8795950D01*
X23311318Y-8795950D02*
X23320842Y-8767379D01*
X23320842Y-8767379D02*
X23330366Y-8719760D01*
X23330366Y-8719760D02*
X23330366Y-8681664D01*
X23330366Y-8681664D02*
X23320842Y-8634045D01*
X23320842Y-8634045D02*
X23311318Y-8605474D01*
X23311318Y-8605474D02*
X23301794Y-8586426D01*
X23301794Y-8586426D02*
X23282747Y-8557855D01*
X23282747Y-8557855D02*
X23273223Y-8548331D01*
D17*
X18401318Y-8893379D02*
X18511318Y-9003379D01*
X18511318Y-8893379D02*
X18401318Y-9003379D01*
X18511318Y-8948379D02*
G75*
G03*
X18511318Y-8948379I-55000J0D01*
G01*
D11*
X18863699Y-9040903D02*
X18749413Y-9040903D01*
X18806556Y-9040903D02*
X18806556Y-8840903D01*
X18806556Y-8840903D02*
X18787508Y-8869474D01*
X18787508Y-8869474D02*
X18768461Y-8888522D01*
X18768461Y-8888522D02*
X18749413Y-8898045D01*
X18949413Y-9021855D02*
X18958937Y-9031379D01*
X18958937Y-9031379D02*
X18949413Y-9040903D01*
X18949413Y-9040903D02*
X18939889Y-9031379D01*
X18939889Y-9031379D02*
X18949413Y-9021855D01*
X18949413Y-9021855D02*
X18949413Y-9040903D01*
X19149413Y-9040903D02*
X19035127Y-9040903D01*
X19092270Y-9040903D02*
X19092270Y-8840903D01*
X19092270Y-8840903D02*
X19073223Y-8869474D01*
X19073223Y-8869474D02*
X19054175Y-8888522D01*
X19054175Y-8888522D02*
X19035127Y-8898045D01*
X19273223Y-8840903D02*
X19292270Y-8840903D01*
X19292270Y-8840903D02*
X19311318Y-8850426D01*
X19311318Y-8850426D02*
X19320842Y-8859950D01*
X19320842Y-8859950D02*
X19330365Y-8878998D01*
X19330365Y-8878998D02*
X19339889Y-8917093D01*
X19339889Y-8917093D02*
X19339889Y-8964712D01*
X19339889Y-8964712D02*
X19330365Y-9002807D01*
X19330365Y-9002807D02*
X19320842Y-9021855D01*
X19320842Y-9021855D02*
X19311318Y-9031379D01*
X19311318Y-9031379D02*
X19292270Y-9040903D01*
X19292270Y-9040903D02*
X19273223Y-9040903D01*
X19273223Y-9040903D02*
X19254175Y-9031379D01*
X19254175Y-9031379D02*
X19244651Y-9021855D01*
X19244651Y-9021855D02*
X19235127Y-9002807D01*
X19235127Y-9002807D02*
X19225604Y-8964712D01*
X19225604Y-8964712D02*
X19225604Y-8917093D01*
X19225604Y-8917093D02*
X19235127Y-8878998D01*
X19235127Y-8878998D02*
X19244651Y-8859950D01*
X19244651Y-8859950D02*
X19254175Y-8850426D01*
X19254175Y-8850426D02*
X19273223Y-8840903D01*
X19463699Y-8840903D02*
X19482746Y-8840903D01*
X19482746Y-8840903D02*
X19501794Y-8850426D01*
X19501794Y-8850426D02*
X19511318Y-8859950D01*
X19511318Y-8859950D02*
X19520842Y-8878998D01*
X19520842Y-8878998D02*
X19530365Y-8917093D01*
X19530365Y-8917093D02*
X19530365Y-8964712D01*
X19530365Y-8964712D02*
X19520842Y-9002807D01*
X19520842Y-9002807D02*
X19511318Y-9021855D01*
X19511318Y-9021855D02*
X19501794Y-9031379D01*
X19501794Y-9031379D02*
X19482746Y-9040903D01*
X19482746Y-9040903D02*
X19463699Y-9040903D01*
X19463699Y-9040903D02*
X19444651Y-9031379D01*
X19444651Y-9031379D02*
X19435127Y-9021855D01*
X19435127Y-9021855D02*
X19425604Y-9002807D01*
X19425604Y-9002807D02*
X19416080Y-8964712D01*
X19416080Y-8964712D02*
X19416080Y-8917093D01*
X19416080Y-8917093D02*
X19425604Y-8878998D01*
X19425604Y-8878998D02*
X19435127Y-8859950D01*
X19435127Y-8859950D02*
X19444651Y-8850426D01*
X19444651Y-8850426D02*
X19463699Y-8840903D01*
X19616080Y-9040903D02*
X19616080Y-8907569D01*
X19616080Y-8926617D02*
X19625604Y-8917093D01*
X19625604Y-8917093D02*
X19644651Y-8907569D01*
X19644651Y-8907569D02*
X19673223Y-8907569D01*
X19673223Y-8907569D02*
X19692270Y-8917093D01*
X19692270Y-8917093D02*
X19701794Y-8936141D01*
X19701794Y-8936141D02*
X19701794Y-9040903D01*
X19701794Y-8936141D02*
X19711318Y-8917093D01*
X19711318Y-8917093D02*
X19730365Y-8907569D01*
X19730365Y-8907569D02*
X19758937Y-8907569D01*
X19758937Y-8907569D02*
X19777985Y-8917093D01*
X19777985Y-8917093D02*
X19787508Y-8936141D01*
X19787508Y-8936141D02*
X19787508Y-9040903D01*
X19882746Y-9040903D02*
X19882746Y-8907569D01*
X19882746Y-8926617D02*
X19892270Y-8917093D01*
X19892270Y-8917093D02*
X19911318Y-8907569D01*
X19911318Y-8907569D02*
X19939889Y-8907569D01*
X19939889Y-8907569D02*
X19958937Y-8917093D01*
X19958937Y-8917093D02*
X19968461Y-8936141D01*
X19968461Y-8936141D02*
X19968461Y-9040903D01*
X19968461Y-8936141D02*
X19977985Y-8917093D01*
X19977985Y-8917093D02*
X19997032Y-8907569D01*
X19997032Y-8907569D02*
X20025604Y-8907569D01*
X20025604Y-8907569D02*
X20044651Y-8917093D01*
X20044651Y-8917093D02*
X20054175Y-8936141D01*
X20054175Y-8936141D02*
X20054175Y-9040903D01*
X20444651Y-8831379D02*
X20273223Y-9088522D01*
X20701794Y-8840903D02*
X20720842Y-8840903D01*
X20720842Y-8840903D02*
X20739889Y-8850426D01*
X20739889Y-8850426D02*
X20749413Y-8859950D01*
X20749413Y-8859950D02*
X20758937Y-8878998D01*
X20758937Y-8878998D02*
X20768461Y-8917093D01*
X20768461Y-8917093D02*
X20768461Y-8964712D01*
X20768461Y-8964712D02*
X20758937Y-9002807D01*
X20758937Y-9002807D02*
X20749413Y-9021855D01*
X20749413Y-9021855D02*
X20739889Y-9031379D01*
X20739889Y-9031379D02*
X20720842Y-9040903D01*
X20720842Y-9040903D02*
X20701794Y-9040903D01*
X20701794Y-9040903D02*
X20682747Y-9031379D01*
X20682747Y-9031379D02*
X20673223Y-9021855D01*
X20673223Y-9021855D02*
X20663699Y-9002807D01*
X20663699Y-9002807D02*
X20654175Y-8964712D01*
X20654175Y-8964712D02*
X20654175Y-8917093D01*
X20654175Y-8917093D02*
X20663699Y-8878998D01*
X20663699Y-8878998D02*
X20673223Y-8859950D01*
X20673223Y-8859950D02*
X20682747Y-8850426D01*
X20682747Y-8850426D02*
X20701794Y-8840903D01*
X20854175Y-9021855D02*
X20863699Y-9031379D01*
X20863699Y-9031379D02*
X20854175Y-9040903D01*
X20854175Y-9040903D02*
X20844651Y-9031379D01*
X20844651Y-9031379D02*
X20854175Y-9021855D01*
X20854175Y-9021855D02*
X20854175Y-9040903D01*
X20987508Y-8840903D02*
X21006556Y-8840903D01*
X21006556Y-8840903D02*
X21025604Y-8850426D01*
X21025604Y-8850426D02*
X21035128Y-8859950D01*
X21035128Y-8859950D02*
X21044651Y-8878998D01*
X21044651Y-8878998D02*
X21054175Y-8917093D01*
X21054175Y-8917093D02*
X21054175Y-8964712D01*
X21054175Y-8964712D02*
X21044651Y-9002807D01*
X21044651Y-9002807D02*
X21035128Y-9021855D01*
X21035128Y-9021855D02*
X21025604Y-9031379D01*
X21025604Y-9031379D02*
X21006556Y-9040903D01*
X21006556Y-9040903D02*
X20987508Y-9040903D01*
X20987508Y-9040903D02*
X20968461Y-9031379D01*
X20968461Y-9031379D02*
X20958937Y-9021855D01*
X20958937Y-9021855D02*
X20949413Y-9002807D01*
X20949413Y-9002807D02*
X20939889Y-8964712D01*
X20939889Y-8964712D02*
X20939889Y-8917093D01*
X20939889Y-8917093D02*
X20949413Y-8878998D01*
X20949413Y-8878998D02*
X20958937Y-8859950D01*
X20958937Y-8859950D02*
X20968461Y-8850426D01*
X20968461Y-8850426D02*
X20987508Y-8840903D01*
X21225604Y-8907569D02*
X21225604Y-9040903D01*
X21177985Y-8831379D02*
X21130366Y-8974236D01*
X21130366Y-8974236D02*
X21254175Y-8974236D01*
X21311318Y-8840903D02*
X21435128Y-8840903D01*
X21435128Y-8840903D02*
X21368461Y-8917093D01*
X21368461Y-8917093D02*
X21397032Y-8917093D01*
X21397032Y-8917093D02*
X21416080Y-8926617D01*
X21416080Y-8926617D02*
X21425604Y-8936141D01*
X21425604Y-8936141D02*
X21435128Y-8955188D01*
X21435128Y-8955188D02*
X21435128Y-9002807D01*
X21435128Y-9002807D02*
X21425604Y-9021855D01*
X21425604Y-9021855D02*
X21416080Y-9031379D01*
X21416080Y-9031379D02*
X21397032Y-9040903D01*
X21397032Y-9040903D02*
X21339889Y-9040903D01*
X21339889Y-9040903D02*
X21320842Y-9031379D01*
X21320842Y-9031379D02*
X21311318Y-9021855D01*
X21501794Y-8840903D02*
X21625604Y-8840903D01*
X21625604Y-8840903D02*
X21558937Y-8917093D01*
X21558937Y-8917093D02*
X21587509Y-8917093D01*
X21587509Y-8917093D02*
X21606556Y-8926617D01*
X21606556Y-8926617D02*
X21616080Y-8936141D01*
X21616080Y-8936141D02*
X21625604Y-8955188D01*
X21625604Y-8955188D02*
X21625604Y-9002807D01*
X21625604Y-9002807D02*
X21616080Y-9021855D01*
X21616080Y-9021855D02*
X21606556Y-9031379D01*
X21606556Y-9031379D02*
X21587509Y-9040903D01*
X21587509Y-9040903D02*
X21530366Y-9040903D01*
X21530366Y-9040903D02*
X21511318Y-9031379D01*
X21511318Y-9031379D02*
X21501794Y-9021855D01*
X21701794Y-8840903D02*
X21701794Y-8878998D01*
X21777985Y-8840903D02*
X21777985Y-8878998D01*
X22073223Y-9117093D02*
X22063699Y-9107569D01*
X22063699Y-9107569D02*
X22044651Y-9078998D01*
X22044651Y-9078998D02*
X22035128Y-9059950D01*
X22035128Y-9059950D02*
X22025604Y-9031379D01*
X22025604Y-9031379D02*
X22016080Y-8983760D01*
X22016080Y-8983760D02*
X22016080Y-8945664D01*
X22016080Y-8945664D02*
X22025604Y-8898045D01*
X22025604Y-8898045D02*
X22035128Y-8869474D01*
X22035128Y-8869474D02*
X22044651Y-8850426D01*
X22044651Y-8850426D02*
X22063699Y-8821855D01*
X22063699Y-8821855D02*
X22073223Y-8812331D01*
X22177985Y-8926617D02*
X22158937Y-8917093D01*
X22158937Y-8917093D02*
X22149413Y-8907569D01*
X22149413Y-8907569D02*
X22139890Y-8888522D01*
X22139890Y-8888522D02*
X22139890Y-8878998D01*
X22139890Y-8878998D02*
X22149413Y-8859950D01*
X22149413Y-8859950D02*
X22158937Y-8850426D01*
X22158937Y-8850426D02*
X22177985Y-8840903D01*
X22177985Y-8840903D02*
X22216080Y-8840903D01*
X22216080Y-8840903D02*
X22235128Y-8850426D01*
X22235128Y-8850426D02*
X22244651Y-8859950D01*
X22244651Y-8859950D02*
X22254175Y-8878998D01*
X22254175Y-8878998D02*
X22254175Y-8888522D01*
X22254175Y-8888522D02*
X22244651Y-8907569D01*
X22244651Y-8907569D02*
X22235128Y-8917093D01*
X22235128Y-8917093D02*
X22216080Y-8926617D01*
X22216080Y-8926617D02*
X22177985Y-8926617D01*
X22177985Y-8926617D02*
X22158937Y-8936141D01*
X22158937Y-8936141D02*
X22149413Y-8945664D01*
X22149413Y-8945664D02*
X22139890Y-8964712D01*
X22139890Y-8964712D02*
X22139890Y-9002807D01*
X22139890Y-9002807D02*
X22149413Y-9021855D01*
X22149413Y-9021855D02*
X22158937Y-9031379D01*
X22158937Y-9031379D02*
X22177985Y-9040903D01*
X22177985Y-9040903D02*
X22216080Y-9040903D01*
X22216080Y-9040903D02*
X22235128Y-9031379D01*
X22235128Y-9031379D02*
X22244651Y-9021855D01*
X22244651Y-9021855D02*
X22254175Y-9002807D01*
X22254175Y-9002807D02*
X22254175Y-8964712D01*
X22254175Y-8964712D02*
X22244651Y-8945664D01*
X22244651Y-8945664D02*
X22235128Y-8936141D01*
X22235128Y-8936141D02*
X22216080Y-8926617D01*
X22492270Y-9040903D02*
X22492270Y-8840903D01*
X22577985Y-9040903D02*
X22577985Y-8936141D01*
X22577985Y-8936141D02*
X22568461Y-8917093D01*
X22568461Y-8917093D02*
X22549413Y-8907569D01*
X22549413Y-8907569D02*
X22520842Y-8907569D01*
X22520842Y-8907569D02*
X22501794Y-8917093D01*
X22501794Y-8917093D02*
X22492270Y-8926617D01*
X22701794Y-9040903D02*
X22682747Y-9031379D01*
X22682747Y-9031379D02*
X22673223Y-9021855D01*
X22673223Y-9021855D02*
X22663699Y-9002807D01*
X22663699Y-9002807D02*
X22663699Y-8945664D01*
X22663699Y-8945664D02*
X22673223Y-8926617D01*
X22673223Y-8926617D02*
X22682747Y-8917093D01*
X22682747Y-8917093D02*
X22701794Y-8907569D01*
X22701794Y-8907569D02*
X22730366Y-8907569D01*
X22730366Y-8907569D02*
X22749413Y-8917093D01*
X22749413Y-8917093D02*
X22758937Y-8926617D01*
X22758937Y-8926617D02*
X22768461Y-8945664D01*
X22768461Y-8945664D02*
X22768461Y-9002807D01*
X22768461Y-9002807D02*
X22758937Y-9021855D01*
X22758937Y-9021855D02*
X22749413Y-9031379D01*
X22749413Y-9031379D02*
X22730366Y-9040903D01*
X22730366Y-9040903D02*
X22701794Y-9040903D01*
X22882747Y-9040903D02*
X22863699Y-9031379D01*
X22863699Y-9031379D02*
X22854175Y-9012331D01*
X22854175Y-9012331D02*
X22854175Y-8840903D01*
X23035128Y-9031379D02*
X23016080Y-9040903D01*
X23016080Y-9040903D02*
X22977985Y-9040903D01*
X22977985Y-9040903D02*
X22958937Y-9031379D01*
X22958937Y-9031379D02*
X22949413Y-9012331D01*
X22949413Y-9012331D02*
X22949413Y-8936141D01*
X22949413Y-8936141D02*
X22958937Y-8917093D01*
X22958937Y-8917093D02*
X22977985Y-8907569D01*
X22977985Y-8907569D02*
X23016080Y-8907569D01*
X23016080Y-8907569D02*
X23035128Y-8917093D01*
X23035128Y-8917093D02*
X23044651Y-8936141D01*
X23044651Y-8936141D02*
X23044651Y-8955188D01*
X23044651Y-8955188D02*
X22949413Y-8974236D01*
X23120842Y-9031379D02*
X23139890Y-9040903D01*
X23139890Y-9040903D02*
X23177985Y-9040903D01*
X23177985Y-9040903D02*
X23197032Y-9031379D01*
X23197032Y-9031379D02*
X23206556Y-9012331D01*
X23206556Y-9012331D02*
X23206556Y-9002807D01*
X23206556Y-9002807D02*
X23197032Y-8983760D01*
X23197032Y-8983760D02*
X23177985Y-8974236D01*
X23177985Y-8974236D02*
X23149413Y-8974236D01*
X23149413Y-8974236D02*
X23130366Y-8964712D01*
X23130366Y-8964712D02*
X23120842Y-8945664D01*
X23120842Y-8945664D02*
X23120842Y-8936141D01*
X23120842Y-8936141D02*
X23130366Y-8917093D01*
X23130366Y-8917093D02*
X23149413Y-8907569D01*
X23149413Y-8907569D02*
X23177985Y-8907569D01*
X23177985Y-8907569D02*
X23197032Y-8917093D01*
X23273223Y-9117093D02*
X23282747Y-9107569D01*
X23282747Y-9107569D02*
X23301794Y-9078998D01*
X23301794Y-9078998D02*
X23311318Y-9059950D01*
X23311318Y-9059950D02*
X23320842Y-9031379D01*
X23320842Y-9031379D02*
X23330366Y-8983760D01*
X23330366Y-8983760D02*
X23330366Y-8945664D01*
X23330366Y-8945664D02*
X23320842Y-8898045D01*
X23320842Y-8898045D02*
X23311318Y-8869474D01*
X23311318Y-8869474D02*
X23301794Y-8850426D01*
X23301794Y-8850426D02*
X23282747Y-8821855D01*
X23282747Y-8821855D02*
X23273223Y-8812331D01*
M02*
