M48
; DRILL file {KiCad 7.0.1} date Wed Oct 11 20:36:58 2023
; FORMAT={-:-/ absolute / metric / decimal}
; #@! TF.CreationDate,2023-10-11T20:36:58-05:00
; #@! TF.GenerationSoftware,Kicad,Pcbnew,7.0.1
; #@! TF.FileFunction,Plated,1,6,PTH
FMAT,2
METRIC
; #@! TA.AperFunction,Plated,PTH,ViaDrill
T1C0.200
; #@! TA.AperFunction,Plated,PTH,ViaDrill
T2C0.220
; #@! TA.AperFunction,Plated,PTH,ViaDrill
T3C0.300
; #@! TA.AperFunction,Plated,PTH,ComponentDrill
T4C0.750
; #@! TA.AperFunction,Plated,PTH,ComponentDrill
T5C0.800
; #@! TA.AperFunction,Plated,PTH,ComponentDrill
T6C1.100
%
G90
G05
T1
X185.648Y-42.201
X185.648Y-43.827
X185.66Y-47.306
X185.66Y-49.059
X185.66Y-50.812
X185.673Y-40.372
X185.686Y-36.994
X185.686Y-38.467
X185.686Y-55.714
X185.686Y-58.508
X185.688Y-52.666
X185.688Y-61.353
X185.736Y-35.292
X186.498Y-35.14
X186.651Y-42.607
X187.21Y-47.738
X188.683Y-53.326
X188.734Y-46.849
X189.496Y-46.087
X189.673Y-52.234
X189.877Y-35.216
X189.877Y-49.567
X190.029Y-37.096
X190.054Y-46.951
X190.207Y-38.594
X190.245Y-41.795
X190.766Y-35.902
X191.299Y-39.356
X191.312Y-41.744
X191.426Y-37.883
X191.477Y-36.664
X191.566Y-47.485
X192.137Y-44.639
X193.953Y-43.116
X194.576Y-44.208
X194.919Y-31.915
X195.486Y-35.857
X195.487Y-33.354
X195.566Y-44.233
X195.592Y-31.584
X195.744Y-37.527
X195.846Y-47.814
X195.857Y-34.104
X195.857Y-34.604
X195.867Y-32.604
X195.867Y-33.604
X195.867Y-35.104
X195.867Y-35.604
X195.877Y-36.124
X195.887Y-33.104
X195.922Y-46.558
X196.125Y-52.222
X196.237Y-34.354
X196.247Y-33.854
X196.247Y-34.854
X196.247Y-35.354
X196.247Y-35.854
X196.557Y-47.814
X197.014Y-52.222
X197.039Y-34.403
X197.09Y-36.334
X197.293Y-46.875
X197.477Y-35.439
X197.598Y-40.118
X197.624Y-34.454
X197.7Y-40.829
X197.725Y-44.284
X198.106Y-46.976
X198.563Y-50.913
X198.894Y-50.278
X200.595Y-54.241
X201.408Y-55.079
X201.815Y-40.386
X201.815Y-41.148
X201.917Y-42.122
X202.17Y-38.76
X202.272Y-52.73
X202.297Y-53.467
X202.323Y-54.203
X202.907Y-38.76
X203.161Y-40.944
X203.186Y-40.182
X203.237Y-49.542
X203.622Y-54.529
X203.796Y-42.773
X204.272Y-56.429
X204.761Y-38.785
X204.822Y-54.554
X204.972Y-56.429
X205.04Y-49.542
X206.082Y-46.011
X206.26Y-45.3
X206.641Y-49.491
X206.818Y-53.072
X207.521Y-53.064
X209.003Y-45.3
X209.003Y-46.011
X209.13Y-52.31
X209.206Y-53.275
X209.257Y-33.311
X214.438Y-46.011
X215.047Y-55.479
X215.422Y-56.079
X216.47Y-47.637
X217.105Y-36.664
X217.232Y-43.115
X217.283Y-31.711
X218.807Y-45.351
X218.822Y-56.929
X219.322Y-57.454
X219.366Y-38.797
X219.468Y-41.033
X220.597Y-54.704
X220.697Y-55.404
X220.788Y-58.838
X221.246Y-42.912
X221.517Y-46.022
X221.754Y-56.552
X222.439Y-38.035
X222.717Y-43.622
X222.719Y-50.659
X224.217Y-40.017
X224.434Y-36.072
X224.817Y-46.222
X226.351Y-34.073
X226.529Y-37.553
X226.884Y-48.957
X227.773Y-47.222
X228.434Y-36.461
X228.637Y-34.454
X228.739Y-32.397
X230.222Y-47.354
X231.558Y-61.327
X231.609Y-46.087
X231.66Y-60.616
X231.837Y-47.332
X232.472Y-44.36
X232.65Y-59.829
X233.107Y-59.168
T2
X202.246Y-32.454
X202.667Y-21.572
X202.867Y-20.522
X204.717Y-21.772
X204.917Y-20.522
X205.767Y-21.772
X206.667Y-20.522
X207.517Y-21.772
X208.517Y-20.522
X208.917Y-21.772
X210.367Y-20.522
X210.617Y-21.772
X211.967Y-21.772
X212.367Y-20.522
X213.767Y-21.772
X214.317Y-20.522
X215.617Y-21.772
X216.117Y-20.522
X217.867Y-20.522
X218.117Y-21.822
X219.517Y-20.522
X220.117Y-21.772
X221.117Y-20.522
X221.817Y-21.772
X222.767Y-20.522
X223.217Y-21.772
X224.417Y-20.522
X224.917Y-21.822
X226.267Y-20.522
X226.767Y-21.822
X227.567Y-20.522
X228.117Y-22.622
X228.517Y-23.972
X228.567Y-25.422
X229.367Y-20.972
X230.317Y-21.572
X231.167Y-22.122
X231.767Y-23.122
X231.867Y-24.372
X231.867Y-25.422
T3
X187.089Y-43.686
X187.21Y-49.465
X187.286Y-60.565
X187.727Y-51.884
X188.175Y-61.302
X188.632Y-48.488
X188.683Y-47.625
X188.689Y-50.097
X189.14Y-60.54
X189.445Y-48.793
X189.496Y-47.904
X190.016Y-54.343
X190.054Y-61.302
X190.613Y-49.338
X190.753Y-53.682
X191.247Y-61.354
X191.437Y-57.384
X191.68Y-52.666
X191.731Y-56.007
X191.737Y-60.014
X192.239Y-61.911
X192.34Y-35.038
X192.366Y-37.197
X192.391Y-33.971
X192.544Y-32.93
X192.721Y-42.633
X192.721Y-45.681
X192.907Y-56.984
X192.925Y-43.623
X192.975Y-46.595
X193.001Y-47.828
X193.052Y-49.381
X193.255Y-55.956
X193.356Y-32.93
X193.494Y-34.994
X193.534Y-36.511
X193.534Y-37.324
X193.585Y-45.528
X193.839Y-60.286
X194.118Y-53.783
X194.169Y-61.911
X194.576Y-45.3
X194.88Y-54.432
X195.033Y-29.399
X195.033Y-30.212
X195.033Y-40.093
X195.157Y-58.684
X195.236Y-56.616
X195.236Y-57.429
X195.338Y-61.861
X195.541Y-55.041
X195.667Y-45.364
X195.693Y-48.996
X195.707Y-49.86
X196.023Y-60.032
X196.303Y-40.093
X196.557Y-53.873
X196.608Y-56.616
X196.608Y-57.429
X196.773Y-44.371
X196.977Y-58.714
X197.014Y-49.047
X197.027Y-49.911
X197.116Y-31.482
X197.624Y-32.905
X197.869Y-38.974
X197.928Y-61.861
X198.386Y-30.923
X198.386Y-59.981
X198.487Y-51.79
X198.487Y-52.603
X198.517Y-48.416
X198.707Y-32.244
X198.792Y-54.94
X198.792Y-56.261
X198.917Y-58.574
X199.554Y-46.494
X199.807Y-51.961
X199.808Y-54.94
X199.808Y-56.311
X199.882Y-33.424
X199.882Y-34.564
X199.884Y-20.814
X199.897Y-30.374
X200.418Y-60.616
X200.57Y-61.911
X200.697Y-32.219
X201.027Y-29.145
X201.6Y-37.081
X201.611Y-21.068
X201.865Y-57.023
X202.145Y-59.27
X202.272Y-34.493
X202.399Y-28.637
X202.653Y-35.636
X202.653Y-36.271
X202.653Y-60.54
X202.678Y-44.208
X202.704Y-57.023
X202.856Y-61.911
X202.881Y-31.0
X202.907Y-29.78
X203.11Y-22.275
X203.135Y-53.733
X203.415Y-52.259
X203.44Y-32.752
X203.466Y-33.667
X203.491Y-44.233
X203.567Y-50.71
X203.821Y-53.148
X204.05Y-58.609
X204.075Y-59.727
X204.151Y-51.548
X204.177Y-28.028
X204.253Y-47.269
X204.617Y-30.272
X204.761Y-45.706
X204.863Y-50.71
X204.863Y-52.31
X204.892Y-37.314
X204.989Y-44.12
X205.091Y-47.269
X205.218Y-53.174
X205.548Y-51.497
X205.65Y-61.962
X205.955Y-30.048
X205.955Y-31.191
X206.158Y-50.685
X206.361Y-33.59
X206.361Y-35.682
X206.539Y-51.548
X206.641Y-61.175
X207.167Y-25.472
X207.352Y-33.59
X207.352Y-35.682
X207.352Y-59.194
X207.555Y-60.845
X207.867Y-30.172
X207.936Y-37.324
X208.167Y-22.872
X208.292Y-24.777
X208.397Y-56.854
X208.422Y-58.179
X208.698Y-62.013
X208.767Y-28.422
X208.825Y-37.324
X209.222Y-56.854
X209.247Y-58.179
X209.317Y-26.322
X209.511Y-29.958
X209.511Y-31.228
X209.79Y-43.547
X209.816Y-52.818
X209.867Y-22.822
X209.968Y-33.717
X209.968Y-39.915
X210.933Y-24.929
X211.162Y-52.654
X211.39Y-43.141
X211.867Y-29.572
X211.898Y-33.794
X211.975Y-35.089
X212.508Y-51.447
X212.559Y-52.654
X212.567Y-53.869
X212.61Y-32.905
X212.635Y-43.547
X212.864Y-62.064
X213.298Y-33.889
X213.298Y-35.239
X213.336Y-41.003
X213.829Y-52.781
X213.877Y-53.899
X214.032Y-62.064
X214.098Y-41.003
X214.117Y-25.672
X214.159Y-36.765
X214.197Y-57.154
X214.272Y-58.429
X214.921Y-32.905
X214.997Y-62.064
X215.378Y-34.429
X215.759Y-58.305
X216.216Y-62.013
X216.672Y-59.752
X217.385Y-58.305
X217.69Y-61.962
X218.096Y-49.211
X218.35Y-24.878
X218.35Y-60.514
X218.517Y-22.922
X218.767Y-26.272
X219.061Y-61.962
X219.167Y-28.772
X219.976Y-46.722
X220.217Y-22.822
X220.433Y-34.784
X220.738Y-24.827
X220.839Y-49.491
X220.839Y-61.962
X221.144Y-36.715
X221.144Y-60.845
X221.754Y-51.853
X222.363Y-61.962
X222.744Y-33.26
X222.973Y-34.632
X223.582Y-25.031
X223.633Y-43.065
X224.09Y-49.059
X224.395Y-62.013
X224.767Y-28.322
X224.776Y-60.718
X225.157Y-26.859
X225.411Y-32.295
X225.614Y-41.795
X226.58Y-61.962
X226.783Y-52.92
X226.884Y-41.337
X227.85Y-26.809
X227.85Y-57.949
X228.078Y-45.503
X228.197Y-60.896
X228.367Y-30.522
X229.043Y-40.931
X229.094Y-63.156
X229.094Y-63.994
X229.12Y-39.153
X229.472Y-45.564
X229.831Y-51.853
X230.339Y-40.931
X230.44Y-60.438
X230.466Y-61.378
X230.567Y-63.156
X230.567Y-63.994
X230.847Y-46.367
X230.898Y-58.051
X231.304Y-46.824
X231.609Y-26.859
X231.634Y-38.493
X231.888Y-52.64
X232.117Y-29.958
X232.168Y-34.175
X232.218Y-31.99
X232.218Y-36.511
X232.396Y-63.207
X232.498Y-64.502
X232.93Y-52.615
X233.107Y-38.442
X233.742Y-26.961
X233.747Y-63.229
X234.289Y-52.59
X234.301Y-28.079
X234.301Y-30.873
X234.301Y-33.108
X234.301Y-35.241
X234.301Y-37.883
X234.301Y-39.864
X234.301Y-41.388
X234.301Y-42.811
X234.301Y-44.284
X234.301Y-45.757
X234.301Y-47.281
X234.301Y-48.653
X234.301Y-50.634
X234.301Y-54.596
X234.301Y-56.374
X234.301Y-58.203
T4
X188.734Y-27.368
X188.734Y-29.368
X188.734Y-31.368
X188.734Y-33.368
X188.734Y-35.368
X188.734Y-37.368
X188.734Y-39.368
X188.734Y-41.368
X230.237Y-23.374
X230.237Y-25.374
X230.237Y-27.374
X230.237Y-29.374
X230.237Y-31.374
X230.237Y-33.374
X230.237Y-35.374
X230.237Y-37.374
T5
X226.327Y-54.624
X228.867Y-54.624
X231.407Y-54.624
T6
X205.817Y-23.422
X205.817Y-27.922
X212.317Y-23.422
X212.317Y-27.922
X216.001Y-23.472
X216.001Y-27.972
X222.501Y-23.472
X222.501Y-27.972
T0
M30
