G04 #@! TF.GenerationSoftware,KiCad,Pcbnew,7.0.1*
G04 #@! TF.CreationDate,2023-10-11T20:36:53-05:00*
G04 #@! TF.ProjectId,Main_Board,4d61696e-5f42-46f6-9172-642e6b696361,1*
G04 #@! TF.SameCoordinates,Original*
G04 #@! TF.FileFunction,Legend,Top*
G04 #@! TF.FilePolarity,Positive*
%FSLAX46Y46*%
G04 Gerber Fmt 4.6, Leading zero omitted, Abs format (unit mm)*
G04 Created by KiCad (PCBNEW 7.0.1) date 2023-10-11 20:36:53*
%MOMM*%
%LPD*%
G01*
G04 APERTURE LIST*
G04 Aperture macros list*
%AMRoundRect*
0 Rectangle with rounded corners*
0 $1 Rounding radius*
0 $2 $3 $4 $5 $6 $7 $8 $9 X,Y pos of 4 corners*
0 Add a 4 corners polygon primitive as box body*
4,1,4,$2,$3,$4,$5,$6,$7,$8,$9,$2,$3,0*
0 Add four circle primitives for the rounded corners*
1,1,$1+$1,$2,$3*
1,1,$1+$1,$4,$5*
1,1,$1+$1,$6,$7*
1,1,$1+$1,$8,$9*
0 Add four rect primitives between the rounded corners*
20,1,$1+$1,$2,$3,$4,$5,0*
20,1,$1+$1,$4,$5,$6,$7,0*
20,1,$1+$1,$6,$7,$8,$9,0*
20,1,$1+$1,$8,$9,$2,$3,0*%
%AMRotRect*
0 Rectangle, with rotation*
0 The origin of the aperture is its center*
0 $1 length*
0 $2 width*
0 $3 Rotation angle, in degrees counterclockwise*
0 Add horizontal line*
21,1,$1,$2,0,0,$3*%
G04 Aperture macros list end*
%ADD10C,0.470000*%
%ADD11C,0.625000*%
%ADD12C,0.200000*%
%ADD13C,0.152400*%
%ADD14C,0.304800*%
%ADD15C,0.386625*%
%ADD16C,0.286825*%
%ADD17C,0.432099*%
%ADD18C,0.238803*%
%ADD19C,0.320185*%
%ADD20C,0.300000*%
%ADD21C,0.350000*%
%ADD22C,0.254000*%
%ADD23C,0.005000*%
%ADD24RoundRect,0.155000X0.212500X0.155000X-0.212500X0.155000X-0.212500X-0.155000X0.212500X-0.155000X0*%
%ADD25RoundRect,0.155000X-0.155000X0.212500X-0.155000X-0.212500X0.155000X-0.212500X0.155000X0.212500X0*%
%ADD26RoundRect,0.155000X0.259862X-0.040659X-0.040659X0.259862X-0.259862X0.040659X0.040659X-0.259862X0*%
%ADD27RoundRect,0.155000X-0.212500X-0.155000X0.212500X-0.155000X0.212500X0.155000X-0.212500X0.155000X0*%
%ADD28C,3.200000*%
%ADD29RoundRect,0.155000X0.155000X-0.212500X0.155000X0.212500X-0.155000X0.212500X-0.155000X-0.212500X0*%
%ADD30RoundRect,0.237500X0.237500X-0.300000X0.237500X0.300000X-0.237500X0.300000X-0.237500X-0.300000X0*%
%ADD31RoundRect,0.112500X0.112500X-0.487500X0.112500X0.487500X-0.112500X0.487500X-0.112500X-0.487500X0*%
%ADD32RoundRect,0.250000X-0.412500X-0.650000X0.412500X-0.650000X0.412500X0.650000X-0.412500X0.650000X0*%
%ADD33C,0.270000*%
%ADD34C,1.300000*%
%ADD35RoundRect,0.237500X-0.300000X-0.237500X0.300000X-0.237500X0.300000X0.237500X-0.300000X0.237500X0*%
%ADD36RoundRect,0.250000X0.650000X-0.412500X0.650000X0.412500X-0.650000X0.412500X-0.650000X-0.412500X0*%
%ADD37R,0.300000X0.650000*%
%ADD38RoundRect,0.250000X0.475000X-0.337500X0.475000X0.337500X-0.475000X0.337500X-0.475000X-0.337500X0*%
%ADD39RotRect,0.750000X0.700000X225.000000*%
%ADD40RoundRect,0.250000X0.337500X0.475000X-0.337500X0.475000X-0.337500X-0.475000X0.337500X-0.475000X0*%
%ADD41R,0.400000X0.400000*%
%ADD42R,0.650000X1.560000*%
%ADD43RoundRect,0.150000X-0.150000X-0.150000X0.150000X-0.150000X0.150000X0.150000X-0.150000X0.150000X0*%
%ADD44RoundRect,0.250000X-0.475000X0.337500X-0.475000X-0.337500X0.475000X-0.337500X0.475000X0.337500X0*%
%ADD45RoundRect,0.237500X0.300000X0.237500X-0.300000X0.237500X-0.300000X-0.237500X0.300000X-0.237500X0*%
%ADD46R,0.725000X0.250000*%
%ADD47R,0.775000X0.250000*%
%ADD48RoundRect,0.250000X0.412500X0.650000X-0.412500X0.650000X-0.412500X-0.650000X0.412500X-0.650000X0*%
%ADD49C,0.230000*%
%ADD50RoundRect,0.155000X0.040659X0.259862X-0.259862X-0.040659X-0.040659X-0.259862X0.259862X0.040659X0*%
%ADD51C,1.000000*%
%ADD52RoundRect,0.050000X0.100000X-0.285000X0.100000X0.285000X-0.100000X0.285000X-0.100000X-0.285000X0*%
%ADD53R,0.800000X0.300000*%
%ADD54R,0.300000X0.800000*%
%ADD55R,2.750000X2.650000*%
%ADD56C,2.000000*%
%ADD57R,0.900000X0.800000*%
%ADD58R,0.850000X0.200000*%
%ADD59R,0.200000X0.850000*%
%ADD60R,4.050000X4.050000*%
%ADD61RoundRect,0.250000X-0.337500X-0.475000X0.337500X-0.475000X0.337500X0.475000X-0.337500X0.475000X0*%
%ADD62R,0.400000X0.950000*%
%ADD63R,0.350000X2.300000*%
%ADD64R,1.300000X0.350000*%
%ADD65R,0.600000X0.700000*%
%ADD66C,1.200000*%
G04 APERTURE END LIST*
D10*
X200022807Y-58580622D02*
G75*
G03*
X202157521Y-66382486I-100507J-4220478D01*
G01*
D11*
G36*
X200881097Y-58297223D02*
G01*
X200929666Y-58299284D01*
X200976787Y-58302718D01*
X201022459Y-58307527D01*
X201066683Y-58313709D01*
X201109459Y-58321265D01*
X201150787Y-58330196D01*
X201190666Y-58340500D01*
X201229097Y-58352177D01*
X201266080Y-58365229D01*
X201301614Y-58379655D01*
X201335701Y-58395454D01*
X201368338Y-58412628D01*
X201399528Y-58431175D01*
X201429269Y-58451096D01*
X201457562Y-58472391D01*
X201484270Y-58494959D01*
X201509254Y-58518701D01*
X201532515Y-58543617D01*
X201554054Y-58569706D01*
X201573869Y-58596969D01*
X201591961Y-58625405D01*
X201608330Y-58655015D01*
X201622976Y-58685798D01*
X201635899Y-58717755D01*
X201647099Y-58750885D01*
X201656576Y-58785189D01*
X201664329Y-58820666D01*
X201670360Y-58857317D01*
X201674668Y-58895141D01*
X201677252Y-58934139D01*
X201678114Y-58974310D01*
X201677464Y-59009169D01*
X201675515Y-59043587D01*
X201672266Y-59077564D01*
X201667718Y-59111101D01*
X201661871Y-59144197D01*
X201654724Y-59176852D01*
X201646277Y-59209066D01*
X201636531Y-59240840D01*
X201625486Y-59272173D01*
X201613141Y-59303064D01*
X201599497Y-59333516D01*
X201584553Y-59363526D01*
X201568310Y-59393096D01*
X201550768Y-59422224D01*
X201531926Y-59450913D01*
X201511784Y-59479160D01*
X201490647Y-59506594D01*
X201468633Y-59533027D01*
X201445744Y-59558458D01*
X201421979Y-59582887D01*
X201397338Y-59606314D01*
X201371822Y-59628739D01*
X201345429Y-59650163D01*
X201318161Y-59670585D01*
X201290017Y-59690005D01*
X201260997Y-59708424D01*
X201231101Y-59725840D01*
X201200329Y-59742255D01*
X201168681Y-59757668D01*
X201136158Y-59772079D01*
X201102759Y-59785489D01*
X201068484Y-59797897D01*
X201114090Y-59822111D01*
X201156754Y-59848409D01*
X201196476Y-59876791D01*
X201233256Y-59907256D01*
X201267093Y-59939806D01*
X201297988Y-59974438D01*
X201325940Y-60011155D01*
X201350950Y-60049955D01*
X201373018Y-60090839D01*
X201392144Y-60133807D01*
X201408327Y-60178858D01*
X201421567Y-60225993D01*
X201431865Y-60275212D01*
X201439221Y-60326515D01*
X201443635Y-60379901D01*
X201445106Y-60435371D01*
X201444496Y-60471506D01*
X201442667Y-60507556D01*
X201439619Y-60543520D01*
X201435352Y-60579397D01*
X201429865Y-60615190D01*
X201423159Y-60650896D01*
X201415233Y-60686516D01*
X201406088Y-60722051D01*
X201395724Y-60757499D01*
X201384141Y-60792862D01*
X201371338Y-60828139D01*
X201357316Y-60863330D01*
X201342075Y-60898435D01*
X201325614Y-60933454D01*
X201307934Y-60968388D01*
X201289035Y-61003235D01*
X201269228Y-61037516D01*
X201248643Y-61070932D01*
X201227280Y-61103484D01*
X201205137Y-61135172D01*
X201182217Y-61165995D01*
X201158518Y-61195954D01*
X201134040Y-61225049D01*
X201108784Y-61253279D01*
X201082749Y-61280644D01*
X201055936Y-61307146D01*
X201028344Y-61332783D01*
X200999973Y-61357555D01*
X200970825Y-61381463D01*
X200940897Y-61404507D01*
X200910191Y-61426686D01*
X200878707Y-61448001D01*
X200834294Y-61475241D01*
X200787150Y-61500723D01*
X200737276Y-61524448D01*
X200684671Y-61546416D01*
X200629336Y-61566626D01*
X200600644Y-61576072D01*
X200571270Y-61585079D01*
X200541213Y-61593646D01*
X200510474Y-61601774D01*
X200479051Y-61609463D01*
X200446947Y-61616712D01*
X200414159Y-61623522D01*
X200380689Y-61629893D01*
X200346536Y-61635824D01*
X200311701Y-61641316D01*
X200276183Y-61646368D01*
X200239982Y-61650981D01*
X200203099Y-61655155D01*
X200165533Y-61658890D01*
X200127284Y-61662185D01*
X200088353Y-61665041D01*
X200048739Y-61667457D01*
X200008443Y-61669434D01*
X199967464Y-61670972D01*
X199925802Y-61672070D01*
X199883458Y-61672729D01*
X199840431Y-61672949D01*
X199537081Y-61672949D01*
X199512168Y-61730835D01*
X199494365Y-61770124D01*
X199477043Y-61807943D01*
X199460202Y-61844290D01*
X199443841Y-61879166D01*
X199427962Y-61912571D01*
X199412563Y-61944505D01*
X199397645Y-61974968D01*
X199383208Y-62003959D01*
X199369252Y-62031479D01*
X199355776Y-62057528D01*
X199336465Y-62093844D01*
X199318236Y-62126849D01*
X199301088Y-62156543D01*
X199285022Y-62182928D01*
X199269216Y-62207686D01*
X199252573Y-62232224D01*
X199235093Y-62256544D01*
X199216776Y-62280644D01*
X199197621Y-62304526D01*
X199177629Y-62328189D01*
X199156800Y-62351632D01*
X199135134Y-62374857D01*
X199112630Y-62397863D01*
X199089289Y-62420650D01*
X199073264Y-62435719D01*
X199029838Y-62473962D01*
X198985657Y-62509736D01*
X198940720Y-62543044D01*
X198895028Y-62573885D01*
X198848579Y-62602258D01*
X198801376Y-62628164D01*
X198753416Y-62651602D01*
X198704701Y-62672574D01*
X198655231Y-62691078D01*
X198605004Y-62707115D01*
X198554023Y-62720685D01*
X198502285Y-62731788D01*
X198449792Y-62740423D01*
X198396543Y-62746591D01*
X198342539Y-62750292D01*
X198287779Y-62751525D01*
X198243203Y-62750698D01*
X198199599Y-62748217D01*
X198156970Y-62744081D01*
X198115313Y-62738291D01*
X198074629Y-62730846D01*
X198034919Y-62721747D01*
X197996181Y-62710994D01*
X197958417Y-62698586D01*
X197921626Y-62684524D01*
X197885808Y-62668807D01*
X197850964Y-62651436D01*
X197817092Y-62632411D01*
X197784194Y-62611732D01*
X197752269Y-62589398D01*
X197721317Y-62565410D01*
X197691338Y-62539767D01*
X197662767Y-62512934D01*
X197636040Y-62485190D01*
X197611155Y-62456536D01*
X197588115Y-62426972D01*
X197566917Y-62396498D01*
X197547563Y-62365114D01*
X197530052Y-62332820D01*
X197514384Y-62299615D01*
X197500559Y-62265500D01*
X197488578Y-62230475D01*
X197478440Y-62194540D01*
X197470145Y-62157695D01*
X197463694Y-62119939D01*
X197459086Y-62081273D01*
X197456321Y-62041698D01*
X197455399Y-62001211D01*
X197456288Y-61962176D01*
X197456426Y-61960179D01*
X198020333Y-61960179D01*
X198022462Y-61995269D01*
X198028848Y-62028643D01*
X198039492Y-62060299D01*
X198054393Y-62090238D01*
X198073552Y-62118459D01*
X198096969Y-62144964D01*
X198107528Y-62155084D01*
X198130105Y-62173975D01*
X198160001Y-62194046D01*
X198191757Y-62210182D01*
X198225374Y-62222382D01*
X198260851Y-62230647D01*
X198290572Y-62234425D01*
X198321484Y-62235685D01*
X198356488Y-62234377D01*
X198391156Y-62230455D01*
X198425490Y-62223919D01*
X198459489Y-62214767D01*
X198493153Y-62203002D01*
X198526482Y-62188621D01*
X198559477Y-62171626D01*
X198592136Y-62152016D01*
X198624460Y-62129792D01*
X198656450Y-62104953D01*
X198677590Y-62086941D01*
X198708837Y-62058027D01*
X198739105Y-62027066D01*
X198758740Y-62005287D01*
X198777940Y-61982598D01*
X198796705Y-61958999D01*
X198815034Y-61934490D01*
X198832929Y-61909071D01*
X198850388Y-61882741D01*
X198867413Y-61855501D01*
X198884002Y-61827352D01*
X198900157Y-61798291D01*
X198915876Y-61768321D01*
X198931160Y-61737441D01*
X198946009Y-61705650D01*
X198960424Y-61672949D01*
X198424066Y-61672949D01*
X198375177Y-61674071D01*
X198329441Y-61677437D01*
X198286860Y-61683047D01*
X198247433Y-61690901D01*
X198211160Y-61700999D01*
X198178041Y-61713341D01*
X198148077Y-61727927D01*
X198121266Y-61744756D01*
X198097610Y-61763830D01*
X198077108Y-61785148D01*
X198052269Y-61821332D01*
X198039652Y-61848260D01*
X198030190Y-61877432D01*
X198023881Y-61908848D01*
X198020727Y-61942507D01*
X198020333Y-61960179D01*
X197456426Y-61960179D01*
X197458954Y-61923657D01*
X197463398Y-61885652D01*
X197469619Y-61848163D01*
X197477617Y-61811189D01*
X197487393Y-61774730D01*
X197498946Y-61738786D01*
X197512277Y-61703357D01*
X197527385Y-61668444D01*
X197544271Y-61634046D01*
X197556516Y-61611400D01*
X197576106Y-61578442D01*
X197596959Y-61546888D01*
X197619074Y-61516738D01*
X197642451Y-61487992D01*
X197667090Y-61460650D01*
X197692992Y-61434712D01*
X197720156Y-61410178D01*
X197748582Y-61387048D01*
X197778271Y-61365321D01*
X197809221Y-61344999D01*
X197830556Y-61332230D01*
X197859301Y-61316703D01*
X197889300Y-61302177D01*
X197920553Y-61288653D01*
X197953059Y-61276131D01*
X197986819Y-61264610D01*
X198021833Y-61254092D01*
X198058100Y-61244575D01*
X198095621Y-61236060D01*
X198134395Y-61228546D01*
X198174423Y-61222035D01*
X198215705Y-61216525D01*
X198258241Y-61212017D01*
X198302030Y-61208511D01*
X198347073Y-61206006D01*
X198393369Y-61204504D01*
X198440919Y-61204003D01*
X199159726Y-61204003D01*
X199739314Y-61204003D01*
X199906376Y-61204003D01*
X199960684Y-61203382D01*
X200013332Y-61201518D01*
X200064319Y-61198413D01*
X200113647Y-61194065D01*
X200161314Y-61188475D01*
X200207321Y-61181643D01*
X200251669Y-61173569D01*
X200294356Y-61164252D01*
X200335383Y-61153693D01*
X200374750Y-61141893D01*
X200412457Y-61128849D01*
X200448504Y-61114564D01*
X200482890Y-61099037D01*
X200515617Y-61082267D01*
X200546684Y-61064255D01*
X200576090Y-61045001D01*
X200603084Y-61025384D01*
X200629113Y-61004454D01*
X200654175Y-60982211D01*
X200678271Y-60958653D01*
X200701402Y-60933782D01*
X200723566Y-60907597D01*
X200744764Y-60880098D01*
X200764997Y-60851286D01*
X200784263Y-60821159D01*
X200802563Y-60789719D01*
X200814227Y-60768029D01*
X200830595Y-60735037D01*
X200845353Y-60702006D01*
X200858502Y-60668937D01*
X200870040Y-60635829D01*
X200879968Y-60602682D01*
X200888287Y-60569497D01*
X200894995Y-60536273D01*
X200900093Y-60503011D01*
X200903582Y-60469709D01*
X200905460Y-60436369D01*
X200905818Y-60414121D01*
X200904755Y-60375655D01*
X200901567Y-60339392D01*
X200896254Y-60305331D01*
X200888816Y-60273472D01*
X200879253Y-60243816D01*
X200867564Y-60216362D01*
X200848674Y-60183183D01*
X200826005Y-60153920D01*
X200799558Y-60128572D01*
X200784918Y-60117366D01*
X200752082Y-60097274D01*
X200723789Y-60083962D01*
X200692353Y-60072158D01*
X200657775Y-60061860D01*
X200620054Y-60053069D01*
X200579190Y-60045786D01*
X200535183Y-60040009D01*
X200504099Y-60036995D01*
X200471619Y-60034651D01*
X200437742Y-60032977D01*
X200402468Y-60031972D01*
X200365797Y-60031637D01*
X200194338Y-60031637D01*
X199739314Y-61204003D01*
X199159726Y-61204003D01*
X199821690Y-59545105D01*
X200394373Y-59545105D01*
X200518204Y-59542907D01*
X200553656Y-59542381D01*
X200588020Y-59540801D01*
X200621296Y-59538167D01*
X200653484Y-59534481D01*
X200684585Y-59529741D01*
X200714599Y-59523948D01*
X200743524Y-59517101D01*
X200784873Y-59504857D01*
X200823775Y-59490242D01*
X200860230Y-59473258D01*
X200894237Y-59453904D01*
X200925798Y-59432179D01*
X200954911Y-59408085D01*
X200978767Y-59384872D01*
X201001336Y-59359656D01*
X201022616Y-59332437D01*
X201042609Y-59303213D01*
X201061314Y-59271986D01*
X201075350Y-59245562D01*
X201085336Y-59224903D01*
X201097701Y-59197128D01*
X201110839Y-59163118D01*
X201121400Y-59129894D01*
X201129386Y-59097458D01*
X201134796Y-59065809D01*
X201137629Y-59034947D01*
X201138093Y-59016808D01*
X201136773Y-58985540D01*
X201132812Y-58956306D01*
X201123424Y-58920494D01*
X201109342Y-58888300D01*
X201090566Y-58859724D01*
X201067095Y-58834765D01*
X201038931Y-58813424D01*
X201006073Y-58795701D01*
X200987883Y-58788197D01*
X200955781Y-58779346D01*
X200925338Y-58774355D01*
X200888634Y-58770473D01*
X200854762Y-58768166D01*
X200816884Y-58766569D01*
X200785845Y-58765837D01*
X200752552Y-58765504D01*
X200740954Y-58765482D01*
X200709447Y-58765482D01*
X200394373Y-59545105D01*
X199821690Y-59545105D01*
X200132789Y-58765482D01*
X199899782Y-58765482D01*
X199844094Y-58765482D01*
X199802846Y-58763827D01*
X199765655Y-58758862D01*
X199732521Y-58750586D01*
X199703445Y-58739001D01*
X199670987Y-58718404D01*
X199645742Y-58691923D01*
X199627710Y-58659557D01*
X199618920Y-58631421D01*
X199614186Y-58599974D01*
X199613285Y-58577171D01*
X199615592Y-58541200D01*
X199622515Y-58507018D01*
X199634054Y-58474625D01*
X199650207Y-58444020D01*
X199670976Y-58415205D01*
X199690915Y-58393441D01*
X199707807Y-58377869D01*
X199732261Y-58358806D01*
X199757999Y-58342286D01*
X199785018Y-58328307D01*
X199813320Y-58316869D01*
X199842903Y-58307973D01*
X199873770Y-58301619D01*
X199905918Y-58297807D01*
X199939349Y-58296536D01*
X199994304Y-58296536D01*
X200831080Y-58296536D01*
X200881097Y-58297223D01*
G37*
D12*
X200952636Y-26389458D02*
X201124064Y-26446601D01*
X201124064Y-26446601D02*
X201181207Y-26503744D01*
X201181207Y-26503744D02*
X201238350Y-26618029D01*
X201238350Y-26618029D02*
X201238350Y-26789458D01*
X201238350Y-26789458D02*
X201181207Y-26903744D01*
X201181207Y-26903744D02*
X201124064Y-26960887D01*
X201124064Y-26960887D02*
X201009779Y-27018029D01*
X201009779Y-27018029D02*
X200552636Y-27018029D01*
X200552636Y-27018029D02*
X200552636Y-25818029D01*
X200552636Y-25818029D02*
X200952636Y-25818029D01*
X200952636Y-25818029D02*
X201066922Y-25875172D01*
X201066922Y-25875172D02*
X201124064Y-25932315D01*
X201124064Y-25932315D02*
X201181207Y-26046601D01*
X201181207Y-26046601D02*
X201181207Y-26160887D01*
X201181207Y-26160887D02*
X201124064Y-26275172D01*
X201124064Y-26275172D02*
X201066922Y-26332315D01*
X201066922Y-26332315D02*
X200952636Y-26389458D01*
X200952636Y-26389458D02*
X200552636Y-26389458D01*
X201924064Y-27018029D02*
X201809779Y-26960887D01*
X201809779Y-26960887D02*
X201752636Y-26903744D01*
X201752636Y-26903744D02*
X201695493Y-26789458D01*
X201695493Y-26789458D02*
X201695493Y-26446601D01*
X201695493Y-26446601D02*
X201752636Y-26332315D01*
X201752636Y-26332315D02*
X201809779Y-26275172D01*
X201809779Y-26275172D02*
X201924064Y-26218029D01*
X201924064Y-26218029D02*
X202095493Y-26218029D01*
X202095493Y-26218029D02*
X202209779Y-26275172D01*
X202209779Y-26275172D02*
X202266922Y-26332315D01*
X202266922Y-26332315D02*
X202324064Y-26446601D01*
X202324064Y-26446601D02*
X202324064Y-26789458D01*
X202324064Y-26789458D02*
X202266922Y-26903744D01*
X202266922Y-26903744D02*
X202209779Y-26960887D01*
X202209779Y-26960887D02*
X202095493Y-27018029D01*
X202095493Y-27018029D02*
X201924064Y-27018029D01*
X203009778Y-27018029D02*
X202895493Y-26960887D01*
X202895493Y-26960887D02*
X202838350Y-26903744D01*
X202838350Y-26903744D02*
X202781207Y-26789458D01*
X202781207Y-26789458D02*
X202781207Y-26446601D01*
X202781207Y-26446601D02*
X202838350Y-26332315D01*
X202838350Y-26332315D02*
X202895493Y-26275172D01*
X202895493Y-26275172D02*
X203009778Y-26218029D01*
X203009778Y-26218029D02*
X203181207Y-26218029D01*
X203181207Y-26218029D02*
X203295493Y-26275172D01*
X203295493Y-26275172D02*
X203352636Y-26332315D01*
X203352636Y-26332315D02*
X203409778Y-26446601D01*
X203409778Y-26446601D02*
X203409778Y-26789458D01*
X203409778Y-26789458D02*
X203352636Y-26903744D01*
X203352636Y-26903744D02*
X203295493Y-26960887D01*
X203295493Y-26960887D02*
X203181207Y-27018029D01*
X203181207Y-27018029D02*
X203009778Y-27018029D01*
X203752635Y-26218029D02*
X204209778Y-26218029D01*
X203924064Y-25818029D02*
X203924064Y-26846601D01*
X203924064Y-26846601D02*
X203981207Y-26960887D01*
X203981207Y-26960887D02*
X204095492Y-27018029D01*
X204095492Y-27018029D02*
X204209778Y-27018029D01*
X215638350Y-31920229D02*
X215238350Y-31348801D01*
X214952636Y-31920229D02*
X214952636Y-30720229D01*
X214952636Y-30720229D02*
X215409779Y-30720229D01*
X215409779Y-30720229D02*
X215524064Y-30777372D01*
X215524064Y-30777372D02*
X215581207Y-30834515D01*
X215581207Y-30834515D02*
X215638350Y-30948801D01*
X215638350Y-30948801D02*
X215638350Y-31120229D01*
X215638350Y-31120229D02*
X215581207Y-31234515D01*
X215581207Y-31234515D02*
X215524064Y-31291658D01*
X215524064Y-31291658D02*
X215409779Y-31348801D01*
X215409779Y-31348801D02*
X214952636Y-31348801D01*
X216609779Y-31863087D02*
X216495493Y-31920229D01*
X216495493Y-31920229D02*
X216266922Y-31920229D01*
X216266922Y-31920229D02*
X216152636Y-31863087D01*
X216152636Y-31863087D02*
X216095493Y-31748801D01*
X216095493Y-31748801D02*
X216095493Y-31291658D01*
X216095493Y-31291658D02*
X216152636Y-31177372D01*
X216152636Y-31177372D02*
X216266922Y-31120229D01*
X216266922Y-31120229D02*
X216495493Y-31120229D01*
X216495493Y-31120229D02*
X216609779Y-31177372D01*
X216609779Y-31177372D02*
X216666922Y-31291658D01*
X216666922Y-31291658D02*
X216666922Y-31405944D01*
X216666922Y-31405944D02*
X216095493Y-31520229D01*
X217124064Y-31863087D02*
X217238350Y-31920229D01*
X217238350Y-31920229D02*
X217466921Y-31920229D01*
X217466921Y-31920229D02*
X217581207Y-31863087D01*
X217581207Y-31863087D02*
X217638350Y-31748801D01*
X217638350Y-31748801D02*
X217638350Y-31691658D01*
X217638350Y-31691658D02*
X217581207Y-31577372D01*
X217581207Y-31577372D02*
X217466921Y-31520229D01*
X217466921Y-31520229D02*
X217295493Y-31520229D01*
X217295493Y-31520229D02*
X217181207Y-31463087D01*
X217181207Y-31463087D02*
X217124064Y-31348801D01*
X217124064Y-31348801D02*
X217124064Y-31291658D01*
X217124064Y-31291658D02*
X217181207Y-31177372D01*
X217181207Y-31177372D02*
X217295493Y-31120229D01*
X217295493Y-31120229D02*
X217466921Y-31120229D01*
X217466921Y-31120229D02*
X217581207Y-31177372D01*
X218609779Y-31863087D02*
X218495493Y-31920229D01*
X218495493Y-31920229D02*
X218266922Y-31920229D01*
X218266922Y-31920229D02*
X218152636Y-31863087D01*
X218152636Y-31863087D02*
X218095493Y-31748801D01*
X218095493Y-31748801D02*
X218095493Y-31291658D01*
X218095493Y-31291658D02*
X218152636Y-31177372D01*
X218152636Y-31177372D02*
X218266922Y-31120229D01*
X218266922Y-31120229D02*
X218495493Y-31120229D01*
X218495493Y-31120229D02*
X218609779Y-31177372D01*
X218609779Y-31177372D02*
X218666922Y-31291658D01*
X218666922Y-31291658D02*
X218666922Y-31405944D01*
X218666922Y-31405944D02*
X218095493Y-31520229D01*
X219009778Y-31120229D02*
X219466921Y-31120229D01*
X219181207Y-30720229D02*
X219181207Y-31748801D01*
X219181207Y-31748801D02*
X219238350Y-31863087D01*
X219238350Y-31863087D02*
X219352635Y-31920229D01*
X219352635Y-31920229D02*
X219466921Y-31920229D01*
D11*
G36*
X201401234Y-61154497D02*
G01*
X201449803Y-61156558D01*
X201496924Y-61159992D01*
X201542596Y-61164801D01*
X201586820Y-61170983D01*
X201629596Y-61178539D01*
X201670924Y-61187470D01*
X201710803Y-61197774D01*
X201749234Y-61209451D01*
X201786217Y-61222503D01*
X201821751Y-61236929D01*
X201855838Y-61252728D01*
X201888475Y-61269902D01*
X201919665Y-61288449D01*
X201949406Y-61308370D01*
X201977699Y-61329665D01*
X202004407Y-61352233D01*
X202029391Y-61375975D01*
X202052652Y-61400891D01*
X202074191Y-61426980D01*
X202094006Y-61454243D01*
X202112098Y-61482679D01*
X202128467Y-61512289D01*
X202143113Y-61543072D01*
X202156036Y-61575029D01*
X202167236Y-61608159D01*
X202176713Y-61642463D01*
X202184466Y-61677940D01*
X202190497Y-61714591D01*
X202194805Y-61752415D01*
X202197389Y-61791413D01*
X202198251Y-61831584D01*
X202197601Y-61866443D01*
X202195652Y-61900861D01*
X202192403Y-61934838D01*
X202187855Y-61968375D01*
X202182008Y-62001471D01*
X202174861Y-62034126D01*
X202166414Y-62066340D01*
X202156668Y-62098114D01*
X202145623Y-62129447D01*
X202133278Y-62160338D01*
X202119634Y-62190790D01*
X202104690Y-62220800D01*
X202088447Y-62250370D01*
X202070905Y-62279498D01*
X202052063Y-62308187D01*
X202031921Y-62336434D01*
X202010784Y-62363868D01*
X201988770Y-62390301D01*
X201965881Y-62415732D01*
X201942116Y-62440161D01*
X201917475Y-62463588D01*
X201891959Y-62486013D01*
X201865566Y-62507437D01*
X201838298Y-62527859D01*
X201810154Y-62547279D01*
X201781134Y-62565698D01*
X201751238Y-62583114D01*
X201720466Y-62599529D01*
X201688818Y-62614942D01*
X201656295Y-62629353D01*
X201622896Y-62642763D01*
X201588621Y-62655171D01*
X201634227Y-62679385D01*
X201676891Y-62705683D01*
X201716613Y-62734065D01*
X201753393Y-62764530D01*
X201787230Y-62797080D01*
X201818125Y-62831712D01*
X201846077Y-62868429D01*
X201871087Y-62907229D01*
X201893155Y-62948113D01*
X201912281Y-62991081D01*
X201928464Y-63036132D01*
X201941704Y-63083267D01*
X201952002Y-63132486D01*
X201959358Y-63183789D01*
X201963772Y-63237175D01*
X201965243Y-63292645D01*
X201964633Y-63328780D01*
X201962804Y-63364830D01*
X201959756Y-63400794D01*
X201955489Y-63436671D01*
X201950002Y-63472464D01*
X201943296Y-63508170D01*
X201935370Y-63543790D01*
X201926225Y-63579325D01*
X201915861Y-63614773D01*
X201904278Y-63650136D01*
X201891475Y-63685413D01*
X201877453Y-63720604D01*
X201862212Y-63755709D01*
X201845751Y-63790728D01*
X201828071Y-63825662D01*
X201809172Y-63860509D01*
X201789365Y-63894790D01*
X201768780Y-63928206D01*
X201747417Y-63960758D01*
X201725274Y-63992446D01*
X201702354Y-64023269D01*
X201678655Y-64053228D01*
X201654177Y-64082323D01*
X201628921Y-64110553D01*
X201602886Y-64137918D01*
X201576073Y-64164420D01*
X201548481Y-64190057D01*
X201520110Y-64214829D01*
X201490962Y-64238737D01*
X201461034Y-64261781D01*
X201430328Y-64283960D01*
X201398844Y-64305275D01*
X201354431Y-64332515D01*
X201307287Y-64357997D01*
X201257413Y-64381722D01*
X201204808Y-64403690D01*
X201149473Y-64423900D01*
X201120781Y-64433346D01*
X201091407Y-64442353D01*
X201061350Y-64450920D01*
X201030611Y-64459048D01*
X200999188Y-64466737D01*
X200967084Y-64473986D01*
X200934296Y-64480796D01*
X200900826Y-64487167D01*
X200866673Y-64493098D01*
X200831838Y-64498590D01*
X200796320Y-64503642D01*
X200760119Y-64508255D01*
X200723236Y-64512429D01*
X200685670Y-64516164D01*
X200647421Y-64519459D01*
X200608490Y-64522315D01*
X200568876Y-64524731D01*
X200528580Y-64526708D01*
X200487601Y-64528246D01*
X200445939Y-64529344D01*
X200403595Y-64530003D01*
X200360568Y-64530223D01*
X200057218Y-64530223D01*
X200032305Y-64588109D01*
X200014502Y-64627398D01*
X199997180Y-64665217D01*
X199980339Y-64701564D01*
X199963978Y-64736440D01*
X199948099Y-64769845D01*
X199932700Y-64801779D01*
X199917782Y-64832242D01*
X199903345Y-64861233D01*
X199889389Y-64888753D01*
X199875913Y-64914802D01*
X199856602Y-64951118D01*
X199838373Y-64984123D01*
X199821225Y-65013817D01*
X199805159Y-65040202D01*
X199789353Y-65064960D01*
X199772710Y-65089498D01*
X199755230Y-65113818D01*
X199736913Y-65137918D01*
X199717758Y-65161800D01*
X199697766Y-65185463D01*
X199676937Y-65208906D01*
X199655271Y-65232131D01*
X199632767Y-65255137D01*
X199609426Y-65277924D01*
X199593401Y-65292993D01*
X199549975Y-65331236D01*
X199505794Y-65367010D01*
X199460857Y-65400318D01*
X199415165Y-65431159D01*
X199368716Y-65459532D01*
X199321513Y-65485438D01*
X199273553Y-65508876D01*
X199224838Y-65529848D01*
X199175368Y-65548352D01*
X199125141Y-65564389D01*
X199074160Y-65577959D01*
X199022422Y-65589062D01*
X198969929Y-65597697D01*
X198916680Y-65603865D01*
X198862676Y-65607566D01*
X198807916Y-65608799D01*
X198763340Y-65607972D01*
X198719736Y-65605491D01*
X198677107Y-65601355D01*
X198635450Y-65595565D01*
X198594766Y-65588120D01*
X198555056Y-65579021D01*
X198516318Y-65568268D01*
X198478554Y-65555860D01*
X198441763Y-65541798D01*
X198405945Y-65526081D01*
X198371101Y-65508710D01*
X198337229Y-65489685D01*
X198304331Y-65469006D01*
X198272406Y-65446672D01*
X198241454Y-65422684D01*
X198211475Y-65397041D01*
X198182904Y-65370208D01*
X198156177Y-65342464D01*
X198131292Y-65313810D01*
X198108252Y-65284246D01*
X198087054Y-65253772D01*
X198067700Y-65222388D01*
X198050189Y-65190094D01*
X198034521Y-65156889D01*
X198020696Y-65122774D01*
X198008715Y-65087749D01*
X197998577Y-65051814D01*
X197990282Y-65014969D01*
X197983831Y-64977213D01*
X197979223Y-64938547D01*
X197976458Y-64898972D01*
X197975536Y-64858485D01*
X197976425Y-64819450D01*
X197976563Y-64817453D01*
X198540470Y-64817453D01*
X198542599Y-64852543D01*
X198548985Y-64885917D01*
X198559629Y-64917573D01*
X198574530Y-64947512D01*
X198593689Y-64975733D01*
X198617106Y-65002238D01*
X198627665Y-65012358D01*
X198650242Y-65031249D01*
X198680138Y-65051320D01*
X198711894Y-65067456D01*
X198745511Y-65079656D01*
X198780988Y-65087921D01*
X198810709Y-65091699D01*
X198841621Y-65092959D01*
X198876625Y-65091651D01*
X198911293Y-65087729D01*
X198945627Y-65081193D01*
X198979626Y-65072041D01*
X199013290Y-65060276D01*
X199046619Y-65045895D01*
X199079614Y-65028900D01*
X199112273Y-65009290D01*
X199144597Y-64987066D01*
X199176587Y-64962227D01*
X199197727Y-64944215D01*
X199228974Y-64915301D01*
X199259242Y-64884340D01*
X199278877Y-64862561D01*
X199298077Y-64839872D01*
X199316842Y-64816273D01*
X199335171Y-64791764D01*
X199353066Y-64766345D01*
X199370525Y-64740015D01*
X199387550Y-64712775D01*
X199404139Y-64684626D01*
X199420294Y-64655565D01*
X199436013Y-64625595D01*
X199451297Y-64594715D01*
X199466146Y-64562924D01*
X199480561Y-64530223D01*
X198944203Y-64530223D01*
X198895314Y-64531345D01*
X198849578Y-64534711D01*
X198806997Y-64540321D01*
X198767570Y-64548175D01*
X198731297Y-64558273D01*
X198698178Y-64570615D01*
X198668214Y-64585201D01*
X198641403Y-64602030D01*
X198617747Y-64621104D01*
X198597245Y-64642422D01*
X198572406Y-64678606D01*
X198559789Y-64705534D01*
X198550327Y-64734706D01*
X198544018Y-64766122D01*
X198540864Y-64799781D01*
X198540470Y-64817453D01*
X197976563Y-64817453D01*
X197979091Y-64780931D01*
X197983535Y-64742926D01*
X197989756Y-64705437D01*
X197997754Y-64668463D01*
X198007530Y-64632004D01*
X198019083Y-64596060D01*
X198032414Y-64560631D01*
X198047522Y-64525718D01*
X198064408Y-64491320D01*
X198076653Y-64468674D01*
X198096243Y-64435716D01*
X198117096Y-64404162D01*
X198139211Y-64374012D01*
X198162588Y-64345266D01*
X198187227Y-64317924D01*
X198213129Y-64291986D01*
X198240293Y-64267452D01*
X198268719Y-64244322D01*
X198298408Y-64222595D01*
X198329358Y-64202273D01*
X198350693Y-64189504D01*
X198379438Y-64173977D01*
X198409437Y-64159451D01*
X198440690Y-64145927D01*
X198473196Y-64133405D01*
X198506956Y-64121884D01*
X198541970Y-64111366D01*
X198578237Y-64101849D01*
X198615758Y-64093334D01*
X198654532Y-64085820D01*
X198694560Y-64079309D01*
X198735842Y-64073799D01*
X198778378Y-64069291D01*
X198822167Y-64065785D01*
X198867210Y-64063280D01*
X198913506Y-64061778D01*
X198961056Y-64061277D01*
X199679863Y-64061277D01*
X200259451Y-64061277D01*
X200426513Y-64061277D01*
X200480821Y-64060656D01*
X200533469Y-64058792D01*
X200584456Y-64055687D01*
X200633784Y-64051339D01*
X200681451Y-64045749D01*
X200727458Y-64038917D01*
X200771806Y-64030843D01*
X200814493Y-64021526D01*
X200855520Y-64010967D01*
X200894887Y-63999167D01*
X200932594Y-63986123D01*
X200968641Y-63971838D01*
X201003027Y-63956311D01*
X201035754Y-63939541D01*
X201066821Y-63921529D01*
X201096227Y-63902275D01*
X201123221Y-63882658D01*
X201149250Y-63861728D01*
X201174312Y-63839485D01*
X201198408Y-63815927D01*
X201221539Y-63791056D01*
X201243703Y-63764871D01*
X201264901Y-63737372D01*
X201285134Y-63708560D01*
X201304400Y-63678433D01*
X201322700Y-63646993D01*
X201334364Y-63625303D01*
X201350732Y-63592311D01*
X201365490Y-63559280D01*
X201378639Y-63526211D01*
X201390177Y-63493103D01*
X201400105Y-63459956D01*
X201408424Y-63426771D01*
X201415132Y-63393547D01*
X201420230Y-63360285D01*
X201423719Y-63326983D01*
X201425597Y-63293643D01*
X201425955Y-63271395D01*
X201424892Y-63232929D01*
X201421704Y-63196666D01*
X201416391Y-63162605D01*
X201408953Y-63130746D01*
X201399390Y-63101090D01*
X201387701Y-63073636D01*
X201368811Y-63040457D01*
X201346142Y-63011194D01*
X201319695Y-62985846D01*
X201305055Y-62974640D01*
X201272219Y-62954548D01*
X201243926Y-62941236D01*
X201212490Y-62929432D01*
X201177912Y-62919134D01*
X201140191Y-62910343D01*
X201099327Y-62903060D01*
X201055320Y-62897283D01*
X201024236Y-62894269D01*
X200991756Y-62891925D01*
X200957879Y-62890251D01*
X200922605Y-62889246D01*
X200885934Y-62888911D01*
X200714475Y-62888911D01*
X200259451Y-64061277D01*
X199679863Y-64061277D01*
X200341827Y-62402379D01*
X200914510Y-62402379D01*
X201038341Y-62400181D01*
X201073793Y-62399655D01*
X201108157Y-62398075D01*
X201141433Y-62395441D01*
X201173621Y-62391755D01*
X201204722Y-62387015D01*
X201234736Y-62381222D01*
X201263661Y-62374375D01*
X201305010Y-62362131D01*
X201343912Y-62347516D01*
X201380367Y-62330532D01*
X201414374Y-62311178D01*
X201445935Y-62289453D01*
X201475048Y-62265359D01*
X201498904Y-62242146D01*
X201521473Y-62216930D01*
X201542753Y-62189711D01*
X201562746Y-62160487D01*
X201581451Y-62129260D01*
X201595487Y-62102836D01*
X201605473Y-62082177D01*
X201617838Y-62054402D01*
X201630976Y-62020392D01*
X201641537Y-61987168D01*
X201649523Y-61954732D01*
X201654933Y-61923083D01*
X201657766Y-61892221D01*
X201658230Y-61874082D01*
X201656910Y-61842814D01*
X201652949Y-61813580D01*
X201643561Y-61777768D01*
X201629479Y-61745574D01*
X201610703Y-61716998D01*
X201587232Y-61692039D01*
X201559068Y-61670698D01*
X201526210Y-61652975D01*
X201508020Y-61645471D01*
X201475918Y-61636620D01*
X201445475Y-61631629D01*
X201408771Y-61627747D01*
X201374899Y-61625440D01*
X201337021Y-61623843D01*
X201305982Y-61623111D01*
X201272689Y-61622778D01*
X201261091Y-61622756D01*
X201229584Y-61622756D01*
X200914510Y-62402379D01*
X200341827Y-62402379D01*
X200652926Y-61622756D01*
X200419919Y-61622756D01*
X200364231Y-61622756D01*
X200322983Y-61621101D01*
X200285792Y-61616136D01*
X200252658Y-61607860D01*
X200223582Y-61596275D01*
X200191124Y-61575678D01*
X200165879Y-61549197D01*
X200147847Y-61516831D01*
X200139057Y-61488695D01*
X200134323Y-61457248D01*
X200133422Y-61434445D01*
X200135729Y-61398474D01*
X200142652Y-61364292D01*
X200154191Y-61331899D01*
X200170344Y-61301294D01*
X200191113Y-61272479D01*
X200211052Y-61250715D01*
X200227944Y-61235143D01*
X200252398Y-61216080D01*
X200278136Y-61199560D01*
X200305155Y-61185581D01*
X200333457Y-61174143D01*
X200363040Y-61165247D01*
X200393907Y-61158893D01*
X200426055Y-61155081D01*
X200459486Y-61153810D01*
X200514441Y-61153810D01*
X201351217Y-61153810D01*
X201401234Y-61154497D01*
G37*
D12*
X186426822Y-55283787D02*
G75*
G03*
X186426822Y-55283787I-100000J0D01*
G01*
D13*
X196751822Y-36802987D02*
X197056622Y-36802987D01*
X197055822Y-36799587D02*
X197055822Y-36494787D01*
X197056822Y-32210187D02*
X197056822Y-31905387D01*
X195040822Y-31910987D02*
X195040822Y-32215787D01*
X195344822Y-31907587D02*
X195040022Y-31907587D01*
X197053422Y-31906187D02*
X196748622Y-31906187D01*
D14*
X195098222Y-36767787D02*
G75*
G03*
X195098222Y-36767787I-152400J0D01*
G01*
D12*
X232086822Y-52063787D02*
G75*
G03*
X232086822Y-52063787I-100000J0D01*
G01*
D15*
X232551134Y-63501287D02*
G75*
G03*
X232551134Y-63501287I-193312J0D01*
G01*
D12*
X207558946Y-59887506D02*
G75*
G03*
X207558946Y-59887506I-100000J0D01*
G01*
D16*
X217004234Y-51261987D02*
G75*
G03*
X217004234Y-51261987I-143412J0D01*
G01*
D17*
X187877572Y-48331787D02*
G75*
G03*
X187877572Y-48331787I-216049J0D01*
G01*
D18*
X230359723Y-48520187D02*
G75*
G03*
X230359723Y-48520187I-119401J0D01*
G01*
D13*
X197088822Y-47728287D02*
X196813822Y-47728287D01*
X197088822Y-47453287D02*
X197088822Y-47728287D01*
X195242822Y-46707787D02*
X195242822Y-46432787D01*
X195242822Y-46432787D02*
X195517822Y-46432787D01*
X196812322Y-46432287D02*
X197087322Y-46432287D01*
X197087322Y-46432287D02*
X197087322Y-46707287D01*
D12*
X195216822Y-47731287D02*
G75*
G03*
X195216822Y-47731287I-100000J0D01*
G01*
D19*
X195176729Y-53043787D02*
G75*
G03*
X195176729Y-53043787I-160092J0D01*
G01*
D20*
X209368822Y-42647787D02*
G75*
G03*
X209368822Y-42647787I-150000J0D01*
G01*
D21*
X224969822Y-47884587D02*
G75*
G03*
X224969822Y-47884587I-175000J0D01*
G01*
D12*
X232336822Y-20473787D02*
G75*
G03*
X232336822Y-20473787I-100000J0D01*
G01*
D20*
X209068822Y-55205787D02*
G75*
G03*
X209068822Y-55205787I-150000J0D01*
G01*
D13*
X215347822Y-32964387D02*
X215347822Y-32464387D01*
X215347822Y-32464387D02*
X214847822Y-32464387D01*
X212647822Y-36664387D02*
X212147822Y-36664387D01*
X212647822Y-32464387D02*
X212147822Y-32464387D01*
X212147822Y-36664387D02*
X212147822Y-36164387D01*
X212147822Y-32464387D02*
X212147822Y-32964387D01*
D22*
X215847822Y-37114387D02*
G75*
G03*
X215847822Y-37114387I-100000J0D01*
G01*
D20*
X220446822Y-33088787D02*
G75*
G03*
X220446822Y-33088787I-100000J0D01*
G01*
D12*
X187833622Y-42368387D02*
G75*
G03*
X187833622Y-42368387I-100000J0D01*
G01*
%LPC*%
D23*
X195641467Y-47405932D02*
X195491467Y-47405932D01*
X196041467Y-47405932D02*
X195891467Y-47405932D01*
X196441467Y-47405932D02*
X196291467Y-47405932D01*
X196841467Y-47405932D02*
X196691467Y-47405932D01*
X196241467Y-47356287D02*
X196241467Y-47206287D01*
X195441467Y-47355932D02*
X195441467Y-47205932D01*
X195841467Y-47355932D02*
X195841467Y-47205932D01*
X196641467Y-47355932D02*
X196641467Y-47205932D01*
X195691467Y-47205932D02*
X195691467Y-47355932D01*
X196091467Y-47205932D02*
X196091467Y-47355932D01*
X196491467Y-47205932D02*
X196491467Y-47355932D01*
X196891467Y-47205932D02*
X196891467Y-47355932D01*
X195491467Y-47155932D02*
X195641467Y-47155932D01*
X195891467Y-47155932D02*
X196041467Y-47155932D01*
X196291467Y-47155932D02*
X196441467Y-47155932D01*
X196691467Y-47155932D02*
X196841467Y-47155932D01*
X195641822Y-47006287D02*
X195491822Y-47006287D01*
X196041822Y-47006287D02*
X195891822Y-47006287D01*
X196441822Y-47006287D02*
X196291822Y-47006287D01*
X196841822Y-47006287D02*
X196691822Y-47006287D01*
X195441822Y-46956287D02*
X195441822Y-46806287D01*
X195841822Y-46956287D02*
X195841822Y-46806287D01*
X196241822Y-46956287D02*
X196241822Y-46806287D01*
X196641822Y-46956287D02*
X196641822Y-46806287D01*
X195691822Y-46806287D02*
X195691822Y-46956287D01*
X196091822Y-46806287D02*
X196091822Y-46956287D01*
X196491822Y-46806287D02*
X196491822Y-46956287D01*
X196891822Y-46806287D02*
X196891822Y-46956287D01*
X195491822Y-46756287D02*
X195641822Y-46756287D01*
X195891822Y-46756287D02*
X196041822Y-46756287D01*
X196291822Y-46756287D02*
X196441822Y-46756287D01*
X196691822Y-46756287D02*
X196841822Y-46756287D01*
X195441467Y-47355932D02*
G75*
G03*
X195491467Y-47405932I50001J1D01*
G01*
X195841467Y-47355932D02*
G75*
G03*
X195891467Y-47405932I50001J1D01*
G01*
X196241467Y-47355932D02*
G75*
G03*
X196291467Y-47405932I50001J1D01*
G01*
X196641467Y-47355932D02*
G75*
G03*
X196691467Y-47405932I50001J1D01*
G01*
X195641467Y-47405932D02*
G75*
G03*
X195691467Y-47355932I-1J50001D01*
G01*
X196041467Y-47405932D02*
G75*
G03*
X196091467Y-47355932I-1J50001D01*
G01*
X196441467Y-47405932D02*
G75*
G03*
X196491467Y-47355932I-1J50001D01*
G01*
X196841467Y-47405932D02*
G75*
G03*
X196891467Y-47355932I-1J50001D01*
G01*
X195491467Y-47155932D02*
G75*
G03*
X195441467Y-47205932I5J-50005D01*
G01*
X195891467Y-47155932D02*
G75*
G03*
X195841467Y-47205932I5J-50005D01*
G01*
X196291467Y-47155932D02*
G75*
G03*
X196241467Y-47205932I5J-50005D01*
G01*
X196691467Y-47155932D02*
G75*
G03*
X196641467Y-47205932I5J-50005D01*
G01*
X195691467Y-47205932D02*
G75*
G03*
X195641467Y-47155932I-50005J-5D01*
G01*
X196091467Y-47205932D02*
G75*
G03*
X196041467Y-47155932I-50005J-5D01*
G01*
X196491467Y-47205932D02*
G75*
G03*
X196441467Y-47155932I-50005J-5D01*
G01*
X196891467Y-47205932D02*
G75*
G03*
X196841467Y-47155932I-50005J-5D01*
G01*
X195441822Y-46956287D02*
G75*
G03*
X195491822Y-47006287I50000J0D01*
G01*
X195841822Y-46956287D02*
G75*
G03*
X195891822Y-47006287I50000J0D01*
G01*
X196241822Y-46956287D02*
G75*
G03*
X196291822Y-47006287I50000J0D01*
G01*
X196641822Y-46956287D02*
G75*
G03*
X196691822Y-47006287I50000J0D01*
G01*
X195641822Y-47006287D02*
G75*
G03*
X195691822Y-46956287I0J50000D01*
G01*
X196041822Y-47006287D02*
G75*
G03*
X196091822Y-46956287I0J50000D01*
G01*
X196441822Y-47006287D02*
G75*
G03*
X196491822Y-46956287I0J50000D01*
G01*
X196841822Y-47006287D02*
G75*
G03*
X196891822Y-46956287I0J50000D01*
G01*
X195491822Y-46756287D02*
G75*
G03*
X195441822Y-46806287I0J-50000D01*
G01*
X195891822Y-46756287D02*
G75*
G03*
X195841822Y-46806287I0J-50000D01*
G01*
X196291822Y-46756287D02*
G75*
G03*
X196241822Y-46806287I0J-50000D01*
G01*
X196691822Y-46756287D02*
G75*
G03*
X196641822Y-46806287I0J-50000D01*
G01*
X195691822Y-46806287D02*
G75*
G03*
X195641822Y-46756287I-50000J0D01*
G01*
X196091822Y-46806287D02*
G75*
G03*
X196041822Y-46756287I-50000J0D01*
G01*
X196491822Y-46806287D02*
G75*
G03*
X196441822Y-46756287I-50000J0D01*
G01*
X196891822Y-46806287D02*
G75*
G03*
X196841822Y-46756287I-50000J0D01*
G01*
D24*
X199881822Y-33423787D03*
X198746822Y-33423787D03*
D25*
X202236822Y-33363787D03*
X202236822Y-34498787D03*
D26*
X210882422Y-55967787D03*
X210079856Y-55165221D03*
D24*
X208941822Y-37313787D03*
X207806822Y-37313787D03*
X199434322Y-46315787D03*
X198299322Y-46315787D03*
D27*
X198756822Y-32243787D03*
X199891822Y-32243787D03*
D28*
X231536922Y-67631687D03*
D29*
X198516822Y-49551287D03*
X198516822Y-48416287D03*
D24*
X214221822Y-58413787D03*
X213086822Y-58413787D03*
D30*
X211587822Y-40529387D03*
X211587822Y-38804387D03*
D29*
X190046822Y-57793787D03*
X190046822Y-56658787D03*
D24*
X211424922Y-48369987D03*
X210289922Y-48369987D03*
X199881822Y-34563787D03*
X198746822Y-34563787D03*
D31*
X186926822Y-54683787D03*
X187726822Y-54683787D03*
X188526822Y-54683787D03*
X188526822Y-51883787D03*
X187726822Y-51883787D03*
X186926822Y-51883787D03*
D27*
X192381822Y-32933787D03*
X193516822Y-32933787D03*
D32*
X199896822Y-30373787D03*
X203021822Y-30373787D03*
D29*
X201546822Y-22893787D03*
X201546822Y-21758787D03*
D33*
X195536822Y-36353787D03*
X195536822Y-35853787D03*
X195536822Y-35353787D03*
X195536822Y-34853787D03*
X195536822Y-34353787D03*
X195536822Y-33853787D03*
X195536822Y-33353787D03*
X195536822Y-32853787D03*
X195536822Y-32353787D03*
X195876822Y-36103787D03*
X195876822Y-35603787D03*
X195876822Y-35103787D03*
X195876822Y-34603787D03*
X195876822Y-34103787D03*
X195876822Y-33603787D03*
X195876822Y-33103787D03*
X195876822Y-32603787D03*
X196216822Y-36353787D03*
X196216822Y-35853787D03*
X196216822Y-35353787D03*
X196216822Y-34853787D03*
X196216822Y-34353787D03*
X196216822Y-33853787D03*
X196216822Y-33353787D03*
X196216822Y-32853787D03*
X196216822Y-32353787D03*
X196556822Y-36103787D03*
X196556822Y-35603787D03*
X196556822Y-35103787D03*
X196556822Y-34603787D03*
X196556822Y-34103787D03*
X196556822Y-33603787D03*
X196556822Y-33103787D03*
X196556822Y-32603787D03*
D28*
X188976922Y-22212687D03*
D27*
X192386822Y-33953787D03*
X193521822Y-33953787D03*
D34*
X231406822Y-54623787D03*
X228866822Y-54623787D03*
X226326822Y-54623787D03*
D29*
X186436822Y-60573787D03*
X186436822Y-59438787D03*
D27*
X196391822Y-30093787D03*
X197526822Y-30093787D03*
D29*
X206946822Y-46821287D03*
X206946822Y-45686287D03*
D27*
X200434322Y-24248787D03*
X201569322Y-24248787D03*
D35*
X192031822Y-51041287D03*
X193756822Y-51041287D03*
D27*
X208536822Y-44243787D03*
X209671822Y-44243787D03*
D29*
X208086822Y-46821287D03*
X208086822Y-45686287D03*
D36*
X198476822Y-24176287D03*
X198476822Y-21051287D03*
D29*
X190056822Y-60553787D03*
X190056822Y-59418787D03*
D37*
X232456822Y-62581287D03*
X233106822Y-62581287D03*
X233756822Y-62581287D03*
X233756822Y-60781287D03*
X233106822Y-60781287D03*
X232456822Y-60781287D03*
D27*
X194474022Y-45350587D03*
X195609022Y-45350587D03*
D29*
X188156822Y-57798787D03*
X188156822Y-56663787D03*
D38*
X199296822Y-56658787D03*
X199296822Y-54583787D03*
D29*
X203076822Y-24253787D03*
X203076822Y-23118787D03*
D25*
X191816822Y-54126287D03*
X191816822Y-55261287D03*
X211216822Y-52698787D03*
X211216822Y-53833787D03*
D24*
X212451822Y-51333787D03*
X211316822Y-51333787D03*
D27*
X192481822Y-52571287D03*
X193616822Y-52571287D03*
D39*
X206565870Y-60023977D03*
X205858764Y-59316871D03*
X205611276Y-60978571D03*
X204904170Y-60271465D03*
D40*
X196964322Y-57011287D03*
X194889322Y-57011287D03*
D25*
X198496822Y-51643787D03*
X198496822Y-52778787D03*
X202931822Y-45471287D03*
X202931822Y-46606287D03*
D41*
X217424422Y-50749187D03*
X218024422Y-50749187D03*
X218024422Y-50149187D03*
X217424422Y-50149187D03*
D29*
X195046822Y-40021287D03*
X195046822Y-38886287D03*
D42*
X188583622Y-48201787D03*
X189533622Y-48201787D03*
X190483622Y-48201787D03*
X190483622Y-45501787D03*
X188583622Y-45501787D03*
D29*
X186436822Y-57903787D03*
X186436822Y-56768787D03*
D43*
X204761022Y-45706187D03*
D24*
X216974322Y-30143787D03*
X215839322Y-30143787D03*
D29*
X225995422Y-46468187D03*
X225995422Y-45333187D03*
D44*
X206866622Y-33617887D03*
X206866622Y-35692887D03*
D29*
X193526822Y-37471287D03*
X193526822Y-36336287D03*
D28*
X188416922Y-66801687D03*
D29*
X199806822Y-51813787D03*
X199806822Y-50678787D03*
X219894422Y-54088787D03*
X219894422Y-52953787D03*
D45*
X196931822Y-54781287D03*
X195206822Y-54781287D03*
D24*
X222736222Y-49871787D03*
X221601222Y-49871787D03*
D27*
X197869322Y-38973787D03*
X199004322Y-38973787D03*
D29*
X230556822Y-64136287D03*
X230556822Y-63001287D03*
D46*
X229449822Y-48222187D03*
X229449822Y-47722187D03*
X229449822Y-47222187D03*
X229449822Y-46722187D03*
X229449822Y-46222187D03*
D47*
X228449822Y-46222187D03*
X228449822Y-46722187D03*
X228449822Y-47222187D03*
X228449822Y-47722187D03*
X228449822Y-48222187D03*
D25*
X197026822Y-48921287D03*
X197026822Y-50056287D03*
D29*
X196276822Y-40038787D03*
X196276822Y-38903787D03*
D24*
X206846822Y-44203787D03*
X205711822Y-44203787D03*
D27*
X204269322Y-57853787D03*
X205404322Y-57853787D03*
D29*
X212566822Y-53868787D03*
X212566822Y-52733787D03*
D48*
X227966823Y-43103787D03*
X224841823Y-43103787D03*
D27*
X187553922Y-50097187D03*
X188688922Y-50097187D03*
X204891822Y-37313787D03*
X206026822Y-37313787D03*
X204099322Y-47263787D03*
X205234322Y-47263787D03*
D26*
X214794022Y-51090987D03*
X213991456Y-50288421D03*
D24*
X194186822Y-49381287D03*
X193051822Y-49381287D03*
D29*
X198866822Y-37081287D03*
X198866822Y-35946287D03*
X211556822Y-58411287D03*
X211556822Y-57276287D03*
X208206822Y-60648787D03*
X208206822Y-59513787D03*
D24*
X209411822Y-58183787D03*
X208276822Y-58183787D03*
D49*
X195566822Y-47281287D03*
X195566822Y-46881287D03*
X195966822Y-47281287D03*
X195966822Y-46881287D03*
X196366822Y-47281287D03*
X196366822Y-46881287D03*
X196766822Y-47281287D03*
X196766822Y-46881287D03*
D24*
X216622822Y-39559387D03*
X215487822Y-39559387D03*
D27*
X201916222Y-42773187D03*
X203051222Y-42773187D03*
D29*
X188146822Y-60458787D03*
X188146822Y-59323787D03*
D25*
X218004422Y-55278787D03*
X218004422Y-56413787D03*
D24*
X214194322Y-57143787D03*
X213059322Y-57143787D03*
D38*
X213637822Y-40864387D03*
X213637822Y-38789387D03*
D50*
X213908105Y-59912504D03*
X213105539Y-60715070D03*
D29*
X218516822Y-33698787D03*
X218516822Y-32563787D03*
D27*
X186938222Y-43674187D03*
X188073222Y-43674187D03*
D24*
X233649522Y-64502187D03*
X232514522Y-64502187D03*
D51*
X186434922Y-45757687D03*
D50*
X221144022Y-57440987D03*
X220341456Y-58243553D03*
D29*
X211586822Y-61041287D03*
X211586822Y-59906287D03*
D52*
X195646822Y-52943787D03*
X196146822Y-52943787D03*
X196646822Y-52943787D03*
X197146822Y-52943787D03*
X197146822Y-51463787D03*
X196646822Y-51463787D03*
X196146822Y-51463787D03*
X195646822Y-51463787D03*
D29*
X226005422Y-49183187D03*
X226005422Y-48048187D03*
X190676722Y-52887087D03*
X190676722Y-51752087D03*
D24*
X198233222Y-45198187D03*
X197098222Y-45198187D03*
D29*
X213876822Y-53898787D03*
X213876822Y-52763787D03*
D53*
X208616822Y-42013787D03*
X208616822Y-41513787D03*
X208616822Y-41013787D03*
X208616822Y-40513787D03*
X208616822Y-40013787D03*
X208616822Y-39513787D03*
D54*
X207916822Y-38813787D03*
X207416822Y-38813787D03*
X206916822Y-38813787D03*
X206416822Y-38813787D03*
X205916822Y-38813787D03*
X205416822Y-38813787D03*
D53*
X204716822Y-39513787D03*
X204716822Y-40013787D03*
X204716822Y-40513787D03*
X204716822Y-41013787D03*
X204716822Y-41513787D03*
X204716822Y-42013787D03*
D54*
X205416822Y-42713787D03*
X205916822Y-42713787D03*
X206416822Y-42713787D03*
X206916822Y-42713787D03*
X207416822Y-42713787D03*
X207916822Y-42713787D03*
D55*
X206666822Y-40763787D03*
D56*
X222500522Y-27971687D03*
X216000522Y-27971687D03*
X222500522Y-23471687D03*
X216000522Y-23471687D03*
D57*
X223718822Y-47824587D03*
X221718822Y-46874587D03*
X223718822Y-45924587D03*
D29*
X203166822Y-41133787D03*
X203166822Y-39998787D03*
D25*
X199976822Y-47976287D03*
X199976822Y-49111287D03*
D34*
X230236822Y-23373787D03*
X230236822Y-25373787D03*
X230236822Y-27373787D03*
X230236822Y-29373787D03*
X230236822Y-31373787D03*
X230236822Y-33373787D03*
X230236822Y-35373787D03*
X230236822Y-37373787D03*
D24*
X194126822Y-47773787D03*
X192991822Y-47773787D03*
D27*
X201721822Y-57033787D03*
X202856822Y-57033787D03*
D25*
X193326822Y-54101287D03*
X193326822Y-55236287D03*
X216121822Y-55078787D03*
X216121822Y-56213787D03*
X195046822Y-29238787D03*
X195046822Y-30373787D03*
D58*
X208316822Y-54663787D03*
X208316822Y-54263787D03*
X208316822Y-53863787D03*
X208316822Y-53463787D03*
X208316822Y-53063787D03*
X208316822Y-52663787D03*
X208316822Y-52263787D03*
X208316822Y-51863787D03*
X208316822Y-51463787D03*
X208316822Y-51063787D03*
X208316822Y-50663787D03*
X208316822Y-50263787D03*
X208316822Y-49863787D03*
X208316822Y-49463787D03*
D59*
X207466822Y-48613787D03*
X207066822Y-48613787D03*
X206666822Y-48613787D03*
X206266822Y-48613787D03*
X205866822Y-48613787D03*
X205466822Y-48613787D03*
X205066822Y-48613787D03*
X204666822Y-48613787D03*
X204266822Y-48613787D03*
X203866822Y-48613787D03*
X203466822Y-48613787D03*
X203066822Y-48613787D03*
X202666822Y-48613787D03*
X202266822Y-48613787D03*
D58*
X201416822Y-49463787D03*
X201416822Y-49863787D03*
X201416822Y-50263787D03*
X201416822Y-50663787D03*
X201416822Y-51063787D03*
X201416822Y-51463787D03*
X201416822Y-51863787D03*
X201416822Y-52263787D03*
X201416822Y-52663787D03*
X201416822Y-53063787D03*
X201416822Y-53463787D03*
X201416822Y-53863787D03*
X201416822Y-54263787D03*
X201416822Y-54663787D03*
D59*
X202266822Y-55513787D03*
X202666822Y-55513787D03*
X203066822Y-55513787D03*
X203466822Y-55513787D03*
X203866822Y-55513787D03*
X204266822Y-55513787D03*
X204666822Y-55513787D03*
X205066822Y-55513787D03*
X205466822Y-55513787D03*
X205866822Y-55513787D03*
X206266822Y-55513787D03*
X206666822Y-55513787D03*
X207066822Y-55513787D03*
X207466822Y-55513787D03*
D60*
X204866822Y-52063787D03*
D32*
X195521822Y-26583787D03*
X198646822Y-26583787D03*
D48*
X209459322Y-30603787D03*
X206334322Y-30603787D03*
D25*
X201556822Y-45458787D03*
X201556822Y-46593787D03*
D61*
X190522322Y-43121787D03*
X192597322Y-43121787D03*
D29*
X217994422Y-53766687D03*
X217994422Y-52631687D03*
D56*
X212316922Y-27921687D03*
X205816922Y-27921687D03*
X212316922Y-23421687D03*
X205816922Y-23421687D03*
D29*
X192356822Y-37251287D03*
X192356822Y-36116287D03*
X219844422Y-51426687D03*
X219844422Y-50291687D03*
D27*
X201971822Y-38763787D03*
X203106822Y-38763787D03*
D29*
X201826822Y-41338787D03*
X201826822Y-40203787D03*
D24*
X209384322Y-56853787D03*
X208249322Y-56853787D03*
D35*
X200516822Y-35943787D03*
X202241822Y-35943787D03*
D27*
X212671822Y-30173787D03*
X213806822Y-30173787D03*
D25*
X209916822Y-52706287D03*
X209916822Y-53841287D03*
D61*
X228196822Y-60896287D03*
X230271822Y-60896287D03*
D62*
X214197822Y-35239387D03*
X214197822Y-33889387D03*
X213297822Y-33889387D03*
X213297822Y-35239387D03*
D63*
X214972822Y-34564387D03*
D64*
X213747822Y-36289387D03*
X213747822Y-32839387D03*
D63*
X212522822Y-34564387D03*
D24*
X216621822Y-59753787D03*
X215486822Y-59753787D03*
D27*
X192992122Y-46518987D03*
X194127122Y-46518987D03*
X192359322Y-34993787D03*
X193494322Y-34993787D03*
D25*
X206666822Y-57008787D03*
X206666822Y-58143787D03*
D29*
X216124422Y-53584187D03*
X216124422Y-52449187D03*
D24*
X216637822Y-38279387D03*
X215502822Y-38279387D03*
D25*
X195706822Y-48886287D03*
X195706822Y-50021287D03*
D29*
X229106822Y-64136287D03*
X229106822Y-63001287D03*
D51*
X192645222Y-58507787D03*
D65*
X221996822Y-30543787D03*
X221046822Y-32543787D03*
X222946822Y-32543787D03*
D24*
X211433222Y-49643187D03*
X210298222Y-49643187D03*
D66*
X232221822Y-48563787D03*
X232221822Y-42563787D03*
D34*
X188733622Y-41368387D03*
X188733622Y-39368387D03*
X188733622Y-37368387D03*
X188733622Y-35368387D03*
X188733622Y-33368387D03*
X188733622Y-31368387D03*
X188733622Y-29368387D03*
X188733622Y-27368387D03*
M02*
