G04 #@! TF.GenerationSoftware,KiCad,Pcbnew,7.0.1*
G04 #@! TF.CreationDate,2023-10-11T20:36:53-05:00*
G04 #@! TF.ProjectId,Main_Board,4d61696e-5f42-46f6-9172-642e6b696361,1*
G04 #@! TF.SameCoordinates,Original*
G04 #@! TF.FileFunction,Soldermask,Top*
G04 #@! TF.FilePolarity,Negative*
%FSLAX46Y46*%
G04 Gerber Fmt 4.6, Leading zero omitted, Abs format (unit mm)*
G04 Created by KiCad (PCBNEW 7.0.1) date 2023-10-11 20:36:53*
%MOMM*%
%LPD*%
G01*
G04 APERTURE LIST*
G04 Aperture macros list*
%AMRoundRect*
0 Rectangle with rounded corners*
0 $1 Rounding radius*
0 $2 $3 $4 $5 $6 $7 $8 $9 X,Y pos of 4 corners*
0 Add a 4 corners polygon primitive as box body*
4,1,4,$2,$3,$4,$5,$6,$7,$8,$9,$2,$3,0*
0 Add four circle primitives for the rounded corners*
1,1,$1+$1,$2,$3*
1,1,$1+$1,$4,$5*
1,1,$1+$1,$6,$7*
1,1,$1+$1,$8,$9*
0 Add four rect primitives between the rounded corners*
20,1,$1+$1,$2,$3,$4,$5,0*
20,1,$1+$1,$4,$5,$6,$7,0*
20,1,$1+$1,$6,$7,$8,$9,0*
20,1,$1+$1,$8,$9,$2,$3,0*%
%AMRotRect*
0 Rectangle, with rotation*
0 The origin of the aperture is its center*
0 $1 length*
0 $2 width*
0 $3 Rotation angle, in degrees counterclockwise*
0 Add horizontal line*
21,1,$1,$2,0,0,$3*%
G04 Aperture macros list end*
%ADD10C,0.005000*%
%ADD11RoundRect,0.155000X0.212500X0.155000X-0.212500X0.155000X-0.212500X-0.155000X0.212500X-0.155000X0*%
%ADD12RoundRect,0.155000X-0.155000X0.212500X-0.155000X-0.212500X0.155000X-0.212500X0.155000X0.212500X0*%
%ADD13RoundRect,0.155000X0.259862X-0.040659X-0.040659X0.259862X-0.259862X0.040659X0.040659X-0.259862X0*%
%ADD14RoundRect,0.155000X-0.212500X-0.155000X0.212500X-0.155000X0.212500X0.155000X-0.212500X0.155000X0*%
%ADD15C,3.200000*%
%ADD16RoundRect,0.155000X0.155000X-0.212500X0.155000X0.212500X-0.155000X0.212500X-0.155000X-0.212500X0*%
%ADD17RoundRect,0.237500X0.237500X-0.300000X0.237500X0.300000X-0.237500X0.300000X-0.237500X-0.300000X0*%
%ADD18RoundRect,0.112500X0.112500X-0.487500X0.112500X0.487500X-0.112500X0.487500X-0.112500X-0.487500X0*%
%ADD19RoundRect,0.250000X-0.412500X-0.650000X0.412500X-0.650000X0.412500X0.650000X-0.412500X0.650000X0*%
%ADD20C,0.270000*%
%ADD21C,1.300000*%
%ADD22RoundRect,0.237500X-0.300000X-0.237500X0.300000X-0.237500X0.300000X0.237500X-0.300000X0.237500X0*%
%ADD23RoundRect,0.250000X0.650000X-0.412500X0.650000X0.412500X-0.650000X0.412500X-0.650000X-0.412500X0*%
%ADD24R,0.300000X0.650000*%
%ADD25RoundRect,0.250000X0.475000X-0.337500X0.475000X0.337500X-0.475000X0.337500X-0.475000X-0.337500X0*%
%ADD26RotRect,0.750000X0.700000X225.000000*%
%ADD27RoundRect,0.250000X0.337500X0.475000X-0.337500X0.475000X-0.337500X-0.475000X0.337500X-0.475000X0*%
%ADD28R,0.400000X0.400000*%
%ADD29R,0.650000X1.560000*%
%ADD30RoundRect,0.150000X-0.150000X-0.150000X0.150000X-0.150000X0.150000X0.150000X-0.150000X0.150000X0*%
%ADD31RoundRect,0.250000X-0.475000X0.337500X-0.475000X-0.337500X0.475000X-0.337500X0.475000X0.337500X0*%
%ADD32RoundRect,0.237500X0.300000X0.237500X-0.300000X0.237500X-0.300000X-0.237500X0.300000X-0.237500X0*%
%ADD33R,0.725000X0.250000*%
%ADD34R,0.775000X0.250000*%
%ADD35RoundRect,0.250000X0.412500X0.650000X-0.412500X0.650000X-0.412500X-0.650000X0.412500X-0.650000X0*%
%ADD36C,0.230000*%
%ADD37RoundRect,0.155000X0.040659X0.259862X-0.259862X-0.040659X-0.040659X-0.259862X0.259862X0.040659X0*%
%ADD38C,1.000000*%
%ADD39RoundRect,0.050000X0.100000X-0.285000X0.100000X0.285000X-0.100000X0.285000X-0.100000X-0.285000X0*%
%ADD40R,0.800000X0.300000*%
%ADD41R,0.300000X0.800000*%
%ADD42R,2.750000X2.650000*%
%ADD43C,2.000000*%
%ADD44R,0.900000X0.800000*%
%ADD45R,0.850000X0.200000*%
%ADD46R,0.200000X0.850000*%
%ADD47R,4.050000X4.050000*%
%ADD48RoundRect,0.250000X-0.337500X-0.475000X0.337500X-0.475000X0.337500X0.475000X-0.337500X0.475000X0*%
%ADD49R,0.400000X0.950000*%
%ADD50R,0.350000X2.300000*%
%ADD51R,1.300000X0.350000*%
%ADD52R,0.600000X0.700000*%
%ADD53C,1.200000*%
G04 APERTURE END LIST*
D10*
X195641467Y-47405932D02*
X195491467Y-47405932D01*
X196041467Y-47405932D02*
X195891467Y-47405932D01*
X196441467Y-47405932D02*
X196291467Y-47405932D01*
X196841467Y-47405932D02*
X196691467Y-47405932D01*
X196241467Y-47356287D02*
X196241467Y-47206287D01*
X195441467Y-47355932D02*
X195441467Y-47205932D01*
X195841467Y-47355932D02*
X195841467Y-47205932D01*
X196641467Y-47355932D02*
X196641467Y-47205932D01*
X195691467Y-47205932D02*
X195691467Y-47355932D01*
X196091467Y-47205932D02*
X196091467Y-47355932D01*
X196491467Y-47205932D02*
X196491467Y-47355932D01*
X196891467Y-47205932D02*
X196891467Y-47355932D01*
X195491467Y-47155932D02*
X195641467Y-47155932D01*
X195891467Y-47155932D02*
X196041467Y-47155932D01*
X196291467Y-47155932D02*
X196441467Y-47155932D01*
X196691467Y-47155932D02*
X196841467Y-47155932D01*
X195641822Y-47006287D02*
X195491822Y-47006287D01*
X196041822Y-47006287D02*
X195891822Y-47006287D01*
X196441822Y-47006287D02*
X196291822Y-47006287D01*
X196841822Y-47006287D02*
X196691822Y-47006287D01*
X195441822Y-46956287D02*
X195441822Y-46806287D01*
X195841822Y-46956287D02*
X195841822Y-46806287D01*
X196241822Y-46956287D02*
X196241822Y-46806287D01*
X196641822Y-46956287D02*
X196641822Y-46806287D01*
X195691822Y-46806287D02*
X195691822Y-46956287D01*
X196091822Y-46806287D02*
X196091822Y-46956287D01*
X196491822Y-46806287D02*
X196491822Y-46956287D01*
X196891822Y-46806287D02*
X196891822Y-46956287D01*
X195491822Y-46756287D02*
X195641822Y-46756287D01*
X195891822Y-46756287D02*
X196041822Y-46756287D01*
X196291822Y-46756287D02*
X196441822Y-46756287D01*
X196691822Y-46756287D02*
X196841822Y-46756287D01*
X195441467Y-47355932D02*
G75*
G03*
X195491467Y-47405932I50001J1D01*
G01*
X195841467Y-47355932D02*
G75*
G03*
X195891467Y-47405932I50001J1D01*
G01*
X196241467Y-47355932D02*
G75*
G03*
X196291467Y-47405932I50001J1D01*
G01*
X196641467Y-47355932D02*
G75*
G03*
X196691467Y-47405932I50001J1D01*
G01*
X195641467Y-47405932D02*
G75*
G03*
X195691467Y-47355932I-1J50001D01*
G01*
X196041467Y-47405932D02*
G75*
G03*
X196091467Y-47355932I-1J50001D01*
G01*
X196441467Y-47405932D02*
G75*
G03*
X196491467Y-47355932I-1J50001D01*
G01*
X196841467Y-47405932D02*
G75*
G03*
X196891467Y-47355932I-1J50001D01*
G01*
X195491467Y-47155932D02*
G75*
G03*
X195441467Y-47205932I5J-50005D01*
G01*
X195891467Y-47155932D02*
G75*
G03*
X195841467Y-47205932I5J-50005D01*
G01*
X196291467Y-47155932D02*
G75*
G03*
X196241467Y-47205932I5J-50005D01*
G01*
X196691467Y-47155932D02*
G75*
G03*
X196641467Y-47205932I5J-50005D01*
G01*
X195691467Y-47205932D02*
G75*
G03*
X195641467Y-47155932I-50005J-5D01*
G01*
X196091467Y-47205932D02*
G75*
G03*
X196041467Y-47155932I-50005J-5D01*
G01*
X196491467Y-47205932D02*
G75*
G03*
X196441467Y-47155932I-50005J-5D01*
G01*
X196891467Y-47205932D02*
G75*
G03*
X196841467Y-47155932I-50005J-5D01*
G01*
X195441822Y-46956287D02*
G75*
G03*
X195491822Y-47006287I50000J0D01*
G01*
X195841822Y-46956287D02*
G75*
G03*
X195891822Y-47006287I50000J0D01*
G01*
X196241822Y-46956287D02*
G75*
G03*
X196291822Y-47006287I50000J0D01*
G01*
X196641822Y-46956287D02*
G75*
G03*
X196691822Y-47006287I50000J0D01*
G01*
X195641822Y-47006287D02*
G75*
G03*
X195691822Y-46956287I0J50000D01*
G01*
X196041822Y-47006287D02*
G75*
G03*
X196091822Y-46956287I0J50000D01*
G01*
X196441822Y-47006287D02*
G75*
G03*
X196491822Y-46956287I0J50000D01*
G01*
X196841822Y-47006287D02*
G75*
G03*
X196891822Y-46956287I0J50000D01*
G01*
X195491822Y-46756287D02*
G75*
G03*
X195441822Y-46806287I0J-50000D01*
G01*
X195891822Y-46756287D02*
G75*
G03*
X195841822Y-46806287I0J-50000D01*
G01*
X196291822Y-46756287D02*
G75*
G03*
X196241822Y-46806287I0J-50000D01*
G01*
X196691822Y-46756287D02*
G75*
G03*
X196641822Y-46806287I0J-50000D01*
G01*
X195691822Y-46806287D02*
G75*
G03*
X195641822Y-46756287I-50000J0D01*
G01*
X196091822Y-46806287D02*
G75*
G03*
X196041822Y-46756287I-50000J0D01*
G01*
X196491822Y-46806287D02*
G75*
G03*
X196441822Y-46756287I-50000J0D01*
G01*
X196891822Y-46806287D02*
G75*
G03*
X196841822Y-46756287I-50000J0D01*
G01*
D11*
X199881822Y-33423787D03*
X198746822Y-33423787D03*
D12*
X202236822Y-33363787D03*
X202236822Y-34498787D03*
D13*
X210882422Y-55967787D03*
X210079856Y-55165221D03*
D11*
X208941822Y-37313787D03*
X207806822Y-37313787D03*
X199434322Y-46315787D03*
X198299322Y-46315787D03*
D14*
X198756822Y-32243787D03*
X199891822Y-32243787D03*
D15*
X231536922Y-67631687D03*
D16*
X198516822Y-49551287D03*
X198516822Y-48416287D03*
D11*
X214221822Y-58413787D03*
X213086822Y-58413787D03*
D17*
X211587822Y-40529387D03*
X211587822Y-38804387D03*
D16*
X190046822Y-57793787D03*
X190046822Y-56658787D03*
D11*
X211424922Y-48369987D03*
X210289922Y-48369987D03*
X199881822Y-34563787D03*
X198746822Y-34563787D03*
D18*
X186926822Y-54683787D03*
X187726822Y-54683787D03*
X188526822Y-54683787D03*
X188526822Y-51883787D03*
X187726822Y-51883787D03*
X186926822Y-51883787D03*
D14*
X192381822Y-32933787D03*
X193516822Y-32933787D03*
D19*
X199896822Y-30373787D03*
X203021822Y-30373787D03*
D16*
X201546822Y-22893787D03*
X201546822Y-21758787D03*
D20*
X195536822Y-36353787D03*
X195536822Y-35853787D03*
X195536822Y-35353787D03*
X195536822Y-34853787D03*
X195536822Y-34353787D03*
X195536822Y-33853787D03*
X195536822Y-33353787D03*
X195536822Y-32853787D03*
X195536822Y-32353787D03*
X195876822Y-36103787D03*
X195876822Y-35603787D03*
X195876822Y-35103787D03*
X195876822Y-34603787D03*
X195876822Y-34103787D03*
X195876822Y-33603787D03*
X195876822Y-33103787D03*
X195876822Y-32603787D03*
X196216822Y-36353787D03*
X196216822Y-35853787D03*
X196216822Y-35353787D03*
X196216822Y-34853787D03*
X196216822Y-34353787D03*
X196216822Y-33853787D03*
X196216822Y-33353787D03*
X196216822Y-32853787D03*
X196216822Y-32353787D03*
X196556822Y-36103787D03*
X196556822Y-35603787D03*
X196556822Y-35103787D03*
X196556822Y-34603787D03*
X196556822Y-34103787D03*
X196556822Y-33603787D03*
X196556822Y-33103787D03*
X196556822Y-32603787D03*
D15*
X188976922Y-22212687D03*
D14*
X192386822Y-33953787D03*
X193521822Y-33953787D03*
D21*
X231406822Y-54623787D03*
X228866822Y-54623787D03*
X226326822Y-54623787D03*
D16*
X186436822Y-60573787D03*
X186436822Y-59438787D03*
D14*
X196391822Y-30093787D03*
X197526822Y-30093787D03*
D16*
X206946822Y-46821287D03*
X206946822Y-45686287D03*
D14*
X200434322Y-24248787D03*
X201569322Y-24248787D03*
D22*
X192031822Y-51041287D03*
X193756822Y-51041287D03*
D14*
X208536822Y-44243787D03*
X209671822Y-44243787D03*
D16*
X208086822Y-46821287D03*
X208086822Y-45686287D03*
D23*
X198476822Y-24176287D03*
X198476822Y-21051287D03*
D16*
X190056822Y-60553787D03*
X190056822Y-59418787D03*
D24*
X232456822Y-62581287D03*
X233106822Y-62581287D03*
X233756822Y-62581287D03*
X233756822Y-60781287D03*
X233106822Y-60781287D03*
X232456822Y-60781287D03*
D14*
X194474022Y-45350587D03*
X195609022Y-45350587D03*
D16*
X188156822Y-57798787D03*
X188156822Y-56663787D03*
D25*
X199296822Y-56658787D03*
X199296822Y-54583787D03*
D16*
X203076822Y-24253787D03*
X203076822Y-23118787D03*
D12*
X191816822Y-54126287D03*
X191816822Y-55261287D03*
X211216822Y-52698787D03*
X211216822Y-53833787D03*
D11*
X212451822Y-51333787D03*
X211316822Y-51333787D03*
D14*
X192481822Y-52571287D03*
X193616822Y-52571287D03*
D26*
X206565870Y-60023977D03*
X205858764Y-59316871D03*
X205611276Y-60978571D03*
X204904170Y-60271465D03*
D27*
X196964322Y-57011287D03*
X194889322Y-57011287D03*
D12*
X198496822Y-51643787D03*
X198496822Y-52778787D03*
X202931822Y-45471287D03*
X202931822Y-46606287D03*
D28*
X217424422Y-50749187D03*
X218024422Y-50749187D03*
X218024422Y-50149187D03*
X217424422Y-50149187D03*
D16*
X195046822Y-40021287D03*
X195046822Y-38886287D03*
D29*
X188583622Y-48201787D03*
X189533622Y-48201787D03*
X190483622Y-48201787D03*
X190483622Y-45501787D03*
X188583622Y-45501787D03*
D16*
X186436822Y-57903787D03*
X186436822Y-56768787D03*
D30*
X204761022Y-45706187D03*
D11*
X216974322Y-30143787D03*
X215839322Y-30143787D03*
D16*
X225995422Y-46468187D03*
X225995422Y-45333187D03*
D31*
X206866622Y-33617887D03*
X206866622Y-35692887D03*
D16*
X193526822Y-37471287D03*
X193526822Y-36336287D03*
D15*
X188416922Y-66801687D03*
D16*
X199806822Y-51813787D03*
X199806822Y-50678787D03*
X219894422Y-54088787D03*
X219894422Y-52953787D03*
D32*
X196931822Y-54781287D03*
X195206822Y-54781287D03*
D11*
X222736222Y-49871787D03*
X221601222Y-49871787D03*
D14*
X197869322Y-38973787D03*
X199004322Y-38973787D03*
D16*
X230556822Y-64136287D03*
X230556822Y-63001287D03*
D33*
X229449822Y-48222187D03*
X229449822Y-47722187D03*
X229449822Y-47222187D03*
X229449822Y-46722187D03*
X229449822Y-46222187D03*
D34*
X228449822Y-46222187D03*
X228449822Y-46722187D03*
X228449822Y-47222187D03*
X228449822Y-47722187D03*
X228449822Y-48222187D03*
D12*
X197026822Y-48921287D03*
X197026822Y-50056287D03*
D16*
X196276822Y-40038787D03*
X196276822Y-38903787D03*
D11*
X206846822Y-44203787D03*
X205711822Y-44203787D03*
D14*
X204269322Y-57853787D03*
X205404322Y-57853787D03*
D16*
X212566822Y-53868787D03*
X212566822Y-52733787D03*
D35*
X227966823Y-43103787D03*
X224841823Y-43103787D03*
D14*
X187553922Y-50097187D03*
X188688922Y-50097187D03*
X204891822Y-37313787D03*
X206026822Y-37313787D03*
X204099322Y-47263787D03*
X205234322Y-47263787D03*
D13*
X214794022Y-51090987D03*
X213991456Y-50288421D03*
D11*
X194186822Y-49381287D03*
X193051822Y-49381287D03*
D16*
X198866822Y-37081287D03*
X198866822Y-35946287D03*
X211556822Y-58411287D03*
X211556822Y-57276287D03*
X208206822Y-60648787D03*
X208206822Y-59513787D03*
D11*
X209411822Y-58183787D03*
X208276822Y-58183787D03*
D36*
X195566822Y-47281287D03*
X195566822Y-46881287D03*
X195966822Y-47281287D03*
X195966822Y-46881287D03*
X196366822Y-47281287D03*
X196366822Y-46881287D03*
X196766822Y-47281287D03*
X196766822Y-46881287D03*
D11*
X216622822Y-39559387D03*
X215487822Y-39559387D03*
D14*
X201916222Y-42773187D03*
X203051222Y-42773187D03*
D16*
X188146822Y-60458787D03*
X188146822Y-59323787D03*
D12*
X218004422Y-55278787D03*
X218004422Y-56413787D03*
D11*
X214194322Y-57143787D03*
X213059322Y-57143787D03*
D25*
X213637822Y-40864387D03*
X213637822Y-38789387D03*
D37*
X213908105Y-59912504D03*
X213105539Y-60715070D03*
D16*
X218516822Y-33698787D03*
X218516822Y-32563787D03*
D14*
X186938222Y-43674187D03*
X188073222Y-43674187D03*
D11*
X233649522Y-64502187D03*
X232514522Y-64502187D03*
D38*
X186434922Y-45757687D03*
D37*
X221144022Y-57440987D03*
X220341456Y-58243553D03*
D16*
X211586822Y-61041287D03*
X211586822Y-59906287D03*
D39*
X195646822Y-52943787D03*
X196146822Y-52943787D03*
X196646822Y-52943787D03*
X197146822Y-52943787D03*
X197146822Y-51463787D03*
X196646822Y-51463787D03*
X196146822Y-51463787D03*
X195646822Y-51463787D03*
D16*
X226005422Y-49183187D03*
X226005422Y-48048187D03*
X190676722Y-52887087D03*
X190676722Y-51752087D03*
D11*
X198233222Y-45198187D03*
X197098222Y-45198187D03*
D16*
X213876822Y-53898787D03*
X213876822Y-52763787D03*
D40*
X208616822Y-42013787D03*
X208616822Y-41513787D03*
X208616822Y-41013787D03*
X208616822Y-40513787D03*
X208616822Y-40013787D03*
X208616822Y-39513787D03*
D41*
X207916822Y-38813787D03*
X207416822Y-38813787D03*
X206916822Y-38813787D03*
X206416822Y-38813787D03*
X205916822Y-38813787D03*
X205416822Y-38813787D03*
D40*
X204716822Y-39513787D03*
X204716822Y-40013787D03*
X204716822Y-40513787D03*
X204716822Y-41013787D03*
X204716822Y-41513787D03*
X204716822Y-42013787D03*
D41*
X205416822Y-42713787D03*
X205916822Y-42713787D03*
X206416822Y-42713787D03*
X206916822Y-42713787D03*
X207416822Y-42713787D03*
X207916822Y-42713787D03*
D42*
X206666822Y-40763787D03*
D43*
X222500522Y-27971687D03*
X216000522Y-27971687D03*
X222500522Y-23471687D03*
X216000522Y-23471687D03*
D44*
X223718822Y-47824587D03*
X221718822Y-46874587D03*
X223718822Y-45924587D03*
D16*
X203166822Y-41133787D03*
X203166822Y-39998787D03*
D12*
X199976822Y-47976287D03*
X199976822Y-49111287D03*
D21*
X230236822Y-23373787D03*
X230236822Y-25373787D03*
X230236822Y-27373787D03*
X230236822Y-29373787D03*
X230236822Y-31373787D03*
X230236822Y-33373787D03*
X230236822Y-35373787D03*
X230236822Y-37373787D03*
D11*
X194126822Y-47773787D03*
X192991822Y-47773787D03*
D14*
X201721822Y-57033787D03*
X202856822Y-57033787D03*
D12*
X193326822Y-54101287D03*
X193326822Y-55236287D03*
X216121822Y-55078787D03*
X216121822Y-56213787D03*
X195046822Y-29238787D03*
X195046822Y-30373787D03*
D45*
X208316822Y-54663787D03*
X208316822Y-54263787D03*
X208316822Y-53863787D03*
X208316822Y-53463787D03*
X208316822Y-53063787D03*
X208316822Y-52663787D03*
X208316822Y-52263787D03*
X208316822Y-51863787D03*
X208316822Y-51463787D03*
X208316822Y-51063787D03*
X208316822Y-50663787D03*
X208316822Y-50263787D03*
X208316822Y-49863787D03*
X208316822Y-49463787D03*
D46*
X207466822Y-48613787D03*
X207066822Y-48613787D03*
X206666822Y-48613787D03*
X206266822Y-48613787D03*
X205866822Y-48613787D03*
X205466822Y-48613787D03*
X205066822Y-48613787D03*
X204666822Y-48613787D03*
X204266822Y-48613787D03*
X203866822Y-48613787D03*
X203466822Y-48613787D03*
X203066822Y-48613787D03*
X202666822Y-48613787D03*
X202266822Y-48613787D03*
D45*
X201416822Y-49463787D03*
X201416822Y-49863787D03*
X201416822Y-50263787D03*
X201416822Y-50663787D03*
X201416822Y-51063787D03*
X201416822Y-51463787D03*
X201416822Y-51863787D03*
X201416822Y-52263787D03*
X201416822Y-52663787D03*
X201416822Y-53063787D03*
X201416822Y-53463787D03*
X201416822Y-53863787D03*
X201416822Y-54263787D03*
X201416822Y-54663787D03*
D46*
X202266822Y-55513787D03*
X202666822Y-55513787D03*
X203066822Y-55513787D03*
X203466822Y-55513787D03*
X203866822Y-55513787D03*
X204266822Y-55513787D03*
X204666822Y-55513787D03*
X205066822Y-55513787D03*
X205466822Y-55513787D03*
X205866822Y-55513787D03*
X206266822Y-55513787D03*
X206666822Y-55513787D03*
X207066822Y-55513787D03*
X207466822Y-55513787D03*
D47*
X204866822Y-52063787D03*
D19*
X195521822Y-26583787D03*
X198646822Y-26583787D03*
D35*
X209459322Y-30603787D03*
X206334322Y-30603787D03*
D12*
X201556822Y-45458787D03*
X201556822Y-46593787D03*
D48*
X190522322Y-43121787D03*
X192597322Y-43121787D03*
D16*
X217994422Y-53766687D03*
X217994422Y-52631687D03*
D43*
X212316922Y-27921687D03*
X205816922Y-27921687D03*
X212316922Y-23421687D03*
X205816922Y-23421687D03*
D16*
X192356822Y-37251287D03*
X192356822Y-36116287D03*
X219844422Y-51426687D03*
X219844422Y-50291687D03*
D14*
X201971822Y-38763787D03*
X203106822Y-38763787D03*
D16*
X201826822Y-41338787D03*
X201826822Y-40203787D03*
D11*
X209384322Y-56853787D03*
X208249322Y-56853787D03*
D22*
X200516822Y-35943787D03*
X202241822Y-35943787D03*
D14*
X212671822Y-30173787D03*
X213806822Y-30173787D03*
D12*
X209916822Y-52706287D03*
X209916822Y-53841287D03*
D48*
X228196822Y-60896287D03*
X230271822Y-60896287D03*
D49*
X214197822Y-35239387D03*
X214197822Y-33889387D03*
X213297822Y-33889387D03*
X213297822Y-35239387D03*
D50*
X214972822Y-34564387D03*
D51*
X213747822Y-36289387D03*
X213747822Y-32839387D03*
D50*
X212522822Y-34564387D03*
D11*
X216621822Y-59753787D03*
X215486822Y-59753787D03*
D14*
X192992122Y-46518987D03*
X194127122Y-46518987D03*
X192359322Y-34993787D03*
X193494322Y-34993787D03*
D12*
X206666822Y-57008787D03*
X206666822Y-58143787D03*
D16*
X216124422Y-53584187D03*
X216124422Y-52449187D03*
D11*
X216637822Y-38279387D03*
X215502822Y-38279387D03*
D12*
X195706822Y-48886287D03*
X195706822Y-50021287D03*
D16*
X229106822Y-64136287D03*
X229106822Y-63001287D03*
D38*
X192645222Y-58507787D03*
D52*
X221996822Y-30543787D03*
X221046822Y-32543787D03*
X222946822Y-32543787D03*
D11*
X211433222Y-49643187D03*
X210298222Y-49643187D03*
D53*
X232221822Y-48563787D03*
X232221822Y-42563787D03*
D21*
X188733622Y-41368387D03*
X188733622Y-39368387D03*
X188733622Y-37368387D03*
X188733622Y-35368387D03*
X188733622Y-33368387D03*
X188733622Y-31368387D03*
X188733622Y-29368387D03*
X188733622Y-27368387D03*
M02*
