G04 #@! TF.GenerationSoftware,KiCad,Pcbnew,7.0.1*
G04 #@! TF.CreationDate,2023-10-11T19:04:08-05:00*
G04 #@! TF.ProjectId,FLED_Board,464c4544-5f42-46f6-9172-642e6b696361,1*
G04 #@! TF.SameCoordinates,Original*
G04 #@! TF.FileFunction,Legend,Top*
G04 #@! TF.FilePolarity,Positive*
%FSLAX46Y46*%
G04 Gerber Fmt 4.6, Leading zero omitted, Abs format (unit mm)*
G04 Created by KiCad (PCBNEW 7.0.1) date 2023-10-11 19:04:08*
%MOMM*%
%LPD*%
G01*
G04 APERTURE LIST*
G04 Aperture macros list*
%AMRoundRect*
0 Rectangle with rounded corners*
0 $1 Rounding radius*
0 $2 $3 $4 $5 $6 $7 $8 $9 X,Y pos of 4 corners*
0 Add a 4 corners polygon primitive as box body*
4,1,4,$2,$3,$4,$5,$6,$7,$8,$9,$2,$3,0*
0 Add four circle primitives for the rounded corners*
1,1,$1+$1,$2,$3*
1,1,$1+$1,$4,$5*
1,1,$1+$1,$6,$7*
1,1,$1+$1,$8,$9*
0 Add four rect primitives between the rounded corners*
20,1,$1+$1,$2,$3,$4,$5,0*
20,1,$1+$1,$4,$5,$6,$7,0*
20,1,$1+$1,$6,$7,$8,$9,0*
20,1,$1+$1,$8,$9,$2,$3,0*%
%AMFreePoly0*
4,1,20,0.183918,0.148406,0.199736,0.141903,0.364236,-0.021737,0.364260,-0.021795,0.364320,-0.021820,0.370918,-0.037749,0.377500,-0.053522,0.377475,-0.053581,0.377500,-0.053640,0.377500,-0.100000,0.364320,-0.131820,0.332500,-0.145000,-0.332500,-0.145000,-0.364320,-0.131820,-0.377500,-0.100000,-0.377500,0.110000,-0.364320,0.141820,-0.332500,0.155000,0.168000,0.155000,0.183918,0.148406,
0.183918,0.148406,$1*%
%AMFreePoly1*
4,1,20,0.364320,0.131820,0.377500,0.100000,0.377500,0.053640,0.377475,0.053581,0.377500,0.053522,0.370918,0.037749,0.364320,0.021820,0.364260,0.021795,0.364236,0.021737,0.199736,-0.141903,0.183918,-0.148406,0.168000,-0.155000,-0.332500,-0.155000,-0.364320,-0.141820,-0.377500,-0.110000,-0.377500,0.100000,-0.364320,0.131820,-0.332500,0.145000,0.332500,0.145000,0.364320,0.131820,
0.364320,0.131820,$1*%
%AMFreePoly2*
4,1,20,0.138284,0.360784,0.150000,0.332500,0.150000,-0.332500,0.138284,-0.360784,0.110000,-0.372500,-0.110000,-0.372500,-0.138284,-0.360784,-0.150000,-0.332500,-0.150000,0.168000,-0.144102,0.182237,-0.138358,0.196210,0.025282,0.360710,0.025334,0.360731,0.025356,0.360784,0.039384,0.366595,0.053535,0.372500,0.053587,0.372478,0.053640,0.372500,0.110000,0.372500,0.138284,0.360784,
0.138284,0.360784,$1*%
%AMFreePoly3*
4,1,20,-0.052877,0.377184,-0.052105,0.377474,-0.037072,0.370637,-0.021820,0.364320,-0.021504,0.363557,-0.020753,0.363216,0.132887,0.198716,0.138682,0.183251,0.145000,0.168000,0.145000,-0.332500,0.131820,-0.364320,0.100000,-0.377500,-0.110000,-0.377500,-0.141820,-0.364320,-0.155000,-0.332500,-0.155000,0.332500,-0.141820,0.364320,-0.110000,0.377500,-0.053640,0.377500,-0.052877,0.377184,
-0.052877,0.377184,$1*%
%AMFreePoly4*
4,1,20,0.364320,0.131820,0.377500,0.100000,0.377500,-0.110000,0.364320,-0.141820,0.332500,-0.155000,-0.168000,-0.155000,-0.183918,-0.148406,-0.199736,-0.141903,-0.364236,0.021737,-0.364260,0.021795,-0.364320,0.021820,-0.370918,0.037749,-0.377500,0.053522,-0.377475,0.053581,-0.377500,0.053640,-0.377500,0.100000,-0.364320,0.131820,-0.332500,0.145000,0.332500,0.145000,0.364320,0.131820,
0.364320,0.131820,$1*%
%AMFreePoly5*
4,1,20,0.364320,0.141820,0.377500,0.110000,0.377500,-0.100000,0.364320,-0.131820,0.332500,-0.145000,-0.332500,-0.145000,-0.364320,-0.131820,-0.377500,-0.100000,-0.377500,-0.053640,-0.377475,-0.053581,-0.377500,-0.053522,-0.370918,-0.037749,-0.364320,-0.021820,-0.364260,-0.021795,-0.364236,-0.021737,-0.199736,0.141903,-0.183918,0.148406,-0.168000,0.155000,0.332500,0.155000,0.364320,0.141820,
0.364320,0.141820,$1*%
%AMFreePoly6*
4,1,20,0.131820,0.364320,0.145000,0.332500,0.145000,-0.168000,0.138682,-0.183251,0.132887,-0.198716,-0.020753,-0.363216,-0.021504,-0.363557,-0.021820,-0.364320,-0.037072,-0.370637,-0.052105,-0.377474,-0.052877,-0.377184,-0.053640,-0.377500,-0.110000,-0.377500,-0.141820,-0.364320,-0.155000,-0.332500,-0.155000,0.332500,-0.141820,0.364320,-0.110000,0.377500,0.100000,0.377500,0.131820,0.364320,
0.131820,0.364320,$1*%
%AMFreePoly7*
4,1,20,0.131820,0.364320,0.145000,0.332500,0.145000,-0.332500,0.131820,-0.364320,0.100000,-0.377500,0.053640,-0.377500,0.053581,-0.377475,0.053522,-0.377500,0.037749,-0.370918,0.021820,-0.364320,0.021795,-0.364260,0.021737,-0.364236,-0.141903,-0.199736,-0.148406,-0.183918,-0.155000,-0.168000,-0.155000,0.332500,-0.141820,0.364320,-0.110000,0.377500,0.100000,0.377500,0.131820,0.364320,
0.131820,0.364320,$1*%
G04 Aperture macros list end*
%ADD10C,0.300000*%
%ADD11C,0.286825*%
%ADD12C,0.165100*%
%ADD13C,0.150000*%
%ADD14C,0.227000*%
%ADD15C,0.200000*%
%ADD16C,0.238803*%
%ADD17R,0.400000X0.400000*%
%ADD18RoundRect,0.155000X0.212500X0.155000X-0.212500X0.155000X-0.212500X-0.155000X0.212500X-0.155000X0*%
%ADD19RoundRect,0.155000X-0.212500X-0.155000X0.212500X-0.155000X0.212500X0.155000X-0.212500X0.155000X0*%
%ADD20C,2.250000*%
%ADD21RoundRect,0.155000X0.155000X-0.212500X0.155000X0.212500X-0.155000X0.212500X-0.155000X-0.212500X0*%
%ADD22RoundRect,0.250000X-0.650000X0.412500X-0.650000X-0.412500X0.650000X-0.412500X0.650000X0.412500X0*%
%ADD23R,0.500000X1.100000*%
%ADD24R,0.700000X0.200000*%
%ADD25FreePoly0,90.000000*%
%ADD26RoundRect,0.075000X0.075000X-0.362500X0.075000X0.362500X-0.075000X0.362500X-0.075000X-0.362500X0*%
%ADD27FreePoly1,90.000000*%
%ADD28FreePoly2,90.000000*%
%ADD29RoundRect,0.075000X0.362500X-0.075000X0.362500X0.075000X-0.362500X0.075000X-0.362500X-0.075000X0*%
%ADD30FreePoly3,90.000000*%
%ADD31FreePoly4,90.000000*%
%ADD32FreePoly5,90.000000*%
%ADD33FreePoly6,90.000000*%
%ADD34FreePoly7,90.000000*%
%ADD35RoundRect,0.155000X-0.155000X0.212500X-0.155000X-0.212500X0.155000X-0.212500X0.155000X0.212500X0*%
%ADD36RoundRect,0.250000X0.337500X0.475000X-0.337500X0.475000X-0.337500X-0.475000X0.337500X-0.475000X0*%
%ADD37RoundRect,0.055000X-0.350000X-0.055000X0.350000X-0.055000X0.350000X0.055000X-0.350000X0.055000X0*%
%ADD38RoundRect,0.055000X-0.055000X-0.350000X0.055000X-0.350000X0.055000X0.350000X-0.055000X0.350000X0*%
%ADD39RoundRect,0.250000X-0.337500X-0.475000X0.337500X-0.475000X0.337500X0.475000X-0.337500X0.475000X0*%
%ADD40R,1.700000X1.700000*%
%ADD41O,1.700000X1.700000*%
%ADD42R,0.250000X0.725000*%
%ADD43R,0.250000X0.775000*%
%ADD44C,1.300000*%
G04 APERTURE END LIST*
D10*
X147442200Y-24791000D02*
X294213200Y-24791000D01*
X294213200Y-56791000D01*
X147442200Y-56791000D01*
X147442200Y-24791000D01*
D11*
X258547812Y-31991400D02*
G75*
G03*
X258547812Y-31991400I-143412J0D01*
G01*
X298273412Y-33718600D02*
G75*
G03*
X298273412Y-33718600I-143412J0D01*
G01*
X258497012Y-49167800D02*
G75*
G03*
X258497012Y-49167800I-143412J0D01*
G01*
X298324212Y-47542200D02*
G75*
G03*
X298324212Y-47542200I-143412J0D01*
G01*
X172047012Y-33717800D02*
G75*
G03*
X172047012Y-33717800I-143412J0D01*
G01*
X189897812Y-47491400D02*
G75*
G03*
X189897812Y-47491400I-143412J0D01*
G01*
D12*
X127554000Y-46718200D02*
X125840400Y-46718200D01*
D13*
X143397700Y-34520600D02*
G75*
G03*
X143397700Y-34520600I-75000J0D01*
G01*
D14*
X130469500Y-38704600D02*
G75*
G03*
X130469500Y-38704600I-113500J0D01*
G01*
D13*
X143354200Y-29740000D02*
G75*
G03*
X143354200Y-29740000I-75000J0D01*
G01*
D11*
X234824212Y-47542200D02*
G75*
G03*
X234824212Y-47542200I-143412J0D01*
G01*
X211923412Y-33818600D02*
G75*
G03*
X211923412Y-33818600I-143412J0D01*
G01*
D15*
X129764600Y-54112200D02*
G75*
G03*
X129764600Y-54112200I-100000J0D01*
G01*
D11*
X234773412Y-33768600D02*
G75*
G03*
X234773412Y-33768600I-143412J0D01*
G01*
X138375612Y-21193800D02*
G75*
G03*
X138375612Y-21193800I-143412J0D01*
G01*
D12*
X130830600Y-46891800D02*
X129117000Y-46891800D01*
D16*
X130861201Y-26512000D02*
G75*
G03*
X130861201Y-26512000I-119401J0D01*
G01*
D11*
X189897812Y-32041400D02*
G75*
G03*
X189897812Y-32041400I-143412J0D01*
G01*
X173774212Y-47542200D02*
G75*
G03*
X173774212Y-47542200I-143412J0D01*
G01*
X210247812Y-47491400D02*
G75*
G03*
X210247812Y-47491400I-143412J0D01*
G01*
D15*
X123137200Y-52969200D02*
G75*
G03*
X123137200Y-52969200I-100000J0D01*
G01*
%LPC*%
D17*
X258917200Y-32555000D03*
X258917200Y-33155000D03*
X259517200Y-33155000D03*
X259517200Y-32555000D03*
D18*
X138478200Y-36916400D03*
X137343200Y-36916400D03*
D19*
X140509900Y-29423800D03*
X141644900Y-29423800D03*
D20*
X156750000Y-26715600D03*
D17*
X297617200Y-33155000D03*
X297617200Y-32555000D03*
X297017200Y-32555000D03*
X297017200Y-33155000D03*
X258917200Y-48655000D03*
X259517200Y-48655000D03*
X259517200Y-48055000D03*
X258917200Y-48055000D03*
D21*
X136576200Y-40549300D03*
X136576200Y-39414300D03*
X136911400Y-26003100D03*
X136911400Y-24868100D03*
D22*
X126678800Y-40182500D03*
X126678800Y-43307500D03*
D17*
X297617200Y-48055000D03*
X297017200Y-48055000D03*
X297017200Y-48655000D03*
X297617200Y-48655000D03*
X172467200Y-33205000D03*
X173067200Y-33205000D03*
X173067200Y-32605000D03*
X172467200Y-32605000D03*
D21*
X139781600Y-27485000D03*
X139781600Y-26350000D03*
D17*
X190267200Y-48055000D03*
X190267200Y-48655000D03*
X190867200Y-48655000D03*
X190867200Y-48055000D03*
D20*
X153650000Y-36515600D03*
D23*
X126704200Y-47570200D03*
X126704200Y-45270200D03*
D24*
X143625700Y-34960600D03*
X143625700Y-35460600D03*
X143625700Y-35960600D03*
X143625700Y-36460600D03*
X144625700Y-36210600D03*
X144625700Y-35710600D03*
X144625700Y-35210600D03*
D25*
X130819000Y-38085600D03*
D26*
X131314000Y-38135600D03*
X131814000Y-38135600D03*
X132314000Y-38135600D03*
X132814000Y-38135600D03*
X133314000Y-38135600D03*
D27*
X133809000Y-38085600D03*
D28*
X134294000Y-37610600D03*
D29*
X134349000Y-37105600D03*
X134349000Y-36605600D03*
X134349000Y-36105600D03*
X134349000Y-35605600D03*
X134349000Y-35105600D03*
D30*
X134299000Y-34600600D03*
D31*
X133804000Y-34105600D03*
D26*
X133309000Y-34055600D03*
X132809000Y-34055600D03*
X132309000Y-34055600D03*
X131809000Y-34055600D03*
X131309000Y-34055600D03*
D32*
X130814000Y-34105600D03*
D33*
X130319000Y-34600600D03*
D29*
X130269000Y-35105600D03*
X130269000Y-35605600D03*
X130269000Y-36105600D03*
X130269000Y-36605600D03*
X130269000Y-37105600D03*
D34*
X130319000Y-37600600D03*
D21*
X138333800Y-25029200D03*
X138333800Y-23894200D03*
D18*
X138478200Y-33766800D03*
X137343200Y-33766800D03*
D35*
X130058500Y-51428300D03*
X130058500Y-52563300D03*
D19*
X140586100Y-32700400D03*
X141721100Y-32700400D03*
X139366900Y-30414400D03*
X140501900Y-30414400D03*
D24*
X143582200Y-30180000D03*
X143582200Y-30680000D03*
X143582200Y-31180000D03*
X143582200Y-31680000D03*
X144582200Y-31430000D03*
X144582200Y-30930000D03*
X144582200Y-30430000D03*
D21*
X131856800Y-46475500D03*
X131856800Y-45340500D03*
D20*
X153650000Y-30515600D03*
D22*
X129926400Y-40439300D03*
X129926400Y-43564300D03*
D21*
X136911400Y-23564700D03*
X136911400Y-22429700D03*
D19*
X138223900Y-32065400D03*
X139358900Y-32065400D03*
D36*
X133177300Y-49613600D03*
X131102300Y-49613600D03*
D21*
X122154000Y-46246900D03*
X122154000Y-45111900D03*
X134341000Y-40574700D03*
X134341000Y-39439700D03*
D17*
X234117200Y-48055000D03*
X233517200Y-48055000D03*
X233517200Y-48655000D03*
X234117200Y-48655000D03*
X211267200Y-33255000D03*
X211267200Y-32655000D03*
X210667200Y-32655000D03*
X210667200Y-33255000D03*
D21*
X133096400Y-40558000D03*
X133096400Y-39423000D03*
D37*
X130217600Y-54571200D03*
X130217600Y-54971200D03*
X130217600Y-55371200D03*
X130217600Y-55771200D03*
X130217600Y-56171200D03*
D38*
X130882600Y-56806200D03*
X131282600Y-56806200D03*
X131682600Y-56806200D03*
X132082600Y-56806200D03*
X132482600Y-56806200D03*
D37*
X133142600Y-56171200D03*
X133142600Y-55771200D03*
X133142600Y-55371200D03*
X133142600Y-54971200D03*
X133142600Y-54571200D03*
D38*
X132482600Y-53906200D03*
X132082600Y-53906200D03*
X131682600Y-53906200D03*
X131282600Y-53906200D03*
X130882600Y-53906200D03*
D20*
X153650000Y-27515600D03*
D21*
X135407800Y-40574700D03*
X135407800Y-39439700D03*
D20*
X285817200Y-53205000D03*
D21*
X132105800Y-40658900D03*
X132105800Y-39523900D03*
D20*
X153650000Y-33515600D03*
D21*
X134625400Y-44147400D03*
X134625400Y-43012400D03*
D17*
X234117200Y-33205000D03*
X234117200Y-32605000D03*
X233517200Y-32605000D03*
X233517200Y-33205000D03*
D20*
X210817200Y-54805000D03*
D17*
X138745000Y-21757400D03*
X138745000Y-22357400D03*
X139345000Y-22357400D03*
X139345000Y-21757400D03*
D39*
X126408700Y-52148200D03*
X128483700Y-52148200D03*
D23*
X129980800Y-47743800D03*
X129980800Y-45443800D03*
D21*
X139857400Y-25072400D03*
X139857400Y-23937400D03*
D20*
X150650000Y-32515600D03*
D35*
X122433400Y-42648100D03*
X122433400Y-43783100D03*
D40*
X122346000Y-24156000D03*
D41*
X122346000Y-21616000D03*
X124886000Y-24156000D03*
X124886000Y-21616000D03*
X127426000Y-24156000D03*
X127426000Y-21616000D03*
X129966000Y-24156000D03*
X129966000Y-21616000D03*
X132506000Y-24156000D03*
X132506000Y-21616000D03*
D18*
X140789600Y-34528800D03*
X139654600Y-34528800D03*
D19*
X140611500Y-31430400D03*
X141746500Y-31430400D03*
D18*
X140789600Y-36154400D03*
X139654600Y-36154400D03*
D20*
X285917200Y-34905000D03*
D42*
X130443800Y-27302500D03*
X129943800Y-27302500D03*
X129443800Y-27302500D03*
X128943800Y-27302500D03*
X128443800Y-27302500D03*
D43*
X128443800Y-28302500D03*
X128943800Y-28302500D03*
X129443800Y-28302500D03*
X129943800Y-28302500D03*
X130443800Y-28302500D03*
D17*
X190267200Y-32605000D03*
X190267200Y-33205000D03*
X190867200Y-33205000D03*
X190867200Y-32605000D03*
D21*
X128864700Y-54976300D03*
X128864700Y-53841300D03*
D20*
X150650000Y-26515600D03*
X153650000Y-39515600D03*
X150617400Y-35515600D03*
X150650000Y-29515600D03*
D21*
X138359200Y-27485000D03*
X138359200Y-26350000D03*
D18*
X138152200Y-35367000D03*
X137017200Y-35367000D03*
D20*
X150650000Y-38515600D03*
D17*
X173067200Y-48055000D03*
X172467200Y-48055000D03*
X172467200Y-48655000D03*
X173067200Y-48655000D03*
D39*
X126370400Y-49895800D03*
X128445400Y-49895800D03*
D17*
X210617200Y-48055000D03*
X210617200Y-48655000D03*
X211217200Y-48655000D03*
X211217200Y-48055000D03*
D44*
X124037200Y-51969200D03*
X124037200Y-49969200D03*
X124037200Y-47969200D03*
X124037200Y-45969200D03*
X124037200Y-43969200D03*
X124037200Y-41969200D03*
X124037200Y-39969200D03*
X124037200Y-37969200D03*
M02*
