G04 #@! TF.GenerationSoftware,KiCad,Pcbnew,7.0.1*
G04 #@! TF.CreationDate,2023-10-11T20:36:53-05:00*
G04 #@! TF.ProjectId,Main_Board,4d61696e-5f42-46f6-9172-642e6b696361,1*
G04 #@! TF.SameCoordinates,Original*
G04 #@! TF.FileFunction,Soldermask,Bot*
G04 #@! TF.FilePolarity,Negative*
%FSLAX46Y46*%
G04 Gerber Fmt 4.6, Leading zero omitted, Abs format (unit mm)*
G04 Created by KiCad (PCBNEW 7.0.1) date 2023-10-11 20:36:53*
%MOMM*%
%LPD*%
G01*
G04 APERTURE LIST*
%ADD10C,3.200000*%
%ADD11C,1.300000*%
%ADD12C,2.000000*%
%ADD13C,1.000000*%
%ADD14C,1.200000*%
%ADD15R,1.500000X1.800000*%
%ADD16R,2.100000X1.800000*%
G04 APERTURE END LIST*
D10*
X231536922Y-67631687D03*
X188976922Y-22212687D03*
D11*
X231406822Y-54623787D03*
X228866822Y-54623787D03*
X226326822Y-54623787D03*
D10*
X188416922Y-66801687D03*
D12*
X222500522Y-27971687D03*
X216000522Y-27971687D03*
X222500522Y-23471687D03*
X216000522Y-23471687D03*
D11*
X230236822Y-23373787D03*
X230236822Y-25373787D03*
X230236822Y-27373787D03*
X230236822Y-29373787D03*
X230236822Y-31373787D03*
X230236822Y-33373787D03*
X230236822Y-35373787D03*
X230236822Y-37373787D03*
D12*
X212316922Y-27921687D03*
X205816922Y-27921687D03*
X212316922Y-23421687D03*
X205816922Y-23421687D03*
D13*
X200519222Y-57593387D03*
D14*
X232221822Y-48563787D03*
X232221822Y-42563787D03*
D15*
X229471822Y-48763787D03*
X229471822Y-45563787D03*
D16*
X232371822Y-51263787D03*
D15*
X229471822Y-42363787D03*
D16*
X232371822Y-39863787D03*
D13*
X207428022Y-45299787D03*
X210171222Y-41743787D03*
X202348022Y-55815387D03*
X191603822Y-50455987D03*
D11*
X188733622Y-41368387D03*
X188733622Y-39368387D03*
X188733622Y-37368387D03*
X188733622Y-35368387D03*
X188733622Y-33368387D03*
X188733622Y-31368387D03*
X188733622Y-29368387D03*
X188733622Y-27368387D03*
D13*
X197395022Y-55510587D03*
X194321622Y-51649787D03*
X199757222Y-53122987D03*
X232878822Y-61301787D03*
X196633022Y-42073987D03*
X201789222Y-51446587D03*
X206259622Y-40930987D03*
X213879622Y-42962987D03*
X224534922Y-50075687D03*
M02*
