%TF.GenerationSoftware,KiCad,Pcbnew,7.0.1*%
%TF.CreationDate,2023-10-11T18:56:45-05:00*%
%TF.ProjectId,Audio_Board,41756469-6f5f-4426-9f61-72642e6b6963,1*%
%TF.SameCoordinates,Original*%
%TF.FileFunction,Drillmap*%
%TF.FilePolarity,Positive*%
%FSLAX45Y45*%
G04 Gerber Fmt 4.5, Leading zero omitted, Abs format (unit mm)*
G04 Created by KiCad (PCBNEW 7.0.1) date 2023-10-11 18:56:45*
%MOMM*%
%LPD*%
G01*
G04 APERTURE LIST*
%ADD10C,0.100000*%
%ADD11C,0.200000*%
%ADD12C,0.065000*%
%ADD13C,0.320000*%
G04 APERTURE END LIST*
D10*
X16023205Y-2000000D02*
X25976795Y-2000000D01*
X25976795Y-2000000D02*
X25973395Y-11956800D01*
X24881195Y-11956800D02*
X24881195Y-11956800D01*
X16098351Y-3681596D02*
X16024437Y-3168973D01*
X16098351Y-3681595D02*
G75*
G03*
X24881195Y-11956800I9878414J1685987D01*
G01*
X16024437Y-3168973D02*
X16023205Y-2000000D01*
X25973395Y-11956800D02*
X24881195Y-11956800D01*
D11*
D12*
X25080395Y-11298100D02*
X25145395Y-11363100D01*
X25145395Y-11298100D02*
X25080395Y-11363100D01*
X25658395Y-11298100D02*
X25723395Y-11363100D01*
X25723395Y-11298100D02*
X25658395Y-11363100D01*
D10*
X16278895Y-2700900D02*
G75*
G03*
X16278895Y-2700900I-50000J0D01*
G01*
X17028895Y-2700900D02*
G75*
G03*
X17028895Y-2700900I-50000J0D01*
G01*
D13*
X19072354Y-8196600D02*
X19072354Y-8516600D01*
X18912354Y-8356600D02*
X19232354Y-8356600D01*
X19332354Y-2273600D02*
X19332354Y-2593600D01*
X19172354Y-2433600D02*
X19492354Y-2433600D01*
X23675353Y-10972600D02*
X23675353Y-11292600D01*
X23515353Y-11132600D02*
X23835353Y-11132600D01*
X25543353Y-2275500D02*
X25543353Y-2595500D01*
X25383353Y-2435500D02*
X25703353Y-2435500D01*
D11*
X16265824Y-12274324D02*
X16265824Y-12074324D01*
X16265824Y-12074324D02*
X16313443Y-12074324D01*
X16313443Y-12074324D02*
X16342014Y-12083848D01*
X16342014Y-12083848D02*
X16361062Y-12102895D01*
X16361062Y-12102895D02*
X16370586Y-12121943D01*
X16370586Y-12121943D02*
X16380109Y-12160038D01*
X16380109Y-12160038D02*
X16380109Y-12188609D01*
X16380109Y-12188609D02*
X16370586Y-12226705D01*
X16370586Y-12226705D02*
X16361062Y-12245752D01*
X16361062Y-12245752D02*
X16342014Y-12264800D01*
X16342014Y-12264800D02*
X16313443Y-12274324D01*
X16313443Y-12274324D02*
X16265824Y-12274324D01*
X16465824Y-12274324D02*
X16465824Y-12140990D01*
X16465824Y-12179086D02*
X16475347Y-12160038D01*
X16475347Y-12160038D02*
X16484871Y-12150514D01*
X16484871Y-12150514D02*
X16503919Y-12140990D01*
X16503919Y-12140990D02*
X16522967Y-12140990D01*
X16589633Y-12274324D02*
X16589633Y-12140990D01*
X16589633Y-12074324D02*
X16580109Y-12083848D01*
X16580109Y-12083848D02*
X16589633Y-12093371D01*
X16589633Y-12093371D02*
X16599157Y-12083848D01*
X16599157Y-12083848D02*
X16589633Y-12074324D01*
X16589633Y-12074324D02*
X16589633Y-12093371D01*
X16713443Y-12274324D02*
X16694395Y-12264800D01*
X16694395Y-12264800D02*
X16684871Y-12245752D01*
X16684871Y-12245752D02*
X16684871Y-12074324D01*
X16818205Y-12274324D02*
X16799157Y-12264800D01*
X16799157Y-12264800D02*
X16789633Y-12245752D01*
X16789633Y-12245752D02*
X16789633Y-12074324D01*
X17046776Y-12274324D02*
X17046776Y-12074324D01*
X17046776Y-12074324D02*
X17113443Y-12217181D01*
X17113443Y-12217181D02*
X17180109Y-12074324D01*
X17180109Y-12074324D02*
X17180109Y-12274324D01*
X17361062Y-12274324D02*
X17361062Y-12169562D01*
X17361062Y-12169562D02*
X17351538Y-12150514D01*
X17351538Y-12150514D02*
X17332490Y-12140990D01*
X17332490Y-12140990D02*
X17294395Y-12140990D01*
X17294395Y-12140990D02*
X17275348Y-12150514D01*
X17361062Y-12264800D02*
X17342014Y-12274324D01*
X17342014Y-12274324D02*
X17294395Y-12274324D01*
X17294395Y-12274324D02*
X17275348Y-12264800D01*
X17275348Y-12264800D02*
X17265824Y-12245752D01*
X17265824Y-12245752D02*
X17265824Y-12226705D01*
X17265824Y-12226705D02*
X17275348Y-12207657D01*
X17275348Y-12207657D02*
X17294395Y-12198133D01*
X17294395Y-12198133D02*
X17342014Y-12198133D01*
X17342014Y-12198133D02*
X17361062Y-12188609D01*
X17456300Y-12140990D02*
X17456300Y-12340990D01*
X17456300Y-12150514D02*
X17475348Y-12140990D01*
X17475348Y-12140990D02*
X17513443Y-12140990D01*
X17513443Y-12140990D02*
X17532490Y-12150514D01*
X17532490Y-12150514D02*
X17542014Y-12160038D01*
X17542014Y-12160038D02*
X17551538Y-12179086D01*
X17551538Y-12179086D02*
X17551538Y-12236228D01*
X17551538Y-12236228D02*
X17542014Y-12255276D01*
X17542014Y-12255276D02*
X17532490Y-12264800D01*
X17532490Y-12264800D02*
X17513443Y-12274324D01*
X17513443Y-12274324D02*
X17475348Y-12274324D01*
X17475348Y-12274324D02*
X17456300Y-12264800D01*
X17637252Y-12255276D02*
X17646776Y-12264800D01*
X17646776Y-12264800D02*
X17637252Y-12274324D01*
X17637252Y-12274324D02*
X17627729Y-12264800D01*
X17627729Y-12264800D02*
X17637252Y-12255276D01*
X17637252Y-12255276D02*
X17637252Y-12274324D01*
X17637252Y-12150514D02*
X17646776Y-12160038D01*
X17646776Y-12160038D02*
X17637252Y-12169562D01*
X17637252Y-12169562D02*
X17627729Y-12160038D01*
X17627729Y-12160038D02*
X17637252Y-12150514D01*
X17637252Y-12150514D02*
X17637252Y-12169562D01*
D12*
X15953205Y-12569300D02*
X16018205Y-12634300D01*
X16018205Y-12569300D02*
X15953205Y-12634300D01*
D11*
X16303919Y-12494324D02*
X16322967Y-12494324D01*
X16322967Y-12494324D02*
X16342014Y-12503848D01*
X16342014Y-12503848D02*
X16351538Y-12513371D01*
X16351538Y-12513371D02*
X16361062Y-12532419D01*
X16361062Y-12532419D02*
X16370586Y-12570514D01*
X16370586Y-12570514D02*
X16370586Y-12618133D01*
X16370586Y-12618133D02*
X16361062Y-12656228D01*
X16361062Y-12656228D02*
X16351538Y-12675276D01*
X16351538Y-12675276D02*
X16342014Y-12684800D01*
X16342014Y-12684800D02*
X16322967Y-12694324D01*
X16322967Y-12694324D02*
X16303919Y-12694324D01*
X16303919Y-12694324D02*
X16284871Y-12684800D01*
X16284871Y-12684800D02*
X16275347Y-12675276D01*
X16275347Y-12675276D02*
X16265824Y-12656228D01*
X16265824Y-12656228D02*
X16256300Y-12618133D01*
X16256300Y-12618133D02*
X16256300Y-12570514D01*
X16256300Y-12570514D02*
X16265824Y-12532419D01*
X16265824Y-12532419D02*
X16275347Y-12513371D01*
X16275347Y-12513371D02*
X16284871Y-12503848D01*
X16284871Y-12503848D02*
X16303919Y-12494324D01*
X16456300Y-12675276D02*
X16465824Y-12684800D01*
X16465824Y-12684800D02*
X16456300Y-12694324D01*
X16456300Y-12694324D02*
X16446776Y-12684800D01*
X16446776Y-12684800D02*
X16456300Y-12675276D01*
X16456300Y-12675276D02*
X16456300Y-12694324D01*
X16637252Y-12494324D02*
X16599157Y-12494324D01*
X16599157Y-12494324D02*
X16580109Y-12503848D01*
X16580109Y-12503848D02*
X16570586Y-12513371D01*
X16570586Y-12513371D02*
X16551538Y-12541943D01*
X16551538Y-12541943D02*
X16542014Y-12580038D01*
X16542014Y-12580038D02*
X16542014Y-12656228D01*
X16542014Y-12656228D02*
X16551538Y-12675276D01*
X16551538Y-12675276D02*
X16561062Y-12684800D01*
X16561062Y-12684800D02*
X16580109Y-12694324D01*
X16580109Y-12694324D02*
X16618205Y-12694324D01*
X16618205Y-12694324D02*
X16637252Y-12684800D01*
X16637252Y-12684800D02*
X16646776Y-12675276D01*
X16646776Y-12675276D02*
X16656300Y-12656228D01*
X16656300Y-12656228D02*
X16656300Y-12608609D01*
X16656300Y-12608609D02*
X16646776Y-12589562D01*
X16646776Y-12589562D02*
X16637252Y-12580038D01*
X16637252Y-12580038D02*
X16618205Y-12570514D01*
X16618205Y-12570514D02*
X16580109Y-12570514D01*
X16580109Y-12570514D02*
X16561062Y-12580038D01*
X16561062Y-12580038D02*
X16551538Y-12589562D01*
X16551538Y-12589562D02*
X16542014Y-12608609D01*
X16837252Y-12494324D02*
X16742014Y-12494324D01*
X16742014Y-12494324D02*
X16732490Y-12589562D01*
X16732490Y-12589562D02*
X16742014Y-12580038D01*
X16742014Y-12580038D02*
X16761062Y-12570514D01*
X16761062Y-12570514D02*
X16808681Y-12570514D01*
X16808681Y-12570514D02*
X16827729Y-12580038D01*
X16827729Y-12580038D02*
X16837252Y-12589562D01*
X16837252Y-12589562D02*
X16846776Y-12608609D01*
X16846776Y-12608609D02*
X16846776Y-12656228D01*
X16846776Y-12656228D02*
X16837252Y-12675276D01*
X16837252Y-12675276D02*
X16827729Y-12684800D01*
X16827729Y-12684800D02*
X16808681Y-12694324D01*
X16808681Y-12694324D02*
X16761062Y-12694324D01*
X16761062Y-12694324D02*
X16742014Y-12684800D01*
X16742014Y-12684800D02*
X16732490Y-12675276D01*
X16970586Y-12494324D02*
X16989633Y-12494324D01*
X16989633Y-12494324D02*
X17008681Y-12503848D01*
X17008681Y-12503848D02*
X17018205Y-12513371D01*
X17018205Y-12513371D02*
X17027729Y-12532419D01*
X17027729Y-12532419D02*
X17037252Y-12570514D01*
X17037252Y-12570514D02*
X17037252Y-12618133D01*
X17037252Y-12618133D02*
X17027729Y-12656228D01*
X17027729Y-12656228D02*
X17018205Y-12675276D01*
X17018205Y-12675276D02*
X17008681Y-12684800D01*
X17008681Y-12684800D02*
X16989633Y-12694324D01*
X16989633Y-12694324D02*
X16970586Y-12694324D01*
X16970586Y-12694324D02*
X16951538Y-12684800D01*
X16951538Y-12684800D02*
X16942014Y-12675276D01*
X16942014Y-12675276D02*
X16932490Y-12656228D01*
X16932490Y-12656228D02*
X16922967Y-12618133D01*
X16922967Y-12618133D02*
X16922967Y-12570514D01*
X16922967Y-12570514D02*
X16932490Y-12532419D01*
X16932490Y-12532419D02*
X16942014Y-12513371D01*
X16942014Y-12513371D02*
X16951538Y-12503848D01*
X16951538Y-12503848D02*
X16970586Y-12494324D01*
X17122967Y-12694324D02*
X17122967Y-12560990D01*
X17122967Y-12580038D02*
X17132490Y-12570514D01*
X17132490Y-12570514D02*
X17151538Y-12560990D01*
X17151538Y-12560990D02*
X17180110Y-12560990D01*
X17180110Y-12560990D02*
X17199157Y-12570514D01*
X17199157Y-12570514D02*
X17208681Y-12589562D01*
X17208681Y-12589562D02*
X17208681Y-12694324D01*
X17208681Y-12589562D02*
X17218205Y-12570514D01*
X17218205Y-12570514D02*
X17237252Y-12560990D01*
X17237252Y-12560990D02*
X17265824Y-12560990D01*
X17265824Y-12560990D02*
X17284871Y-12570514D01*
X17284871Y-12570514D02*
X17294395Y-12589562D01*
X17294395Y-12589562D02*
X17294395Y-12694324D01*
X17389633Y-12694324D02*
X17389633Y-12560990D01*
X17389633Y-12580038D02*
X17399157Y-12570514D01*
X17399157Y-12570514D02*
X17418205Y-12560990D01*
X17418205Y-12560990D02*
X17446776Y-12560990D01*
X17446776Y-12560990D02*
X17465824Y-12570514D01*
X17465824Y-12570514D02*
X17475348Y-12589562D01*
X17475348Y-12589562D02*
X17475348Y-12694324D01*
X17475348Y-12589562D02*
X17484871Y-12570514D01*
X17484871Y-12570514D02*
X17503919Y-12560990D01*
X17503919Y-12560990D02*
X17532490Y-12560990D01*
X17532490Y-12560990D02*
X17551538Y-12570514D01*
X17551538Y-12570514D02*
X17561062Y-12589562D01*
X17561062Y-12589562D02*
X17561062Y-12694324D01*
X17951538Y-12484800D02*
X17780110Y-12741943D01*
X18208681Y-12494324D02*
X18227729Y-12494324D01*
X18227729Y-12494324D02*
X18246776Y-12503848D01*
X18246776Y-12503848D02*
X18256300Y-12513371D01*
X18256300Y-12513371D02*
X18265824Y-12532419D01*
X18265824Y-12532419D02*
X18275348Y-12570514D01*
X18275348Y-12570514D02*
X18275348Y-12618133D01*
X18275348Y-12618133D02*
X18265824Y-12656228D01*
X18265824Y-12656228D02*
X18256300Y-12675276D01*
X18256300Y-12675276D02*
X18246776Y-12684800D01*
X18246776Y-12684800D02*
X18227729Y-12694324D01*
X18227729Y-12694324D02*
X18208681Y-12694324D01*
X18208681Y-12694324D02*
X18189633Y-12684800D01*
X18189633Y-12684800D02*
X18180110Y-12675276D01*
X18180110Y-12675276D02*
X18170586Y-12656228D01*
X18170586Y-12656228D02*
X18161062Y-12618133D01*
X18161062Y-12618133D02*
X18161062Y-12570514D01*
X18161062Y-12570514D02*
X18170586Y-12532419D01*
X18170586Y-12532419D02*
X18180110Y-12513371D01*
X18180110Y-12513371D02*
X18189633Y-12503848D01*
X18189633Y-12503848D02*
X18208681Y-12494324D01*
X18361062Y-12675276D02*
X18370586Y-12684800D01*
X18370586Y-12684800D02*
X18361062Y-12694324D01*
X18361062Y-12694324D02*
X18351538Y-12684800D01*
X18351538Y-12684800D02*
X18361062Y-12675276D01*
X18361062Y-12675276D02*
X18361062Y-12694324D01*
X18494395Y-12494324D02*
X18513443Y-12494324D01*
X18513443Y-12494324D02*
X18532491Y-12503848D01*
X18532491Y-12503848D02*
X18542014Y-12513371D01*
X18542014Y-12513371D02*
X18551538Y-12532419D01*
X18551538Y-12532419D02*
X18561062Y-12570514D01*
X18561062Y-12570514D02*
X18561062Y-12618133D01*
X18561062Y-12618133D02*
X18551538Y-12656228D01*
X18551538Y-12656228D02*
X18542014Y-12675276D01*
X18542014Y-12675276D02*
X18532491Y-12684800D01*
X18532491Y-12684800D02*
X18513443Y-12694324D01*
X18513443Y-12694324D02*
X18494395Y-12694324D01*
X18494395Y-12694324D02*
X18475348Y-12684800D01*
X18475348Y-12684800D02*
X18465824Y-12675276D01*
X18465824Y-12675276D02*
X18456300Y-12656228D01*
X18456300Y-12656228D02*
X18446776Y-12618133D01*
X18446776Y-12618133D02*
X18446776Y-12570514D01*
X18446776Y-12570514D02*
X18456300Y-12532419D01*
X18456300Y-12532419D02*
X18465824Y-12513371D01*
X18465824Y-12513371D02*
X18475348Y-12503848D01*
X18475348Y-12503848D02*
X18494395Y-12494324D01*
X18637253Y-12513371D02*
X18646776Y-12503848D01*
X18646776Y-12503848D02*
X18665824Y-12494324D01*
X18665824Y-12494324D02*
X18713443Y-12494324D01*
X18713443Y-12494324D02*
X18732491Y-12503848D01*
X18732491Y-12503848D02*
X18742014Y-12513371D01*
X18742014Y-12513371D02*
X18751538Y-12532419D01*
X18751538Y-12532419D02*
X18751538Y-12551467D01*
X18751538Y-12551467D02*
X18742014Y-12580038D01*
X18742014Y-12580038D02*
X18627729Y-12694324D01*
X18627729Y-12694324D02*
X18751538Y-12694324D01*
X18932491Y-12494324D02*
X18837253Y-12494324D01*
X18837253Y-12494324D02*
X18827729Y-12589562D01*
X18827729Y-12589562D02*
X18837253Y-12580038D01*
X18837253Y-12580038D02*
X18856300Y-12570514D01*
X18856300Y-12570514D02*
X18903919Y-12570514D01*
X18903919Y-12570514D02*
X18922967Y-12580038D01*
X18922967Y-12580038D02*
X18932491Y-12589562D01*
X18932491Y-12589562D02*
X18942014Y-12608609D01*
X18942014Y-12608609D02*
X18942014Y-12656228D01*
X18942014Y-12656228D02*
X18932491Y-12675276D01*
X18932491Y-12675276D02*
X18922967Y-12684800D01*
X18922967Y-12684800D02*
X18903919Y-12694324D01*
X18903919Y-12694324D02*
X18856300Y-12694324D01*
X18856300Y-12694324D02*
X18837253Y-12684800D01*
X18837253Y-12684800D02*
X18827729Y-12675276D01*
X19113443Y-12494324D02*
X19075348Y-12494324D01*
X19075348Y-12494324D02*
X19056300Y-12503848D01*
X19056300Y-12503848D02*
X19046776Y-12513371D01*
X19046776Y-12513371D02*
X19027729Y-12541943D01*
X19027729Y-12541943D02*
X19018205Y-12580038D01*
X19018205Y-12580038D02*
X19018205Y-12656228D01*
X19018205Y-12656228D02*
X19027729Y-12675276D01*
X19027729Y-12675276D02*
X19037253Y-12684800D01*
X19037253Y-12684800D02*
X19056300Y-12694324D01*
X19056300Y-12694324D02*
X19094395Y-12694324D01*
X19094395Y-12694324D02*
X19113443Y-12684800D01*
X19113443Y-12684800D02*
X19122967Y-12675276D01*
X19122967Y-12675276D02*
X19132491Y-12656228D01*
X19132491Y-12656228D02*
X19132491Y-12608609D01*
X19132491Y-12608609D02*
X19122967Y-12589562D01*
X19122967Y-12589562D02*
X19113443Y-12580038D01*
X19113443Y-12580038D02*
X19094395Y-12570514D01*
X19094395Y-12570514D02*
X19056300Y-12570514D01*
X19056300Y-12570514D02*
X19037253Y-12580038D01*
X19037253Y-12580038D02*
X19027729Y-12589562D01*
X19027729Y-12589562D02*
X19018205Y-12608609D01*
X19208681Y-12494324D02*
X19208681Y-12532419D01*
X19284872Y-12494324D02*
X19284872Y-12532419D01*
X19580110Y-12770514D02*
X19570586Y-12760990D01*
X19570586Y-12760990D02*
X19551538Y-12732419D01*
X19551538Y-12732419D02*
X19542015Y-12713371D01*
X19542015Y-12713371D02*
X19532491Y-12684800D01*
X19532491Y-12684800D02*
X19522967Y-12637181D01*
X19522967Y-12637181D02*
X19522967Y-12599086D01*
X19522967Y-12599086D02*
X19532491Y-12551467D01*
X19532491Y-12551467D02*
X19542015Y-12522895D01*
X19542015Y-12522895D02*
X19551538Y-12503848D01*
X19551538Y-12503848D02*
X19570586Y-12475276D01*
X19570586Y-12475276D02*
X19580110Y-12465752D01*
X19646776Y-12513371D02*
X19656300Y-12503848D01*
X19656300Y-12503848D02*
X19675348Y-12494324D01*
X19675348Y-12494324D02*
X19722967Y-12494324D01*
X19722967Y-12494324D02*
X19742015Y-12503848D01*
X19742015Y-12503848D02*
X19751538Y-12513371D01*
X19751538Y-12513371D02*
X19761062Y-12532419D01*
X19761062Y-12532419D02*
X19761062Y-12551467D01*
X19761062Y-12551467D02*
X19751538Y-12580038D01*
X19751538Y-12580038D02*
X19637253Y-12694324D01*
X19637253Y-12694324D02*
X19761062Y-12694324D01*
X19999157Y-12694324D02*
X19999157Y-12494324D01*
X20084872Y-12694324D02*
X20084872Y-12589562D01*
X20084872Y-12589562D02*
X20075348Y-12570514D01*
X20075348Y-12570514D02*
X20056300Y-12560990D01*
X20056300Y-12560990D02*
X20027729Y-12560990D01*
X20027729Y-12560990D02*
X20008681Y-12570514D01*
X20008681Y-12570514D02*
X19999157Y-12580038D01*
X20208681Y-12694324D02*
X20189634Y-12684800D01*
X20189634Y-12684800D02*
X20180110Y-12675276D01*
X20180110Y-12675276D02*
X20170586Y-12656228D01*
X20170586Y-12656228D02*
X20170586Y-12599086D01*
X20170586Y-12599086D02*
X20180110Y-12580038D01*
X20180110Y-12580038D02*
X20189634Y-12570514D01*
X20189634Y-12570514D02*
X20208681Y-12560990D01*
X20208681Y-12560990D02*
X20237253Y-12560990D01*
X20237253Y-12560990D02*
X20256300Y-12570514D01*
X20256300Y-12570514D02*
X20265824Y-12580038D01*
X20265824Y-12580038D02*
X20275348Y-12599086D01*
X20275348Y-12599086D02*
X20275348Y-12656228D01*
X20275348Y-12656228D02*
X20265824Y-12675276D01*
X20265824Y-12675276D02*
X20256300Y-12684800D01*
X20256300Y-12684800D02*
X20237253Y-12694324D01*
X20237253Y-12694324D02*
X20208681Y-12694324D01*
X20389634Y-12694324D02*
X20370586Y-12684800D01*
X20370586Y-12684800D02*
X20361062Y-12665752D01*
X20361062Y-12665752D02*
X20361062Y-12494324D01*
X20542015Y-12684800D02*
X20522967Y-12694324D01*
X20522967Y-12694324D02*
X20484872Y-12694324D01*
X20484872Y-12694324D02*
X20465824Y-12684800D01*
X20465824Y-12684800D02*
X20456300Y-12665752D01*
X20456300Y-12665752D02*
X20456300Y-12589562D01*
X20456300Y-12589562D02*
X20465824Y-12570514D01*
X20465824Y-12570514D02*
X20484872Y-12560990D01*
X20484872Y-12560990D02*
X20522967Y-12560990D01*
X20522967Y-12560990D02*
X20542015Y-12570514D01*
X20542015Y-12570514D02*
X20551538Y-12589562D01*
X20551538Y-12589562D02*
X20551538Y-12608609D01*
X20551538Y-12608609D02*
X20456300Y-12627657D01*
X20627729Y-12684800D02*
X20646777Y-12694324D01*
X20646777Y-12694324D02*
X20684872Y-12694324D01*
X20684872Y-12694324D02*
X20703919Y-12684800D01*
X20703919Y-12684800D02*
X20713443Y-12665752D01*
X20713443Y-12665752D02*
X20713443Y-12656228D01*
X20713443Y-12656228D02*
X20703919Y-12637181D01*
X20703919Y-12637181D02*
X20684872Y-12627657D01*
X20684872Y-12627657D02*
X20656300Y-12627657D01*
X20656300Y-12627657D02*
X20637253Y-12618133D01*
X20637253Y-12618133D02*
X20627729Y-12599086D01*
X20627729Y-12599086D02*
X20627729Y-12589562D01*
X20627729Y-12589562D02*
X20637253Y-12570514D01*
X20637253Y-12570514D02*
X20656300Y-12560990D01*
X20656300Y-12560990D02*
X20684872Y-12560990D01*
X20684872Y-12560990D02*
X20703919Y-12570514D01*
X20780110Y-12770514D02*
X20789634Y-12760990D01*
X20789634Y-12760990D02*
X20808681Y-12732419D01*
X20808681Y-12732419D02*
X20818205Y-12713371D01*
X20818205Y-12713371D02*
X20827729Y-12684800D01*
X20827729Y-12684800D02*
X20837253Y-12637181D01*
X20837253Y-12637181D02*
X20837253Y-12599086D01*
X20837253Y-12599086D02*
X20827729Y-12551467D01*
X20827729Y-12551467D02*
X20818205Y-12522895D01*
X20818205Y-12522895D02*
X20808681Y-12503848D01*
X20808681Y-12503848D02*
X20789634Y-12475276D01*
X20789634Y-12475276D02*
X20780110Y-12465752D01*
X21142015Y-12770514D02*
X21132491Y-12760990D01*
X21132491Y-12760990D02*
X21113443Y-12732419D01*
X21113443Y-12732419D02*
X21103919Y-12713371D01*
X21103919Y-12713371D02*
X21094396Y-12684800D01*
X21094396Y-12684800D02*
X21084872Y-12637181D01*
X21084872Y-12637181D02*
X21084872Y-12599086D01*
X21084872Y-12599086D02*
X21094396Y-12551467D01*
X21094396Y-12551467D02*
X21103919Y-12522895D01*
X21103919Y-12522895D02*
X21113443Y-12503848D01*
X21113443Y-12503848D02*
X21132491Y-12475276D01*
X21132491Y-12475276D02*
X21142015Y-12465752D01*
X21218205Y-12560990D02*
X21218205Y-12694324D01*
X21218205Y-12580038D02*
X21227729Y-12570514D01*
X21227729Y-12570514D02*
X21246777Y-12560990D01*
X21246777Y-12560990D02*
X21275348Y-12560990D01*
X21275348Y-12560990D02*
X21294396Y-12570514D01*
X21294396Y-12570514D02*
X21303919Y-12589562D01*
X21303919Y-12589562D02*
X21303919Y-12694324D01*
X21427729Y-12694324D02*
X21408681Y-12684800D01*
X21408681Y-12684800D02*
X21399158Y-12675276D01*
X21399158Y-12675276D02*
X21389634Y-12656228D01*
X21389634Y-12656228D02*
X21389634Y-12599086D01*
X21389634Y-12599086D02*
X21399158Y-12580038D01*
X21399158Y-12580038D02*
X21408681Y-12570514D01*
X21408681Y-12570514D02*
X21427729Y-12560990D01*
X21427729Y-12560990D02*
X21456300Y-12560990D01*
X21456300Y-12560990D02*
X21475348Y-12570514D01*
X21475348Y-12570514D02*
X21484872Y-12580038D01*
X21484872Y-12580038D02*
X21494396Y-12599086D01*
X21494396Y-12599086D02*
X21494396Y-12656228D01*
X21494396Y-12656228D02*
X21484872Y-12675276D01*
X21484872Y-12675276D02*
X21475348Y-12684800D01*
X21475348Y-12684800D02*
X21456300Y-12694324D01*
X21456300Y-12694324D02*
X21427729Y-12694324D01*
X21551539Y-12560990D02*
X21627729Y-12560990D01*
X21580110Y-12494324D02*
X21580110Y-12665752D01*
X21580110Y-12665752D02*
X21589634Y-12684800D01*
X21589634Y-12684800D02*
X21608681Y-12694324D01*
X21608681Y-12694324D02*
X21627729Y-12694324D01*
X21846777Y-12560990D02*
X21846777Y-12760990D01*
X21846777Y-12570514D02*
X21865824Y-12560990D01*
X21865824Y-12560990D02*
X21903920Y-12560990D01*
X21903920Y-12560990D02*
X21922967Y-12570514D01*
X21922967Y-12570514D02*
X21932491Y-12580038D01*
X21932491Y-12580038D02*
X21942015Y-12599086D01*
X21942015Y-12599086D02*
X21942015Y-12656228D01*
X21942015Y-12656228D02*
X21932491Y-12675276D01*
X21932491Y-12675276D02*
X21922967Y-12684800D01*
X21922967Y-12684800D02*
X21903920Y-12694324D01*
X21903920Y-12694324D02*
X21865824Y-12694324D01*
X21865824Y-12694324D02*
X21846777Y-12684800D01*
X22056300Y-12694324D02*
X22037253Y-12684800D01*
X22037253Y-12684800D02*
X22027729Y-12665752D01*
X22027729Y-12665752D02*
X22027729Y-12494324D01*
X22218205Y-12694324D02*
X22218205Y-12589562D01*
X22218205Y-12589562D02*
X22208681Y-12570514D01*
X22208681Y-12570514D02*
X22189634Y-12560990D01*
X22189634Y-12560990D02*
X22151539Y-12560990D01*
X22151539Y-12560990D02*
X22132491Y-12570514D01*
X22218205Y-12684800D02*
X22199158Y-12694324D01*
X22199158Y-12694324D02*
X22151539Y-12694324D01*
X22151539Y-12694324D02*
X22132491Y-12684800D01*
X22132491Y-12684800D02*
X22122967Y-12665752D01*
X22122967Y-12665752D02*
X22122967Y-12646705D01*
X22122967Y-12646705D02*
X22132491Y-12627657D01*
X22132491Y-12627657D02*
X22151539Y-12618133D01*
X22151539Y-12618133D02*
X22199158Y-12618133D01*
X22199158Y-12618133D02*
X22218205Y-12608609D01*
X22284872Y-12560990D02*
X22361062Y-12560990D01*
X22313443Y-12494324D02*
X22313443Y-12665752D01*
X22313443Y-12665752D02*
X22322967Y-12684800D01*
X22322967Y-12684800D02*
X22342015Y-12694324D01*
X22342015Y-12694324D02*
X22361062Y-12694324D01*
X22503919Y-12684800D02*
X22484872Y-12694324D01*
X22484872Y-12694324D02*
X22446777Y-12694324D01*
X22446777Y-12694324D02*
X22427729Y-12684800D01*
X22427729Y-12684800D02*
X22418205Y-12665752D01*
X22418205Y-12665752D02*
X22418205Y-12589562D01*
X22418205Y-12589562D02*
X22427729Y-12570514D01*
X22427729Y-12570514D02*
X22446777Y-12560990D01*
X22446777Y-12560990D02*
X22484872Y-12560990D01*
X22484872Y-12560990D02*
X22503919Y-12570514D01*
X22503919Y-12570514D02*
X22513443Y-12589562D01*
X22513443Y-12589562D02*
X22513443Y-12608609D01*
X22513443Y-12608609D02*
X22418205Y-12627657D01*
X22684872Y-12694324D02*
X22684872Y-12494324D01*
X22684872Y-12684800D02*
X22665824Y-12694324D01*
X22665824Y-12694324D02*
X22627729Y-12694324D01*
X22627729Y-12694324D02*
X22608681Y-12684800D01*
X22608681Y-12684800D02*
X22599158Y-12675276D01*
X22599158Y-12675276D02*
X22589634Y-12656228D01*
X22589634Y-12656228D02*
X22589634Y-12599086D01*
X22589634Y-12599086D02*
X22599158Y-12580038D01*
X22599158Y-12580038D02*
X22608681Y-12570514D01*
X22608681Y-12570514D02*
X22627729Y-12560990D01*
X22627729Y-12560990D02*
X22665824Y-12560990D01*
X22665824Y-12560990D02*
X22684872Y-12570514D01*
X22761062Y-12770514D02*
X22770586Y-12760990D01*
X22770586Y-12760990D02*
X22789634Y-12732419D01*
X22789634Y-12732419D02*
X22799158Y-12713371D01*
X22799158Y-12713371D02*
X22808681Y-12684800D01*
X22808681Y-12684800D02*
X22818205Y-12637181D01*
X22818205Y-12637181D02*
X22818205Y-12599086D01*
X22818205Y-12599086D02*
X22808681Y-12551467D01*
X22808681Y-12551467D02*
X22799158Y-12522895D01*
X22799158Y-12522895D02*
X22789634Y-12503848D01*
X22789634Y-12503848D02*
X22770586Y-12475276D01*
X22770586Y-12475276D02*
X22761062Y-12465752D01*
D10*
X16018205Y-12865800D02*
G75*
G03*
X16018205Y-12865800I-50000J0D01*
G01*
D11*
X16370586Y-12958324D02*
X16256300Y-12958324D01*
X16313443Y-12958324D02*
X16313443Y-12758324D01*
X16313443Y-12758324D02*
X16294395Y-12786895D01*
X16294395Y-12786895D02*
X16275347Y-12805943D01*
X16275347Y-12805943D02*
X16256300Y-12815467D01*
X16456300Y-12939276D02*
X16465824Y-12948800D01*
X16465824Y-12948800D02*
X16456300Y-12958324D01*
X16456300Y-12958324D02*
X16446776Y-12948800D01*
X16446776Y-12948800D02*
X16456300Y-12939276D01*
X16456300Y-12939276D02*
X16456300Y-12958324D01*
X16589633Y-12758324D02*
X16608681Y-12758324D01*
X16608681Y-12758324D02*
X16627728Y-12767848D01*
X16627728Y-12767848D02*
X16637252Y-12777371D01*
X16637252Y-12777371D02*
X16646776Y-12796419D01*
X16646776Y-12796419D02*
X16656300Y-12834514D01*
X16656300Y-12834514D02*
X16656300Y-12882133D01*
X16656300Y-12882133D02*
X16646776Y-12920228D01*
X16646776Y-12920228D02*
X16637252Y-12939276D01*
X16637252Y-12939276D02*
X16627728Y-12948800D01*
X16627728Y-12948800D02*
X16608681Y-12958324D01*
X16608681Y-12958324D02*
X16589633Y-12958324D01*
X16589633Y-12958324D02*
X16570586Y-12948800D01*
X16570586Y-12948800D02*
X16561062Y-12939276D01*
X16561062Y-12939276D02*
X16551538Y-12920228D01*
X16551538Y-12920228D02*
X16542014Y-12882133D01*
X16542014Y-12882133D02*
X16542014Y-12834514D01*
X16542014Y-12834514D02*
X16551538Y-12796419D01*
X16551538Y-12796419D02*
X16561062Y-12777371D01*
X16561062Y-12777371D02*
X16570586Y-12767848D01*
X16570586Y-12767848D02*
X16589633Y-12758324D01*
X16780109Y-12758324D02*
X16799157Y-12758324D01*
X16799157Y-12758324D02*
X16818205Y-12767848D01*
X16818205Y-12767848D02*
X16827729Y-12777371D01*
X16827729Y-12777371D02*
X16837252Y-12796419D01*
X16837252Y-12796419D02*
X16846776Y-12834514D01*
X16846776Y-12834514D02*
X16846776Y-12882133D01*
X16846776Y-12882133D02*
X16837252Y-12920228D01*
X16837252Y-12920228D02*
X16827729Y-12939276D01*
X16827729Y-12939276D02*
X16818205Y-12948800D01*
X16818205Y-12948800D02*
X16799157Y-12958324D01*
X16799157Y-12958324D02*
X16780109Y-12958324D01*
X16780109Y-12958324D02*
X16761062Y-12948800D01*
X16761062Y-12948800D02*
X16751538Y-12939276D01*
X16751538Y-12939276D02*
X16742014Y-12920228D01*
X16742014Y-12920228D02*
X16732490Y-12882133D01*
X16732490Y-12882133D02*
X16732490Y-12834514D01*
X16732490Y-12834514D02*
X16742014Y-12796419D01*
X16742014Y-12796419D02*
X16751538Y-12777371D01*
X16751538Y-12777371D02*
X16761062Y-12767848D01*
X16761062Y-12767848D02*
X16780109Y-12758324D01*
X16970586Y-12758324D02*
X16989633Y-12758324D01*
X16989633Y-12758324D02*
X17008681Y-12767848D01*
X17008681Y-12767848D02*
X17018205Y-12777371D01*
X17018205Y-12777371D02*
X17027729Y-12796419D01*
X17027729Y-12796419D02*
X17037252Y-12834514D01*
X17037252Y-12834514D02*
X17037252Y-12882133D01*
X17037252Y-12882133D02*
X17027729Y-12920228D01*
X17027729Y-12920228D02*
X17018205Y-12939276D01*
X17018205Y-12939276D02*
X17008681Y-12948800D01*
X17008681Y-12948800D02*
X16989633Y-12958324D01*
X16989633Y-12958324D02*
X16970586Y-12958324D01*
X16970586Y-12958324D02*
X16951538Y-12948800D01*
X16951538Y-12948800D02*
X16942014Y-12939276D01*
X16942014Y-12939276D02*
X16932490Y-12920228D01*
X16932490Y-12920228D02*
X16922967Y-12882133D01*
X16922967Y-12882133D02*
X16922967Y-12834514D01*
X16922967Y-12834514D02*
X16932490Y-12796419D01*
X16932490Y-12796419D02*
X16942014Y-12777371D01*
X16942014Y-12777371D02*
X16951538Y-12767848D01*
X16951538Y-12767848D02*
X16970586Y-12758324D01*
X17122967Y-12958324D02*
X17122967Y-12824990D01*
X17122967Y-12844038D02*
X17132490Y-12834514D01*
X17132490Y-12834514D02*
X17151538Y-12824990D01*
X17151538Y-12824990D02*
X17180110Y-12824990D01*
X17180110Y-12824990D02*
X17199157Y-12834514D01*
X17199157Y-12834514D02*
X17208681Y-12853562D01*
X17208681Y-12853562D02*
X17208681Y-12958324D01*
X17208681Y-12853562D02*
X17218205Y-12834514D01*
X17218205Y-12834514D02*
X17237252Y-12824990D01*
X17237252Y-12824990D02*
X17265824Y-12824990D01*
X17265824Y-12824990D02*
X17284871Y-12834514D01*
X17284871Y-12834514D02*
X17294395Y-12853562D01*
X17294395Y-12853562D02*
X17294395Y-12958324D01*
X17389633Y-12958324D02*
X17389633Y-12824990D01*
X17389633Y-12844038D02*
X17399157Y-12834514D01*
X17399157Y-12834514D02*
X17418205Y-12824990D01*
X17418205Y-12824990D02*
X17446776Y-12824990D01*
X17446776Y-12824990D02*
X17465824Y-12834514D01*
X17465824Y-12834514D02*
X17475348Y-12853562D01*
X17475348Y-12853562D02*
X17475348Y-12958324D01*
X17475348Y-12853562D02*
X17484871Y-12834514D01*
X17484871Y-12834514D02*
X17503919Y-12824990D01*
X17503919Y-12824990D02*
X17532490Y-12824990D01*
X17532490Y-12824990D02*
X17551538Y-12834514D01*
X17551538Y-12834514D02*
X17561062Y-12853562D01*
X17561062Y-12853562D02*
X17561062Y-12958324D01*
X17951538Y-12748800D02*
X17780110Y-13005943D01*
X18208681Y-12758324D02*
X18227729Y-12758324D01*
X18227729Y-12758324D02*
X18246776Y-12767848D01*
X18246776Y-12767848D02*
X18256300Y-12777371D01*
X18256300Y-12777371D02*
X18265824Y-12796419D01*
X18265824Y-12796419D02*
X18275348Y-12834514D01*
X18275348Y-12834514D02*
X18275348Y-12882133D01*
X18275348Y-12882133D02*
X18265824Y-12920228D01*
X18265824Y-12920228D02*
X18256300Y-12939276D01*
X18256300Y-12939276D02*
X18246776Y-12948800D01*
X18246776Y-12948800D02*
X18227729Y-12958324D01*
X18227729Y-12958324D02*
X18208681Y-12958324D01*
X18208681Y-12958324D02*
X18189633Y-12948800D01*
X18189633Y-12948800D02*
X18180110Y-12939276D01*
X18180110Y-12939276D02*
X18170586Y-12920228D01*
X18170586Y-12920228D02*
X18161062Y-12882133D01*
X18161062Y-12882133D02*
X18161062Y-12834514D01*
X18161062Y-12834514D02*
X18170586Y-12796419D01*
X18170586Y-12796419D02*
X18180110Y-12777371D01*
X18180110Y-12777371D02*
X18189633Y-12767848D01*
X18189633Y-12767848D02*
X18208681Y-12758324D01*
X18361062Y-12939276D02*
X18370586Y-12948800D01*
X18370586Y-12948800D02*
X18361062Y-12958324D01*
X18361062Y-12958324D02*
X18351538Y-12948800D01*
X18351538Y-12948800D02*
X18361062Y-12939276D01*
X18361062Y-12939276D02*
X18361062Y-12958324D01*
X18494395Y-12758324D02*
X18513443Y-12758324D01*
X18513443Y-12758324D02*
X18532491Y-12767848D01*
X18532491Y-12767848D02*
X18542014Y-12777371D01*
X18542014Y-12777371D02*
X18551538Y-12796419D01*
X18551538Y-12796419D02*
X18561062Y-12834514D01*
X18561062Y-12834514D02*
X18561062Y-12882133D01*
X18561062Y-12882133D02*
X18551538Y-12920228D01*
X18551538Y-12920228D02*
X18542014Y-12939276D01*
X18542014Y-12939276D02*
X18532491Y-12948800D01*
X18532491Y-12948800D02*
X18513443Y-12958324D01*
X18513443Y-12958324D02*
X18494395Y-12958324D01*
X18494395Y-12958324D02*
X18475348Y-12948800D01*
X18475348Y-12948800D02*
X18465824Y-12939276D01*
X18465824Y-12939276D02*
X18456300Y-12920228D01*
X18456300Y-12920228D02*
X18446776Y-12882133D01*
X18446776Y-12882133D02*
X18446776Y-12834514D01*
X18446776Y-12834514D02*
X18456300Y-12796419D01*
X18456300Y-12796419D02*
X18465824Y-12777371D01*
X18465824Y-12777371D02*
X18475348Y-12767848D01*
X18475348Y-12767848D02*
X18494395Y-12758324D01*
X18627729Y-12758324D02*
X18751538Y-12758324D01*
X18751538Y-12758324D02*
X18684872Y-12834514D01*
X18684872Y-12834514D02*
X18713443Y-12834514D01*
X18713443Y-12834514D02*
X18732491Y-12844038D01*
X18732491Y-12844038D02*
X18742014Y-12853562D01*
X18742014Y-12853562D02*
X18751538Y-12872609D01*
X18751538Y-12872609D02*
X18751538Y-12920228D01*
X18751538Y-12920228D02*
X18742014Y-12939276D01*
X18742014Y-12939276D02*
X18732491Y-12948800D01*
X18732491Y-12948800D02*
X18713443Y-12958324D01*
X18713443Y-12958324D02*
X18656300Y-12958324D01*
X18656300Y-12958324D02*
X18637253Y-12948800D01*
X18637253Y-12948800D02*
X18627729Y-12939276D01*
X18846776Y-12958324D02*
X18884872Y-12958324D01*
X18884872Y-12958324D02*
X18903919Y-12948800D01*
X18903919Y-12948800D02*
X18913443Y-12939276D01*
X18913443Y-12939276D02*
X18932491Y-12910705D01*
X18932491Y-12910705D02*
X18942014Y-12872609D01*
X18942014Y-12872609D02*
X18942014Y-12796419D01*
X18942014Y-12796419D02*
X18932491Y-12777371D01*
X18932491Y-12777371D02*
X18922967Y-12767848D01*
X18922967Y-12767848D02*
X18903919Y-12758324D01*
X18903919Y-12758324D02*
X18865824Y-12758324D01*
X18865824Y-12758324D02*
X18846776Y-12767848D01*
X18846776Y-12767848D02*
X18837253Y-12777371D01*
X18837253Y-12777371D02*
X18827729Y-12796419D01*
X18827729Y-12796419D02*
X18827729Y-12844038D01*
X18827729Y-12844038D02*
X18837253Y-12863086D01*
X18837253Y-12863086D02*
X18846776Y-12872609D01*
X18846776Y-12872609D02*
X18865824Y-12882133D01*
X18865824Y-12882133D02*
X18903919Y-12882133D01*
X18903919Y-12882133D02*
X18922967Y-12872609D01*
X18922967Y-12872609D02*
X18932491Y-12863086D01*
X18932491Y-12863086D02*
X18942014Y-12844038D01*
X19113443Y-12824990D02*
X19113443Y-12958324D01*
X19065824Y-12748800D02*
X19018205Y-12891657D01*
X19018205Y-12891657D02*
X19142014Y-12891657D01*
X19208681Y-12758324D02*
X19208681Y-12796419D01*
X19284872Y-12758324D02*
X19284872Y-12796419D01*
X19580110Y-13034514D02*
X19570586Y-13024990D01*
X19570586Y-13024990D02*
X19551538Y-12996419D01*
X19551538Y-12996419D02*
X19542015Y-12977371D01*
X19542015Y-12977371D02*
X19532491Y-12948800D01*
X19532491Y-12948800D02*
X19522967Y-12901181D01*
X19522967Y-12901181D02*
X19522967Y-12863086D01*
X19522967Y-12863086D02*
X19532491Y-12815467D01*
X19532491Y-12815467D02*
X19542015Y-12786895D01*
X19542015Y-12786895D02*
X19551538Y-12767848D01*
X19551538Y-12767848D02*
X19570586Y-12739276D01*
X19570586Y-12739276D02*
X19580110Y-12729752D01*
X19646776Y-12777371D02*
X19656300Y-12767848D01*
X19656300Y-12767848D02*
X19675348Y-12758324D01*
X19675348Y-12758324D02*
X19722967Y-12758324D01*
X19722967Y-12758324D02*
X19742015Y-12767848D01*
X19742015Y-12767848D02*
X19751538Y-12777371D01*
X19751538Y-12777371D02*
X19761062Y-12796419D01*
X19761062Y-12796419D02*
X19761062Y-12815467D01*
X19761062Y-12815467D02*
X19751538Y-12844038D01*
X19751538Y-12844038D02*
X19637253Y-12958324D01*
X19637253Y-12958324D02*
X19761062Y-12958324D01*
X19999157Y-12958324D02*
X19999157Y-12758324D01*
X20084872Y-12958324D02*
X20084872Y-12853562D01*
X20084872Y-12853562D02*
X20075348Y-12834514D01*
X20075348Y-12834514D02*
X20056300Y-12824990D01*
X20056300Y-12824990D02*
X20027729Y-12824990D01*
X20027729Y-12824990D02*
X20008681Y-12834514D01*
X20008681Y-12834514D02*
X19999157Y-12844038D01*
X20208681Y-12958324D02*
X20189634Y-12948800D01*
X20189634Y-12948800D02*
X20180110Y-12939276D01*
X20180110Y-12939276D02*
X20170586Y-12920228D01*
X20170586Y-12920228D02*
X20170586Y-12863086D01*
X20170586Y-12863086D02*
X20180110Y-12844038D01*
X20180110Y-12844038D02*
X20189634Y-12834514D01*
X20189634Y-12834514D02*
X20208681Y-12824990D01*
X20208681Y-12824990D02*
X20237253Y-12824990D01*
X20237253Y-12824990D02*
X20256300Y-12834514D01*
X20256300Y-12834514D02*
X20265824Y-12844038D01*
X20265824Y-12844038D02*
X20275348Y-12863086D01*
X20275348Y-12863086D02*
X20275348Y-12920228D01*
X20275348Y-12920228D02*
X20265824Y-12939276D01*
X20265824Y-12939276D02*
X20256300Y-12948800D01*
X20256300Y-12948800D02*
X20237253Y-12958324D01*
X20237253Y-12958324D02*
X20208681Y-12958324D01*
X20389634Y-12958324D02*
X20370586Y-12948800D01*
X20370586Y-12948800D02*
X20361062Y-12929752D01*
X20361062Y-12929752D02*
X20361062Y-12758324D01*
X20542015Y-12948800D02*
X20522967Y-12958324D01*
X20522967Y-12958324D02*
X20484872Y-12958324D01*
X20484872Y-12958324D02*
X20465824Y-12948800D01*
X20465824Y-12948800D02*
X20456300Y-12929752D01*
X20456300Y-12929752D02*
X20456300Y-12853562D01*
X20456300Y-12853562D02*
X20465824Y-12834514D01*
X20465824Y-12834514D02*
X20484872Y-12824990D01*
X20484872Y-12824990D02*
X20522967Y-12824990D01*
X20522967Y-12824990D02*
X20542015Y-12834514D01*
X20542015Y-12834514D02*
X20551538Y-12853562D01*
X20551538Y-12853562D02*
X20551538Y-12872609D01*
X20551538Y-12872609D02*
X20456300Y-12891657D01*
X20627729Y-12948800D02*
X20646777Y-12958324D01*
X20646777Y-12958324D02*
X20684872Y-12958324D01*
X20684872Y-12958324D02*
X20703919Y-12948800D01*
X20703919Y-12948800D02*
X20713443Y-12929752D01*
X20713443Y-12929752D02*
X20713443Y-12920228D01*
X20713443Y-12920228D02*
X20703919Y-12901181D01*
X20703919Y-12901181D02*
X20684872Y-12891657D01*
X20684872Y-12891657D02*
X20656300Y-12891657D01*
X20656300Y-12891657D02*
X20637253Y-12882133D01*
X20637253Y-12882133D02*
X20627729Y-12863086D01*
X20627729Y-12863086D02*
X20627729Y-12853562D01*
X20627729Y-12853562D02*
X20637253Y-12834514D01*
X20637253Y-12834514D02*
X20656300Y-12824990D01*
X20656300Y-12824990D02*
X20684872Y-12824990D01*
X20684872Y-12824990D02*
X20703919Y-12834514D01*
X20780110Y-13034514D02*
X20789634Y-13024990D01*
X20789634Y-13024990D02*
X20808681Y-12996419D01*
X20808681Y-12996419D02*
X20818205Y-12977371D01*
X20818205Y-12977371D02*
X20827729Y-12948800D01*
X20827729Y-12948800D02*
X20837253Y-12901181D01*
X20837253Y-12901181D02*
X20837253Y-12863086D01*
X20837253Y-12863086D02*
X20827729Y-12815467D01*
X20827729Y-12815467D02*
X20818205Y-12786895D01*
X20818205Y-12786895D02*
X20808681Y-12767848D01*
X20808681Y-12767848D02*
X20789634Y-12739276D01*
X20789634Y-12739276D02*
X20780110Y-12729752D01*
X21142015Y-13034514D02*
X21132491Y-13024990D01*
X21132491Y-13024990D02*
X21113443Y-12996419D01*
X21113443Y-12996419D02*
X21103919Y-12977371D01*
X21103919Y-12977371D02*
X21094396Y-12948800D01*
X21094396Y-12948800D02*
X21084872Y-12901181D01*
X21084872Y-12901181D02*
X21084872Y-12863086D01*
X21084872Y-12863086D02*
X21094396Y-12815467D01*
X21094396Y-12815467D02*
X21103919Y-12786895D01*
X21103919Y-12786895D02*
X21113443Y-12767848D01*
X21113443Y-12767848D02*
X21132491Y-12739276D01*
X21132491Y-12739276D02*
X21142015Y-12729752D01*
X21218205Y-12824990D02*
X21218205Y-12958324D01*
X21218205Y-12844038D02*
X21227729Y-12834514D01*
X21227729Y-12834514D02*
X21246777Y-12824990D01*
X21246777Y-12824990D02*
X21275348Y-12824990D01*
X21275348Y-12824990D02*
X21294396Y-12834514D01*
X21294396Y-12834514D02*
X21303919Y-12853562D01*
X21303919Y-12853562D02*
X21303919Y-12958324D01*
X21427729Y-12958324D02*
X21408681Y-12948800D01*
X21408681Y-12948800D02*
X21399158Y-12939276D01*
X21399158Y-12939276D02*
X21389634Y-12920228D01*
X21389634Y-12920228D02*
X21389634Y-12863086D01*
X21389634Y-12863086D02*
X21399158Y-12844038D01*
X21399158Y-12844038D02*
X21408681Y-12834514D01*
X21408681Y-12834514D02*
X21427729Y-12824990D01*
X21427729Y-12824990D02*
X21456300Y-12824990D01*
X21456300Y-12824990D02*
X21475348Y-12834514D01*
X21475348Y-12834514D02*
X21484872Y-12844038D01*
X21484872Y-12844038D02*
X21494396Y-12863086D01*
X21494396Y-12863086D02*
X21494396Y-12920228D01*
X21494396Y-12920228D02*
X21484872Y-12939276D01*
X21484872Y-12939276D02*
X21475348Y-12948800D01*
X21475348Y-12948800D02*
X21456300Y-12958324D01*
X21456300Y-12958324D02*
X21427729Y-12958324D01*
X21551539Y-12824990D02*
X21627729Y-12824990D01*
X21580110Y-12758324D02*
X21580110Y-12929752D01*
X21580110Y-12929752D02*
X21589634Y-12948800D01*
X21589634Y-12948800D02*
X21608681Y-12958324D01*
X21608681Y-12958324D02*
X21627729Y-12958324D01*
X21846777Y-12824990D02*
X21846777Y-13024990D01*
X21846777Y-12834514D02*
X21865824Y-12824990D01*
X21865824Y-12824990D02*
X21903920Y-12824990D01*
X21903920Y-12824990D02*
X21922967Y-12834514D01*
X21922967Y-12834514D02*
X21932491Y-12844038D01*
X21932491Y-12844038D02*
X21942015Y-12863086D01*
X21942015Y-12863086D02*
X21942015Y-12920228D01*
X21942015Y-12920228D02*
X21932491Y-12939276D01*
X21932491Y-12939276D02*
X21922967Y-12948800D01*
X21922967Y-12948800D02*
X21903920Y-12958324D01*
X21903920Y-12958324D02*
X21865824Y-12958324D01*
X21865824Y-12958324D02*
X21846777Y-12948800D01*
X22056300Y-12958324D02*
X22037253Y-12948800D01*
X22037253Y-12948800D02*
X22027729Y-12929752D01*
X22027729Y-12929752D02*
X22027729Y-12758324D01*
X22218205Y-12958324D02*
X22218205Y-12853562D01*
X22218205Y-12853562D02*
X22208681Y-12834514D01*
X22208681Y-12834514D02*
X22189634Y-12824990D01*
X22189634Y-12824990D02*
X22151539Y-12824990D01*
X22151539Y-12824990D02*
X22132491Y-12834514D01*
X22218205Y-12948800D02*
X22199158Y-12958324D01*
X22199158Y-12958324D02*
X22151539Y-12958324D01*
X22151539Y-12958324D02*
X22132491Y-12948800D01*
X22132491Y-12948800D02*
X22122967Y-12929752D01*
X22122967Y-12929752D02*
X22122967Y-12910705D01*
X22122967Y-12910705D02*
X22132491Y-12891657D01*
X22132491Y-12891657D02*
X22151539Y-12882133D01*
X22151539Y-12882133D02*
X22199158Y-12882133D01*
X22199158Y-12882133D02*
X22218205Y-12872609D01*
X22284872Y-12824990D02*
X22361062Y-12824990D01*
X22313443Y-12758324D02*
X22313443Y-12929752D01*
X22313443Y-12929752D02*
X22322967Y-12948800D01*
X22322967Y-12948800D02*
X22342015Y-12958324D01*
X22342015Y-12958324D02*
X22361062Y-12958324D01*
X22503919Y-12948800D02*
X22484872Y-12958324D01*
X22484872Y-12958324D02*
X22446777Y-12958324D01*
X22446777Y-12958324D02*
X22427729Y-12948800D01*
X22427729Y-12948800D02*
X22418205Y-12929752D01*
X22418205Y-12929752D02*
X22418205Y-12853562D01*
X22418205Y-12853562D02*
X22427729Y-12834514D01*
X22427729Y-12834514D02*
X22446777Y-12824990D01*
X22446777Y-12824990D02*
X22484872Y-12824990D01*
X22484872Y-12824990D02*
X22503919Y-12834514D01*
X22503919Y-12834514D02*
X22513443Y-12853562D01*
X22513443Y-12853562D02*
X22513443Y-12872609D01*
X22513443Y-12872609D02*
X22418205Y-12891657D01*
X22684872Y-12958324D02*
X22684872Y-12758324D01*
X22684872Y-12948800D02*
X22665824Y-12958324D01*
X22665824Y-12958324D02*
X22627729Y-12958324D01*
X22627729Y-12958324D02*
X22608681Y-12948800D01*
X22608681Y-12948800D02*
X22599158Y-12939276D01*
X22599158Y-12939276D02*
X22589634Y-12920228D01*
X22589634Y-12920228D02*
X22589634Y-12863086D01*
X22589634Y-12863086D02*
X22599158Y-12844038D01*
X22599158Y-12844038D02*
X22608681Y-12834514D01*
X22608681Y-12834514D02*
X22627729Y-12824990D01*
X22627729Y-12824990D02*
X22665824Y-12824990D01*
X22665824Y-12824990D02*
X22684872Y-12834514D01*
X22761062Y-13034514D02*
X22770586Y-13024990D01*
X22770586Y-13024990D02*
X22789634Y-12996419D01*
X22789634Y-12996419D02*
X22799158Y-12977371D01*
X22799158Y-12977371D02*
X22808681Y-12948800D01*
X22808681Y-12948800D02*
X22818205Y-12901181D01*
X22818205Y-12901181D02*
X22818205Y-12863086D01*
X22818205Y-12863086D02*
X22808681Y-12815467D01*
X22808681Y-12815467D02*
X22799158Y-12786895D01*
X22799158Y-12786895D02*
X22789634Y-12767848D01*
X22789634Y-12767848D02*
X22770586Y-12739276D01*
X22770586Y-12739276D02*
X22761062Y-12729752D01*
X15918205Y-13029800D02*
X15918205Y-13229800D01*
X15818205Y-13129800D02*
X16018205Y-13129800D01*
X16246776Y-13022324D02*
X16370586Y-13022324D01*
X16370586Y-13022324D02*
X16303919Y-13098514D01*
X16303919Y-13098514D02*
X16332490Y-13098514D01*
X16332490Y-13098514D02*
X16351538Y-13108038D01*
X16351538Y-13108038D02*
X16361062Y-13117562D01*
X16361062Y-13117562D02*
X16370586Y-13136609D01*
X16370586Y-13136609D02*
X16370586Y-13184228D01*
X16370586Y-13184228D02*
X16361062Y-13203276D01*
X16361062Y-13203276D02*
X16351538Y-13212800D01*
X16351538Y-13212800D02*
X16332490Y-13222324D01*
X16332490Y-13222324D02*
X16275347Y-13222324D01*
X16275347Y-13222324D02*
X16256300Y-13212800D01*
X16256300Y-13212800D02*
X16246776Y-13203276D01*
X16456300Y-13203276D02*
X16465824Y-13212800D01*
X16465824Y-13212800D02*
X16456300Y-13222324D01*
X16456300Y-13222324D02*
X16446776Y-13212800D01*
X16446776Y-13212800D02*
X16456300Y-13203276D01*
X16456300Y-13203276D02*
X16456300Y-13222324D01*
X16542014Y-13041371D02*
X16551538Y-13031848D01*
X16551538Y-13031848D02*
X16570586Y-13022324D01*
X16570586Y-13022324D02*
X16618205Y-13022324D01*
X16618205Y-13022324D02*
X16637252Y-13031848D01*
X16637252Y-13031848D02*
X16646776Y-13041371D01*
X16646776Y-13041371D02*
X16656300Y-13060419D01*
X16656300Y-13060419D02*
X16656300Y-13079467D01*
X16656300Y-13079467D02*
X16646776Y-13108038D01*
X16646776Y-13108038D02*
X16532490Y-13222324D01*
X16532490Y-13222324D02*
X16656300Y-13222324D01*
X16780109Y-13022324D02*
X16799157Y-13022324D01*
X16799157Y-13022324D02*
X16818205Y-13031848D01*
X16818205Y-13031848D02*
X16827729Y-13041371D01*
X16827729Y-13041371D02*
X16837252Y-13060419D01*
X16837252Y-13060419D02*
X16846776Y-13098514D01*
X16846776Y-13098514D02*
X16846776Y-13146133D01*
X16846776Y-13146133D02*
X16837252Y-13184228D01*
X16837252Y-13184228D02*
X16827729Y-13203276D01*
X16827729Y-13203276D02*
X16818205Y-13212800D01*
X16818205Y-13212800D02*
X16799157Y-13222324D01*
X16799157Y-13222324D02*
X16780109Y-13222324D01*
X16780109Y-13222324D02*
X16761062Y-13212800D01*
X16761062Y-13212800D02*
X16751538Y-13203276D01*
X16751538Y-13203276D02*
X16742014Y-13184228D01*
X16742014Y-13184228D02*
X16732490Y-13146133D01*
X16732490Y-13146133D02*
X16732490Y-13098514D01*
X16732490Y-13098514D02*
X16742014Y-13060419D01*
X16742014Y-13060419D02*
X16751538Y-13041371D01*
X16751538Y-13041371D02*
X16761062Y-13031848D01*
X16761062Y-13031848D02*
X16780109Y-13022324D01*
X16970586Y-13022324D02*
X16989633Y-13022324D01*
X16989633Y-13022324D02*
X17008681Y-13031848D01*
X17008681Y-13031848D02*
X17018205Y-13041371D01*
X17018205Y-13041371D02*
X17027729Y-13060419D01*
X17027729Y-13060419D02*
X17037252Y-13098514D01*
X17037252Y-13098514D02*
X17037252Y-13146133D01*
X17037252Y-13146133D02*
X17027729Y-13184228D01*
X17027729Y-13184228D02*
X17018205Y-13203276D01*
X17018205Y-13203276D02*
X17008681Y-13212800D01*
X17008681Y-13212800D02*
X16989633Y-13222324D01*
X16989633Y-13222324D02*
X16970586Y-13222324D01*
X16970586Y-13222324D02*
X16951538Y-13212800D01*
X16951538Y-13212800D02*
X16942014Y-13203276D01*
X16942014Y-13203276D02*
X16932490Y-13184228D01*
X16932490Y-13184228D02*
X16922967Y-13146133D01*
X16922967Y-13146133D02*
X16922967Y-13098514D01*
X16922967Y-13098514D02*
X16932490Y-13060419D01*
X16932490Y-13060419D02*
X16942014Y-13041371D01*
X16942014Y-13041371D02*
X16951538Y-13031848D01*
X16951538Y-13031848D02*
X16970586Y-13022324D01*
X17122967Y-13222324D02*
X17122967Y-13088990D01*
X17122967Y-13108038D02*
X17132490Y-13098514D01*
X17132490Y-13098514D02*
X17151538Y-13088990D01*
X17151538Y-13088990D02*
X17180110Y-13088990D01*
X17180110Y-13088990D02*
X17199157Y-13098514D01*
X17199157Y-13098514D02*
X17208681Y-13117562D01*
X17208681Y-13117562D02*
X17208681Y-13222324D01*
X17208681Y-13117562D02*
X17218205Y-13098514D01*
X17218205Y-13098514D02*
X17237252Y-13088990D01*
X17237252Y-13088990D02*
X17265824Y-13088990D01*
X17265824Y-13088990D02*
X17284871Y-13098514D01*
X17284871Y-13098514D02*
X17294395Y-13117562D01*
X17294395Y-13117562D02*
X17294395Y-13222324D01*
X17389633Y-13222324D02*
X17389633Y-13088990D01*
X17389633Y-13108038D02*
X17399157Y-13098514D01*
X17399157Y-13098514D02*
X17418205Y-13088990D01*
X17418205Y-13088990D02*
X17446776Y-13088990D01*
X17446776Y-13088990D02*
X17465824Y-13098514D01*
X17465824Y-13098514D02*
X17475348Y-13117562D01*
X17475348Y-13117562D02*
X17475348Y-13222324D01*
X17475348Y-13117562D02*
X17484871Y-13098514D01*
X17484871Y-13098514D02*
X17503919Y-13088990D01*
X17503919Y-13088990D02*
X17532490Y-13088990D01*
X17532490Y-13088990D02*
X17551538Y-13098514D01*
X17551538Y-13098514D02*
X17561062Y-13117562D01*
X17561062Y-13117562D02*
X17561062Y-13222324D01*
X17951538Y-13012800D02*
X17780110Y-13269943D01*
X18208681Y-13022324D02*
X18227729Y-13022324D01*
X18227729Y-13022324D02*
X18246776Y-13031848D01*
X18246776Y-13031848D02*
X18256300Y-13041371D01*
X18256300Y-13041371D02*
X18265824Y-13060419D01*
X18265824Y-13060419D02*
X18275348Y-13098514D01*
X18275348Y-13098514D02*
X18275348Y-13146133D01*
X18275348Y-13146133D02*
X18265824Y-13184228D01*
X18265824Y-13184228D02*
X18256300Y-13203276D01*
X18256300Y-13203276D02*
X18246776Y-13212800D01*
X18246776Y-13212800D02*
X18227729Y-13222324D01*
X18227729Y-13222324D02*
X18208681Y-13222324D01*
X18208681Y-13222324D02*
X18189633Y-13212800D01*
X18189633Y-13212800D02*
X18180110Y-13203276D01*
X18180110Y-13203276D02*
X18170586Y-13184228D01*
X18170586Y-13184228D02*
X18161062Y-13146133D01*
X18161062Y-13146133D02*
X18161062Y-13098514D01*
X18161062Y-13098514D02*
X18170586Y-13060419D01*
X18170586Y-13060419D02*
X18180110Y-13041371D01*
X18180110Y-13041371D02*
X18189633Y-13031848D01*
X18189633Y-13031848D02*
X18208681Y-13022324D01*
X18361062Y-13203276D02*
X18370586Y-13212800D01*
X18370586Y-13212800D02*
X18361062Y-13222324D01*
X18361062Y-13222324D02*
X18351538Y-13212800D01*
X18351538Y-13212800D02*
X18361062Y-13203276D01*
X18361062Y-13203276D02*
X18361062Y-13222324D01*
X18561062Y-13222324D02*
X18446776Y-13222324D01*
X18503919Y-13222324D02*
X18503919Y-13022324D01*
X18503919Y-13022324D02*
X18484872Y-13050895D01*
X18484872Y-13050895D02*
X18465824Y-13069943D01*
X18465824Y-13069943D02*
X18446776Y-13079467D01*
X18637253Y-13041371D02*
X18646776Y-13031848D01*
X18646776Y-13031848D02*
X18665824Y-13022324D01*
X18665824Y-13022324D02*
X18713443Y-13022324D01*
X18713443Y-13022324D02*
X18732491Y-13031848D01*
X18732491Y-13031848D02*
X18742014Y-13041371D01*
X18742014Y-13041371D02*
X18751538Y-13060419D01*
X18751538Y-13060419D02*
X18751538Y-13079467D01*
X18751538Y-13079467D02*
X18742014Y-13108038D01*
X18742014Y-13108038D02*
X18627729Y-13222324D01*
X18627729Y-13222324D02*
X18751538Y-13222324D01*
X18922967Y-13022324D02*
X18884872Y-13022324D01*
X18884872Y-13022324D02*
X18865824Y-13031848D01*
X18865824Y-13031848D02*
X18856300Y-13041371D01*
X18856300Y-13041371D02*
X18837253Y-13069943D01*
X18837253Y-13069943D02*
X18827729Y-13108038D01*
X18827729Y-13108038D02*
X18827729Y-13184228D01*
X18827729Y-13184228D02*
X18837253Y-13203276D01*
X18837253Y-13203276D02*
X18846776Y-13212800D01*
X18846776Y-13212800D02*
X18865824Y-13222324D01*
X18865824Y-13222324D02*
X18903919Y-13222324D01*
X18903919Y-13222324D02*
X18922967Y-13212800D01*
X18922967Y-13212800D02*
X18932491Y-13203276D01*
X18932491Y-13203276D02*
X18942014Y-13184228D01*
X18942014Y-13184228D02*
X18942014Y-13136609D01*
X18942014Y-13136609D02*
X18932491Y-13117562D01*
X18932491Y-13117562D02*
X18922967Y-13108038D01*
X18922967Y-13108038D02*
X18903919Y-13098514D01*
X18903919Y-13098514D02*
X18865824Y-13098514D01*
X18865824Y-13098514D02*
X18846776Y-13108038D01*
X18846776Y-13108038D02*
X18837253Y-13117562D01*
X18837253Y-13117562D02*
X18827729Y-13136609D01*
X19065824Y-13022324D02*
X19084872Y-13022324D01*
X19084872Y-13022324D02*
X19103919Y-13031848D01*
X19103919Y-13031848D02*
X19113443Y-13041371D01*
X19113443Y-13041371D02*
X19122967Y-13060419D01*
X19122967Y-13060419D02*
X19132491Y-13098514D01*
X19132491Y-13098514D02*
X19132491Y-13146133D01*
X19132491Y-13146133D02*
X19122967Y-13184228D01*
X19122967Y-13184228D02*
X19113443Y-13203276D01*
X19113443Y-13203276D02*
X19103919Y-13212800D01*
X19103919Y-13212800D02*
X19084872Y-13222324D01*
X19084872Y-13222324D02*
X19065824Y-13222324D01*
X19065824Y-13222324D02*
X19046776Y-13212800D01*
X19046776Y-13212800D02*
X19037253Y-13203276D01*
X19037253Y-13203276D02*
X19027729Y-13184228D01*
X19027729Y-13184228D02*
X19018205Y-13146133D01*
X19018205Y-13146133D02*
X19018205Y-13098514D01*
X19018205Y-13098514D02*
X19027729Y-13060419D01*
X19027729Y-13060419D02*
X19037253Y-13041371D01*
X19037253Y-13041371D02*
X19046776Y-13031848D01*
X19046776Y-13031848D02*
X19065824Y-13022324D01*
X19208681Y-13022324D02*
X19208681Y-13060419D01*
X19284872Y-13022324D02*
X19284872Y-13060419D01*
X19580110Y-13298514D02*
X19570586Y-13288990D01*
X19570586Y-13288990D02*
X19551538Y-13260419D01*
X19551538Y-13260419D02*
X19542015Y-13241371D01*
X19542015Y-13241371D02*
X19532491Y-13212800D01*
X19532491Y-13212800D02*
X19522967Y-13165181D01*
X19522967Y-13165181D02*
X19522967Y-13127086D01*
X19522967Y-13127086D02*
X19532491Y-13079467D01*
X19532491Y-13079467D02*
X19542015Y-13050895D01*
X19542015Y-13050895D02*
X19551538Y-13031848D01*
X19551538Y-13031848D02*
X19570586Y-13003276D01*
X19570586Y-13003276D02*
X19580110Y-12993752D01*
X19742015Y-13088990D02*
X19742015Y-13222324D01*
X19694395Y-13012800D02*
X19646776Y-13155657D01*
X19646776Y-13155657D02*
X19770586Y-13155657D01*
X19999157Y-13222324D02*
X19999157Y-13022324D01*
X20084872Y-13222324D02*
X20084872Y-13117562D01*
X20084872Y-13117562D02*
X20075348Y-13098514D01*
X20075348Y-13098514D02*
X20056300Y-13088990D01*
X20056300Y-13088990D02*
X20027729Y-13088990D01*
X20027729Y-13088990D02*
X20008681Y-13098514D01*
X20008681Y-13098514D02*
X19999157Y-13108038D01*
X20208681Y-13222324D02*
X20189634Y-13212800D01*
X20189634Y-13212800D02*
X20180110Y-13203276D01*
X20180110Y-13203276D02*
X20170586Y-13184228D01*
X20170586Y-13184228D02*
X20170586Y-13127086D01*
X20170586Y-13127086D02*
X20180110Y-13108038D01*
X20180110Y-13108038D02*
X20189634Y-13098514D01*
X20189634Y-13098514D02*
X20208681Y-13088990D01*
X20208681Y-13088990D02*
X20237253Y-13088990D01*
X20237253Y-13088990D02*
X20256300Y-13098514D01*
X20256300Y-13098514D02*
X20265824Y-13108038D01*
X20265824Y-13108038D02*
X20275348Y-13127086D01*
X20275348Y-13127086D02*
X20275348Y-13184228D01*
X20275348Y-13184228D02*
X20265824Y-13203276D01*
X20265824Y-13203276D02*
X20256300Y-13212800D01*
X20256300Y-13212800D02*
X20237253Y-13222324D01*
X20237253Y-13222324D02*
X20208681Y-13222324D01*
X20389634Y-13222324D02*
X20370586Y-13212800D01*
X20370586Y-13212800D02*
X20361062Y-13193752D01*
X20361062Y-13193752D02*
X20361062Y-13022324D01*
X20542015Y-13212800D02*
X20522967Y-13222324D01*
X20522967Y-13222324D02*
X20484872Y-13222324D01*
X20484872Y-13222324D02*
X20465824Y-13212800D01*
X20465824Y-13212800D02*
X20456300Y-13193752D01*
X20456300Y-13193752D02*
X20456300Y-13117562D01*
X20456300Y-13117562D02*
X20465824Y-13098514D01*
X20465824Y-13098514D02*
X20484872Y-13088990D01*
X20484872Y-13088990D02*
X20522967Y-13088990D01*
X20522967Y-13088990D02*
X20542015Y-13098514D01*
X20542015Y-13098514D02*
X20551538Y-13117562D01*
X20551538Y-13117562D02*
X20551538Y-13136609D01*
X20551538Y-13136609D02*
X20456300Y-13155657D01*
X20627729Y-13212800D02*
X20646777Y-13222324D01*
X20646777Y-13222324D02*
X20684872Y-13222324D01*
X20684872Y-13222324D02*
X20703919Y-13212800D01*
X20703919Y-13212800D02*
X20713443Y-13193752D01*
X20713443Y-13193752D02*
X20713443Y-13184228D01*
X20713443Y-13184228D02*
X20703919Y-13165181D01*
X20703919Y-13165181D02*
X20684872Y-13155657D01*
X20684872Y-13155657D02*
X20656300Y-13155657D01*
X20656300Y-13155657D02*
X20637253Y-13146133D01*
X20637253Y-13146133D02*
X20627729Y-13127086D01*
X20627729Y-13127086D02*
X20627729Y-13117562D01*
X20627729Y-13117562D02*
X20637253Y-13098514D01*
X20637253Y-13098514D02*
X20656300Y-13088990D01*
X20656300Y-13088990D02*
X20684872Y-13088990D01*
X20684872Y-13088990D02*
X20703919Y-13098514D01*
X20780110Y-13298514D02*
X20789634Y-13288990D01*
X20789634Y-13288990D02*
X20808681Y-13260419D01*
X20808681Y-13260419D02*
X20818205Y-13241371D01*
X20818205Y-13241371D02*
X20827729Y-13212800D01*
X20827729Y-13212800D02*
X20837253Y-13165181D01*
X20837253Y-13165181D02*
X20837253Y-13127086D01*
X20837253Y-13127086D02*
X20827729Y-13079467D01*
X20827729Y-13079467D02*
X20818205Y-13050895D01*
X20818205Y-13050895D02*
X20808681Y-13031848D01*
X20808681Y-13031848D02*
X20789634Y-13003276D01*
X20789634Y-13003276D02*
X20780110Y-12993752D01*
X21142015Y-13298514D02*
X21132491Y-13288990D01*
X21132491Y-13288990D02*
X21113443Y-13260419D01*
X21113443Y-13260419D02*
X21103919Y-13241371D01*
X21103919Y-13241371D02*
X21094396Y-13212800D01*
X21094396Y-13212800D02*
X21084872Y-13165181D01*
X21084872Y-13165181D02*
X21084872Y-13127086D01*
X21084872Y-13127086D02*
X21094396Y-13079467D01*
X21094396Y-13079467D02*
X21103919Y-13050895D01*
X21103919Y-13050895D02*
X21113443Y-13031848D01*
X21113443Y-13031848D02*
X21132491Y-13003276D01*
X21132491Y-13003276D02*
X21142015Y-12993752D01*
X21218205Y-13088990D02*
X21218205Y-13222324D01*
X21218205Y-13108038D02*
X21227729Y-13098514D01*
X21227729Y-13098514D02*
X21246777Y-13088990D01*
X21246777Y-13088990D02*
X21275348Y-13088990D01*
X21275348Y-13088990D02*
X21294396Y-13098514D01*
X21294396Y-13098514D02*
X21303919Y-13117562D01*
X21303919Y-13117562D02*
X21303919Y-13222324D01*
X21427729Y-13222324D02*
X21408681Y-13212800D01*
X21408681Y-13212800D02*
X21399158Y-13203276D01*
X21399158Y-13203276D02*
X21389634Y-13184228D01*
X21389634Y-13184228D02*
X21389634Y-13127086D01*
X21389634Y-13127086D02*
X21399158Y-13108038D01*
X21399158Y-13108038D02*
X21408681Y-13098514D01*
X21408681Y-13098514D02*
X21427729Y-13088990D01*
X21427729Y-13088990D02*
X21456300Y-13088990D01*
X21456300Y-13088990D02*
X21475348Y-13098514D01*
X21475348Y-13098514D02*
X21484872Y-13108038D01*
X21484872Y-13108038D02*
X21494396Y-13127086D01*
X21494396Y-13127086D02*
X21494396Y-13184228D01*
X21494396Y-13184228D02*
X21484872Y-13203276D01*
X21484872Y-13203276D02*
X21475348Y-13212800D01*
X21475348Y-13212800D02*
X21456300Y-13222324D01*
X21456300Y-13222324D02*
X21427729Y-13222324D01*
X21551539Y-13088990D02*
X21627729Y-13088990D01*
X21580110Y-13022324D02*
X21580110Y-13193752D01*
X21580110Y-13193752D02*
X21589634Y-13212800D01*
X21589634Y-13212800D02*
X21608681Y-13222324D01*
X21608681Y-13222324D02*
X21627729Y-13222324D01*
X21846777Y-13088990D02*
X21846777Y-13288990D01*
X21846777Y-13098514D02*
X21865824Y-13088990D01*
X21865824Y-13088990D02*
X21903920Y-13088990D01*
X21903920Y-13088990D02*
X21922967Y-13098514D01*
X21922967Y-13098514D02*
X21932491Y-13108038D01*
X21932491Y-13108038D02*
X21942015Y-13127086D01*
X21942015Y-13127086D02*
X21942015Y-13184228D01*
X21942015Y-13184228D02*
X21932491Y-13203276D01*
X21932491Y-13203276D02*
X21922967Y-13212800D01*
X21922967Y-13212800D02*
X21903920Y-13222324D01*
X21903920Y-13222324D02*
X21865824Y-13222324D01*
X21865824Y-13222324D02*
X21846777Y-13212800D01*
X22056300Y-13222324D02*
X22037253Y-13212800D01*
X22037253Y-13212800D02*
X22027729Y-13193752D01*
X22027729Y-13193752D02*
X22027729Y-13022324D01*
X22218205Y-13222324D02*
X22218205Y-13117562D01*
X22218205Y-13117562D02*
X22208681Y-13098514D01*
X22208681Y-13098514D02*
X22189634Y-13088990D01*
X22189634Y-13088990D02*
X22151539Y-13088990D01*
X22151539Y-13088990D02*
X22132491Y-13098514D01*
X22218205Y-13212800D02*
X22199158Y-13222324D01*
X22199158Y-13222324D02*
X22151539Y-13222324D01*
X22151539Y-13222324D02*
X22132491Y-13212800D01*
X22132491Y-13212800D02*
X22122967Y-13193752D01*
X22122967Y-13193752D02*
X22122967Y-13174705D01*
X22122967Y-13174705D02*
X22132491Y-13155657D01*
X22132491Y-13155657D02*
X22151539Y-13146133D01*
X22151539Y-13146133D02*
X22199158Y-13146133D01*
X22199158Y-13146133D02*
X22218205Y-13136609D01*
X22284872Y-13088990D02*
X22361062Y-13088990D01*
X22313443Y-13022324D02*
X22313443Y-13193752D01*
X22313443Y-13193752D02*
X22322967Y-13212800D01*
X22322967Y-13212800D02*
X22342015Y-13222324D01*
X22342015Y-13222324D02*
X22361062Y-13222324D01*
X22503919Y-13212800D02*
X22484872Y-13222324D01*
X22484872Y-13222324D02*
X22446777Y-13222324D01*
X22446777Y-13222324D02*
X22427729Y-13212800D01*
X22427729Y-13212800D02*
X22418205Y-13193752D01*
X22418205Y-13193752D02*
X22418205Y-13117562D01*
X22418205Y-13117562D02*
X22427729Y-13098514D01*
X22427729Y-13098514D02*
X22446777Y-13088990D01*
X22446777Y-13088990D02*
X22484872Y-13088990D01*
X22484872Y-13088990D02*
X22503919Y-13098514D01*
X22503919Y-13098514D02*
X22513443Y-13117562D01*
X22513443Y-13117562D02*
X22513443Y-13136609D01*
X22513443Y-13136609D02*
X22418205Y-13155657D01*
X22684872Y-13222324D02*
X22684872Y-13022324D01*
X22684872Y-13212800D02*
X22665824Y-13222324D01*
X22665824Y-13222324D02*
X22627729Y-13222324D01*
X22627729Y-13222324D02*
X22608681Y-13212800D01*
X22608681Y-13212800D02*
X22599158Y-13203276D01*
X22599158Y-13203276D02*
X22589634Y-13184228D01*
X22589634Y-13184228D02*
X22589634Y-13127086D01*
X22589634Y-13127086D02*
X22599158Y-13108038D01*
X22599158Y-13108038D02*
X22608681Y-13098514D01*
X22608681Y-13098514D02*
X22627729Y-13088990D01*
X22627729Y-13088990D02*
X22665824Y-13088990D01*
X22665824Y-13088990D02*
X22684872Y-13098514D01*
X22761062Y-13298514D02*
X22770586Y-13288990D01*
X22770586Y-13288990D02*
X22789634Y-13260419D01*
X22789634Y-13260419D02*
X22799158Y-13241371D01*
X22799158Y-13241371D02*
X22808681Y-13212800D01*
X22808681Y-13212800D02*
X22818205Y-13165181D01*
X22818205Y-13165181D02*
X22818205Y-13127086D01*
X22818205Y-13127086D02*
X22808681Y-13079467D01*
X22808681Y-13079467D02*
X22799158Y-13050895D01*
X22799158Y-13050895D02*
X22789634Y-13031848D01*
X22789634Y-13031848D02*
X22770586Y-13003276D01*
X22770586Y-13003276D02*
X22761062Y-12993752D01*
M02*
