G04 #@! TF.GenerationSoftware,KiCad,Pcbnew,7.0.1*
G04 #@! TF.CreationDate,2023-10-11T18:56:37-05:00*
G04 #@! TF.ProjectId,Audio_Board,41756469-6f5f-4426-9f61-72642e6b6963,1*
G04 #@! TF.SameCoordinates,Original*
G04 #@! TF.FileFunction,Copper,L1,Top*
G04 #@! TF.FilePolarity,Positive*
%FSLAX46Y46*%
G04 Gerber Fmt 4.6, Leading zero omitted, Abs format (unit mm)*
G04 Created by KiCad (PCBNEW 7.0.1) date 2023-10-11 18:56:37*
%MOMM*%
%LPD*%
G01*
G04 APERTURE LIST*
G04 Aperture macros list*
%AMRoundRect*
0 Rectangle with rounded corners*
0 $1 Rounding radius*
0 $2 $3 $4 $5 $6 $7 $8 $9 X,Y pos of 4 corners*
0 Add a 4 corners polygon primitive as box body*
4,1,4,$2,$3,$4,$5,$6,$7,$8,$9,$2,$3,0*
0 Add four circle primitives for the rounded corners*
1,1,$1+$1,$2,$3*
1,1,$1+$1,$4,$5*
1,1,$1+$1,$6,$7*
1,1,$1+$1,$8,$9*
0 Add four rect primitives between the rounded corners*
20,1,$1+$1,$2,$3,$4,$5,0*
20,1,$1+$1,$4,$5,$6,$7,0*
20,1,$1+$1,$6,$7,$8,$9,0*
20,1,$1+$1,$8,$9,$2,$3,0*%
G04 Aperture macros list end*
G04 #@! TA.AperFunction,SMDPad,CuDef*
%ADD10RoundRect,0.155000X0.155000X-0.212500X0.155000X0.212500X-0.155000X0.212500X-0.155000X-0.212500X0*%
G04 #@! TD*
G04 #@! TA.AperFunction,SMDPad,CuDef*
%ADD11RoundRect,0.250000X0.650000X-0.412500X0.650000X0.412500X-0.650000X0.412500X-0.650000X-0.412500X0*%
G04 #@! TD*
G04 #@! TA.AperFunction,SMDPad,CuDef*
%ADD12R,0.725000X0.250000*%
G04 #@! TD*
G04 #@! TA.AperFunction,SMDPad,CuDef*
%ADD13R,0.775000X0.250000*%
G04 #@! TD*
G04 #@! TA.AperFunction,SMDPad,CuDef*
%ADD14RoundRect,0.100000X-0.100000X0.217500X-0.100000X-0.217500X0.100000X-0.217500X0.100000X0.217500X0*%
G04 #@! TD*
G04 #@! TA.AperFunction,SMDPad,CuDef*
%ADD15RoundRect,0.150000X-0.150000X-0.425000X0.150000X-0.425000X0.150000X0.425000X-0.150000X0.425000X0*%
G04 #@! TD*
G04 #@! TA.AperFunction,SMDPad,CuDef*
%ADD16RoundRect,0.075000X-0.075000X-0.500000X0.075000X-0.500000X0.075000X0.500000X-0.075000X0.500000X0*%
G04 #@! TD*
G04 #@! TA.AperFunction,ComponentPad*
%ADD17O,1.000000X2.100000*%
G04 #@! TD*
G04 #@! TA.AperFunction,ComponentPad*
%ADD18O,1.000000X1.800000*%
G04 #@! TD*
G04 #@! TA.AperFunction,SMDPad,CuDef*
%ADD19RoundRect,0.155000X-0.212500X-0.155000X0.212500X-0.155000X0.212500X0.155000X-0.212500X0.155000X0*%
G04 #@! TD*
G04 #@! TA.AperFunction,ComponentPad*
%ADD20C,1.300000*%
G04 #@! TD*
G04 #@! TA.AperFunction,SMDPad,CuDef*
%ADD21RoundRect,0.155000X0.212500X0.155000X-0.212500X0.155000X-0.212500X-0.155000X0.212500X-0.155000X0*%
G04 #@! TD*
G04 #@! TA.AperFunction,SMDPad,CuDef*
%ADD22C,1.000000*%
G04 #@! TD*
G04 #@! TA.AperFunction,ComponentPad*
%ADD23C,2.250000*%
G04 #@! TD*
G04 #@! TA.AperFunction,SMDPad,CuDef*
%ADD24RoundRect,0.250000X0.412500X0.650000X-0.412500X0.650000X-0.412500X-0.650000X0.412500X-0.650000X0*%
G04 #@! TD*
G04 #@! TA.AperFunction,SMDPad,CuDef*
%ADD25RoundRect,0.100000X0.217500X0.100000X-0.217500X0.100000X-0.217500X-0.100000X0.217500X-0.100000X0*%
G04 #@! TD*
G04 #@! TA.AperFunction,ComponentPad*
%ADD26C,2.704000*%
G04 #@! TD*
G04 #@! TA.AperFunction,ViaPad*
%ADD27C,0.500000*%
G04 #@! TD*
G04 #@! TA.AperFunction,Conductor*
%ADD28C,1.500000*%
G04 #@! TD*
G04 #@! TA.AperFunction,Conductor*
%ADD29C,1.200000*%
G04 #@! TD*
G04 #@! TA.AperFunction,Conductor*
%ADD30C,0.400000*%
G04 #@! TD*
G04 #@! TA.AperFunction,Conductor*
%ADD31C,0.300000*%
G04 #@! TD*
G04 #@! TA.AperFunction,Conductor*
%ADD32C,0.250000*%
G04 #@! TD*
G04 #@! TA.AperFunction,Conductor*
%ADD33C,1.000000*%
G04 #@! TD*
G04 #@! TA.AperFunction,Conductor*
%ADD34C,0.645000*%
G04 #@! TD*
G04 #@! TA.AperFunction,Conductor*
%ADD35C,0.130000*%
G04 #@! TD*
G04 #@! TA.AperFunction,Conductor*
%ADD36C,0.200000*%
G04 #@! TD*
G04 #@! TA.AperFunction,Conductor*
%ADD37C,0.500000*%
G04 #@! TD*
G04 #@! TA.AperFunction,Conductor*
%ADD38C,0.600000*%
G04 #@! TD*
G04 #@! TA.AperFunction,Conductor*
%ADD39C,0.800000*%
G04 #@! TD*
G04 APERTURE END LIST*
D10*
X180725735Y-30706700D03*
X180725735Y-29571700D03*
X252760135Y-110157900D03*
X252760135Y-109022900D03*
D11*
X247908335Y-108150700D03*
X247908335Y-105025700D03*
X180674535Y-27447201D03*
X180674535Y-24322201D03*
D10*
X254385735Y-110157900D03*
X254385735Y-109022900D03*
D12*
X175640435Y-25913800D03*
X175640435Y-26413800D03*
X175640435Y-26913800D03*
X175640435Y-27413800D03*
X175640435Y-27913800D03*
D13*
X176640435Y-27913800D03*
X176640435Y-27413800D03*
X176640435Y-26913800D03*
X176640435Y-26413800D03*
X176640435Y-25913800D03*
D14*
X230059835Y-95224301D03*
X230059835Y-96039301D03*
D15*
X250818954Y-112231000D03*
X251618954Y-112231000D03*
D16*
X252768954Y-112231000D03*
X253768954Y-112231000D03*
X254268954Y-112231000D03*
X255268954Y-112231000D03*
D15*
X256418954Y-112231000D03*
X257218954Y-112231000D03*
X257218954Y-112231000D03*
X256418954Y-112231000D03*
D16*
X255768954Y-112231000D03*
X254768954Y-112231000D03*
X253268954Y-112231000D03*
X252268954Y-112231000D03*
D15*
X251618954Y-112231000D03*
X250818954Y-112231000D03*
D17*
X249698954Y-112806000D03*
D18*
X249698954Y-116986000D03*
D17*
X258338954Y-112806000D03*
D18*
X258338954Y-116986000D03*
D19*
X251769135Y-107025400D03*
X252904135Y-107025400D03*
D20*
X256290335Y-66075000D03*
X256290335Y-68075000D03*
X256290335Y-70075000D03*
X256290335Y-72075000D03*
X256290335Y-74075000D03*
X256290335Y-76075000D03*
X256290335Y-78075000D03*
X256290335Y-80075000D03*
D21*
X255426735Y-107025400D03*
X254291735Y-107025400D03*
D22*
X256239535Y-108905000D03*
D23*
X211717126Y-85918503D03*
X226006545Y-94168503D03*
X205367126Y-96917026D03*
X219656545Y-105167026D03*
D24*
X229975936Y-83682800D03*
X226850936Y-83682800D03*
D25*
X248121635Y-110118600D03*
X247306635Y-110118600D03*
D26*
X171688954Y-29759000D03*
X166388954Y-28509000D03*
X171688954Y-24259000D03*
D22*
X250905535Y-108905000D03*
D10*
X233379535Y-86799000D03*
X233379535Y-85664000D03*
D27*
X253267735Y-113527800D03*
X254768954Y-113502400D03*
X172673535Y-67249000D03*
X183849535Y-77917000D03*
X241253535Y-77663000D03*
X249635535Y-75631000D03*
X250041935Y-111089400D03*
X205388735Y-36210200D03*
X257560335Y-34483000D03*
X203153535Y-69027000D03*
X171403535Y-56073000D03*
X235411535Y-73345000D03*
X187913535Y-85029000D03*
X245723935Y-22341800D03*
X226775535Y-77155000D03*
X169879535Y-52771000D03*
X163935935Y-20716200D03*
X197311535Y-75631000D03*
X250143535Y-81727000D03*
X236935535Y-80203000D03*
X240745535Y-62423000D03*
X218139535Y-98999000D03*
X195076335Y-28590200D03*
X252683535Y-28285400D03*
X251159535Y-66487000D03*
X183087535Y-55311000D03*
X246079535Y-98491000D03*
X232363535Y-98491000D03*
X178820335Y-22443400D03*
X236884735Y-21833800D03*
X213313535Y-51755000D03*
X208741535Y-89093000D03*
X202848735Y-62626200D03*
X202086735Y-25085000D03*
X238865935Y-31485800D03*
X174959535Y-58867000D03*
X190453535Y-69281000D03*
X249127535Y-118811000D03*
X220882735Y-39918600D03*
X243793535Y-84521000D03*
X219663535Y-56936600D03*
X212805535Y-21427400D03*
X210163935Y-45557400D03*
X217225135Y-33568600D03*
X189437535Y-72532200D03*
X251819935Y-21783000D03*
X187151535Y-64709000D03*
X246079535Y-84013000D03*
X187151535Y-55057000D03*
X198022735Y-54549000D03*
X250143535Y-84013000D03*
X186999135Y-21376600D03*
X256747535Y-105095000D03*
X171403535Y-36261000D03*
X184611535Y-50993000D03*
X213567535Y-48453000D03*
X254207535Y-76901000D03*
X256747535Y-94427000D03*
X177804335Y-30114200D03*
X179277535Y-45913000D03*
X256747535Y-99761000D03*
X175010335Y-30012600D03*
X231296735Y-47691000D03*
X259033535Y-118811000D03*
X259033535Y-84267000D03*
X259033535Y-93157000D03*
X199597535Y-65471000D03*
X221492335Y-35702200D03*
X194314335Y-39207400D03*
X215091535Y-102555000D03*
X193958735Y-47487800D03*
X226572335Y-47589400D03*
X246079535Y-100269000D03*
X189894735Y-35651400D03*
X188673535Y-24715000D03*
X241913935Y-37581800D03*
X220831935Y-44541400D03*
X203915535Y-101539000D03*
X230331535Y-111445000D03*
X205744335Y-43423800D03*
X163021535Y-41087000D03*
X246841535Y-78425000D03*
X243793535Y-93919000D03*
X183646335Y-28590200D03*
X197921135Y-35600600D03*
X181563535Y-68773000D03*
X179277535Y-50485000D03*
X243793535Y-115255000D03*
X247705135Y-44998600D03*
X241151935Y-26202600D03*
X259033535Y-80711000D03*
X231601535Y-86045000D03*
X163529535Y-31689000D03*
X206303135Y-24678600D03*
X250143535Y-95443000D03*
X234395535Y-75885000D03*
X239983535Y-89347000D03*
X256747535Y-87315000D03*
X188523135Y-46573400D03*
X257458735Y-26863000D03*
X227029535Y-103063000D03*
X186084735Y-32603400D03*
X194415935Y-32705000D03*
X215599535Y-42611000D03*
X245622335Y-25796200D03*
X250143535Y-91379000D03*
X184662335Y-25237400D03*
X239221535Y-107889000D03*
X214177135Y-61254600D03*
X202391535Y-95697000D03*
X240542335Y-53329800D03*
X214532735Y-55768200D03*
X258322335Y-55107800D03*
X229569535Y-88585000D03*
X194009535Y-72227400D03*
X180801535Y-65471000D03*
X241151935Y-47030600D03*
X209554335Y-21325800D03*
X224997535Y-85283000D03*
X250143535Y-98999000D03*
X226521535Y-57343000D03*
X250143535Y-102809000D03*
X203407535Y-74869000D03*
X179023535Y-27421800D03*
X210163935Y-28793400D03*
X257458735Y-64353400D03*
X208690735Y-58511400D03*
X246079535Y-85791000D03*
X243793535Y-89093000D03*
X228299535Y-98237000D03*
X174959535Y-32298600D03*
X246079535Y-91379000D03*
X243793535Y-80711000D03*
X217885535Y-108905000D03*
X194263535Y-35397400D03*
X225505535Y-88585000D03*
X246790735Y-70449400D03*
X216361535Y-53025000D03*
X196295535Y-44643000D03*
X239881935Y-69382600D03*
X244555535Y-65877400D03*
X173689535Y-46929000D03*
X218799935Y-21173400D03*
X242929935Y-30469800D03*
X234395535Y-103825000D03*
X259033535Y-91379000D03*
X242777535Y-59883000D03*
X205185535Y-93919000D03*
X246079535Y-96713000D03*
X255223535Y-118811000D03*
X247095535Y-64963000D03*
X163783535Y-45659000D03*
X211484735Y-32857400D03*
X243793535Y-110175000D03*
X198327535Y-32806600D03*
X254461535Y-60695800D03*
X246079535Y-94935000D03*
X243793535Y-99253000D03*
X185627535Y-69281000D03*
X250143535Y-89093000D03*
X178617135Y-33314600D03*
X203661535Y-47691000D03*
X227385135Y-39309000D03*
X200207135Y-28793400D03*
X256747535Y-89093000D03*
X235919535Y-94173000D03*
X259033535Y-109159000D03*
X245063535Y-74361000D03*
X210265535Y-91633000D03*
X253801135Y-114137400D03*
X253902735Y-49316600D03*
X165307535Y-48961000D03*
X211789535Y-89093000D03*
X233633535Y-109159000D03*
X209503535Y-78425000D03*
X259033535Y-77155000D03*
X176737535Y-62931000D03*
X192739535Y-77917000D03*
X202848735Y-57495400D03*
X249838735Y-23611800D03*
X231855535Y-115001000D03*
X236427535Y-88839000D03*
X210671935Y-40579000D03*
X243793535Y-104333000D03*
X208233535Y-85283000D03*
X252429535Y-72837000D03*
X251921535Y-78171000D03*
X204220335Y-51043800D03*
X259033535Y-75377000D03*
X233227135Y-69789000D03*
X226267535Y-74107000D03*
X195279535Y-61915000D03*
X237799135Y-38242200D03*
X194314335Y-51043800D03*
X198327535Y-92649000D03*
X192739535Y-58867000D03*
X259033535Y-94935000D03*
X231804735Y-65674200D03*
X177347135Y-26913800D03*
X246079535Y-109159000D03*
X199597535Y-46421000D03*
X244047535Y-63947000D03*
X175467535Y-40325000D03*
X231550735Y-52263000D03*
X230839535Y-105349000D03*
X216107535Y-89855000D03*
X246333535Y-112207000D03*
X234293935Y-32705000D03*
X251413535Y-117541000D03*
X250143535Y-100777000D03*
X239475535Y-101793000D03*
X198632335Y-49316600D03*
X168609535Y-57851000D03*
X196041535Y-94681000D03*
X211027535Y-50485000D03*
X203915535Y-91633000D03*
X161192735Y-21376600D03*
X257458735Y-42204600D03*
X246079535Y-105603000D03*
X165155135Y-24018200D03*
X257103135Y-110987800D03*
X193673535Y-82235000D03*
X256747535Y-85537000D03*
X229975935Y-30469800D03*
X256747535Y-118811000D03*
X256747535Y-83759000D03*
X251159535Y-74107000D03*
X225302335Y-58816200D03*
X226927935Y-32146200D03*
X223930735Y-63185000D03*
X246079535Y-103825000D03*
X252632735Y-43830200D03*
X246993935Y-49519800D03*
X215091535Y-75123000D03*
X246079535Y-87823000D03*
X202696335Y-71567000D03*
X176229535Y-42611000D03*
X222203535Y-107127000D03*
X188675535Y-28590200D03*
X248213135Y-36362600D03*
X256747535Y-92649000D03*
X223219535Y-55565000D03*
X168609535Y-27371000D03*
X228807535Y-63032600D03*
X195279535Y-69027000D03*
X256747535Y-117033000D03*
X226775535Y-107889000D03*
X176178735Y-73040200D03*
X221187535Y-76901000D03*
X217631535Y-95697000D03*
X222711535Y-100269000D03*
X205033135Y-28387000D03*
X226877135Y-43373000D03*
X200613535Y-69281000D03*
X162767535Y-28895000D03*
X250143535Y-105095000D03*
X233379535Y-81981000D03*
X211027535Y-101539000D03*
X224235535Y-111953000D03*
X197311535Y-85029000D03*
X170285935Y-21224200D03*
X175162735Y-23459400D03*
X167491935Y-21630600D03*
X167339535Y-36769000D03*
X236935535Y-116271000D03*
X225911935Y-65826600D03*
X201121535Y-42306200D03*
X216463135Y-28488600D03*
X247349535Y-118557000D03*
X225657935Y-70265000D03*
X247400335Y-29301400D03*
X250143535Y-93411000D03*
X179785535Y-77155000D03*
X219917535Y-85283000D03*
X175213535Y-55311000D03*
X239475535Y-112969000D03*
X259033535Y-89601000D03*
X213821535Y-82743000D03*
X219917535Y-110429000D03*
X246587535Y-61661000D03*
X216412335Y-36718200D03*
X197006735Y-24475400D03*
X211535535Y-82743000D03*
X168101535Y-24831000D03*
X219155535Y-50485000D03*
X171149535Y-42611000D03*
X246079535Y-107381000D03*
X258271535Y-115001000D03*
X205490335Y-40172600D03*
X213313535Y-77663000D03*
X167593535Y-41087000D03*
X250143535Y-86299000D03*
X240643935Y-66080600D03*
X203864735Y-21224200D03*
X250143535Y-97475000D03*
X259033535Y-96713000D03*
X246231935Y-59171800D03*
X210773535Y-98491000D03*
X259033535Y-102047000D03*
X184001935Y-72481400D03*
X246079535Y-80457000D03*
X179277535Y-37023000D03*
X240237535Y-95189000D03*
X242015535Y-72329000D03*
X259033535Y-73599000D03*
X201883535Y-88839000D03*
X221492335Y-48300600D03*
X218901535Y-73345000D03*
X240745535Y-84775000D03*
X220425535Y-54549000D03*
X256747535Y-90871000D03*
X201019935Y-39004200D03*
X222965535Y-87315000D03*
X201223135Y-35651400D03*
X253445535Y-118811000D03*
X246079535Y-102047000D03*
X219155535Y-80203000D03*
X214024735Y-65420200D03*
X192485535Y-88331000D03*
X185271935Y-35651400D03*
X237595935Y-63947000D03*
X167085535Y-53533000D03*
X190402735Y-32755800D03*
X210773535Y-105603000D03*
X211789535Y-24831000D03*
X203153535Y-83251000D03*
X233074735Y-61610200D03*
X187913535Y-79949000D03*
X251819935Y-56123800D03*
X217479135Y-25491400D03*
X201934335Y-32806600D03*
X236071935Y-65877400D03*
X259033535Y-105603000D03*
X211332335Y-36413400D03*
X230585535Y-58613000D03*
X259033535Y-86045000D03*
X222203535Y-94427000D03*
X170387535Y-62169000D03*
X167847535Y-45405000D03*
X175975535Y-68773000D03*
X236021135Y-26863000D03*
X203661535Y-78933000D03*
X202137535Y-98745000D03*
X218901535Y-64455000D03*
X259033535Y-103825000D03*
X219663535Y-92141000D03*
X259033535Y-87823000D03*
X259033535Y-82489000D03*
X210011535Y-74615000D03*
X256747535Y-101539000D03*
X251413535Y-118811000D03*
X232211135Y-37175400D03*
X222813135Y-26202600D03*
X259033535Y-100269000D03*
X235767135Y-49113400D03*
X198835535Y-20970200D03*
X168609535Y-49469000D03*
X259033535Y-107381000D03*
X259033535Y-110937000D03*
X215599535Y-107381000D03*
X228299535Y-54041000D03*
X206709535Y-87315000D03*
X181055535Y-58867000D03*
X182985935Y-21122600D03*
X228045535Y-112715000D03*
X161548335Y-24780200D03*
X230077535Y-91633000D03*
X162005535Y-35499000D03*
X232363535Y-23002200D03*
X194517535Y-65471000D03*
X224489535Y-81473000D03*
X187659535Y-61407000D03*
X207217535Y-100269000D03*
X217885535Y-83505000D03*
X209655935Y-53126600D03*
X190199535Y-38242200D03*
X207725535Y-92649000D03*
X256747535Y-96205000D03*
X206252335Y-32806600D03*
X242218735Y-57089000D03*
X248111535Y-77155000D03*
X249889535Y-63439000D03*
X208690735Y-62677000D03*
X193704735Y-20817800D03*
X189691535Y-42611000D03*
X246079535Y-93157000D03*
X256747535Y-48554600D03*
X197057535Y-79949000D03*
X236427535Y-60899000D03*
X259033535Y-78933000D03*
X238459535Y-58105000D03*
X256747535Y-97983000D03*
X219053935Y-61051400D03*
X252175535Y-36210200D03*
X259033535Y-98491000D03*
X228299535Y-26659800D03*
X216107535Y-46522600D03*
X256747535Y-103317000D03*
X168101535Y-33213000D03*
X175975535Y-20970200D03*
X213059535Y-96205000D03*
X250397535Y-79949000D03*
X173943535Y-50739000D03*
X236529135Y-53787000D03*
X197971935Y-40375800D03*
X184103535Y-39817000D03*
X206963535Y-49215000D03*
X219511135Y-70703400D03*
X246079535Y-89601000D03*
X179785535Y-71109800D03*
X250143535Y-107127000D03*
X223473535Y-52263000D03*
X257923535Y-22465000D03*
X236173535Y-98491000D03*
X246587535Y-115001000D03*
X234141535Y-56581000D03*
X226318335Y-22545000D03*
X210316335Y-71363800D03*
X246079535Y-82235000D03*
X252048535Y-114213600D03*
X255579135Y-113985000D03*
D28*
X247908335Y-79644200D02*
X253477535Y-74075000D01*
X247908335Y-105025700D02*
X247908335Y-79644200D01*
X253477535Y-74075000D02*
X256290335Y-74075000D01*
D29*
X166388954Y-28509000D02*
X206044954Y-68165000D01*
X256290335Y-68075000D02*
X206134954Y-68075000D01*
D30*
X169909935Y-28509000D02*
X172005135Y-26413800D01*
D31*
X172005135Y-26413800D02*
X175640435Y-26413800D01*
D32*
X206134954Y-68075000D02*
X206044954Y-68165000D01*
D30*
X166388954Y-28509000D02*
X169909935Y-28509000D01*
X180674535Y-27625000D02*
X180674535Y-27447201D01*
X180226835Y-29072800D02*
X180725735Y-29571700D01*
D31*
X175640435Y-27413800D02*
X174883335Y-27413800D01*
D30*
X175473535Y-25765000D02*
X175473535Y-25746900D01*
X177016935Y-24932600D02*
X175619935Y-24932600D01*
D29*
X256290335Y-66075000D02*
X220964535Y-30749200D01*
D30*
X174883335Y-27413800D02*
X174773535Y-27523600D01*
D33*
X180768235Y-30749200D02*
X180725735Y-30706700D01*
D30*
X173985635Y-24259000D02*
X171688954Y-24259000D01*
D29*
X218222154Y-30749200D02*
X180768235Y-30749200D01*
D30*
X174773535Y-28215000D02*
X175631335Y-29072800D01*
X174773535Y-27523600D02*
X174773535Y-28215000D01*
X177626535Y-29072800D02*
X179226735Y-29072800D01*
X174034154Y-27413800D02*
X171688954Y-29759000D01*
X179226735Y-29072800D02*
X180674535Y-27625000D01*
X180725735Y-29571700D02*
X180725735Y-30706700D01*
X174883335Y-27413800D02*
X174034154Y-27413800D01*
X175473535Y-25746900D02*
X175139585Y-25412950D01*
X177626535Y-29072800D02*
X178159935Y-28539400D01*
D29*
X220964535Y-30749200D02*
X218222154Y-30749200D01*
D30*
X175619935Y-24932600D02*
X175139585Y-25412950D01*
X175631335Y-29072800D02*
X177626535Y-29072800D01*
X179226735Y-29072800D02*
X180226835Y-29072800D01*
X175139585Y-25412950D02*
X173985635Y-24259000D01*
X178159935Y-26075600D02*
X177016935Y-24932600D01*
X178159935Y-28539400D02*
X178159935Y-26075600D01*
D33*
X251940335Y-70075000D02*
X236351335Y-85664000D01*
D30*
X228950637Y-94168503D02*
X230065435Y-95283301D01*
D33*
X226006545Y-94168503D02*
X217756545Y-85918503D01*
X229975936Y-83682800D02*
X231398335Y-83682800D01*
X233379535Y-92344200D02*
X231042735Y-94681000D01*
X231398335Y-83682800D02*
X233379535Y-85664000D01*
X217756545Y-85918503D02*
X211717126Y-85918503D01*
D30*
X233379535Y-86799000D02*
X233379535Y-85664000D01*
D33*
X256290335Y-70075000D02*
X252886735Y-70075000D01*
X236351335Y-85664000D02*
X233379535Y-85664000D01*
X226006545Y-94168503D02*
X228950637Y-94168503D01*
X233379535Y-92344200D02*
X233379535Y-86799000D01*
D30*
X230065435Y-95283301D02*
X230440434Y-95283301D01*
X230440434Y-95283301D02*
X231042735Y-94681000D01*
D33*
X252886735Y-70075000D02*
X251940335Y-70075000D01*
D34*
X253186935Y-108596100D02*
X253186935Y-80169712D01*
D30*
X252785135Y-111038600D02*
X252785135Y-110182900D01*
D35*
X252642235Y-108905000D02*
X252760135Y-109022900D01*
D34*
X253186935Y-80169712D02*
X254667647Y-78689000D01*
D35*
X253268954Y-112231000D02*
X253268954Y-112631269D01*
D36*
X254232935Y-113121400D02*
X254283735Y-113070600D01*
D35*
X253268954Y-112631269D02*
X253267735Y-112632488D01*
X250905535Y-108905000D02*
X252642235Y-108905000D01*
X254283735Y-112245781D02*
X254268954Y-112231000D01*
D36*
X253318535Y-113121400D02*
X254232935Y-113121400D01*
X253267735Y-113070600D02*
X253318535Y-113121400D01*
X253268954Y-112231000D02*
X253268954Y-111522419D01*
D34*
X252760135Y-109022900D02*
X253186935Y-108596100D01*
D36*
X254283735Y-113070600D02*
X254283735Y-112245781D01*
D34*
X254667647Y-78689000D02*
X255676335Y-78689000D01*
D36*
X253267735Y-113070600D02*
X253267735Y-113527800D01*
X253268954Y-111522419D02*
X252785135Y-111038600D01*
X252785135Y-110182900D02*
X252760135Y-110157900D01*
D34*
X255676335Y-78689000D02*
X256290335Y-78075000D01*
D37*
X252760135Y-110157900D02*
X252760135Y-109022900D01*
D36*
X253267735Y-112632488D02*
X253267735Y-113070600D01*
X254768954Y-112231000D02*
X254768954Y-111781233D01*
X254768954Y-111781233D02*
X255172735Y-111377452D01*
D34*
X253958935Y-80489488D02*
X254987423Y-79461000D01*
D36*
X255172735Y-111089400D02*
X255121935Y-111038600D01*
D37*
X254359935Y-110183700D02*
X254359935Y-109048700D01*
D34*
X254987423Y-79461000D02*
X255676335Y-79461000D01*
X254385735Y-109022900D02*
X253958935Y-108596100D01*
D36*
X254359935Y-110183700D02*
X254385735Y-110157900D01*
X254768954Y-112231000D02*
X254768954Y-113502400D01*
X253768954Y-111629581D02*
X254359935Y-111038600D01*
D35*
X256239535Y-108905000D02*
X254503635Y-108905000D01*
D36*
X253768954Y-111629581D02*
X253768954Y-112231000D01*
D35*
X254768954Y-112231000D02*
X254768954Y-111830731D01*
D34*
X253958935Y-108596100D02*
X253958935Y-80489488D01*
D36*
X255121935Y-111038600D02*
X254359935Y-111038600D01*
D37*
X254359935Y-109048700D02*
X254385735Y-109022900D01*
D34*
X255676335Y-79461000D02*
X256290335Y-80075000D01*
D35*
X254503635Y-108905000D02*
X254385735Y-109022900D01*
D30*
X254359935Y-111038600D02*
X254359935Y-110183700D01*
D36*
X255172735Y-111377452D02*
X255172735Y-111089400D01*
D30*
X250818954Y-112231000D02*
X250818954Y-111866419D01*
D32*
X177347135Y-26913800D02*
X176640435Y-26913800D01*
D30*
X257218954Y-111103619D02*
X257103135Y-110987800D01*
X250818954Y-111866419D02*
X250041935Y-111089400D01*
X257218954Y-112231000D02*
X257218954Y-111103619D01*
D32*
X256418954Y-112231000D02*
X256290335Y-112359619D01*
D30*
X248062635Y-110124200D02*
X248873535Y-110124200D01*
D38*
X251618954Y-111396419D02*
X249842585Y-109620050D01*
D32*
X256290335Y-112359619D02*
X256290335Y-114696200D01*
D39*
X249842585Y-109620050D02*
X249377685Y-109620050D01*
X248619535Y-115001000D02*
X248111535Y-114493000D01*
D38*
X251667535Y-116017000D02*
X250651535Y-115001000D01*
X256290335Y-114696200D02*
X255985535Y-115001000D01*
X255985535Y-115001000D02*
X254969535Y-116017000D01*
D39*
X250651535Y-115001000D02*
X248619535Y-115001000D01*
X249025935Y-110937000D02*
X249025935Y-109971800D01*
X248111535Y-111851400D02*
X249025935Y-110937000D01*
X248111535Y-114493000D02*
X248111535Y-111851400D01*
D38*
X251618954Y-112231000D02*
X251618954Y-111396419D01*
D39*
X249377685Y-109620050D02*
X247908335Y-108150700D01*
D32*
X248873535Y-110124200D02*
X249025935Y-109971800D01*
D30*
X249025935Y-109971800D02*
X249377685Y-109620050D01*
D38*
X254969535Y-116017000D02*
X251667535Y-116017000D01*
D35*
X252048535Y-113731000D02*
X252048535Y-114213600D01*
X252768954Y-113010581D02*
X252048535Y-113731000D01*
X252768954Y-112231000D02*
X252768954Y-113010581D01*
X255579135Y-113985000D02*
X255768954Y-113795181D01*
X255768954Y-113795181D02*
X255768954Y-112231000D01*
G04 #@! TA.AperFunction,Conductor*
G36*
X169078628Y-26467480D02*
G01*
X169127992Y-26512149D01*
X169147140Y-26575910D01*
X169130553Y-26640384D01*
X169091444Y-26708123D01*
X169073346Y-26768577D01*
X169045791Y-26860619D01*
X169040859Y-26877092D01*
X169030602Y-27053168D01*
X169035701Y-27082082D01*
X169061231Y-27226866D01*
X169120930Y-27365265D01*
X169131090Y-27388818D01*
X169236415Y-27530294D01*
X169371524Y-27643665D01*
X169371525Y-27643665D01*
X169371527Y-27643667D01*
X169529143Y-27722824D01*
X169529144Y-27722824D01*
X169529146Y-27722825D01*
X169700764Y-27763500D01*
X169704828Y-27763500D01*
X169761123Y-27777015D01*
X169805146Y-27814615D01*
X169827301Y-27868102D01*
X169822759Y-27925818D01*
X169792509Y-27975181D01*
X169755509Y-28012181D01*
X169715281Y-28039061D01*
X169667828Y-28048500D01*
X168026421Y-28048500D01*
X167978968Y-28039061D01*
X167938740Y-28012181D01*
X167911860Y-27971953D01*
X167868843Y-27868102D01*
X167830145Y-27774677D01*
X167697528Y-27558266D01*
X167532689Y-27365265D01*
X167339688Y-27200426D01*
X167123277Y-27067809D01*
X167027894Y-27028300D01*
X166888785Y-26970678D01*
X166641986Y-26911428D01*
X166388954Y-26891514D01*
X166135921Y-26911428D01*
X165889122Y-26970678D01*
X165654629Y-27067810D01*
X165438221Y-27200425D01*
X165245219Y-27365265D01*
X165080379Y-27558267D01*
X164947764Y-27774675D01*
X164850632Y-28009168D01*
X164791382Y-28255967D01*
X164771468Y-28508999D01*
X164791382Y-28762032D01*
X164850632Y-29008831D01*
X164901576Y-29131818D01*
X164947763Y-29243323D01*
X165080380Y-29459734D01*
X165245219Y-29652735D01*
X165438220Y-29817574D01*
X165654631Y-29950191D01*
X165822882Y-30019883D01*
X165889122Y-30047321D01*
X165967091Y-30066039D01*
X166135923Y-30106572D01*
X166388954Y-30126486D01*
X166641985Y-30106572D01*
X166677363Y-30098078D01*
X166739969Y-30099306D01*
X166793993Y-30130970D01*
X205469478Y-68806455D01*
X205578782Y-68894316D01*
X205578783Y-68894316D01*
X205578784Y-68894317D01*
X205746464Y-68977479D01*
X205928102Y-69022650D01*
X206115203Y-69027719D01*
X206299020Y-68992447D01*
X206407944Y-68945591D01*
X206456942Y-68935500D01*
X246273638Y-68935500D01*
X246334442Y-68951431D01*
X246379622Y-68995131D01*
X246397569Y-69055371D01*
X246383672Y-69116672D01*
X246341500Y-69163282D01*
X246281891Y-69183225D01*
X175744244Y-73888665D01*
X175680178Y-73875669D01*
X175631623Y-73831897D01*
X175425674Y-73510880D01*
X175150370Y-73081757D01*
X175149087Y-73079713D01*
X174126482Y-71414917D01*
X174125281Y-71412918D01*
X173135484Y-69728455D01*
X173134289Y-69726376D01*
X172177634Y-68022813D01*
X172176531Y-68020802D01*
X171253411Y-66298837D01*
X171252285Y-66296686D01*
X171138688Y-66074443D01*
X170363052Y-64556975D01*
X170362035Y-64554935D01*
X169507036Y-62798152D01*
X169506002Y-62795972D01*
X168685606Y-61022888D01*
X168684608Y-61020675D01*
X167899081Y-59231870D01*
X167898126Y-59229638D01*
X167147736Y-57425708D01*
X167146826Y-57423457D01*
X166431926Y-55605263D01*
X166431060Y-55602995D01*
X166170176Y-54899341D01*
X165751872Y-53771095D01*
X165751104Y-53768960D01*
X165107893Y-51924063D01*
X165107119Y-51921771D01*
X164865642Y-51182926D01*
X164500146Y-50064624D01*
X164499456Y-50062437D01*
X163928955Y-48193756D01*
X163928308Y-48191560D01*
X163394525Y-46312148D01*
X163393884Y-46309806D01*
X163316307Y-46014808D01*
X162896976Y-44420221D01*
X162896417Y-44418005D01*
X162436604Y-42519083D01*
X162436060Y-42516734D01*
X162254052Y-41695075D01*
X162013535Y-40609281D01*
X162013037Y-40606921D01*
X161627930Y-38691524D01*
X161627475Y-38689140D01*
X161280593Y-36770188D01*
X161279893Y-36765884D01*
X160546101Y-31676746D01*
X160544833Y-31659199D01*
X160539595Y-26688997D01*
X160556306Y-26626700D01*
X160602050Y-26581222D01*
X160664443Y-26564873D01*
X161466974Y-26570388D01*
X161522340Y-26583863D01*
X161565836Y-26620679D01*
X161588272Y-26673062D01*
X161584910Y-26729948D01*
X161540859Y-26877091D01*
X161530602Y-27053168D01*
X161535701Y-27082082D01*
X161561231Y-27226866D01*
X161620930Y-27365265D01*
X161631090Y-27388818D01*
X161736415Y-27530294D01*
X161871524Y-27643665D01*
X161871525Y-27643665D01*
X161871527Y-27643667D01*
X162029143Y-27722824D01*
X162029144Y-27722824D01*
X162029146Y-27722825D01*
X162200764Y-27763500D01*
X162200766Y-27763500D01*
X162332892Y-27763500D01*
X162332895Y-27763500D01*
X162464138Y-27748160D01*
X162629878Y-27687836D01*
X162777239Y-27590915D01*
X162898276Y-27462623D01*
X162986464Y-27309876D01*
X163037049Y-27140909D01*
X163047305Y-26964831D01*
X163016677Y-26791134D01*
X163001015Y-26754826D01*
X162991366Y-26694696D01*
X163011509Y-26637220D01*
X163056588Y-26596268D01*
X163115721Y-26581719D01*
X167085535Y-26609000D01*
X169013279Y-26454780D01*
X169078628Y-26467480D01*
G37*
G04 #@! TD.AperFunction*
G04 #@! TA.AperFunction,Conductor*
G36*
X172980898Y-33546910D02*
G01*
X252175535Y-65979000D01*
X254477804Y-66864488D01*
X254764524Y-66974765D01*
X254818820Y-67015581D01*
X254843465Y-67078879D01*
X254831065Y-67145664D01*
X254785340Y-67195895D01*
X254720011Y-67214500D01*
X206362747Y-67214500D01*
X206315294Y-67205061D01*
X206275066Y-67178181D01*
X172846227Y-33749342D01*
X172813357Y-33690705D01*
X172815916Y-33623532D01*
X172853150Y-33567565D01*
X172914117Y-33539250D01*
X172980898Y-33546910D01*
G37*
G04 #@! TD.AperFunction*
G04 #@! TA.AperFunction,Conductor*
G36*
X259405321Y-20317120D02*
G01*
X259450710Y-20362524D01*
X259467308Y-20424540D01*
X259463503Y-31569463D01*
X259451521Y-66656725D01*
X259434680Y-66719076D01*
X259388769Y-66764501D01*
X259326243Y-66780676D01*
X257160648Y-66758351D01*
X257099097Y-66741262D01*
X257054220Y-66695803D01*
X257037926Y-66634038D01*
X257054538Y-66572360D01*
X257126700Y-66447373D01*
X257185844Y-66265346D01*
X257205850Y-66075000D01*
X257185844Y-65884654D01*
X257126700Y-65702627D01*
X257126700Y-65702626D01*
X257031004Y-65536876D01*
X257011361Y-65515061D01*
X256902934Y-65394640D01*
X256748093Y-65282141D01*
X256748092Y-65282140D01*
X256748090Y-65282139D01*
X256708366Y-65264453D01*
X256671121Y-65238855D01*
X221601299Y-30169033D01*
X221594472Y-30161627D01*
X221559794Y-30120801D01*
X221559792Y-30120799D01*
X221559790Y-30120797D01*
X221495842Y-30072185D01*
X221493251Y-30070158D01*
X221464840Y-30047321D01*
X221430705Y-30019883D01*
X221430703Y-30019882D01*
X221430697Y-30019877D01*
X221410791Y-30007529D01*
X221337964Y-29973836D01*
X221334935Y-29972385D01*
X221263019Y-29936717D01*
X221240919Y-29928936D01*
X221162523Y-29911679D01*
X221159258Y-29910914D01*
X221081373Y-29891546D01*
X221058130Y-29888700D01*
X221058120Y-29888700D01*
X220977888Y-29888700D01*
X220974530Y-29888655D01*
X220894273Y-29886480D01*
X220870933Y-29888700D01*
X218315739Y-29888700D01*
X181420235Y-29888700D01*
X181358235Y-29872087D01*
X181312848Y-29826700D01*
X181296235Y-29764700D01*
X181296235Y-29326498D01*
X181280825Y-29229203D01*
X181221070Y-29111930D01*
X181128004Y-29018864D01*
X181010731Y-28959109D01*
X180913437Y-28943700D01*
X180913435Y-28943700D01*
X180800342Y-28943700D01*
X180752889Y-28934261D01*
X180712661Y-28907381D01*
X180575673Y-28770393D01*
X180566415Y-28760034D01*
X180543593Y-28731416D01*
X180495253Y-28698459D01*
X180491485Y-28695784D01*
X180471353Y-28680926D01*
X180436458Y-28641137D01*
X180421333Y-28590422D01*
X180428731Y-28538020D01*
X180457302Y-28493478D01*
X180544263Y-28406517D01*
X180584490Y-28379640D01*
X180631942Y-28370201D01*
X181373361Y-28370201D01*
X181373365Y-28370201D01*
X181434166Y-28363664D01*
X181571708Y-28312364D01*
X181689225Y-28224391D01*
X181777198Y-28106874D01*
X181828498Y-27969332D01*
X181835035Y-27908531D01*
X181835035Y-26985871D01*
X181828498Y-26925070D01*
X181777198Y-26787528D01*
X181689225Y-26670011D01*
X181571708Y-26582038D01*
X181434166Y-26530738D01*
X181373365Y-26524201D01*
X179975705Y-26524201D01*
X179927064Y-26529430D01*
X179914903Y-26530738D01*
X179777361Y-26582038D01*
X179659845Y-26670011D01*
X179571872Y-26787527D01*
X179533087Y-26891514D01*
X179520572Y-26925070D01*
X179515287Y-26974231D01*
X179514035Y-26985875D01*
X179514035Y-27908527D01*
X179520572Y-27969336D01*
X179535749Y-28010027D01*
X179540733Y-28079718D01*
X179507248Y-28141040D01*
X179072309Y-28575981D01*
X179032081Y-28602861D01*
X178984628Y-28612300D01*
X178746756Y-28612300D01*
X178683423Y-28594906D01*
X178637857Y-28547605D01*
X178627902Y-28505214D01*
X178627545Y-28505310D01*
X178624660Y-28494543D01*
X178623719Y-28487398D01*
X178622843Y-28483666D01*
X178622928Y-28481388D01*
X178620435Y-28462450D01*
X178620435Y-26108433D01*
X178621215Y-26094549D01*
X178623669Y-26072765D01*
X178625312Y-26058187D01*
X178614426Y-26000657D01*
X178613662Y-25996158D01*
X178604947Y-25938332D01*
X178604946Y-25938330D01*
X178604070Y-25932517D01*
X178602249Y-25926983D01*
X178572179Y-25870087D01*
X178570089Y-25865948D01*
X178542168Y-25807971D01*
X178538792Y-25803212D01*
X178493299Y-25757719D01*
X178490082Y-25754380D01*
X178469829Y-25732553D01*
X178450295Y-25711500D01*
X178450293Y-25711499D01*
X178446298Y-25707193D01*
X178431143Y-25695563D01*
X177365773Y-24630193D01*
X177356515Y-24619834D01*
X177333693Y-24591216D01*
X177305803Y-24572201D01*
X179274536Y-24572201D01*
X179274536Y-24784680D01*
X179285028Y-24887396D01*
X179340177Y-25053823D01*
X179432218Y-25203046D01*
X179556189Y-25327017D01*
X179705412Y-25419058D01*
X179871838Y-25474207D01*
X179974556Y-25484701D01*
X180424535Y-25484701D01*
X180424535Y-24572201D01*
X180924535Y-24572201D01*
X180924535Y-25484700D01*
X181374514Y-25484700D01*
X181477230Y-25474207D01*
X181643657Y-25419058D01*
X181792880Y-25327017D01*
X181916851Y-25203046D01*
X182008892Y-25053823D01*
X182064041Y-24887397D01*
X182074535Y-24784680D01*
X182074535Y-24572201D01*
X180924535Y-24572201D01*
X180424535Y-24572201D01*
X179274536Y-24572201D01*
X177305803Y-24572201D01*
X177285353Y-24558259D01*
X177281584Y-24555584D01*
X177229820Y-24517380D01*
X177224600Y-24514745D01*
X177163120Y-24495781D01*
X177158717Y-24494332D01*
X177097979Y-24473080D01*
X177092212Y-24472100D01*
X177086344Y-24472100D01*
X177027858Y-24472100D01*
X177023222Y-24472013D01*
X176958920Y-24469607D01*
X176939985Y-24472100D01*
X175652758Y-24472100D01*
X175638874Y-24471320D01*
X175602520Y-24467223D01*
X175545075Y-24478093D01*
X175540503Y-24478870D01*
X175476860Y-24488462D01*
X175471317Y-24490286D01*
X175414437Y-24520348D01*
X175410301Y-24522436D01*
X175352319Y-24550359D01*
X175347538Y-24553752D01*
X175302052Y-24599237D01*
X175298715Y-24602451D01*
X175251529Y-24646234D01*
X175239906Y-24661382D01*
X175227269Y-24674020D01*
X175171681Y-24706116D01*
X175107492Y-24706117D01*
X175051903Y-24674023D01*
X174781790Y-24403910D01*
X191465314Y-24403910D01*
X191495004Y-24673745D01*
X191526978Y-24796047D01*
X191563667Y-24936384D01*
X191617577Y-25063244D01*
X191669838Y-25186224D01*
X191807876Y-25412410D01*
X191811254Y-25417944D01*
X191984903Y-25626604D01*
X192187081Y-25807757D01*
X192413482Y-25957542D01*
X192511092Y-26003300D01*
X192659273Y-26072765D01*
X192659275Y-26072765D01*
X192659278Y-26072767D01*
X192919232Y-26150975D01*
X193187803Y-26190500D01*
X193391316Y-26190500D01*
X193391319Y-26190500D01*
X193594276Y-26175645D01*
X193756051Y-26139608D01*
X193859244Y-26116621D01*
X194112796Y-26019646D01*
X194349526Y-25886786D01*
X194564388Y-25720875D01*
X194590547Y-25693743D01*
X194695764Y-25584610D01*
X194752804Y-25525447D01*
X194910758Y-25304668D01*
X195034883Y-25063244D01*
X195122533Y-24806320D01*
X195138570Y-24719500D01*
X195171841Y-24539371D01*
X195176097Y-24422910D01*
X253575314Y-24422910D01*
X253605004Y-24692745D01*
X253623033Y-24761705D01*
X253673667Y-24955384D01*
X253689790Y-24993324D01*
X253779838Y-25205224D01*
X253909658Y-25417944D01*
X253921254Y-25436944D01*
X254094903Y-25645604D01*
X254297081Y-25826757D01*
X254523482Y-25976542D01*
X254655961Y-26038646D01*
X254769273Y-26091765D01*
X254769275Y-26091765D01*
X254769278Y-26091767D01*
X255029232Y-26169975D01*
X255297803Y-26209500D01*
X255501316Y-26209500D01*
X255501319Y-26209500D01*
X255704276Y-26194645D01*
X255815027Y-26169974D01*
X255969244Y-26135621D01*
X256222796Y-26038646D01*
X256459526Y-25905786D01*
X256674388Y-25739875D01*
X256862804Y-25544447D01*
X257020758Y-25323668D01*
X257030530Y-25304663D01*
X257144880Y-25082249D01*
X257144883Y-25082244D01*
X257232533Y-24825320D01*
X257236043Y-24806320D01*
X257281841Y-24558371D01*
X257291755Y-24287089D01*
X257262065Y-24017254D01*
X257257098Y-23998254D01*
X257193403Y-23754616D01*
X257087232Y-23504776D01*
X256945816Y-23273056D01*
X256772167Y-23064396D01*
X256569989Y-22883243D01*
X256343588Y-22733458D01*
X256303058Y-22714458D01*
X256097796Y-22618234D01*
X255992932Y-22586685D01*
X255837838Y-22540025D01*
X255569267Y-22500500D01*
X255365754Y-22500500D01*
X255365751Y-22500500D01*
X255162793Y-22515354D01*
X254897827Y-22574378D01*
X254644275Y-22671353D01*
X254407544Y-22804214D01*
X254192680Y-22970125D01*
X254004268Y-23165549D01*
X253846308Y-23386336D01*
X253722189Y-23627750D01*
X253634535Y-23884684D01*
X253585228Y-24151628D01*
X253575314Y-24422910D01*
X195176097Y-24422910D01*
X195181755Y-24268089D01*
X195154156Y-24017254D01*
X195152065Y-23998253D01*
X195083403Y-23735616D01*
X194977232Y-23485776D01*
X194835816Y-23254056D01*
X194662167Y-23045396D01*
X194459989Y-22864243D01*
X194233588Y-22714458D01*
X194233584Y-22714456D01*
X193987796Y-22599234D01*
X193882932Y-22567685D01*
X193727838Y-22521025D01*
X193459267Y-22481500D01*
X193255754Y-22481500D01*
X193255751Y-22481500D01*
X193052793Y-22496354D01*
X192787827Y-22555378D01*
X192534275Y-22652353D01*
X192297544Y-22785214D01*
X192082680Y-22951125D01*
X191894268Y-23146549D01*
X191736308Y-23367336D01*
X191612189Y-23608750D01*
X191524535Y-23865684D01*
X191475228Y-24132628D01*
X191465314Y-24403910D01*
X174781790Y-24403910D01*
X174450081Y-24072201D01*
X179274535Y-24072201D01*
X180424535Y-24072201D01*
X180424535Y-23159702D01*
X179974556Y-23159702D01*
X179871839Y-23170194D01*
X179705412Y-23225343D01*
X179556189Y-23317384D01*
X179432218Y-23441355D01*
X179340177Y-23590578D01*
X179285028Y-23757004D01*
X179274535Y-23859722D01*
X179274535Y-24072201D01*
X174450081Y-24072201D01*
X174334473Y-23956593D01*
X174325215Y-23946234D01*
X174302393Y-23917616D01*
X174254053Y-23884659D01*
X174250284Y-23881984D01*
X174198520Y-23843780D01*
X174193300Y-23841145D01*
X174131820Y-23822181D01*
X174127417Y-23820732D01*
X174066679Y-23799480D01*
X174060912Y-23798500D01*
X174055044Y-23798500D01*
X173996558Y-23798500D01*
X173991922Y-23798413D01*
X173927620Y-23796007D01*
X173908685Y-23798500D01*
X173326421Y-23798500D01*
X173278968Y-23789061D01*
X173238740Y-23762181D01*
X173211860Y-23721953D01*
X173190715Y-23670906D01*
X173130145Y-23524677D01*
X172997528Y-23308266D01*
X172870641Y-23159701D01*
X180924535Y-23159701D01*
X180924535Y-24072201D01*
X182074534Y-24072201D01*
X182074534Y-23859722D01*
X182064041Y-23757005D01*
X182008892Y-23590578D01*
X181916851Y-23441355D01*
X181792880Y-23317384D01*
X181643657Y-23225343D01*
X181477231Y-23170194D01*
X181374514Y-23159701D01*
X180924535Y-23159701D01*
X172870641Y-23159701D01*
X172832689Y-23115265D01*
X172639688Y-22950426D01*
X172423277Y-22817809D01*
X172336656Y-22781929D01*
X172188785Y-22720678D01*
X171941986Y-22661428D01*
X171688954Y-22641514D01*
X171435921Y-22661428D01*
X171189122Y-22720678D01*
X170954629Y-22817810D01*
X170738221Y-22950425D01*
X170545219Y-23115265D01*
X170380379Y-23308267D01*
X170247764Y-23524675D01*
X170150632Y-23759168D01*
X170091382Y-24005967D01*
X170071468Y-24258999D01*
X170091382Y-24512032D01*
X170150632Y-24758831D01*
X170203886Y-24887396D01*
X170247763Y-24993323D01*
X170380380Y-25209734D01*
X170545219Y-25402735D01*
X170738220Y-25567574D01*
X170761581Y-25581890D01*
X170766020Y-25584610D01*
X170810241Y-25631240D01*
X170825183Y-25693743D01*
X170806832Y-25755331D01*
X170760117Y-25799463D01*
X170697585Y-25814283D01*
X170082741Y-25796199D01*
X160660535Y-25656265D01*
X160599353Y-25639069D01*
X160554726Y-25593822D01*
X160538376Y-25532413D01*
X160532993Y-20424631D01*
X160549563Y-20362575D01*
X160594956Y-20317135D01*
X160656994Y-20300500D01*
X259343309Y-20300500D01*
X259405321Y-20317120D01*
G37*
G04 #@! TD.AperFunction*
G04 #@! TA.AperFunction,Conductor*
G36*
X174261920Y-27985208D02*
G01*
X174299520Y-28029231D01*
X174313035Y-28085526D01*
X174313035Y-28182167D01*
X174312255Y-28196051D01*
X174308157Y-28232413D01*
X174319031Y-28289879D01*
X174319808Y-28294451D01*
X174329397Y-28358072D01*
X174331224Y-28363623D01*
X174361290Y-28420513D01*
X174363378Y-28424648D01*
X174391300Y-28482626D01*
X174394684Y-28487394D01*
X174440170Y-28532880D01*
X174443387Y-28536219D01*
X174483175Y-28579100D01*
X174483176Y-28579100D01*
X174487174Y-28583409D01*
X174502326Y-28595036D01*
X175282496Y-29375207D01*
X175291762Y-29385575D01*
X175314577Y-29414184D01*
X175362925Y-29447147D01*
X175366669Y-29449804D01*
X175406365Y-29479101D01*
X175418461Y-29488028D01*
X175423656Y-29490650D01*
X175429273Y-29492382D01*
X175429274Y-29492383D01*
X175485208Y-29509636D01*
X175489509Y-29511051D01*
X175526531Y-29524006D01*
X175550303Y-29532325D01*
X175556042Y-29533300D01*
X175561926Y-29533300D01*
X175620412Y-29533300D01*
X175625048Y-29533387D01*
X175683477Y-29535573D01*
X175683479Y-29535572D01*
X175689349Y-29535792D01*
X175708285Y-29533300D01*
X177557126Y-29533300D01*
X177593702Y-29533300D01*
X177607586Y-29534080D01*
X177643947Y-29538177D01*
X177643947Y-29538176D01*
X177643948Y-29538177D01*
X177658296Y-29535462D01*
X177681351Y-29533300D01*
X179157326Y-29533300D01*
X179193902Y-29533300D01*
X179207786Y-29534080D01*
X179244147Y-29538177D01*
X179244147Y-29538176D01*
X179244148Y-29538177D01*
X179258496Y-29535462D01*
X179281551Y-29533300D01*
X179984728Y-29533300D01*
X180032181Y-29542739D01*
X180072409Y-29569619D01*
X180118916Y-29616126D01*
X180145796Y-29656354D01*
X180155235Y-29703807D01*
X180155235Y-29816902D01*
X180170644Y-29914195D01*
X180202730Y-29977167D01*
X180216129Y-30028090D01*
X180207188Y-30079982D01*
X180177520Y-30123485D01*
X180129436Y-30169033D01*
X180108527Y-30188839D01*
X180061072Y-30258831D01*
X180003490Y-30343758D01*
X179934211Y-30517633D01*
X179903930Y-30702341D01*
X179914063Y-30889234D01*
X179963579Y-31067574D01*
X179964137Y-31069582D01*
X180051809Y-31234949D01*
X180172980Y-31377603D01*
X180251003Y-31436914D01*
X180321988Y-31490875D01*
X180473377Y-31560914D01*
X180491856Y-31569464D01*
X180674650Y-31609700D01*
X218128569Y-31609700D01*
X218268808Y-31609700D01*
X220556742Y-31609700D01*
X220604195Y-31619139D01*
X220644423Y-31646019D01*
X255453616Y-66455211D01*
X255473321Y-66480890D01*
X255486089Y-66503004D01*
X255502664Y-66561879D01*
X255489078Y-66621515D01*
X255448639Y-66667402D01*
X255391184Y-66688376D01*
X255330692Y-66679334D01*
X171802382Y-31602491D01*
X171750942Y-31562227D01*
X171727103Y-31501409D01*
X171737479Y-31436914D01*
X171779192Y-31386643D01*
X171840661Y-31364546D01*
X171941985Y-31356572D01*
X172188785Y-31297321D01*
X172423277Y-31200191D01*
X172639688Y-31067574D01*
X172832689Y-30902735D01*
X172997528Y-30709734D01*
X173130145Y-30493323D01*
X173227275Y-30258831D01*
X173286526Y-30012031D01*
X173306440Y-29759000D01*
X173286526Y-29505969D01*
X173227275Y-29259169D01*
X173145557Y-29061886D01*
X173136120Y-29014440D01*
X173145559Y-28966986D01*
X173172436Y-28926761D01*
X174101353Y-27997845D01*
X174150717Y-27967595D01*
X174208433Y-27963053D01*
X174261920Y-27985208D01*
G37*
G04 #@! TD.AperFunction*
G04 #@! TA.AperFunction,Conductor*
G36*
X251131338Y-69569516D02*
G01*
X251178542Y-69605922D01*
X251203302Y-69660148D01*
X251199897Y-69719663D01*
X251169113Y-69770711D01*
X236072644Y-84867181D01*
X236032416Y-84894061D01*
X235984963Y-84903500D01*
X233745906Y-84903500D01*
X233698453Y-84894061D01*
X233658225Y-84867181D01*
X232827364Y-84036320D01*
X231981649Y-83190604D01*
X231969866Y-83176969D01*
X231955269Y-83157361D01*
X231916765Y-83125053D01*
X231908789Y-83117744D01*
X231904769Y-83113724D01*
X231880106Y-83094223D01*
X231877309Y-83091945D01*
X231818205Y-83042350D01*
X231801337Y-83031604D01*
X231731413Y-82998997D01*
X231728170Y-82997427D01*
X231659197Y-82962788D01*
X231640297Y-82956219D01*
X231639176Y-82955987D01*
X231639175Y-82955987D01*
X231564728Y-82940614D01*
X231561213Y-82939835D01*
X231529750Y-82932378D01*
X231487225Y-82922300D01*
X231487224Y-82922300D01*
X231486106Y-82922035D01*
X231466217Y-82920003D01*
X231465069Y-82920036D01*
X231396372Y-82922035D01*
X231389051Y-82922248D01*
X231385445Y-82922300D01*
X230978170Y-82922300D01*
X230929357Y-82912288D01*
X230888427Y-82883870D01*
X230861988Y-82841634D01*
X230860915Y-82838756D01*
X230841099Y-82785627D01*
X230753126Y-82668110D01*
X230635609Y-82580137D01*
X230498067Y-82528837D01*
X230437266Y-82522300D01*
X229514606Y-82522300D01*
X229465965Y-82527529D01*
X229453804Y-82528837D01*
X229316262Y-82580137D01*
X229198746Y-82668110D01*
X229110773Y-82785626D01*
X229059816Y-82922248D01*
X229059473Y-82923169D01*
X229052936Y-82983970D01*
X229052936Y-84381630D01*
X229059473Y-84442431D01*
X229110773Y-84579973D01*
X229198746Y-84697490D01*
X229316263Y-84785463D01*
X229453805Y-84836763D01*
X229514606Y-84843300D01*
X230437262Y-84843300D01*
X230437266Y-84843300D01*
X230498067Y-84836763D01*
X230635609Y-84785463D01*
X230753126Y-84697490D01*
X230841099Y-84579973D01*
X230861988Y-84523964D01*
X230888427Y-84481730D01*
X230929357Y-84453312D01*
X230978170Y-84443300D01*
X231031964Y-84443300D01*
X231079417Y-84452739D01*
X231119645Y-84479619D01*
X232786524Y-86146498D01*
X232817634Y-86198615D01*
X232820281Y-86259254D01*
X232793833Y-86313884D01*
X232739822Y-86378251D01*
X232660032Y-86537126D01*
X232619035Y-86710108D01*
X232619035Y-91977829D01*
X232609596Y-92025282D01*
X232582716Y-92065510D01*
X230473664Y-94174560D01*
X230391054Y-94279038D01*
X230315922Y-94440160D01*
X230293783Y-94547377D01*
X230270353Y-94598264D01*
X230226919Y-94633646D01*
X230172345Y-94646301D01*
X230131042Y-94646301D01*
X230083589Y-94636862D01*
X230043361Y-94609982D01*
X229745685Y-94312306D01*
X229717473Y-94268725D01*
X229709576Y-94217416D01*
X229715019Y-94123983D01*
X229684148Y-93948904D01*
X229613733Y-93785665D01*
X229507570Y-93643064D01*
X229507569Y-93643063D01*
X229371385Y-93528790D01*
X229212510Y-93449000D01*
X229039529Y-93408003D01*
X229039527Y-93408003D01*
X227231778Y-93408003D01*
X227172760Y-93393058D01*
X227127969Y-93351824D01*
X227103646Y-93314595D01*
X226948134Y-93145664D01*
X226766939Y-93004634D01*
X226565001Y-92895351D01*
X226565000Y-92895350D01*
X226564999Y-92895350D01*
X226347834Y-92820796D01*
X226177970Y-92792451D01*
X226121351Y-92783003D01*
X225891739Y-92783003D01*
X225891738Y-92783003D01*
X225787422Y-92800409D01*
X225729183Y-92796188D01*
X225679333Y-92765781D01*
X218339859Y-85426307D01*
X218328076Y-85412672D01*
X218313479Y-85393064D01*
X218274975Y-85360756D01*
X218266999Y-85353447D01*
X218262979Y-85349427D01*
X218238316Y-85329926D01*
X218235519Y-85327648D01*
X218176415Y-85278053D01*
X218159547Y-85267307D01*
X218089623Y-85234700D01*
X218086380Y-85233130D01*
X218017407Y-85198491D01*
X217998507Y-85191922D01*
X217997386Y-85191690D01*
X217997385Y-85191690D01*
X217922938Y-85176317D01*
X217919423Y-85175538D01*
X217887960Y-85168081D01*
X217845435Y-85158003D01*
X217845434Y-85158003D01*
X217844316Y-85157738D01*
X217824427Y-85155706D01*
X217823279Y-85155739D01*
X217754582Y-85157738D01*
X217747261Y-85157951D01*
X217743655Y-85158003D01*
X212942359Y-85158003D01*
X212883341Y-85143058D01*
X212838550Y-85101824D01*
X212814227Y-85064595D01*
X212770557Y-85017157D01*
X212658715Y-84895664D01*
X212477520Y-84754634D01*
X212275582Y-84645351D01*
X212275581Y-84645350D01*
X212275580Y-84645350D01*
X212058415Y-84570796D01*
X211888551Y-84542451D01*
X211831932Y-84533003D01*
X211602320Y-84533003D01*
X211557023Y-84540561D01*
X211375836Y-84570796D01*
X211158671Y-84645350D01*
X211062327Y-84697489D01*
X210956732Y-84754634D01*
X210956730Y-84754635D01*
X210956729Y-84754636D01*
X210775540Y-84895661D01*
X210775537Y-84895663D01*
X210775537Y-84895664D01*
X210620025Y-85064595D01*
X210499125Y-85249646D01*
X210494438Y-85256820D01*
X210402206Y-85467088D01*
X210345838Y-85689680D01*
X210326877Y-85918502D01*
X210345838Y-86147325D01*
X210345838Y-86147328D01*
X210345839Y-86147330D01*
X210402205Y-86369916D01*
X210494439Y-86580188D01*
X210620025Y-86772411D01*
X210775537Y-86941342D01*
X210956732Y-87082372D01*
X211158670Y-87191655D01*
X211262721Y-87227376D01*
X211375836Y-87266209D01*
X211375838Y-87266209D01*
X211375840Y-87266210D01*
X211602320Y-87304003D01*
X211831931Y-87304003D01*
X211831932Y-87304003D01*
X212058412Y-87266210D01*
X212275582Y-87191655D01*
X212477520Y-87082372D01*
X212658715Y-86941342D01*
X212814227Y-86772411D01*
X212838550Y-86735181D01*
X212883341Y-86693948D01*
X212942359Y-86679003D01*
X217390174Y-86679003D01*
X217437627Y-86688442D01*
X217477855Y-86715322D01*
X224599739Y-93837206D01*
X224628482Y-93882209D01*
X224635635Y-93935127D01*
X224635258Y-93939675D01*
X224635258Y-93939676D01*
X224630069Y-94002304D01*
X224616297Y-94168503D01*
X224635257Y-94397325D01*
X224635257Y-94397328D01*
X224635258Y-94397330D01*
X224691624Y-94619916D01*
X224783858Y-94830188D01*
X224909444Y-95022411D01*
X225064956Y-95191342D01*
X225246151Y-95332372D01*
X225448089Y-95441655D01*
X225526131Y-95468447D01*
X225665255Y-95516209D01*
X225665257Y-95516209D01*
X225665259Y-95516210D01*
X225891739Y-95554003D01*
X226121350Y-95554003D01*
X226121351Y-95554003D01*
X226347831Y-95516210D01*
X226565001Y-95441655D01*
X226766939Y-95332372D01*
X226948134Y-95191342D01*
X227103646Y-95022411D01*
X227127969Y-94985181D01*
X227172760Y-94943948D01*
X227231778Y-94929003D01*
X229002152Y-94929003D01*
X229002152Y-94930127D01*
X229048567Y-94935207D01*
X229095543Y-94964654D01*
X229451912Y-95321024D01*
X229482492Y-95371417D01*
X229486347Y-95430236D01*
X229462608Y-95484190D01*
X229435735Y-95519212D01*
X229375279Y-95665169D01*
X229359835Y-95782478D01*
X229359835Y-95839301D01*
X230759834Y-95839301D01*
X230759834Y-95782478D01*
X230748563Y-95696864D01*
X230754849Y-95638631D01*
X230787160Y-95589780D01*
X230804534Y-95573661D01*
X230804535Y-95573658D01*
X230808845Y-95569660D01*
X230820469Y-95554509D01*
X230896326Y-95478652D01*
X230945002Y-95448629D01*
X231001973Y-95443644D01*
X231020465Y-95446353D01*
X231197569Y-95430858D01*
X231366324Y-95374939D01*
X231517635Y-95281609D01*
X233871734Y-92927509D01*
X233885359Y-92915734D01*
X233904974Y-92901133D01*
X233937290Y-92862619D01*
X233944576Y-92854667D01*
X233948609Y-92850636D01*
X233968169Y-92825895D01*
X233970336Y-92823235D01*
X234019249Y-92764946D01*
X234019251Y-92764940D01*
X234019994Y-92764056D01*
X234030727Y-92747210D01*
X234063349Y-92677252D01*
X234064921Y-92674004D01*
X234099553Y-92605047D01*
X234106113Y-92586173D01*
X234106346Y-92585044D01*
X234106348Y-92585040D01*
X234121738Y-92510504D01*
X234122487Y-92507127D01*
X234140035Y-92433090D01*
X234140035Y-92433088D01*
X234140300Y-92431970D01*
X234142331Y-92412082D01*
X234142297Y-92410938D01*
X234142299Y-92410933D01*
X234140087Y-92334916D01*
X234140035Y-92331310D01*
X234140035Y-86754712D01*
X234140035Y-86754708D01*
X234124573Y-86622423D01*
X234113102Y-86590908D01*
X234106686Y-86532315D01*
X234128050Y-86477377D01*
X234172368Y-86438511D01*
X234229625Y-86424500D01*
X236286899Y-86424500D01*
X236304869Y-86425809D01*
X236309051Y-86426421D01*
X236329065Y-86429353D01*
X236375548Y-86425286D01*
X236379140Y-86424972D01*
X236389947Y-86424500D01*
X236395626Y-86424500D01*
X236395627Y-86424500D01*
X236426895Y-86420844D01*
X236430416Y-86420485D01*
X236506169Y-86413858D01*
X236506169Y-86413857D01*
X236507322Y-86413757D01*
X236526825Y-86409433D01*
X236527909Y-86409038D01*
X236527912Y-86409038D01*
X236599408Y-86383014D01*
X236602741Y-86381856D01*
X236674924Y-86357939D01*
X236674923Y-86357939D01*
X236676017Y-86357577D01*
X236694003Y-86348869D01*
X236694966Y-86348235D01*
X236694970Y-86348234D01*
X236758524Y-86306433D01*
X236761543Y-86304511D01*
X236827214Y-86264005D01*
X236842711Y-86251382D01*
X236843503Y-86250543D01*
X236895719Y-86195195D01*
X236898166Y-86192676D01*
X252219025Y-70871819D01*
X252259254Y-70844939D01*
X252306707Y-70835500D01*
X252608021Y-70835500D01*
X252664655Y-70849189D01*
X252708786Y-70887233D01*
X252730668Y-70941233D01*
X252725472Y-70999267D01*
X252694343Y-71048520D01*
X244301534Y-79186999D01*
X244371506Y-118525044D01*
X244360167Y-118577068D01*
X244328055Y-118619541D01*
X244281091Y-118644630D01*
X244227935Y-118647711D01*
X243034838Y-118457016D01*
X243032445Y-118456609D01*
X241109670Y-118110556D01*
X241107285Y-118110103D01*
X239191596Y-117726462D01*
X239189220Y-117725962D01*
X237281387Y-117304884D01*
X237279022Y-117304337D01*
X235379908Y-116846015D01*
X235377553Y-116845423D01*
X233487644Y-116349974D01*
X233485302Y-116349335D01*
X231605548Y-115817008D01*
X231603219Y-115816324D01*
X231106640Y-115665136D01*
X230673430Y-115533241D01*
X229734201Y-115247284D01*
X229731885Y-115246554D01*
X227874369Y-114641032D01*
X227872069Y-114640257D01*
X226026776Y-113998491D01*
X226024491Y-113997671D01*
X224192148Y-113319912D01*
X224189879Y-113319048D01*
X222371078Y-112605515D01*
X222368827Y-112604606D01*
X220564386Y-111855621D01*
X220562153Y-111854668D01*
X219510728Y-111393910D01*
X234895314Y-111393910D01*
X234925004Y-111663745D01*
X234959663Y-111796315D01*
X234993667Y-111926384D01*
X235099838Y-112176224D01*
X235241254Y-112407944D01*
X235414903Y-112616604D01*
X235617081Y-112797757D01*
X235843482Y-112947542D01*
X235962249Y-113003218D01*
X236089273Y-113062765D01*
X236089275Y-113062765D01*
X236089278Y-113062767D01*
X236349232Y-113140975D01*
X236617803Y-113180500D01*
X236821316Y-113180500D01*
X236821319Y-113180500D01*
X237024276Y-113165645D01*
X237144414Y-113138883D01*
X237289244Y-113106621D01*
X237542796Y-113009646D01*
X237779526Y-112876786D01*
X237994388Y-112710875D01*
X238182804Y-112515447D01*
X238340758Y-112294668D01*
X238464883Y-112053244D01*
X238552533Y-111796320D01*
X238577021Y-111663747D01*
X238601841Y-111529371D01*
X238611755Y-111258089D01*
X238586225Y-111026065D01*
X238582065Y-110988253D01*
X238513403Y-110725616D01*
X238407232Y-110475776D01*
X238265816Y-110244056D01*
X238092167Y-110035396D01*
X237889989Y-109854243D01*
X237663588Y-109704458D01*
X237663584Y-109704456D01*
X237417796Y-109589234D01*
X237312932Y-109557685D01*
X237157838Y-109511025D01*
X236889267Y-109471500D01*
X236685754Y-109471500D01*
X236685751Y-109471500D01*
X236482793Y-109486354D01*
X236217827Y-109545378D01*
X235964275Y-109642353D01*
X235727544Y-109775214D01*
X235512680Y-109941125D01*
X235324268Y-110136549D01*
X235166308Y-110357336D01*
X235042189Y-110598750D01*
X234954535Y-110855684D01*
X234905228Y-111122628D01*
X234895314Y-111393910D01*
X219510728Y-111393910D01*
X218772747Y-111070510D01*
X218770533Y-111069514D01*
X216996802Y-110250465D01*
X216994608Y-110249426D01*
X215798251Y-109668309D01*
X215237225Y-109395796D01*
X215235104Y-109394741D01*
X213494712Y-108506838D01*
X213492561Y-108505713D01*
X211770031Y-107583987D01*
X211767901Y-107582821D01*
X210063644Y-106627490D01*
X210061538Y-106626282D01*
X208694136Y-105824198D01*
X218169867Y-105824198D01*
X218204183Y-105907043D01*
X218337826Y-106125129D01*
X218503943Y-106319627D01*
X218698441Y-106485744D01*
X218916527Y-106619387D01*
X219152839Y-106717272D01*
X219401551Y-106776982D01*
X219656544Y-106797050D01*
X219830813Y-106783334D01*
X219479767Y-105473212D01*
X218169867Y-105824198D01*
X208694136Y-105824198D01*
X208376363Y-105637800D01*
X208374307Y-105636568D01*
X207896867Y-105343802D01*
X219962731Y-105343802D01*
X220313716Y-106653702D01*
X220396563Y-106619387D01*
X220614648Y-106485744D01*
X220809146Y-106319627D01*
X220975263Y-106125129D01*
X221108906Y-105907043D01*
X221206791Y-105670731D01*
X221266501Y-105422019D01*
X221286569Y-105167026D01*
X221272853Y-104992756D01*
X219962731Y-105343802D01*
X207896867Y-105343802D01*
X207608581Y-105167025D01*
X218026520Y-105167025D01*
X218040235Y-105341294D01*
X219350357Y-104990248D01*
X218999371Y-103680348D01*
X218916525Y-103714665D01*
X218698441Y-103848307D01*
X218503943Y-104014424D01*
X218337826Y-104208922D01*
X218204183Y-104427008D01*
X218106298Y-104663320D01*
X218046588Y-104912032D01*
X218026520Y-105167025D01*
X207608581Y-105167025D01*
X206708751Y-104615249D01*
X206706696Y-104613960D01*
X205061500Y-103560258D01*
X205059469Y-103558929D01*
X205047182Y-103550716D01*
X219482275Y-103550716D01*
X219833321Y-104860838D01*
X221143221Y-104509853D01*
X221108905Y-104427005D01*
X220975263Y-104208922D01*
X220809146Y-104014424D01*
X220614648Y-103848307D01*
X220396562Y-103714664D01*
X220160250Y-103616779D01*
X219911538Y-103557069D01*
X219656545Y-103537001D01*
X219482275Y-103550716D01*
X205047182Y-103550716D01*
X203435204Y-102473211D01*
X203433199Y-102471842D01*
X201830513Y-101354543D01*
X201828535Y-101353135D01*
X200248040Y-100204678D01*
X200246090Y-100203232D01*
X198688357Y-99024035D01*
X198686436Y-99022551D01*
X197152059Y-97813061D01*
X197150226Y-97811586D01*
X196860908Y-97574198D01*
X203880448Y-97574198D01*
X203914764Y-97657043D01*
X204048407Y-97875129D01*
X204214524Y-98069627D01*
X204409022Y-98235744D01*
X204627108Y-98369387D01*
X204863420Y-98467272D01*
X205112132Y-98526982D01*
X205367125Y-98547050D01*
X205541394Y-98533334D01*
X205190348Y-97223212D01*
X203880448Y-97574198D01*
X196860908Y-97574198D01*
X196275422Y-97093802D01*
X205673312Y-97093802D01*
X206024297Y-98403702D01*
X206107144Y-98369387D01*
X206325229Y-98235744D01*
X206519727Y-98069627D01*
X206685844Y-97875129D01*
X206819487Y-97657043D01*
X206917372Y-97420731D01*
X206977082Y-97172019D01*
X206997150Y-96917026D01*
X206983434Y-96742756D01*
X205673312Y-97093802D01*
X196275422Y-97093802D01*
X196059974Y-96917025D01*
X203737101Y-96917025D01*
X203750816Y-97091294D01*
X205060938Y-96740248D01*
X204709952Y-95430348D01*
X204627106Y-95464665D01*
X204409022Y-95598307D01*
X204214524Y-95764424D01*
X204048407Y-95958922D01*
X203914764Y-96177008D01*
X203816879Y-96413320D01*
X203757169Y-96662032D01*
X203737101Y-96917025D01*
X196059974Y-96917025D01*
X195639843Y-96572304D01*
X195637996Y-96570759D01*
X195438953Y-96400815D01*
X194644927Y-95722870D01*
X194152158Y-95302140D01*
X194150523Y-95300716D01*
X205192856Y-95300716D01*
X205543902Y-96610838D01*
X206853802Y-96259853D01*
X206845289Y-96239301D01*
X229359836Y-96239301D01*
X229359836Y-96296126D01*
X229375278Y-96413432D01*
X229435734Y-96559387D01*
X229531910Y-96684725D01*
X229657248Y-96780901D01*
X229803202Y-96841356D01*
X229859835Y-96848813D01*
X229859835Y-96239301D01*
X230259835Y-96239301D01*
X230259835Y-96848811D01*
X230259836Y-96848812D01*
X230316466Y-96841357D01*
X230462421Y-96780901D01*
X230587759Y-96684725D01*
X230683935Y-96559387D01*
X230744390Y-96413432D01*
X230759835Y-96296124D01*
X230759835Y-96239301D01*
X230259835Y-96239301D01*
X229859835Y-96239301D01*
X229359836Y-96239301D01*
X206845289Y-96239301D01*
X206819486Y-96177005D01*
X206685844Y-95958922D01*
X206519727Y-95764424D01*
X206325229Y-95598307D01*
X206107143Y-95464664D01*
X205870831Y-95366779D01*
X205622119Y-95307069D01*
X205367126Y-95287001D01*
X205192856Y-95300716D01*
X194150523Y-95300716D01*
X194150328Y-95300546D01*
X193181685Y-94440160D01*
X192689639Y-94003106D01*
X192687861Y-94001496D01*
X192630936Y-93948904D01*
X191761526Y-93145664D01*
X191252829Y-92675684D01*
X191251062Y-92674019D01*
X189842287Y-91320393D01*
X189840553Y-91318694D01*
X188458491Y-89937688D01*
X188456856Y-89936022D01*
X187102119Y-88528247D01*
X187100453Y-88526481D01*
X185773593Y-87092516D01*
X185771961Y-87090718D01*
X185418991Y-86693948D01*
X184970176Y-86189439D01*
X184473377Y-85630991D01*
X184471782Y-85629162D01*
X183202052Y-84144324D01*
X183200492Y-84142463D01*
X182782569Y-83633911D01*
X182782568Y-83633910D01*
X188865314Y-83633910D01*
X188895004Y-83903745D01*
X188963667Y-84166383D01*
X189069838Y-84416224D01*
X189211253Y-84647943D01*
X189252486Y-84697489D01*
X189384903Y-84856604D01*
X189587081Y-85037757D01*
X189813482Y-85187542D01*
X189914079Y-85234700D01*
X190059273Y-85302765D01*
X190059275Y-85302765D01*
X190059278Y-85302767D01*
X190319232Y-85380975D01*
X190587803Y-85420500D01*
X190791316Y-85420500D01*
X190791319Y-85420500D01*
X190994276Y-85405645D01*
X191105027Y-85380974D01*
X191259244Y-85346621D01*
X191512796Y-85249646D01*
X191749526Y-85116786D01*
X191964388Y-84950875D01*
X192152804Y-84755447D01*
X192310758Y-84534668D01*
X192316261Y-84523966D01*
X192389440Y-84381630D01*
X192434883Y-84293244D01*
X192522533Y-84036320D01*
X192541655Y-83932800D01*
X225688437Y-83932800D01*
X225688437Y-84382779D01*
X225698929Y-84485495D01*
X225754078Y-84651922D01*
X225846119Y-84801145D01*
X225970090Y-84925116D01*
X226119313Y-85017157D01*
X226285739Y-85072306D01*
X226388457Y-85082800D01*
X226600936Y-85082800D01*
X226600936Y-83932800D01*
X227100936Y-83932800D01*
X227100936Y-85082799D01*
X227313415Y-85082799D01*
X227416131Y-85072306D01*
X227582558Y-85017157D01*
X227731781Y-84925116D01*
X227855752Y-84801145D01*
X227947793Y-84651922D01*
X228002942Y-84485496D01*
X228013436Y-84382779D01*
X228013436Y-83932800D01*
X227100936Y-83932800D01*
X226600936Y-83932800D01*
X225688437Y-83932800D01*
X192541655Y-83932800D01*
X192547021Y-83903747D01*
X192571841Y-83769371D01*
X192581755Y-83498089D01*
X192574571Y-83432800D01*
X225688436Y-83432800D01*
X226600936Y-83432800D01*
X226600936Y-82282801D01*
X226388457Y-82282801D01*
X226285740Y-82293293D01*
X226119313Y-82348442D01*
X225970090Y-82440483D01*
X225846119Y-82564454D01*
X225754078Y-82713677D01*
X225698929Y-82880103D01*
X225688436Y-82982821D01*
X225688436Y-83432800D01*
X192574571Y-83432800D01*
X192552065Y-83228254D01*
X192540552Y-83184215D01*
X192483403Y-82965616D01*
X192377232Y-82715776D01*
X192235816Y-82484056D01*
X192068329Y-82282800D01*
X227100936Y-82282800D01*
X227100936Y-83432800D01*
X228013435Y-83432800D01*
X228013435Y-82982821D01*
X228002942Y-82880104D01*
X227947793Y-82713677D01*
X227855752Y-82564454D01*
X227731781Y-82440483D01*
X227582558Y-82348442D01*
X227416132Y-82293293D01*
X227313415Y-82282800D01*
X227100936Y-82282800D01*
X192068329Y-82282800D01*
X192062167Y-82275396D01*
X191859989Y-82094243D01*
X191633588Y-81944458D01*
X191633584Y-81944456D01*
X191387796Y-81829234D01*
X191282932Y-81797685D01*
X191127838Y-81751025D01*
X190859267Y-81711500D01*
X190655754Y-81711500D01*
X190655751Y-81711500D01*
X190452793Y-81726354D01*
X190187827Y-81785378D01*
X189934275Y-81882353D01*
X189697544Y-82015214D01*
X189482680Y-82181125D01*
X189294268Y-82376549D01*
X189136308Y-82597336D01*
X189012189Y-82838750D01*
X188924535Y-83095684D01*
X188875228Y-83362628D01*
X188865314Y-83633910D01*
X182782568Y-83633910D01*
X181960046Y-82633017D01*
X181958604Y-82631227D01*
X180747910Y-81097737D01*
X180746424Y-81095816D01*
X179566074Y-79539035D01*
X179564627Y-79537087D01*
X178414919Y-77957413D01*
X178413509Y-77955436D01*
X177294983Y-76353605D01*
X177293613Y-76351601D01*
X176445903Y-75085500D01*
X176438796Y-75074885D01*
X176418117Y-75014277D01*
X176430436Y-74951433D01*
X176472468Y-74903116D01*
X176532998Y-74882215D01*
X251072604Y-69559345D01*
X251131338Y-69569516D01*
G37*
G04 #@! TD.AperFunction*
G04 #@! TA.AperFunction,Conductor*
G36*
X249848753Y-110437998D02*
G01*
X249898116Y-110468248D01*
X250437624Y-111007756D01*
X250467258Y-111055271D01*
X250472965Y-111110978D01*
X250453583Y-111163515D01*
X250413065Y-111202169D01*
X250267396Y-111288318D01*
X250248610Y-111307103D01*
X251022135Y-112080628D01*
X251049015Y-112120856D01*
X251058454Y-112168309D01*
X251058454Y-112293690D01*
X251049015Y-112341143D01*
X251022135Y-112381371D01*
X250325007Y-113078500D01*
X250513468Y-113266961D01*
X250536999Y-113299798D01*
X250548726Y-113338456D01*
X250564370Y-113457280D01*
X250622761Y-113598249D01*
X250715649Y-113719304D01*
X250815787Y-113796142D01*
X250836704Y-113812192D01*
X250977674Y-113870584D01*
X251076057Y-113883536D01*
X251090973Y-113885500D01*
X251090974Y-113885500D01*
X251166934Y-113885500D01*
X251166935Y-113885500D01*
X251180115Y-113883764D01*
X251280234Y-113870584D01*
X251393127Y-113823822D01*
X251436287Y-113805945D01*
X251437731Y-113809431D01*
X251470139Y-113796142D01*
X251534531Y-113805320D01*
X251585419Y-113845829D01*
X251608801Y-113906524D01*
X251598244Y-113970705D01*
X251553675Y-114068295D01*
X251532785Y-114213600D01*
X251553675Y-114358904D01*
X251614658Y-114492437D01*
X251710791Y-114603378D01*
X251816163Y-114671097D01*
X251834285Y-114682743D01*
X251975136Y-114724100D01*
X252121934Y-114724100D01*
X252262785Y-114682743D01*
X252386279Y-114603378D01*
X252482412Y-114492436D01*
X252543394Y-114358904D01*
X252564285Y-114213600D01*
X252543394Y-114068296D01*
X252529695Y-114038300D01*
X252499208Y-113971542D01*
X252482412Y-113934764D01*
X252475697Y-113927015D01*
X252448243Y-113872173D01*
X252450432Y-113810878D01*
X252481726Y-113758133D01*
X252581972Y-113657887D01*
X252632598Y-113627235D01*
X252691667Y-113623540D01*
X252745721Y-113647645D01*
X252782445Y-113694058D01*
X252833858Y-113806637D01*
X252929991Y-113917578D01*
X253042393Y-113989815D01*
X253053485Y-113996943D01*
X253194336Y-114038300D01*
X253341134Y-114038300D01*
X253481985Y-113996943D01*
X253605479Y-113917578D01*
X253701612Y-113806636D01*
X253762594Y-113673104D01*
X253774793Y-113588252D01*
X253796523Y-113533974D01*
X253840711Y-113495685D01*
X253897531Y-113481900D01*
X254142809Y-113481900D01*
X254199629Y-113495684D01*
X254243816Y-113533973D01*
X254265547Y-113588253D01*
X254274094Y-113647704D01*
X254335077Y-113781237D01*
X254431210Y-113892178D01*
X254534478Y-113958545D01*
X254554704Y-113971543D01*
X254695555Y-114012900D01*
X254842353Y-114012900D01*
X254920974Y-113989815D01*
X254990841Y-113989815D01*
X255049619Y-114027589D01*
X255078645Y-114091144D01*
X255084275Y-114130304D01*
X255145258Y-114263837D01*
X255241391Y-114374778D01*
X255301691Y-114413531D01*
X255364885Y-114454143D01*
X255429274Y-114473049D01*
X255454119Y-114480344D01*
X255508416Y-114513219D01*
X255539332Y-114568655D01*
X255538766Y-114632127D01*
X255506865Y-114687002D01*
X254773687Y-115420181D01*
X254733459Y-115447061D01*
X254686006Y-115456500D01*
X251951064Y-115456500D01*
X251903611Y-115447061D01*
X251863383Y-115420181D01*
X251319479Y-114876277D01*
X251286763Y-114818270D01*
X251284611Y-114809538D01*
X251273649Y-114765063D01*
X251199108Y-114623038D01*
X251181691Y-114603378D01*
X251092745Y-114502978D01*
X250960738Y-114411860D01*
X250810764Y-114354983D01*
X250810763Y-114354982D01*
X250691486Y-114340500D01*
X250691485Y-114340500D01*
X250425137Y-114340500D01*
X250368283Y-114326698D01*
X250324085Y-114288365D01*
X250302383Y-114234034D01*
X250308007Y-114175800D01*
X250339705Y-114126626D01*
X250461624Y-114010732D01*
X250497947Y-113958545D01*
X249433082Y-112893680D01*
X249400988Y-112838093D01*
X249400988Y-112773905D01*
X249433082Y-112718318D01*
X249611272Y-112540128D01*
X249666859Y-112508034D01*
X249731047Y-112508034D01*
X249786634Y-112540128D01*
X249978953Y-112732447D01*
X249986836Y-112729181D01*
X249988393Y-112721356D01*
X250015273Y-112681128D01*
X250465401Y-112231000D01*
X250015273Y-111780872D01*
X249988393Y-111740644D01*
X249978954Y-111693191D01*
X249978954Y-111408362D01*
X249983723Y-111374305D01*
X250004348Y-111302095D01*
X249851163Y-111262434D01*
X249783523Y-111259004D01*
X249728046Y-111242689D01*
X249685999Y-111202990D01*
X249666528Y-111148540D01*
X249671289Y-111111319D01*
X249670137Y-111111180D01*
X249675134Y-111070020D01*
X249678760Y-111040150D01*
X249679886Y-111032750D01*
X249690072Y-110977173D01*
X249686661Y-110920785D01*
X249686435Y-110913298D01*
X249686435Y-110555929D01*
X249699950Y-110499634D01*
X249737550Y-110455611D01*
X249791037Y-110433456D01*
X249848753Y-110437998D01*
G37*
G04 #@! TD.AperFunction*
G04 #@! TA.AperFunction,Conductor*
G36*
X257141771Y-111819377D02*
G01*
X257191134Y-111849627D01*
X257484826Y-112143319D01*
X257516920Y-112198907D01*
X257516920Y-112263094D01*
X257484826Y-112318681D01*
X257191134Y-112612372D01*
X257141771Y-112642622D01*
X257084055Y-112647164D01*
X257030568Y-112625009D01*
X256992968Y-112580986D01*
X256979453Y-112524694D01*
X256979453Y-111937307D01*
X256992968Y-111881013D01*
X257030568Y-111836990D01*
X257084055Y-111814835D01*
X257141771Y-111819377D01*
G37*
G04 #@! TD.AperFunction*
G04 #@! TA.AperFunction,Conductor*
G36*
X252756237Y-72353234D02*
G01*
X254165124Y-72822863D01*
X254221934Y-72862041D01*
X254249004Y-72925519D01*
X254237950Y-72993637D01*
X254192195Y-73045297D01*
X254125912Y-73064500D01*
X253533257Y-73064500D01*
X253521103Y-73063903D01*
X253477535Y-73059612D01*
X253433967Y-73063903D01*
X253433947Y-73063903D01*
X253279439Y-73079121D01*
X253088961Y-73136902D01*
X253037331Y-73164500D01*
X252913415Y-73230733D01*
X252798713Y-73324868D01*
X252798615Y-73324947D01*
X252759548Y-73357011D01*
X252731764Y-73390863D01*
X252723595Y-73399875D01*
X247233210Y-78890260D01*
X247224198Y-78898429D01*
X247190346Y-78926212D01*
X247158707Y-78964764D01*
X247158703Y-78964769D01*
X247064069Y-79080080D01*
X247018946Y-79164500D01*
X246970238Y-79255627D01*
X246970236Y-79255631D01*
X246912456Y-79446105D01*
X246897238Y-79600622D01*
X246897238Y-79600631D01*
X246892947Y-79644200D01*
X246897238Y-79687769D01*
X246897835Y-79699923D01*
X246897835Y-104201641D01*
X246891489Y-104240800D01*
X246873102Y-104275951D01*
X246805673Y-104366024D01*
X246805671Y-104366027D01*
X246805672Y-104366027D01*
X246754372Y-104503569D01*
X246747835Y-104564370D01*
X246747835Y-105487030D01*
X246754372Y-105547831D01*
X246805672Y-105685373D01*
X246893645Y-105802890D01*
X247011162Y-105890863D01*
X247148704Y-105942163D01*
X247209505Y-105948700D01*
X247460457Y-105948700D01*
X247507969Y-105960600D01*
X247508075Y-105960252D01*
X247515169Y-105962404D01*
X247518907Y-105963340D01*
X247519762Y-105963797D01*
X247710242Y-106021579D01*
X247908335Y-106041089D01*
X248106428Y-106021579D01*
X248296908Y-105963797D01*
X248297762Y-105963340D01*
X248301500Y-105962404D01*
X248308595Y-105960252D01*
X248308700Y-105960600D01*
X248356213Y-105948700D01*
X248607161Y-105948700D01*
X248607165Y-105948700D01*
X248667966Y-105942163D01*
X248805508Y-105890863D01*
X248923025Y-105802890D01*
X249010998Y-105685373D01*
X249062298Y-105547831D01*
X249068835Y-105487030D01*
X249068835Y-104564370D01*
X249062298Y-104503569D01*
X249010998Y-104366027D01*
X249010996Y-104366024D01*
X248943568Y-104275951D01*
X248925181Y-104240800D01*
X248918835Y-104201641D01*
X248918835Y-80114125D01*
X248928274Y-80066672D01*
X248955154Y-80026444D01*
X252906599Y-76074999D01*
X255135408Y-76074999D01*
X255155072Y-76287219D01*
X255213397Y-76492208D01*
X255308395Y-76682990D01*
X255317169Y-76694609D01*
X255317170Y-76694609D01*
X255936781Y-76075001D01*
X256643888Y-76075001D01*
X257263498Y-76694610D01*
X257272275Y-76682988D01*
X257367272Y-76492208D01*
X257425597Y-76287219D01*
X257445261Y-76074999D01*
X257425597Y-75862780D01*
X257367272Y-75657791D01*
X257272276Y-75467011D01*
X257263498Y-75455388D01*
X256643888Y-76075000D01*
X256643888Y-76075001D01*
X255936781Y-76075001D01*
X255936781Y-76075000D01*
X255317170Y-75455389D01*
X255308393Y-75467013D01*
X255213397Y-75657791D01*
X255155072Y-75862780D01*
X255135408Y-76074999D01*
X252906599Y-76074999D01*
X253859779Y-75121819D01*
X253900007Y-75094939D01*
X253947460Y-75085500D01*
X255603027Y-75085500D01*
X255650480Y-75094939D01*
X255690708Y-75121819D01*
X256290335Y-75721446D01*
X256290336Y-75721446D01*
X256907342Y-75104438D01*
X256907341Y-75104437D01*
X256896015Y-75097424D01*
X256855026Y-75055900D01*
X256837565Y-75000227D01*
X256847499Y-74942731D01*
X256882625Y-74896145D01*
X257008323Y-74792988D01*
X257134600Y-74639120D01*
X257228432Y-74463573D01*
X257286214Y-74273093D01*
X257305724Y-74075000D01*
X257286214Y-73876907D01*
X257228432Y-73686427D01*
X257228432Y-73686426D01*
X257181516Y-73598653D01*
X257134600Y-73510880D01*
X257008323Y-73357012D01*
X256952077Y-73310852D01*
X256916182Y-73262452D01*
X256907340Y-73202845D01*
X256927641Y-73146109D01*
X256972290Y-73105642D01*
X257030743Y-73091000D01*
X259325283Y-73091000D01*
X259387295Y-73107620D01*
X259432684Y-73153024D01*
X259449282Y-73215040D01*
X259443189Y-91060141D01*
X259436030Y-112024110D01*
X259422105Y-112081159D01*
X259383493Y-112125404D01*
X259366351Y-112132154D01*
X258692507Y-112806000D01*
X259397540Y-113511034D01*
X259396192Y-113512381D01*
X259420861Y-113539604D01*
X259435492Y-113598080D01*
X259434593Y-116232689D01*
X259422079Y-116286931D01*
X259387097Y-116330233D01*
X259336697Y-116353868D01*
X259324806Y-116353698D01*
X258692507Y-116986000D01*
X259323350Y-117616844D01*
X259331576Y-117616362D01*
X259384119Y-117639015D01*
X259420897Y-117682848D01*
X259434079Y-117738526D01*
X259433599Y-119143540D01*
X259416972Y-119205522D01*
X259371587Y-119250892D01*
X259309599Y-119267498D01*
X248837191Y-119267498D01*
X248822429Y-119266616D01*
X246903818Y-119036568D01*
X246901410Y-119036256D01*
X245932365Y-118900772D01*
X245877870Y-118879160D01*
X245839393Y-118834929D01*
X245825535Y-118777966D01*
X245825535Y-118070162D01*
X248968343Y-118070162D01*
X249006434Y-118114531D01*
X249167261Y-118239021D01*
X249349854Y-118328586D01*
X249546746Y-118379565D01*
X249749865Y-118389867D01*
X249950899Y-118359069D01*
X250141618Y-118288435D01*
X250314214Y-118180856D01*
X250430098Y-118070697D01*
X250429563Y-118070162D01*
X257608343Y-118070162D01*
X257646434Y-118114531D01*
X257807261Y-118239021D01*
X257989854Y-118328586D01*
X258186746Y-118379565D01*
X258389865Y-118389867D01*
X258590899Y-118359069D01*
X258781618Y-118288435D01*
X258954214Y-118180856D01*
X259070098Y-118070697D01*
X258338954Y-117339553D01*
X257608343Y-118070162D01*
X250429563Y-118070162D01*
X249698954Y-117339553D01*
X248968343Y-118070162D01*
X245825535Y-118070162D01*
X245825535Y-117436710D01*
X248698954Y-117436710D01*
X248714373Y-117588338D01*
X248721224Y-117610175D01*
X248721224Y-117610176D01*
X249345401Y-116986001D01*
X249345401Y-116986000D01*
X250052507Y-116986000D01*
X250674276Y-117607769D01*
X250698954Y-117487689D01*
X250698954Y-117436710D01*
X257338954Y-117436710D01*
X257354373Y-117588338D01*
X257361224Y-117610175D01*
X257361224Y-117610176D01*
X257985401Y-116986001D01*
X257985401Y-116985999D01*
X257363630Y-116364229D01*
X257338954Y-116484310D01*
X257338954Y-117436710D01*
X250698954Y-117436710D01*
X250698954Y-116535290D01*
X250683534Y-116383662D01*
X250676682Y-116361822D01*
X250052507Y-116986000D01*
X249345401Y-116986000D01*
X249345401Y-116985999D01*
X248723630Y-116364229D01*
X248698954Y-116484310D01*
X248698954Y-117436710D01*
X245825535Y-117436710D01*
X245825535Y-110318601D01*
X246497123Y-110318601D01*
X246504578Y-110375231D01*
X246565034Y-110521186D01*
X246661210Y-110646524D01*
X246786548Y-110742700D01*
X246932503Y-110803155D01*
X247049812Y-110818600D01*
X247106635Y-110818600D01*
X247106635Y-110318600D01*
X246497125Y-110318600D01*
X246497123Y-110318601D01*
X245825535Y-110318601D01*
X245825535Y-109918600D01*
X246497122Y-109918600D01*
X247106635Y-109918600D01*
X247106635Y-109418601D01*
X247049810Y-109418601D01*
X246932503Y-109434043D01*
X246786548Y-109494499D01*
X246661210Y-109590675D01*
X246565034Y-109716013D01*
X246504579Y-109861967D01*
X246497122Y-109918600D01*
X245825535Y-109918600D01*
X245825535Y-108612030D01*
X246747835Y-108612030D01*
X246754372Y-108672831D01*
X246805672Y-108810373D01*
X246893645Y-108927890D01*
X247011162Y-109015863D01*
X247148704Y-109067163D01*
X247209505Y-109073700D01*
X247845885Y-109073700D01*
X247893338Y-109083139D01*
X247933566Y-109110019D01*
X248269966Y-109446419D01*
X248300216Y-109495782D01*
X248304758Y-109553498D01*
X248282603Y-109606985D01*
X248238580Y-109644585D01*
X248182285Y-109658100D01*
X248064947Y-109658100D01*
X248010103Y-109645312D01*
X247966571Y-109609586D01*
X247952061Y-109590676D01*
X247826721Y-109494499D01*
X247680766Y-109434044D01*
X247563458Y-109418600D01*
X247506635Y-109418600D01*
X247506635Y-110818599D01*
X247563460Y-110818599D01*
X247680766Y-110803156D01*
X247826721Y-110742700D01*
X247952061Y-110646523D01*
X247962274Y-110633214D01*
X248005806Y-110597488D01*
X248060650Y-110584700D01*
X248144785Y-110584700D01*
X248201080Y-110598215D01*
X248245103Y-110635815D01*
X248267258Y-110689302D01*
X248262716Y-110747018D01*
X248232466Y-110796381D01*
X247661243Y-111367602D01*
X247655791Y-111372735D01*
X247613510Y-111410193D01*
X247581420Y-111456682D01*
X247576985Y-111462711D01*
X247542137Y-111507193D01*
X247538478Y-111515322D01*
X247527462Y-111534853D01*
X247522397Y-111542191D01*
X247502361Y-111595023D01*
X247499495Y-111601942D01*
X247476310Y-111653457D01*
X247474703Y-111662225D01*
X247468679Y-111683832D01*
X247465518Y-111692166D01*
X247458707Y-111748260D01*
X247457580Y-111755663D01*
X247447398Y-111811226D01*
X247450809Y-111867615D01*
X247451035Y-111875102D01*
X247451035Y-114469298D01*
X247450809Y-114476785D01*
X247447398Y-114533174D01*
X247457580Y-114588737D01*
X247458707Y-114596140D01*
X247465517Y-114652227D01*
X247468677Y-114660557D01*
X247474705Y-114682180D01*
X247476311Y-114690944D01*
X247499497Y-114742463D01*
X247502363Y-114749381D01*
X247522396Y-114802204D01*
X247522397Y-114802205D01*
X247527458Y-114809538D01*
X247538481Y-114829082D01*
X247542139Y-114837211D01*
X247576987Y-114881690D01*
X247581426Y-114887723D01*
X247613511Y-114934207D01*
X247613512Y-114934208D01*
X247613513Y-114934209D01*
X247655808Y-114971679D01*
X247661245Y-114976798D01*
X248135735Y-115451288D01*
X248140869Y-115456742D01*
X248178324Y-115499021D01*
X248193518Y-115509508D01*
X248224828Y-115531120D01*
X248230834Y-115535539D01*
X248275324Y-115570395D01*
X248283448Y-115574051D01*
X248302997Y-115585077D01*
X248310331Y-115590139D01*
X248359115Y-115608639D01*
X248363166Y-115610176D01*
X248370069Y-115613035D01*
X248402321Y-115627551D01*
X248421590Y-115636224D01*
X248430346Y-115637828D01*
X248451974Y-115643856D01*
X248460306Y-115647017D01*
X248516399Y-115653827D01*
X248523791Y-115654951D01*
X248579362Y-115665136D01*
X248635739Y-115661726D01*
X248643226Y-115661500D01*
X248909650Y-115661500D01*
X248966504Y-115675302D01*
X249010702Y-115713635D01*
X249032404Y-115767966D01*
X249026780Y-115826200D01*
X248995082Y-115875374D01*
X248967808Y-115901299D01*
X248967807Y-115901300D01*
X249698954Y-116632447D01*
X249698955Y-116632447D01*
X250429561Y-115901838D01*
X250430865Y-115867560D01*
X250446053Y-115812643D01*
X250484196Y-115770317D01*
X250537242Y-115749516D01*
X250593989Y-115754634D01*
X250642457Y-115784589D01*
X251239472Y-116381604D01*
X251250167Y-116393799D01*
X251267781Y-116416754D01*
X251297181Y-116439313D01*
X251384866Y-116506597D01*
X251464737Y-116539679D01*
X251464736Y-116539679D01*
X251488130Y-116549369D01*
X251521215Y-116563074D01*
X251591811Y-116572368D01*
X251667535Y-116582338D01*
X251696223Y-116578560D01*
X251712409Y-116577500D01*
X254924662Y-116577500D01*
X254940848Y-116578561D01*
X254969535Y-116582338D01*
X255045258Y-116572368D01*
X255115855Y-116563074D01*
X255184028Y-116534834D01*
X255212268Y-116523137D01*
X255252204Y-116506596D01*
X255339889Y-116439313D01*
X255339888Y-116439313D01*
X255369289Y-116416754D01*
X255369290Y-116416751D01*
X255378838Y-116409426D01*
X255383938Y-116397662D01*
X255386903Y-116393796D01*
X255397588Y-116381612D01*
X255877901Y-115901300D01*
X257607807Y-115901300D01*
X258338954Y-116632447D01*
X258338955Y-116632447D01*
X259069562Y-115901837D01*
X259031470Y-115857466D01*
X258870646Y-115732978D01*
X258688053Y-115643413D01*
X258491161Y-115592434D01*
X258288042Y-115582132D01*
X258087008Y-115612930D01*
X257896289Y-115683564D01*
X257723690Y-115791145D01*
X257607807Y-115901300D01*
X255877901Y-115901300D01*
X256407848Y-115371354D01*
X256466426Y-115312776D01*
X256466428Y-115312773D01*
X256712648Y-115066554D01*
X256779931Y-114978869D01*
X256836408Y-114842520D01*
X256855672Y-114696200D01*
X256836409Y-114549881D01*
X256779931Y-114413531D01*
X256701460Y-114311267D01*
X256682416Y-114275639D01*
X256675835Y-114235780D01*
X256675835Y-114001204D01*
X256688006Y-113959450D01*
X257539055Y-113959450D01*
X257646433Y-114084531D01*
X257807261Y-114209021D01*
X257989854Y-114298586D01*
X258186746Y-114349565D01*
X258389865Y-114359867D01*
X258590899Y-114329069D01*
X258781618Y-114258435D01*
X258954217Y-114150854D01*
X259101624Y-114010732D01*
X259137947Y-113958545D01*
X259137946Y-113958544D01*
X258338954Y-113159553D01*
X257539055Y-113959449D01*
X257539055Y-113959450D01*
X256688006Y-113959450D01*
X256695255Y-113934579D01*
X256747431Y-113888822D01*
X256816019Y-113878265D01*
X256870974Y-113885500D01*
X256946934Y-113885500D01*
X256946935Y-113885500D01*
X256960115Y-113883764D01*
X257060234Y-113870584D01*
X257201204Y-113812192D01*
X257322258Y-113719304D01*
X257415146Y-113598250D01*
X257473538Y-113457280D01*
X257489181Y-113338455D01*
X257500908Y-113299797D01*
X257524439Y-113266960D01*
X258338954Y-112452447D01*
X259138851Y-111652548D01*
X259031474Y-111527468D01*
X258870646Y-111402978D01*
X258688053Y-111313413D01*
X258491161Y-111262434D01*
X258288042Y-111252132D01*
X258087006Y-111282930D01*
X257926657Y-111342317D01*
X257857094Y-111347172D01*
X257795911Y-111313717D01*
X257770511Y-111288317D01*
X257629151Y-111204717D01*
X257471447Y-111158900D01*
X257434593Y-111156000D01*
X257003315Y-111156000D01*
X256966460Y-111158900D01*
X256808756Y-111204717D01*
X256667397Y-111288317D01*
X256635579Y-111320133D01*
X256631996Y-111333504D01*
X256586609Y-111378888D01*
X256524611Y-111395500D01*
X256236650Y-111395500D01*
X256179555Y-111404542D01*
X256140521Y-111410725D01*
X256140519Y-111410725D01*
X256128932Y-111412561D01*
X256075876Y-111409431D01*
X256029003Y-111384377D01*
X255996925Y-111342001D01*
X255985535Y-111290087D01*
X255985535Y-109780449D01*
X256004541Y-109714477D01*
X256055734Y-109668729D01*
X256123419Y-109657229D01*
X256239535Y-109670312D01*
X256409833Y-109651124D01*
X256571591Y-109594522D01*
X256716699Y-109503345D01*
X256837880Y-109382164D01*
X256929057Y-109237056D01*
X256985659Y-109075298D01*
X257004847Y-108905000D01*
X256985659Y-108734702D01*
X256964009Y-108672831D01*
X256929058Y-108572946D01*
X256837878Y-108427833D01*
X256716701Y-108306656D01*
X256571588Y-108215476D01*
X256409833Y-108158875D01*
X256239535Y-108139687D01*
X256123419Y-108152771D01*
X256055734Y-108141271D01*
X256004541Y-108095523D01*
X255985535Y-108029551D01*
X255985535Y-107807298D01*
X256001825Y-107745860D01*
X256033423Y-107713762D01*
X256032803Y-107713142D01*
X256160899Y-107585045D01*
X256245142Y-107442598D01*
X256291313Y-107283679D01*
X256291965Y-107275400D01*
X255300735Y-107275400D01*
X255238735Y-107258787D01*
X255193348Y-107213400D01*
X255176735Y-107151400D01*
X255176735Y-106899400D01*
X255193348Y-106837400D01*
X255238735Y-106792013D01*
X255300735Y-106775400D01*
X256291965Y-106775400D01*
X256291313Y-106767120D01*
X256245142Y-106608201D01*
X256160899Y-106465754D01*
X256032803Y-106337658D01*
X256033423Y-106337037D01*
X256001825Y-106304940D01*
X255985535Y-106243502D01*
X255985535Y-82794362D01*
X255994974Y-82746909D01*
X256021854Y-82706681D01*
X256485717Y-82242818D01*
X257763535Y-80965000D01*
X257763535Y-77155000D01*
X257033863Y-77155000D01*
X256967775Y-77135921D01*
X256922024Y-77084555D01*
X256917147Y-77055365D01*
X256290336Y-76428553D01*
X256290335Y-76428553D01*
X255663521Y-77055365D01*
X255658645Y-77084555D01*
X255612894Y-77135921D01*
X255546806Y-77155000D01*
X253445534Y-77155000D01*
X250905535Y-79440999D01*
X251156475Y-106291722D01*
X251147262Y-106339797D01*
X251120162Y-106380561D01*
X251034970Y-106465754D01*
X250950727Y-106608201D01*
X250904556Y-106767120D01*
X250903905Y-106775400D01*
X251895135Y-106775400D01*
X251957135Y-106792013D01*
X252002522Y-106837400D01*
X252019135Y-106899400D01*
X252019135Y-107151400D01*
X252002522Y-107213400D01*
X251957135Y-107258787D01*
X251895135Y-107275400D01*
X250903905Y-107275400D01*
X250904556Y-107283679D01*
X250950727Y-107442598D01*
X251034970Y-107585045D01*
X251123216Y-107673291D01*
X251150096Y-107713519D01*
X251159535Y-107760972D01*
X251159535Y-108029551D01*
X251140529Y-108095523D01*
X251089336Y-108141271D01*
X251021651Y-108152771D01*
X250905534Y-108139687D01*
X250735236Y-108158875D01*
X250573481Y-108215476D01*
X250428368Y-108306656D01*
X250307191Y-108427833D01*
X250216011Y-108572946D01*
X250159410Y-108734701D01*
X250144685Y-108865392D01*
X250121023Y-108925429D01*
X250070397Y-108965445D01*
X250006519Y-108974604D01*
X249882536Y-108959550D01*
X249702635Y-108959550D01*
X249655182Y-108950111D01*
X249614954Y-108923231D01*
X249105154Y-108413431D01*
X249078274Y-108373203D01*
X249068835Y-108325750D01*
X249068835Y-107689374D01*
X249067106Y-107673291D01*
X249062298Y-107628569D01*
X249010998Y-107491027D01*
X248923025Y-107373510D01*
X248805508Y-107285537D01*
X248667966Y-107234237D01*
X248607165Y-107227700D01*
X247209505Y-107227700D01*
X247160864Y-107232929D01*
X247148703Y-107234237D01*
X247011161Y-107285537D01*
X246893645Y-107373510D01*
X246805672Y-107491026D01*
X246805671Y-107491027D01*
X246805672Y-107491027D01*
X246754372Y-107628569D01*
X246747835Y-107689370D01*
X246747835Y-108612030D01*
X245825535Y-108612030D01*
X245825535Y-79238362D01*
X245834974Y-79190909D01*
X245861854Y-79150681D01*
X249149755Y-75862780D01*
X252629346Y-72383188D01*
X252688536Y-72350188D01*
X252756237Y-72353234D01*
G37*
G04 #@! TD.AperFunction*
M02*
