G04 #@! TF.GenerationSoftware,KiCad,Pcbnew,7.0.1*
G04 #@! TF.CreationDate,2023-10-11T18:56:37-05:00*
G04 #@! TF.ProjectId,Audio_Board,41756469-6f5f-4426-9f61-72642e6b6963,1*
G04 #@! TF.SameCoordinates,Original*
G04 #@! TF.FileFunction,Soldermask,Top*
G04 #@! TF.FilePolarity,Negative*
%FSLAX46Y46*%
G04 Gerber Fmt 4.6, Leading zero omitted, Abs format (unit mm)*
G04 Created by KiCad (PCBNEW 7.0.1) date 2023-10-11 18:56:37*
%MOMM*%
%LPD*%
G01*
G04 APERTURE LIST*
G04 Aperture macros list*
%AMRoundRect*
0 Rectangle with rounded corners*
0 $1 Rounding radius*
0 $2 $3 $4 $5 $6 $7 $8 $9 X,Y pos of 4 corners*
0 Add a 4 corners polygon primitive as box body*
4,1,4,$2,$3,$4,$5,$6,$7,$8,$9,$2,$3,0*
0 Add four circle primitives for the rounded corners*
1,1,$1+$1,$2,$3*
1,1,$1+$1,$4,$5*
1,1,$1+$1,$6,$7*
1,1,$1+$1,$8,$9*
0 Add four rect primitives between the rounded corners*
20,1,$1+$1,$2,$3,$4,$5,0*
20,1,$1+$1,$4,$5,$6,$7,0*
20,1,$1+$1,$6,$7,$8,$9,0*
20,1,$1+$1,$8,$9,$2,$3,0*%
G04 Aperture macros list end*
%ADD10C,3.200000*%
%ADD11RoundRect,0.155000X0.155000X-0.212500X0.155000X0.212500X-0.155000X0.212500X-0.155000X-0.212500X0*%
%ADD12RoundRect,0.250000X0.650000X-0.412500X0.650000X0.412500X-0.650000X0.412500X-0.650000X-0.412500X0*%
%ADD13R,0.725000X0.250000*%
%ADD14R,0.775000X0.250000*%
%ADD15RoundRect,0.100000X-0.100000X0.217500X-0.100000X-0.217500X0.100000X-0.217500X0.100000X0.217500X0*%
%ADD16C,0.650000*%
%ADD17RoundRect,0.150000X-0.150000X-0.425000X0.150000X-0.425000X0.150000X0.425000X-0.150000X0.425000X0*%
%ADD18RoundRect,0.075000X-0.075000X-0.500000X0.075000X-0.500000X0.075000X0.500000X-0.075000X0.500000X0*%
%ADD19O,1.000000X2.100000*%
%ADD20O,1.000000X1.800000*%
%ADD21RoundRect,0.155000X-0.212500X-0.155000X0.212500X-0.155000X0.212500X0.155000X-0.212500X0.155000X0*%
%ADD22C,1.300000*%
%ADD23RoundRect,0.155000X0.212500X0.155000X-0.212500X0.155000X-0.212500X-0.155000X0.212500X-0.155000X0*%
%ADD24C,1.000000*%
%ADD25C,2.250000*%
%ADD26RoundRect,0.250000X0.412500X0.650000X-0.412500X0.650000X-0.412500X-0.650000X0.412500X-0.650000X0*%
%ADD27RoundRect,0.100000X0.217500X0.100000X-0.217500X0.100000X-0.217500X-0.100000X0.217500X-0.100000X0*%
%ADD28C,2.704000*%
G04 APERTURE END LIST*
D10*
X236753535Y-111326000D03*
D11*
X180725735Y-30706700D03*
X180725735Y-29571700D03*
X252760135Y-110157900D03*
X252760135Y-109022900D03*
D12*
X247908335Y-108150700D03*
X247908335Y-105025700D03*
X180674535Y-27447201D03*
X180674535Y-24322201D03*
D10*
X255433535Y-24355000D03*
D11*
X254385735Y-110157900D03*
X254385735Y-109022900D03*
D10*
X190723535Y-83566000D03*
D13*
X175640435Y-25913800D03*
X175640435Y-26413800D03*
X175640435Y-26913800D03*
X175640435Y-27413800D03*
X175640435Y-27913800D03*
D14*
X176640435Y-27913800D03*
X176640435Y-27413800D03*
X176640435Y-26913800D03*
X176640435Y-26413800D03*
X176640435Y-25913800D03*
D15*
X230059835Y-95224301D03*
X230059835Y-96039301D03*
D16*
X251128954Y-113306000D03*
X256908954Y-113306000D03*
D17*
X250818954Y-112231000D03*
X251618954Y-112231000D03*
D18*
X252768954Y-112231000D03*
X253768954Y-112231000D03*
X254268954Y-112231000D03*
X255268954Y-112231000D03*
D17*
X256418954Y-112231000D03*
X257218954Y-112231000D03*
X257218954Y-112231000D03*
X256418954Y-112231000D03*
D18*
X255768954Y-112231000D03*
X254768954Y-112231000D03*
X253268954Y-112231000D03*
X252268954Y-112231000D03*
D17*
X251618954Y-112231000D03*
X250818954Y-112231000D03*
D19*
X249698954Y-112806000D03*
D20*
X249698954Y-116986000D03*
D19*
X258338954Y-112806000D03*
D20*
X258338954Y-116986000D03*
D10*
X193323535Y-24336000D03*
D21*
X251769135Y-107025400D03*
X252904135Y-107025400D03*
D22*
X256290335Y-66075000D03*
X256290335Y-68075000D03*
X256290335Y-70075000D03*
X256290335Y-72075000D03*
X256290335Y-74075000D03*
X256290335Y-76075000D03*
X256290335Y-78075000D03*
X256290335Y-80075000D03*
D23*
X255426735Y-107025400D03*
X254291735Y-107025400D03*
D24*
X256239535Y-108905000D03*
D25*
X211717126Y-85918503D03*
X226006545Y-94168503D03*
X205367126Y-96917026D03*
X219656545Y-105167026D03*
D26*
X229975936Y-83682800D03*
X226850936Y-83682800D03*
D27*
X248121635Y-110118600D03*
X247306635Y-110118600D03*
D24*
X162288954Y-27009000D03*
X169788954Y-27009000D03*
D28*
X171688954Y-29759000D03*
X166388954Y-28509000D03*
X171688954Y-24259000D03*
D24*
X250905535Y-108905000D03*
D11*
X233379535Y-86799000D03*
X233379535Y-85664000D03*
M02*
