M48
; DRILL file {KiCad 7.0.1} date Wed Oct 11 19:04:14 2023
; FORMAT={-:-/ absolute / metric / decimal}
; #@! TF.CreationDate,2023-10-11T19:04:14-05:00
; #@! TF.GenerationSoftware,Kicad,Pcbnew,7.0.1
; #@! TF.FileFunction,Plated,1,6,PTH
FMAT,2
METRIC
; #@! TA.AperFunction,Plated,PTH,ViaDrill
T1C0.300
; #@! TA.AperFunction,Plated,PTH,ComponentDrill
T2C0.300
; #@! TA.AperFunction,Plated,PTH,ComponentDrill
T3C0.750
; #@! TA.AperFunction,Plated,PTH,ComponentDrill
T4C1.000
; #@! TA.AperFunction,Plated,PTH,ComponentDrill
T5C1.500
%
G90
G05
T1
X121.214Y-46.467
X121.214Y-47.788
X121.24Y-49.743
X121.24Y-52.969
X121.265Y-51.648
X121.417Y-55.611
X121.621Y-57.77
X121.849Y-60.081
X122.052Y-30.566
X122.738Y-35.9
X122.865Y-26.985
X122.865Y-49.007
X122.992Y-44.968
X123.5Y-28.788
X123.526Y-56.449
X123.602Y-33.005
X123.602Y-58.43
X123.957Y-60.081
X124.059Y-53.63
X124.796Y-33.868
X125.202Y-27.442
X125.583Y-54.036
X125.685Y-57.287
X125.735Y-30.465
X125.862Y-38.593
X125.989Y-34.884
X125.989Y-36.231
X126.193Y-22.972
X126.396Y-60.056
X126.726Y-26.655
X126.955Y-33.31
X127.132Y-54.087
X127.234Y-36.612
X127.285Y-46.441
X127.59Y-28.153
X127.971Y-57.262
X128.021Y-26.096
X128.021Y-48.499
X128.275Y-40.549
X128.758Y-60.081
X129.164Y-58.557
X129.19Y-45.324
X129.444Y-29.055
X129.622Y-42.352
X129.723Y-49.947
X130.714Y-60.081
X130.817Y-51.055
X131.273Y-32.649
X131.273Y-47.61
X131.45Y-35.215
X131.476Y-36.764
X131.577Y-44.232
X132.117Y-41.455
X132.317Y-51.255
X132.593Y-27.442
X132.797Y-60.056
X132.967Y-51.955
X133.0Y-35.265
X133.101Y-36.815
X133.117Y-41.455
X133.584Y-42.174
X133.617Y-52.655
X133.867Y-54.205
X134.067Y-47.153
X134.168Y-22.896
X134.267Y-53.355
X134.317Y-41.455
X134.524Y-25.817
X134.617Y-57.055
X134.767Y-54.905
X135.057Y-31.176
X135.417Y-41.455
X135.417Y-57.755
X135.592Y-55.63
X135.617Y-60.255
X135.743Y-22.057
X135.972Y-27.061
X136.367Y-58.605
X136.429Y-38.39
X136.517Y-56.255
X136.617Y-41.455
X136.767Y-59.305
X137.597Y-29.677
X138.181Y-38.186
X138.817Y-35.155
X139.117Y-33.755
X139.117Y-36.977
X139.274Y-21.118
X139.517Y-60.255
X139.667Y-49.205
X139.767Y-38.355
X140.061Y-28.484
X140.067Y-44.455
X140.767Y-20.655
X141.356Y-27.671
X141.417Y-34.555
X141.417Y-36.155
X141.517Y-41.055
X141.717Y-38.355
X142.068Y-30.414
X142.317Y-35.961
X142.576Y-35.104
X142.677Y-32.065
X142.728Y-31.18
X142.779Y-34.046
X142.931Y-36.729
X143.058Y-29.652
X143.167Y-20.555
X143.167Y-22.055
X143.515Y-32.7
X143.617Y-24.855
X143.617Y-60.305
X144.023Y-37.196
X144.067Y-38.305
X144.582Y-30.058
X144.633Y-34.834
X144.667Y-48.955
X144.817Y-45.855
X146.067Y-22.155
X146.267Y-38.405
X146.817Y-42.605
X147.367Y-60.255
X147.417Y-20.555
X147.529Y-46.238
X147.579Y-49.667
X147.656Y-40.599
X147.917Y-38.305
X151.117Y-43.355
X152.117Y-60.255
X154.617Y-60.255
X156.617Y-40.855
X157.117Y-60.244
X159.067Y-50.255
X159.617Y-30.355
X159.617Y-60.255
X161.117Y-20.855
X161.617Y-34.855
X162.117Y-25.855
X162.117Y-60.255
X163.617Y-20.845
X163.912Y-44.714
X164.617Y-60.255
X164.699Y-29.652
X166.117Y-20.855
X167.087Y-23.861
X167.117Y-60.244
X168.467Y-40.505
X168.617Y-20.855
X169.617Y-60.255
X171.117Y-20.855
X171.167Y-44.955
X171.967Y-32.605
X172.117Y-33.605
X172.167Y-44.255
X172.217Y-53.755
X172.467Y-45.654
X172.467Y-47.055
X172.617Y-60.255
X172.827Y-22.946
X173.167Y-40.555
X173.167Y-46.355
X173.267Y-36.355
X173.442Y-33.58
X173.467Y-44.255
X173.617Y-20.845
X173.617Y-32.605
X174.417Y-45.655
X175.117Y-60.255
X175.367Y-44.255
X175.367Y-47.055
X176.117Y-20.855
X177.117Y-51.855
X177.617Y-60.244
X178.617Y-20.855
X180.117Y-60.255
X180.367Y-35.905
X181.117Y-20.855
X181.167Y-24.805
X182.617Y-60.255
X182.817Y-41.305
X183.617Y-20.845
X184.617Y-52.655
X185.117Y-60.255
X186.117Y-20.855
X186.117Y-26.855
X186.617Y-35.355
X187.617Y-60.244
X188.517Y-45.655
X188.617Y-20.855
X189.167Y-44.255
X189.553Y-47.054
X189.767Y-32.605
X190.017Y-33.705
X190.117Y-60.255
X190.167Y-44.955
X190.367Y-36.205
X190.417Y-41.755
X190.917Y-47.055
X191.068Y-33.705
X191.117Y-20.855
X191.367Y-32.605
X191.617Y-26.355
X192.117Y-46.355
X192.617Y-52.355
X193.117Y-60.255
X193.617Y-20.845
X195.117Y-40.355
X195.617Y-60.255
X196.117Y-20.855
X197.525Y-51.721
X197.967Y-35.055
X198.117Y-20.855
X198.117Y-60.244
X200.617Y-20.855
X200.617Y-60.255
X200.767Y-43.555
X202.037Y-23.708
X202.117Y-48.855
X202.617Y-27.355
X203.117Y-20.845
X203.117Y-60.255
X205.117Y-37.855
X205.617Y-20.855
X205.617Y-60.255
X208.117Y-20.855
X208.117Y-60.244
X209.167Y-48.805
X209.267Y-52.705
X210.103Y-50.859
X210.117Y-32.605
X210.267Y-33.605
X210.617Y-20.855
X210.617Y-51.605
X210.617Y-60.255
X210.967Y-43.805
X211.017Y-36.505
X211.267Y-47.405
X211.417Y-49.455
X211.567Y-33.755
X211.617Y-27.355
X211.817Y-32.655
X212.017Y-50.155
X212.617Y-23.355
X213.117Y-20.845
X213.267Y-48.755
X213.267Y-50.855
X213.617Y-60.255
X215.617Y-20.855
X216.117Y-60.255
X218.117Y-20.855
X218.117Y-54.355
X218.517Y-37.555
X218.617Y-60.244
X220.117Y-24.655
X220.617Y-20.855
X221.117Y-60.255
X221.417Y-58.355
X223.117Y-20.845
X223.117Y-44.805
X223.617Y-60.255
X225.617Y-20.855
X226.117Y-60.255
X227.617Y-20.855
X228.617Y-56.355
X228.617Y-60.244
X229.117Y-27.355
X229.217Y-38.805
X230.117Y-20.855
X230.333Y-23.531
X231.117Y-60.255
X231.667Y-48.705
X231.967Y-50.155
X232.617Y-20.845
X232.906Y-48.744
X232.967Y-32.555
X233.117Y-33.555
X233.267Y-50.855
X233.817Y-36.105
X233.917Y-44.505
X234.117Y-51.605
X234.117Y-60.255
X234.467Y-33.605
X234.667Y-32.555
X234.667Y-48.755
X235.117Y-20.855
X235.417Y-49.455
X236.617Y-60.255
X237.617Y-20.855
X239.117Y-60.244
X240.117Y-20.855
X240.874Y-53.122
X241.617Y-60.255
X242.617Y-20.845
X243.117Y-27.855
X243.667Y-37.355
X244.117Y-60.255
X244.267Y-44.555
X244.917Y-58.805
X245.117Y-20.855
X246.117Y-49.855
X246.617Y-60.255
X247.401Y-25.359
X247.617Y-20.855
X247.617Y-34.855
X249.117Y-60.244
X250.117Y-20.855
X251.617Y-60.255
X252.617Y-20.845
X252.761Y-54.011
X253.166Y-41.941
X254.617Y-60.255
X255.117Y-20.855
X255.617Y-23.855
X256.967Y-31.055
X257.117Y-20.855
X257.117Y-60.255
X257.817Y-33.355
X258.417Y-32.454
X258.417Y-48.605
X258.517Y-47.705
X258.917Y-30.355
X259.317Y-45.255
X259.367Y-35.505
X259.617Y-20.855
X259.617Y-29.605
X259.617Y-60.244
X259.967Y-47.755
X260.017Y-48.655
X260.09Y-32.454
X260.117Y-56.355
X261.117Y-26.855
X261.117Y-31.755
X262.117Y-20.855
X262.117Y-60.255
X264.617Y-20.845
X264.617Y-60.255
X267.117Y-20.855
X267.117Y-60.255
X267.188Y-54.265
X268.001Y-39.66
X269.617Y-20.855
X269.617Y-60.244
X271.07Y-46.989
X271.617Y-27.855
X272.067Y-24.355
X272.117Y-20.855
X272.117Y-50.855
X272.117Y-60.255
X274.117Y-34.855
X274.617Y-20.845
X274.617Y-60.255
X276.767Y-39.605
X277.117Y-20.855
X277.117Y-60.255
X277.317Y-58.505
X277.617Y-53.355
X279.617Y-20.855
X279.617Y-60.244
X280.117Y-45.855
X280.617Y-23.855
X282.117Y-20.855
X282.117Y-60.255
X284.617Y-20.845
X284.617Y-60.255
X285.4Y-25.486
X286.467Y-43.901
X287.117Y-20.855
X287.117Y-60.255
X289.117Y-20.855
X289.617Y-60.244
X291.117Y-57.355
X291.617Y-20.855
X292.117Y-27.355
X292.117Y-44.855
X292.117Y-60.255
X292.617Y-36.855
X293.617Y-51.355
X294.117Y-20.845
X294.617Y-60.255
X294.798Y-23.023
X295.467Y-31.055
X295.717Y-33.105
X296.367Y-48.655
X296.517Y-32.454
X296.617Y-20.855
X296.817Y-47.455
X297.017Y-30.355
X297.117Y-60.255
X297.367Y-35.655
X297.367Y-43.905
X297.667Y-29.655
X297.867Y-47.455
X298.117Y-32.454
X298.267Y-48.705
X298.607Y-23.355
X298.607Y-54.355
X298.617Y-20.855
X298.617Y-25.855
X298.617Y-28.355
X298.617Y-31.755
X298.617Y-51.855
X298.617Y-56.855
X298.617Y-59.355
T2
X131.132Y-54.819
X131.132Y-55.886
X132.199Y-54.819
X132.199Y-55.886
T3
X124.037Y-37.969
X124.037Y-39.969
X124.037Y-41.969
X124.037Y-43.969
X124.037Y-45.969
X124.037Y-47.969
X124.037Y-49.969
X124.037Y-51.969
T4
X122.346Y-21.616
X122.346Y-24.156
X124.886Y-21.616
X124.886Y-24.156
X127.426Y-21.616
X127.426Y-24.156
X129.966Y-21.616
X129.966Y-24.156
X132.506Y-21.616
X132.506Y-24.156
T5
X150.617Y-35.516
X150.65Y-26.516
X150.65Y-29.516
X150.65Y-32.516
X150.65Y-38.516
X153.65Y-27.516
X153.65Y-30.516
X153.65Y-33.516
X153.65Y-36.516
X153.65Y-39.516
X156.75Y-26.716
X210.817Y-54.805
X285.817Y-53.205
X285.917Y-34.905
T0
M30
