%TF.GenerationSoftware,KiCad,Pcbnew,7.0.1*%
%TF.CreationDate,2023-10-11T19:04:15-05:00*%
%TF.ProjectId,FLED_Board,464c4544-5f42-46f6-9172-642e6b696361,1*%
%TF.SameCoordinates,Original*%
%TF.FileFunction,Drillmap*%
%TF.FilePolarity,Positive*%
%FSLAX45Y45*%
G04 Gerber Fmt 4.5, Leading zero omitted, Abs format (unit mm)*
G04 Created by KiCad (PCBNEW 7.0.1) date 2023-10-11 19:04:15*
%MOMM*%
%LPD*%
G01*
G04 APERTURE LIST*
%ADD10C,0.100000*%
%ADD11C,0.200000*%
G04 APERTURE END LIST*
D10*
X29934500Y-2000000D02*
X29934500Y-6089400D01*
X12065500Y-2000000D02*
X12065500Y-2000000D01*
X29934500Y-6089400D02*
X12065500Y-6089400D01*
X12065500Y-2000000D02*
X29934500Y-2000000D01*
X12065500Y-6089400D02*
X12065500Y-2000000D01*
D11*
X12308119Y-6406924D02*
X12308119Y-6206924D01*
X12308119Y-6206924D02*
X12355738Y-6206924D01*
X12355738Y-6206924D02*
X12384309Y-6216448D01*
X12384309Y-6216448D02*
X12403357Y-6235495D01*
X12403357Y-6235495D02*
X12412881Y-6254543D01*
X12412881Y-6254543D02*
X12422405Y-6292638D01*
X12422405Y-6292638D02*
X12422405Y-6321209D01*
X12422405Y-6321209D02*
X12412881Y-6359305D01*
X12412881Y-6359305D02*
X12403357Y-6378352D01*
X12403357Y-6378352D02*
X12384309Y-6397400D01*
X12384309Y-6397400D02*
X12355738Y-6406924D01*
X12355738Y-6406924D02*
X12308119Y-6406924D01*
X12508119Y-6406924D02*
X12508119Y-6273590D01*
X12508119Y-6311686D02*
X12517643Y-6292638D01*
X12517643Y-6292638D02*
X12527167Y-6283114D01*
X12527167Y-6283114D02*
X12546214Y-6273590D01*
X12546214Y-6273590D02*
X12565262Y-6273590D01*
X12631928Y-6406924D02*
X12631928Y-6273590D01*
X12631928Y-6206924D02*
X12622405Y-6216448D01*
X12622405Y-6216448D02*
X12631928Y-6225971D01*
X12631928Y-6225971D02*
X12641452Y-6216448D01*
X12641452Y-6216448D02*
X12631928Y-6206924D01*
X12631928Y-6206924D02*
X12631928Y-6225971D01*
X12755738Y-6406924D02*
X12736690Y-6397400D01*
X12736690Y-6397400D02*
X12727167Y-6378352D01*
X12727167Y-6378352D02*
X12727167Y-6206924D01*
X12860500Y-6406924D02*
X12841452Y-6397400D01*
X12841452Y-6397400D02*
X12831928Y-6378352D01*
X12831928Y-6378352D02*
X12831928Y-6206924D01*
X13089071Y-6406924D02*
X13089071Y-6206924D01*
X13089071Y-6206924D02*
X13155738Y-6349781D01*
X13155738Y-6349781D02*
X13222405Y-6206924D01*
X13222405Y-6206924D02*
X13222405Y-6406924D01*
X13403357Y-6406924D02*
X13403357Y-6302162D01*
X13403357Y-6302162D02*
X13393833Y-6283114D01*
X13393833Y-6283114D02*
X13374786Y-6273590D01*
X13374786Y-6273590D02*
X13336690Y-6273590D01*
X13336690Y-6273590D02*
X13317643Y-6283114D01*
X13403357Y-6397400D02*
X13384309Y-6406924D01*
X13384309Y-6406924D02*
X13336690Y-6406924D01*
X13336690Y-6406924D02*
X13317643Y-6397400D01*
X13317643Y-6397400D02*
X13308119Y-6378352D01*
X13308119Y-6378352D02*
X13308119Y-6359305D01*
X13308119Y-6359305D02*
X13317643Y-6340257D01*
X13317643Y-6340257D02*
X13336690Y-6330733D01*
X13336690Y-6330733D02*
X13384309Y-6330733D01*
X13384309Y-6330733D02*
X13403357Y-6321209D01*
X13498595Y-6273590D02*
X13498595Y-6473590D01*
X13498595Y-6283114D02*
X13517643Y-6273590D01*
X13517643Y-6273590D02*
X13555738Y-6273590D01*
X13555738Y-6273590D02*
X13574786Y-6283114D01*
X13574786Y-6283114D02*
X13584309Y-6292638D01*
X13584309Y-6292638D02*
X13593833Y-6311686D01*
X13593833Y-6311686D02*
X13593833Y-6368828D01*
X13593833Y-6368828D02*
X13584309Y-6387876D01*
X13584309Y-6387876D02*
X13574786Y-6397400D01*
X13574786Y-6397400D02*
X13555738Y-6406924D01*
X13555738Y-6406924D02*
X13517643Y-6406924D01*
X13517643Y-6406924D02*
X13498595Y-6397400D01*
X13679548Y-6387876D02*
X13689071Y-6397400D01*
X13689071Y-6397400D02*
X13679548Y-6406924D01*
X13679548Y-6406924D02*
X13670024Y-6397400D01*
X13670024Y-6397400D02*
X13679548Y-6387876D01*
X13679548Y-6387876D02*
X13679548Y-6406924D01*
X13679548Y-6283114D02*
X13689071Y-6292638D01*
X13689071Y-6292638D02*
X13679548Y-6302162D01*
X13679548Y-6302162D02*
X13670024Y-6292638D01*
X13670024Y-6292638D02*
X13679548Y-6283114D01*
X13679548Y-6283114D02*
X13679548Y-6302162D01*
M02*
