G04 #@! TF.GenerationSoftware,KiCad,Pcbnew,7.0.1*
G04 #@! TF.CreationDate,2023-10-11T19:04:08-05:00*
G04 #@! TF.ProjectId,FLED_Board,464c4544-5f42-46f6-9172-642e6b696361,1*
G04 #@! TF.SameCoordinates,Original*
G04 #@! TF.FileFunction,Copper,L6,Bot*
G04 #@! TF.FilePolarity,Positive*
%FSLAX46Y46*%
G04 Gerber Fmt 4.6, Leading zero omitted, Abs format (unit mm)*
G04 Created by KiCad (PCBNEW 7.0.1) date 2023-10-11 19:04:08*
%MOMM*%
%LPD*%
G01*
G04 APERTURE LIST*
G04 #@! TA.AperFunction,ComponentPad*
%ADD10C,2.250000*%
G04 #@! TD*
G04 #@! TA.AperFunction,ComponentPad*
%ADD11C,0.500000*%
G04 #@! TD*
G04 #@! TA.AperFunction,SMDPad,CuDef*
%ADD12R,1.700000X1.700000*%
G04 #@! TD*
G04 #@! TA.AperFunction,ComponentPad*
%ADD13R,1.700000X1.700000*%
G04 #@! TD*
G04 #@! TA.AperFunction,ComponentPad*
%ADD14O,1.700000X1.700000*%
G04 #@! TD*
G04 #@! TA.AperFunction,SMDPad,CuDef*
%ADD15C,1.000000*%
G04 #@! TD*
G04 #@! TA.AperFunction,ComponentPad*
%ADD16C,1.300000*%
G04 #@! TD*
G04 #@! TA.AperFunction,ViaPad*
%ADD17C,0.500000*%
G04 #@! TD*
G04 #@! TA.AperFunction,Conductor*
%ADD18C,0.130000*%
G04 #@! TD*
G04 #@! TA.AperFunction,Conductor*
%ADD19C,0.200000*%
G04 #@! TD*
G04 #@! TA.AperFunction,Conductor*
%ADD20C,0.400000*%
G04 #@! TD*
G04 #@! TA.AperFunction,Conductor*
%ADD21C,0.500000*%
G04 #@! TD*
G04 APERTURE END LIST*
D10*
X156750000Y-26715600D03*
X153650000Y-36515600D03*
X153650000Y-30515600D03*
D11*
X131131800Y-54819400D03*
X131131800Y-55886200D03*
D12*
X131680600Y-55356200D03*
D11*
X132198600Y-54819400D03*
X132198600Y-55886200D03*
D10*
X153650000Y-27515600D03*
X285817200Y-53205000D03*
X153650000Y-33515600D03*
X210817200Y-54805000D03*
X150650000Y-32515600D03*
D13*
X122346000Y-24156000D03*
D14*
X122346000Y-21616000D03*
X124886000Y-24156000D03*
X124886000Y-21616000D03*
X127426000Y-24156000D03*
X127426000Y-21616000D03*
X129966000Y-24156000D03*
X129966000Y-21616000D03*
X132506000Y-24156000D03*
X132506000Y-21616000D03*
D10*
X285917200Y-34905000D03*
X150650000Y-26515600D03*
X153650000Y-39515600D03*
X150617400Y-35515600D03*
X150650000Y-29515600D03*
X150650000Y-38515600D03*
D15*
X133533200Y-43053600D03*
D16*
X124037200Y-51969200D03*
X124037200Y-49969200D03*
X124037200Y-47969200D03*
X124037200Y-45969200D03*
X124037200Y-43969200D03*
X124037200Y-41969200D03*
X124037200Y-39969200D03*
X124037200Y-37969200D03*
D15*
X129661200Y-46355600D03*
D17*
X125989400Y-34884400D03*
X126726000Y-26654800D03*
X125989400Y-36230600D03*
X127589600Y-28153400D03*
X122992200Y-44968200D03*
X139273600Y-21117600D03*
X125583000Y-54036000D03*
X128021400Y-26096000D03*
X209267200Y-52705000D03*
X234667200Y-48755500D03*
X210117200Y-32605000D03*
X234117200Y-51605000D03*
X210617200Y-51605000D03*
X209167200Y-48805000D03*
X136767200Y-59305000D03*
X234467200Y-33605000D03*
X213267200Y-48755500D03*
X233117200Y-33555000D03*
X211817200Y-32655000D03*
X232906007Y-48743807D03*
X210102700Y-50858743D03*
X233267200Y-50855000D03*
X213267200Y-50855000D03*
X136367200Y-58605000D03*
X135417200Y-57755000D03*
X231967200Y-50155000D03*
X212017200Y-50155000D03*
X211567200Y-33755000D03*
X232967200Y-32555000D03*
X231667200Y-48705000D03*
X211267200Y-47405000D03*
X210267200Y-33605000D03*
X234667200Y-32555000D03*
X211417200Y-49455000D03*
X134617200Y-57055000D03*
X235417200Y-49455000D03*
X189552700Y-47054500D03*
X175367200Y-47055000D03*
X189767200Y-32605000D03*
X173617200Y-32605000D03*
X136517200Y-56255000D03*
X175367200Y-44255500D03*
X189167200Y-44255500D03*
X190917200Y-47055000D03*
X172467200Y-47055000D03*
X173167200Y-46355000D03*
X173467200Y-44255500D03*
X192117200Y-46355000D03*
X173442200Y-33580000D03*
X191367200Y-32605000D03*
X135592200Y-55630000D03*
X191067700Y-33705000D03*
X188517200Y-45655000D03*
X172167200Y-44255500D03*
X134767200Y-54905000D03*
X174417200Y-45655000D03*
X172467200Y-45654500D03*
X172117200Y-33605000D03*
X190017200Y-33705000D03*
X190167200Y-44955000D03*
X133867200Y-54205000D03*
X171167200Y-44955000D03*
X171967200Y-32605000D03*
X260017200Y-48655000D03*
X298617200Y-31755000D03*
X261117200Y-31755000D03*
X134267200Y-53355000D03*
X298267200Y-48705000D03*
X295467200Y-31055000D03*
X133617200Y-52655000D03*
X258417200Y-48605000D03*
X296367200Y-48655000D03*
X295717200Y-33105000D03*
X256967200Y-31055000D03*
X257817200Y-33355000D03*
X258917200Y-30355000D03*
X258517200Y-47705000D03*
X297017200Y-30355000D03*
X258417200Y-32454500D03*
X296817200Y-47455000D03*
X296517200Y-32454500D03*
X132967200Y-51955000D03*
X259967200Y-47755000D03*
X298117200Y-32454500D03*
X259617200Y-29605000D03*
X132317200Y-51255000D03*
X297867200Y-47455000D03*
X297667200Y-29655000D03*
X260090087Y-32454500D03*
X144023400Y-37195800D03*
X142931200Y-36729400D03*
X142317200Y-35960600D03*
X142575600Y-35103800D03*
X142778800Y-34046200D03*
X133584000Y-42174200D03*
X143058200Y-29652000D03*
X142067600Y-30414400D03*
X142728000Y-31180000D03*
X142676800Y-32065400D03*
X143515400Y-32700400D03*
X213117200Y-20844500D03*
X292117200Y-27355000D03*
X191617200Y-26355000D03*
X139667200Y-49205000D03*
X167117200Y-60244500D03*
X236617200Y-60255000D03*
X244117200Y-60255000D03*
X164699000Y-29652000D03*
X212617200Y-23355000D03*
X136617200Y-41455000D03*
X280117200Y-45855000D03*
X221417200Y-58355000D03*
X242617200Y-20844500D03*
X259367200Y-35505000D03*
X157117200Y-60244500D03*
X185117200Y-60255000D03*
X134523800Y-25816600D03*
X284617200Y-60255000D03*
X126192600Y-22971800D03*
X144582200Y-30058400D03*
X255617200Y-23855000D03*
X240117200Y-20855000D03*
X253166326Y-41940839D03*
X221117200Y-60255000D03*
X220617200Y-20855000D03*
X269617200Y-60244500D03*
X193117200Y-60255000D03*
X123601800Y-33004800D03*
X147917200Y-38305000D03*
X147367200Y-60255000D03*
X143167200Y-22055000D03*
X191117200Y-20855000D03*
X293617200Y-51355000D03*
X129621600Y-42352000D03*
X208117200Y-60244500D03*
X296617200Y-20855000D03*
X246617200Y-60255000D03*
X175117200Y-60255000D03*
X128758000Y-60081200D03*
X182817200Y-41305000D03*
X291117200Y-57355000D03*
X129164400Y-58557200D03*
X203117200Y-20844500D03*
X147417200Y-20555000D03*
X190417200Y-41755000D03*
X141517200Y-41055000D03*
X184617200Y-52655000D03*
X125684600Y-57287200D03*
X163911600Y-44714200D03*
X147579400Y-49667200D03*
X216117200Y-60255000D03*
X122865200Y-49006800D03*
X198117200Y-20855000D03*
X210967200Y-43805000D03*
X154617200Y-60255000D03*
X268000800Y-39659600D03*
X180117200Y-60255000D03*
X121239600Y-49743400D03*
X259617200Y-60244500D03*
X135971600Y-27061200D03*
X121214200Y-47787600D03*
X218517200Y-37555000D03*
X244267200Y-44555000D03*
X147528600Y-46238200D03*
X205117200Y-37855000D03*
X129723200Y-49946600D03*
X143167200Y-20555000D03*
X126395800Y-60055800D03*
X257117200Y-60255000D03*
X140067200Y-44455000D03*
X277117200Y-60255000D03*
X159617200Y-60255000D03*
X252617200Y-20844500D03*
X255117200Y-20855000D03*
X245117200Y-20855000D03*
X210617200Y-60255000D03*
X220117200Y-24655000D03*
X146267200Y-38405000D03*
X132999800Y-35265400D03*
X197967200Y-35055000D03*
X298606699Y-23355000D03*
X289617200Y-60244500D03*
X164617200Y-60255000D03*
X166117200Y-20855000D03*
X168467200Y-40505000D03*
X267117200Y-60255000D03*
X131272600Y-47609800D03*
X277317200Y-58505000D03*
X228617200Y-56355000D03*
X131450400Y-35214600D03*
X122052400Y-30566400D03*
X232617200Y-20844500D03*
X259317200Y-45255000D03*
X171117200Y-20855000D03*
X274617200Y-60255000D03*
X190367200Y-36205000D03*
X162117200Y-60255000D03*
X292117200Y-60255000D03*
X233917200Y-44505000D03*
X130713800Y-60081200D03*
X135743000Y-22057400D03*
X208117200Y-20855000D03*
X234117200Y-60255000D03*
X123957400Y-60081200D03*
X298617200Y-25855000D03*
X241617200Y-60255000D03*
X121417400Y-55610800D03*
X196117200Y-20855000D03*
X205617200Y-60255000D03*
X173267200Y-36355000D03*
X181117200Y-20855000D03*
X172617200Y-60255000D03*
X254617200Y-60255000D03*
X122738200Y-35900400D03*
X146067200Y-22155000D03*
X251617200Y-60255000D03*
X131475800Y-36764000D03*
X291617200Y-20855000D03*
X294797800Y-23022600D03*
X141417200Y-34555000D03*
X226117200Y-60255000D03*
X262117200Y-20855000D03*
X298617200Y-51855000D03*
X297367200Y-43905000D03*
X246117200Y-49855000D03*
X136428800Y-38389600D03*
X161117200Y-20855000D03*
X292617200Y-36855000D03*
X202617200Y-27355000D03*
X298617200Y-59355000D03*
X211617200Y-27355000D03*
X195117200Y-40355000D03*
X121214200Y-46466800D03*
X257117200Y-20855000D03*
X134168200Y-22895600D03*
X139117200Y-36976900D03*
X123500200Y-28788400D03*
X132117200Y-41455000D03*
X127234000Y-36611600D03*
X135617200Y-60255000D03*
X182617200Y-60255000D03*
X133101400Y-36814800D03*
X228617200Y-60244500D03*
X264617200Y-20844500D03*
X172827000Y-22946400D03*
X264617200Y-60255000D03*
X252760800Y-54010600D03*
X239117200Y-60244500D03*
X279617200Y-20855000D03*
X202037000Y-23708400D03*
X262117200Y-60255000D03*
X127132400Y-54086800D03*
X282117200Y-20855000D03*
X272067200Y-24355000D03*
X223617200Y-60255000D03*
X200617200Y-60255000D03*
X139517200Y-60255000D03*
X294617200Y-60255000D03*
X211017200Y-36505000D03*
X123525600Y-56449000D03*
X223117200Y-20844500D03*
X276767200Y-39605000D03*
X173167200Y-40555000D03*
X121620600Y-57769800D03*
X167086600Y-23860800D03*
X168617200Y-20855000D03*
X183617200Y-20844500D03*
X200617200Y-20855000D03*
X130817200Y-51055000D03*
X135057200Y-31176000D03*
X134066600Y-47152600D03*
X140767200Y-20655000D03*
X225617200Y-20855000D03*
X198117200Y-60244500D03*
X124059000Y-53629600D03*
X205617200Y-20855000D03*
X186117200Y-26855000D03*
X247617200Y-34855000D03*
X123601800Y-58430200D03*
X195617200Y-60255000D03*
X173617200Y-20844500D03*
X218117200Y-20855000D03*
X215617200Y-20855000D03*
X229217200Y-38805000D03*
X144667200Y-48955000D03*
X156617200Y-40855000D03*
X231117200Y-60255000D03*
X125862400Y-38592800D03*
X250117200Y-20855000D03*
X280617200Y-23855000D03*
X287117200Y-60255000D03*
X237617200Y-20855000D03*
X274117200Y-34855000D03*
X298617200Y-20855000D03*
X210617200Y-20855000D03*
X272117200Y-20855000D03*
X286466600Y-43901400D03*
X121849200Y-60081200D03*
X277617200Y-53355000D03*
X180367200Y-35905000D03*
X298617200Y-28355000D03*
X152117200Y-60255000D03*
X247617200Y-20855000D03*
X197524597Y-51721144D03*
X188617200Y-20855000D03*
X125735400Y-30464800D03*
X124795600Y-33868400D03*
X147655600Y-40599400D03*
X271617200Y-27855000D03*
X243667200Y-37355000D03*
X125202000Y-27442200D03*
X140061000Y-28483600D03*
X176117200Y-20855000D03*
X129443800Y-29055000D03*
X298617200Y-56855000D03*
X240873600Y-53121600D03*
X137597200Y-29677400D03*
X223117200Y-44805000D03*
X127970600Y-57261800D03*
X213617200Y-60255000D03*
X218117200Y-54355000D03*
X144633000Y-34833600D03*
X144817200Y-45855000D03*
X144067200Y-38305000D03*
X202117200Y-48855000D03*
X271070445Y-46988674D03*
X279617200Y-60244500D03*
X151117200Y-43355000D03*
X249117200Y-60244500D03*
X267117200Y-20855000D03*
X243117200Y-27855000D03*
X192617200Y-52355000D03*
X141717200Y-38355000D03*
X233817200Y-36105000D03*
X227617200Y-20855000D03*
X287117200Y-20855000D03*
X161617200Y-34855000D03*
X146817200Y-42605000D03*
X274617200Y-20844500D03*
X135417200Y-41455000D03*
X230332600Y-23530600D03*
X272117200Y-60255000D03*
X139117200Y-33755000D03*
X230117200Y-20855000D03*
X267188000Y-54264600D03*
X132593400Y-27442200D03*
X121239600Y-52969200D03*
X186617200Y-35355000D03*
X141417200Y-36155000D03*
X190117200Y-60255000D03*
X297117200Y-60255000D03*
X141356400Y-27670800D03*
X131272600Y-32649200D03*
X187617200Y-60244500D03*
X143617200Y-60305000D03*
X294117200Y-20844500D03*
X218617200Y-60244500D03*
X289117200Y-20855000D03*
X131577400Y-44231600D03*
X134317200Y-41455000D03*
X139767200Y-38355000D03*
X133117200Y-41455000D03*
X282117200Y-60255000D03*
X272117200Y-50855000D03*
X172217200Y-53755000D03*
X132796600Y-60055800D03*
X235117200Y-20855000D03*
X177617200Y-60244500D03*
X181167200Y-24805000D03*
X244917200Y-58805000D03*
X285399800Y-25486400D03*
X143617200Y-24855000D03*
X127284800Y-46441400D03*
X277117200Y-20855000D03*
X159617200Y-30355000D03*
X284617200Y-20844500D03*
X162117200Y-25855000D03*
X128021400Y-48498800D03*
X121265000Y-51648400D03*
X269617200Y-20855000D03*
X297367200Y-35655000D03*
X259617200Y-20855000D03*
X261117200Y-26855000D03*
X178617200Y-20855000D03*
X138817200Y-35155000D03*
X203117200Y-60255000D03*
X298606699Y-54355000D03*
X186117200Y-20855000D03*
X169617200Y-60255000D03*
X229117200Y-27355000D03*
X260117200Y-56355000D03*
X247401400Y-25359400D03*
X159067200Y-50255000D03*
X138181400Y-38186400D03*
X177117200Y-51855000D03*
X128275400Y-40548600D03*
X163617200Y-20844500D03*
X193617200Y-20844500D03*
X122865200Y-26985000D03*
X200767200Y-43555000D03*
X126954600Y-33309600D03*
X292117200Y-44855000D03*
X129189800Y-45323800D03*
D18*
X125989400Y-36230600D02*
X125989400Y-34884400D01*
D19*
X127589600Y-27518400D02*
X126726000Y-26654800D01*
X127589600Y-28153400D02*
X127589600Y-27518400D01*
D20*
X135184200Y-20939800D02*
X134295200Y-20939800D01*
D19*
X121163400Y-40142200D02*
X121239600Y-40066000D01*
X121151200Y-26312400D02*
X121151200Y-21126058D01*
D20*
X139248200Y-21092200D02*
X135336600Y-21092200D01*
X121239600Y-26400800D02*
X121163400Y-26324600D01*
D18*
X121724800Y-20454600D02*
X133660200Y-20454600D01*
D20*
X139273600Y-21117600D02*
X139248200Y-21092200D01*
D19*
X121163400Y-44434800D02*
X121163400Y-40142200D01*
D18*
X133810000Y-20454600D02*
X133660200Y-20454600D01*
X122992200Y-44968200D02*
X122458800Y-44434800D01*
D20*
X134295200Y-20939800D02*
X134015800Y-20660400D01*
X121239600Y-40066000D02*
X121239600Y-26400800D01*
D18*
X122458800Y-44434800D02*
X121163400Y-44434800D01*
D19*
X121163400Y-26324600D02*
X121151200Y-26312400D01*
D18*
X121151200Y-21126058D02*
X121151200Y-21028200D01*
X121151200Y-21028200D02*
X121724800Y-20454600D01*
X134015800Y-20660400D02*
X133810000Y-20454600D01*
D20*
X135336600Y-21092200D02*
X135184200Y-20939800D01*
D19*
X125583000Y-54036000D02*
X125125800Y-53578800D01*
X125125800Y-53578800D02*
X125125800Y-45057800D01*
X125125800Y-45057800D02*
X124037200Y-43969200D01*
X128046800Y-26096000D02*
X129977200Y-24165600D01*
X128021400Y-26096000D02*
X128046800Y-26096000D01*
D21*
X202667200Y-59305000D02*
X209267200Y-52705000D01*
D18*
X234467200Y-33605000D02*
X235217200Y-34355000D01*
X234667200Y-47605000D02*
X234667200Y-48755500D01*
D21*
X234067200Y-51555000D02*
X234117200Y-51605000D01*
X210417200Y-51555000D02*
X234067200Y-51555000D01*
D18*
X235217200Y-34355000D02*
X235217200Y-47055000D01*
X235217200Y-47055000D02*
X234667200Y-47605000D01*
D21*
X209267200Y-52705000D02*
X210417200Y-51555000D01*
X136767200Y-59305000D02*
X202667200Y-59305000D01*
D18*
X210117200Y-32605000D02*
X209167200Y-33555000D01*
X209167200Y-33555000D02*
X209167200Y-48805000D01*
X213267200Y-34105000D02*
X213267200Y-48755500D01*
X233117200Y-33555000D02*
X232367200Y-34305000D01*
X232867200Y-47555000D02*
X232867200Y-48705000D01*
X232867200Y-48705000D02*
X232906007Y-48743807D01*
X232367200Y-47055000D02*
X232867200Y-47555000D01*
D21*
X210107150Y-50855000D02*
X233267200Y-50855000D01*
D18*
X232367200Y-34305000D02*
X232367200Y-47055000D01*
X211817200Y-32655000D02*
X213267200Y-34105000D01*
D21*
X202357150Y-58605000D02*
X210107150Y-50855000D01*
X136367200Y-58605000D02*
X202357150Y-58605000D01*
D18*
X212467200Y-34655000D02*
X212467200Y-46205000D01*
X212467200Y-46205000D02*
X211267200Y-47405000D01*
D21*
X135417200Y-57755000D02*
X202217200Y-57755000D01*
X202217200Y-57755000D02*
X209817200Y-50155000D01*
X209817200Y-50155000D02*
X231967200Y-50155000D01*
D18*
X231667200Y-33855000D02*
X231667200Y-48705000D01*
X232967200Y-32555000D02*
X231667200Y-33855000D01*
X211567200Y-33755000D02*
X212467200Y-34655000D01*
D21*
X209767200Y-49455000D02*
X235417200Y-49455000D01*
D18*
X209717200Y-47705000D02*
X209767200Y-47755000D01*
X234667200Y-32555000D02*
X235967200Y-33855000D01*
X235967200Y-48905000D02*
X235417200Y-49455000D01*
X235967200Y-33855000D02*
X235967200Y-48905000D01*
X209717200Y-34155000D02*
X209717200Y-47705000D01*
X209767200Y-47755000D02*
X209767200Y-49455000D01*
X210267200Y-33605000D02*
X209717200Y-34155000D01*
D21*
X201917200Y-57055000D02*
X209517200Y-49455000D01*
X209517200Y-49455000D02*
X209767200Y-49455000D01*
X134617200Y-57055000D02*
X201917200Y-57055000D01*
D18*
X189167200Y-33205000D02*
X189167200Y-44255500D01*
D21*
X171417200Y-47055000D02*
X190917200Y-47055000D01*
X136517200Y-56255000D02*
X162217200Y-56255000D01*
D18*
X175367200Y-34355000D02*
X175367200Y-44255500D01*
X189767200Y-32605000D02*
X189167200Y-33205000D01*
X173617200Y-32605000D02*
X175367200Y-34355000D01*
D21*
X162217200Y-56255000D02*
X171417200Y-47055000D01*
D18*
X191582200Y-32820000D02*
X191582200Y-45820000D01*
X174667200Y-43055500D02*
X173467200Y-44255500D01*
X191367200Y-32605000D02*
X191582200Y-32820000D01*
D21*
X135592200Y-55630000D02*
X135667200Y-55555000D01*
D18*
X191582200Y-45820000D02*
X192217200Y-46455000D01*
D21*
X161927250Y-55555000D02*
X171127251Y-46355000D01*
X135667200Y-55555000D02*
X161927250Y-55555000D01*
X171127251Y-46355000D02*
X192117200Y-46355000D01*
D18*
X174667200Y-34805000D02*
X174667200Y-43055500D01*
X173442200Y-33580000D02*
X174667200Y-34805000D01*
X172117200Y-33605000D02*
X171767200Y-33955000D01*
X171767200Y-43855500D02*
X172167200Y-44255500D01*
D21*
X170837302Y-45655000D02*
X190917200Y-45655000D01*
D18*
X191217200Y-33854500D02*
X191217200Y-45355000D01*
X191217200Y-45355000D02*
X190917200Y-45655000D01*
D21*
X161637300Y-54855000D02*
X170837302Y-45655000D01*
X134767200Y-54905000D02*
X134817200Y-54855000D01*
X134817200Y-54855000D02*
X161637300Y-54855000D01*
D18*
X171767200Y-33955000D02*
X171767200Y-43855500D01*
X191067700Y-33705000D02*
X191217200Y-33854500D01*
X171967200Y-32605000D02*
X171167200Y-33405000D01*
X190167200Y-44527180D02*
X190167200Y-44955000D01*
D21*
X161347350Y-54155000D02*
X170547353Y-44955000D01*
X133917200Y-54155000D02*
X161347350Y-54155000D01*
D18*
X171167200Y-33405000D02*
X171167200Y-44955000D01*
X189567200Y-34155000D02*
X189567200Y-43927180D01*
X189567200Y-43927180D02*
X190167200Y-44527180D01*
X190017200Y-33705000D02*
X189567200Y-34155000D01*
D21*
X133867200Y-54205000D02*
X133917200Y-54155000D01*
X170547353Y-44955000D02*
X190167200Y-44955000D01*
D18*
X261117200Y-47555000D02*
X261117200Y-31755000D01*
D21*
X171617200Y-31755000D02*
X150017200Y-53355000D01*
D18*
X298267200Y-48705000D02*
X298867200Y-48105000D01*
D21*
X298617200Y-31755000D02*
X171617200Y-31755000D01*
D18*
X260017200Y-48655000D02*
X261117200Y-47555000D01*
X298867200Y-32055000D02*
X298617200Y-31805000D01*
X298867200Y-48105000D02*
X298867200Y-32055000D01*
D21*
X150017200Y-53355000D02*
X134267200Y-53355000D01*
D18*
X298617200Y-31805000D02*
X298617200Y-31755000D01*
X257817200Y-48005000D02*
X257817200Y-33355000D01*
D21*
X171327250Y-31055000D02*
X295467200Y-31055000D01*
X133617200Y-52655000D02*
X149727250Y-52655000D01*
D18*
X296603880Y-47970000D02*
X295717200Y-47083320D01*
X295717200Y-47083320D02*
X295717200Y-33105000D01*
X258417200Y-48605000D02*
X257817200Y-48005000D01*
X297052200Y-47970000D02*
X296603880Y-47970000D01*
X296367200Y-48655000D02*
X297052200Y-47970000D01*
D21*
X149727250Y-52655000D02*
X171327250Y-31055000D01*
D18*
X296217200Y-32876680D02*
X296232200Y-32891680D01*
X258317200Y-47505000D02*
X258317200Y-33583320D01*
D21*
X149437300Y-51955000D02*
X171037301Y-30355000D01*
D18*
X296232200Y-32891680D02*
X296232200Y-33318320D01*
D21*
X132967200Y-51955000D02*
X149437300Y-51955000D01*
D18*
X258517200Y-47705000D02*
X258317200Y-47505000D01*
X296217200Y-33333320D02*
X296217200Y-46855000D01*
X296217200Y-46855000D02*
X296817200Y-47455000D01*
D21*
X171037301Y-30355000D02*
X297017200Y-30355000D01*
D18*
X258317200Y-33583320D02*
X258417200Y-33483320D01*
X296217200Y-32754500D02*
X296217200Y-32876680D01*
X296232200Y-33318320D02*
X296217200Y-33333320D01*
X296517200Y-32454500D02*
X296217200Y-32754500D01*
X258417200Y-33483320D02*
X258417200Y-32454500D01*
X298467200Y-46855000D02*
X297867200Y-47455000D01*
X260467200Y-32983320D02*
X260377200Y-32893320D01*
X260377200Y-32893320D02*
X260377200Y-32741613D01*
X298117200Y-32454500D02*
X298117700Y-32455000D01*
X260377200Y-32741613D02*
X260090087Y-32454500D01*
D21*
X149147350Y-51255000D02*
X170747352Y-29655000D01*
D18*
X259967200Y-47755000D02*
X260467200Y-47255000D01*
D21*
X132317200Y-51255000D02*
X149147350Y-51255000D01*
D18*
X298117700Y-32455000D02*
X298467200Y-32455000D01*
X298467200Y-32455000D02*
X298467200Y-46855000D01*
D21*
X170747352Y-29655000D02*
X297667200Y-29655000D01*
D18*
X260467200Y-47255000D02*
X260467200Y-32983320D01*
X153230600Y-39935000D02*
X153650000Y-39515600D01*
X148667200Y-37785000D02*
X148667200Y-38635000D01*
X148078000Y-37195800D02*
X148667200Y-37785000D01*
X144023400Y-37195800D02*
X148078000Y-37195800D01*
X148667200Y-38635000D02*
X149967200Y-39935000D01*
X149967200Y-39935000D02*
X153230600Y-39935000D01*
X150377800Y-38515600D02*
X150650000Y-38515600D01*
X142931200Y-36729400D02*
X142979800Y-36680800D01*
X148543000Y-36680800D02*
X150377800Y-38515600D01*
X142979800Y-36680800D02*
X148543000Y-36680800D01*
X153190600Y-36975000D02*
X153650000Y-36515600D01*
X148962800Y-35960600D02*
X149977200Y-36975000D01*
X149977200Y-36975000D02*
X153190600Y-36975000D01*
X142317200Y-35960600D02*
X148962800Y-35960600D01*
X142820400Y-35348600D02*
X150450400Y-35348600D01*
X150450400Y-35348600D02*
X150617400Y-35515600D01*
X142575600Y-35103800D02*
X142820400Y-35348600D01*
X142778800Y-34046200D02*
X153119400Y-34046200D01*
X153119400Y-34046200D02*
X153650000Y-33515600D01*
X130637600Y-42174200D02*
X130028000Y-41564600D01*
X130028000Y-41564600D02*
X124441800Y-41564600D01*
X133584000Y-42174200D02*
X133584000Y-43002800D01*
X124441800Y-41564600D02*
X124037200Y-41969200D01*
X133533200Y-43053600D02*
X133533200Y-43266400D01*
X133584000Y-43002800D02*
X133533200Y-43053600D01*
X133584000Y-42174200D02*
X130637600Y-42174200D01*
X143058200Y-29652000D02*
X146194600Y-26515600D01*
X146194600Y-26515600D02*
X150650000Y-26515600D01*
X143497880Y-30414400D02*
X145897280Y-28015000D01*
X142067600Y-30414400D02*
X143497880Y-30414400D01*
X153150600Y-28015000D02*
X153650000Y-27515600D01*
X145897280Y-28015000D02*
X153150600Y-28015000D01*
X148126600Y-29515600D02*
X150650000Y-29515600D01*
X142728000Y-31180000D02*
X146462200Y-31180000D01*
X146462200Y-31180000D02*
X148126600Y-29515600D01*
X153130600Y-31035000D02*
X153650000Y-30515600D01*
X148897200Y-31035000D02*
X153130600Y-31035000D01*
X142676800Y-32065400D02*
X147866800Y-32065400D01*
X147866800Y-32065400D02*
X148897200Y-31035000D01*
X143530800Y-32685000D02*
X150480600Y-32685000D01*
X150480600Y-32685000D02*
X150650000Y-32515600D01*
X143515400Y-32700400D02*
X143530800Y-32685000D01*
X129189800Y-45884200D02*
X129661200Y-46355600D01*
X129189800Y-45323800D02*
X129189800Y-45884200D01*
G04 #@! TA.AperFunction,Conductor*
G36*
X148242945Y-20312363D02*
G01*
X148270247Y-20344148D01*
X148275911Y-20385665D01*
X148258120Y-20423602D01*
X141771864Y-27736779D01*
X141750685Y-27753309D01*
X138105195Y-29652002D01*
X135199481Y-31471232D01*
X135166233Y-31482266D01*
X131450400Y-31785600D01*
X131374199Y-33309599D01*
X131374200Y-33309599D01*
X131374200Y-33309600D01*
X131717200Y-33319062D01*
X131717200Y-34055000D01*
X133917200Y-36755000D01*
X135057200Y-36755000D01*
X135057200Y-37399000D01*
X136669905Y-37474595D01*
X136694730Y-37480136D01*
X138156000Y-38084800D01*
X148042397Y-37955974D01*
X148079755Y-37965537D01*
X148107231Y-37992599D01*
X148117359Y-38029810D01*
X148144439Y-50730342D01*
X148134577Y-50767409D01*
X148107485Y-50794560D01*
X148070439Y-50804500D01*
X132252428Y-50804500D01*
X132224547Y-50812685D01*
X132214735Y-50814854D01*
X132182911Y-50819651D01*
X132160382Y-50830501D01*
X132149125Y-50834831D01*
X132128130Y-50840995D01*
X132100669Y-50858643D01*
X132092773Y-50863060D01*
X132060557Y-50878575D01*
X132044860Y-50893139D01*
X132034545Y-50901138D01*
X132019151Y-50911033D01*
X132019148Y-50911035D01*
X131995436Y-50938400D01*
X131989846Y-50944183D01*
X131961006Y-50970943D01*
X131952091Y-50986383D01*
X131943937Y-50997833D01*
X131934319Y-51008934D01*
X131917788Y-51045129D01*
X131914563Y-51051384D01*
X131893102Y-51088556D01*
X131889939Y-51102417D01*
X131885108Y-51116688D01*
X131880503Y-51126771D01*
X131874331Y-51169696D01*
X131873229Y-51175629D01*
X131862884Y-51220955D01*
X131863677Y-51231540D01*
X131863132Y-51247588D01*
X131862067Y-51255000D01*
X131868745Y-51301461D01*
X131869291Y-51306456D01*
X131873034Y-51356378D01*
X131875590Y-51362891D01*
X131879951Y-51379390D01*
X131880502Y-51383226D01*
X131901483Y-51429169D01*
X131903054Y-51432872D01*
X131922646Y-51482792D01*
X131924758Y-51485440D01*
X131934213Y-51500834D01*
X131934316Y-51501060D01*
X131934317Y-51501061D01*
X131934318Y-51501063D01*
X131969744Y-51541947D01*
X131971653Y-51544245D01*
X132007435Y-51589114D01*
X132016808Y-51597461D01*
X132067639Y-51630128D01*
X132069318Y-51631240D01*
X132122114Y-51667237D01*
X132128130Y-51669003D01*
X132128131Y-51669004D01*
X132186886Y-51686255D01*
X132187794Y-51686529D01*
X132249298Y-51705500D01*
X132252428Y-51705500D01*
X132469267Y-51705500D01*
X132510953Y-51718358D01*
X132538152Y-51752465D01*
X132541412Y-51795967D01*
X132539940Y-51802416D01*
X132535108Y-51816688D01*
X132530503Y-51826771D01*
X132524331Y-51869696D01*
X132523229Y-51875629D01*
X132512884Y-51920955D01*
X132513677Y-51931540D01*
X132513132Y-51947588D01*
X132512067Y-51955000D01*
X132518745Y-52001461D01*
X132519291Y-52006456D01*
X132523034Y-52056378D01*
X132525590Y-52062891D01*
X132529951Y-52079390D01*
X132530502Y-52083226D01*
X132551483Y-52129169D01*
X132553054Y-52132872D01*
X132572646Y-52182792D01*
X132574758Y-52185440D01*
X132584213Y-52200834D01*
X132584316Y-52201060D01*
X132584317Y-52201061D01*
X132584318Y-52201063D01*
X132619744Y-52241947D01*
X132621653Y-52244245D01*
X132657435Y-52289114D01*
X132666808Y-52297461D01*
X132717639Y-52330128D01*
X132719318Y-52331240D01*
X132772114Y-52367237D01*
X132778130Y-52369003D01*
X132778131Y-52369004D01*
X132836886Y-52386255D01*
X132837794Y-52386529D01*
X132899298Y-52405500D01*
X132902428Y-52405500D01*
X133119267Y-52405500D01*
X133160953Y-52418358D01*
X133188152Y-52452465D01*
X133191412Y-52495967D01*
X133189940Y-52502416D01*
X133185108Y-52516688D01*
X133180503Y-52526771D01*
X133174331Y-52569696D01*
X133173229Y-52575629D01*
X133162884Y-52620955D01*
X133163677Y-52631540D01*
X133163132Y-52647588D01*
X133162067Y-52655000D01*
X133168745Y-52701461D01*
X133169291Y-52706456D01*
X133173034Y-52756378D01*
X133175590Y-52762891D01*
X133179951Y-52779390D01*
X133180502Y-52783226D01*
X133201483Y-52829169D01*
X133203054Y-52832872D01*
X133222646Y-52882792D01*
X133224758Y-52885440D01*
X133234213Y-52900834D01*
X133234316Y-52901060D01*
X133234317Y-52901061D01*
X133234318Y-52901063D01*
X133269744Y-52941947D01*
X133271653Y-52944245D01*
X133307435Y-52989114D01*
X133316808Y-52997461D01*
X133367639Y-53030128D01*
X133369318Y-53031240D01*
X133422114Y-53067237D01*
X133428130Y-53069003D01*
X133428131Y-53069004D01*
X133486886Y-53086255D01*
X133487794Y-53086529D01*
X133549298Y-53105500D01*
X133552428Y-53105500D01*
X133769267Y-53105500D01*
X133810953Y-53118358D01*
X133838152Y-53152465D01*
X133841412Y-53195967D01*
X133839940Y-53202416D01*
X133835108Y-53216688D01*
X133830503Y-53226771D01*
X133824331Y-53269696D01*
X133823229Y-53275629D01*
X133812884Y-53320955D01*
X133813677Y-53331540D01*
X133813132Y-53347588D01*
X133812067Y-53355000D01*
X133818745Y-53401461D01*
X133819291Y-53406456D01*
X133823034Y-53456378D01*
X133825590Y-53462891D01*
X133829951Y-53479390D01*
X133830502Y-53483226D01*
X133851483Y-53529169D01*
X133853054Y-53532872D01*
X133872646Y-53582792D01*
X133874758Y-53585440D01*
X133884215Y-53600838D01*
X133887682Y-53608430D01*
X133893063Y-53653010D01*
X133871677Y-53692494D01*
X133831400Y-53712343D01*
X133782030Y-53719785D01*
X133767509Y-53724563D01*
X133715339Y-53752135D01*
X133712871Y-53753381D01*
X133659756Y-53778961D01*
X133647288Y-53787808D01*
X133605578Y-53829517D01*
X133603588Y-53831434D01*
X133582216Y-53851265D01*
X133571893Y-53859270D01*
X133569151Y-53861031D01*
X133538994Y-53895834D01*
X133535401Y-53899694D01*
X133524773Y-53910323D01*
X133516908Y-53920978D01*
X133513302Y-53925483D01*
X133484317Y-53958936D01*
X133480084Y-53968205D01*
X133472318Y-53981397D01*
X133464406Y-53992118D01*
X133449940Y-54033460D01*
X133447407Y-54039758D01*
X133430502Y-54076776D01*
X133428539Y-54090427D01*
X133425142Y-54104327D01*
X133419553Y-54120300D01*
X133418049Y-54160502D01*
X133417348Y-54168264D01*
X133412066Y-54205001D01*
X133414541Y-54222215D01*
X133415242Y-54235508D01*
X133414475Y-54256008D01*
X133423963Y-54291419D01*
X133425731Y-54300038D01*
X133430503Y-54333228D01*
X133439218Y-54352312D01*
X133443383Y-54363899D01*
X133449622Y-54387186D01*
X133467225Y-54415199D01*
X133471879Y-54423827D01*
X133483834Y-54450003D01*
X133484318Y-54451063D01*
X133500409Y-54469634D01*
X133507140Y-54478722D01*
X133521876Y-54502174D01*
X133544226Y-54521407D01*
X133551885Y-54529040D01*
X133569150Y-54548967D01*
X133592840Y-54564191D01*
X133601102Y-54570354D01*
X133624812Y-54590758D01*
X133642417Y-54598438D01*
X133648549Y-54601114D01*
X133658967Y-54606688D01*
X133675397Y-54617247D01*
X133678131Y-54619004D01*
X133708587Y-54627946D01*
X133717327Y-54631121D01*
X133749284Y-54645065D01*
X133771459Y-54647563D01*
X133784024Y-54650096D01*
X133802427Y-54655500D01*
X133802428Y-54655500D01*
X133837742Y-54655500D01*
X133846026Y-54655965D01*
X133884235Y-54660270D01*
X133902627Y-54656790D01*
X133916384Y-54655500D01*
X133931972Y-54655500D01*
X133969294Y-54644540D01*
X133976375Y-54642835D01*
X134017672Y-54635023D01*
X134025051Y-54631123D01*
X134031038Y-54627959D01*
X134044767Y-54622380D01*
X134056269Y-54619004D01*
X134056271Y-54619003D01*
X134059004Y-54617247D01*
X134099011Y-54605500D01*
X134290423Y-54605500D01*
X134334366Y-54619960D01*
X134361136Y-54657689D01*
X134360270Y-54703942D01*
X134349940Y-54733461D01*
X134347407Y-54739758D01*
X134330502Y-54776776D01*
X134328539Y-54790427D01*
X134325142Y-54804327D01*
X134319553Y-54820300D01*
X134318049Y-54860502D01*
X134317348Y-54868264D01*
X134312066Y-54905001D01*
X134314541Y-54922215D01*
X134315242Y-54935508D01*
X134314475Y-54956008D01*
X134323963Y-54991419D01*
X134325731Y-55000038D01*
X134330503Y-55033228D01*
X134339218Y-55052312D01*
X134343383Y-55063899D01*
X134349622Y-55087186D01*
X134367225Y-55115199D01*
X134371879Y-55123827D01*
X134384317Y-55151062D01*
X134384318Y-55151063D01*
X134400409Y-55169634D01*
X134407140Y-55178722D01*
X134421876Y-55202174D01*
X134444226Y-55221407D01*
X134451885Y-55229040D01*
X134469150Y-55248967D01*
X134492840Y-55264191D01*
X134501102Y-55270354D01*
X134524812Y-55290758D01*
X134542417Y-55298438D01*
X134548549Y-55301114D01*
X134558967Y-55306688D01*
X134575397Y-55317247D01*
X134578131Y-55319004D01*
X134608587Y-55327946D01*
X134617327Y-55331121D01*
X134649284Y-55345065D01*
X134671459Y-55347563D01*
X134684024Y-55350096D01*
X134702427Y-55355500D01*
X134702428Y-55355500D01*
X134737742Y-55355500D01*
X134746026Y-55355965D01*
X134784235Y-55360270D01*
X134802627Y-55356790D01*
X134816384Y-55355500D01*
X134831972Y-55355500D01*
X134869294Y-55344540D01*
X134876375Y-55342835D01*
X134917672Y-55335023D01*
X134925051Y-55331123D01*
X134931038Y-55327959D01*
X134944767Y-55322380D01*
X134956269Y-55319004D01*
X134956271Y-55319003D01*
X134959004Y-55317247D01*
X134999011Y-55305500D01*
X135125199Y-55305500D01*
X135163980Y-55316476D01*
X135191257Y-55346147D01*
X135198938Y-55385713D01*
X135191315Y-55405971D01*
X135193090Y-55406592D01*
X135174940Y-55458460D01*
X135172407Y-55464758D01*
X135155502Y-55501776D01*
X135153539Y-55515427D01*
X135150142Y-55529327D01*
X135144553Y-55545300D01*
X135143049Y-55585502D01*
X135142348Y-55593264D01*
X135137066Y-55630001D01*
X135139541Y-55647215D01*
X135140242Y-55660508D01*
X135139475Y-55681008D01*
X135148963Y-55716419D01*
X135150731Y-55725038D01*
X135155503Y-55758228D01*
X135164218Y-55777312D01*
X135168383Y-55788899D01*
X135174622Y-55812186D01*
X135192225Y-55840199D01*
X135196881Y-55848830D01*
X135209318Y-55876063D01*
X135225409Y-55894634D01*
X135232140Y-55903722D01*
X135246876Y-55927174D01*
X135269226Y-55946407D01*
X135276885Y-55954040D01*
X135294150Y-55973967D01*
X135317840Y-55989191D01*
X135326102Y-55995354D01*
X135349812Y-56015758D01*
X135354651Y-56017869D01*
X135373549Y-56026114D01*
X135383967Y-56031688D01*
X135403129Y-56044003D01*
X135403131Y-56044004D01*
X135433587Y-56052946D01*
X135442327Y-56056121D01*
X135474284Y-56070065D01*
X135496459Y-56072563D01*
X135509024Y-56075096D01*
X135527427Y-56080500D01*
X135527428Y-56080500D01*
X135562742Y-56080500D01*
X135571026Y-56080965D01*
X135609235Y-56085270D01*
X135627627Y-56081790D01*
X135641384Y-56080500D01*
X135656972Y-56080500D01*
X135694294Y-56069540D01*
X135701375Y-56067835D01*
X135742672Y-56060023D01*
X135756039Y-56052957D01*
X135769762Y-56047382D01*
X135781269Y-56044004D01*
X135817010Y-56021033D01*
X135822429Y-56017869D01*
X135829608Y-56014074D01*
X135864184Y-56005500D01*
X136019267Y-56005500D01*
X136060953Y-56018358D01*
X136088152Y-56052465D01*
X136091412Y-56095967D01*
X136089940Y-56102416D01*
X136085108Y-56116688D01*
X136080503Y-56126771D01*
X136074331Y-56169696D01*
X136073229Y-56175629D01*
X136062884Y-56220955D01*
X136063677Y-56231540D01*
X136063132Y-56247588D01*
X136062067Y-56255000D01*
X136068745Y-56301461D01*
X136069291Y-56306456D01*
X136073034Y-56356378D01*
X136075590Y-56362891D01*
X136079951Y-56379390D01*
X136080502Y-56383226D01*
X136101483Y-56429169D01*
X136103054Y-56432872D01*
X136122646Y-56482792D01*
X136123899Y-56484363D01*
X136139577Y-56522216D01*
X136132713Y-56562608D01*
X136105412Y-56593158D01*
X136066042Y-56604500D01*
X134552428Y-56604500D01*
X134524547Y-56612685D01*
X134514735Y-56614854D01*
X134482911Y-56619651D01*
X134460382Y-56630501D01*
X134449125Y-56634831D01*
X134428130Y-56640995D01*
X134400669Y-56658643D01*
X134392773Y-56663060D01*
X134360557Y-56678575D01*
X134344860Y-56693139D01*
X134334545Y-56701138D01*
X134319151Y-56711033D01*
X134319148Y-56711035D01*
X134295436Y-56738400D01*
X134289846Y-56744183D01*
X134261006Y-56770943D01*
X134252091Y-56786383D01*
X134243937Y-56797833D01*
X134234319Y-56808934D01*
X134217788Y-56845129D01*
X134214563Y-56851384D01*
X134193102Y-56888556D01*
X134189939Y-56902417D01*
X134185108Y-56916688D01*
X134180503Y-56926771D01*
X134174331Y-56969696D01*
X134173229Y-56975629D01*
X134162884Y-57020955D01*
X134163677Y-57031540D01*
X134163132Y-57047588D01*
X134162067Y-57055000D01*
X134168745Y-57101461D01*
X134169291Y-57106456D01*
X134173034Y-57156378D01*
X134175590Y-57162891D01*
X134179951Y-57179390D01*
X134180502Y-57183226D01*
X134201483Y-57229169D01*
X134203054Y-57232872D01*
X134222646Y-57282792D01*
X134224758Y-57285440D01*
X134234213Y-57300834D01*
X134234316Y-57301060D01*
X134234317Y-57301061D01*
X134234318Y-57301063D01*
X134269744Y-57341947D01*
X134271653Y-57344245D01*
X134307435Y-57389114D01*
X134316808Y-57397461D01*
X134367639Y-57430128D01*
X134369318Y-57431240D01*
X134422114Y-57467237D01*
X134428130Y-57469003D01*
X134428131Y-57469004D01*
X134486886Y-57486255D01*
X134487794Y-57486529D01*
X134549298Y-57505500D01*
X134552428Y-57505500D01*
X134919267Y-57505500D01*
X134960953Y-57518358D01*
X134988152Y-57552465D01*
X134991412Y-57595967D01*
X134989940Y-57602416D01*
X134985108Y-57616688D01*
X134980503Y-57626771D01*
X134974331Y-57669696D01*
X134973229Y-57675629D01*
X134962884Y-57720955D01*
X134963677Y-57731540D01*
X134963132Y-57747588D01*
X134962067Y-57755000D01*
X134968745Y-57801461D01*
X134969291Y-57806456D01*
X134973034Y-57856378D01*
X134975590Y-57862891D01*
X134979951Y-57879390D01*
X134980502Y-57883226D01*
X135001483Y-57929169D01*
X135003054Y-57932872D01*
X135022646Y-57982792D01*
X135024758Y-57985440D01*
X135034213Y-58000834D01*
X135034316Y-58001060D01*
X135034317Y-58001061D01*
X135034318Y-58001063D01*
X135069744Y-58041947D01*
X135071653Y-58044245D01*
X135107435Y-58089114D01*
X135116808Y-58097461D01*
X135167639Y-58130128D01*
X135169318Y-58131240D01*
X135222114Y-58167237D01*
X135228130Y-58169003D01*
X135228131Y-58169004D01*
X135286886Y-58186255D01*
X135287794Y-58186529D01*
X135349298Y-58205500D01*
X135352428Y-58205500D01*
X135949487Y-58205500D01*
X135986488Y-58215415D01*
X136013575Y-58242503D01*
X136023487Y-58279505D01*
X136013569Y-58316506D01*
X136002090Y-58336384D01*
X135993937Y-58347833D01*
X135984319Y-58358934D01*
X135967788Y-58395129D01*
X135964563Y-58401384D01*
X135943102Y-58438556D01*
X135939939Y-58452417D01*
X135935108Y-58466688D01*
X135930503Y-58476771D01*
X135924331Y-58519696D01*
X135923229Y-58525629D01*
X135912884Y-58570955D01*
X135913677Y-58581540D01*
X135913132Y-58597588D01*
X135912067Y-58605000D01*
X135918745Y-58651461D01*
X135919291Y-58656456D01*
X135923034Y-58706378D01*
X135925590Y-58712891D01*
X135929951Y-58729390D01*
X135930502Y-58733226D01*
X135951483Y-58779169D01*
X135953054Y-58782872D01*
X135972646Y-58832792D01*
X135974758Y-58835440D01*
X135984213Y-58850834D01*
X135984316Y-58851060D01*
X135984317Y-58851061D01*
X135984318Y-58851063D01*
X136019744Y-58891947D01*
X136021653Y-58894245D01*
X136057435Y-58939114D01*
X136066808Y-58947461D01*
X136117639Y-58980128D01*
X136119318Y-58981240D01*
X136172114Y-59017237D01*
X136178130Y-59019003D01*
X136178131Y-59019004D01*
X136236886Y-59036255D01*
X136237794Y-59036529D01*
X136292320Y-59053347D01*
X136323481Y-59072389D01*
X136341742Y-59104015D01*
X136342653Y-59140523D01*
X136339940Y-59152412D01*
X136335108Y-59166688D01*
X136330503Y-59176771D01*
X136324331Y-59219696D01*
X136323229Y-59225629D01*
X136312884Y-59270955D01*
X136313677Y-59281540D01*
X136313132Y-59297588D01*
X136312067Y-59305000D01*
X136318745Y-59351461D01*
X136319291Y-59356456D01*
X136323034Y-59406378D01*
X136325590Y-59412891D01*
X136329951Y-59429390D01*
X136330502Y-59433226D01*
X136351483Y-59479169D01*
X136353054Y-59482872D01*
X136372646Y-59532792D01*
X136374758Y-59535440D01*
X136384213Y-59550834D01*
X136384316Y-59551060D01*
X136384317Y-59551061D01*
X136384318Y-59551063D01*
X136419744Y-59591947D01*
X136421653Y-59594245D01*
X136457435Y-59639114D01*
X136466808Y-59647461D01*
X136517639Y-59680128D01*
X136519318Y-59681240D01*
X136572114Y-59717237D01*
X136578130Y-59719003D01*
X136578131Y-59719004D01*
X136636886Y-59736255D01*
X136637794Y-59736529D01*
X136699298Y-59755500D01*
X136699299Y-59755500D01*
X148089840Y-59755500D01*
X148126794Y-59765388D01*
X148153873Y-59792409D01*
X148163840Y-59829342D01*
X148165311Y-60519342D01*
X148155449Y-60556409D01*
X148128357Y-60583560D01*
X148091311Y-60593500D01*
X121029500Y-60593500D01*
X120992500Y-60583586D01*
X120965414Y-60556500D01*
X120955500Y-60519500D01*
X120955500Y-55556200D01*
X130430601Y-55556200D01*
X130430601Y-56237681D01*
X130445434Y-56331348D01*
X130502958Y-56444243D01*
X130592556Y-56533841D01*
X130705451Y-56591365D01*
X130799119Y-56606200D01*
X131480600Y-56606200D01*
X131480600Y-55556200D01*
X131880600Y-55556200D01*
X131880600Y-56606199D01*
X132562081Y-56606199D01*
X132655748Y-56591365D01*
X132768643Y-56533841D01*
X132858241Y-56444243D01*
X132915765Y-56331348D01*
X132930600Y-56237681D01*
X132930600Y-55556200D01*
X131880600Y-55556200D01*
X131480600Y-55556200D01*
X130430601Y-55556200D01*
X120955500Y-55556200D01*
X120955500Y-55156200D01*
X130430600Y-55156200D01*
X131480600Y-55156200D01*
X131480600Y-54106201D01*
X130799119Y-54106201D01*
X130705451Y-54121034D01*
X130592556Y-54178558D01*
X130502958Y-54268156D01*
X130445434Y-54381051D01*
X130430600Y-54474719D01*
X130430600Y-55156200D01*
X120955500Y-55156200D01*
X120955500Y-44786065D01*
X120969102Y-44743310D01*
X121004906Y-44716271D01*
X121049749Y-44714890D01*
X121135193Y-44739201D01*
X121135193Y-44739200D01*
X121135194Y-44739201D01*
X121191126Y-44734017D01*
X121247060Y-44728835D01*
X121288785Y-44708058D01*
X121321771Y-44700300D01*
X122318174Y-44700300D01*
X122346493Y-44705933D01*
X122370500Y-44721974D01*
X122520887Y-44872361D01*
X122538774Y-44901317D01*
X122541808Y-44935216D01*
X122537066Y-44968198D01*
X122555502Y-45096425D01*
X122609317Y-45214262D01*
X122609318Y-45214263D01*
X122694151Y-45312167D01*
X122803131Y-45382204D01*
X122927428Y-45418700D01*
X123056970Y-45418700D01*
X123056972Y-45418700D01*
X123181269Y-45382204D01*
X123286570Y-45314530D01*
X123326856Y-45302785D01*
X123360914Y-45312995D01*
X123354689Y-45306213D01*
X123347921Y-45264248D01*
X123365359Y-45225483D01*
X123375082Y-45214263D01*
X123428897Y-45096426D01*
X123447333Y-44968200D01*
X123428897Y-44839974D01*
X123375082Y-44722137D01*
X123375081Y-44722136D01*
X123375081Y-44722135D01*
X123370036Y-44716313D01*
X123352600Y-44677547D01*
X123359369Y-44635583D01*
X123388112Y-44604267D01*
X123429343Y-44593931D01*
X123469458Y-44607987D01*
X123609607Y-44709813D01*
X123772930Y-44782528D01*
X123772931Y-44782528D01*
X123772933Y-44782529D01*
X123947809Y-44819700D01*
X124126591Y-44819700D01*
X124301467Y-44782529D01*
X124340866Y-44764986D01*
X124384449Y-44759827D01*
X124423291Y-44780262D01*
X124803626Y-45160597D01*
X124819667Y-45184604D01*
X124825300Y-45212923D01*
X124825300Y-45380645D01*
X124812285Y-45422559D01*
X124777819Y-45449730D01*
X124734025Y-45452600D01*
X124696308Y-45430161D01*
X124609430Y-45333674D01*
X124595840Y-45323800D01*
X124464792Y-45228586D01*
X124301469Y-45155871D01*
X124126591Y-45118700D01*
X123947809Y-45118700D01*
X123772930Y-45155871D01*
X123609608Y-45228586D01*
X123464779Y-45333811D01*
X123424663Y-45347867D01*
X123387132Y-45338457D01*
X123394234Y-45346813D01*
X123399653Y-45388429D01*
X123381568Y-45426299D01*
X123345342Y-45466532D01*
X123255948Y-45621366D01*
X123200703Y-45791394D01*
X123182014Y-45969200D01*
X123200703Y-46147005D01*
X123255948Y-46317033D01*
X123278215Y-46355600D01*
X123345341Y-46471865D01*
X123464970Y-46604726D01*
X123464973Y-46604728D01*
X123609607Y-46709813D01*
X123772930Y-46782528D01*
X123772931Y-46782528D01*
X123772933Y-46782529D01*
X123947809Y-46819700D01*
X124126591Y-46819700D01*
X124301467Y-46782529D01*
X124328401Y-46770537D01*
X124464792Y-46709813D01*
X124500971Y-46683527D01*
X124609430Y-46604726D01*
X124696308Y-46508238D01*
X124734025Y-46485800D01*
X124777819Y-46488670D01*
X124812285Y-46515841D01*
X124825300Y-46557755D01*
X124825300Y-47380645D01*
X124812285Y-47422559D01*
X124777819Y-47449730D01*
X124734025Y-47452600D01*
X124696308Y-47430161D01*
X124609430Y-47333674D01*
X124609426Y-47333671D01*
X124464792Y-47228586D01*
X124301469Y-47155871D01*
X124126591Y-47118700D01*
X123947809Y-47118700D01*
X123772930Y-47155871D01*
X123609608Y-47228586D01*
X123464972Y-47333671D01*
X123345340Y-47466536D01*
X123255948Y-47621366D01*
X123200703Y-47791394D01*
X123182014Y-47969199D01*
X123200703Y-48147005D01*
X123255948Y-48317033D01*
X123331511Y-48447911D01*
X123345341Y-48471865D01*
X123464970Y-48604726D01*
X123464973Y-48604728D01*
X123609607Y-48709813D01*
X123772930Y-48782528D01*
X123772931Y-48782528D01*
X123772933Y-48782529D01*
X123947809Y-48819700D01*
X124126591Y-48819700D01*
X124301467Y-48782529D01*
X124328401Y-48770537D01*
X124464792Y-48709813D01*
X124498319Y-48685453D01*
X124609430Y-48604726D01*
X124696308Y-48508238D01*
X124734025Y-48485800D01*
X124777819Y-48488670D01*
X124812285Y-48515841D01*
X124825300Y-48557755D01*
X124825300Y-49380645D01*
X124812285Y-49422559D01*
X124777819Y-49449730D01*
X124734025Y-49452600D01*
X124696308Y-49430161D01*
X124609430Y-49333674D01*
X124609426Y-49333671D01*
X124464792Y-49228586D01*
X124301469Y-49155871D01*
X124126591Y-49118700D01*
X123947809Y-49118700D01*
X123772930Y-49155871D01*
X123609608Y-49228586D01*
X123464972Y-49333671D01*
X123345340Y-49466536D01*
X123255948Y-49621366D01*
X123200703Y-49791394D01*
X123182014Y-49969199D01*
X123200703Y-50147005D01*
X123255948Y-50317033D01*
X123331511Y-50447911D01*
X123345341Y-50471865D01*
X123464970Y-50604726D01*
X123464973Y-50604728D01*
X123609607Y-50709813D01*
X123772930Y-50782528D01*
X123772931Y-50782528D01*
X123772933Y-50782529D01*
X123947809Y-50819700D01*
X124126591Y-50819700D01*
X124301467Y-50782529D01*
X124418682Y-50730342D01*
X124464792Y-50709813D01*
X124498319Y-50685453D01*
X124609430Y-50604726D01*
X124696308Y-50508238D01*
X124734025Y-50485800D01*
X124777819Y-50488670D01*
X124812285Y-50515841D01*
X124825300Y-50557755D01*
X124825300Y-51380645D01*
X124812285Y-51422559D01*
X124777819Y-51449730D01*
X124734025Y-51452600D01*
X124696308Y-51430161D01*
X124609430Y-51333674D01*
X124609426Y-51333671D01*
X124464792Y-51228586D01*
X124301469Y-51155871D01*
X124126591Y-51118700D01*
X123947809Y-51118700D01*
X123772930Y-51155871D01*
X123609608Y-51228586D01*
X123464972Y-51333671D01*
X123345340Y-51466536D01*
X123255948Y-51621366D01*
X123200703Y-51791394D01*
X123182014Y-51969200D01*
X123200703Y-52147005D01*
X123255948Y-52317033D01*
X123314449Y-52418358D01*
X123345341Y-52471865D01*
X123464970Y-52604726D01*
X123464973Y-52604728D01*
X123609607Y-52709813D01*
X123772930Y-52782528D01*
X123772931Y-52782528D01*
X123772933Y-52782529D01*
X123947809Y-52819700D01*
X124126591Y-52819700D01*
X124301467Y-52782529D01*
X124345575Y-52762891D01*
X124464792Y-52709813D01*
X124550436Y-52647588D01*
X124609430Y-52604726D01*
X124696308Y-52508238D01*
X124734025Y-52485800D01*
X124777819Y-52488670D01*
X124812285Y-52515841D01*
X124825300Y-52557755D01*
X124825300Y-53517712D01*
X124822849Y-53532732D01*
X124825221Y-53584025D01*
X124825300Y-53587443D01*
X124825300Y-53606646D01*
X124825640Y-53608465D01*
X124826821Y-53618643D01*
X124828215Y-53648792D01*
X124833355Y-53660435D01*
X124838398Y-53676719D01*
X124840738Y-53689232D01*
X124856625Y-53714893D01*
X124861402Y-53723955D01*
X124873593Y-53751564D01*
X124882591Y-53760562D01*
X124893181Y-53773931D01*
X124899881Y-53784753D01*
X124923965Y-53802940D01*
X124931696Y-53809667D01*
X125105466Y-53983437D01*
X125123343Y-54012362D01*
X125124548Y-54025729D01*
X125126353Y-54025470D01*
X125146302Y-54164225D01*
X125200117Y-54282062D01*
X125200118Y-54282063D01*
X125284951Y-54379967D01*
X125393931Y-54450004D01*
X125518228Y-54486500D01*
X125647770Y-54486500D01*
X125647772Y-54486500D01*
X125772069Y-54450004D01*
X125881049Y-54379967D01*
X125965882Y-54282063D01*
X126019697Y-54164226D01*
X126028040Y-54106200D01*
X131880600Y-54106200D01*
X131880600Y-55156200D01*
X132930599Y-55156200D01*
X132930599Y-54474719D01*
X132915765Y-54381051D01*
X132858241Y-54268156D01*
X132768643Y-54178558D01*
X132655748Y-54121034D01*
X132562081Y-54106200D01*
X131880600Y-54106200D01*
X126028040Y-54106200D01*
X126038133Y-54036000D01*
X126019697Y-53907774D01*
X125965882Y-53789937D01*
X125881049Y-53692033D01*
X125772069Y-53621996D01*
X125647772Y-53585500D01*
X125647770Y-53585500D01*
X125588123Y-53585500D01*
X125559804Y-53579867D01*
X125535797Y-53563826D01*
X125447974Y-53476003D01*
X125431933Y-53451996D01*
X125426300Y-53423677D01*
X125426300Y-45323799D01*
X128734667Y-45323799D01*
X128753102Y-45452025D01*
X128806917Y-45569862D01*
X128806918Y-45569863D01*
X128891751Y-45667767D01*
X128891753Y-45667768D01*
X128898719Y-45675807D01*
X128898685Y-45675836D01*
X128915249Y-45693629D01*
X128924300Y-45729092D01*
X128924300Y-45850760D01*
X128922878Y-45865197D01*
X128919097Y-45884199D01*
X128939705Y-45987794D01*
X128989842Y-46062831D01*
X129001839Y-46095577D01*
X128997505Y-46130180D01*
X128991125Y-46147005D01*
X128976059Y-46186731D01*
X128955554Y-46355600D01*
X128976059Y-46524471D01*
X129036380Y-46683527D01*
X129036381Y-46683529D01*
X129036382Y-46683530D01*
X129133017Y-46823529D01*
X129260348Y-46936334D01*
X129410975Y-47015390D01*
X129576144Y-47056100D01*
X129746255Y-47056100D01*
X129746256Y-47056100D01*
X129911425Y-47015390D01*
X130062052Y-46936334D01*
X130189383Y-46823529D01*
X130286018Y-46683530D01*
X130346340Y-46524472D01*
X130366845Y-46355600D01*
X130346340Y-46186728D01*
X130331275Y-46147005D01*
X130286019Y-46027672D01*
X130258493Y-45987794D01*
X130189383Y-45887671D01*
X130062052Y-45774866D01*
X129911425Y-45695810D01*
X129746256Y-45655100D01*
X129648902Y-45655100D01*
X129603158Y-45639268D01*
X129576988Y-45598546D01*
X129581589Y-45550359D01*
X129626497Y-45452026D01*
X129644933Y-45323800D01*
X129626497Y-45195574D01*
X129572682Y-45077737D01*
X129487849Y-44979833D01*
X129378869Y-44909796D01*
X129254572Y-44873300D01*
X129125028Y-44873300D01*
X129039019Y-44898554D01*
X129000731Y-44909796D01*
X128891751Y-44979833D01*
X128806917Y-45077737D01*
X128753102Y-45195574D01*
X128734667Y-45323799D01*
X125426300Y-45323799D01*
X125426300Y-45118889D01*
X125428750Y-45103868D01*
X125426379Y-45052576D01*
X125426300Y-45049158D01*
X125426300Y-45029957D01*
X125425960Y-45028140D01*
X125424777Y-45017953D01*
X125423385Y-44987809D01*
X125418243Y-44976163D01*
X125413198Y-44959872D01*
X125410861Y-44947367D01*
X125394968Y-44921699D01*
X125390202Y-44912657D01*
X125378006Y-44885035D01*
X125369006Y-44876035D01*
X125358417Y-44862665D01*
X125351719Y-44851848D01*
X125327637Y-44833662D01*
X125319906Y-44826935D01*
X124848444Y-44355473D01*
X124828815Y-44320422D01*
X124830391Y-44280281D01*
X124873697Y-44147003D01*
X124892385Y-43969200D01*
X124873697Y-43791397D01*
X124871705Y-43785266D01*
X124818451Y-43621366D01*
X124760810Y-43521529D01*
X124729059Y-43466535D01*
X124609430Y-43333674D01*
X124609426Y-43333671D01*
X124464792Y-43228586D01*
X124301469Y-43155871D01*
X124126591Y-43118700D01*
X123947809Y-43118700D01*
X123772930Y-43155871D01*
X123609608Y-43228586D01*
X123464972Y-43333671D01*
X123345340Y-43466536D01*
X123255948Y-43621366D01*
X123200703Y-43791394D01*
X123182014Y-43969200D01*
X123200703Y-44147005D01*
X123255948Y-44317033D01*
X123278142Y-44355473D01*
X123345341Y-44471865D01*
X123367096Y-44496026D01*
X123377294Y-44507352D01*
X123395379Y-44545222D01*
X123389961Y-44586838D01*
X123362781Y-44618814D01*
X123322583Y-44630867D01*
X123282295Y-44619121D01*
X123181269Y-44554196D01*
X123056972Y-44517700D01*
X122947826Y-44517700D01*
X122919507Y-44512067D01*
X122895500Y-44496026D01*
X122670178Y-44270704D01*
X122660979Y-44259495D01*
X122650215Y-44243385D01*
X122568453Y-44188754D01*
X122565620Y-44186429D01*
X122562391Y-44184703D01*
X122458800Y-44164097D01*
X122439797Y-44167878D01*
X122425360Y-44169300D01*
X121537900Y-44169300D01*
X121500900Y-44159386D01*
X121473814Y-44132300D01*
X121463900Y-44095300D01*
X121463900Y-41969200D01*
X123182014Y-41969200D01*
X123200703Y-42147005D01*
X123255948Y-42317033D01*
X123317876Y-42424295D01*
X123345341Y-42471865D01*
X123464970Y-42604726D01*
X123464973Y-42604728D01*
X123609607Y-42709813D01*
X123772930Y-42782528D01*
X123772931Y-42782528D01*
X123772933Y-42782529D01*
X123947809Y-42819700D01*
X124126591Y-42819700D01*
X124301467Y-42782529D01*
X124328401Y-42770537D01*
X124464792Y-42709813D01*
X124498319Y-42685453D01*
X124609430Y-42604726D01*
X124729059Y-42471865D01*
X124818450Y-42317035D01*
X124873697Y-42147003D01*
X124892385Y-41969200D01*
X124886356Y-41911835D01*
X124893440Y-41871660D01*
X124920737Y-41841344D01*
X124959951Y-41830100D01*
X129887374Y-41830100D01*
X129915693Y-41835733D01*
X129939700Y-41851774D01*
X130426219Y-42338293D01*
X130435422Y-42349507D01*
X130446185Y-42365615D01*
X130534007Y-42424295D01*
X130538208Y-42425130D01*
X130550809Y-42427637D01*
X130550812Y-42427637D01*
X130637600Y-42444902D01*
X130654749Y-42441490D01*
X130656603Y-42441122D01*
X130671040Y-42439700D01*
X132974662Y-42439700D01*
X133016699Y-42452799D01*
X133043853Y-42487459D01*
X133046512Y-42531409D01*
X133023733Y-42569090D01*
X133005018Y-42585669D01*
X132908380Y-42725672D01*
X132848059Y-42884728D01*
X132827554Y-43053600D01*
X132848059Y-43222471D01*
X132908380Y-43381527D01*
X132908381Y-43381529D01*
X132908382Y-43381530D01*
X133005017Y-43521529D01*
X133132348Y-43634334D01*
X133282975Y-43713390D01*
X133448144Y-43754100D01*
X133618255Y-43754100D01*
X133618256Y-43754100D01*
X133783425Y-43713390D01*
X133934052Y-43634334D01*
X134061383Y-43521529D01*
X134158018Y-43381530D01*
X134218340Y-43222472D01*
X134238845Y-43053600D01*
X134218340Y-42884728D01*
X134218339Y-42884727D01*
X134158019Y-42725672D01*
X134158018Y-42725670D01*
X134061383Y-42585671D01*
X133981314Y-42514736D01*
X133957991Y-42474678D01*
X133963072Y-42428605D01*
X133991839Y-42365615D01*
X134020697Y-42302426D01*
X134039133Y-42174200D01*
X134020697Y-42045974D01*
X133966882Y-41928137D01*
X133882049Y-41830233D01*
X133773069Y-41760196D01*
X133648772Y-41723700D01*
X133519228Y-41723700D01*
X133394931Y-41760196D01*
X133285951Y-41830233D01*
X133240088Y-41883161D01*
X133214906Y-41902013D01*
X133184165Y-41908700D01*
X130778226Y-41908700D01*
X130749907Y-41903067D01*
X130725900Y-41887026D01*
X130239378Y-41400504D01*
X130230179Y-41389295D01*
X130219415Y-41373185D01*
X130137653Y-41318554D01*
X130134820Y-41316229D01*
X130131591Y-41314503D01*
X130028000Y-41293897D01*
X130008997Y-41297678D01*
X129994560Y-41299100D01*
X124585888Y-41299100D01*
X124542392Y-41284967D01*
X124464792Y-41228586D01*
X124301469Y-41155871D01*
X124126591Y-41118700D01*
X123947809Y-41118700D01*
X123772930Y-41155871D01*
X123609608Y-41228586D01*
X123464972Y-41333671D01*
X123345340Y-41466536D01*
X123255948Y-41621366D01*
X123200703Y-41791394D01*
X123182014Y-41969200D01*
X121463900Y-41969200D01*
X121463900Y-40438744D01*
X121469533Y-40410426D01*
X121485574Y-40386418D01*
X121485574Y-40386417D01*
X121567650Y-40304342D01*
X121625246Y-40191304D01*
X121640100Y-40097519D01*
X121640100Y-39969199D01*
X123182014Y-39969199D01*
X123200703Y-40147005D01*
X123255948Y-40317033D01*
X123304545Y-40401205D01*
X123345341Y-40471865D01*
X123464970Y-40604726D01*
X123464973Y-40604728D01*
X123609607Y-40709813D01*
X123772930Y-40782528D01*
X123772931Y-40782528D01*
X123772933Y-40782529D01*
X123947809Y-40819700D01*
X124126591Y-40819700D01*
X124301467Y-40782529D01*
X124328401Y-40770537D01*
X124464792Y-40709813D01*
X124498319Y-40685453D01*
X124609430Y-40604726D01*
X124729059Y-40471865D01*
X124818450Y-40317035D01*
X124822575Y-40304342D01*
X124859302Y-40191305D01*
X124873697Y-40147003D01*
X124892385Y-39969200D01*
X124873697Y-39791397D01*
X124865364Y-39765752D01*
X124818451Y-39621366D01*
X124780669Y-39555927D01*
X124729059Y-39466535D01*
X124609430Y-39333674D01*
X124609426Y-39333671D01*
X124464792Y-39228586D01*
X124301470Y-39155871D01*
X124253894Y-39145759D01*
X124212775Y-39121158D01*
X124195347Y-39076523D01*
X124208919Y-39030568D01*
X124247799Y-39002562D01*
X124440965Y-38943966D01*
X124623370Y-38846469D01*
X124627904Y-38842747D01*
X124037200Y-38252043D01*
X123446495Y-38842746D01*
X123451027Y-38846466D01*
X123633436Y-38943967D01*
X123826600Y-39002562D01*
X123865480Y-39030568D01*
X123879052Y-39076523D01*
X123861625Y-39121158D01*
X123820505Y-39145759D01*
X123772930Y-39155871D01*
X123609608Y-39228586D01*
X123464972Y-39333671D01*
X123345340Y-39466536D01*
X123255948Y-39621366D01*
X123200703Y-39791394D01*
X123182014Y-39969199D01*
X121640100Y-39969199D01*
X121640100Y-37969200D01*
X122982119Y-37969200D01*
X123002392Y-38175035D01*
X123062433Y-38372965D01*
X123159930Y-38555370D01*
X123163652Y-38559903D01*
X123754357Y-37969200D01*
X124320043Y-37969200D01*
X124910747Y-38559904D01*
X124914469Y-38555370D01*
X125011966Y-38372965D01*
X125072007Y-38175035D01*
X125092280Y-37969200D01*
X125072007Y-37763364D01*
X125011967Y-37565436D01*
X124914466Y-37383027D01*
X124910746Y-37378495D01*
X124320043Y-37969200D01*
X123754357Y-37969200D01*
X123163652Y-37378495D01*
X123163651Y-37378495D01*
X123159930Y-37383029D01*
X123062433Y-37565434D01*
X123002392Y-37763364D01*
X122982119Y-37969200D01*
X121640100Y-37969200D01*
X121640100Y-37095652D01*
X123446495Y-37095652D01*
X124037199Y-37686356D01*
X124627903Y-37095652D01*
X124623370Y-37091930D01*
X124440965Y-36994433D01*
X124243035Y-36934392D01*
X124037200Y-36914119D01*
X123831364Y-36934392D01*
X123633434Y-36994433D01*
X123451029Y-37091930D01*
X123446495Y-37095651D01*
X123446495Y-37095652D01*
X121640100Y-37095652D01*
X121640100Y-36230600D01*
X125534267Y-36230600D01*
X125552702Y-36358825D01*
X125606517Y-36476662D01*
X125606518Y-36476663D01*
X125691351Y-36574567D01*
X125800331Y-36644604D01*
X125924628Y-36681100D01*
X126054170Y-36681100D01*
X126054172Y-36681100D01*
X126178469Y-36644604D01*
X126287449Y-36574567D01*
X126372282Y-36476663D01*
X126426097Y-36358826D01*
X126444533Y-36230600D01*
X126426097Y-36102374D01*
X126372282Y-35984537D01*
X126287449Y-35886633D01*
X126287446Y-35886631D01*
X126280481Y-35878593D01*
X126280514Y-35878563D01*
X126263951Y-35860771D01*
X126254900Y-35825308D01*
X126254900Y-35289692D01*
X126263951Y-35254229D01*
X126280514Y-35236436D01*
X126280481Y-35236407D01*
X126287445Y-35228368D01*
X126287449Y-35228367D01*
X126372282Y-35130463D01*
X126426097Y-35012626D01*
X126444533Y-34884400D01*
X126426097Y-34756174D01*
X126372282Y-34638337D01*
X126287449Y-34540433D01*
X126178469Y-34470396D01*
X126054172Y-34433900D01*
X125924628Y-34433900D01*
X125835043Y-34460204D01*
X125800331Y-34470396D01*
X125691351Y-34540433D01*
X125606517Y-34638337D01*
X125552702Y-34756174D01*
X125534267Y-34884400D01*
X125552702Y-35012625D01*
X125606517Y-35130462D01*
X125606518Y-35130463D01*
X125691351Y-35228367D01*
X125691353Y-35228368D01*
X125698319Y-35236407D01*
X125698285Y-35236436D01*
X125714849Y-35254229D01*
X125723900Y-35289692D01*
X125723900Y-35825308D01*
X125714849Y-35860771D01*
X125698285Y-35878563D01*
X125698319Y-35878593D01*
X125691353Y-35886631D01*
X125691351Y-35886633D01*
X125644656Y-35940522D01*
X125606517Y-35984537D01*
X125552702Y-36102374D01*
X125534267Y-36230600D01*
X121640100Y-36230600D01*
X121640100Y-26654799D01*
X126270867Y-26654799D01*
X126289302Y-26783025D01*
X126343117Y-26900862D01*
X126343118Y-26900863D01*
X126427951Y-26998767D01*
X126536931Y-27068804D01*
X126661228Y-27105300D01*
X126720877Y-27105300D01*
X126749196Y-27110933D01*
X126773203Y-27126974D01*
X127267426Y-27621197D01*
X127283467Y-27645204D01*
X127289100Y-27673523D01*
X127289100Y-27784662D01*
X127284434Y-27810522D01*
X127271028Y-27833118D01*
X127213774Y-27899193D01*
X127206717Y-27907338D01*
X127152902Y-28025174D01*
X127134467Y-28153400D01*
X127152902Y-28281625D01*
X127206717Y-28399462D01*
X127206718Y-28399463D01*
X127291551Y-28497367D01*
X127400531Y-28567404D01*
X127524828Y-28603900D01*
X127654370Y-28603900D01*
X127654372Y-28603900D01*
X127778669Y-28567404D01*
X127887649Y-28497367D01*
X127972482Y-28399463D01*
X128026297Y-28281626D01*
X128044733Y-28153400D01*
X128026297Y-28025174D01*
X127972482Y-27907337D01*
X127908171Y-27833118D01*
X127894766Y-27810522D01*
X127890100Y-27784662D01*
X127890100Y-27579489D01*
X127892550Y-27564468D01*
X127890179Y-27513176D01*
X127890100Y-27509758D01*
X127890100Y-27490557D01*
X127889760Y-27488740D01*
X127888577Y-27478553D01*
X127887185Y-27448409D01*
X127882043Y-27436763D01*
X127876998Y-27420472D01*
X127874661Y-27407967D01*
X127858768Y-27382299D01*
X127854002Y-27373257D01*
X127841806Y-27345635D01*
X127832807Y-27336636D01*
X127822217Y-27323265D01*
X127815519Y-27312448D01*
X127791437Y-27294262D01*
X127783706Y-27287535D01*
X127203534Y-26707363D01*
X127185644Y-26678396D01*
X127184454Y-26665072D01*
X127182647Y-26665332D01*
X127176013Y-26619193D01*
X127162697Y-26526574D01*
X127108882Y-26408737D01*
X127024049Y-26310833D01*
X126915069Y-26240796D01*
X126790772Y-26204300D01*
X126661228Y-26204300D01*
X126536931Y-26240795D01*
X126536931Y-26240796D01*
X126427951Y-26310833D01*
X126343117Y-26408737D01*
X126289302Y-26526574D01*
X126270867Y-26654799D01*
X121640100Y-26654799D01*
X121640100Y-26369281D01*
X121640100Y-26337367D01*
X121632036Y-26312551D01*
X121629327Y-26301264D01*
X121625246Y-26275496D01*
X121613397Y-26252242D01*
X121608957Y-26241522D01*
X121600896Y-26216710D01*
X121585557Y-26195597D01*
X121579494Y-26185702D01*
X121567650Y-26162458D01*
X121550265Y-26145073D01*
X121550261Y-26145068D01*
X121501193Y-26096000D01*
X127566267Y-26096000D01*
X127584702Y-26224225D01*
X127638517Y-26342062D01*
X127638518Y-26342063D01*
X127723351Y-26439967D01*
X127832331Y-26510004D01*
X127956628Y-26546500D01*
X128086170Y-26546500D01*
X128086172Y-26546500D01*
X128210469Y-26510004D01*
X128319449Y-26439967D01*
X128404282Y-26342063D01*
X128458097Y-26224226D01*
X128473827Y-26114814D01*
X128494746Y-26073023D01*
X129441450Y-25126319D01*
X129482917Y-25105448D01*
X129528655Y-25113384D01*
X129562046Y-25131232D01*
X129760066Y-25191300D01*
X129966000Y-25211583D01*
X130171934Y-25191300D01*
X130369954Y-25131232D01*
X130552450Y-25033685D01*
X130712410Y-24902410D01*
X130843685Y-24742450D01*
X130941232Y-24559954D01*
X131001300Y-24361934D01*
X131021583Y-24156000D01*
X131021583Y-24155999D01*
X131450417Y-24155999D01*
X131470700Y-24361933D01*
X131530768Y-24559955D01*
X131579541Y-24651202D01*
X131628315Y-24742450D01*
X131759590Y-24902410D01*
X131919550Y-25033685D01*
X132102046Y-25131232D01*
X132300066Y-25191300D01*
X132506000Y-25211583D01*
X132711934Y-25191300D01*
X132909954Y-25131232D01*
X133092450Y-25033685D01*
X133252410Y-24902410D01*
X133383685Y-24742450D01*
X133481232Y-24559954D01*
X133541300Y-24361934D01*
X133561583Y-24156000D01*
X133541300Y-23950066D01*
X133481232Y-23752046D01*
X133383685Y-23569550D01*
X133252410Y-23409590D01*
X133092450Y-23278315D01*
X133001201Y-23229541D01*
X132909955Y-23180768D01*
X132810943Y-23150733D01*
X132711934Y-23120700D01*
X132506000Y-23100417D01*
X132300066Y-23120700D01*
X132102044Y-23180768D01*
X131919550Y-23278315D01*
X131759590Y-23409590D01*
X131628315Y-23569550D01*
X131530768Y-23752044D01*
X131470700Y-23950066D01*
X131450417Y-24155999D01*
X131021583Y-24155999D01*
X131001300Y-23950066D01*
X130941232Y-23752046D01*
X130843685Y-23569550D01*
X130712410Y-23409590D01*
X130552450Y-23278315D01*
X130461201Y-23229541D01*
X130369955Y-23180768D01*
X130270943Y-23150733D01*
X130171934Y-23120700D01*
X129966000Y-23100417D01*
X129760066Y-23120700D01*
X129562044Y-23180768D01*
X129379550Y-23278315D01*
X129219590Y-23409590D01*
X129088315Y-23569550D01*
X128990768Y-23752044D01*
X128930700Y-23950066D01*
X128910417Y-24155999D01*
X128930700Y-24361933D01*
X128990768Y-24559955D01*
X129023104Y-24620449D01*
X129031041Y-24666191D01*
X129010168Y-24707659D01*
X128094003Y-25623826D01*
X128069996Y-25639867D01*
X128041677Y-25645500D01*
X127956628Y-25645500D01*
X127832330Y-25681996D01*
X127832331Y-25681996D01*
X127723351Y-25752033D01*
X127638517Y-25849937D01*
X127584702Y-25967774D01*
X127566267Y-26096000D01*
X121501193Y-26096000D01*
X121473374Y-26068181D01*
X121457333Y-26044174D01*
X121451700Y-26015855D01*
X121451700Y-25480000D01*
X121461614Y-25443000D01*
X121488700Y-25415914D01*
X121525700Y-25406000D01*
X122146000Y-25406000D01*
X122146000Y-24356000D01*
X122546000Y-24356000D01*
X122546000Y-25405999D01*
X123227481Y-25405999D01*
X123321148Y-25391165D01*
X123434043Y-25333641D01*
X123523641Y-25244043D01*
X123581165Y-25131148D01*
X123596000Y-25037481D01*
X123596000Y-24356000D01*
X122546000Y-24356000D01*
X122146000Y-24356000D01*
X122146000Y-24155999D01*
X123830417Y-24155999D01*
X123850700Y-24361933D01*
X123910768Y-24559955D01*
X123959541Y-24651202D01*
X124008315Y-24742450D01*
X124139590Y-24902410D01*
X124299550Y-25033685D01*
X124482046Y-25131232D01*
X124680066Y-25191300D01*
X124886000Y-25211583D01*
X125091934Y-25191300D01*
X125289954Y-25131232D01*
X125472450Y-25033685D01*
X125632410Y-24902410D01*
X125763685Y-24742450D01*
X125861232Y-24559954D01*
X125921300Y-24361934D01*
X125941583Y-24156000D01*
X125941583Y-24155999D01*
X126370417Y-24155999D01*
X126390700Y-24361933D01*
X126450768Y-24559955D01*
X126499541Y-24651202D01*
X126548315Y-24742450D01*
X126679590Y-24902410D01*
X126839550Y-25033685D01*
X127022046Y-25131232D01*
X127220066Y-25191300D01*
X127426000Y-25211583D01*
X127631934Y-25191300D01*
X127829954Y-25131232D01*
X128012450Y-25033685D01*
X128172410Y-24902410D01*
X128303685Y-24742450D01*
X128401232Y-24559954D01*
X128461300Y-24361934D01*
X128481583Y-24156000D01*
X128461300Y-23950066D01*
X128401232Y-23752046D01*
X128303685Y-23569550D01*
X128172410Y-23409590D01*
X128012450Y-23278315D01*
X127921201Y-23229541D01*
X127829955Y-23180768D01*
X127730943Y-23150733D01*
X127631934Y-23120700D01*
X127426000Y-23100417D01*
X127220066Y-23120700D01*
X127022044Y-23180768D01*
X126839550Y-23278315D01*
X126679590Y-23409590D01*
X126548315Y-23569550D01*
X126450768Y-23752044D01*
X126390700Y-23950066D01*
X126370417Y-24155999D01*
X125941583Y-24155999D01*
X125921300Y-23950066D01*
X125861232Y-23752046D01*
X125763685Y-23569550D01*
X125632410Y-23409590D01*
X125472450Y-23278315D01*
X125381201Y-23229541D01*
X125289955Y-23180768D01*
X125190943Y-23150733D01*
X125091934Y-23120700D01*
X124886000Y-23100417D01*
X124680066Y-23120700D01*
X124482044Y-23180768D01*
X124299550Y-23278315D01*
X124139590Y-23409590D01*
X124008315Y-23569550D01*
X123910768Y-23752044D01*
X123850700Y-23950066D01*
X123830417Y-24155999D01*
X122146000Y-24155999D01*
X122146000Y-22906001D01*
X121525700Y-22906001D01*
X121525696Y-22906000D01*
X122546000Y-22906000D01*
X122546000Y-23956000D01*
X123595999Y-23956000D01*
X123595999Y-23274519D01*
X123581165Y-23180851D01*
X123523641Y-23067956D01*
X123434043Y-22978358D01*
X123321148Y-22920834D01*
X123227481Y-22906000D01*
X122546000Y-22906000D01*
X121525696Y-22906000D01*
X121488700Y-22896087D01*
X121461614Y-22869001D01*
X121451700Y-22832001D01*
X121451700Y-22389021D01*
X121465199Y-22346411D01*
X121500770Y-22319347D01*
X121545437Y-22317702D01*
X121582901Y-22342075D01*
X121599590Y-22362410D01*
X121759550Y-22493685D01*
X121942046Y-22591232D01*
X122140066Y-22651300D01*
X122346000Y-22671583D01*
X122551934Y-22651300D01*
X122749954Y-22591232D01*
X122932450Y-22493685D01*
X123092410Y-22362410D01*
X123223685Y-22202450D01*
X123321232Y-22019954D01*
X123381300Y-21821934D01*
X123401583Y-21616000D01*
X123381300Y-21410066D01*
X123321232Y-21212046D01*
X123223685Y-21029550D01*
X123092410Y-20869590D01*
X123070126Y-20851302D01*
X123045753Y-20813837D01*
X123047398Y-20769170D01*
X123074462Y-20733599D01*
X123117072Y-20720100D01*
X124114928Y-20720100D01*
X124157538Y-20733599D01*
X124184602Y-20769170D01*
X124186247Y-20813837D01*
X124161873Y-20851303D01*
X124139590Y-20869589D01*
X124008315Y-21029550D01*
X123910768Y-21212044D01*
X123850700Y-21410066D01*
X123830417Y-21615999D01*
X123850700Y-21821933D01*
X123910768Y-22019955D01*
X123959541Y-22111201D01*
X124008315Y-22202450D01*
X124139590Y-22362410D01*
X124299550Y-22493685D01*
X124482046Y-22591232D01*
X124680066Y-22651300D01*
X124886000Y-22671583D01*
X125091934Y-22651300D01*
X125289954Y-22591232D01*
X125472450Y-22493685D01*
X125632410Y-22362410D01*
X125763685Y-22202450D01*
X125861232Y-22019954D01*
X125921300Y-21821934D01*
X125941583Y-21616000D01*
X125921300Y-21410066D01*
X125861232Y-21212046D01*
X125763685Y-21029550D01*
X125632410Y-20869590D01*
X125610126Y-20851302D01*
X125585753Y-20813837D01*
X125587398Y-20769170D01*
X125614462Y-20733599D01*
X125657072Y-20720100D01*
X126654928Y-20720100D01*
X126697538Y-20733599D01*
X126724602Y-20769170D01*
X126726247Y-20813837D01*
X126701873Y-20851303D01*
X126679590Y-20869589D01*
X126548315Y-21029550D01*
X126450768Y-21212044D01*
X126390700Y-21410066D01*
X126370417Y-21615999D01*
X126390700Y-21821933D01*
X126450768Y-22019955D01*
X126499541Y-22111201D01*
X126548315Y-22202450D01*
X126679590Y-22362410D01*
X126839550Y-22493685D01*
X127022046Y-22591232D01*
X127220066Y-22651300D01*
X127426000Y-22671583D01*
X127631934Y-22651300D01*
X127829954Y-22591232D01*
X128012450Y-22493685D01*
X128172410Y-22362410D01*
X128303685Y-22202450D01*
X128401232Y-22019954D01*
X128461300Y-21821934D01*
X128481583Y-21616000D01*
X128461300Y-21410066D01*
X128401232Y-21212046D01*
X128303685Y-21029550D01*
X128172410Y-20869590D01*
X128150126Y-20851302D01*
X128125753Y-20813837D01*
X128127398Y-20769170D01*
X128154462Y-20733599D01*
X128197072Y-20720100D01*
X129194928Y-20720100D01*
X129237538Y-20733599D01*
X129264602Y-20769170D01*
X129266247Y-20813837D01*
X129241873Y-20851303D01*
X129219590Y-20869589D01*
X129088315Y-21029550D01*
X128990768Y-21212044D01*
X128930700Y-21410066D01*
X128910417Y-21615999D01*
X128930700Y-21821933D01*
X128990768Y-22019955D01*
X129039541Y-22111201D01*
X129088315Y-22202450D01*
X129219590Y-22362410D01*
X129379550Y-22493685D01*
X129562046Y-22591232D01*
X129760066Y-22651300D01*
X129966000Y-22671583D01*
X130171934Y-22651300D01*
X130369954Y-22591232D01*
X130552450Y-22493685D01*
X130712410Y-22362410D01*
X130843685Y-22202450D01*
X130941232Y-22019954D01*
X131001300Y-21821934D01*
X131021583Y-21616000D01*
X131001300Y-21410066D01*
X130941232Y-21212046D01*
X130843685Y-21029550D01*
X130712410Y-20869590D01*
X130690126Y-20851302D01*
X130665753Y-20813837D01*
X130667398Y-20769170D01*
X130694462Y-20733599D01*
X130737072Y-20720100D01*
X131734928Y-20720100D01*
X131777538Y-20733599D01*
X131804602Y-20769170D01*
X131806247Y-20813837D01*
X131781873Y-20851303D01*
X131759590Y-20869589D01*
X131628315Y-21029550D01*
X131530768Y-21212044D01*
X131470700Y-21410066D01*
X131450417Y-21615999D01*
X131470700Y-21821933D01*
X131530768Y-22019955D01*
X131579541Y-22111201D01*
X131628315Y-22202450D01*
X131759590Y-22362410D01*
X131919550Y-22493685D01*
X132102046Y-22591232D01*
X132300066Y-22651300D01*
X132506000Y-22671583D01*
X132711934Y-22651300D01*
X132909954Y-22591232D01*
X133092450Y-22493685D01*
X133252410Y-22362410D01*
X133383685Y-22202450D01*
X133481232Y-22019954D01*
X133541300Y-21821934D01*
X133561583Y-21616000D01*
X133541300Y-21410066D01*
X133481232Y-21212046D01*
X133383685Y-21029550D01*
X133252410Y-20869590D01*
X133230126Y-20851302D01*
X133205753Y-20813837D01*
X133207398Y-20769170D01*
X133234462Y-20733599D01*
X133277072Y-20720100D01*
X133560323Y-20720100D01*
X133603819Y-20734233D01*
X133630700Y-20771231D01*
X133654504Y-20844490D01*
X133710316Y-20921309D01*
X133967150Y-21178142D01*
X134056858Y-21267850D01*
X134080104Y-21279694D01*
X134089998Y-21285756D01*
X134111110Y-21301096D01*
X134123552Y-21305138D01*
X134135919Y-21309157D01*
X134146648Y-21313601D01*
X134169895Y-21325446D01*
X134195661Y-21329526D01*
X134206957Y-21332237D01*
X134231767Y-21340299D01*
X134257551Y-21340299D01*
X134257563Y-21340300D01*
X134263681Y-21340300D01*
X134987656Y-21340300D01*
X135015975Y-21345933D01*
X135039982Y-21361974D01*
X135098258Y-21420250D01*
X135121504Y-21432094D01*
X135131398Y-21438156D01*
X135152510Y-21453496D01*
X135177330Y-21461560D01*
X135188042Y-21465997D01*
X135211296Y-21477846D01*
X135237065Y-21481927D01*
X135248351Y-21484636D01*
X135273167Y-21492700D01*
X135305081Y-21492700D01*
X135400033Y-21492700D01*
X139002267Y-21492700D01*
X139042272Y-21504446D01*
X139084531Y-21531604D01*
X139208828Y-21568100D01*
X139338370Y-21568100D01*
X139338372Y-21568100D01*
X139462669Y-21531604D01*
X139571649Y-21461567D01*
X139656482Y-21363663D01*
X139710297Y-21245826D01*
X139728733Y-21117600D01*
X139710297Y-20989374D01*
X139656482Y-20871537D01*
X139571649Y-20773633D01*
X139462669Y-20703596D01*
X139338372Y-20667100D01*
X139208828Y-20667100D01*
X139198863Y-20670026D01*
X139135252Y-20688703D01*
X139114405Y-20691700D01*
X135533145Y-20691700D01*
X135504826Y-20686067D01*
X135480819Y-20670026D01*
X135441393Y-20630600D01*
X135441386Y-20630594D01*
X135422541Y-20611749D01*
X135399294Y-20599903D01*
X135389397Y-20593838D01*
X135368289Y-20578503D01*
X135343477Y-20570441D01*
X135332749Y-20565998D01*
X135309504Y-20554154D01*
X135309503Y-20554153D01*
X135283732Y-20550071D01*
X135272449Y-20547362D01*
X135247633Y-20539300D01*
X135247632Y-20539300D01*
X134491744Y-20539300D01*
X134463425Y-20533667D01*
X134439418Y-20517626D01*
X134348619Y-20426826D01*
X134328367Y-20388936D01*
X134332578Y-20346181D01*
X134359833Y-20312971D01*
X134400945Y-20300500D01*
X148202758Y-20300500D01*
X148242945Y-20312363D01*
G37*
G04 #@! TD.AperFunction*
G04 #@! TA.AperFunction,Conductor*
G36*
X142618970Y-29155589D02*
G01*
X142845338Y-29231046D01*
X142851794Y-29236446D01*
X142852841Y-29244800D01*
X142847917Y-29251628D01*
X142760151Y-29308033D01*
X142675318Y-29405936D01*
X142621502Y-29523774D01*
X142603067Y-29651999D01*
X142621502Y-29780225D01*
X142639362Y-29819331D01*
X142675318Y-29898063D01*
X142760151Y-29995967D01*
X142869131Y-30066004D01*
X142993428Y-30102500D01*
X143122972Y-30102500D01*
X143247269Y-30066004D01*
X143356249Y-29995967D01*
X143441082Y-29898063D01*
X143494897Y-29780226D01*
X143513333Y-29652000D01*
X143504138Y-29588050D01*
X143504609Y-29582783D01*
X143507387Y-29578285D01*
X143597282Y-29488390D01*
X143602768Y-29485333D01*
X143609044Y-29485614D01*
X143923003Y-29590267D01*
X143929040Y-29594962D01*
X143930798Y-29602407D01*
X143927496Y-29609308D01*
X143391274Y-30145532D01*
X143387543Y-30148025D01*
X143383142Y-30148900D01*
X142438892Y-30148900D01*
X142434115Y-30147861D01*
X142430201Y-30144931D01*
X142424711Y-30138596D01*
X142365649Y-30070433D01*
X142332140Y-30048898D01*
X142256670Y-30000396D01*
X142132372Y-29963900D01*
X142002828Y-29963900D01*
X141878529Y-30000396D01*
X141769552Y-30070432D01*
X141684718Y-30168336D01*
X141630902Y-30286174D01*
X141612467Y-30414400D01*
X141630902Y-30542625D01*
X141664361Y-30615889D01*
X141684718Y-30660463D01*
X141769551Y-30758367D01*
X141878531Y-30828404D01*
X142002828Y-30864900D01*
X142132372Y-30864900D01*
X142256669Y-30828404D01*
X142365649Y-30758367D01*
X142430200Y-30683869D01*
X142434115Y-30680939D01*
X142438892Y-30679900D01*
X143470596Y-30679900D01*
X143472839Y-30680121D01*
X143476952Y-30680939D01*
X143497880Y-30685102D01*
X143601473Y-30664495D01*
X143667128Y-30620626D01*
X143667127Y-30620626D01*
X143689295Y-30605815D01*
X143703476Y-30584589D01*
X143704900Y-30582852D01*
X143935113Y-30352639D01*
X144365200Y-30352639D01*
X144365200Y-30630000D01*
X144717200Y-30630000D01*
X144717200Y-30395336D01*
X144696925Y-30405666D01*
X144693503Y-30406777D01*
X144583999Y-30424121D01*
X144580401Y-30424121D01*
X144470897Y-30406777D01*
X144467475Y-30405666D01*
X144368690Y-30355333D01*
X144365779Y-30353218D01*
X144365200Y-30352639D01*
X143935113Y-30352639D01*
X144498843Y-29788910D01*
X144504328Y-29785853D01*
X144510604Y-29786134D01*
X145009581Y-29952460D01*
X145015172Y-29956507D01*
X145017439Y-29963027D01*
X145045488Y-30902657D01*
X145044065Y-30908551D01*
X145039842Y-30912902D01*
X145033993Y-30914500D01*
X143099292Y-30914500D01*
X143094515Y-30913461D01*
X143090601Y-30910531D01*
X143066390Y-30882590D01*
X143026049Y-30836033D01*
X142992540Y-30814498D01*
X142917070Y-30765996D01*
X142792772Y-30729500D01*
X142663228Y-30729500D01*
X142538929Y-30765996D01*
X142429952Y-30836032D01*
X142345118Y-30933936D01*
X142291302Y-31051774D01*
X142272867Y-31179999D01*
X142291302Y-31308225D01*
X142320161Y-31371415D01*
X142345118Y-31426063D01*
X142429951Y-31523967D01*
X142538931Y-31594004D01*
X142573483Y-31604149D01*
X142579449Y-31608291D01*
X142581743Y-31615183D01*
X142579449Y-31622075D01*
X142573483Y-31626217D01*
X142487729Y-31651396D01*
X142378752Y-31721432D01*
X142293918Y-31819336D01*
X142240102Y-31937174D01*
X142221667Y-32065399D01*
X142240102Y-32193625D01*
X142268961Y-32256815D01*
X142293918Y-32311463D01*
X142378751Y-32409367D01*
X142487731Y-32479404D01*
X142612028Y-32515900D01*
X142741572Y-32515900D01*
X142865869Y-32479404D01*
X142974849Y-32409367D01*
X143039400Y-32334869D01*
X143043315Y-32331939D01*
X143048092Y-32330900D01*
X143217917Y-32330900D01*
X143224809Y-32333194D01*
X143228951Y-32339160D01*
X143228692Y-32346419D01*
X143224134Y-32352074D01*
X143217352Y-32356432D01*
X143132518Y-32454336D01*
X143078702Y-32572174D01*
X143060267Y-32700399D01*
X143078702Y-32828625D01*
X143127326Y-32935095D01*
X143132518Y-32946463D01*
X143217351Y-33044367D01*
X143326331Y-33114404D01*
X143450628Y-33150900D01*
X143580172Y-33150900D01*
X143704469Y-33114404D01*
X143813449Y-33044367D01*
X143891344Y-32954469D01*
X143895259Y-32951539D01*
X143900036Y-32950500D01*
X145095456Y-32950500D01*
X145103465Y-32953748D01*
X145106951Y-32961657D01*
X145131046Y-33768857D01*
X145129623Y-33774751D01*
X145125400Y-33779102D01*
X145119551Y-33780700D01*
X143150092Y-33780700D01*
X143145315Y-33779661D01*
X143141401Y-33776731D01*
X143121012Y-33753201D01*
X143076849Y-33702233D01*
X143043340Y-33680698D01*
X142967870Y-33632196D01*
X142843572Y-33595700D01*
X142714028Y-33595700D01*
X142589729Y-33632196D01*
X142480752Y-33702232D01*
X142395918Y-33800136D01*
X142342102Y-33917974D01*
X142323667Y-34046200D01*
X142342102Y-34174425D01*
X142348886Y-34189279D01*
X142395918Y-34292263D01*
X142480751Y-34390167D01*
X142556222Y-34438669D01*
X142564045Y-34443697D01*
X142589731Y-34460204D01*
X142714028Y-34496700D01*
X142843572Y-34496700D01*
X142967869Y-34460204D01*
X143076849Y-34390167D01*
X143141400Y-34315669D01*
X143145315Y-34312739D01*
X143150092Y-34311700D01*
X145136089Y-34311700D01*
X145144098Y-34314948D01*
X145147584Y-34322857D01*
X145169924Y-35071257D01*
X145168501Y-35077151D01*
X145164278Y-35081502D01*
X145158429Y-35083100D01*
X143037722Y-35083100D01*
X143030191Y-35080291D01*
X143026339Y-35073237D01*
X143012297Y-34975574D01*
X142987246Y-34920721D01*
X142958482Y-34857737D01*
X142873649Y-34759833D01*
X142840140Y-34738298D01*
X142764670Y-34689796D01*
X142724495Y-34678000D01*
X143265200Y-34678000D01*
X143265200Y-34885100D01*
X143617200Y-34885100D01*
X143617200Y-34678000D01*
X143815200Y-34678000D01*
X143815200Y-34885100D01*
X144167200Y-34885100D01*
X144167200Y-34678000D01*
X143815200Y-34678000D01*
X143617200Y-34678000D01*
X143265200Y-34678000D01*
X142724495Y-34678000D01*
X142640372Y-34653300D01*
X142510828Y-34653300D01*
X142386529Y-34689796D01*
X142277552Y-34759832D01*
X142192718Y-34857736D01*
X142138902Y-34975574D01*
X142120467Y-35103800D01*
X142138902Y-35232025D01*
X142163893Y-35286746D01*
X142192718Y-35349863D01*
X142277551Y-35447767D01*
X142307021Y-35466706D01*
X142341596Y-35488926D01*
X142346154Y-35494581D01*
X142346413Y-35501840D01*
X142342271Y-35507806D01*
X142335379Y-35510100D01*
X142252428Y-35510100D01*
X142128129Y-35546596D01*
X142019152Y-35616632D01*
X142019151Y-35616632D01*
X142019151Y-35616633D01*
X142016840Y-35619300D01*
X141934318Y-35714536D01*
X141880502Y-35832374D01*
X141862067Y-35960600D01*
X141880502Y-36088825D01*
X141909361Y-36152015D01*
X141934318Y-36206663D01*
X142019151Y-36304567D01*
X142055614Y-36328000D01*
X142118648Y-36368510D01*
X142128131Y-36374604D01*
X142252428Y-36411100D01*
X142381972Y-36411100D01*
X142506269Y-36374604D01*
X142615249Y-36304567D01*
X142679800Y-36230069D01*
X142683715Y-36227139D01*
X142688492Y-36226100D01*
X145193235Y-36226100D01*
X145201244Y-36229348D01*
X145204730Y-36237257D01*
X145209691Y-36403457D01*
X145208268Y-36409351D01*
X145204045Y-36413702D01*
X145198196Y-36415300D01*
X143260381Y-36415300D01*
X143255604Y-36414261D01*
X143251690Y-36411331D01*
X143229247Y-36385431D01*
X143120270Y-36315396D01*
X142995972Y-36278900D01*
X142866428Y-36278900D01*
X142742129Y-36315396D01*
X142633152Y-36385432D01*
X142548318Y-36483336D01*
X142494502Y-36601174D01*
X142476067Y-36729400D01*
X142494502Y-36857625D01*
X142535833Y-36948126D01*
X142548318Y-36975463D01*
X142633151Y-37073367D01*
X142742131Y-37143404D01*
X142866428Y-37179900D01*
X142995972Y-37179900D01*
X143120269Y-37143404D01*
X143229249Y-37073367D01*
X143314082Y-36975463D01*
X143324329Y-36953023D01*
X143328574Y-36948126D01*
X143334791Y-36946300D01*
X143624193Y-36946300D01*
X143631302Y-36948760D01*
X143635369Y-36955089D01*
X143634654Y-36962577D01*
X143586702Y-37067574D01*
X143568267Y-37195799D01*
X143586702Y-37324025D01*
X143615561Y-37387215D01*
X143640518Y-37441863D01*
X143722061Y-37535970D01*
X143724857Y-37544047D01*
X143721306Y-37551823D01*
X143713370Y-37555000D01*
X137820939Y-37555000D01*
X137814175Y-37552800D01*
X136886327Y-36878000D01*
X137245913Y-36878000D01*
X137567200Y-37111663D01*
X137567200Y-36878000D01*
X137765200Y-36878000D01*
X137765200Y-37230000D01*
X138117200Y-37230000D01*
X138117200Y-36878000D01*
X138315200Y-36878000D01*
X138315200Y-37230000D01*
X138667200Y-37230000D01*
X139415200Y-37230000D01*
X139767200Y-37230000D01*
X139767200Y-36878000D01*
X139965200Y-36878000D01*
X139965200Y-37230000D01*
X140317200Y-37230000D01*
X140317200Y-36878000D01*
X140515200Y-36878000D01*
X140515200Y-37230000D01*
X140867200Y-37230000D01*
X140867200Y-36878000D01*
X141065200Y-36878000D01*
X141065200Y-37230000D01*
X141417200Y-37230000D01*
X141417200Y-36878000D01*
X141615200Y-36878000D01*
X141615200Y-37230000D01*
X141967200Y-37230000D01*
X141967200Y-36878000D01*
X142165200Y-36878000D01*
X142165200Y-37230000D01*
X142510646Y-37230000D01*
X142503547Y-37225438D01*
X142501073Y-37223294D01*
X142381120Y-37084860D01*
X142379350Y-37082106D01*
X142303256Y-36915486D01*
X142302334Y-36912346D01*
X142297396Y-36878000D01*
X142165200Y-36878000D01*
X141967200Y-36878000D01*
X141615200Y-36878000D01*
X141417200Y-36878000D01*
X141065200Y-36878000D01*
X140867200Y-36878000D01*
X140515200Y-36878000D01*
X140317200Y-36878000D01*
X139965200Y-36878000D01*
X139767200Y-36878000D01*
X139467541Y-36878000D01*
X139482921Y-36975101D01*
X139482921Y-36978699D01*
X139465577Y-37088203D01*
X139464466Y-37091625D01*
X139415200Y-37188316D01*
X139415200Y-37230000D01*
X138667200Y-37230000D01*
X138667200Y-36878000D01*
X138315200Y-36878000D01*
X138117200Y-36878000D01*
X137765200Y-36878000D01*
X137567200Y-36878000D01*
X137245913Y-36878000D01*
X136886327Y-36878000D01*
X136717202Y-36755000D01*
X136717200Y-36755000D01*
X133917200Y-36755000D01*
X133569274Y-36328000D01*
X133915200Y-36328000D01*
X133915200Y-36417720D01*
X134017687Y-36543500D01*
X134267200Y-36543500D01*
X134267200Y-36328000D01*
X134465200Y-36328000D01*
X134465200Y-36543500D01*
X134817200Y-36543500D01*
X134817200Y-36328000D01*
X135015200Y-36328000D01*
X135015200Y-36543500D01*
X135367200Y-36543500D01*
X135367200Y-36328000D01*
X135565200Y-36328000D01*
X135565200Y-36543500D01*
X135917200Y-36543500D01*
X135917200Y-36328000D01*
X136115200Y-36328000D01*
X136115200Y-36543500D01*
X136467200Y-36543500D01*
X136467200Y-36328000D01*
X136665200Y-36328000D01*
X136665200Y-36543500D01*
X136748901Y-36543500D01*
X136752457Y-36544064D01*
X136812752Y-36563671D01*
X136815960Y-36565307D01*
X136973663Y-36680000D01*
X137017200Y-36680000D01*
X137017200Y-36328000D01*
X137215200Y-36328000D01*
X137215200Y-36680000D01*
X137567200Y-36680000D01*
X137567200Y-36328000D01*
X137765200Y-36328000D01*
X137765200Y-36680000D01*
X138117200Y-36680000D01*
X138117200Y-36328000D01*
X138315200Y-36328000D01*
X138315200Y-36680000D01*
X138667200Y-36680000D01*
X138667200Y-36328000D01*
X138865200Y-36328000D01*
X138865200Y-36680000D01*
X138903645Y-36680000D01*
X138903690Y-36679967D01*
X139002475Y-36629634D01*
X139005897Y-36628523D01*
X139115401Y-36611179D01*
X139118999Y-36611179D01*
X139217200Y-36626733D01*
X139217200Y-36328000D01*
X139415200Y-36328000D01*
X139415200Y-36680000D01*
X139767200Y-36680000D01*
X139767200Y-36328000D01*
X139965200Y-36328000D01*
X139965200Y-36680000D01*
X140317200Y-36680000D01*
X140317200Y-36328000D01*
X140515200Y-36328000D01*
X140515200Y-36680000D01*
X140867200Y-36680000D01*
X140867200Y-36328000D01*
X141065200Y-36328000D01*
X141065200Y-36680000D01*
X141417200Y-36680000D01*
X141615200Y-36680000D01*
X141967200Y-36680000D01*
X141967200Y-36506542D01*
X141889547Y-36456637D01*
X141887073Y-36454494D01*
X141777466Y-36328000D01*
X141734774Y-36328000D01*
X141714133Y-36368510D01*
X141712018Y-36371421D01*
X141633621Y-36449818D01*
X141630710Y-36451933D01*
X141615200Y-36459836D01*
X141615200Y-36680000D01*
X141417200Y-36680000D01*
X141417200Y-36520721D01*
X141415401Y-36520721D01*
X141305897Y-36503377D01*
X141302475Y-36502266D01*
X141203690Y-36451933D01*
X141200779Y-36449818D01*
X141122382Y-36371421D01*
X141120267Y-36368510D01*
X141099626Y-36328000D01*
X141065200Y-36328000D01*
X140867200Y-36328000D01*
X140515200Y-36328000D01*
X140317200Y-36328000D01*
X139965200Y-36328000D01*
X139767200Y-36328000D01*
X139415200Y-36328000D01*
X139217200Y-36328000D01*
X138865200Y-36328000D01*
X138667200Y-36328000D01*
X138315200Y-36328000D01*
X138117200Y-36328000D01*
X137765200Y-36328000D01*
X137567200Y-36328000D01*
X137215200Y-36328000D01*
X137017200Y-36328000D01*
X136665200Y-36328000D01*
X136467200Y-36328000D01*
X136115200Y-36328000D01*
X135917200Y-36328000D01*
X135565200Y-36328000D01*
X135367200Y-36328000D01*
X135015200Y-36328000D01*
X134817200Y-36328000D01*
X134465200Y-36328000D01*
X134267200Y-36328000D01*
X133915200Y-36328000D01*
X133569274Y-36328000D01*
X133121125Y-35778000D01*
X133393946Y-35778000D01*
X133680761Y-36130000D01*
X133717200Y-36130000D01*
X133717200Y-35778000D01*
X133915200Y-35778000D01*
X133915200Y-36130000D01*
X134267200Y-36130000D01*
X134267200Y-35778000D01*
X134465200Y-35778000D01*
X134465200Y-36130000D01*
X134817200Y-36130000D01*
X134817200Y-35778000D01*
X135015200Y-35778000D01*
X135015200Y-36130000D01*
X135367200Y-36130000D01*
X135367200Y-35778000D01*
X135565200Y-35778000D01*
X135565200Y-36130000D01*
X135917200Y-36130000D01*
X135917200Y-35778000D01*
X136115200Y-35778000D01*
X136115200Y-36130000D01*
X136467200Y-36130000D01*
X136467200Y-35778000D01*
X136665200Y-35778000D01*
X136665200Y-36130000D01*
X137017200Y-36130000D01*
X137017200Y-35778000D01*
X137215200Y-35778000D01*
X137215200Y-36130000D01*
X137567200Y-36130000D01*
X137567200Y-35778000D01*
X137765200Y-35778000D01*
X137765200Y-36130000D01*
X138117200Y-36130000D01*
X138117200Y-35778000D01*
X138315200Y-35778000D01*
X138315200Y-36130000D01*
X138667200Y-36130000D01*
X138667200Y-35778000D01*
X138865200Y-35778000D01*
X138865200Y-36130000D01*
X139217200Y-36130000D01*
X139217200Y-35778000D01*
X139415200Y-35778000D01*
X139415200Y-36130000D01*
X139767200Y-36130000D01*
X139767200Y-35778000D01*
X139965200Y-35778000D01*
X139965200Y-36130000D01*
X140317200Y-36130000D01*
X140317200Y-35778000D01*
X140515200Y-35778000D01*
X140515200Y-36130000D01*
X140867200Y-36130000D01*
X140867200Y-35778000D01*
X141065200Y-35778000D01*
X141065200Y-36066571D01*
X141068823Y-36043697D01*
X141069934Y-36040275D01*
X141120267Y-35941490D01*
X141122382Y-35938579D01*
X141200779Y-35860182D01*
X141203690Y-35858067D01*
X141302475Y-35807734D01*
X141305897Y-35806623D01*
X141415401Y-35789279D01*
X141417200Y-35789279D01*
X141417200Y-35778000D01*
X141065200Y-35778000D01*
X140867200Y-35778000D01*
X140515200Y-35778000D01*
X140317200Y-35778000D01*
X139965200Y-35778000D01*
X139767200Y-35778000D01*
X139415200Y-35778000D01*
X139217200Y-35778000D01*
X138865200Y-35778000D01*
X138667200Y-35778000D01*
X138315200Y-35778000D01*
X138117200Y-35778000D01*
X137765200Y-35778000D01*
X137567200Y-35778000D01*
X137215200Y-35778000D01*
X137017200Y-35778000D01*
X136665200Y-35778000D01*
X136467200Y-35778000D01*
X136115200Y-35778000D01*
X135917200Y-35778000D01*
X135565200Y-35778000D01*
X135367200Y-35778000D01*
X135015200Y-35778000D01*
X134817200Y-35778000D01*
X134465200Y-35778000D01*
X134267200Y-35778000D01*
X133915200Y-35778000D01*
X133717200Y-35778000D01*
X133393946Y-35778000D01*
X133121125Y-35778000D01*
X132672977Y-35228000D01*
X133365200Y-35228000D01*
X133365200Y-35261574D01*
X133365521Y-35263601D01*
X133365521Y-35267199D01*
X133365200Y-35269226D01*
X133365200Y-35580000D01*
X133717200Y-35580000D01*
X133717200Y-35228000D01*
X133915200Y-35228000D01*
X133915200Y-35580000D01*
X134267200Y-35580000D01*
X134267200Y-35228000D01*
X134465200Y-35228000D01*
X134465200Y-35580000D01*
X134817200Y-35580000D01*
X134817200Y-35228000D01*
X135015200Y-35228000D01*
X135015200Y-35580000D01*
X135367200Y-35580000D01*
X135367200Y-35228000D01*
X135565200Y-35228000D01*
X135565200Y-35580000D01*
X135917200Y-35580000D01*
X135917200Y-35228000D01*
X136115200Y-35228000D01*
X136115200Y-35580000D01*
X136467200Y-35580000D01*
X136467200Y-35228000D01*
X136665200Y-35228000D01*
X136665200Y-35580000D01*
X137017200Y-35580000D01*
X137017200Y-35228000D01*
X137215200Y-35228000D01*
X137215200Y-35580000D01*
X137567200Y-35580000D01*
X137567200Y-35228000D01*
X137765200Y-35228000D01*
X137765200Y-35580000D01*
X138117200Y-35580000D01*
X138117200Y-35228000D01*
X138315200Y-35228000D01*
X138315200Y-35580000D01*
X138667200Y-35580000D01*
X138865200Y-35580000D01*
X139217200Y-35580000D01*
X139217200Y-35228000D01*
X139415200Y-35228000D01*
X139415200Y-35580000D01*
X139767200Y-35580000D01*
X139767200Y-35228000D01*
X139965200Y-35228000D01*
X139965200Y-35580000D01*
X140317200Y-35580000D01*
X140317200Y-35228000D01*
X140515200Y-35228000D01*
X140515200Y-35580000D01*
X140867200Y-35580000D01*
X140867200Y-35228000D01*
X141065200Y-35228000D01*
X141065200Y-35580000D01*
X141417200Y-35580000D01*
X141417200Y-35228000D01*
X141615200Y-35228000D01*
X141615200Y-35580000D01*
X141788904Y-35580000D01*
X141887073Y-35466706D01*
X141889547Y-35464563D01*
X141967200Y-35414657D01*
X141967200Y-35332681D01*
X141947656Y-35289886D01*
X141946734Y-35286746D01*
X141938288Y-35228000D01*
X141615200Y-35228000D01*
X141417200Y-35228000D01*
X141065200Y-35228000D01*
X140867200Y-35228000D01*
X140515200Y-35228000D01*
X140317200Y-35228000D01*
X139965200Y-35228000D01*
X139767200Y-35228000D01*
X139415200Y-35228000D01*
X139217200Y-35228000D01*
X139171644Y-35228000D01*
X139165577Y-35266303D01*
X139164466Y-35269725D01*
X139114133Y-35368510D01*
X139112018Y-35371421D01*
X139033621Y-35449818D01*
X139030710Y-35451933D01*
X138931925Y-35502266D01*
X138928503Y-35503377D01*
X138865200Y-35513403D01*
X138865200Y-35580000D01*
X138667200Y-35580000D01*
X138667200Y-35484293D01*
X138603690Y-35451933D01*
X138600779Y-35449818D01*
X138522382Y-35371421D01*
X138520267Y-35368510D01*
X138469934Y-35269725D01*
X138468823Y-35266303D01*
X138462756Y-35228000D01*
X138315200Y-35228000D01*
X138117200Y-35228000D01*
X137765200Y-35228000D01*
X137567200Y-35228000D01*
X137215200Y-35228000D01*
X137017200Y-35228000D01*
X136665200Y-35228000D01*
X136467200Y-35228000D01*
X136115200Y-35228000D01*
X135917200Y-35228000D01*
X135565200Y-35228000D01*
X135367200Y-35228000D01*
X135015200Y-35228000D01*
X134817200Y-35228000D01*
X134465200Y-35228000D01*
X134267200Y-35228000D01*
X133915200Y-35228000D01*
X133717200Y-35228000D01*
X133365200Y-35228000D01*
X132672977Y-35228000D01*
X132224829Y-34678000D01*
X132815200Y-34678000D01*
X132815200Y-34953736D01*
X132885075Y-34918134D01*
X132888497Y-34917023D01*
X132998001Y-34899679D01*
X133001599Y-34899679D01*
X133111103Y-34917023D01*
X133114525Y-34918134D01*
X133167200Y-34944973D01*
X133167200Y-34678000D01*
X133365200Y-34678000D01*
X133365200Y-35030000D01*
X133717200Y-35030000D01*
X133717200Y-34678000D01*
X133915200Y-34678000D01*
X133915200Y-35030000D01*
X134267200Y-35030000D01*
X134267200Y-34678000D01*
X134465200Y-34678000D01*
X134465200Y-35030000D01*
X134817200Y-35030000D01*
X134817200Y-34678000D01*
X135015200Y-34678000D01*
X135015200Y-35030000D01*
X135367200Y-35030000D01*
X135367200Y-34678000D01*
X135565200Y-34678000D01*
X135565200Y-35030000D01*
X135917200Y-35030000D01*
X135917200Y-34678000D01*
X136115200Y-34678000D01*
X136115200Y-35030000D01*
X136467200Y-35030000D01*
X136467200Y-34678000D01*
X136665200Y-34678000D01*
X136665200Y-35030000D01*
X137017200Y-35030000D01*
X137017200Y-34678000D01*
X137215200Y-34678000D01*
X137215200Y-35030000D01*
X137567200Y-35030000D01*
X137567200Y-34678000D01*
X137765200Y-34678000D01*
X137765200Y-35030000D01*
X138117200Y-35030000D01*
X138117200Y-34678000D01*
X138315200Y-34678000D01*
X138315200Y-35030000D01*
X138475169Y-35030000D01*
X138520267Y-34941490D01*
X138522382Y-34938579D01*
X138600779Y-34860182D01*
X138603690Y-34858067D01*
X138667200Y-34825707D01*
X138667200Y-34678000D01*
X138865200Y-34678000D01*
X138865200Y-34796597D01*
X138928503Y-34806623D01*
X138931925Y-34807734D01*
X139030710Y-34858067D01*
X139033621Y-34860182D01*
X139112018Y-34938579D01*
X139114133Y-34941490D01*
X139159231Y-35030000D01*
X139217200Y-35030000D01*
X139217200Y-34678000D01*
X139415200Y-34678000D01*
X139415200Y-35030000D01*
X139767200Y-35030000D01*
X139767200Y-34678000D01*
X139965200Y-34678000D01*
X139965200Y-35030000D01*
X140317200Y-35030000D01*
X140317200Y-34678000D01*
X140515200Y-34678000D01*
X140515200Y-35030000D01*
X140867200Y-35030000D01*
X140867200Y-34678000D01*
X141065200Y-34678000D01*
X141065200Y-35030000D01*
X141417200Y-35030000D01*
X141615200Y-35030000D01*
X141931042Y-35030000D01*
X141946734Y-34920854D01*
X141947656Y-34917714D01*
X141967200Y-34874919D01*
X141967200Y-34678000D01*
X141760250Y-34678000D01*
X141714133Y-34768510D01*
X141712018Y-34771421D01*
X141633621Y-34849818D01*
X141630710Y-34851933D01*
X141615200Y-34859836D01*
X141615200Y-35030000D01*
X141417200Y-35030000D01*
X141417200Y-34920721D01*
X141415401Y-34920721D01*
X141305897Y-34903377D01*
X141302475Y-34902266D01*
X141203690Y-34851933D01*
X141200779Y-34849818D01*
X141122382Y-34771421D01*
X141120267Y-34768510D01*
X141074150Y-34678000D01*
X141065200Y-34678000D01*
X140867200Y-34678000D01*
X140515200Y-34678000D01*
X140317200Y-34678000D01*
X139965200Y-34678000D01*
X139767200Y-34678000D01*
X139415200Y-34678000D01*
X139217200Y-34678000D01*
X138865200Y-34678000D01*
X138667200Y-34678000D01*
X138315200Y-34678000D01*
X138117200Y-34678000D01*
X137765200Y-34678000D01*
X137567200Y-34678000D01*
X137215200Y-34678000D01*
X137017200Y-34678000D01*
X136665200Y-34678000D01*
X136467200Y-34678000D01*
X136115200Y-34678000D01*
X135917200Y-34678000D01*
X135565200Y-34678000D01*
X135367200Y-34678000D01*
X135015200Y-34678000D01*
X134817200Y-34678000D01*
X134465200Y-34678000D01*
X134267200Y-34678000D01*
X133915200Y-34678000D01*
X133717200Y-34678000D01*
X133365200Y-34678000D01*
X133167200Y-34678000D01*
X132815200Y-34678000D01*
X132224829Y-34678000D01*
X131776681Y-34128000D01*
X132265200Y-34128000D01*
X132265200Y-34392721D01*
X132336316Y-34480000D01*
X132617200Y-34480000D01*
X132617200Y-34128000D01*
X132815200Y-34128000D01*
X132815200Y-34480000D01*
X133167200Y-34480000D01*
X133167200Y-34128000D01*
X133365200Y-34128000D01*
X133365200Y-34480000D01*
X133717200Y-34480000D01*
X133717200Y-34128000D01*
X133915200Y-34128000D01*
X133915200Y-34480000D01*
X134267200Y-34480000D01*
X134267200Y-34128000D01*
X134465200Y-34128000D01*
X134465200Y-34480000D01*
X134817200Y-34480000D01*
X134817200Y-34128000D01*
X135015200Y-34128000D01*
X135015200Y-34480000D01*
X135367200Y-34480000D01*
X135367200Y-34128000D01*
X135565200Y-34128000D01*
X135565200Y-34480000D01*
X135917200Y-34480000D01*
X135917200Y-34128000D01*
X136115200Y-34128000D01*
X136115200Y-34480000D01*
X136467200Y-34480000D01*
X136467200Y-34128000D01*
X136665200Y-34128000D01*
X136665200Y-34480000D01*
X137017200Y-34480000D01*
X137017200Y-34128000D01*
X137215200Y-34128000D01*
X137215200Y-34480000D01*
X137567200Y-34480000D01*
X137567200Y-34128000D01*
X137765200Y-34128000D01*
X137765200Y-34480000D01*
X138117200Y-34480000D01*
X138117200Y-34128000D01*
X138315200Y-34128000D01*
X138315200Y-34480000D01*
X138667200Y-34480000D01*
X138667200Y-34128000D01*
X138865200Y-34128000D01*
X138865200Y-34480000D01*
X139217200Y-34480000D01*
X139217200Y-34128000D01*
X139415200Y-34128000D01*
X139415200Y-34480000D01*
X139767200Y-34480000D01*
X139767200Y-34128000D01*
X139965200Y-34128000D01*
X139965200Y-34480000D01*
X140317200Y-34480000D01*
X140317200Y-34128000D01*
X140515200Y-34128000D01*
X140515200Y-34480000D01*
X140867200Y-34480000D01*
X140867200Y-34128000D01*
X141065200Y-34128000D01*
X141065200Y-34466573D01*
X141068823Y-34443697D01*
X141069934Y-34440275D01*
X141120267Y-34341490D01*
X141122382Y-34338579D01*
X141200779Y-34260182D01*
X141203690Y-34258067D01*
X141302475Y-34207734D01*
X141305897Y-34206623D01*
X141415401Y-34189279D01*
X141417200Y-34189279D01*
X141417200Y-34128000D01*
X141615200Y-34128000D01*
X141615200Y-34250164D01*
X141630710Y-34258067D01*
X141633621Y-34260182D01*
X141712018Y-34338579D01*
X141714133Y-34341490D01*
X141764466Y-34440275D01*
X141765577Y-34443697D01*
X141771327Y-34480000D01*
X141967200Y-34480000D01*
X141967200Y-34128000D01*
X141615200Y-34128000D01*
X141417200Y-34128000D01*
X141065200Y-34128000D01*
X140867200Y-34128000D01*
X140515200Y-34128000D01*
X140317200Y-34128000D01*
X139965200Y-34128000D01*
X139767200Y-34128000D01*
X139415200Y-34128000D01*
X139217200Y-34128000D01*
X138865200Y-34128000D01*
X138667200Y-34128000D01*
X138315200Y-34128000D01*
X138117200Y-34128000D01*
X137765200Y-34128000D01*
X137567200Y-34128000D01*
X137215200Y-34128000D01*
X137017200Y-34128000D01*
X136665200Y-34128000D01*
X136467200Y-34128000D01*
X136115200Y-34128000D01*
X135917200Y-34128000D01*
X135565200Y-34128000D01*
X135367200Y-34128000D01*
X135015200Y-34128000D01*
X134817200Y-34128000D01*
X134465200Y-34128000D01*
X134267200Y-34128000D01*
X133915200Y-34128000D01*
X133717200Y-34128000D01*
X133365200Y-34128000D01*
X133167200Y-34128000D01*
X132815200Y-34128000D01*
X132617200Y-34128000D01*
X132265200Y-34128000D01*
X131776681Y-34128000D01*
X131717200Y-34055000D01*
X131717200Y-33578000D01*
X131928700Y-33578000D01*
X131928700Y-33930000D01*
X132067200Y-33930000D01*
X132067200Y-33578000D01*
X132265200Y-33578000D01*
X132265200Y-33930000D01*
X132617200Y-33930000D01*
X132617200Y-33578000D01*
X132815200Y-33578000D01*
X132815200Y-33930000D01*
X133167200Y-33930000D01*
X133167200Y-33578000D01*
X133365200Y-33578000D01*
X133365200Y-33930000D01*
X133717200Y-33930000D01*
X133717200Y-33578000D01*
X133915200Y-33578000D01*
X133915200Y-33930000D01*
X134267200Y-33930000D01*
X134267200Y-33578000D01*
X134465200Y-33578000D01*
X134465200Y-33930000D01*
X134817200Y-33930000D01*
X134817200Y-33578000D01*
X135015200Y-33578000D01*
X135015200Y-33930000D01*
X135367200Y-33930000D01*
X135367200Y-33578000D01*
X135565200Y-33578000D01*
X135565200Y-33930000D01*
X135917200Y-33930000D01*
X135917200Y-33578000D01*
X136115200Y-33578000D01*
X136115200Y-33930000D01*
X136467200Y-33930000D01*
X136467200Y-33578000D01*
X136665200Y-33578000D01*
X136665200Y-33930000D01*
X137017200Y-33930000D01*
X137017200Y-33578000D01*
X137215200Y-33578000D01*
X137215200Y-33930000D01*
X137567200Y-33930000D01*
X137567200Y-33578000D01*
X137765200Y-33578000D01*
X137765200Y-33930000D01*
X138117200Y-33930000D01*
X138117200Y-33578000D01*
X138315200Y-33578000D01*
X138315200Y-33930000D01*
X138667200Y-33930000D01*
X138667200Y-33578000D01*
X139432736Y-33578000D01*
X139464466Y-33640275D01*
X139465577Y-33643697D01*
X139482921Y-33753201D01*
X139482921Y-33756799D01*
X139465577Y-33866303D01*
X139464466Y-33869725D01*
X139433755Y-33930000D01*
X139767200Y-33930000D01*
X139767200Y-33578000D01*
X139965200Y-33578000D01*
X139965200Y-33930000D01*
X140317200Y-33930000D01*
X140317200Y-33578000D01*
X140515200Y-33578000D01*
X140515200Y-33930000D01*
X140867200Y-33930000D01*
X140867200Y-33578000D01*
X141065200Y-33578000D01*
X141065200Y-33930000D01*
X141417200Y-33930000D01*
X141417200Y-33578000D01*
X141615200Y-33578000D01*
X141615200Y-33930000D01*
X141967200Y-33930000D01*
X141967200Y-33578000D01*
X141615200Y-33578000D01*
X141417200Y-33578000D01*
X141065200Y-33578000D01*
X140867200Y-33578000D01*
X140515200Y-33578000D01*
X140317200Y-33578000D01*
X139965200Y-33578000D01*
X139767200Y-33578000D01*
X139432736Y-33578000D01*
X138667200Y-33578000D01*
X138315200Y-33578000D01*
X138117200Y-33578000D01*
X137765200Y-33578000D01*
X137567200Y-33578000D01*
X137215200Y-33578000D01*
X137017200Y-33578000D01*
X136665200Y-33578000D01*
X136467200Y-33578000D01*
X136115200Y-33578000D01*
X135917200Y-33578000D01*
X135565200Y-33578000D01*
X135367200Y-33578000D01*
X135015200Y-33578000D01*
X134817200Y-33578000D01*
X134465200Y-33578000D01*
X134267200Y-33578000D01*
X133915200Y-33578000D01*
X133717200Y-33578000D01*
X133365200Y-33578000D01*
X133167200Y-33578000D01*
X132815200Y-33578000D01*
X132617200Y-33578000D01*
X132265200Y-33578000D01*
X132067200Y-33578000D01*
X131928700Y-33578000D01*
X131717200Y-33578000D01*
X131717200Y-33319061D01*
X131717200Y-33159764D01*
X131720568Y-33151632D01*
X131844200Y-33028000D01*
X132265200Y-33028000D01*
X132265200Y-33380000D01*
X132617200Y-33380000D01*
X132617200Y-33028000D01*
X132815200Y-33028000D01*
X132815200Y-33380000D01*
X133167200Y-33380000D01*
X133167200Y-33028000D01*
X133365200Y-33028000D01*
X133365200Y-33380000D01*
X133717200Y-33380000D01*
X133717200Y-33028000D01*
X133915200Y-33028000D01*
X133915200Y-33380000D01*
X134267200Y-33380000D01*
X134267200Y-33028000D01*
X134465200Y-33028000D01*
X134465200Y-33380000D01*
X134817200Y-33380000D01*
X134817200Y-33028000D01*
X135015200Y-33028000D01*
X135015200Y-33380000D01*
X135367200Y-33380000D01*
X135367200Y-33028000D01*
X135565200Y-33028000D01*
X135565200Y-33380000D01*
X135917200Y-33380000D01*
X135917200Y-33028000D01*
X136115200Y-33028000D01*
X136115200Y-33380000D01*
X136467200Y-33380000D01*
X136467200Y-33028000D01*
X136665200Y-33028000D01*
X136665200Y-33380000D01*
X137017200Y-33380000D01*
X137017200Y-33028000D01*
X137215200Y-33028000D01*
X137215200Y-33380000D01*
X137567200Y-33380000D01*
X137567200Y-33028000D01*
X137765200Y-33028000D01*
X137765200Y-33380000D01*
X138117200Y-33380000D01*
X138117200Y-33028000D01*
X138315200Y-33028000D01*
X138315200Y-33380000D01*
X138667200Y-33380000D01*
X138667200Y-33028000D01*
X138865200Y-33028000D01*
X138865200Y-33380000D01*
X139217200Y-33380000D01*
X139217200Y-33028000D01*
X139415200Y-33028000D01*
X139415200Y-33380000D01*
X139767200Y-33380000D01*
X139767200Y-33028000D01*
X139965200Y-33028000D01*
X139965200Y-33380000D01*
X140317200Y-33380000D01*
X140317200Y-33028000D01*
X140515200Y-33028000D01*
X140515200Y-33380000D01*
X140867200Y-33380000D01*
X140867200Y-33028000D01*
X141065200Y-33028000D01*
X141065200Y-33380000D01*
X141417200Y-33380000D01*
X141417200Y-33028000D01*
X141615200Y-33028000D01*
X141615200Y-33380000D01*
X141967200Y-33380000D01*
X141967200Y-33028000D01*
X142165200Y-33028000D01*
X142165200Y-33380000D01*
X142517200Y-33380000D01*
X142517200Y-33028000D01*
X142715200Y-33028000D01*
X142715200Y-33380000D01*
X143067200Y-33380000D01*
X143815200Y-33380000D01*
X144167200Y-33380000D01*
X144167200Y-33148500D01*
X144365200Y-33148500D01*
X144365200Y-33380000D01*
X144717200Y-33380000D01*
X144717200Y-33148500D01*
X144365200Y-33148500D01*
X144167200Y-33148500D01*
X143985208Y-33148500D01*
X143945527Y-33194294D01*
X143943053Y-33196437D01*
X143815200Y-33278604D01*
X143815200Y-33380000D01*
X143067200Y-33380000D01*
X143067200Y-33173436D01*
X142965320Y-33055860D01*
X142963550Y-33053106D01*
X142952084Y-33028000D01*
X142715200Y-33028000D01*
X142517200Y-33028000D01*
X142165200Y-33028000D01*
X141967200Y-33028000D01*
X141615200Y-33028000D01*
X141417200Y-33028000D01*
X141065200Y-33028000D01*
X140867200Y-33028000D01*
X140515200Y-33028000D01*
X140317200Y-33028000D01*
X139965200Y-33028000D01*
X139767200Y-33028000D01*
X139415200Y-33028000D01*
X139217200Y-33028000D01*
X138865200Y-33028000D01*
X138667200Y-33028000D01*
X138315200Y-33028000D01*
X138117200Y-33028000D01*
X137765200Y-33028000D01*
X137567200Y-33028000D01*
X137215200Y-33028000D01*
X137017200Y-33028000D01*
X136665200Y-33028000D01*
X136467200Y-33028000D01*
X136115200Y-33028000D01*
X135917200Y-33028000D01*
X135565200Y-33028000D01*
X135367200Y-33028000D01*
X135015200Y-33028000D01*
X134817200Y-33028000D01*
X134465200Y-33028000D01*
X134267200Y-33028000D01*
X133915200Y-33028000D01*
X133717200Y-33028000D01*
X133365200Y-33028000D01*
X133167200Y-33028000D01*
X132815200Y-33028000D01*
X132617200Y-33028000D01*
X132265200Y-33028000D01*
X131844200Y-33028000D01*
X132042200Y-32830000D01*
X132341306Y-32830000D01*
X132617200Y-32830000D01*
X132617200Y-32554105D01*
X132341306Y-32830000D01*
X132042200Y-32830000D01*
X132312906Y-32559294D01*
X132394200Y-32478000D01*
X132815200Y-32478000D01*
X132815200Y-32830000D01*
X133167200Y-32830000D01*
X133167200Y-32478000D01*
X133365200Y-32478000D01*
X133365200Y-32830000D01*
X133717200Y-32830000D01*
X133717200Y-32478000D01*
X133915200Y-32478000D01*
X133915200Y-32830000D01*
X134267200Y-32830000D01*
X134267200Y-32478000D01*
X134465200Y-32478000D01*
X134465200Y-32830000D01*
X134817200Y-32830000D01*
X134817200Y-32478000D01*
X135015200Y-32478000D01*
X135015200Y-32830000D01*
X135367200Y-32830000D01*
X135367200Y-32478000D01*
X135565200Y-32478000D01*
X135565200Y-32830000D01*
X135917200Y-32830000D01*
X135917200Y-32478000D01*
X136115200Y-32478000D01*
X136115200Y-32830000D01*
X136467200Y-32830000D01*
X136467200Y-32478000D01*
X136665200Y-32478000D01*
X136665200Y-32830000D01*
X137017200Y-32830000D01*
X137017200Y-32478000D01*
X137215200Y-32478000D01*
X137215200Y-32830000D01*
X137567200Y-32830000D01*
X137567200Y-32478000D01*
X137765200Y-32478000D01*
X137765200Y-32830000D01*
X138117200Y-32830000D01*
X138117200Y-32478000D01*
X138315200Y-32478000D01*
X138315200Y-32830000D01*
X138667200Y-32830000D01*
X138667200Y-32478000D01*
X138865200Y-32478000D01*
X138865200Y-32830000D01*
X139217200Y-32830000D01*
X139217200Y-32478000D01*
X139415200Y-32478000D01*
X139415200Y-32830000D01*
X139767200Y-32830000D01*
X139767200Y-32478000D01*
X139965200Y-32478000D01*
X139965200Y-32830000D01*
X140317200Y-32830000D01*
X140317200Y-32478000D01*
X140515200Y-32478000D01*
X140515200Y-32830000D01*
X140867200Y-32830000D01*
X140867200Y-32478000D01*
X141065200Y-32478000D01*
X141065200Y-32830000D01*
X141417200Y-32830000D01*
X141417200Y-32478000D01*
X141615200Y-32478000D01*
X141615200Y-32830000D01*
X141967200Y-32830000D01*
X141967200Y-32478000D01*
X142165200Y-32478000D01*
X142165200Y-32830000D01*
X142517200Y-32830000D01*
X142517200Y-32694415D01*
X142406220Y-32661829D01*
X142403243Y-32660469D01*
X142249147Y-32561437D01*
X142246673Y-32559294D01*
X142176232Y-32478000D01*
X142165200Y-32478000D01*
X141967200Y-32478000D01*
X141615200Y-32478000D01*
X141417200Y-32478000D01*
X141065200Y-32478000D01*
X140867200Y-32478000D01*
X140515200Y-32478000D01*
X140317200Y-32478000D01*
X139965200Y-32478000D01*
X139767200Y-32478000D01*
X139415200Y-32478000D01*
X139217200Y-32478000D01*
X138865200Y-32478000D01*
X138667200Y-32478000D01*
X138315200Y-32478000D01*
X138117200Y-32478000D01*
X137765200Y-32478000D01*
X137567200Y-32478000D01*
X137215200Y-32478000D01*
X137017200Y-32478000D01*
X136665200Y-32478000D01*
X136467200Y-32478000D01*
X136115200Y-32478000D01*
X135917200Y-32478000D01*
X135565200Y-32478000D01*
X135367200Y-32478000D01*
X135015200Y-32478000D01*
X134817200Y-32478000D01*
X134465200Y-32478000D01*
X134267200Y-32478000D01*
X133915200Y-32478000D01*
X133717200Y-32478000D01*
X133365200Y-32478000D01*
X133167200Y-32478000D01*
X132815200Y-32478000D01*
X132394200Y-32478000D01*
X132592200Y-32280000D01*
X133365200Y-32280000D01*
X133717200Y-32280000D01*
X133915200Y-32280000D01*
X134267200Y-32280000D01*
X134465200Y-32280000D01*
X134817200Y-32280000D01*
X135015200Y-32280000D01*
X135367200Y-32280000D01*
X135565200Y-32280000D01*
X135917200Y-32280000D01*
X135917200Y-31928000D01*
X136115200Y-31928000D01*
X136115200Y-32280000D01*
X136467200Y-32280000D01*
X136467200Y-31928000D01*
X136665200Y-31928000D01*
X136665200Y-32280000D01*
X137017200Y-32280000D01*
X137017200Y-31928000D01*
X137215200Y-31928000D01*
X137215200Y-32280000D01*
X137567200Y-32280000D01*
X137567200Y-31928000D01*
X137765200Y-31928000D01*
X137765200Y-32280000D01*
X138117200Y-32280000D01*
X138117200Y-31928000D01*
X138315200Y-31928000D01*
X138315200Y-32280000D01*
X138667200Y-32280000D01*
X138667200Y-31928000D01*
X138865200Y-31928000D01*
X138865200Y-32280000D01*
X139217200Y-32280000D01*
X139217200Y-31928000D01*
X139415200Y-31928000D01*
X139415200Y-32280000D01*
X139767200Y-32280000D01*
X139767200Y-31928000D01*
X139965200Y-31928000D01*
X139965200Y-32280000D01*
X140317200Y-32280000D01*
X140317200Y-31928000D01*
X140515200Y-31928000D01*
X140515200Y-32280000D01*
X140867200Y-32280000D01*
X140867200Y-31928000D01*
X141065200Y-31928000D01*
X141065200Y-32280000D01*
X141417200Y-32280000D01*
X141417200Y-31928000D01*
X141615200Y-31928000D01*
X141615200Y-32280000D01*
X141967200Y-32280000D01*
X141967200Y-31928000D01*
X141615200Y-31928000D01*
X141417200Y-31928000D01*
X141065200Y-31928000D01*
X140867200Y-31928000D01*
X140515200Y-31928000D01*
X140317200Y-31928000D01*
X139965200Y-31928000D01*
X139767200Y-31928000D01*
X139415200Y-31928000D01*
X139217200Y-31928000D01*
X138865200Y-31928000D01*
X138667200Y-31928000D01*
X138315200Y-31928000D01*
X138117200Y-31928000D01*
X137765200Y-31928000D01*
X137567200Y-31928000D01*
X137215200Y-31928000D01*
X137017200Y-31928000D01*
X136665200Y-31928000D01*
X136467200Y-31928000D01*
X136115200Y-31928000D01*
X135917200Y-31928000D01*
X135695229Y-31928000D01*
X135565200Y-32011352D01*
X135565200Y-32280000D01*
X135367200Y-32280000D01*
X135367200Y-32068669D01*
X135015200Y-32082749D01*
X135015200Y-32280000D01*
X134817200Y-32280000D01*
X134817200Y-32090669D01*
X134465200Y-32104749D01*
X134465200Y-32280000D01*
X134267200Y-32280000D01*
X134267200Y-32112669D01*
X133915200Y-32126749D01*
X133915200Y-32280000D01*
X133717200Y-32280000D01*
X133717200Y-32134668D01*
X133365200Y-32148748D01*
X133365200Y-32280000D01*
X132592200Y-32280000D01*
X132914021Y-31958178D01*
X132921691Y-31954820D01*
X135417200Y-31855000D01*
X135612200Y-31730000D01*
X136115200Y-31730000D01*
X136467200Y-31730000D01*
X136467200Y-31433147D01*
X136115200Y-31658787D01*
X136115200Y-31730000D01*
X135612200Y-31730000D01*
X136161320Y-31378000D01*
X136665200Y-31378000D01*
X136665200Y-31730000D01*
X137017200Y-31730000D01*
X137017200Y-31378000D01*
X137215200Y-31378000D01*
X137215200Y-31730000D01*
X137567200Y-31730000D01*
X137567200Y-31378000D01*
X137765200Y-31378000D01*
X137765200Y-31730000D01*
X138117200Y-31730000D01*
X138117200Y-31378000D01*
X138315200Y-31378000D01*
X138315200Y-31730000D01*
X138667200Y-31730000D01*
X138667200Y-31378000D01*
X138865200Y-31378000D01*
X138865200Y-31730000D01*
X139217200Y-31730000D01*
X139217200Y-31378000D01*
X139415200Y-31378000D01*
X139415200Y-31730000D01*
X139767200Y-31730000D01*
X139767200Y-31378000D01*
X139965200Y-31378000D01*
X139965200Y-31730000D01*
X140317200Y-31730000D01*
X140317200Y-31378000D01*
X140515200Y-31378000D01*
X140515200Y-31730000D01*
X140867200Y-31730000D01*
X140867200Y-31378000D01*
X141065200Y-31378000D01*
X141065200Y-31730000D01*
X141417200Y-31730000D01*
X141417200Y-31378000D01*
X141615200Y-31378000D01*
X141615200Y-31730000D01*
X141967200Y-31730000D01*
X141967200Y-31378000D01*
X141615200Y-31378000D01*
X141417200Y-31378000D01*
X141065200Y-31378000D01*
X140867200Y-31378000D01*
X140515200Y-31378000D01*
X140317200Y-31378000D01*
X139965200Y-31378000D01*
X139767200Y-31378000D01*
X139415200Y-31378000D01*
X139217200Y-31378000D01*
X138865200Y-31378000D01*
X138667200Y-31378000D01*
X138315200Y-31378000D01*
X138117200Y-31378000D01*
X137765200Y-31378000D01*
X137567200Y-31378000D01*
X137215200Y-31378000D01*
X137017200Y-31378000D01*
X136665200Y-31378000D01*
X136161320Y-31378000D01*
X136470200Y-31180000D01*
X137215200Y-31180000D01*
X137567200Y-31180000D01*
X137567200Y-30828000D01*
X137765200Y-30828000D01*
X137765200Y-31180000D01*
X138117200Y-31180000D01*
X138117200Y-30828000D01*
X138315200Y-30828000D01*
X138315200Y-31180000D01*
X138667200Y-31180000D01*
X138667200Y-30828000D01*
X138865200Y-30828000D01*
X138865200Y-31180000D01*
X139217200Y-31180000D01*
X139217200Y-30828000D01*
X139415200Y-30828000D01*
X139415200Y-31180000D01*
X139767200Y-31180000D01*
X139767200Y-30828000D01*
X139965200Y-30828000D01*
X139965200Y-31180000D01*
X140317200Y-31180000D01*
X140317200Y-30828000D01*
X140515200Y-30828000D01*
X140515200Y-31180000D01*
X140867200Y-31180000D01*
X140867200Y-30828000D01*
X141065200Y-30828000D01*
X141065200Y-31180000D01*
X141417200Y-31180000D01*
X141417200Y-30882590D01*
X141615200Y-30882590D01*
X141615200Y-31180000D01*
X141967200Y-31180000D01*
X141967200Y-31060797D01*
X141797020Y-31010829D01*
X141794043Y-31009469D01*
X141639947Y-30910437D01*
X141637473Y-30908294D01*
X141615200Y-30882590D01*
X141417200Y-30882590D01*
X141417200Y-30828000D01*
X141065200Y-30828000D01*
X140867200Y-30828000D01*
X140515200Y-30828000D01*
X140317200Y-30828000D01*
X139965200Y-30828000D01*
X139767200Y-30828000D01*
X139415200Y-30828000D01*
X139217200Y-30828000D01*
X138865200Y-30828000D01*
X138667200Y-30828000D01*
X138315200Y-30828000D01*
X138117200Y-30828000D01*
X137765200Y-30828000D01*
X137567200Y-30828000D01*
X137411229Y-30828000D01*
X137215200Y-30953659D01*
X137215200Y-31180000D01*
X136470200Y-31180000D01*
X137328200Y-30630000D01*
X137765200Y-30630000D01*
X138117200Y-30630000D01*
X138117200Y-30375454D01*
X137765200Y-30601095D01*
X137765200Y-30630000D01*
X137328200Y-30630000D01*
X137877320Y-30278000D01*
X138315200Y-30278000D01*
X138315200Y-30630000D01*
X138667200Y-30630000D01*
X138667200Y-30278000D01*
X138865200Y-30278000D01*
X138865200Y-30630000D01*
X139217200Y-30630000D01*
X139217200Y-30278000D01*
X139415200Y-30278000D01*
X139415200Y-30630000D01*
X139767200Y-30630000D01*
X139767200Y-30278000D01*
X139965200Y-30278000D01*
X139965200Y-30630000D01*
X140317200Y-30630000D01*
X140317200Y-30278000D01*
X140515200Y-30278000D01*
X140515200Y-30630000D01*
X140867200Y-30630000D01*
X140867200Y-30278000D01*
X141065200Y-30278000D01*
X141065200Y-30630000D01*
X141417200Y-30630000D01*
X141417200Y-30447566D01*
X141412667Y-30416037D01*
X141412667Y-30412763D01*
X141417200Y-30381234D01*
X141417200Y-30278000D01*
X141065200Y-30278000D01*
X140867200Y-30278000D01*
X140515200Y-30278000D01*
X140317200Y-30278000D01*
X139965200Y-30278000D01*
X139767200Y-30278000D01*
X139415200Y-30278000D01*
X139217200Y-30278000D01*
X138865200Y-30278000D01*
X138667200Y-30278000D01*
X138315200Y-30278000D01*
X137877320Y-30278000D01*
X138186200Y-30080000D01*
X138865200Y-30080000D01*
X139217200Y-30080000D01*
X139217200Y-29728000D01*
X139415200Y-29728000D01*
X139415200Y-30080000D01*
X139767200Y-30080000D01*
X139767200Y-29728000D01*
X139965200Y-29728000D01*
X139965200Y-30080000D01*
X140317200Y-30080000D01*
X140317200Y-29728000D01*
X140515200Y-29728000D01*
X140515200Y-30080000D01*
X140867200Y-30080000D01*
X140867200Y-29728000D01*
X141065200Y-29728000D01*
X141065200Y-30080000D01*
X141417200Y-30080000D01*
X141417200Y-29728000D01*
X141615200Y-29728000D01*
X141615200Y-29946210D01*
X141637473Y-29920506D01*
X141639947Y-29918363D01*
X141794043Y-29819331D01*
X141797020Y-29817971D01*
X141967200Y-29768003D01*
X141967200Y-29728000D01*
X141615200Y-29728000D01*
X141417200Y-29728000D01*
X141065200Y-29728000D01*
X140867200Y-29728000D01*
X140515200Y-29728000D01*
X140317200Y-29728000D01*
X139965200Y-29728000D01*
X139767200Y-29728000D01*
X139415200Y-29728000D01*
X139217200Y-29728000D01*
X139127229Y-29728000D01*
X138865200Y-29895967D01*
X138865200Y-30080000D01*
X138186200Y-30080000D01*
X139044199Y-29530000D01*
X139965200Y-29530000D01*
X140317200Y-29530000D01*
X140317200Y-29366500D01*
X140515200Y-29366500D01*
X140515200Y-29530000D01*
X140867200Y-29530000D01*
X140867200Y-29366500D01*
X141065200Y-29366500D01*
X141065200Y-29530000D01*
X141417200Y-29530000D01*
X141417200Y-29366500D01*
X141615200Y-29366500D01*
X141615200Y-29530000D01*
X141967200Y-29530000D01*
X141967200Y-29366500D01*
X142165200Y-29366500D01*
X142165200Y-29530000D01*
X142420572Y-29530000D01*
X142429334Y-29469055D01*
X142430256Y-29465914D01*
X142475657Y-29366500D01*
X142165200Y-29366500D01*
X141967200Y-29366500D01*
X141615200Y-29366500D01*
X141417200Y-29366500D01*
X141065200Y-29366500D01*
X140867200Y-29366500D01*
X140515200Y-29366500D01*
X140317200Y-29366500D01*
X140240414Y-29366500D01*
X139965200Y-29427659D01*
X139965200Y-29530000D01*
X139044199Y-29530000D01*
X139315483Y-29356100D01*
X139319192Y-29354557D01*
X140215967Y-29155273D01*
X140218462Y-29155000D01*
X142615333Y-29155000D01*
X142618970Y-29155589D01*
G37*
G04 #@! TD.AperFunction*
M02*
